<svg id="Layer_1" data-name="Layer 1" xmlns="http://www.w3.org/2000/svg" viewBox="0 0 186.84 186.83"><defs><style>.cls-1{fill:#fff;}</style></defs><path class="cls-1" d="M.08,93.38c0-17.31-.22-34.63.06-51.94C.44,23.56,9.06,10.81,25.26,3.28A36.3,36.3,0,0,1,40.71,0C75.88,0,111.06,0,146.24.05c22,.06,40.42,18.37,40.5,40.4q.21,52.92,0,105.83c-.09,22.33-18.59,40.49-41,40.52q-52.08.06-104.17,0A41.11,41.11,0,0,1,.09,145.32C0,128,.08,110.69.08,93.38ZM101.6,150.8v-2q0-26.19,0-52.38c0-1.38.38-1.77,1.76-1.74,4,.09,8.11,0,12.16,0h2.71c.7-7.59,1.38-15,2.08-22.54H102.57a4.27,4.27,0,0,1-.13-.74c0-2.8-.07-5.6,0-8.4.1-3.51,1.87-5.15,5.42-5.16s7,0,10.51,0c.52,0,1.05-.06,1.66-.09,0-6.23,0-12.28,0-18.33a5.51,5.51,0,0,0-.09-.71,1.77,1.77,0,0,0-.46-.17c-7,.07-14-.2-21,.31-9.84.73-16.76,6.91-18.63,16.69C79,60.19,79.23,65,79,69.76c0,.78,0,1.56,0,2.53H67.93V94.72c3.22,0,6.32.08,9.42,0,1.48-.06,1.8.43,1.8,1.85-.05,17.41,0,34.82,0,52.22v2Z"/></svg>