<svg id="Layer_1" data-name="Layer 1" xmlns="http://www.w3.org/2000/svg" viewBox="0 0 186.82 186.81"><defs><style>.cls-1{fill:#fff;}</style></defs><path class="cls-1" d="M0,93.41C0,76.05,0,58.68,0,41.32A41.06,41.06,0,0,1,33,.86,41.66,41.66,0,0,1,41.34.05Q93.51,0,145.67,0A41.18,41.18,0,0,1,186.8,41.23q0,52.08,0,104.17a41.22,41.22,0,0,1-41.43,41.39q-51.93,0-103.87,0A41.16,41.16,0,0,1,0,145.35C0,128,0,110.72,0,93.41Zm157,0c0-9,0-18,0-27a36.19,36.19,0,0,0-36.63-36.55q-26.94,0-53.89,0A36.18,36.18,0,0,0,29.83,66.49v54A36.19,36.19,0,0,0,66.22,157q27.16.06,54.34,0a35.32,35.32,0,0,0,5.53-.42c18.19-2.94,30.81-17.73,30.89-36.17C157,111.39,157,102.38,157,93.38Z"/><path class="cls-1" d="M93.28,146.06c-9,0-17.91,0-26.87,0a25.25,25.25,0,0,1-25.69-25.68q0-26.94,0-53.89c0-14.64,11.11-25.72,25.78-25.74q26.94,0,53.89,0a25.2,25.2,0,0,1,25.66,25.68q0,26.94,0,53.89C146.05,135,135,146,120.3,146.06Zm0-20.11a32.55,32.55,0,1,0-32.4-32.86A32.54,32.54,0,0,0,93.23,126Zm34.15-59.16A7.83,7.83,0,1,0,119.54,59,7.81,7.81,0,0,0,127.38,66.79Z"/><path class="cls-1" d="M93.41,71.77A21.64,21.64,0,1,1,71.77,93.43,21.68,21.68,0,0,1,93.41,71.77Z"/></svg>