<svg xmlns="http://www.w3.org/2000/svg" viewBox="0 0 402 246"><defs><style>.a{fill:#ef8c22;}</style></defs><path class="a" d="M220.38,79.55c.38.38,1.13.08.88-1l-1.39-.7Z"/><path class="a" d="M222.16,71.66c-.76-1.29-2-2.74-3.15-1.76,1.38,1.21.88,1.58,2.51,2.88.25,1.13-.25,2-.75,1.88.37.37-.14,1.8.74,2.34a5.39,5.39,0,0,0-.24-5.35C221.52,71.2,221.9,71.58,222.16,71.66Z"/><path class="a" d="M190.46,74.64a5.45,5.45,0,0,1,.5.37A1.32,1.32,0,0,0,190.46,74.64Z"/><path class="a" d="M137.66,60.73a7.65,7.65,0,0,0-1.49-1.17A7.82,7.82,0,0,0,137.66,60.73Z"/><path class="a" d="M147.16,72.91l-.66-.82A1.71,1.71,0,0,0,147.16,72.91Z"/><path class="a" d="M190.46,74.64l-1.57-1.06C188.61,73.93,189.66,74.22,190.46,74.64Z"/><path class="a" d="M217.64,56.55a3.09,3.09,0,0,0,.44,1c-.09-.31-.16-.61-.23-.93Z"/><path class="a" d="M202.41,55.48l.22-.52a3.82,3.82,0,0,0-.32-.64Z"/><path class="a" d="M214.1,26.79c-.31.62-.36,3.69-.43,5.12a16.51,16.51,0,0,1,.56-3.35A9,9,0,0,0,214.1,26.79Z"/><path class="a" d="M221.72,50.89c.08.27.15.44.22.67Z"/><path class="a" d="M195.75,70.9a.86.86,0,0,0-.46,0A.58.58,0,0,0,195.75,70.9Z"/><path class="a" d="M250.12,85.15a.67.67,0,0,0,0-.2C250,85.06,249.94,85.14,250.12,85.15Z"/><path class="a" d="M223,79l.37-.06a3.44,3.44,0,0,0,.1-.63Z"/><path class="a" d="M163.25,92.06,163.2,92C162.71,91.64,163,91.86,163.25,92.06Z"/><path class="a" d="M207.39,158.86c.83-2.33,1.57,3.56,2.42.09C209.4,159.3,207.82,156,207.39,158.86Z"/><path class="a" d="M217.74,55.93c0-.31-.08-.63-.1-1A3.29,3.29,0,0,0,217.74,55.93Z"/><path class="a" d="M209.81,159h0l.08-.36Z"/><path class="a" d="M173.41,118.33a1.59,1.59,0,0,0,.7.1C174,118.34,173.85,118.3,173.41,118.33Z"/><path class="a" d="M173.65,99.76l.52.77A3.78,3.78,0,0,0,173.65,99.76Z"/><path class="a" d="M155.57,133.18a6.68,6.68,0,0,0-1.8,1.18,4.09,4.09,0,0,0,.49-.18C154.29,134,154.6,133.66,155.57,133.18Z"/><path class="a" d="M131.19,150.8l1.36-.71.52-.44Z"/><path class="a" d="M264.09,86.89l2.58.06C264.78,86.84,264.8,86.53,264.09,86.89Z"/><path class="a" d="M218.27,56.49a.74.74,0,0,1-.53-.56c0,.23.07.45.11.66C218,56.64,218.18,56.64,218.27,56.49Z"/><path class="a" d="M169.25,134.23l-.67.28A2.39,2.39,0,0,0,169.25,134.23Z"/><path class="a" d="M261.71,155a.29.29,0,0,0,.07-.12C261.7,154.78,261.67,154.8,261.71,155Z"/><path class="a" d="M168,135.17c-1.34.48-2.23.84-2.88,1.12l1-.32C166.71,135.67,167.35,135.4,168,135.17Z"/><path class="a" d="M266.7,87h0Z"/><path class="a" d="M260.67,86.47l11.07-2.07.63-.05a27.6,27.6,0,0,1-3.68.76l-5.92,1c.83-.12,2.63-.37,4-.51s2.38-.2,2-.07c-1,.12-1.39.19-2.45.29,1.95-.15,1.34.11.94.33s-.7.43.45.76c-.4,0-.73,0-1,0,1.91,0,3.81.08,5,.17-.43.19-.34.41-.51.59s-.52.31-1.64.24c.63-.22-.12-.34-.54-.5a1.45,1.45,0,0,1,0,.46c-3.41-.13.2-.59-2.08-.79a2.62,2.62,0,0,1-.4,1.15,2.91,2.91,0,0,1-1.86,1.06c-1.58-.83,1.93-1.27-.95-1.42.63-.06,1.35-.17,2.15-.3a11.58,11.58,0,0,1-1.91-.22c-.2,0-.1-.08,0-.1s.18-.06-.06-.12-.86-.11-2-.29c-.61,0-.43.15-.44.34s-.14.43-.64.42a2.59,2.59,0,0,0,.33.87,1.14,1.14,0,0,1,.22.92c-5.23,3.56-5.78-1.36-9.32,2-.75,1.28-.54,3-3.87,3.4l.45-1.83c-4,1.42-1.41,2.94-5.89,3.62.5-.85,2.88-1.7,2.22-1.64-1.55,0-1.94.36-2.19.86a6.08,6.08,0,0,1-.41.8A2,2,0,0,1,242,97a4.53,4.53,0,0,1-.92.47,15.56,15.56,0,0,0-1.37-.92c-3.51,1.52-6.93,3.2-10.07,4.77,2.7,3.53,5.23,6.77,7.46,9.91-.56-.12-1.76-1.17-1,.67.47.64.62.81.89,1.15l.73,1c.48.65.94,1.32,1.4,2,.91,1.36,1.77,2.79,2.59,4.23,1.64,2.89,3.11,5.86,4.44,8.6l2.26,1.28c.28.46.1,1.12-.41.76.93,2.21.69-.3,1.7.38.81,1.08.41,1.85-.35,1.34,3.13,2.91,8.32,8.69,9.69,13l-.76-.52a5.08,5.08,0,0,0,2.73,2.51,5,5,0,0,1,1.32.88,3.26,3.26,0,0,1,.52.71,4,4,0,0,1,.22.46l.09.27a.68.68,0,0,1,0,.19.53.53,0,0,1-.19-.09l-.25-.2.17.3.08.16.15.29.31.56c.22.37.45.73.69,1.09l1.47,2.17c.88,1.36,1.56,2.7-.28,1.53,2.29,1.94,2.27,2.24,2.31,2.49s.26.62,4.22,4.47a3.5,3.5,0,0,1-.45-.35c-2.49-2.13-3.76-3.33-5-4.47l-3.58-3.35a10.16,10.16,0,0,0,1.1,1.53c.65.88,1.23,1.77,1,1.81l-2-2.69a10.64,10.64,0,0,1,1.08,2.18c-.81-1.07-1.53-2.09-2.15-3.05a.63.63,0,0,1-.09.32,14,14,0,0,1,1.28,1.85c-.23.19-1.17-.64-1.74-1.42a4,4,0,0,1-.9-1.94,1.45,1.45,0,0,1-.71.17h-.39l-.36-.15-1.59-.67c.19-.17.55-.14,1,0l.69.18.36.09c.11,0,.27.08.27,0s-.15,0-.25,0l-.29-.07-.46-.15a1.73,1.73,0,0,1-.54-.29.47.47,0,0,1-.16-.54c.07-.36.17-.7-1.55-1.08.24.47-.59.5-.78.67-1-1.5-4.25-3.48-6.8-4.67l.9-.44c-2.1-1.41-4.42-2.72-6.82-4-.38-.19-1.78-1-2.82-1.61l-3.3-1.91c-2.19-1.28-4.36-2.57-6.56-3.92,1.68,1.26,2.39,2.24,2.42,2.77s-.53.66-1.55.12c-.37-.6-.75-1.2-1.16-1.82l-.3-.25c0,1.45.26.94.48.72.35.34.59.62.26.7,0,.31,0,.79-.09,1.45-1,2.74-1.66.36-1.25-2.37L228,141c-.36-.14-.2-1.35-.45-2.19,0,1.38-.84,2.93-1.72,4.9a25.53,25.53,0,0,0-1.19,3,9.85,9.85,0,0,0-.33,1.47,1.35,1.35,0,0,0,0,.33.57.57,0,0,0,0,.18,1.27,1.27,0,0,0,.12.36l-.42,0c-1.7,5.41-2,8-3.36,12.42.53.21.59.73.59,1.39,0,.33,0,.7,0,1.09v.29c0,.1,0,.1.07.16a3.19,3.19,0,0,0,.2.32,4.93,4.93,0,0,1-1.19,1.34c-.36.28-.59.37-.73,1a15.78,15.78,0,0,0,.12,2.19,13.53,13.53,0,0,1,.21,2.2,3.57,3.57,0,0,0-.5-1.56,4.35,4.35,0,0,1-.17-1.88c-.17.82-.29,1.38-.45,2.33-.23,1.38-.47,2.89-.88,5.37-.07,1.64,0,2-.18,3.77-.12.67-.2.55-.19-.09s.07-1.8.19-3l.08-.61a19.51,19.51,0,0,1-.62,3.08c0-.86,0-2.57.14-4.32s.29-3.53.44-4.86.27-2.22.26-2.52-.14,0-.52.75l.09-.19c-.34.46-.7.58-1.09.38a1.11,1.11,0,0,1,.45-1,3.31,3.31,0,0,0,.77-1.35c-.4.34-.62.1-.72-.23a3.44,3.44,0,0,1-.05-1.16l.06-.54a3.26,3.26,0,0,0,0-.33l0-.43-.06-.85a16,16,0,0,0-.66-3.58c2.71-4.18-1.31-14,.2-19.44l-.68.36c-.81-1.39.3-1.37.29-3.54-.26.2-.37.92-.47,1.38s-.2.67-.45,0c-.52-4.27-.9-8.41-1.22-12.77-3.85,1-7.71,1.94-11.76,2.88l-.76.17-.61.14L200,128l-1.76.34-3.54.66c-4.73.86-9.48,1.67-14.11,2.65-4.28,1-1.44,4.2-7.22,4l1.17-1.68c-1,.47-2.05.9-3.1,1.3l-.39.15-.11,0,0,0-.14.1-.33.18a7.18,7.18,0,0,1-1.42.44,9.14,9.14,0,0,0-1.42.39c-.6.22-1.42.6-3.11,1.4,1.11-.61,2.32-1.35,2.46-1.38,1.24-.83,1.21-.83.25-.37s-2.86,1.43-4.44,2.26a10.52,10.52,0,0,1,1.55-.87l2.68-1.42c1.07-.58-.31.11-1.7.75s-2.66,1.2-.38.09l2-.94c-.47.22-.77.36-1,.45-.42.15.87-.54-3.32,1.39,1.54-.79,1.25-.73,1.16-.79s-.07-.2,1.34-.82c-2,.66-1,.16-.47-.13s.83-.47-1.43.08c5.06-1.42,4.54-1.47,3.72-1.94a3.78,3.78,0,0,0,1.12-.08,4.08,4.08,0,0,1,1.28,0c.1-.08.08-.18-.06-.33a2.09,2.09,0,0,0-.94-.54c1.53,1.57,4-5.06,7.38-4.05,2.54-2.44,5-4.73,7.46-6.92l1.83-1.62.92-.8.22-.19.34-.28.73-.59,5.57-4.48c1,.36-1.25,2.08-3.47,3.75l-1.6,1.23L187,120l-.33.28a2.45,2.45,0,0,0-.18.2c-.4.46-.55.88-.22,1.23l.45-.43.22-.21a3.27,3.27,0,0,1,.29-.26l1.54-1.34c1-.87,1.87-1.67,2.69-2.44l4.4-4.11a72.47,72.47,0,0,1-7.77-7.72c-.71-.93-.36-.84.33-.41s1.71,1.21,2.16,1.46l-1.4-1.31-1.23-1.17c-.54-.5-1-1-1.56-1.52-1-1-2-2.06-2.93-3.07a42.76,42.76,0,0,0-5.95-5.58c.14-.1.66.19,1.13.48-.76-.71-1.47-1.94-2-1.29l.85.58c.28,2-4.64-1.3-5.23-1,2.93-.33-3.15-4.2.94-4.2-.59-.39-1.46-.75-1.75-.26-.58-.85-.57-1.3.59-1-2.88-2.41-2.61-.84-4.91-3.31.29-.27.87.12,1.45.06a10.63,10.63,0,0,1-5.2-3.74c.3,0,.3-.49.88.13a39.56,39.56,0,0,0-5.31-4.19c-.44-.32-.89-.65-1.32-1a10.11,10.11,0,0,1-.93-.72,7.31,7.31,0,0,1-1.58-1.86c2.84.51,0-.85,2.17-.69-.45-.27-1-.58-1.5-.94a4.16,4.16,0,0,0-.9.09A19.36,19.36,0,0,0,152.6,69c-.9-.65-1.78-1.36-1.64-1.58.76.52,1.49,1,2.17,1.41l-2.47-2.2a.76.76,0,0,0-.36.44A27.11,27.11,0,0,0,146.68,65a3.9,3.9,0,0,1-1.88-1.57c.42.34,0-.06-.19-.46s-.33-.76.75-.26h0c-1.07-.79-2.23-1.66-3.11-2.4s-1.49-1.32-1.35-1.44c.74.43,2.33,1.51,3.82,2.52s2.91,2,3.43,2.29c-1.06-.74-1.85-1.33-2.51-1.86-.25-.33.45-.07.85,0s.54-.09-.52-1.07c.52.54,2.86,2.3,3.42,2.69-.81-.68-1.56-1.33-2.26-2a22.92,22.92,0,0,1,3.71,2.64c1.16.55-.11-.45-1.2-1.3a8.59,8.59,0,0,1-1.08-.91c0-.1.4.1,1.58.78-.05.07.39.4.3.53a13.43,13.43,0,0,0,3.77,1.37A13.43,13.43,0,0,1,158,66c1.51,2.21-1.68-.26.07,1.79,1,.25,2.18.22,3.95.51a44,44,0,0,1,8,2.6l-.87-.52c1.47-1.7,3.36,2.44,6.26,2.51-.67-.1-1.24.77-1,.62,3.32,1.66,7.23,2.27,12.69,3.69l-.85.25a11.84,11.84,0,0,0,1.64.91l.94.44,1.31.56c1.9.78,3.83,1.55,5.43,2.31.51-.2,1.45.09,1.48-.19s0-.26-.1-.25a.4.4,0,0,0-.11-.2c-.07-.09-.17-.19-.28-.31l.24.17a16.79,16.79,0,0,0,3.4-5.54l.34-.84.29-.76c.15-.4.28-.81.4-1.22.25-.81.46-1.63.67-2.44.84-3.26,1.59-6.44,4-8.9-.29.71-.27,1.88,0,1.31l1.64-5.25c-1,0-.79.45-1.9,1.23a6.64,6.64,0,0,1,.48-3.69c-.38,2.51,1.38.54,2.26-.24-.33.06-.47-.4-.77-.43,2.61-2-1.54-1.15,1-4.34l.37.38a9.17,9.17,0,0,0,.17-1c0-.33.07-.68.13-1a6.83,6.83,0,0,1,.63-2.12c1,.48-.19,1.75.48,2.43a18.64,18.64,0,0,0,.39-3.29c.14-1.28.46-2.65,1-2.63-.19,1.24-.63,2.3-.74,3.35.7-.06.95,0,1.14-.23s.28-.5.51-.8l0,0a6.28,6.28,0,0,1,1-.9l-.27-.24a22.68,22.68,0,0,1,.37-4.24,11.47,11.47,0,0,1,.68-2.29,21.13,21.13,0,0,0,.78-2c.29-.92.61-2.23,1.11-4.62-.48,2.28-.7,3.54-.82,4.34a6.08,6.08,0,0,0-.12,1.32,6.77,6.77,0,0,1,0,2.46,6.33,6.33,0,0,1,0,2.68c.27-1.64.39-1.87.45-1.77s.08.47.28-.26a6.7,6.7,0,0,0,.43-1.46,36,36,0,0,1-.62,4.57,4.12,4.12,0,0,0,.37-1.62c.12-.87.24-2,.41-2.89s.37-.31.38.53-.07,2.08-.14,3.19a19.55,19.55,0,0,0-.09,2.71c.05.63.23.88.69.88a9,9,0,0,0,1.54,1.55,6.57,6.57,0,0,1,1.62,3.37c-.24.78-.62.51-.93.2a5.51,5.51,0,0,1-.54-.75,11.55,11.55,0,0,0-.2,1.32,5.8,5.8,0,0,0,0,.6c0,.24,0,.48,0,.72a14.69,14.69,0,0,0,.63,2.9c-.38-.39-.63.07-1,.74.25,1.66,1.51,1,1.13,3.25a5.87,5.87,0,0,1-1.7-1.54c.52,1.94,1.42,3.82,1.94,5.83-.63.6-1.13-1.14-1.63-1.82.5,2.27,1.12,5.88,2.26,6.5l.25-1.5c.13.83-.88.51-1.13-.09-1-1.89.13-2.87.51-3l.37,1.43c2.15-1.69-.87-5.8-1-8.74l1.76,1.08-1.63-2.88c.37-.68,1.26-1.19,1.64.23.63-2.18-.75-1.77,0-3.72.12-.24.21-.15.29.06-.23-.79-.46-1.52-.68-2.2.37.32,1.1-.92,1,.74a13.48,13.48,0,0,0,0-3.27,14.36,14.36,0,0,0-.54-2.25,5,5,0,0,1-.19-3.61l.12.25c-.52-2.82-.78-2.31-1.13-1.56a5.55,5.55,0,0,1-.62,1.16.85.85,0,0,1-.92.35c.77-2.78,1.51-6,2.2-9.53-.34.77-.68,1.57-1,2.4a9.74,9.74,0,0,1,.34-3.25c-.42,0-.51.49-.59,1.05a3.91,3.91,0,0,1-.49,1.72,24.71,24.71,0,0,0-.12-6,27.47,27.47,0,0,1,.38-7.41A19.25,19.25,0,0,0,219,23.2c-.06,1-.12,1.53-.46,1.42.26-1.85.39-3.06.44-3.88-.08-.42-.57,1.36-1,3s-.89,3.1-1.15,2.71c.69-4.48,1.6-5.19.83-5.84-.72,4.11-1.15,4.9-1.68,5.43a4.47,4.47,0,0,0-1.68,2.53A14.43,14.43,0,0,1,213,33.85c-.67,1.7-1.59,3.68-2.25,5.89-.05-.51-.86.92-2,3L207,46.26,206.1,48a5.67,5.67,0,0,1-.38.67l-.32.53-.19-.18c1.13,1.11-.34,3.92-.94,6.16-.77-.42-.93-.94-.82-2.24l-.82,2a4.24,4.24,0,0,1-.17,2.72l-.81-.92c-1,2.68-1,5.84-3.12,9,.87.59,3.76-1.62,2.9,2.25-.57-.08-1.5-.31-1.32-1.34a3.42,3.42,0,0,1-.51,1.82l-.26-1.8c-1,1.39.38,1.11-.21,2.32-.72-.33-.91.7-1.41.28.06-.34.75-1,.66-1.55a8.1,8.1,0,0,1-2.63,3.19.83.83,0,0,1,.62.36.92.92,0,0,1,.13.44,2,2,0,0,1-.07.6c-.36.94-.62,1-.88.8s-.54-.4-.84-.19a1.79,1.79,0,0,1-.06,1,2.19,2.19,0,0,0,.28,1.47c-.11.26-.26.24-.4.11s-.37-.57-.53-.8c-.5.36-3.57-1.24-3,.34l.24.19-.18,0h0a6.17,6.17,0,0,1-.76-.09c-.3-.07-.6-.14-.9-.23a16.93,16.93,0,0,1-1.78-.6,36.51,36.51,0,0,1-3.43-1.59,38.1,38.1,0,0,0-6.83-3l.15-.36c-2.85-.64-6.08-2.1-8.31-2.06-.79-.31-1.61-1.4-1.1-1.71-1.08-.26-1.72-.32-2.43-.52a8.21,8.21,0,0,1-1.18-.47c-.23-.12-.48-.25-.75-.41l-1.23-.69c1.46.2,1.32,0,1.21-.12s-.07-.06.16,0l1.24.55c-1.08-.6-2.51-1.42-3.69-1.95a12.6,12.6,0,0,0-4.4-1.1c.5-.35-.31-1-1.61-1.68a17.81,17.81,0,0,0-3.8-1.48c1.17.72,2.28,1.41,3.31,2.07a53.62,53.62,0,0,1-5.64-2.23,11.76,11.76,0,0,1-.51-1.64,37.67,37.67,0,0,0-6.89-3,24.65,24.65,0,0,0-4.36-.93,14.31,14.31,0,0,1-3.77-.91,60.07,60.07,0,0,1-7.7-4c.39.65,2.14,1.51,3.85,2.37a15.2,15.2,0,0,1,4.16,2.63c-1.45-.63-3.68-1.83-6.16-3.18L120.77,45c-.23,0-.31.16,0,.43.81,1.4,3.59,3.64,6.23,5.68s5.22,4,6.38,5.58a14.52,14.52,0,0,1,2.93,1.5,39.08,39.08,0,0,1,4.9,3.61c.78,1,.2,1.06-.81.75a12.63,12.63,0,0,1-3.94-2.33c-.77-.75-.69-.89-.24-.65-1.29-1.12-3.09-2.72-3.37-2.27l1.66,1.07c.08.78,4.31,5.19,1.61,3.46,1.69,1.47,2.32,1.85,2.43,1.73s-.3-.78-.81-1.5a34.74,34.74,0,0,0,4.1,4.81,66.79,66.79,0,0,1,4.71,5.23c-.28-.68,0-1.19.57-.58,4.65,5.77,3.46,2.34,6.84,5.63.32.59.38.94.28,1.11a1.11,1.11,0,0,1-.33.37c-.18.19-.11.41,1.33,1.5,1.14,1.92-.6,1.2-1.47.84,2.89,1.73,3.73,4.83,4.88,6.29l-1.45-1a12.15,12.15,0,0,1,2,1.82l0-1.36c.57.85,1.15,1.47.85,1.72,1.16.33.6-1.66,2.63-.75.57,1.31,3.18,2.62,2.58,3.82-2.58-3.36-.6,1.21-3.2-1.25a6.7,6.7,0,0,1,1.73,1.86c0,.21-.29.08-.53-.07,1.95,3.7,2.31.36,5.15,3.42-.88.1-.31,1.63.27,2-1.15-1.23.31-1.39,1.76-.64,1.44,2.32,2.3,1.83,3.22,2.9l-.91-1.35c.89-.09,1.74,1,3.18,2.15-.29.5-1.44-1-1.16-.32,2.33.65,2.28,4.3,4.88,5.82.57,1.31-.88,1-.31,2.09a5.76,5.76,0,0,1,1.53,1.26c.32.4.65.93.52,1,0,.34-.26.51.4.66.47-.19.58-.34.81-.36a4.17,4.17,0,0,1,1.5.4c-.45-.31-.86-.59-1.25-.83l-.54-.33-.26-.15-.13-.08-.27-.22a2.75,2.75,0,0,0,.4.17l.26,0,.57.09a10.64,10.64,0,0,1,1.33.4,5.65,5.65,0,0,0-1.24-.91l-.29-.17c-.09,0-.27-.22-.39-.31a3.7,3.7,0,0,1-.62-.66c1.74.71,1.45.74,1.47-.39a6.48,6.48,0,0,0,.26.83,1.63,1.63,0,0,0,.3.48,4.64,4.64,0,0,0,1,.74c.81.47,2,1.2,1.93,1.89l-3.4-.16a.45.45,0,0,0-.07.18c-.86.27-.72.58-1,1.21a3.87,3.87,0,0,1-.26.48,1.36,1.36,0,0,1-.21.29l-.56.5a16,16,0,0,1-2.73,1.94l1.6-.65c0,1.17-2.53,2-3.68,3.29-.33-.73-1.36-.35-2.23-.32.41.42-3.13,2.19-2.59,3.75l-2.49.52a7.33,7.33,0,0,0-3.1,3.38c-.15.3-.31.59-.48.88a10.75,10.75,0,0,1-.8,1,11,11,0,0,1-2.43,2.07c.22-.69-.26-.78-.54-1s-.31-.53,1.21-2c-1.75,1.25-3.5,2.34-2.94,2.61a8.26,8.26,0,0,0-2.55,2.16,8.49,8.49,0,0,1-3.14,2.34c-.11.51,1.17.6-.55,1.77a1.35,1.35,0,0,1-.77.07c.38,0,0,.41-.05.68s.28.35,1.84-.24a36.22,36.22,0,0,0-6.1,3.12c-1.79,1.13-3.29,2.25-4.68,3.31s-2.7,2.08-4.39,3.19a76.73,76.73,0,0,1-7,4c-2.06,1.77-4.38,3.72-6.51,5.37l2.09-.6a9.67,9.67,0,0,1-2.19.91c.81.16,4.29-1.36,7.51-2.8,1.62-.72,3.21-1.43,4.46-1.93a6,6,0,0,1,2.55-.67,10.57,10.57,0,0,1-3.63,1.89c-1.13.38-2,.6-2.13.88-4.87,2.65-2.46,1.91.62.85,1.55-.53,3.26-1.14,4.52-1.5s2.09-.48,2.08-.09l-1.49.56c.37.36,3.26-.67,6.27-1.83a75.17,75.17,0,0,1,8.5-3s-.62.4-.67.58A136,136,0,0,1,170,142.41c-1.35,1.41-2,1.1-1.37,2,1.07-.36,1-.76,1.11-1.25s.52-1.05,2.15-1.64c.64.12,1.47.16,2.23.3a2.41,2.41,0,0,1,1.76.85l-2.76.8c1.8,1,3.58-1,5.1-1.16l0,.65c4.19-1.34,3.85-2.87,8.44-4l-.59-.33c2.09-2.17,2.32.29,4.51-1.5l1.16,1.33a80.47,80.47,0,0,1,8.24-4.11c-1.36,1.58-4.66,3.09-6.62,4.33,1.63-.42,5.51-1.6,6.16-2.58-.62.33-1.34.92-2.06.86a12.07,12.07,0,0,1,3.12-2.27,16.74,16.74,0,0,1,2-.89,15.87,15.87,0,0,1,1.88-.6c-.18.94.22,1.29.71,1.4a5.48,5.48,0,0,0,1.9-.17c0,1.28,0,2.71-1,3.44a1.69,1.69,0,0,1,.21.31l.08.19,0,.09,0,0,0,.13c.12.74.21,1.48.27,2.23.13,1.49.16,3,.16,4.54a88.25,88.25,0,0,0,.26,9.76c2.18-2.64.22,2,2.63,1.4.28,1.59.29,2.21.14,2.37l-1.07,5c-.62,1.21-.66-1.49-1.2-1.3a6.57,6.57,0,0,1-.11,1.77,2.75,2.75,0,0,0-.07.3,2,2,0,0,1-.08.31,1.5,1.5,0,0,1-.19.42c-.28.47-.64.63-.78,3.07.39-.63.74-.13,1,.93a22.2,22.2,0,0,1,.38,4.74q.31-3.12.68-5.75A17.66,17.66,0,0,1,209,173a29.47,29.47,0,0,1-.34,3.65,29.89,29.89,0,0,0-.32,4,18.85,18.85,0,0,0,.62,4.78c-.29-.46-.59-1-.9-1.58.39,2.06.74,6.52,1.23,10.43s1.12,7.09,2,5.69c-.15,1.68-.55,5.17-.83,3.77a77.47,77.47,0,0,0,1,9.06c.41,2.47.86,4.38,1.22,6.41,1.4-5.35,2.47-9.09,3.27-10l-.41,3.3c.33-1.32.66-3.32,1-4.91s.59-2.79.9-2.77c-.07,1-.33,3-.05,2.29.17-.91.6-3.15,1.05-5.21a22.36,22.36,0,0,1,1.3-4.64l-.64,4.28a49.43,49.43,0,0,0,2.14-6.58c.62-2.4,1.14-4.86,1.58-7.21.9-4.74,1.45-8.88,2.38-12.54.57,1.13,1.52.06,2.6-2.06.53-1,1.09-2.31,1.62-3.58l.75-1.86.17-.45.11-.23.19-.43.22.15a46.36,46.36,0,0,0,2.08-9.1l.57-4.36.15-1.11.09-.57a1.28,1.28,0,0,0,0-.28,7,7,0,0,1,0-1.1,1.93,1.93,0,0,0,1.34-.65,19.06,19.06,0,0,0,1.62,1.27l.17.14.75.5,1.53,1.05c1,.7,1.92,1.41,2.74,2.12-.67-.78.86-1.09,1.92-.64,1.1,1.09,4.19,1.13,3.14,2.38l-.44-.3c.14,1.94,3,3.19,5,4.49L253,159a11,11,0,0,0,1.72,2c1.11.89,2.47,1.84,3.83,2.72,2.76,1.79,5.67,3.39,8.25,4.78s4.89,2.6,7.06,4a45.24,45.24,0,0,1,6.86,5.35,12.44,12.44,0,0,1,2.63,1,6.5,6.5,0,0,0,2.27.78l2.62,2.93c4.44,2.92,7.66,5,11.52,7.4q-1.74-2.62-5.15-7.51l3.51,3.83a74.38,74.38,0,0,0-7.94-9.07c-3.14-3.22-6-6-7.16-7.69,1.18.75,2.31,1.45,3.41,2.08-1.21-1.81-2.2-3.47-3.19-5.17s-2-3.42-3.08-5.25-2.32-3.74-3.68-5.66a53.23,53.23,0,0,0-4.46-5.54c.35.07,1,.2,1.93,1.45-.59-.91-1.38-2.24-2.29-3.76l-1.42-2.32c-.26-.44-.53-.87-.8-1.27-1.07-1.6-2.16-2.7-2.89-1.69,1.23-.89-2.8-4.5-4.89-6.45l1.17-.26c-2.48-1.16-2.85-1-5-3.52-.31-.73.37-1.06.7,0-.94-2.48-2-1.1-3.23-4l1.24.58c-1.39-2.26-1.6-1.87-3.1-2.64-1.29-1.14-2.55-4.36-1.92-5.24a3.54,3.54,0,0,1-2.82-2.19c.2-.38.71,0,1,.14-1.82-4.13-4.72-4.8-5.5-8a.82.82,0,0,0,.27-.8,58.67,58.67,0,0,1,3.23,5.19c.86-.57-.57-3,1.87-1.94-.95-.74-2.32-1.69-3.59-2.78a16.2,16.2,0,0,1-1.77-1.74,7,7,0,0,1-.69-.89,1,1,0,0,1-.17-.4.78.78,0,0,1,.26-.25l.17,0c0-.21-.2-.31-.5-.44,0-.28.08-.42,0-.63.63,0,.58-.17.39-.4a1.19,1.19,0,0,1,.35-.19,2.51,2.51,0,0,1-1-.69c-.17-.16-.3-.3-1.27-.42.21,0,0,.13-.32.33-.05,0-.14.11-.1.16l-.1-.06-.14.06.94,1.29c-.84-.38-1.79-1.06-1.79-1.56a5.72,5.72,0,0,1,.64,0,2.64,2.64,0,0,1-1.07-1.53c1.64.19,3,.29,3.93.49a3.53,3.53,0,0,1,1.08.38,2.25,2.25,0,0,1,1.11.32c3.8-2.2,9.35-4.19,11.09-7.16,1.05-.71,1.55,0,2.1.17-.58.46-1.38.75-1.63,1.17,1.05-.71,2.72-1.44,4.14-2.19a10.63,10.63,0,0,0,1.82-1.14l.33-.29a3.63,3.63,0,0,0,.34-.34,1,1,0,0,0,.28-.62c2-.45,1.79,0,1.52.36s-.38.52,2.41-.73c-.13.21-.27.43-.43.66A40.56,40.56,0,0,0,276.71,91,30.51,30.51,0,0,0,282,87.75,21.18,21.18,0,0,1,286.28,85c2-.9,4.8-1.84,10.88-3.46a30.75,30.75,0,0,1-3.46.83c4.08-1.32,7.7-2.66,10.83-3.9-2.91-.06-6.19-.06-9.4,0l-9.33,0c-2.95,0-5.66-.08-8.21-.25a63.12,63.12,0,0,1-7.48-.92,12.75,12.75,0,0,0-4.48.1c-1.12.25-2.05.64-3.29,1a8.39,8.39,0,0,0-.64-1.22l-1.14.32c-.31.11-.54.22-.81.33l-1.57.67c-4.43.93-7.58-3.12-13.2-1.31l.7.83c-2-.19-6.36.35-6-.58-.2.15-.67.84-1.45.4l0-.64-5,1c-3.81-.54.65-2.5-4.93-2.74-2.07.2-5.93,1.72-5.16,2.16.83,0,2.13.44,2.18,1.07l-1.91.29c-.38,1.86-1.87,3.73,2.75,5.13L229.42,83l1,.92h-2.73c1.53.88,2.53.15,3.64-.34a2.11,2.11,0,0,0,1.33,1l3.22-1.71c.37.74-1.45,1.41.67,1.86,1.51-.79-1.39-1.66,1.09-2.15,1.53.87,1.06,1.55,2.9.87.24.48-.15.78-.87,1,1.63-.55,4.29-.16,5.14-1.13,1.6,1.08,5.48-.16,5.28,1.6a10.85,10.85,0,0,1,4.37-1.37c-2.76,2,5.57.24,4.81,2.48a3.18,3.18,0,0,1,.91-.56c.11,0,.11-.07.13-.11a.47.47,0,0,1,.06-.09,1.07,1.07,0,0,1,.14-.16,1.69,1.69,0,0,1,.8-.3,9.72,9.72,0,0,0,2.58-.58c-.31.15-.88.44-.84.35.42.16-.44.72-1,1.06,3.07-1.5,5.06-1.82,8.76-2.71a27.33,27.33,0,0,1-4.55,1.58c-1.5.42-2.79.84-4.67,1.52a32.18,32.18,0,0,1,3.86-1.16c1.11-.27,2.32-.51,3.86-1-1.11.44-1.4.55-1.84.7s-1.1.34-3.34.94a28.14,28.14,0,0,1,4.18-1c.17,0-.08.11,2.69-.43-1.46.45-3.49.87-4.58,1.11s-1.42.3.27,0c-1.27.27-2.91.56-4.09.79Zm-23.23,24.6h0l-1.25-1.77Zm3.42,5.13c-.37-.63-.86-1.39-1.4-2.18.21-.39.67-.42,1,.09C240.05,114,240.64,115.28,240.86,116.2Zm2.42-10.45c.35.24.09.25-.19.24-.1-.11-.24-.25-.47-.46l-.22-.09Z"/><path class="a" d="M241.3,104.72s0-.08.06-.12c-.22,0-.42,0-.61,0l.35.24Z"/><path class="a" d="M191,75.06,191,75a.74.74,0,0,1,.14.22A.44.44,0,0,1,191,75.06Z"/><polygon class="a" points="262.47 154.79 262.94 155.41 262.63 154.93 262.47 154.79"/><path class="a" d="M208.35,54.51a.84.84,0,0,0,.44-.29C208.71,54.21,208.55,54.34,208.35,54.51Z"/><path class="a" d="M212.67,44.76a3.88,3.88,0,0,1,.58-.35A.8.8,0,0,0,212.67,44.76Z"/><path class="a" d="M215.13,40.31l.19-1.71h0Z"/><path class="a" d="M178.6,94a2,2,0,0,0,.33.27C179.77,94.88,179.24,94.45,178.6,94Z"/><path class="a" d="M145.37,62.67l2.45,1.82C147.67,64.21,147.44,63.93,145.37,62.67Z"/><path class="a" d="M169.32,134.21h0l0,0Z"/><path class="a" d="M148.85,65.61c.21-.1-.23-.5-1-1.12C147.93,64.72,148,65,148.85,65.61Z"/><path class="a" d="M218.38,66.27v.53a.22.22,0,0,1,.18,0Z"/><path class="a" d="M218.56,66.84l.19.58C218.72,67.15,218.69,66.92,218.56,66.84Z"/><path class="a" d="M219.13,68.62l-.38-1.2C218.78,67.84,218.79,68.37,219.13,68.62Z"/><path class="a" d="M217.65,51.81l-.42-.13A.62.62,0,0,0,217.65,51.81Z"/><path class="a" d="M217.32,49.36a5.1,5.1,0,0,1-.34,1.16,1.31,1.31,0,0,0-.09,1l.34.11c-.17-.22-.2-.3-.16-.47a5.55,5.55,0,0,1,.24-.65C217.5,50.06,217.66,49.38,217.32,49.36Z"/><path class="a" d="M220,22.05l.17,5.74c.26-2.06.58-5.14.86-3.07.1-2.61.1-3.75.06-3.95s-.15.47-.27,1.24C220.58,23.55,220.22,25.44,220,22.05Z"/><path class="a" d="M216,23.65c.55-1.59.6-2.12.51-2.32s-.33-.07-.28-.52C215.43,23.82,215.3,24.39,216,23.65Z"/><path class="a" d="M167.51,64.89l.56-.88C166.59,63.59,167.91,64.37,167.51,64.89Z"/><path class="a" d="M155.58,65.89c.55.45,1.06.87,1.53,1.28a13,13,0,0,1-.67-1.26C156.12,65.89,155.83,65.88,155.58,65.89Z"/><polygon class="a" points="130.86 48.38 131.53 48.49 128.54 47.72 130.86 48.38"/><path class="a" d="M131.93,149,137,146.9C137.43,146.34,132.92,147.85,131.93,149Z"/><path class="a" d="M186.26,139.79a3.21,3.21,0,0,0,3.36-.48C188.3,139.58,186.88,139.45,186.26,139.79Z"/><path class="a" d="M255,162a7.29,7.29,0,0,0-1.53-.44c.48.16,2,.93,3.11,1.49Z"/></svg>