<svg xmlns="http://www.w3.org/2000/svg" viewBox="0 0 402 246"><defs><style>.a{fill="currentColor";}</style></defs><path class="a" d="M251.92,125.57c0,.14-.07.44-.15.36l0-.52Z"/><path class="a" d="M251.14,126.4a2.47,2.47,0,0,1,.07-1.18c0,.51.08.31.07.92.08.07.18-.14.21-.33,0,.14.16-.08.14.25-.19.37-.34.36-.43,0A1.11,1.11,0,0,0,251.14,126.4Z"/><path class="a" d="M242.46,125.68l.06-.06A.11.11,0,0,1,242.46,125.68Z"/><path class="a" d="M237.11,125.16a.1.1,0,0,1,0,.12S237.09,125.2,237.11,125.16Z"/><path class="a" d="M236.12,125.6l.06,0C236.16,125.62,236.13,125.64,236.12,125.6Z"/><path class="a" d="M242.46,125.68l-.17.14C242.31,125.65,242.38,125.7,242.46,125.68Z"/><path class="a" d="M250.2,124.94a.3.3,0,0,1,.05.15l-.06-.07Z"/><path class="a" d="M244.72,126.48h0a1.46,1.46,0,0,1,0,.21Z"/><path class="a" d="M246.49,126.87a2.58,2.58,0,0,1,0-.62.7.7,0,0,0,0,.32A1.56,1.56,0,0,1,246.49,126.87Z"/><path class="a" d="M249.46,126.63l0,.07A.43.43,0,0,1,249.46,126.63Z"/><path class="a" d="M243.42,126.36a1,1,0,0,1,0,.15C243.39,126.46,243.41,126.4,243.42,126.36Z"/><path class="a" d="M192.79,119.86v.08S192.77,119.87,192.79,119.86Z"/><path class="a" d="M190.76,122.14l0,0,0,.25Z"/><path class="a" d="M234.39,126h0C234.44,126,234.42,126,234.39,126Z"/><path class="a" d="M219.18,124.14c.2-.39-.25-.53,0-1C219.18,123.36,219.41,123.9,219.18,124.14Z"/><path class="a" d="M250.14,125l-.07,0S250.13,125,250.14,125Z"/><path class="a" d="M219.22,123.19h0l0,0Z"/><path class="a" d="M230.61,125.22a.76.76,0,0,1,.06-.18A.74.74,0,0,1,230.61,125.22Z"/><path class="a" d="M233.53,124.94l-.08,0S233.51,124.94,233.53,124.94Z"/><path class="a" d="M229.2,124.44s-.07.08-.11,0,0,0,0,0S229.14,124.5,229.2,124.44Z"/><path class="a" d="M227.65,124.28a.79.79,0,0,1,0-.09l.05,0Z"/><path class="a" d="M197.57,119.93a2.76,2.76,0,0,0-.06.4C197.52,120,197.29,119.91,197.57,119.93Z"/><path class="a" d="M250.15,125.19a.29.29,0,0,0,0-.2l.05,0A.61.61,0,0,1,250.15,125.19Z"/><path class="a" d="M229.5,121l-.25,0A.52.52,0,0,1,229.5,121Z"/><path class="a" d="M208.85,120l-.06-.06S208.83,120,208.85,120Z"/><path class="a" d="M228.52,120.85a1,1,0,0,1-.17.3.43.43,0,0,1,0-.12Z"/><path class="a" d="M197.5,120.34h0Z"/><path class="a" d="M195.94,119.83c-.24-.23-.07.11-.27.5-.14-.47-.23.17-.28-.6a1.59,1.59,0,0,1-.18.7c0-.42-.29-.41-.29-.91,0,.57.27.69.09,1.29-.14-.38-.39-.51-.43-1.13-.1.15-.13.37-.29.44,0,0,.06.08.08.14-.3-.4-.69,0-.88-.71.09.89-.58.13-.34,1-.12,0-.32-.39-.36-.56,0,.7-.28.19-.39.61-.08-.39-.29-.25-.42-.47a.57.57,0,0,1,.08.38c-.15-.27-.11,0-.21.33-.21-.2,0-.53-.12-.85-.16.17,0,.44,0,.73l-.28-.69a1,1,0,0,0-.08.4c-.1-.2-.19-.5-.29-.16l.21,0-.07.36-.27-.44a3.31,3.31,0,0,0-.13,2l.15.12c0,.25-.08.4-.15.41a1.48,1.48,0,0,0,.44.88c.43-.07.05-.86.34-1l.4.41v-.25c.06-.17.1.1.12.16,0-.36.31-.13.46-.2l0,.33c.46.74.64-.84,1-.45l.26.54,0-.48c.15.28.18.65.41.47.78-.87,1.68.14,2.49-.41a.39.39,0,0,1-.08.21c.7-1.21,1.15,1.19,1.78.25l0-.18c.33.09-.05-.18.18-.44.06.58.43.44.62.66,0-.12-.09-.11-.15-.19s0-.48.14-.37c.22.83.68.74,1,1,0-.38.33-.71.47-1.33,0,.13.1.43.16.71.12-.25.21-.06.3.17l-.27,0v0s0,0-.05-.05-.11,0-.09-.07c-.14.37,0,.3,0,.74.11,0,.34.13.36-.2.07,0,.11-.06.18-.12s.08.1.13.06l0,0c0-.06,0-.1,0-.14.21-.19.52.47.69.78-.17-.56.05-.63.05-1,0,0-.2.06-.48.07a.62.62,0,0,0,0-.26c.24-.43.41.37.75.07a.44.44,0,0,1,0-.28c.12-.12.23.21.26.45,0-.4.29-.68.42-.51.11.33.1.48.3.45l-.09-.28c.25-.23.2.41.4.18-.08.11-.09-.18,0-.24.26.16.26.31.44.88l0-.44c.21.26.61.8.62.2-.07.92.46.49.65.47-.06,0-.07-.22-.08-.32.39.61.79,0,1.19,0l.07-.67c.21,0,.25,1.35.48,1.33l-.08-.33a1.18,1.18,0,0,0,.89,0v-.45c.12.22.26.22.37.43.3-1.08,1,.59,1.56-.61V124c.19,0,.42.17.53-.46l-.05,0c0-.64.19,0,.31-.15a.77.77,0,0,1,.08.62c.51-.41,1.23.06,1.56-.68.49.29.83,1,1.37.89v-.1a1.08,1.08,0,0,0,.59-1c.38.18.57,1.15,1,.86l-.09-.27c.12-.13.29.21.34.3s0-.15,0-.25.16.15.25.22l0-.24c.4-.46.92.51,1.4.42-.09-.07,0-.33,0-.44.15.78.68.63.87.82l-.1-.31c.35.53.38-.79.73-.25l-.25.42c.16-.12.29,0,.23.38.19-.24.06-.58.33-.64,0-.22-.18-.16-.07-.43l.41-.55c0-.07.06-.08.18,0-.09,1,.31.07.06,1,.53.11,1-.5,1.45,0,.26-.93.91,0,1-1.17.26,0,.45.26.57.76-.06.1-.11-.06-.16-.13a.49.49,0,0,0,.48.4,3.72,3.72,0,0,1-.5-1,3.49,3.49,0,0,1,.64.78l.11-.62c.16.47.21-.49.36.14l-.06.18c.37,0,.33.61.66.71V124c.13-.09.25.5.41,0l-.22,0a2.31,2.31,0,0,1,.34-.82c.23.14,0,.72.14.78.08-.4,0-.21,0-.62a1.46,1.46,0,0,1,.73.91.49.49,0,0,0,0-.16c.28,0,.45.71.65.38l0-.06c.28-.57.51.62.65-.4.12-.18-.24,0,0-.46.35-.29.13.87.44.61,0,0,0,0,0-.12a2.37,2.37,0,0,1,.69.29c.36-.8.83.29,1.25-.64-.14.33,0,.4,0,.56a.49.49,0,0,1,0-.16c.12,0,.1.32.13.46.13-.29.29.35.37.16,0,.22.08.17.18.18-.18-.26,0-.47-.07-.81.32-.07.25,1,.59.85l.23-.39c0,.62.29.41.26.64a1.41,1.41,0,0,0,.19-.6c.12.16.35-.13.36.24l-.15.15c.43-.19.56.72.92.35l.1-.93c.25-.35.32.55.57,0-.1.3-.11.21,0,.53-.09,0-.2-.2-.33-.21l.21.57-.4-.31c.14.39.14.29,0,.66.22.33.33-.41.54,0,.1-.12.05-.46.18-.64.18.36.5-.61.6-.1.06-.09-.09,0-.05-.25.13.1.24.08.25.36l-.14.09c.11,0,.08.36.32.17.09.23.1.7,0,.69,0,.06.19-.17.18-.45.32,0,0,1,.39.6a.18.18,0,0,1,0-.13c.08-.06.15,0,.19,0-.26-.11.18-.73-.16-.6.1-.49.26-.07.39-.25.11.36-.08.71,0,1,0-.15.08-.14.17-.2l-.13.36a.24.24,0,0,1,.2.12l-.11-.17c.15,0,.44-.61.64-.22,0-.16-.13-.48.06-.65.24.27.08-.15.28-.41.26.12,0,.67.39.49,0,0,0,.22-.09.31.3-.14.41.14.71-.09-.12.08-.23.19-.1.39,0-.31.26-.25.38-.42v.19a.27.27,0,0,0,0-.36c0,.06,0,.12-.08.09s0-.86.25-.9c.2.2.09.69,0,.87.32-.15.15.89.48.64.06,0,.38-.7.6-.74,0,.44-.3.28-.24.66.5-1,.61.75,1.15.18l0-.53a.48.48,0,0,1,.33,0l-.2.26c.09.13.35.07.33-.34.17.46.25.21.49.12-.23,0,0,.07-.14-.23.28-.21.27,0,.43.11,0-.19.13-.46.19-.45.11.36.39.33.58.54l0-.15c.34.25.85-.4,1.15.12h0l0,0,0,0c-.2.46.24.39.32.61,0-.12.09-.34.15-.33-.07.46.11.26.12.48.16-.13.08-.55.29-.49s.05.29,0,.47a.69.69,0,0,1,.38-.42c0-.13-.1,0-.13,0,0-.24.09-.14.14-.45.11,0,0,.43.13.29l-.06-.38c.07-.08.11.08.13.11s0-.46.05-.68c.26.32-.1,1-.15,1.39.33-.24.47.28.68.34l0-.43a.43.43,0,0,1,.14.38l.17,0a1.09,1.09,0,0,1,0-.65c.16.15.42.08.36.66v-.1c.27-.16.78-.2.79-.39.22.23.6,0,.5.53.13.16.52-.66.5.06.25-.34,0-.15.06-.58.24-.34.25.65.46-.15.16.28-.08.15-.08.53.19-.75.41-.06.68-.45,0,.32-.12.17,0,.52,0-.19.11-.21.15-.22l-.05.48.41-1.13c.19.61-.21.8.14,1.09v0c.19-.47.2.42.56.1-.12.08,0-.23,0-.37l.12.22a.12.12,0,0,1,0-.11c.2-.33.08.21.3-.08-.09-.11,0-.47.09-.63l.13.58,0-.66c.24,0,.37,1.08.65.22l-.09-.12c0-.15.2-.6.29-.25,0,.09,0,.47-.07.44l.14-.13a.86.86,0,0,0-.39-.75c0,.18.14.34,0,.6-.13-.17-.22-.48-.35-.65a4.47,4.47,0,0,1,0,.63c-.22.19-.08-.31-.2-.37a.85.85,0,0,0-.13.4c-.12-.2-.24-.27-.45-.08a.73.73,0,0,1,0,.57c-.26-.32-.23-.84-.51-1.19-.26-.78-.84.28-1-.28,0-.19.26-.3.11-.45,0,.39-.15.23-.19.38-.09-.59-.31.07-.37-.33,0,.14-.13.26-.23.38-.06.47-.24.15-.09.87-.16-.76-.53.09-.55-1l.09-.12-.32.17h0c-.14.06-.14-.07-.39.39,0,.12.16.14.21.27-.23.39-.26-.4-.42-.46-.06.35.15.15,0,.56-.13,0-.19-.23-.29-.35v.19c-.38.38,0-1-.29-.35,0-.11,0-.24.05-.34-.11.18-.36.49-.21.76-.11,0-.2-.21-.21-.43s.13-.12.22-.47l-.38-.27c-.05,0,0,.19.06.2-.66.92-.86-1-1.62.11.11-.3,0-.28,0-.5-.2.06-.46-.06-.66.1l0,.22c-.39-.33-.63-.71-.94-.62a1,1,0,0,0,0,.37c-.15-.42-.6.77-.52-.06l.08,0c-.43.06-.8-.6-1.22-.77-.17.48.24.09.07.66-.33.16-.57-.3-.92-.19,0,.07,0,.13,0,.16-.36.28.11-.48-.17-.45,0,.25,0,.31-.15.42l0-.41a1.84,1.84,0,0,0,0,.5c0-.54-.46-.24-.48-.74,0,.12,0,.59-.11.77s-.23-.09-.3-.29h0c-.15.33-.39.24-.35.31-.28.13,0-.28-.16-.61l.24-.19-.35-.16.11.26c-.19.17-.31-.28-.5-.3l.13-.27-.2-.21c-.11.58-.31.1-.28.79-.45.23-.62-.56-1-.65.07,0,0,.12,0,.22-.23.1-.33-.22-.42-.54a3.17,3.17,0,0,1,0,.41c-.26,0-.12-.36-.38-.57.05.26,0,.38-.08.43a.6.6,0,0,0-.06-.44c.07,1.19-.38.43-.36,1.37,0-.25-.37-.81-.18-1.26l.07.09c0-.32-.07-.2-.15-.24a.39.39,0,0,1,.06.21c-.36-.44-.83-.14-1.26-.49,0,.13.19.36.06.44-.48.12-.67-.52-1.1-.86-.11.74.48.16.42.87a5.84,5.84,0,0,1-1.44-1c-.31,1.07-.48-.5-.91.31.08-.36-.08-.51-.26-.54,0,.3-.16.29-.13.51-.12-.35-.57-.54-.63.17,0-.69-.34,0-.42-.49-.23.23-.42-.19-.7,0,.14-.42-.23-.23-.3-.42,0,0,.07.1.05.16-.11.37-.26-.36-.43-.15s0,.4-.13.42c0-.3-.32-.7-.5-.34.07,0,0,.16.08.29-.62-.6-1.4,0-2-.7l.07.53c-.48.63-.21-.87-.56-.83-1,.18-2,.83-2.87.44-.05-.16.06-.19.08-.4-.08.06-.13.49-.22.21l0-.28c-.47.73-1.17-.6-1.56.57-.37-.47-.7.28-1.14-.43-.17.24.15.5-.06.55l-.42-.46,0,0c-.38-.87-1.2.88-1.71.24l0,0c0,.19-.12.42-.2.35s0-.21.1-.37a1.91,1.91,0,0,0-.95-.46c.15.3-.17.24-.2.65-.09-.27.07-.42-.14-.65-.32-.05-.63.28-.9.41-.09-.37-.24-.27-.22-.72-.36,0-.56-.22-1-.23l0,.15c-.1-.56-.39.27-.46-.05a3.46,3.46,0,0,1,0,.43l-.2-.19c.09.17.13.7,0,.75-.16-.39.06-.26,0-.58l-.07.51c-.12-.06-.14-.64,0-.79-.44,0-.87-.27-1.27-.2l0,.33a.42.42,0,0,0-.64.15,1,1,0,0,1,0-.39c-.25-.46,0,.56-.31,0a.77.77,0,0,1,.16.39l-.52-.42c0,.25-.35.8-.57.58a.48.48,0,0,1,.12-.36l-.14-.13-.12.58-.2-.51,0,.48c-.15-.1-.19-.72-.32-.68-.47.3-.38.47-.72.92,0-.93-.52,0-.6-.64-.45.68-1.08.25-1.66.45l.05.08c-.25.43-.28-.7-.55-.52l.07.14c-.35.49-.94,0-1.27-.36.07.14,0,.44-.07.41s.09-.65-.1-.48c.05.09,0,.3,0,.3l-.18-.46c-.47.31-1,.64-1.52.38a.75.75,0,0,0,0,.49c-.39-.09-.77-.47-1.13-.55l0,.53c-.17,0-.11-.82-.33-.34,0,.07.15,0,.21.27-.34.41-.21-.52-.54-.46l.1.61c-.25.36-.29-.32-.39-.67-.36-.71-.24,1.17-.72.64-.09-.3,0-.44-.07-.74-.33.16-.38-.26-.72-.1-.16.9.17,0,0,.84l.26-.21c-.22.48.2.12.17.65-.16.16-.42-.28-.64-.46,0,.41.25,0,.16.59l-.11-.16c0,.12,0,.27.1.26,0,.38-.13,0-.23,0a7.32,7.32,0,0,1,0-.8.78.78,0,0,1,0,.14c-.23-.57-.59-.12-.79-.58a.53.53,0,0,1,0,.25c-.13,0-.28-.51-.46-.66-.09.3.08.89-.21.74-.06-.34,0-.92-.19-.9A.53.53,0,0,1,195.94,119.83Zm5.36.71.11,0h0Zm.43.36s-.07-.15,0-.31a.66.66,0,0,0,.2,0C201.81,120.7,201.7,120.79,201.73,120.9Zm-.85,2.53v0l.13.06c0,.09,0,.17-.11.11S200.89,123.51,200.88,123.43Z"/><path class="a" d="M200.78,123.07l0,0a1,1,0,0,1,0-.1l0,.14Z"/><path class="a" d="M242.53,125.62h0l0-.05Z"/><polygon class="a" points="208.33 119.8 208.33 119.91 208.29 119.81 208.33 119.8"/><path class="a" d="M245.3,124.54a.24.24,0,0,1,.06-.11A.41.41,0,0,1,245.3,124.54Z"/><path class="a" d="M246.41,124.63l.18-.13A.62.62,0,0,1,246.41,124.63Z"/><path class="a" d="M247.29,124.56c0,.08,0,.14,0,.19h0Z"/><path class="a" d="M234,122l0,0C233.86,121.89,233.91,121.93,234,122Z"/><path class="a" d="M237.82,123.56a.9.9,0,0,0-.1-.22C237.8,123.31,237.85,123.31,237.82,123.56Z"/><path class="a" d="M229.53,121h0Z"/><path class="a" d="M237.53,123.32c.09-.08.14,0,.19,0S237.58,123.39,237.53,123.32Z"/><path class="a" d="M251,125.05h0a.17.17,0,0,0,0,.07Z"/><path class="a" d="M251,125.11l0,.06S251,125.16,251,125.11Z"/><path class="a" d="M251.1,125.29l-.07-.12S251.1,125.17,251.1,125.29Z"/><path class="a" d="M249.81,125l0-.16A1.37,1.37,0,0,1,249.81,125Z"/><path class="a" d="M249.48,124.92c.09,0,.27-.29.36-.17v.12C249.82,124.63,249.51,125.2,249.48,124.92Z"/><path class="a" d="M247.72,126.61l.3-.08c-.08.16-.18.38-.06.44C247.51,127.41,248.1,126.61,247.72,126.61Z"/><path class="a" d="M246.8,126.7c.14.1,0,.24-.05.34C246.68,126.87,246.66,126.83,246.8,126.7Z"/><path class="a" d="M240.51,125.65l0,.4C240.35,126,240.49,125.9,240.51,125.65Z"/><polygon class="a" points="239.61 123.41 239.76 123.18 239.76 123.55 239.61 123.41"/><polygon class="a" points="238.47 126.15 238.52 126.21 238.34 126.04 238.47 126.15"/><path class="a" d="M227.89,124.69l.08-.49C228,124.3,228,124.86,227.89,124.69Z"/><path class="a" d="M223.33,123.77c-.07.24-.21.39-.27.14C223.17,123.88,223.29,123.7,223.33,123.77Z"/><polygon class="a" points="209.46 123.8 209.55 123.97 209.38 123.83 209.46 123.8"/><path class="a" d="M239.22,166.9c-.07.12-.3.33-.32.22l.31-.41Z"/><path class="a" d="M238.11,167.19a2.42,2.42,0,0,1,.69-1c-.27.44-.1.3-.43.81,0,.11.23,0,.35-.16-.07.11.18,0,0,.28-.37.21-.48.12-.37-.22A1.07,1.07,0,0,0,238.11,167.19Z"/><path class="a" d="M231,162.27l.08,0A.13.13,0,0,1,231,162.27Z"/><path class="a" d="M226.59,159.39s0,.08,0,.12S226.56,159.42,226.59,159.39Z"/><path class="a" d="M225.53,159.35h.06S225.52,159.39,225.53,159.35Z"/><path class="a" d="M231,162.27l-.21,0C230.92,162.17,231,162.25,231,162.27Z"/><path class="a" d="M238.08,165.47a.33.33,0,0,1,0,.15.29.29,0,0,0,0-.09Z"/><path class="a" d="M232.61,164l0,0-.11.19Z"/><path class="a" d="M233.93,165.23s.23-.36.34-.51c-.1.15-.13.24-.12.28Z"/><path class="a" d="M236.57,166.52v0Z"/><path class="a" d="M231.56,163.31l-.11.12A.43.43,0,0,1,231.56,163.31Z"/><path class="a" d="M190,134.91l0,.07S189.94,134.9,190,134.91Z"/><path class="a" d="M187,135.69v0l-.12.21Z"/><path class="a" d="M223.84,158.92h0C223.86,159,223.84,159,223.84,158.92Z"/><path class="a" d="M211,150.94c.35-.26,0-.58.44-.84C211.3,150.24,211.28,150.82,211,150.94Z"/><path class="a" d="M238,165.48l0-.06A.06.06,0,0,1,238,165.48Z"/><path class="a" d="M211.4,150.1h0l0,0Z"/><path class="a" d="M220.79,156.67a.67.67,0,0,1,.13-.15A.7.7,0,0,1,220.79,156.67Z"/><path class="a" d="M223.52,157.64h-.09A.1.1,0,0,1,223.52,157.64Z"/><path class="a" d="M219.86,155.36c-.05,0-.09,0-.11,0l.05,0C219.78,155.36,219.79,155.4,219.86,155.36Z"/><path class="a" d="M218.54,154.58l.07-.07,0,.05Z"/><path class="a" d="M193.86,137.45a3.88,3.88,0,0,0-.26.31C193.77,137.5,193.64,137.29,193.86,137.45Z"/><path class="a" d="M237.91,165.65c.07-.09.1-.14.1-.17a.08.08,0,0,1,0,.05A.45.45,0,0,1,237.91,165.65Z"/><path class="a" d="M221.61,152.34l-.25-.08A.46.46,0,0,1,221.61,152.34Z"/><path class="a" d="M203.51,142.82l0-.07S203.52,142.77,203.51,142.82Z"/><path class="a" d="M220.76,151.83a.92.92,0,0,1-.28.2l0-.12Z"/><path class="a" d="M193.6,137.77h0Z"/><path class="a" d="M192.56,136.54c-.08-.32-.12.06-.49.28.14-.47-.28,0,.09-.65a1.7,1.7,0,0,1-.52.5c.26-.33,0-.49.23-.92-.34.46-.14.72-.61,1.14.08-.39,0-.63.25-1.17-.16.07-.31.24-.47.22,0,0,0,.09,0,.15,0-.49-.57-.35-.32-1.07-.41.8-.55-.2-.8.62a1.07,1.07,0,0,1,0-.66c-.35.6-.33,0-.65.29.14-.37-.1-.36-.08-.62a.64.64,0,0,1-.15.37c0-.32-.09-.07-.36.16-.05-.28.31-.44.38-.78-.22.06-.25.37-.43.6l.16-.73a.91.91,0,0,0-.29.28c0-.21.13-.5-.15-.28l.16.13-.25.26,0-.51c-.57.25-.87.94-1.24,1.58l.06.19c-.14.21-.3.27-.36.25a1.38,1.38,0,0,0-.13,1c.39.19.53-.68.87-.68l.1.56.14-.21c.14-.11,0,.15,0,.2.17-.32.32.06.49.09l-.22.25c0,.87,1-.34,1.09.18l-.08.59.29-.38c0,.32-.19.65.09.63,1.12-.3,1.36,1,2.34,1a.4.4,0,0,1-.18.14c1.22-.67.37,1.62,1.39,1.14l.05-.17c.24.24,0-.18.39-.29-.25.53.14.6.21.88,0-.12,0-.14,0-.24s.28-.39.31-.25c-.23.82.21,1,.38,1.35.23-.31.64-.46,1.07-.93,0,.14-.12.43-.21.7.23-.15.21.06.18.29l-.23-.15v0s0,0,0-.06-.07-.09,0-.11c-.3.26-.14.26-.36.65.1,0,.23.28.41,0,.06,0,.12,0,.22,0s0,.14.08.12v-.05a.45.45,0,0,1,.09-.1c.28-.07.22.66.23,1,.12-.58.34-.53.54-.89,0,0-.2,0-.45-.17a.89.89,0,0,0,.17-.21c.41-.26.16.53.61.43a.53.53,0,0,1,.09-.28c.17,0,.11.3,0,.52.21-.33.58-.46.61-.24s-.14.46.05.53l.06-.29c.32-.09,0,.46.26.35-.13.06,0-.2.09-.22.15.26.08.39,0,1l.18-.4c.06.33.16,1,.45.48-.49.77.18.64.36.72,0-.06,0-.23.07-.32.06.72.69.4,1,.59l.37-.55c.17.12-.4,1.3-.19,1.39l.08-.32a1.24,1.24,0,0,0,.82.36l.2-.4c0,.24.14.31.14.55.75-.83.67,1,1.66.16l-.36.75c.17.07.3.33.67-.18h0c.29-.57.17.08.34,0a.73.73,0,0,1-.2.58c.64-.14,1.08.59,1.7.07.31.47.33,1.23.84,1.41l0-.09a1.05,1.05,0,0,0,1-.66c.27.33,0,1.28.58,1.23l0-.28c.17-.07.17.31.18.41s.08-.13.12-.22c.21-.16.09.2.13.3l.08-.22c.55-.25.61.85,1.08,1,0-.1.12-.31.21-.39-.2.77.35.86.44,1.11l0-.33c.1.63.68-.55.77.08l-.4.29c.19-.05.24.15,0,.43.28-.14.3-.51.58-.44.11-.18-.1-.22.11-.43l.6-.32s.09,0,.17.07c-.49.83.25.2-.37.93.43.31,1.14,0,1.32.58.62-.73.81.41,1.35-.67.23.12.3.44.2.94-.09.06-.07-.11-.09-.19a.48.48,0,0,0,.27.56,3.18,3.18,0,0,1,0-1.13,3.31,3.31,0,0,1,.25,1l.36-.52c-.05.5.39-.35.26.28l-.12.14c.34.14,0,.68.29.92l.11-.22c.15,0,0,.56.38.13l-.18-.13a2.47,2.47,0,0,1,.65-.61c.15.22-.27.66-.2.77.24-.33.12-.19.24-.57a1.4,1.4,0,0,1,.28,1.12.8.8,0,0,0,.08-.14c.27.08.1.83.42.62l0-.08c.49-.41.2.77.76-.09.18-.11-.23-.08.17-.43.44-.12-.25.84.14.74-.05,0,0,0,0-.13a3,3,0,0,1,.49.55c.66-.57.63.61,1.4-.06-.27.24-.14.38-.22.52a.8.8,0,0,1,.08-.14c.12,0,0,.33-.07.47.23-.2.1.44.26.3-.11.19,0,.19.08.24,0-.31.19-.43.28-.77.32.08-.19,1,.17,1l.37-.26c-.3.55.09.49,0,.68a1.38,1.38,0,0,0,.43-.46c0,.2.36,0,.21.37l-.19.07c.46,0,.19.89.67.7l.49-.79c.38-.21.05.63.5.25-.22.23-.18.14-.23.47-.1,0-.09-.27-.21-.33l-.06.61-.22-.45c0,.41,0,.32-.26.6.06.39.47-.23.49.2.14,0,.25-.39.43-.49,0,.4.71-.34.58.17.1-.06-.06-.08.07-.25.07.15.18.17.06.43l-.16,0c.1,0-.09.37.2.29,0,.25-.21.67-.32.61s.24-.07.36-.33c.27.17-.42.92.08.71a.2.2,0,0,1,0-.13c.1,0,.15,0,.16.1-.18-.21.48-.58.12-.61.3-.4.26.05.45-.05-.05.36-.38.6-.45.85.09-.13.14-.1.24-.11l-.26.27a.23.23,0,0,1,.12.18l0-.19c.16,0,.67-.36.67.07,0-.16.09-.48.34-.55.09.35.14-.1.43-.25.18.22-.34.58.12.61,0,0-.11.18-.21.24.33,0,.3.3.67.23-.15,0-.29.07-.27.3.12-.29.34-.11.53-.21l-.08.17a.27.27,0,0,0,.14-.33c0,.05-.09.09-.12.05,0-.2.42-.76.63-.7.08.27-.23.66-.37.79.36,0-.26.87.13.79.06,0,.66-.46.87-.4-.16.41-.39.12-.51.49.9-.68.19.93.93.67l.26-.46a.4.4,0,0,1,.27.18l-.3.14c0,.16.28.21.45-.16-.06.48.13.31.38.33-.21-.1,0,.05,0-.26.35-.07.26.09.32.28.09-.17.33-.34.38-.3-.07.36.19.47.26.75l.09-.13c.17.38.93.05,1,.64h0v0h0c-.41.31,0,.45,0,.68.09-.09.24-.25.29-.21-.28.37,0,.27-.13.48.2,0,.33-.45.49-.3s-.09.28-.21.41a.68.68,0,0,1,.53-.19c0-.12-.1,0-.1-.07.14-.21.14-.09.33-.33.11,0-.23.36,0,.31l.13-.36c.1,0,.06.12.06.16,0-.12.24-.4.38-.57.07.4-.57.81-.8,1.14.4-.06.26.47.41.63l.24-.37a.5.5,0,0,1-.06.4l.12.11a1.18,1.18,0,0,1,.3-.58c.06.2.31.27,0,.75l.06-.08c.31,0,.76.21.87.05.07.3.53.25.17.69,0,.2.77-.31.39.31.38-.18.11-.12.34-.47.38-.18-.11.67.48.08,0,.33-.15.1-.34.42.54-.55.38.15.81,0-.14.29-.19.08-.3.43.12-.15.2-.12.24-.11l-.29.39.94-.76c-.16.62-.59.58-.45,1v0c.41-.3,0,.47.41.37-.13,0,.13-.19.2-.32l0,.26a.18.18,0,0,1,.07-.09c.35-.18,0,.22.3.09,0-.14.25-.39.41-.48l-.2.55.37-.54c.21.11-.26,1.1.44.52v-.14c.11-.11.48-.42.37-.07,0,.09-.26.39-.29.33l.19,0a.86.86,0,0,0,.07-.84c-.08.17-.07.36-.28.53,0-.21.06-.52,0-.73a4,4,0,0,1-.32.54c-.28.05.1-.3,0-.42a.9.9,0,0,0-.32.28c0-.24-.07-.36-.35-.31a.72.72,0,0,1-.31.47c-.06-.4.24-.83.19-1.28.18-.8-.85-.19-.73-.76.12-.15.39-.12.33-.33-.23.31-.25.12-.35.23.21-.55-.31-.09-.16-.47-.06.12-.25.16-.39.22-.29.37-.29,0-.51.7.24-.73-.51-.19,0-1.16l.14-.06H235c-.14,0-.08-.14-.53.14,0,.13.07.2.05.34-.39.22,0-.48-.14-.61-.22.27.06.21-.25.5-.13,0-.05-.29-.07-.44l-.11.16c-.51.14.51-.81-.07-.45.07-.08.13-.2.21-.28-.19.11-.56.25-.56.56-.08-.07-.07-.27,0-.47s.17,0,.42-.3l-.2-.43s-.09.17,0,.21c-1,.47-.26-1.3-1.46-.68.24-.21.14-.25.22-.45-.2,0-.37-.27-.62-.22l-.09.21c-.19-.48-.22-.93-.53-1a1,1,0,0,0-.18.33c.07-.44-.88.41-.43-.3h.1c-.41-.15-.43-.9-.72-1.24-.38.35.17.19-.25.61-.36,0-.36-.53-.73-.58,0,.08,0,.12,0,.16-.45.08.32-.38,0-.48-.13.21-.18.25-.33.31l.17-.38a1.79,1.79,0,0,0-.26.42c.2-.49-.3-.41-.1-.87-.09.09-.3.51-.44.64s-.17-.18-.14-.39h0c-.28.22-.45,0-.45.12-.3,0,.13-.26.14-.62l.29-.06-.24-.31v.29c-.25.06-.15-.4-.32-.5l.24-.19-.09-.27c-.35.48-.32,0-.59.59-.52,0-.31-.77-.61-1,.06,0,0,.12-.07.21-.26,0-.2-.34-.15-.67-.08.17-.06.25-.15.38-.22-.14,0-.37-.1-.67-.06.25-.15.34-.25.35a.63.63,0,0,0,.14-.42c-.46,1.1-.53.22-.92,1.07.12-.21,0-.89.39-1.21l0,.11c.18-.26,0-.21,0-.28a.3.3,0,0,1,0,.21c-.13-.55-.68-.49-.92-1,0,.13,0,.4-.14.42-.48-.09-.38-.75-.62-1.24-.41.62.37.35,0,1a5.81,5.81,0,0,1-.88-1.49c-.73.83-.22-.66-1-.11.22-.29.14-.49,0-.6-.1.29-.26.19-.33.41,0-.37-.29-.72-.64-.1.32-.62-.31-.15-.18-.63-.3.12-.3-.35-.62-.3.3-.33-.11-.3-.1-.51a.21.21,0,0,1,0,.17c-.25.28-.08-.43-.32-.31s-.19.35-.3.33c.16-.27,0-.77-.31-.52.06,0,0,.17,0,.29-.31-.8-1.26-.6-1.55-1.47l-.15.51c-.7.37.18-.88-.16-1-.93-.24-2.13-.07-2.76-.79,0-.17.12-.15.24-.33-.11,0-.33.38-.3.09l.16-.23c-.73.47-.8-1-1.64-.13-.13-.58-.74,0-.84-.86-.26.15-.08.51-.29.47l-.18-.6v0c0-.94-1.45.3-1.63-.49v.05c-.08.17-.29.33-.34.23s.13-.17.25-.29a1.78,1.78,0,0,0-.65-.82c0,.34-.26.15-.46.5,0-.28.25-.34.16-.64-.26-.18-.68,0-1,0,.07-.37-.09-.34.11-.74-.3-.19-.4-.44-.78-.64l-.08.13c.15-.54-.47.07-.39-.25a3.31,3.31,0,0,1-.16.4l-.09-.25c0,.19-.2.68-.37.66,0-.43.17-.21.24-.53l-.28.43c-.09-.11.15-.64.36-.71-.39-.2-.65-.62-1-.72l-.12.31a.42.42,0,0,0-.64-.14,1.28,1.28,0,0,1,.16-.36c0-.52-.28.48-.29-.09a.7.7,0,0,1,0,.42l-.26-.61c-.13.22-.67.56-.76.26.06-.13.2-.26.27-.26l-.07-.18-.37.46.06-.54-.23.42c-.09-.15.15-.73,0-.75-.55.06-.54.25-1.05.5.41-.84-.47-.21-.23-.84-.71.41-1.06-.26-1.65-.36v.1c-.42.26.09-.75-.23-.71V141c-.53.27-.83-.4-.92-.9,0,.15-.18.4-.26.32s.39-.53.15-.46c0,.1-.14.26-.17.25l.06-.49c-.56.06-1.19.08-1.48-.39-.16.1-.18.28-.24.43-.29-.27-.43-.79-.69-1l-.29.45c-.15-.08.31-.77-.11-.46-.08,0,.11.1,0,.34-.49.19.08-.55-.23-.66l-.22.57c-.39.19-.09-.41,0-.77,0-.79-.79.9-.94.2.08-.29.24-.37.32-.66-.37,0-.19-.42-.55-.45-.6.69.14.08-.44.72l.32,0c-.43.3.11.2-.18.65-.22,0-.21-.47-.31-.73-.2.35.19.17-.17.59v-.2c0,.12-.1.26,0,.28-.22.31-.12-.05-.21-.11a5.21,5.21,0,0,1,.43-.67l-.1.11c.1-.61-.43-.41-.35-.9a.84.84,0,0,1-.13.21c-.13,0,0-.57-.05-.79-.23.21-.4.79-.55.51.12-.31.52-.75.31-.86A.58.58,0,0,1,192.56,136.54Zm4.15,3.27.09.07h0Zm.2.52s0-.16.1-.29a.55.55,0,0,0,.18.08C197.07,140.2,196.93,140.23,196.91,140.33Zm-2,1.79,0,0a.26.26,0,0,0,.09.11c-.06.08-.12.14-.15.05A.8.8,0,0,1,194.94,142.12Z"/><path class="a" d="M195,141.76a.06.06,0,0,0,0,0l.09-.07,0,.14Z"/><path class="a" d="M231.14,162.25h0l.06,0Z"/><polygon class="a" points="203.16 142.39 203.11 142.49 203.12 142.38 203.16 142.39"/><path class="a" d="M234.07,162.62a.33.33,0,0,1,.1-.06Z"/><path class="a" d="M235,163.26l.22,0A.73.73,0,0,1,235,163.26Z"/><path class="a" d="M235.78,163.63c0,.07-.08.11-.11.16h0Z"/><path class="a" d="M225.17,155.18s0,0,0,0S225.17,155.09,225.17,155.18Z"/><path class="a" d="M227.94,158.28a1.1,1.1,0,0,0,0-.25C228,158,228.08,158.07,227.94,158.28Z"/><path class="a" d="M221.64,152.34h0Z"/><path class="a" d="M227.8,157.93c.1,0,.14,0,.15.1S227.81,158,227.8,157.93Z"/><path class="a" d="M238.67,166l.05,0-.05.05Z"/><path class="a" d="M238.67,166v.07S238.64,166.06,238.67,166Z"/><path class="a" d="M238.66,166.24v-.15S238.73,166.13,238.66,166.24Z"/><path class="a" d="M237.7,165.34l.1-.13Z"/><path class="a" d="M237.48,165.07c.08,0,.38-.11.4,0l-.08.1C237.92,165,237.35,165.32,237.48,165.07Z"/><path class="a" d="M235.11,165.6l.3.09c-.15.1-.35.23-.28.35C234.53,166.18,235.44,165.79,235.11,165.6Z"/><path class="a" d="M234.28,165.24c.07.15-.16.18-.21.26C234.09,165.32,234.1,165.28,234.28,165.24Z"/><path class="a" d="M229.36,161.34l-.23.33C229.08,161.56,229.23,161.55,229.36,161.34Z"/><polygon class="a" points="229.6 158.95 229.84 158.81 229.67 159.14 229.6 158.95"/><polygon class="a" points="227.35 160.87 227.35 160.95 227.28 160.72 227.35 160.87"/><path class="a" d="M218.58,155.05l.28-.41C218.88,154.76,218.61,155.25,218.58,155.05Z"/><path class="a" d="M214.87,152.33c-.17.19-.36.26-.31,0C214.67,152.36,214.85,152.25,214.87,152.33Z"/><polygon class="a" points="202.37 146.47 202.37 146.66 202.28 146.46 202.37 146.47"/><path class="a" d="M183.72,152.23c.07-.12.29-.34.3-.24l-.3.42Z"/><path class="a" d="M184.77,151.87a2.7,2.7,0,0,1-.68,1c.26-.44.11-.3.43-.81,0-.1-.22,0-.33.18.06-.11-.17,0,0-.27.35-.23.46-.15.34.19A1.34,1.34,0,0,0,184.77,151.87Z"/><path class="a" d="M191.16,156.56h-.08A.08.08,0,0,1,191.16,156.56Z"/><path class="a" d="M194.93,159.7s0-.08,0-.12A.16.16,0,0,1,194.93,159.7Z"/><path class="a" d="M195.93,159.87h-.06S196,159.84,195.93,159.87Z"/><path class="a" d="M191.16,156.56l.21,0C191.26,156.65,191.23,156.57,191.16,156.56Z"/><path class="a" d="M184.74,153.53a.24.24,0,0,1,0-.15.19.19,0,0,0,0,.08Z"/><path class="a" d="M189.85,154.79l0,0s.08-.11.12-.18Z"/><path class="a" d="M188.68,153.61s-.25.35-.37.51a.67.67,0,0,0,.15-.28A1.5,1.5,0,0,1,188.68,153.61Z"/><path class="a" d="M186.21,152.44v-.08S186.22,152.41,186.21,152.44Z"/><path class="a" d="M190.79,155.51l.12-.1Z"/><path class="a" d="M216,194.05l.07,0S216,194.06,216,194.05Z"/><path class="a" d="M218.94,194.39v0l.2-.15Z"/><path class="a" d="M197.43,160.54h0C197.42,160.48,197.43,160.5,197.43,160.54Z"/><path class="a" d="M206.75,171.31c-.41.12-.24.52-.73.6C206.17,171.82,206.42,171.31,206.75,171.31Z"/><path class="a" d="M184.81,153.51a.12.12,0,0,0,.05.05S184.81,153.54,184.81,153.51Z"/><path class="a" d="M206,171.91h0Z"/><path class="a" d="M199.74,163.26l-.16.11Z"/><path class="a" d="M197.44,161.82h.09Q197.46,161.84,197.44,161.82Z"/><path class="a" d="M200.25,164.68c.05,0,.1,0,.09,0l-.05,0C200.32,164.7,200.33,164.67,200.25,164.68Z"/><path class="a" d="M201.22,165.73l-.09.05v-.05Z"/><path class="a" d="M213.9,190.11l.38-.14C214,190.1,214,190.35,213.9,190.11Z"/><path class="a" d="M184.9,153.34a.45.45,0,0,0-.09.17.08.08,0,0,1,0,0Z"/><path class="a" d="M197.75,167.13l.2.11A.36.36,0,0,1,197.75,167.13Z"/><path class="a" d="M209.18,181.2l0,.07S209.14,181.23,209.18,181.2Z"/><path class="a" d="M198.34,167.77a.89.89,0,0,1,.31-.12s0,.06-.06.1Z"/><path class="a" d="M214.29,190h0Z"/><path class="a" d="M214.51,191.48c-.09.31.13,0,.56,0-.35.34.26.1-.4.51a1.85,1.85,0,0,1,.69-.18c-.39.16-.22.43-.66.68.52-.25.49-.56,1.09-.71-.27.3-.27.57-.78.9.17,0,.38-.07.51,0,0,0,0-.09.09-.13-.22.44.33.55-.21,1.07.72-.52.4.42,1-.21,0,.11-.19.46-.3.59.57-.4.3.13.7,0-.28.27-.06.36-.18.59a.67.67,0,0,1,.28-.28c-.15.28.05.1.39,0-.07.27-.46.28-.66.55.22,0,.37-.23.62-.37l-.43.59a.89.89,0,0,0,.38-.14c-.12.18-.31.42,0,.31l-.1-.18.33-.14-.22.46c.61,0,1.15-.57,1.72-1l0-.19c.2-.14.37-.15.41-.11a1.64,1.64,0,0,0,.51-.82c-.26-.27-.74.45-1,.34l.15-.52-.2.13c-.17.06,0-.13.08-.17-.29.23-.26-.16-.38-.24l.29-.14c.41-.73-1-.06-.84-.54l.34-.47-.42.22c.17-.26.47-.48.22-.56-1.1-.18-.61-1.38-1.43-1.75a.43.43,0,0,1,.22,0c-1.36,0,.57-1.46-.52-1.53l-.13.12c-.06-.31-.14.12-.48,0,.5-.31.22-.54.33-.8-.09.08-.05.13-.1.21s-.45.18-.39.06c.65-.56.38-.88.46-1.26-.35.14-.77.06-1.38.22l.57-.45c-.27,0-.14-.14,0-.32a1.86,1.86,0,0,1,.09.24l0,0s0,0,0,.06,0,.11,0,.11c.38-.06.25-.14.65-.34-.06-.08,0-.33-.32-.2,0,0-.1-.06-.19-.09s.06-.12,0-.14l0,0-.13,0c-.26-.08.2-.63.4-.92-.43.4-.58.26-.94.44,0,0,.13.14.26.35a1.1,1.1,0,0,0-.25.09c-.48,0,.16-.5-.25-.64a.46.46,0,0,1-.23.17c-.15,0,.09-.28.29-.42-.36.16-.73.08-.63-.1.25-.24.39-.3.27-.45l-.21.2c-.31-.09.28-.35,0-.41.14,0-.12.16-.2.14,0-.28.17-.36.59-.76l-.38.23c.14-.3.44-.88-.09-.61.84-.37.23-.61.13-.75,0,.07-.16.17-.25.22.36-.61-.33-.66-.5-1l-.61.27c-.07-.18,1-.87.92-1l-.24.22a1,1,0,0,0-.48-.69l-.38.22c.12-.19.05-.31.18-.51-1.06.34,0-1.15-1.29-.91l.7-.46c-.11-.15-.09-.42-.66-.16l0,0c-.53.36-.11-.13-.28-.15a.77.77,0,0,1,.46-.4c-.61-.17-.61-1-1.4-.81,0-.54.33-1.2,0-1.57l-.08.06a1.1,1.1,0,0,0-1.14.17c-.07-.38.58-1.12.08-1.29l-.16.23c-.18,0,0-.35,0-.43s-.12.08-.2.14c-.25.05,0-.21,0-.32l-.17.16c-.59,0-.15-1-.51-1.26,0,.11-.25.23-.35.27.51-.61.06-.9.09-1.15l-.17.27c.19-.6-.83.25-.64-.34l.47-.11c-.19,0-.15-.23.14-.41-.3,0-.48.35-.69.19-.18.13,0,.24-.28.34l-.67.09s-.09,0-.12-.13c.78-.57-.14-.25.71-.7-.26-.44-1-.36-.93-1-.84.46-.57-.62-1.47.18-.16-.18-.1-.48.17-.91.11,0,0,.12,0,.2a.46.46,0,0,0,0-.59,3.23,3.23,0,0,1-.4,1,3.57,3.57,0,0,1,.14-1l-.51.36c.23-.43-.48.21-.13-.33l.16-.09c-.25-.23.22-.64.07-.93l-.17.17c-.15,0,.18-.51-.31-.22l.12.17a2.34,2.34,0,0,1-.8.37c-.06-.24.48-.53.45-.65-.33.24-.17.14-.42.46a1.4,1.4,0,0,1,.14-1.11.51.51,0,0,0-.11.11c-.23-.14.17-.8-.19-.68v.07c-.58.25.07-.77-.71-.11-.21.06.17.13-.3.36-.44,0,.5-.72.11-.72.05,0,0,0-.07.11a2.61,2.61,0,0,1-.28-.63c-.78.37-.38-.72-1.29-.28.31-.16.24-.32.35-.43l-.11.11c-.09-.07.14-.3.21-.42-.28.14,0-.44-.16-.35.16-.15.06-.17,0-.24,0,.31-.29.37-.48.66-.27-.13.46-.89.13-1l-.41.17c.42-.46,0-.48.22-.64a1.44,1.44,0,0,0-.52.35c0-.19-.33-.1-.1-.39l.2,0c-.43-.1.05-.89-.44-.8l-.66.65c-.4.14.12-.6-.4-.32.26-.18.2-.11.34-.41.09,0,0,.27.1.35l.21-.56.09.46c.15-.37.09-.3.41-.52,0-.38-.51.13-.41-.28-.15,0-.33.32-.53.39.09-.38-.75.2-.51-.25-.1,0,0,.08-.12.22,0-.15-.12-.19,0-.42h.15c-.09,0,.17-.33-.12-.31.07-.23.35-.61.44-.52,0-.08-.24,0-.41.25-.22-.21.59-.81.08-.7a.25.25,0,0,1-.07.12c-.1,0-.14,0-.14-.12.13.23-.58.47-.25.56-.37.33-.23-.08-.43,0,.13-.34.49-.52.61-.74-.11.11-.16.07-.25.06l.31-.21a.2.2,0,0,1-.08-.2l0,.19c-.14,0-.7.25-.61-.17-.07.15-.19.45-.44.48,0-.35-.15.07-.45.18-.12-.24.43-.51,0-.6,0,0,.15-.16.25-.21-.31,0-.23-.33-.59-.3.14,0,.29,0,.31-.26-.17.26-.34.06-.54.14l.11-.16a.3.3,0,0,0-.2.3s.1-.07.12,0-.54.68-.72.6c0-.27.34-.61.49-.72-.33-.05.41-.8,0-.77,0,0-.71.37-.89.29.22-.38.39-.07.56-.41-1,.56,0-.92-.76-.75l-.32.42a.33.33,0,0,1-.23-.2l.3-.11c0-.15-.22-.23-.44.11.13-.46-.07-.31-.31-.35.18.12.05,0,0,.26-.34,0-.23-.11-.27-.3-.11.15-.36.3-.4.26.12-.34-.11-.46-.14-.73l-.11.12c-.11-.38-.88-.1-.82-.67h0s0,0,0,0h0c.42-.29,0-.44.1-.66-.1.07-.26.23-.3.19.31-.35.06-.27.17-.46-.19,0-.36.42-.5.27s.13-.27.25-.4a.69.69,0,0,1-.52.17c-.06.11.09,0,.09.07-.16.19-.15.08-.36.31-.09,0,.26-.35.07-.31l-.17.35c-.1,0,0-.12,0-.16,0,.12-.26.39-.42.54,0-.38.63-.76.89-1.07-.39,0-.21-.46-.34-.62l-.27.35a.5.5,0,0,1,.1-.38l-.11-.11a1.16,1.16,0,0,1-.34.56c0-.2-.27-.27.09-.72l-.06.07c-.3,0-.72-.2-.84-.05,0-.3-.48-.25-.1-.67,0-.2-.76.3-.36-.3-.37.18-.1.11-.35.46-.38.17.15-.65-.45-.08,0-.31.15-.1.35-.41-.54.54-.35-.15-.77.06.14-.28.18-.09.3-.42-.12.15-.2.13-.24.11l.3-.38-.93.76c.18-.6.59-.57.47-1v.05c-.4.3.06-.45-.38-.35.12,0-.13.2-.2.32l0-.24a.14.14,0,0,1-.07.09c-.34.18.05-.22-.28-.08,0,.14-.26.39-.4.49l.2-.55-.37.55c-.19-.1.28-1.08-.4-.48v.14c-.11.11-.47.43-.36.09,0-.09.26-.4.29-.34l-.18,0a.87.87,0,0,0-.09.81c.07-.16.07-.35.28-.52,0,.2-.07.5-.06.7a4.8,4.8,0,0,1,.32-.54c.27-.06-.11.3,0,.41a.91.91,0,0,0,.32-.29c0,.23,0,.34.32.28a.74.74,0,0,1,.31-.47c0,.38-.26.8-.23,1.23-.22.78.81.14.64.69-.12.16-.36.13-.32.33.23-.31.23-.12.34-.23-.24.54.28.08.11.45.07-.12.25-.16.39-.21.3-.37.27,0,.53-.69-.28.71.47.18-.12,1.12l-.14.06h.33c.13,0,.06.12.51-.14,0-.13,0-.2,0-.33.38-.22,0,.46.08.58.22-.26,0-.2.27-.48.12,0,0,.29,0,.43l.12-.15c.5-.14-.55.77,0,.42-.08.08-.14.19-.23.27.19-.1.55-.24.59-.54.07.07,0,.27-.07.46s-.17,0-.44.28l.15.41s.1-.16.07-.2c1-.45.09,1.25,1.29.69-.25.19-.16.23-.27.42.19,0,.32.27.56.24l.11-.2c.11.46.08.9.36,1-.05.08.21-.22.22-.3-.13.42.89-.34.36.31h-.1c.37.15.27.88.48,1.23.4-.31-.13-.2.33-.57.33,0,.25.53.57.62,0-.08.06-.12.07-.16.43,0-.37.34-.14.46.16-.19.21-.23.36-.26l-.22.34a1.86,1.86,0,0,0,.32-.38c-.28.46.2.42-.07.84.1-.08.37-.45.53-.56s.12.18.06.38h0c.3-.19.43,0,.44-.07.28.05-.17.23-.25.57l-.29,0,.16.31.08-.26c.24,0,0,.38.19.5l-.26.15,0,.26c.42-.41.27.09.67-.48.47,0,.11.77.33,1-.05,0,0-.11.11-.18.24,0,.11.34,0,.64a2.35,2.35,0,0,1,.23-.33c.17.16-.14.34-.08.65.13-.23.23-.3.33-.3a.73.73,0,0,0-.24.38c.69-1,.54-.14,1.11-.88-.17.18-.24.83-.65,1.08v-.11c-.23.22-.08.2,0,.27a.3.3,0,0,1,.08-.19c0,.53.51.55.6,1.05.06-.11.09-.38.23-.37.42.17.15.77.22,1.27.55-.51-.23-.4.27-.91a5.43,5.43,0,0,1,.37,1.55c.9-.63,0,.65.83.27-.29.24-.28.43-.18.56.18-.25.3-.13.43-.31-.15.34,0,.73.54.23-.48.5.23.2,0,.62.31,0,.16.38.47.4-.38.24,0,.31-.08.49a.17.17,0,0,1,.07-.14c.32-.21-.07.41.18.35s.29-.28.38-.23c-.23.2-.27.7.09.54,0,0,.08-.15.14-.25,0,.8.91.85.85,1.71l.32-.42c.76-.15-.48.75-.23.93.72.46,1.85.63,2.1,1.47-.08.14-.16.09-.34.22.1,0,.45-.24.29,0l-.23.16c.82-.19.26,1.14,1.36.62-.14.55.63.26.35,1,.28-.05.29-.42.46-.32l-.11.58,0,0c-.45.81,1.35.25,1.16,1l0,0c.15-.12.4-.18.39-.08s-.18.11-.34.17a1.6,1.6,0,0,0,.16.93c.16-.29.29,0,.62-.25-.16.22-.37.2-.43.48.13.26.56.27.81.38-.24.28-.09.33-.45.58a7.21,7.21,0,0,0,.33.84l.13-.08c-.41.39.41.13.19.36.15-.11.2-.19.33-.27l0,.25c.09-.16.51-.49.64-.4-.25.34-.25.11-.47.35l.45-.25c0,.13-.45.47-.66.44.22.32.22.78.47,1l.27-.21a.36.36,0,0,0,.45.39c-.09.05-.21.19-.32.22-.27.43.48-.27.18.2a.86.86,0,0,1,.26-.33l-.12.61c.22-.12.84-.16.75.12a.5.5,0,0,1-.35.1l0,.17.55-.21-.34.41.42-.24c0,.17-.53.52-.44.6.48.19.58,0,1.13.06-.79.48.26.39-.29.78.8,0,.7.7,1.12,1.06l.05-.08c.48,0-.5.55-.23.67l.1-.11c.58,0,.42.72.21,1.16.1-.12.37-.23.39-.13-.13.15-.61.23-.38.3.06-.08.25-.15.28-.12l-.34.36c.48.23,1,.52,1,1a.86.86,0,0,0,.43-.23c.08.36-.1.85,0,1.17l.49-.22c.07.14-.69.46-.17.42.09,0,0-.13.15-.29.51.09-.37.41-.18.64l.5-.35c.42,0-.16.38-.44.62-.48.62,1.14-.34.88.3-.23.2-.4.19-.63.39.28.2-.08.43.21.64.87-.29-.08-.14.75-.39l-.29-.11c.51-.05,0-.22.5-.44.21.06-.08.47-.14.73.36-.19-.07-.22.46-.4l-.1.17c.09-.09.22-.16.19-.21.35-.15.07.09.11.18a5.17,5.17,0,0,1-.71.36l.14-.05c-.42.46.13.55-.19.92a.73.73,0,0,1,.23-.12c.08.1-.33.47-.38.69.3-.07.75-.49.74-.18-.27.21-.83.4-.71.59C214.12,191.82,214.26,191.51,214.51,191.48Zm-1.62-4.68,0-.1h0Zm.15-.51s-.11.13-.25.18a.56.56,0,0,0-.1-.15C212.83,186.31,213,186.36,213,186.29Zm2.6-.47,0,0a.28.28,0,0,0,0-.13c.09,0,.18,0,.15,0A.93.93,0,0,1,215.64,185.82Z"/><path class="a" d="M215.36,186.07s0,0,0,0h-.1l.11-.08Z"/><path class="a" d="M191.07,156.57h0l-.06,0Z"/><polygon class="a" points="209.22 181.7 209.32 181.64 209.25 181.72 209.22 181.7"/><path class="a" d="M188.33,156.13a.33.33,0,0,1-.1.06Z"/><path class="a" d="M187.53,155.53l-.21,0A.41.41,0,0,1,187.53,155.53Z"/><path class="a" d="M186.81,155.18a.65.65,0,0,1,.12-.15h0Z"/><path class="a" d="M195.31,163.88v0C195.3,164,195.29,164,195.31,163.88Z"/><path class="a" d="M193.45,160.61a.87.87,0,0,0-.06.23C193.32,160.82,193.27,160.79,193.45,160.61Z"/><path class="a" d="M197.73,167.11h0l0,0Z"/><path class="a" d="M193.51,161c-.11,0-.13,0-.12-.12S193.52,160.87,193.51,161Z"/><path class="a" d="M184.2,153.1h0l0-.05Z"/><path class="a" d="M184.2,153V153S184.23,153,184.2,153Z"/><path class="a" d="M184.22,152.83V153S184.15,152.94,184.22,152.83Z"/><path class="a" d="M185.09,153.63l-.09.13A.5.5,0,0,1,185.09,153.63Z"/><path class="a" d="M185.29,153.87c-.08,0-.36.13-.37,0l.08-.1C184.87,154,185.42,153.62,185.29,153.87Z"/><path class="a" d="M187.58,153.26l-.28-.08c.15-.1.35-.23.29-.34C188.17,152.68,187.28,153.08,187.58,153.26Z"/><path class="a" d="M188.34,153.61c-.05-.15.17-.18.23-.26C188.53,153.53,188.52,153.57,188.34,153.61Z"/><path class="a" d="M192.64,157.54l.27-.3C193,157.36,192.8,157.35,192.64,157.54Z"/><polygon class="a" points="192.03 159.82 191.78 159.94 192 159.63 192.03 159.82"/><polygon class="a" points="194.47 158.19 194.48 158.12 194.51 158.34 194.47 158.19"/><path class="a" d="M201.33,165.28l-.38.32C201,165.48,201.36,165.09,201.33,165.28Z"/><path class="a" d="M203.8,168.8c.22-.13.42-.14.28.08C204,168.82,203.78,168.88,203.8,168.8Z"/><polygon class="a" points="212.07 178.7 212.16 178.53 212.13 178.75 212.07 178.7"/><path class="a" d="M171,134.58c-.16,0-.31-.31-.07-.43l.47.29Z"/><path class="a" d="M171.76,132.73c.39,0,1,.12,1.1.62-.55-.19-.48,0-1.11-.24a.33.33,0,0,0-.09.54c-.15-.05-.24.34-.55.17,0-.52.33-.8.88-.83C172,132.84,171.84,132.79,171.76,132.73Z"/><path class="a" d="M170.06,125.62l.21-.07A.35.35,0,0,1,170.06,125.62Z"/><path class="a" d="M162.69,111.87a.13.13,0,0,1,0,.18C162.66,112,162.64,111.87,162.69,111.87Z"/><path class="a" d="M161,111h.06S161,111.06,161,111Z"/><path class="a" d="M170.06,125.62a2.62,2.62,0,0,1-.57.12C169.5,125.58,169.8,125.67,170.06,125.62Z"/><path class="a" d="M175.26,131.4a.5.5,0,0,1-.27,0l.2-.1Z"/><path class="a" d="M176,124.55l.07,0-.12.26A2,2,0,0,0,176,124.55Z"/><path class="a" d="M177.72,124.59a3.63,3.63,0,0,1,.53-.37l.86-.58a7.87,7.87,0,0,0-.73.57Z"/><path class="a" d="M174.92,129.27l-.15,0Z"/><path class="a" d="M173.51,125.35a.48.48,0,0,1,0,.17A.25.25,0,0,1,173.51,125.35Z"/><path class="a" d="M170.9,141.6s0,0,.07,0S170.91,141.63,170.9,141.6Z"/><path class="a" d="M175.12,146.54v-.09l.23-.1Z"/><path class="a" d="M160.31,111.8h0C160.36,111.79,160.35,111.8,160.31,111.8Z"/><path class="a" d="M151.31,132c-.63.08.41.85-.45.84C151,132.71,150.65,131.89,151.31,132Z"/><path class="a" d="M175.32,131.26a1.22,1.22,0,0,0,.17-.15A.44.44,0,0,1,175.32,131.26Z"/><path class="a" d="M150.86,132.83Z"/><path class="a" d="M158.52,122.51a.51.51,0,0,1-.18-.14S158.44,122.41,158.52,122.51Z"/><path class="a" d="M159.08,114.09l0,.22A.64.64,0,0,1,159.08,114.09Z"/><path class="a" d="M153.68,125.85c-.15,0-.2.07-.36,0l.06,0C153.43,125.86,153.5,125.9,153.68,125.85Z"/><path class="a" d="M149.17,125.19l.09-.08.14,0Z"/><path class="a" d="M174.37,141.5a1.36,1.36,0,0,0-.44-.08C174.25,141.39,174.15,140.73,174.37,141.5Z"/><path class="a" d="M175.09,131.21c.1.07.16.08.23,0l-.13.09C175.14,131.31,175.09,131.26,175.09,131.21Z"/><path class="a" d="M153.94,122.36h-.29l-.37,0h.36Z"/><path class="a" d="M158.29,147.45l.14-.11A.18.18,0,0,1,158.29,147.45Z"/><path class="a" d="M151.11,121.92a1.17,1.17,0,0,1-.46.25.76.76,0,0,1-.07-.13Z"/><path class="a" d="M173.93,141.42Z"/><path class="a" d="M173.1,137c0-.71-.17-.17-.72-.65.36-.47-.35-.59.37-.88-.56-.06-.36-.06-.83-.36.32,0,.27-.43.39-.74l-3.79,1.39a.36.36,0,0,1-.23.29c.27,0,.37-.22.47-.39l3.31-1.22c-.15.2-.28.38-.67.2l-2,.74h0c-.2.5,0,1.2-.6,1.5.25.21.51.24.74.63-.06-.05,0-.18.05-.24-.07.89.77,1.82.25,2.52.76-.49.74,1.53,1.28.65a1.89,1.89,0,0,1-.17,1.12c.63-.29.47.7,1,.89-.29.32.05.83,0,1.25a.31.31,0,0,1,.3-.32c-.12.48.1.29.54.5,0,.59-.54.09-.72.52.32.39.44-.09.73-.11l-.4.91a.62.62,0,0,0,.47.15c-.1.3-.3.61.13.82l-.19-.58.42.09-.17.84c.84.8,1.43.24,2.09-.08l0-.45c.24-.07.47.16.55.33s.51-.92.44-1.4c-.49-1.17-.9,0-1.37-.7V143l-.24.07c-.22-.1,0-.3,0-.36-.31.2-.44-.81-.66-1.21l.36,0c.24-1.47-1.49-1.57-1.5-2.64l.24-.86-.49,0c.1-.49.41-.7,0-1.26a7.46,7.46,0,0,1-1.33-2.23l-1.54.57a19.29,19.29,0,0,0,1.4,4.56c-.1,0-.15-.06-.27-.18a2.77,2.77,0,0,1,.78,2.58,5.5,5.5,0,0,0,0,1.28,2,2,0,0,0,.18.61,1,1,0,0,0,.07.15.38.38,0,0,0,.08.11l.19.12.15-.1c0,.26.08.24.16.2s.19-.13.41.1c-.58.1-.26.65-.44.79.14,0,.09-.06.17-.1.18.11.62.34.55.46-.44-.07-.63,0-.73,0s-.1.18-.22.15l0,0a16.42,16.42,0,0,1,1.06,1.3l.32.44a2.33,2.33,0,0,1,.29.44l.42.81c-.31-.3-.89-.93-1.38-1.52.15.44-.28,0-.63-.47l.4.18-.07-.09a.58.58,0,0,0,.13.11c.13.06.22.11.24.17a11,11,0,0,0-1.14-1.51c-.06,0-.36-.33,0,.32,0,0,0,.08,0,.17-.1-.14-.17-.23-.18-.17l.06.09c0,.11.07.17.09.24s-.28-.18-.46-.53a3.82,3.82,0,0,1-.33-1,7.63,7.63,0,0,1,.11.83,4.51,4.51,0,0,0,0,.58c0-.07.21.1.53.26a1.62,1.62,0,0,0,.09.4c-.08.26-.3,0-.47-.29s-.3-.53-.54-.52a.79.79,0,0,1,0,.39c-.22,0-.29-.51-.21-.76-.18.37-.69.31-.88-.11,0-.46.12-.54-.33-.92v.38c-.67-.31-.13-.69-.72-.93.25.08.06.31-.1.23-.43-.63-.34-.75-.35-1.53l-.23.39c-.27-.63-.87-1.87-1.28-1.42.38-.28.17-.61-.2-.92a10.46,10.46,0,0,0-1.2-.73.31.31,0,0,1,0,.41,2.88,2.88,0,0,0-.68-.75,1.85,1.85,0,0,0-.27-.17l-.33-.16c-.22-.11-.45-.21-.67-.3a3.24,3.24,0,0,0-2.74.06,6.43,6.43,0,0,0,0,.76c-.35.22-.71.12-1.15.1a1.47,1.47,0,0,0-.68.09,1.33,1.33,0,0,0-.35.19l-.13.09-.09.1h.21a.72.72,0,0,0,.23,0l-.19.19-.15.16-.25.3a5.79,5.79,0,0,0-.41.52c-.22.34-.43.67-.66,1.11l.37.24c-.37.17-.62.54-1,.71.23.64-.32,1.21-.9,1.86-.14.16-.29.32-.42.49a2.76,2.76,0,0,0-.29.41,2.11,2.11,0,0,0,0,.76c-.15-.27-.3-.55-.44-.83,0,0-.06,0-.07.12a4.88,4.88,0,0,0,0,.78l0,0c.07.46,0,.52,0,.49s-.11-.16-.15,0a2.89,2.89,0,0,1,0-1,1.83,1.83,0,0,1-.45.9,5.34,5.34,0,0,0-.35.53l-.29.5-.27.51a14.85,14.85,0,0,1,.73-2c.23-.53.4-.79.36-.82l-.11.12a1.59,1.59,0,0,1-.31.1,2.77,2.77,0,0,0-.76.26,1.66,1.66,0,0,1,.66-.83s0,0,.08-.06l.09-.18a2.55,2.55,0,0,0,.13-.39,2.26,2.26,0,0,0,.05-.91l-.29.27c-.1-.35.27-.87.37-1s-.15,0-.25,0c-.21-.34.18-.5.27-.75l-.24.09c-.39-1.11.69-2.72.69-4.11-.09.25-.34.09-.44,0a1.91,1.91,0,0,0,.71-1.29c.06-.26.1-.53.14-.76s0-.23.06-.32l.08-.34a.62.62,0,0,1-.17.24,1.33,1.33,0,0,1-.16.17,1.17,1.17,0,0,0,.13-.36,2,2,0,0,0,0-.47,1.47,1.47,0,0,0-.22-.65,5.13,5.13,0,0,1-.67-1.1c-.07-.16-.15-.36-.24-.59a3.28,3.28,0,0,1,.58.42,2.83,2.83,0,0,1,.34.35l-.22-.41c-.29-.52-.48-.92-.15-1-.45-.31-.59-.21-.74-.19s-.33,0-.93-.36c-.15.13.69.67.17.63l-.44-.13-.22-.05h-.16l-.61,0c-.06,0-.19,0-.46-.26.6-.77-.71-.53.24-1-1.2-.86-2.6-1.12-3.33-2.29-1,.4-1.95-1.65-2.66-.69a2.41,2.41,0,0,1-.62-.83,2.59,2.59,0,0,1-.14-.45.82.82,0,0,1,.09-.38c.14,0,.05.14.14.31a1.09,1.09,0,0,0-.05-.47,1.62,1.62,0,0,0-.19-.29,1,1,0,0,0-.09.52v.36a2.33,2.33,0,0,1,0,.46,1.69,1.69,0,0,1-.34-1.39c-.26,0-.54,0-.82,0,.13-.2-.07-.24-.28-.31s-.41-.18-.1-.3l.33.08c-.55-.58.5-.33.43-.57l-.47-.16c-.13-.1,0-.1.08-.11s.07,0,0,0a1.38,1.38,0,0,0-.19-.15l-.27-.17h-.08c-.09,0,0,0,0,.06l.06.1a8.56,8.56,0,0,1-.86-.45l-.38-.23-.16-.11-.06-.06c-.08-.08-.13-.15-.21-.22a3.26,3.26,0,0,1,1.13.42,4.31,4.31,0,0,0,.77.38,4.93,4.93,0,0,0-1.29-.65,6.61,6.61,0,0,1,2.73.89,1.29,1.29,0,0,0-.15-.16,1.45,1.45,0,0,1,.74.29c.22.14.33.24.4.07l-.08-.07a.18.18,0,0,1,.22-.16.24.24,0,0,1,.14,0l.26.08c.34.11.62.17.72-.34.31-.17-.68,0-.16-.47,1-.25.55.9,1.39.68-.11,0-.07,0-.1-.13a16.23,16.23,0,0,1,2,.44c.91-.74,2.42.53,3.49-.27-.35.29.16.43.14.59a.25.25,0,0,1,0-.16c.34,0,.35.37.47.52a.38.38,0,0,1,.32,0c.15,0,.32.09.49.14.33.11.69.19.8.08,0,.21.48.12.93,0-.51,0-.61-.09-.66-.21a.61.61,0,0,0-.27-.4,5.66,5.66,0,0,1,1.41,0,1.26,1.26,0,0,0,1.25-.84,3.93,3.93,0,0,0-.11-.92c.31,0,.49-.3.58-.66l.06-.25c0-.05,0-.1,0-.14s.07-.12.12-.11c-.17-.19-.24-.44-.56-.45.21-.36,0-1,.36-1.07l.11.4c-.07-1.2.91-1.78.63-2.73l-.92-.12c-.29-.65.66-1,.18-1.63.28.23.18.25.54-.09,0,.24-.27.62-.32,1L159,117l-.44,1.22c.44-.48.34-.46.68-.19.41-.72-.32-.88.14-1.56-.09-.28-.46,0-.61-.38.42-.6-.48-1.33.07-1.72-.07-.16-.07.26-.28.19.15-.4.16-.71.45-.79l.05.37c0-.31.4-.31.27-.94.27-.32.75-.45.7-.07.08-.15-.12-.52-.41-.44a.66.66,0,0,1,.53-.62.61.61,0,0,0,.14-.07s.08-.08.09-.06,0,0-.09-.09a.26.26,0,0,1-.13,0c-.05-.06-.05-.12,0-.12s-.22,0-.37-.09-.26-.15-.21.09c-.24-.08-.25-.2-.22-.3s.09-.19,0-.33c.17,0,.33.13.48.25a4,4,0,0,0,.4.32.36.36,0,0,1-.16-.27,3.72,3.72,0,0,0,.3.37s0,0,.1,0a.53.53,0,0,0-.14-.12,2.31,2.31,0,0,1-.11-.29c-.06-.23.06-.43.25-.14-.06-.18-.38-.55-.2-.76.45.34,0-.17.31-.43a.46.46,0,0,1,.28.46c0,.16.05.26.35.3.06,0-.1.2-.18.27a.38.38,0,0,1,.22.06l.11.09.13.12a2.18,2.18,0,0,0,.62.47c-.25-.15-.47-.19-.38.17.14-.31.52.19.81.32l-.12.15c.27.07.24-.16.2-.34-.05,0-.13,0-.19-.08-.06-.34.57-.71,1-.24a.56.56,0,0,1-.54.78.61.61,0,0,1,0,.79c-.11.25-.22.47.05.76.06.15,1,.46,1.22,1-.32.42-.53-.6-.78-.16,1.31.59,0,2.18,1,3.25l.45-.33a3.7,3.7,0,0,1,.32.92l-.42-.35c0,.34.33,1,.63.64-.17.81.12.86.47,1.43-.28-.64-.07,0,0-.55.49.59.34.7.41,1.21.14-.14.5,0,.57.19-.14.56.22,1.28.3,2l.14-.06a2.79,2.79,0,0,0,1.11,1.64,5.53,5.53,0,0,0,1.89.62h.07l-.11,0c-.26.26,0,.35.44.34a6.62,6.62,0,0,0,.66-.08,1.52,1.52,0,0,1,.42,0c0-.14,0-.36.19-.41.14.44.48.11.69.28.32-.26-.2-.52.43-.68.25,0,.35.19.37.37a1.36,1.36,0,0,1,.73-.7c-.15-.09-.28.12-.37.11-.11-.23.14-.21,0-.5.27-.12.26.37.53.13a2.39,2.39,0,0,0-.41-.26c.12-.14.34,0,.41,0-.22,0-.31-.39-.33-.62.53,0,.56.24.54.52a2.77,2.77,0,0,0,0,.79.75.75,0,0,1,.67-.2c.18,0,.29.14.44.11s.13-.34.18-.5c.17,0,.2.11.11.33l.25-.07a1.48,1.48,0,0,1,.33-.75c.27,0,1-.27.25.54l.12-.14c.65-.4,1.92-.89,2.32-1.21a.12.12,0,0,0,.11,0h.08s.08,0,0,0-.12.27-.19.4a2.19,2.19,0,0,1-1,.87c-.21.21.09.14.22.21s.08.22-.64.59c.52,0,.26-.08,1.14-.55.23.05-.17.38-.43.58s-.39.33.23.23c-.72.57-.2,0-.89.27.59-.12.47.1.27.35s-.47.52-.38.76c-.51.13-.09-.19-.71,0,.24,0,.16.17.11.26s-.38,0-.57-.09a2.63,2.63,0,0,1,.8.89c-.56.23-.68,0-.81-.07a.26.26,0,0,0-.21-.08.41.41,0,0,0-.17,0,2,2,0,0,0-.29.19l.08,0c.14.57-.83.32-1.15,1.16.14-.27.25.08.41.12l-.47.18c.05,0,.08,0,.09.07,0,.54-.39.1-.52.65.31-.14.49.19.5.41l-.87.06.64.3c-.47.5-1.89.35-1.57,1.25l.32-.14c.08.13.24.63-.32.66-.16,0-.48-.2-.32-.31l-.16.33c.4.23,1.12-.22,1.6-.47-.24,0-.64.13-.72-.15.44-.2,1-.28,1.4-.48a2.05,2.05,0,0,1-.7-.2c.23-.51.48,0,.8-.27,0-.22,0-.37-.18-.41a1.56,1.56,0,0,0,1-.94s-.63.17-.57-.22a3.43,3.43,0,0,1,1.1-.36,4.09,4.09,0,0,0,.54-.12l.29-.12a1.48,1.48,0,0,0,.35-.2,2.71,2.71,0,0,0,1-.79,3.29,3.29,0,0,0,.58-.93,8.54,8.54,0,0,1,.39-.8,2.16,2.16,0,0,1,.63-.73c.29-.11,0,.64.55,0-.58.19-.1-.3-.29-.29.56-.4.65-.64.69-.83s0-.33.42-.67c-.24.18-.27-.1-.34-.24-.36.19-.34.07-.42.06s-.23.12-.93.7a3.13,3.13,0,0,0,1-1.3,5.8,5.8,0,0,1,1.42-1.66l.1.11c0-.21.27-.68-.38-.35l.06,0a5.25,5.25,0,0,0-1.68.77c.06.1.37,0,.41.1-.56.32-.64.28-.68.16s0-.3-.29-.25c-.42.43.39,0-.34.58-.42.17-.39-.07-.62-.11l-.18.24c-1.36.81.7-1.15-.69-.13.14-.16.17-.3.33-.46-.26.18-.63.43-.87.64s-.34.4-.17.48c-.3.08-.52,0-.57-.24.49-.43.47-.28.87-.77l-1.58.24c-.19.06.09.17.31.11a4,4,0,0,1-1.46.75,5.92,5.92,0,0,1-1.32.16,2.52,2.52,0,0,0-2.2.9c.1-.36-.19-.23-.39-.4l-.17.07-.14,0-.28.08c-.2,0-.4.06-.59.11a2,2,0,0,0,0,.24,1.23,1.23,0,0,1-.62-1c0-.15,0-.29-.07-.4a3.1,3.1,0,0,0-.25-.56c.07-.08-.29.12-.29.28.14-.71-1.29-.94-.57-1.4l.14.18c-.57-1.08-.46-2.54-.76-3.75-.57-.11.18.7-.46.65-.47-.76-.35-1.73-.8-2.57,0,.16-.07.15-.08.23-.59-.8.5,0,.19-.79-.22.12-.29.1-.49-.12l.31-.34a.61.61,0,0,0-.45.23c.4-.5-.28-1.42.06-1.87-.14,0-.5.33-.71.29a1.23,1.23,0,0,1-.19-1h0c-.44-.14-.76-.82-.74-.65-.56-.58.19-.24.07-1,.2.15.39.3.57.46a7.57,7.57,0,0,0-.64-1.09,5.23,5.23,0,0,1,.12.54c-.48-.33-.55-1.05-1.11-1.5h.43c-.08-.12-.17-.23-.26-.34l-.37-.38c-.2.22-.49.08-.71,0s-.36-.07-.26.36c-.7-.22-1.24-.46-1.86-.66a2.38,2.38,0,0,0-1.92,0l-.27.19c.2-.18.2,0,.29,0-.3.32-.48.59-.69.78s-.42.37-.64.58c.2,0,.32-.19.45-.1a1.71,1.71,0,0,1-.37.8,2.05,2.05,0,0,0-.48,1c.3-.36.4-.14.42.14-.2-.07-.38.1-.46.25,1.24-.47.33,1,1.31.73-.26,0-.95,1.24-1.36.8l.12-.22c-.31-.07-.23.26-.29.49.07-.12.16-.23.23-.23-.55,1.13-.37,2.42-.85,3.71.13-.1.42-.6.47-.25,0,1.35-.74,2-1.22,3.32.73.16.32-1.43,1-1.38-.19.69-.39,1.39-.63,2.1-.12.35-.24.71-.38,1.08l-.1.27a.45.45,0,0,1-.07.07.47.47,0,0,1-.15.06c.5.31.32.46.12.4s-.19-.07-.25-.06-.06.08-.1.3a1.05,1.05,0,0,0-.12-.39l-.05-.09,0,0-.07,0c.1.32-.33.26-.25.49a1.73,1.73,0,0,0-1-.44c-.4,0-.75,0-.77.4,0-.71-1-.12-1.34-.65-.62.17-1.26-.31-2-.18.31-.41-.73-.29-1-.49.08,0,.23.11.18.17-.25.35-.83-.41-1.28-.22-.21.14,0,.4-.3.42,0-.16-.27-.35-.6-.45a2.44,2.44,0,0,0-.26-.06l-.46,0a1.69,1.69,0,0,0-.74.13c.34,0,.37.17.58.3a21.14,21.14,0,0,0-4.62-.32c-1.52,0-2.91.07-4.79,0a4.19,4.19,0,0,0,.21.43,4.54,4.54,0,0,1,.21.45,2.71,2.71,0,0,1,.59-.08c1.21,1.07,1,1.12.68,1.19s-.75.09-.15.83c.82,1,1.68,2,2.61,2.94.47.47.92.93,1.4,1.36l.71.64a1.7,1.7,0,0,0,.29.25l.22.17a31.29,31.29,0,0,1,3.25,2.76c.06.24-.21.07-.38.22.23.1.56-.2.64.22l-.23.18a4.78,4.78,0,0,1,2.08,1.3c.67.57,1.38,1,2.09.78a3,3,0,0,0,.4.4l.11.08.07,0c.09,0,.22.07.28.18s0,.29-.24.39a.43.43,0,0,0,.35,0c.1,0,.18-.09.2,0s-.18.39-.27.59l-.27.63.05-.07c-.94,1.18.66,3.38-.08,4.9l.05-.06c.19,0,.4.32.31.57-.14.07-.2-.1-.35-.27a12.72,12.72,0,0,0-.64,2.78c.33-.46.21.46.61.54a.42.42,0,0,1-.19.11.81.81,0,0,1-.16,0c-.1,0-.19.06-.35.63a11.8,11.8,0,0,0,0,2.21c0,.65.12,1.2.15,1.72-.44.88-.39,1.47-.88,2.1l0,.36a2.25,2.25,0,0,0,0,.26v1.41a20.27,20.27,0,0,0,.06,2.13l.14-.23c-.23.71-.14,1,0,1.11a.7.7,0,0,1,.15.23.17.17,0,0,1,0,.07l.09-.06s.07,0,.08,0c.11-.34,0-.37.18-.69l.54-.21c-.22,0,0-.92.57-1.41.27.28-.33.6-.28,1l.49-1.05c.32-.2.13.7-.47,1.39.36-.29.69-.55,1-.79l1-.7,1-.7a11.82,11.82,0,0,0,.95-.93l-.13-.36a5.77,5.77,0,0,0,1.85-2.41c.05.09.3.07.24.32.52-.28.48-.47.43-.64s-.09-.32.49-.71c-.29.2-.59.5-.72.36l.87-.89c.15-.16.31-.32.46-.49l.11-.13.06-.06,0,0,.15-.14a1.59,1.59,0,0,1,.4-1.67c.13.06.18.32.12.47l.33-.27-.31-.59.75-.21-.4-.28c.33-.31.94-.1,1.1-.41.49-1.23.2-1.11.39-2.11.4.24.6-.05.81-.36a.28.28,0,0,0,.05-.08l0-.05a.27.27,0,0,1,.07-.08s.12,0,.22.12a.53.53,0,0,1,.2-.54.5.5,0,0,1,.51.05,6.69,6.69,0,0,1,.69.42l.49.31.49.31-.05-.14c.4,0,.45.29.46.57s0,.6.36.76l-.05-.22c1,.23,2,1.76,2.39,2.7,0-.23.23-.38.43-.14s-.63.29-.12.54c0-.16.18-.23.28-.15l0,.35,0,.18a1,1,0,0,0,.08.24,27.66,27.66,0,0,0,3.09,1.85,6.75,6.75,0,0,0,.73.34l.7.35c.45.18.91.39,1.38.6.22-.12-.1-.38-.25-.6.33.12.67.26,1,.41l1.12.43c.39.15.83.28,1.23.41l.31.1.15,0h.09l.32,0-.65-.8c.14-.11.69.47,1,.63,0,0-.06-.28-.44-.88-.15-.26,0,.24,0,.43a1.19,1.19,0,0,1-.33-.18,1.09,1.09,0,0,1,0-.17c-.72-1.43.71.23.09-1.35-.25-.1-.5-.22-.77-.36-.45-.75-.42-.92-.26-1s.47.05.63,0a1.09,1.09,0,0,0-.18-.88,5,5,0,0,0-.67-.82,6.13,6.13,0,0,1-.72-.82,2,2,0,0,1-.35-1.11c.2-.32.51.15.71-.2a7.73,7.73,0,0,1-.38-1,3.36,3.36,0,0,1-.13-.67,2.2,2.2,0,0,0-.27-1c-1-.22.16.47-.82.19l.42.65c-.65-.46.07.59-.47.66-.3-.41-.1-1.25-.12-1.9-.38.13.18.71-.43.61l.06-.36c-.09.12-.23.18-.16.36-.4,0-.14-.36-.22-.65a1.94,1.94,0,0,1,.79-.16.28.28,0,0,1-.17,0c.36-.78-.38-1.65-.1-2.31-.09.12-.15.06-.25.06-.13-.35.26-.89.25-1.42-.36-.18-.8.42-.88-.41.27-.24.93-.06.72-.71C173.5,136.6,173.42,137.25,173.1,137Zm.55,13.76-.38-.15h0Zm-1.5-1a.57.57,0,0,1,.26.45l-.35-.14-.3-.16C172,149.92,172.27,150,172.15,149.79Zm-.23-3.41-.08-.12-.18-.14c-.1-.17-.19-.34-.06-.2Z"/><path class="a" d="M172.53,147.13l.09.08a1,1,0,0,1,.08.19l-.23-.29Z"/><path class="a" d="M170.31,125.54h0a.16.16,0,0,0,.08-.06Z"/><polygon class="a" points="159.29 146.33 159.2 146.27 159.35 146.23 159.29 146.33"/><path class="a" d="M178.38,121.76a1.15,1.15,0,0,1,.23-.18Z"/><path class="a" d="M182.12,120.86l.39-.15s0,0,0,0v.13a.29.29,0,0,1,0-.09v0s0,0-.08,0Z"/><path class="a" d="M181.54,123.14a2.33,2.33,0,0,1-.3.18h0Z"/><path class="a" d="M156.17,113.51a.16.16,0,0,1,0,.09C156,113.81,156.08,113.66,156.17,113.51Z"/><path class="a" d="M164.82,112.23a1.78,1.78,0,0,0,0-.46C165,112,165.05,112.12,164.82,112.23Z"/><path class="a" d="M154,122.36h0Z"/><path class="a" d="M164.53,111.25a.79.79,0,0,1,.3.52A1.42,1.42,0,0,1,164.53,111.25Z"/><path class="a" d="M173.59,132.91l-.09.09a.08.08,0,0,0-.05-.05Z"/><path class="a" d="M173.45,133l-.14.05C173.36,133,173.4,132.93,173.45,133Z"/><path class="a" d="M173,133.09l.29-.09C173.24,133.06,173.15,133.15,173,133.09Z"/><path class="a" d="M176,130.53l.14.09A.29.29,0,0,1,176,130.53Z"/><path class="a" d="M176.72,129.85c-.14.21-.2.68-.52.84l-.11-.07C176.37,130.68,176.37,129.83,176.72,129.85Z"/><path class="a" d="M177.49,126a3.78,3.78,0,0,1-.2.48.42.42,0,0,0-.56,0c-.15-.24,0-.2.14-.19A.54.54,0,0,0,177.49,126Z"/><path class="a" d="M178,124.73c-.29.3-.49.24-.7.36C177.66,124.81,177.77,124.71,178,124.73Z"/><path class="a" d="M166.13,121l-.36.19C165.7,120.86,165.91,121.15,166.13,121Z"/><polygon class="a" points="166.9 116.97 167.24 117.2 166.94 117.47 166.9 116.97"/><polygon class="a" points="163.52 115.84 163.51 116 163.48 115.41 163.52 115.84"/><path class="a" d="M149.91,125.67l.16-.47C150.29,125.31,150.26,125.87,149.91,125.67Z"/><path class="a" d="M143,125.89c.44.11.74.21.49.3C143.33,126.09,142.94,126,143,125.89Z"/><path class="a" d="M154.31,146.65l-.13-.1a.33.33,0,0,0,.15,0Z"/><path class="a" d="M149.22,125.91c.14.16,0,.45-.43.32l-.22-.58Z"/><path class="a" d="M146.05,126.15c-.45-.41-.86-1-.38-1.37.32.64.5.48.87,1.22.42.18.81,0,.78-.16.12.17.7,0,.87.42a2,2,0,0,1-2.07-.45C145.93,125.86,146,126.05,146.05,126.15Z"/><path class="a" d="M152.23,136.2c-.06.07-.11.14-.17.2A1.4,1.4,0,0,1,152.23,136.2Z"/><path class="a" d="M154.24,140.62c-.06.2-.14.27-.19.27C154.14,140.71,154.2,140.56,154.24,140.62Z"/><path class="a" d="M154.56,135.94v.28A.33.33,0,0,1,154.56,135.94Z"/><path class="a" d="M152.23,136.2a5.36,5.36,0,0,0,.38-.55C152.76,135.74,152.46,136,152.23,136.2Z"/><path class="a" d="M144.31,126.06a1.46,1.46,0,0,1-.38-.17l.37.08S144.31,126,144.31,126.06Z"/><path class="a" d="M151.25,128.83l-.33,0a2.11,2.11,0,0,1-.19-.23A5,5,0,0,1,151.25,128.83Z"/><path class="a" d="M152.17,130.18c-.21.06-.38-.36-.49-.53a.64.64,0,0,0,.53.2A.59.59,0,0,1,152.17,130.18Z"/><path class="a" d="M146.57,124.47l-.26-.1Z"/><path class="a" d="M152.63,134.34a.42.42,0,0,1,.14.12C152.71,134.45,152.67,134.4,152.63,134.34Z"/><path class="a" d="M170.22,126.43h.08C170.25,126.49,170.22,126.51,170.22,126.43Z"/><path class="a" d="M177.41,123.62l-.12.09a1.56,1.56,0,0,1-.2-.16Z"/><path class="a" d="M158.21,134.2v0C158.31,134,158.27,134.07,158.21,134.2Z"/><path class="a" d="M164.64,137.17c.72.69-.09-1.57.84-.46C165.27,136.65,165.31,138.12,164.64,137.17Z"/><path class="a" d="M144.55,126a2.43,2.43,0,0,0,.38,0A1,1,0,0,1,144.55,126Z"/><path class="a" d="M165.48,136.71h0l.1.11Z"/><path class="a" d="M158.48,135.11a.64.64,0,0,1,.05.28S158.48,135.29,158.48,135.11Z"/><path class="a" d="M156.58,139l0,.37A1.22,1.22,0,0,1,156.58,139Z"/><path class="a" d="M160.81,139.54A1,1,0,0,1,161,139a.28.28,0,0,1,0,.09A.57.57,0,0,0,160.81,139.54Z"/><path class="a" d="M166.92,136.52l-.18-.09-.21-.33Z"/><path class="a" d="M165.49,135.37a1.23,1.23,0,0,0-.1-.58C165.58,135.08,166.42,133.94,165.49,135.37Z"/><path class="a" d="M144.33,125.81a.3.3,0,0,0,.22.2l-.25,0C144.28,125.9,144.28,125.84,144.33,125.81Z"/><path class="a" d="M164.13,140.65l.23-.6.06-.15v0a.79.79,0,0,1-.05.13A5.59,5.59,0,0,1,164.13,140.65Z"/><path class="a" d="M156.75,119.77l-.13.28A.49.49,0,0,1,156.75,119.77Z"/><path class="a" d="M164.74,139.47c0-.26,0-.36.09-.4a1.21,1.21,0,0,1,0,.2A.47.47,0,0,0,164.74,139.47Z"/><path class="a" d="M165.39,134.78h0Z"/><path class="a" d="M169.21,127.87c.35-.33.38-.36.33-.48a.83.83,0,0,1,0-.71.87.87,0,0,0,.57-.25c.13-.11.23-.18.43,0l-3-2h-.14c.43.48.27.34.5,1.15-.36-.4-.67,1.35-1.15,1.21.51.41.92-1.14,1.33-.06-.5.6-.86,1.82-1.49,1.82a5.55,5.55,0,0,1,.15,1.61c0-.13.13-.26.2-.33a5.78,5.78,0,0,0-.3.8l3.49.64a5.45,5.45,0,0,1,.6-1.32,1.13,1.13,0,0,1,1-.61c-.42-.2-.08-.65.29-1s.73-.52.15-.66a1.69,1.69,0,0,1,.9-.16l-2.37-1.7a2.48,2.48,0,0,1-.34.58c.7,0,.06,1.5.43,2.18a1.34,1.34,0,0,0-.36.83l-1,5.12,4.06-3.93a5.07,5.07,0,0,1,.89-.8c-.24.16-.43.21-.51,0,.67-.37.35-.41.49-1.09.8-.59.29.48.92.25.43-.72-.25-.38-.37-.68l1.36-.46a.8.8,0,0,0,.07-.65c.45-.18.92-.25,1.11-.91l-.76.75,0-.54,1.21-.59c1-1.63.05-1.79-.56-2.22l-.65.43c-.16-.19.13-.66.37-.91s-1.46.28-2.13.84c-1.58,1.69.27.93-.67,2.19-.56.4-1.11.81-1.66,1.23l.18.18c-.08.35-.41.32-.51.35.23.08-.21.59-.68,1.13l1.21.48c0-.42.1-.84.1-1.14l.29.31a4.25,4.25,0,0,0,.17-2.74l-.37-1.73-1,.76c-.83.64-1.33,1.37-2.18,1.92a7.3,7.3,0,0,0-1.32.75l.24.5a9.26,9.26,0,0,0-.83.66,2.23,2.23,0,0,0-.55,1.3l0,.54,2.13.39a31,31,0,0,1,.92-6.21l.43-2L169,124a7.42,7.42,0,0,0-2.5,2.58,11.69,11.69,0,0,0-1.25,3.06c-.08-.09-.06-.22,0-.5a6.39,6.39,0,0,1-1.18,3.37,9.11,9.11,0,0,1-2.07,1.91l2.51,1.2a6.3,6.3,0,0,0,.11-2.51l-.21.21c.28-1.71-.2.21-.32-1.06.6-.18.67-2.14,1-3.11-.13.14-.16.49-.27.76-.11-.2-.45-.31-.29-.79.95-1,1.11-3.38,1.55-5.1-.36-.25-.53-1.79-1.06-2.64a1.93,1.93,0,0,0,.17-.22l.42-.61-1.54.18c-.2,0-.5.09-.79.15a2,2,0,0,1-1,1.26c.31-.49.61-.91.84-1.22H163a1.7,1.7,0,0,0,.18-.19,3,3,0,0,1,.34-.39l3.49-2-1.21,2.83s0,0,0,0h0l-2.24-.87h0l2.25.87c.27.7.29,0,.69.07L162.94,120l0,0c-.35.51-1.18,1.48-1,1.78a4.84,4.84,0,0,0-.41.89,1.7,1.7,0,0,0-.44.6l.11-.08a.78.78,0,0,1,0,.21,11.08,11.08,0,0,1-2.45,2.95c.92-.6.46.5.83.67a18.4,18.4,0,0,1,1.08-2.27.34.34,0,0,0,.13.31c-.2,1.31-1.32,1.74-1.83,3.51.1-.08.28-.25.38-.11a1.48,1.48,0,0,1-1,1c.16.17.14.66,0,1.15l1.6.38a2.71,2.71,0,0,1,0-1.15,1.94,1.94,0,0,0,.54-1.53l-.31.44c-.15-1.26.48-1,.34-2,.07.42-.22.43-.25.12a3.69,3.69,0,0,1,1.09-2.16l-.45.12c.38-1.07,1.21-3,.63-3.15.84.48.86-2.27,1.05-3.21a.43.43,0,0,1-.39.35,8.31,8.31,0,0,0,.72-2.14l-3.78-1.15c-.46,1.23-.72,2.55-1.2,3.77l.5.54c-.42,1-1.75.84-2.16,2l.46-.29a29.26,29.26,0,0,0-1.41,3.68l4,1.06.06-.71-.45,0c.3-.55.44-1.28.76-1.83-.4-.77,0-2.07.52-3.47a10.11,10.11,0,0,0,.89-4.29l.84.12c.29-.9.86-2,.45-2.6l-.07.2c-.36-.09-.19-.38,0-.73l-2.77-1a2.26,2.26,0,0,0-.33.84c-.2.42-.73.76-.74.33-.17,1.33-.6,2.91-.93,4.4a9.82,9.82,0,0,0-.34,3.73c-.79,2.53-1.8,4.39-2.09,7.25l.1,0c0,1,0,2.92.68,3-.27,1.43-.87,2.47-1.14,3.85l-1.79,8.92,5.46-7.9a7.16,7.16,0,0,0,.84-1.64l-.48.35A4.17,4.17,0,0,1,160,133.5c.08-.2-.11-.12-.21-.14.05-.62.54-.75.81-1.13l-.29.06a3.74,3.74,0,0,1,.22-.67,5.79,5.79,0,0,1,.25-.55,1.58,1.58,0,0,1,.38-.45.82.82,0,0,1,.33-.16c.09,0,.14,0,.2-.08a.27.27,0,0,0,.05.12,3.68,3.68,0,0,1,.09-1c0,1,0,1.41,0,1.63s0,.3,0,.38a1.06,1.06,0,0,0,.23-.24.88.88,0,0,0-.06.17,2.3,2.3,0,0,0,.2.42,2.41,2.41,0,0,0,.5.58,2.32,2.32,0,0,1,.84,1.67l-.84-.9c.43.71.55,1.4.16,1.36.59.77.59-.12,1.2,1.18.22,0-.25-1,.18-.69l1.28,1.62c.08,0,.19.25.38.88-1,.21.58,1.54-.67,1l.21.52,1.07,2.7,2-2.12a5.84,5.84,0,0,0,1.36-2.56,18.05,18.05,0,0,0,.39-2.2l-3.18-.33a12.58,12.58,0,0,1-.18,2.88c.92,1,0,4.78,1.16,4.56a6.53,6.53,0,0,1-.78,3.29,1.88,1.88,0,0,1,.13-.9,7.05,7.05,0,0,0-.4,2.67,13.92,13.92,0,0,1,1-3,34.45,34.45,0,0,1-.78,3.64l.07,0,6.29,3.33-4.06-3.1-.5-.38c.63-1-.34-.95.42-1.9l.15.22c.21-1.92.82-1.88,1-3.71l-.25.07c-.06-.63.57-1.54,0-2.17l-.07,1.19c-.43-.15-.58-1.05-.79-1.46.13-1.23.71-.43.78-1.05-.41-.27-.22-.07-.62.36l.08-.81-1,.31a5.28,5.28,0,0,1,.67,3.15c.08,0,.15-.05.15-.05a4.11,4.11,0,0,1,.18,1.71,3.37,3.37,0,0,0,0,1.36l2.76-1-.12-.09.06.14-2.63.92,0-.12.06.12,2.47-.87c-1-.66-1.19-2.64-2.12-2.25-.47-.32.75,1-.17.57-1.25-1.19,0-1.42-1.07-2.46.15.15.06.13,0,.25-.31-.45-.65-1-1-1.52l-1.32-2.07a11.6,11.6,0,0,1-1.25-1l-.62-.53a1,1,0,0,0-.38-.2.75.75,0,0,0-.49,0,1.54,1.54,0,0,0-.66.57,5.75,5.75,0,0,0-.5.82,5.17,5.17,0,0,0-.48,2c0-.4-.13-.37-.29-.21s-.33.42-.39.39.11,0,.13.07a1.43,1.43,0,0,1-.21.39.78.78,0,0,1-.21.17c-.13.07-.27.1-.38.17.06.52-.77,1.26-.91,1.66l2.68.33a.67.67,0,0,0-.06-.12c.21-.05.07-.52,0-1.06-.05,1.12-.39.43-.64,1-.39-1.59.61-2,.15-3.66l-.57-.85c.29-.15.31-.61.28-1l-.27-3.83-2.56,3.27c-.26.33-.46.66-.55.58,0,.35-.12.77.18.88-.49.5-.76,1.53-1.23,1.58l.23-.66c-.93,1.91-2.35,2.5-2.86,4.1l.8.46c-.21.95-1.13,1.31-1.42,2.05l1.61.49a1.28,1.28,0,0,0-.15-.44c.3.33.2.4.53-.27a2.81,2.81,0,0,1-.07.71l-2.18-.65a6.94,6.94,0,0,0,.7-.88l-.95.72,2.73.82.13-.32-.05.32-2.89-.86,1.22-1.52c-.83.63-.71.62-.82.08a2.5,2.5,0,0,0-.7,1.25l3.55,1.06a2,2,0,0,1,0-1.33c-.11-.46-.47,0-.63-.54.39-1.12-.52-2.23.06-3-.07-.27-.08.47-.29.38.16-.73.19-1.26.49-1.44l0,.64c0-.56.42-.6.34-1.68.3-.57.81-.84.72-.19.09-.26-.06-.87-.37-.71.25-1.63,1.09-.61.94-2.23,0,.09-.11.2-.16.13a2.57,2.57,0,0,1,.19-1c-.35,1.35-.65-.58-.8,1.08-.46-.27.14-1.26.07-1.82.5-.72.71.07,1-.28-.15,0-.08-.35-.05-.75l.27.46a5.23,5.23,0,0,1,.25-.84l-4.53-.79-.05.18.06-.18,4.52.79-.22.45a3.86,3.86,0,0,0,0-.5l-4.12-.72a5,5,0,0,1-.08,2.69c.19-.33.57-1,.66-.09-.4,1.39.12.35.31,1.18-.27,1.4-.69.17-.75,2.25,0,.22-.22,0-.29-.25,0,1.42-.43,2.12-.45,3.49,0-.6,0-1.06-.34-.33.37-.26,0,1.14.07,1.69l-.21.08c.09.45.28,0,.43-.26-.06,0-.08-.14,0-.38.3-.61,1-.22.74.85-.48,1.07-.91.73-1,.5-.21,1.23-.92,1.15-1.28,1.87l3.37,1.08a2.31,2.31,0,0,0,.13-.65,14.16,14.16,0,0,1-.17-2.71c.55-.44,0,1.4.49.88-.6-2,1.52-3.48,1.4-6l-.57.18a10.18,10.18,0,0,1,.35-1.69l.11.86c.23-.52.39-1.82-.08-1.48a4.35,4.35,0,0,0,.56-2.62c-.19,1.22.07,0-.37.87a4.74,4.74,0,0,1,.46-2.24c-.2.11-.4-.4-.34-.74a.47.47,0,0,0,.07-.12l.53-1.17-1.29.83a10.19,10.19,0,0,0-2.06,2.75l.14.07c-.51.84-.8,1.8-1.24,2.66a3.72,3.72,0,0,1-1.94,2h0l-.09,0,.1-.1c.15-.58-.71.07-1.33.1l1.39,1.08a2.37,2.37,0,0,1,.09-.51c-.11-.12-.33-.19-.31-.51.46,0,.29-.67.56-.89-.06-.64-.59,0-.34-1.08.13-.4.39-.38.54-.29a1.43,1.43,0,0,1-.12-.67,2.52,2.52,0,0,1,.09-.54,3,3,0,0,1,.17-.58c-.25.24-.23.65-.32.81-.27,0,0-.42-.33-.47.2-.56.52-.2.74-1l-.73.69c0-.28.34-.63.45-.78a.86.86,0,0,1-.92.36c.43-.62.79-.82,1.12-.82s.48.28.77.19a9.31,9.31,0,0,1,1.17-2.08c0-.06,0-.14-.08-.19l-.33-.07-.68-.15a14.06,14.06,0,0,0-1.45-.25,3,3,0,0,1,0,.43,2.29,2.29,0,0,1-1.22-.45l-1.26-.12c.71.22.87.37.78.71l-.88-.14-.73-.13c-.46-.1-.83-.25-.92-.55l0,.1c-.36,0-.82,0-1.3,0l-.06,1.71a7.25,7.25,0,0,0,2.48-.51c1.37.06,3-.6,3.15-.06.84,0,1.85-1.2,2.61-.69.8-.65,0-.15-.4-.48.78-.62,2-.05,2-.93,0,0,0,0,0,0l.52.21-.52-.38c-.86-.64.33,0,.13-.52-.51.6-1.95-.69-3.08-.59-.34-.45.51,0-.15-.6,0,.2-.4.1-.61.06l-.06-.52c-.45.27-.9.56-1.33.85-1.36-.93.53-.74-1.46-1.44l.11.07c-.65.36-1.39-.69-3-.53.52,0,.17.26.32.42-.27-.11-.54-.22-.81-.31.07,0,.11.07,0,.11-.77.27-.62-.27-1.5,0,.58.16.36.5.09.65-.38-.22-.77-.42-1.16-.63l.45.69a18.2,18.2,0,0,1-2.21-.5l.05-.22c.45.34.9.53,1.3.28l-.48-.34c.11-.11.61-.39,1.18.21.19.17.19.59-.11.44l.6.08c-.11-.47-1.26-1.1-2-1.63l-.57,2.27h.11a.28.28,0,0,0-.11,0l.56-2.19c.19.27.6.63.33.76-.18-.13-.35-.28-.52-.42l-.37,1.46c.58.15,1.13.34,1.68.47a2.36,2.36,0,0,1-.63-.64c.89-.19.64.32,1.3.4.26-.15.44-.25.29-.4a5.32,5.32,0,0,0,2.36.26,2.67,2.67,0,0,1-.4-.24c-.16-.14-.26-.29,0-.38,1.6.51,1.83,1.06,3.44,1.75a6.68,6.68,0,0,0,2.71.9,4.27,4.27,0,0,1,2.25.81c0,.2-1.08-.07-.3.37,0-.42.59,0,.69-.14a1.64,1.64,0,0,0,.24.27l.07-2.4c-.79,0-1,.61-1.71.47.19.08-.3.39-.62.62.24.42-1,.47.57.74a4.87,4.87,0,0,0-2,.19,2,2,0,0,1-1.78-.28l.34-.19c-.47.15-.94.3-1.41.43l.06,0a3,3,0,0,0-1.56.59c.38.09.92.05,1.31.13-.77.5-1.69-.21-2.55-.22,0,.34.92.09.67.52a2.34,2.34,0,0,1-.7,0v.32c.36.1.69.25,1,.35l-.07-.2c1.62-.3.53,1,1.74.45,0,.11.09.25,0,.35a2.67,2.67,0,0,0,.34-.14l.33-.18c.19-.12.28-.26-.17-.42.54,0,1.06.26,1.11.48-.57.23-.56.09-.86.43q.65.15,1.11.3c.14,0,.15-.18,0-.2a5.19,5.19,0,0,1,.64-.13l.3,0h0v.06l0,.08a8.74,8.74,0,0,1-.63,1.09l-.35.55a3.18,3.18,0,0,0-.17.27l-.07.13-.1.21a5.1,5.1,0,0,0-.32,3.78c-.29-.37-.29.21-.5.51v.19l.11,1.42,1.24-.38a6.14,6.14,0,0,0,1.75-.85,4.41,4.41,0,0,0,1.21-1.25l-.37.08a11.06,11.06,0,0,0,2.13-2.4,10.2,10.2,0,0,0,1.13-2.11c.11,0-.28-.13-.45.09a2.86,2.86,0,0,0,.59-1.51c.1-.5.26-.88.67-.74l-.16.34a4.4,4.4,0,0,1,.36-.52l-1.42-.64c-.35,2-1.25,4-1.76,5.89.38.62.31-1.25.8-.68-.13,1.56-.88,3-1.1,4.7.12-.25.16-.18.22-.3-.07,1.72-.44-.29-.69,1.11.26,0,.3.06.31.55l-.48.31a.38.38,0,0,0,.51,0c-.65.49-.77,2.41-1.37,2.77.09.15.63-.08.76.16a3.3,3.3,0,0,1-.11.62l.72.23a4.22,4.22,0,0,1,.67-1h0c-.14-.62.27-1.87.14-1.61.19-1.38.33-.14.88-1.09,0,.38,0,.76-.07,1.14.22-.63.41-1.26.59-1.9-.14.24-.27.48-.41.71,0-.92.63-1.73.8-2.77l.19.52c.13-.38.26-.77.38-1.16-.55-.21.1-1.53-.67-1,0-2.21.92-3.52,1.18-5.5,0,.35-.14.2-.24.26,0-.12,0-.24,0-.34l-2.22-.39a5.1,5.1,0,0,1-1,2.09c.21-.11.33-.37.48-.34-.28,1.36-.51.76-1,2.25.31-.38.41-.23.4.2-.2-.1-.41.22-.52.49,1.34-.94.19,1.78,1.23,1.2-.27,0-1.08,2.32-1.46,1.59l.14-.41c-.31-.09-.26.5-.33.92.08-.21.18-.44.24-.43-.59,1.94-.48,4.06-.71,6.29l-.62,6.16,3.89-5.18c.11-.16.24-.32.37-.48-.11.06-.35.27-.52.39l-4.81,3.26,1.86-4.15c.08-.17.15-.24.19,0l2.6.78a.17.17,0,0,1,0-.05c1.12-2.1,2.37-2.95,3.9-4.83-.58-.49-1.48,2.14-2.13,1.84,1.25-1.72,2.58-3.46,4.09-5.31l-3.57-.7,0,1.29c1.25.78,0,2.78,1.18,4.35a.18.18,0,0,0-.2.08l-1.42,2.11,5.08-1.66c.27-.09.62-.69.93-1.36-.41.18,0-.74-.32-.57a2.81,2.81,0,0,0,.26-.3s.1-.15.12-.16l.06,0a.39.39,0,0,0,.16-.18,1.6,1.6,0,0,0-.15-.93c.2.41.22.3.31.12s.14-.16.2-.08.1.21.11.43c.1-.09.21.12.27.28a1.67,1.67,0,0,0,.11.23.1.1,0,0,0,0,0l.07.09a3.7,3.7,0,0,0,.33.36c-.63-.12.6,1.18.73,1.68,0-.13-.16-.39-.08-.37.54.1.63,1.42,1.24,1.89.32.18.28-.3.62.12-.24.19.64,2,1.38,2.39-.2-.28-.08-.37-.1-.61.11.21.22.42.34.63l3.1,5.42.28-6.62a13.15,13.15,0,0,0-2.27-7.39l-3.57-5.68-.11,6.79a13.75,13.75,0,0,1-.36,3.14l.55-.58c.54,2.2-.93,1.36-1,3-.07,1.13-.14,2.27-.25,3.41l4.56.45a72.53,72.53,0,0,1-.22-11c.16-.35.18.2.4.26-.06-.41-.49-.53-.21-1.09l.28.13a5.26,5.26,0,0,1-.22-1.45l-4.16-.44a7.09,7.09,0,0,1-.45,1.71,3.4,3.4,0,0,1-.6,1l3.64.68a4,4,0,0,0-1.35-1.88c-.36-2.08-1.63-3.13-1.95-5.7l-.05-.06-.06-.08-.09-.09s-.07,0-.09,0,0,.29,0,.37,0,.21-.05.22,0,0-.07-.06a.35.35,0,0,1-.06-.09,1.17,1.17,0,0,1-.1-.2c-.33-1.19-.71-2.5-1.14-3.94l.06.26a21.56,21.56,0,0,0-2.12-5.38c-.67,1.61-1.38,3.31-2.07,5a20.83,20.83,0,0,1-2,3.78l.12-.15c.05,0,.08.06.08.16a.85.85,0,0,1,0,.16V130a1.36,1.36,0,0,1-.24.64c-.19.08-.12-.23-.14-.55a39.56,39.56,0,0,0-2.67,4.3c.35-.34.29-.08.2.28l3,.84c0-.31-.12-.69-.3-.74.3-.49.39.32.7-.8.17-1.61,0-3.13,0-4.49.42-.49.42-1.22.86-1.19.29-1.8.63-2.78,1-5l-.14-.09c.65-.48.11-2,.51-2.3-.2,0-.33.23-.47.14l.4-1c-.27.44-.84.6-.72-.24.58-.77.21.29.61,0l-.44-.38c.21-.63.82-.67.78.14.51-2.18,1.32-4.25,1.82-6.19l-.38.11c.08-.18.16-.38.23-.59l-3.68-1.3a6.84,6.84,0,0,0-.76,2.67c-.1,0-.36.21-.41,0-.88,1.17.47.31-.47,1.59.23-.32.44-.75.65-.74q-.65,1.27-1.23,2.58a4.53,4.53,0,0,1-.18,3c-.15,0-.25-.36-.21-.67l-.3.72.44.7-.73,1,.47.12c-.26.77-.93,1-1,1.64a13.69,13.69,0,0,0,0,1.42l.77,18.42,2.84-17.45c.15-.94,0-1.06.14-2.36.94.15,1-2.55,1.73-2.71a17.34,17.34,0,0,1,1.4-4.8l-2.62-.79a29.6,29.6,0,0,0-.67,3.6l.12-.23c.2,1.34-.95,1.33-1,2.76l.18-.33c.21,1.85-.57,4.92-1.07,6.62.17-.34.45-.14.38.4s-.62-.49-.5.49c.1-.23.29,0,.29.19l-.51.93,0,.53.89,11.18,3.19-10.21a23,23,0,0,1,2.89-6.56c.08-.47-.23-.27-.42-.26a20,20,0,0,1,2.33-2.89L162.8,121c-.15.67-.28,1.3-.38,1.92l.52.24c-.1.88-.88.46-.52,1.65,0,.27.11-.75.38-1,.22,1.81-.63,1-.75,2.69l.65-.38c.22,1.34-.47,1.45-.88,1.88-.9,1.75,1,1.42.23,3.84-.34.36-.42-.18-.76.19,0,1.61-.41,1.88-.5,3.33l-.44,7,4.21-5.21.28-.35c.11-1.47-.74.82-.53-.68l-.32.47-2.21,3.18-.2-4.33,0-.87c.36,1.19.23-1,.75-.8a5.08,5.08,0,0,1-.33,1.71l-1,2.92,2.72-2.08.74-.56c.22-.21.44-.42.65-.64-.17-.11-.4.18-.6.41s-.39.34-.4,0l.5-.42c-.2.08-.34,0-.54.31-.18-.41.43-.58.73-1.1a1,1,0,0,1,.58.58.5.5,0,0,1,0-.22,4.39,4.39,0,0,0,1.33-1.86,5.85,5.85,0,0,1,1-1.75c-.17.1-.16,0-.23-.12.23-.64,1-1.08,1.45-1.71,0-.26-.26-.31-.39-.42s-.16-.3.22-.81c.39,0,.63.71,1.11,0C169.84,127.85,169.16,128.36,169.21,127.87Zm-5.44-3.37-.31.49h0Zm-1.37,1.72c.11-.22.29-.23.39-.08-.18.33-.34.65-.46.92C162.37,126.69,162.55,126.15,162.4,126.22Zm.14-5.18h-.07c-.2.23-.33.41-.44.56,0-.09-.05-.26.23-.56A.67.67,0,0,1,162.54,121Z"/><path class="a" d="M163.15,120.78s.08,0,.12-.11a1.84,1.84,0,0,1-.05.25l-.2,0Z"/><path class="a" d="M152,136.44l0,0a.25.25,0,0,0,0,.11S152,136.46,152,136.44Z"/><polygon class="a" points="155.92 122.42 156.03 122.45 155.89 122.64 155.92 122.42"/><path class="a" d="M149.28,130.67a.33.33,0,0,1-.18.1S149.19,130.71,149.28,130.67Z"/><path class="a" d="M149.39,128.41l.75-.26A4.85,4.85,0,0,1,149.39,128.41Z"/><path class="a" d="M153.52,127.38a.57.57,0,0,1,.13.16h0Z"/><path class="a" d="M153.67,138.37a1,1,0,0,1,0,.18C153.5,139,153.56,138.67,153.67,138.37Z"/><path class="a" d="M155.15,143.49a6.19,6.19,0,0,0,.41-.59C155.48,143.27,155.39,143.56,155.15,143.49Z"/><path class="a" d="M164.08,140.79h0l0-.13Z"/><path class="a" d="M155.84,141.94a2.26,2.26,0,0,1-.28,1A3.53,3.53,0,0,1,155.84,141.94Z"/><path class="a" d="M144.42,124.16l.19.06a.17.17,0,0,0,0,.07Z"/><path class="a" d="M144.6,124.29l.19.14C144.69,124.39,144.61,124.35,144.6,124.29Z"/><path class="a" d="M145.18,124.7l-.39-.27C144.94,124.48,145.13,124.55,145.18,124.7Z"/><path class="a" d="M146.16,126.06l.05.17A.26.26,0,0,1,146.16,126.06Z"/><path class="a" d="M147.85,126.35a6.6,6.6,0,0,1-1.61,0l0-.13C146.44,126.49,147.51,126,147.85,126.35Z"/><path class="a" d="M155.47,126.43c-.49-.15-1-.28-1.47-.41.31-.07.72-.17.07-.44C156.06,125.76,153.58,125.79,155.47,126.43Z"/><path class="a" d="M153.58,129.62c.83-.13.06.25.12.33C153.15,129.93,153,129.92,153.58,129.62Z"/><path class="a" d="M158.25,130.61h.41C158.49,131.21,158.5,130.58,158.25,130.61Z"/><polygon class="a" points="154.93 136.44 154.81 135.81 155.24 135.61 154.93 136.44"/><polygon class="a" points="156.88 140.76 157 140.51 156.62 141.49 156.88 140.76"/><path class="a" d="M165.7,134.49a4.39,4.39,0,0,0-.27.47.92.92,0,0,1-.24-.61C165.21,134.21,165.36,134.14,165.7,134.49Z"/><path class="a" d="M169.89,145.71a1.36,1.36,0,0,1,0,1.41A13,13,0,0,1,169.89,145.71Z"/><polygon class="a" points="161.38 117.22 161.69 116.82 161.28 117.63 161.38 117.22"/></svg>
