<svg xmlns="http://www.w3.org/2000/svg" viewBox="0 0 402 246"><defs><style>.a{fill:#1d3d70;}</style></defs><path class="a" d="M24.92,210.34c-.6.07-1,1,0,1.52L26.6,211Z"/><path class="a" d="M29.49,217.24c1.62,0,3.64-.36,3.68-2.12-1.94.68-1.86-.05-4.11.79-1.12-.42-1.36-1.59-.87-2-.57.11-1.22-1.33-2.33-.85a4.27,4.27,0,0,0,4.29,3.26C30.32,216.89,29.74,217,29.49,217.24Z"/><path class="a" d="M141.7,234.92l-.76-.13A2,2,0,0,0,141.7,234.92Z"/><path class="a" d="M204.68,203.36c-.32.35-.34.63-.25.74C204.66,203.7,204.85,203.4,204.68,203.36Z"/><path class="a" d="M213.82,200.9c-.21,0-.38,0-.57-.05C213.48,201,213.71,201,213.82,200.9Z"/><path class="a" d="M141.7,234.92c.66.12,1.31.23,2,.32C143.75,234.69,142.65,235,141.7,234.92Z"/><path class="a" d="M45,220.65a2.79,2.79,0,0,0-1.08,0c.32.05.62.13.92.2A1.53,1.53,0,0,1,45,220.65Z"/><path class="a" d="M110.12,237.37h-.58a4,4,0,0,0-.49.67Z"/><path class="a" d="M85.8,236.93c.55.09.83-1.3,1.08-1.9a1.76,1.76,0,0,1-1.26.89A2.18,2.18,0,0,0,85.8,236.93Z"/><path class="a" d="M48.09,227.81l-.71-.05C47.57,227.76,47.87,227.81,48.09,227.81Z"/><path class="a" d="M127.5,237.46a1.07,1.07,0,0,0,.24.49A.79.79,0,0,0,127.5,237.46Z"/><path class="a" d="M62.35,42.81a2.12,2.12,0,0,0,0-.24C62.23,42.69,62.18,42.79,62.35,42.81Z"/><path class="a" d="M35.44,39l.34-.19a3.78,3.78,0,0,0-.2-.77Z"/><path class="a" d="M233.12,206.08,233,206C232.4,206,232.74,206.09,233.12,206.08Z"/><path class="a" d="M361,127c1,1-.13,1-1.09,1.17s-1.73.33-.19,1.57c-.08-.31.9-.56,1.6-.94S362.36,127.89,361,127Z"/><path class="a" d="M45.52,221c.3.09.6.19.9.31A3,3,0,0,0,45.52,221Z"/><path class="a" d="M359.67,129.74h0l.31.25Z"/><path class="a" d="M285.42,213a1.71,1.71,0,0,0-.52-.62C284.91,212.54,285,212.72,285.42,213Z"/><path class="a" d="M246.84,206.56l.9.38A3.73,3.73,0,0,0,246.84,206.56Z"/><path class="a" d="M305.67,210.46a2.08,2.08,0,0,0,1.42,0,.7.7,0,0,0-.23-.15A1.11,1.11,0,0,1,305.67,210.46Z"/><path class="a" d="M326.53,207.71a3,3,0,0,0-.44-.21l-.64.2Z"/><path class="a" d="M119.51,61.48a4.54,4.54,0,0,1-.24-1.53C119.09,61,116.37,60,119.51,61.48Z"/><path class="a" d="M44.75,221.39a.81.81,0,0,1,.77-.37c-.22-.06-.43-.11-.65-.15C44.74,221.05,44.66,221.23,44.75,221.39Z"/><path class="a" d="M305.6,199.35l3.17-.1A21.92,21.92,0,0,0,305.6,199.35Z"/><path class="a" d="M224.37,120.16l-.71,0A.83.83,0,0,0,224.37,120.16Z"/><path class="a" d="M318.06,197.89a4.41,4.41,0,0,0,1.91.68,1.39,1.39,0,0,0,.31-.41Z"/><path class="a" d="M119.28,59.93v0Z"/><path class="a" d="M98.58,54.63c2.84,1.19,2-1.13,3-1.87,3.63.9,1.08,1.9,1.89,3.25,2.33.42,4.6-.47,6.15.26,0,.33.26.56-.25.76,2.83-.42,6.52,2.75,9.77,2.33a1.14,1.14,0,0,1,.12.57,4.48,4.48,0,0,1,.75-2.46c1.24.57,2.81.14,2.7,1.44-.73-.42-1,0-1.54.13l1.51.2c.31,2.13-2-.38-2.59.77,2.69.73,6.21,1.11,7.72,2.68-.28.83-1.39.3-2.23-.08s-1.44-.6-.64.74c-.8-.72-1.61-1.45-2.45-2.15.83,3.52-1.6-1.1-1,2.49a14.84,14.84,0,0,0,3.81,2A10.13,10.13,0,0,1,128.87,68c1.29-.21.6-1.31,1.89-1.5,2.87,1.13,3,2.79,3,4.1a4.88,4.88,0,0,0,.15,1.83,2.69,2.69,0,0,0,1.8,1.34,15.11,15.11,0,0,1,2.43-.09c.81.13,1.55.69,2,2.23-.73.09-1.45.19-2.15.31a4.23,4.23,0,0,0,1.38,1.42,4.4,4.4,0,0,0,1.23.4,1.87,1.87,0,0,1,1,.6,3.67,3.67,0,0,1,.74,2c-1-.31-2-2.3-1.89-1.69,0,1.46.37,1.71,1,1.83s1.33.11,1.71,1l-1.41,1a55.84,55.84,0,0,1,2.55,5.43,16.34,16.34,0,0,1,1.12,6.22c-.48-.3-.94-1-1.55-.14a19.6,19.6,0,0,1-.4,4.55c-.29,1.67-.69,3.41-1.07,5.29a37.21,37.21,0,0,0-.8,6.2c0,.6,0,1.15,0,1.79l0,.49.07.57a9.33,9.33,0,0,0,.19,1.12c.17.71.36,1.42.58,2.11s.56,1.34.88,2a20.85,20.85,0,0,0,1.87,1.24,17.5,17.5,0,0,0,2,.84c.69.58,1.08,1.51,0,1.19a5.31,5.31,0,0,0,1.57,1.06c.25.07.29-.09.28-.31,0-.45-.14-1.11.8-.9l0,0a3.92,3.92,0,0,1,1.81,1.16c.18.34-.09.64-.89.6a17.58,17.58,0,0,0,3.08.24l.86,0c.26,0,.48,0,.72-.07.46,0,.91-.12,1.36-.2.87-.16,1.7-.35,2.48-.52s1.52-.36,2.29-.51c3.09-.57,6.18-.89,8.53-.34l-.83.52c3.59.21,3.61-3.44,7-2.45l-.59.33c7.62-.28,15.77-2.61,21.6-.8.94-2.21,7.32.47,7.67-2.43,4.24,1.34,3.07,1.88,8.81,3,1.51.23,2.37-1.7,4.33-1.88l-.09,1.53c.9-.49,1.8-.88,2.72-1.32l1.13,2c.59,0,1.2-.14,1.79-.17-.66-.2-1.38-.87-1.21-1.3a5.13,5.13,0,0,1,1.11,0,6.11,6.11,0,0,1,1.11.24,10.5,10.5,0,0,1,2.07.89,7.68,7.68,0,0,1,1.48,1.06c.34.37.53.68.5.88a54,54,0,0,1,6.45.57c-.34.53-1.41.38-2.31.47,3.66-.35,0,1.74,3.39,1.4-.26-.46.54-.78.72-1a9.77,9.77,0,0,0,2.82,2.09c.61.32,1.28.6,1.94.87s1.3.57,1.92.81l-1,.68c3.94,2.45,9.06,5.17,14.81,8.2-1.82-1.52-.43-2.87,1.24-2.18l-.06,1.78c1.52-.37-1.46-1.41,1.28-1.42,2,1.16.7,2.37-.83,2.25l1.48.37,1.5.29c0,.51-.78.49-1.19,1,.77-.23,1.82.62,3,1.42s2.56,1.36,3.65.79l0,.51a29.82,29.82,0,0,0,4.3.93c.64.11,1.25.21,1.84.28l1.71.12c1.11.06,2.18.16,3.29.18s2.28,0,3.58.09c.16-1.36,2.15-1.06,3.64-2.18l2.84.38c1,.12,2,.26,3,.37a28.62,28.62,0,0,0,6.33-.09c3-1,.75-1.28,2-2.27.38,1.25,4.63.53,2.54,1.75a66.31,66.31,0,0,0,12.6-3.31c-.77-.4-1.57-.5-1.25-1,1.11-.4,2.68.09,2.62.73l-.28.18c3.36-1.54,7.55-1.3,11.45-1l2.85.22a23,23,0,0,0,2.58.11,9.47,9.47,0,0,0,4.45-.91l-.29.13c.9-.23,1.81-.51,2.73-.72l2.77-.61c2.5.39-1.55.86.25,1.77a12.65,12.65,0,0,1,7.36.06l1.53.42c.51.14,1,.31,1.5.43a11.2,11.2,0,0,0,1.59.29,10,10,0,0,0,1.69.18c1.12,2.32,3.79,3.36,6.43,4.78a13,13,0,0,1,1.91,1.14,9.3,9.3,0,0,1,1.67,1.33,9.94,9.94,0,0,1,1.23,1.53,5.6,5.6,0,0,1,.52,1.71l.57-.71c1.41.32.32,1.36.54,2.09.54-.44.09-1.42.84-1.09,3.05,3.61,3.74,8.86,2.65,13.75A26.33,26.33,0,0,1,370.5,169a40.44,40.44,0,0,1-4.22,6.22,2.52,2.52,0,0,0-.65,1.89,8.05,8.05,0,0,0,.37,1.67c.29,1.1.25,2.22-2.26,3.18a18.93,18.93,0,0,0-.19-2.13,14.78,14.78,0,0,1-1.7,2.4,23.59,23.59,0,0,1-2.14,2.1,31.76,31.76,0,0,1-5.07,3.43c-3.61,2-7.47,3.58-11.12,5.75.35-.53.19-1,1-1.27a6.1,6.1,0,0,0-3.79.92c-1.26.65-2.26,1.51-2.15,2-1.29.24-.53-.77-1.44-1-1.86-.2-4,2.61-5.18,1.66-.2-.15.4-.49.7-.66-1,.86-5.37,1-4,2.15-3.3,0-6,1.79-8.66,1.35-.71.89-2.11,1-3.36,1s-2.33.16-2.46,1.28c0-1.14-1.49-1.39-3.18-1.24a11.18,11.18,0,0,0-4.61,1.32c.62-.74-1.83-.55-1.11-1.56-2.31.18-4.41.75-3.94,1.88-2.22-1.17-4.34-.62-6.25-.08s-3.63.85-4.84-.86A104.11,104.11,0,0,1,270.49,202c.44-2.23,6.94.38,6.83-2.06-5.92.52-9.58,2.12-15.38.75-1.47-.52,1-.84,1.56-1.15-6,.14-11.25-2-16.67-1.93.06-.2.67-.31,1.24-.37-1-.12-2.29-.86-2.4.17l1.05,0c1.31,1.84-4.75,2.05-5.15,2.77,1.23-1.22,0-1.7-1.1-2.26s-2-1.23-.15-2.65c-.71,0-1.67.25-1.69.95-.94-.46-1.14-.93.06-1.41-3.74-.45-2.74,1-6.09,0,.14-.48.89-.46,1.39-.92a10.2,10.2,0,0,1-6.8-.28c.25-.24,0-.71.88-.48a23.75,23.75,0,0,0-7.41-.19,60.34,60.34,0,0,1-7.95.34c.79-1.17.26-1.29-.61-1.33s-2,.13-2.41-.74a24.31,24.31,0,0,0-3.42,1.72c.59.09,1.15.18,1.7.3a10.75,10.75,0,0,0-2.06,1c-.61.45-1.19.91-1.73,1.37a17.28,17.28,0,0,1-3.12,2.5,20.53,20.53,0,0,1,1.28-2,26.43,26.43,0,0,0-3.9,4.05c.84-.59,1.75-1.15,2.66-1.67-.75,1.35-.24,1.71,0,2s.3.55-1.08,1.68c.32-.67-1.76,2-3.44,2.4h0a6.06,6.06,0,0,1-2.22,4c-.76,0-1.33-1.62-1.84-1.64.22,1-.71,2.06-1.63,3.23-.47.58-.91,1.2-1.3,1.76a3.12,3.12,0,0,0-.68,1.67,1.48,1.48,0,0,0-.77-1.42l.08,1.62c-1.14.45-1.39.41-1.75-.31-1.35,1-.78,1.31-.33,1.57s.82.54-1.19,1.33c.2-.27,0-.33.39-.88a52.56,52.56,0,0,0-4.91,3.48c-.79.57-1.59,1.15-2.4,1.67a12.31,12.31,0,0,1-2.67,1.13c-1.82-1.2,2.78-1.85.9-2.7a40.24,40.24,0,0,0-3.46,2.22c-1.18.75-2.41,1.48-3.63,2.22a25.53,25.53,0,0,1-3.81,1.9c-.64.28-1.29.53-1.94.75a18.48,18.48,0,0,1-2,.45l1-.05c0,1.37-1.1,1.32-2.44,1.14s-2.94-.5-4.16.38c.62-.33.56-1.62.44-1.29a28,28,0,0,0-5.69,1.34l-3.28,1.08c-1.18.36-2.45.74-3.83,1.11l.62-.76a24.26,24.26,0,0,0-4,0,37.87,37.87,0,0,1-4.15.13c-.66.72-2,.69-1.14,1.63-3.79-1.7-7.24-1.06-10.65-.37s-6.73,1.39-10-.21c.79,0,1.87-.61,1.25-.61l-5.6.64c.44,1.15.73.7,1.91,1.6a5.86,5.86,0,0,1-3.69,1.2c2.53-.75,0-1.85-1.1-2.51.18.36-.2.75-.11,1.11-2.91-2.09-.51,2.32-4.5.89l.22-.6c-1.5.28-2.9,1.05-4.52.84-.63-1.35,1.61-.59,1.74-1.68-2.26,0-4.55,2.42-6.55,1,1-.34,2.36-.29,3.33-.62-2.18-1.66-2.44-1.27-4.08-1.58l.16,0c-1.26-.28-2.52-.57-3.77-.89l.94.48a4.89,4.89,0,0,1-4.51,1.64c-1.56-.08-3.22-.39-5.23.59,3.89-1.84.72-1.19,1.14-2.68-.92-.5-2.33-1.09-1.88-1.48-1.89,1-2.82-1.29-5.52.2,0-.48-1.87-.28-1.31-1.44-2.32,0,.42.92.15,1.5-1.87.55-3.89-.25-6.06-1a18.09,18.09,0,0,0-3.39-1.07,9.44,9.44,0,0,0-1.85-.19,9.55,9.55,0,0,0-2,.15,22.08,22.08,0,0,0-5.07.53,16.26,16.26,0,0,1-4.9.28c-1.1-1.14,1.64-1.37,1.64-1.37a11.08,11.08,0,0,0-1.41-.82,9.23,9.23,0,0,0-1.35-.59,12,12,0,0,0-2.95-.57c.56-.25.27-.74-.13-1.47-1.61-.45-1.7,1.23-3.48-.3A7.14,7.14,0,0,1,44,220.67a29,29,0,0,0-3-.33,16.2,16.2,0,0,1-3.11-.45c-.1-1,1.64-.57,2.54-.83-1.13-.24-2.48-.82-3.77-1.1a4.47,4.47,0,0,0-3.09,0c.35.38.72.74,1.08,1.11-.78-.33.18-1.21.84-1.15,2.22,0,2.29,1.71,2.18,2.21l-1.44-.4a2.07,2.07,0,0,0,.92,1.76,4.16,4.16,0,0,0,1,.49,8.48,8.48,0,0,0,1.22.25c1.73.25,3.71.28,5,.9-.65.52-1.28,1-1.93,1.46,1.16-.1,2.35-.34,3.5-.52.42.73.46,2-1.06,1.76,1.7,1.7,2,0,3.44,1.67.14.24,0,.3-.19.32.74,0,1.49,0,2.23,0-.53.3-.1,1.51-1.27.84a7.78,7.78,0,0,0,4.57,1.22c1.3,0,2.29-.09,2.8.86l-.34.05c5.34.55.87-1.33,5.09-2.21q.9,2.09,1.87,4.2l.8-1.4c.52.15,1.56.47,1.26,1,2.18-.65-.22-.72,1.1-1.47,2.37,1.77,7.21.45,7.49,2.88,1.08-1-2.38-1.18.5-1.66.49,2.67,3.25,0,5.5,1.35-.85,1.29-3.06.37-.78,1.78,1.66-2.16,4.63.94,6.71.6.21-1.82,4.45-.45,7.86-1-.12.3,1.47.62,3.48.93s4.44.62,6,1l-.1.31c.63-1.83,3.88-1.45,6.24-1.82-.1,1.1-.52,1.53-1.81,2h2.23a3.94,3.94,0,0,1,2.66-1.11l-.56,1.37c3-.07,6-1.62,9.78-.76.19-1.29-3.07-3.5.92-4.44.16.69.33,1.87-.71,2.17.34-.09,1.21-.6,1.91-.31L122,235.48c1.75.48.89-1,2.27-.91,0,1,1,.69.87,1.47-.35.11-1.22-.38-1.75,0,1.57.15,3.49.68,4.15,1.4-.16-.56,0-1.33,1.1-1.5,3-.19,1.06,1.14,2.83,1.59.69-.73,2.64-.14,2.6-1.61.87-.05,1.08.63,1.44,1,1.5-.69,7.22-.79,5.33-2.18l-.4-.07c.07,0,.16,0,.24-.09h0a21.67,21.67,0,0,1,7.7-1.07c2.63-.12,5.32,0,7.73-.91l.09.48c2.86-1.08,6.51-1.86,8.29-3.41.84-.27,2.27.22,2.08.9,1.06-.54,1.6-1,2.31-1.27a13.33,13.33,0,0,1,3.29-.81c-1.89,1.67,1,.42-2,1.47,1.5-.34,2.48-.42,3.42-.7a6.24,6.24,0,0,0,3-2.1c-.51,1.65,2.8.42,4-.58l-2.37.15a17.61,17.61,0,0,1,2.08-1.11l2-1,.12,1.86a10.49,10.49,0,0,0,4.21-2.09,31.7,31.7,0,0,0,3-3.24l.68-.79.63-.81a10.78,10.78,0,0,1,1.34-1.43,6.49,6.49,0,0,1,1.6-1.07,8,8,0,0,1,.94-.37,7.59,7.59,0,0,1,1-.3c.19-1-.57-.53-1.35,0s-1.69.84-1.59-.16c.3-.22.62-.41.94-.6s.64-.38,1-.55a18.74,18.74,0,0,1,2-.88,10.74,10.74,0,0,0,2.81-1.23,4,4,0,0,0,1.8-3.5,4.11,4.11,0,0,1,1.53-3.48c-.74,0-2.33-.7-.8-3.22a2.4,2.4,0,0,1,2.66-.66,1.19,1.19,0,0,1,.51,1.68c-.38.41-.7.5-.83.33-.4.71-.9,1.66.22,1.38l-.22-.63c.64-.23,1.5-.9,2.22-1.26s1.28-.46,1.31.12c.87-1.27,0-1.23-1.16-.73,1.34-.53,2.17-.92,3.1-1.37a7.29,7.29,0,0,1,1.49-.55,6.27,6.27,0,0,1,1.86-.21c-.47-.23-1-.83-.58-.92,2.19,0,2.69-.18,3-.62s.44-1,2.12-1c1.82,1.08-.84,2.05,2.51,1.67,1.91.91.15,1.6-.64,2a5.47,5.47,0,0,1,4,.68c1.15.63,2.1,1.41,2.93,1.74l-1.69.06a7.69,7.69,0,0,1,2.58.39l-.61-1.39c.89.45,1.7.69,1.55,1.15,1.2-.47-.24-2.12,2-2.57a6.79,6.79,0,0,0,2.52.83c.93.21,1.71.51,1.74,1.33-4.11-1.68,0,1.66-3.62.9a6.37,6.37,0,0,1,2.54.74c.1.21-.24.27-.54.28,3.76,2.48,2.36-1.16,6.61,0-.76.72.59,1.87,1.34,1.85-1.74-.43-.47-1.63,1.26-1.92,2.58,1.34,3.09.2,4.51.58l-1.58-.66c.75-.75,2.09-.35,4.05-.23,0,.71-1.83.11-1.21.54,1.22-.55,2.33.12,3.55.82a6.34,6.34,0,0,0,4.13,1.21c1.29.83-.14,1.67,1,2.28,3.56-.66,3.5,1.77,7.21,1.28-.89-1.3-1.09-1,1.55-1.9-2,.08-4,.07-5.94.06l4-1.19c-1.74-.25-3.79.22-4.81-.13,1.92-.71,1.69-.44,1-1.54,1.06,1.06,2.28,1,3.55.82a5.58,5.58,0,0,1,3.9.31l-.41,2.93c2,.91,4,.68,6,.4a21.12,21.12,0,0,1,7-.15l-1.73-.6c.8-1.15,3.38.05,5.16-.41-.19,1,.9,1.36,1.65,2-.08-.73,4,.16,4.52-1.85l2.45,1.28a6.35,6.35,0,0,0,4.68-1.27,7.16,7.16,0,0,1,4.48-1.5c-1.21,1.14.76,1.76-2,2.64,1.42,0,2.71,0,2.69-.63.87.55,3.82-1.58,5.19-.76.55-.49.66-1.54,2.23-1.61.19.18,0,.48,0,.48,0-.48,2.4-.9.92-1.85,2.3,1.36,5.31.87,8.23.39s5.72-1.14,7.81-.22c1.49-.45,3.13-.93,4.73-1.37s3.18-.93,4.53-1.29c-.1.33.11.48-.43.5,4,0,1.62-3.28,6.09-3.46,1.3.44.81.81.17,1.1s-1.42.46-.66.56c.74,1.49,2,1,3.52.24s3.18-1.82,4.94-1.48l-.63.44c1.3.13,2.53-.71,3.87-1.7.66-.52,1.35-1.09,2.09-1.6a12.4,12.4,0,0,1,2.4-1.41s0,.34.21.45c1.61-2.65,5.51-5.59,8.05-8.2-.13,1.68-.93,1.52.41,2.14.61-.57.2-.91-.06-1.39s-.38-1.09.73-2.25c1.27-.08,3.37-1.27,4.59-.5-.77.73-1.51,1.49-2.3,2.19a2.74,2.74,0,0,0,2.6-1.44,10.77,10.77,0,0,1,1.78-2.44l.42.68a10.29,10.29,0,0,0,2.29-4.69,16.54,16.54,0,0,1,2.05-4.89l-.77.18c-.19-1.7.31-2.05.88-2.42a2.15,2.15,0,0,0,1.06-2.32c.72,0,1.42,0,2.14-.06,0-.49.11-1.17.18-2s.06-1.71.09-2.64c0-1.89-.05-3.92-.06-5.57,1.34,2,1.17,6.15,1.13,8.84a13.64,13.64,0,0,0,.54-1.79,16.14,16.14,0,0,0,.44-2.26,16.44,16.44,0,0,0,.1-2.14,2.83,2.83,0,0,0-.39-1.41c0,.39.16.85.19,1.3a2.09,2.09,0,0,1-.26,1.23,29,29,0,0,1-1.54-9.2c1.92.25,2.12-2.31,1.55-5.3-.21-1.5-.75-3-1-4.49a7.36,7.36,0,0,1-.28-3.73c-.63-.71-1.2-1.43-1.74-2.16l-.4-.55-.44-.52-.86-1.06c-1.07-1.49-2.34-2.79-3.55-4.25a29.62,29.62,0,0,0-9.45-6.86c.35,1,.36,1.43.21,1.55s-.48,0-.89-.16c-.81-.31-1.89-.72-2.25.79-1.69-.54-2.33-.7-2.41-1-.74-.56-1.5-1.17-2.29-1.69l-2.4-1.56c-1.08-1.19,1.83-.23,1.85-.93-1.94-.63-2.29-1-2.46-1.45s-.15-.91-1.42-1.57c.34,1.19-1.67,1.23-3.88.56,1,.62,2,1.19,3,1.87a8.07,8.07,0,0,1-3.18-.16,7.52,7.52,0,0,1-1.89-1,6.09,6.09,0,0,0-1.93-.94,5.63,5.63,0,0,0-1.38-.16,8.76,8.76,0,0,0-1.83.3l1.81-.91c-1.46.24-4.12.12-6.74.44s-5.18,1-6.41,2.36c-.52-.3-1.27-1.07-.06-1.41-6.71.33-13.81,4.64-18.86,4l.34-.82c-1.11.41-1.76,1.72-3.32,1.22,0-.32.34-.81-.2-.77-.57.37-2.81,1.78-4.39,1.59l1.16-1a15.87,15.87,0,0,0-4,.51,21.63,21.63,0,0,0-3.26,1.24c-1,.46-2,1-3.07,1.44a17.37,17.37,0,0,1-3.38,1c-.15-2.19-4.7-2.65-6.85-3.09l.08-.32c-1.63,0-3.07-.13-4.5,0s-2.73.1-4.1.25-2.67.1-4.06.12l-2.09-.15a13.63,13.63,0,0,1-2.18-.31,10.24,10.24,0,0,0-2.85-2.42c-1.18-.79-2.57-1.62-4.06-2.55a70,70,0,0,1-9.06-6.44c.7.89-1,1.38-2.2,1a6.64,6.64,0,0,0-2.68-1.08c-.89-.25-1.5-.51-.93-1.37l.53.28c-.13-1.15-1.07-2-2.29-2.67a19.74,19.74,0,0,0-2-1c-.7-.26-1.4-.48-2-.72l-1.33,2.33a10.48,10.48,0,0,0-2.3-1.93,12.69,12.69,0,0,0-2.85-1.22,26.87,26.87,0,0,0-3.12-.79c-1.06-.14-2.13-.24-3.17-.34-2.08-.23-4.05-.23-5.71-.47a10,10,0,0,1-2.24-.58,4.29,4.29,0,0,1-1.65-1c-1.7.58-3.75.37-5.38,1.06l.13-1.42a47.67,47.67,0,0,0-12.4,0l1.08-1.08c-3.16.11-3.69,4.29-6.48,4.63l-1-2c-5.36.49-10.94-.71-15.89,1.81a1.16,1.16,0,0,1,1-1.13c-2.5.25-9.67-.3-8.45,2.48-.28-1.87-5.36.42-8.07,1.49l.3-1.43a26,26,0,0,1-2.34,2.08,8.36,8.36,0,0,1-3.06,1.14c-.7-.17-.64-1.09.28-.78a1.94,1.94,0,0,0-2,.3,1.16,1.16,0,0,1-1.71-.09,4.57,4.57,0,0,0,.94-.64c-.32-.1-.56-.18-.76-.23-.58-.18-.9.24-2,.31-.35-.06-.57-.38-.81-.7A2.45,2.45,0,0,1,151,112a1.79,1.79,0,0,1,.36-1.07,1.7,1.7,0,0,1,.75-.64,2.17,2.17,0,0,1-1.22-.86,2.23,2.23,0,0,1-.28-1.9c.49-.16.76.36.89.62a13.4,13.4,0,0,0,.26-5,6.3,6.3,0,0,1,.79-4.31,1,1,0,0,0,.91-.4c-.7,3.7-1.2,6.3-1.24,6,1.25.19,1.92-2.45,3.32-.05a35.94,35.94,0,0,1-1.07-4.5,13.56,13.56,0,0,1,.1-5.35,1.93,1.93,0,0,1,.48-.41l.11.36A3.89,3.89,0,0,0,155,92.3a10,10,0,0,0,.28-2.85c.53-.24.56-1.28.4-2.47s-.58-2.48-.73-3.34c-1.33.45-1.7-1.69-2.27.57,0-.28.24.26.52,1.33a2.72,2.72,0,0,0,.29.66l-.15-.08c.15.52.23,1.15.35,1.84l.17,1.09.09,1.19a11.2,11.2,0,0,1-1-2,4.67,4.67,0,0,1-.11-2.44l-2.71-1.63a11.77,11.77,0,0,0,1-4.59c.06-1.55.07-2.95.45-3.48a47.06,47.06,0,0,0-5-6.56c-1.89-2-4-3.38-6-3.5-1.18-.72-.56-1.63-.66-2.28.78.33,1.4,1,2,1.09-.61-.38-1.28-.92-2-1.46a27.06,27.06,0,0,0-2.22-1.61c-1.48-1-2.88-1.55-3.68-1-2.22-2.62,2.55-.29-1.41-2.71l.84-.11c-3-3.83-6.94-4.67-10.73-5.37s-7.63-1.34-11.36-4.94c.53.48.8.7.8,1-4.74-2.88-10.11-4.65-15.49-6.41s-10.74-3.45-15.68-6.23c-2.91-1.31-3.54-.28-5.6.15L75,34.61l-3.56,1A6.58,6.58,0,0,1,68.22,35c-.5-.22-1-.47-1.49-.75l-1.52-.78a12.38,12.38,0,0,0-3.36-1.24,8.58,8.58,0,0,0-4.12.38l.73,1.06c-2.13-.31-6.71.57-6.41-.55-.22.2-.64,1.1-1.51.64L50.42,33c-.87.31-1.73.55-2.57.91L45.35,35c-2,0-2-.72-2.26-1.44s-.67-1.29-3.74-.63a7.43,7.43,0,0,0-.87.41c-.3.19-.61.4-.91.63a15.21,15.21,0,0,0-1.68,1.44c-1,1-1.5,1.81-1,1.92.87-.25,2.33-.26,2.64.47l-1.73,1a11.26,11.26,0,0,0,.8,3.35c.56,1,1.65,1.65,3.89,1.75A25.82,25.82,0,0,1,43,41.74l1.2.88-2.41.65C43.4,44,44,42.86,44.88,42a2.31,2.31,0,0,0,1.45,1c.83-.87,1.69-1.76,2.6-2.65.45.87-1.09,1.95.91,2.24,1.29-1.13-1.56-1.93.72-2.78,1.57,1,1.15,1.83,2.83.82.26.61-.1,1-.74,1.29a7.81,7.81,0,0,1,2.65-.62,3.1,3.1,0,0,0,2.16-1c.76.7,2,.7,3.15.79s2,.38,1.76,1.45a7.93,7.93,0,0,1,4.37-1.26c-3,2.15,5.31,1.08,4.05,3.8,2.4-1.94,7.08.57,10.81.39-.25.12-.73.38-1,.17,1.84.75,2.17,1.61,3.24,2.44.85-1.78,4-1.24,6-1.78C91.5,48.94,87.62,48,87.75,50c.41-1.55,4.55-.06,4.22-1.58,1.37,1.77,1.33,1.11,1.67,3,1.18-2.17,1.79.23,3.8-.58,2.13,2.14-.18,2.38,2.91,2.82C101.4,54.84,98.58,54.63,98.58,54.63Zm47.26,39.89h0c0-.54.06-1,0-1.29C145.88,93.51,145.83,93.87,145.84,94.52Zm-.91,5.81c.18-.74.36-1.65.52-2.6.51-.13,1,.18.83.78C146,98.13,145.49,99.48,144.93,100.33Zm10.43-13.1c.36,1.14.14,1.56-.13,1.75-.09-.55-.23-1.17-.44-2a1.6,1.6,0,0,0-.19-.11A1.61,1.61,0,0,1,155.36,87.23Z"/><path class="a" d="M153.19,85.54a2.5,2.5,0,0,1-.19-.43,5.28,5.28,0,0,0-.18.71l.51.3Z"/><path class="a" d="M140.8,234.77l.14,0a.75.75,0,0,1-.3-.18C140.74,234.67,140.74,234.72,140.8,234.77Z"/><polygon class="a" points="218 120.05 218.02 119.69 217.5 119.97 218 120.05"/><path class="a" d="M106.89,231a.84.84,0,0,0-.44-.36C106.47,230.68,106.66,230.81,106.89,231Z"/><path class="a" d="M92.42,230.31l-2-.58A12.88,12.88,0,0,0,92.42,230.31Z"/><path class="a" d="M81.42,228.91a1.93,1.93,0,0,0-.27.58h0Z"/><path class="a" d="M248.07,197.21a2,2,0,0,0,.42,0C249.51,197.17,248.84,197.14,248.07,197.21Z"/><path class="a" d="M196.59,204.51a10,10,0,0,1,.57-1.78C196.46,203.42,196,204,196.59,204.51Z"/><path class="a" d="M305.25,199.35v0l.35,0Z"/><path class="a" d="M198.87,200.77a4.47,4.47,0,0,0-1.71,2A8.49,8.49,0,0,0,198.87,200.77Z"/><path class="a" d="M36.47,216.53l-.43-.29a.33.33,0,0,1-.16.17Z"/><path class="a" d="M35.88,216.41l-.59-.11C35.52,216.42,35.73,216.51,35.88,216.41Z"/><path class="a" d="M34.07,216a9.43,9.43,0,0,0,1.22.28C34.91,216.12,34.49,215.83,34.07,216Z"/><path class="a" d="M49.22,222.71l.32-.43A.85.85,0,0,0,49.22,222.71Z"/><path class="a" d="M53.42,223.86c-1-.43-2.18-1.75-3.63-1.91l-.25.33C50.38,221.83,52.23,224.38,53.42,223.86Z"/><path class="a" d="M70.4,233.87l-3.72-1c.57.63,1.33,1.49-.43,1.35C70.81,236.58,65.46,232.89,70.4,233.87Z"/><path class="a" d="M82.14,236c-2.08.07,0,.79-.18,1.08C83.31,236.65,83.63,236.55,82.14,236Z"/><path class="a" d="M167.52,230.8l.19,1.28C169.21,231.4,167.57,231.61,167.52,230.8Z"/><polygon class="a" points="179.56 218.27 177.93 218.31 177.91 219.68 179.56 218.27"/><polygon class="a" points="192.77 220 192.32 220.63 194.19 218.39 192.77 220"/><path class="a" d="M323,209.58l-.73-1.48C321.29,208.55,321.34,210.33,323,209.58Z"/><path class="a" d="M378,178.65a3.19,3.19,0,0,0,2.19-3.15,11.25,11.25,0,0,1-.61,1c-.23.3-.47.58-.69.84A3.92,3.92,0,0,0,378,178.65Z"/><polygon class="a" points="236.36 110.7 237.81 110.65 236.53 110.43 235.23 110.31 236.36 110.7"/></svg>