<svg xmlns="http://www.w3.org/2000/svg" viewBox="0 0 402 246"><defs><style>.a{fill:#f29b3c;}</style></defs><path class="a" d="M136.57,90.89c0,.18-.07.58,0,.51l.14-.67Z"/><path class="a" d="M137.13,92.23a3.46,3.46,0,0,0,.33-1.52c-.18.64-.18.36-.38,1.13-.11.07-.16-.23-.12-.48-.05.17-.14-.17-.24.25.08.55.25.59.46.17A1.3,1.3,0,0,1,137.13,92.23Z"/><path class="a" d="M146.84,94.43l-.05-.09A.19.19,0,0,0,146.84,94.43Z"/><path class="a" d="M152.84,95.66c-.05,0-.08.08-.09.14A.18.18,0,0,0,152.84,95.66Z"/><path class="a" d="M153.75,96.57s0,0-.05-.06S153.73,96.62,153.75,96.57Z"/><path class="a" d="M146.84,94.43l.13.23C147,94.44,146.91,94.49,146.84,94.43Z"/><path class="a" d="M138.66,90.72a.5.5,0,0,0-.11.17l.09-.06Z"/><path class="a" d="M144.1,94.64h0c0,.08-.05.17-.08.27Z"/><path class="a" d="M142,94.5a3.43,3.43,0,0,0,.18-.8c-.06.24-.1.35-.15.39S142,94.33,142,94.5Z"/><path class="a" d="M138.88,93.12l-.06.08S138.86,93.15,138.88,93.12Z"/><path class="a" d="M145.55,94.94a1.87,1.87,0,0,0,0,.21A1.48,1.48,0,0,0,145.55,94.94Z"/><path class="a" d="M203.13,103.86l0,.1S203.15,103.87,203.13,103.86Z"/><path class="a" d="M204.47,107.38l0,0-.11.3Z"/><path class="a" d="M155.51,97.62v0C155.44,97.66,155.47,97.66,155.51,97.62Z"/><path class="a" d="M172.71,100.56c-.07-.56.47-.58.31-1.22C173,99.57,172.55,100.17,172.71,100.56Z"/><path class="a" d="M138.71,90.8h.08A.06.06,0,0,0,138.71,90.8Z"/><path class="a" d="M173,99.34h0l0-.06Z"/><path class="a" d="M159.89,98a2.23,2.23,0,0,0,0-.26A1.08,1.08,0,0,0,159.89,98Z"/><path class="a" d="M156.81,96.63l.07.09A.25.25,0,0,0,156.81,96.63Z"/><path class="a" d="M161.71,97.51s0,.13.1.06V97.5C161.77,97.57,161.74,97.61,161.71,97.51Z"/><path class="a" d="M163.44,97.84a.45.45,0,0,0,0-.12l-.06,0Z"/><path class="a" d="M197.87,102.4c0,.17-.05.35-.08.53C197.89,102.52,198.18,102.47,197.87,102.4Z"/><path class="a" d="M138.63,91.05a.46.46,0,0,1,.08-.25l-.07,0A.85.85,0,0,0,138.63,91.05Z"/><path class="a" d="M162.62,93l.27.13A.53.53,0,0,0,162.62,93Z"/><path class="a" d="M185.5,98.82l.08,0S185.54,98.76,185.5,98.82Z"/><path class="a" d="M163.74,93.2a1.2,1.2,0,0,0,.08.43,1,1,0,0,0,.06-.14Z"/><path class="a" d="M197.78,102.93h0Z"/><path class="a" d="M200,102.2c-.25-.1-.36.67-.55,1.07-.37.11,0-.58.05-1-.25.13-.62.75-.75.68a.71.71,0,0,1,.09-.32c-.39.52-.61-.17-1.08.49a1.23,1.23,0,0,1,0-.2,9,9,0,0,1-.28,1c-.12,0-.36.39-.25-.1.06,0,.13-.15.21-.29l-.19.16c.11-.72.24-.18.41-.69-.31.15-.77.63-.89.38.18-.69.5-.09.45-.77l.2.35c.12-1.13.14.13.31-1.07-.31-.31-.52.21-.83-.11-.2.35-.15.56-.35.91-.74.51.12-1.82-.55-1-.24.42-.54,1.26-.68.72l.33-.73c-.33-.19-.54,1-.76.4.16-.28.36-.16.34-.27-.06-.68-.31.38-.5.32l.17-.69c-.41,0-1,.35-1.44.34a1.1,1.1,0,0,0,.18-.62c-.63.17-1.11-.43-1.51-1l-.37.52c-.05,0,0-.29.07-.39-.13-.28-.12.37-.28.57-.13,0,0-.38.07-.53-.5.39-1.33.77-1.52,0l.13-.15c-.23-.32-.68,1.11-.79.48l.08-.09c-.56-.44-1.41-.11-1.65-1.12-.33.82-.52-.55-.89.61-.2-.68,0-.86-.44-1.4-.13-.09-.41.68-.61.76l.16-.62-.41.59.09-.78-.21.12c.06,0,.06.31,0,.49-.32.21-.48-.6-.4-.92l-.73.36a1.09,1.09,0,0,1,.32-.44c-.48.55.12-.66-.32-.17a1.76,1.76,0,0,1-.16.49.45.45,0,0,0-.65-.4l.15-.42c-.4-.22-1,0-1.46-.17.13.25-.11,1-.27,1l.11-.67c-.19.38.09.29-.23.73-.16-.12.07-.78.23-1l-.28.17c0-.2.12-.29.19-.54-.19.39-.21-.75-.53-.08l0-.2c-.49-.13-.77,0-1.17,0-.16.57-.28.4-.51.83-.25-.25-.47-.78-.83-.82-.32.22-.2.47-.39.78.11-.53-.26-.56,0-.89a2,2,0,0,0-1.21.26c0,.23.05.33,0,.5s-.17-.27-.09-.51l0,0c-.79.63-1-1.85-1.77-.89l0,0-.64.45c-.21-.15.23-.36.14-.72-.74.74-.83-.32-1.41.15,0-1.61-1.24-.17-1.49-1.25l0,.37c-.2.32-.1-.24-.17-.35,0,.29.06.36-.06.54-1.11.2-2-1-3-1.54-.36-.17-.61,1.83-.91.87l.28-.65c-.94.64-1.58-.36-2.48.18.08-.14.12-.35.19-.33-.06-.52-.59-.14-.67.26-.11-.07.05-.37,0-.58s-.52.54-.51,0a.26.26,0,0,1,.11-.18c-.15.21-.48-.16-.49.42-.23-.32-.59.15-.75-.23-.27.6-.43-.4-.65.48.2-.91-.36-.84-.62-.43.11-.27-.1-.32,0-.7-.21,0-.43.12-.48.6-.18-1.18-.92.75-.88-.71a6.43,6.43,0,0,1-1.91.74c.18-.92.62,0,.77-1-.59.28-1,1-1.51.71-.11-.15.15-.39.22-.54-.59.29-1-.25-1.55.17a.55.55,0,0,1,.14-.23c-.09,0-.19-.17-.25.25l.11-.1c0,.63-.58,1.21-.64,1.53.35-1.18-.41-.37.09-1.86a.88.88,0,0,0-.22.54c-.07-.09-.08-.26.07-.57-.37.18-.32.64-.62.59a3.14,3.14,0,0,1,.18-.51c-.22.37-.43.74-.66.53,0-.12,0-.29.11-.27-.44,0-.9.94-1.31.48.28-.87-.12-.32,0-1.09l-.29.19,0,.38c-.22,0-.5.49-.66.21l.22-.29-.44.08.19.32c-.29.37-.13,1-.39.72.07-.07-.22,0-.27-.51h0c-.14.23-.3.47-.43.25s.16-.84.16-1c-.21.63-.55.1-.79.76a2.5,2.5,0,0,0,.13-.64l-.17.51a.79.79,0,0,1,0-.58c-.29-.15,0,1-.35.51,0,0,0-.12.11-.19-.34-.27-.77.23-1.07-.08,0-.79.33-.15.3-.81-.51.06-1.14.77-1.59.53l.07.1c-.21,1.08-.28-.59-.59-.11a1.56,1.56,0,0,0,.13-.47c-.3-.22-.7.18-1.24.45l.1-.27c-.16-.28-.49-.21-.68-.37-.1.28-.21.21-.19.63-.44-1.68-1.33.69-1.73-.7.07,0,.19-.23.14-.24l-.52.2c0,.49,0,.3.09.68-.1.28-.26.48-.38.47.26-.29.09-.77,0-1.05,0,.15,0,.31-.06.46-.15-.88-.16,1-.44.34l.05-.25c-.14.12-.3.43-.43.35,0-.56.17-.25.23-.7-.2,0-.51,1-.62.43.1-.14.22-.13.32-.27-.12-.68-.16-.51-.29-.63h0l-.29-.33.06.19c-.41,1.41-.53.2-1,1.1.43-.85.12-.51.21-1.13-.06-.18-.17-.39-.11-.56-.22.48-.22-.43-.52.28,0-.2-.17,0-.08-.54-.22.13,0,.36,0,.61-.39.65-.65-.92-1.2,0-.43.35-.57,1-1,1.32a1.09,1.09,0,0,1,.18-.72c-.16-.32-.32-.28-.53-.06a1.06,1.06,0,0,0,0-.56c-.15,0-.17.72-.34.41a7.32,7.32,0,0,1,.23-.8c-.19.17-.4.53-.6.69a1.55,1.55,0,0,1,.25-.75,1.15,1.15,0,0,0-.68.82l.11.21c-.07,0,0-.48.08-.58.22-.41.23.22.22.43l-.14.11c0,1.2.53-.14.79,0l-.2.85.34-.69c0,.23,0,.72-.12.83.14.45.2-.29.31.2a.2.2,0,0,1,0,.15l.21-.24c-.05.18,0,.61-.13.48.27.53.59-.59.64.07l0,0c.48-.24.11-.63.53-1.33l.06,1.58.11-.63s.13.09.09.34c.22-.42,0-.28.14-.68.16.6.65-.2.59.81.13-.47-.18-.39.1-.7-.05,1.09.3-.15.44.37-.12.55-.28.23-.13.75.23-.93.37.26.56.1.09-.75.41-.27.73-.49,0,.25.49.48.72.78l0,.12c.14-.75.4-.57.62-.7a1.63,1.63,0,0,1-.25.81l.19,0a.63.63,0,0,1,.28-.43l-.12.56c.26,0,.59-.61.87-.19.08-.52-.08-1.5.31-1.81a2.31,2.31,0,0,1-.17.88s.13-.22.17-.09l-.19.46c.12.23.12-.39.24-.33-.06.41.05.3,0,.62,0,0-.08-.18-.15,0a.89.89,0,0,1,.27.66c0-.23.07-.54.17-.58.26,0,0,.5.14.73.1-.28.22,0,.31-.57.07,0,.05.3.05.46.17-.25.62,0,.56-.66l0,0,0,0h0c.5-.55.84.46,1.29.26l0,.2c.29-.2.58-.06.83-.47.07,0,.12.39,0,.63.22-.13.27-.35.5,0-.24.33,0,.32-.23.23.22.21.23.55.58,0-.16.51.1.69.24.55l-.13-.4a.4.4,0,0,1,.37.07l-.16.67c.39.91,1.13-1.27,1.31.18.21-.46-.23-.38,0-.92.22.12.32,1.14.39,1.15.26.43.45-1,.75-.64,0-.25,0-.91.34-1.1.22.13.13,1.07-.05,1.24-.06,0-.07-.07-.06-.15a.38.38,0,0,0-.15.44l.07-.24c.07.27.4.29.26.68a.35.35,0,0,0,0-.53c.25.39.47.07.74.36,0-.14,0-.43,0-.42.41.37.27-.43.6-.49.11.4-.2.88.15.62.15.28-.06.65-.17.84.36-.43.48.39.63.51l-.18.17a.25.25,0,0,1,.25-.08v-.5c.08.1.15.12.12.32.14-.31.06-.82.31-1.23.07.27.4-.21.33.45-.33-.28-.07.65-.39.7.07-.06.14-.05.22,0a.27.27,0,0,1-.07.17c.25.63.28-.71.64-.63-.1.35,0,.7,0,.63-.14,0,0-.61.21-.87.19.32.29-.17.41-.12l-.12-.15c.11-.36.22-.29.4-.38,0,.28-.18.17-.14.3.29-.61.29.73.62.34.07.27-.11.69,0,.87.37-.42.22.55.58.22,0-.51,0-.39.26-.83l-.55.26.44-.66c-.15,0-.36.25-.44.16.22-.38.18-.26.18-.68.08.77.47-.35.62.19l-.22,1.2c.25.61.73-.51,1.13-.12l-.11-.24c.15-.46.29,0,.47-.18a2.28,2.28,0,0,0,0,.83c0-.3.32.08.51-.72l.11.57c.32.29.62-1.07,1-.87-.19.42-.08.73-.37,1,.11,0,.2.12.26-.16,0,.27.42-.48.46-.08.08-.17.18-.59.3-.53a.81.81,0,0,1,0,.2c0-.2.26-.23.23-.7.12,1.33,1,.1,1.13,1.25a2.49,2.49,0,0,1,.86-.14c0,.11,0,.2-.08.15.25.43.42-1.12.71-.63.05.69-.27.31-.2.58-.21,1.34.47-.09.56.73l-.07.07c.1.48.56-.42.84-.26a.71.71,0,0,0,0,.2,1.77,1.77,0,0,1,1.12-.9c-.2.49-.19.24-.24.78.14,0,.13-.85.43-.94a3.45,3.45,0,0,1,.07,1.15l-.25,0c0,.75.32,0,.42.2l-.08.31c.4,0,.57-.82,1-.68v-.25c.39-.74.09.49.44,0l-.1.81a4.42,4.42,0,0,1,1-.76,4.86,4.86,0,0,1-.91,1.12.57.57,0,0,0,.66-.34c-.07.07-.19.25-.22.11.31-.59.62-.85.91-.77-.39,1.54.67.55.61,1.8.64-.45,1,.48,1.57.52.06-1.25.18,0,.43-1.24.15,0,.2,0,.2.07l.25.83c0,.39-.2.25-.25.53.28.16,0,.55.13.93.06-.46.25-.61.39-.41l-.11-.62c.57-.56.12,1.12.7.56l-.23.36c.28-.18.81.2,1.25-.74,0,.15,0,.5-.14.57.49.27,1.42-.78,1.68-.07l-.12.29c.12-.06.31-.52.36-.19,0,.13-.12.29-.07.32s.38-.46.47-.26l-.19.32c.41.52,1-.64,1.46-.74a1.47,1.47,0,0,0,.27,1.47l0,.12c.56.26,1.19-.48,1.82-.68.09,1,1,.7,1.45,1.38a1.2,1.2,0,0,1,.32-.75c.08.21.51-.52.28.29l0,0c-.12.82.2.67.4.75l.32-1c.11,1.69,1.55-.18,1.47,1.28.2-.23.36-.18.56-.41l-.16.57a1.22,1.22,0,0,0,.95.35l-.2.38c.23.1.77-1.55,1-1.52l-.17.87c.44.1.66,1,1.31.33,0,.13-.12.37-.2.38.19.08.62.8.88-.38-.21.76.43.21.76-.06l-.2.55c.4-.65.47-.85.8-1,.05.09-.07.46-.12.29.14.36.33-.47.51-.1l-.21.33c.21.1.25-.09.5-.47.21-.18.39.27.27.78.12-.3.37-.67.45-.49a.66.66,0,0,1-.16.35c.26.49.75-.47.84.15a.88.88,0,0,0-.05.34c-.3-.1-.53-.21-.49-.24-.15.51.06.67-.35,1.32.31-.32.89-1.06,1.05-.75a.68.68,0,0,1,0,.19l0,.05c0,.07.1,0,.17,0,.05.11.08.19.15.22-.1.43.2.31.32.36.16-.56.29-.42.28-.92,0,0,0,.06-.13,0l-.07.05,0-.05-.31-.06c.18-.25.35-.46.39-.11.17-.34.35-.68.44-.85-.07.83.11,1.35,0,1.84.46-.2.92.06,1.48-.91.14-.1,0,.34,0,.51s-.16.05-.24.19c.29-.2.65.09.93-.63.16.41-.36.63,0,.62l-.12.21c.32,1.39,1.74-1.49,2,.26a.47.47,0,0,1,0-.29c.67,1,2,0,2.57,1.32.18.3.36-.16.63-.46l-.15.62.5-.6c.54-.38.14,1.68.93.89l.07-.42c.14.13.61-.06.43.39,0-.06.2-.39.19-.16l-.1.31.59-.39c.24.33-.48,1.21,0,1.43a2.05,2.05,0,0,0,.81-1c-.06,0-.11-.26,0-.57l.21-.1a5,5,0,0,0,.63-2.57l-.46.46.06-.47.24.05c0-.46-.19-.12-.38.1a1.23,1.23,0,0,0,.06-.53l-.57.78c.09-.37.37-.66.25-.92-.26.36-.15.84-.45,1,0-.46.16-.78-.11-.48a.82.82,0,0,1,.24-.46c-.24.23-.4,0-.64.45,0-.56-.51,0-.2-.88-.11.19-.47.59-.61.59.58-1-.45-.22,0-1.32-.49.88-.76.21-1.23.62,0-.07.12-.21.14-.15-.15-.13-.1-.43-.15-.65-.28.77-.61.86-.91,1.29,0-.81.43-.87.6-1.6-.19.63-.57.5-.67,1.05a2.29,2.29,0,0,1,.07-.94c-.35,1-.21.12-.53.67-.08-.56.24-.93-.12-.72A.84.84,0,0,1,200,102.2Zm-6.58-.24h0Zm-.51-.15a.58.58,0,0,0,.21.09c0,.2-.12.39-.17.36S192.93,102,192.91,101.81Zm-.12,4.2c-.1.06-.09-.06-.07-.18a.53.53,0,0,0,.16,0l0-.07A1.78,1.78,0,0,1,192.79,106Z"/><path class="a" d="M193.16,105.32s0,0,.05,0,0-.1,0-.14l-.08.17Z"/><path class="a" d="M146.78,94.32v0a.25.25,0,0,1,0-.09Z"/><polygon class="a" points="186.15 98.7 186.11 98.84 186.19 98.73 186.15 98.7"/><path class="a" d="M144.14,92a.39.39,0,0,0,0-.15A1,1,0,0,0,144.14,92Z"/><path class="a" d="M142.9,91.69l-.15-.23A.74.74,0,0,0,142.9,91.69Z"/><path class="a" d="M142,91.29c0,.1,0,.17-.05.24h0Z"/><path class="a" d="M157.39,92.77a.05.05,0,0,0,0,0C157.54,92.65,157.47,92.68,157.39,92.77Z"/><path class="a" d="M152.63,93.39a1.46,1.46,0,0,1,.19-.25C152.75,93.08,152.69,93.06,152.63,93.39Z"/><path class="a" d="M162.59,93h0Z"/><path class="a" d="M153,93.18c-.06-.13-.13-.11-.21,0S153,93.26,153,93.18Z"/><path class="a" d="M137.8,90.58l0,0a.2.2,0,0,1,0,.09Z"/><path class="a" d="M137.74,90.64l-.05.06S137.73,90.7,137.74,90.64Z"/><path class="a" d="M137.56,90.84l.13-.14S137.6,90.68,137.56,90.84Z"/><path class="a" d="M139.06,91l0-.21A1.69,1.69,0,0,0,139.06,91Z"/><path class="a" d="M139.45,91c-.08-.06-.18-.48-.33-.36l0,.17C139.19,90.46,139.33,91.3,139.45,91Z"/><path class="a" d="M140.79,93.73l-.3-.21c0,.23.07.54-.08.58C140.74,94.81,140.38,93.59,140.79,93.73Z"/><path class="a" d="M141.75,94.17c-.18.08,0,.33-.05.45C141.83,94.43,141.86,94.38,141.75,94.17Z"/><path class="a" d="M149,95.08l-.09.53C149,95.55,148.91,95.4,149,95.08Z"/><polygon class="a" points="150.74 92.56 150.66 92.22 150.52 92.69 150.74 92.56"/><polygon class="a" points="151 96.43 150.94 96.5 151.19 96.34 151 96.43"/><path class="a" d="M163,98.28l.08-.65C163,97.73,162.85,98.45,163,98.28Z"/><path class="a" d="M168.33,98.67c0,.33.09.57.24.28C168.47,98.88,168.4,98.6,168.33,98.67Z"/><polygon class="a" points="183.42 103.39 183.26 103.57 183.5 103.45 183.42 103.39"/><path class="a" d="M136.81,140.22c.05.17.25.52.31.41l-.25-.65Z"/><path class="a" d="M138,141.05a3.53,3.53,0,0,0-.53-1.46c.19.64,0,.41.28,1.17-.06.11-.26-.12-.36-.36.05.18-.21-.06-.06.35.36.41.51.36.47-.11A1.4,1.4,0,0,1,138,141.05Z"/><path class="a" d="M147.39,138.12l-.09-.05S147.36,138.12,147.39,138.12Z"/><path class="a" d="M153.2,136.48s0,.1,0,.16A.15.15,0,0,0,153.2,136.48Z"/><path class="a" d="M154.41,136.89l-.08,0C154.38,136.92,154.41,137,154.41,136.89Z"/><path class="a" d="M147.39,138.12l.23.15C147.55,138.05,147.48,138.14,147.39,138.12Z"/><path class="a" d="M138.5,139a.44.44,0,0,0,0,.2.3.3,0,0,1,0-.1Z"/><path class="a" d="M145.13,139.6l0,0c0,.08,0,.18.07.28Z"/><path class="a" d="M143.31,140.5a3.73,3.73,0,0,0-.26-.78.73.73,0,0,1,.07.4A2.22,2.22,0,0,0,143.31,140.5Z"/><path class="a" d="M140,140.9l0,.1A.44.44,0,0,1,140,140.9Z"/><path class="a" d="M146.52,139.18a1.79,1.79,0,0,0,.09.19A1.11,1.11,0,0,0,146.52,139.18Z"/><path class="a" d="M201.08,121.21l0,.1C201.11,121.25,201.1,121.21,201.08,121.21Z"/><path class="a" d="M204.12,123.41l0,0,.08.31Z"/><path class="a" d="M156.42,137.07h0C156.38,137.14,156.4,137.12,156.42,137.07Z"/><path class="a" d="M173.05,132.53c-.3-.47.17-.73-.24-1.23C172.89,131.51,172.74,132.24,173.05,132.53Z"/><path class="a" d="M138.58,139l.08-.05S138.59,139,138.58,139Z"/><path class="a" d="M172.81,131.3h0l0,0Z"/><path class="a" d="M160.47,135.57c0-.1-.08-.17-.11-.24A.67.67,0,0,0,160.47,135.57Z"/><path class="a" d="M157.14,135.63l.09.05A.14.14,0,0,0,157.14,135.63Z"/><path class="a" d="M161.87,134.34c.06,0,.09.1.13,0a.13.13,0,0,0,0-.06C162,134.37,161.94,134.41,161.87,134.34Z"/><path class="a" d="M163.57,133.91l-.06-.1,0,0Z"/><path class="a" d="M196,122.75a3.56,3.56,0,0,1,.19.49C196.08,122.84,196.3,122.64,196,122.75Z"/><path class="a" d="M138.64,139.27a.57.57,0,0,1-.06-.25l0,0A1.83,1.83,0,0,0,138.64,139.27Z"/><path class="a" d="M160.8,129.85l.29,0A.48.48,0,0,0,160.8,129.85Z"/><path class="a" d="M183.72,125.46l.05-.08S183.72,125.39,183.72,125.46Z"/><path class="a" d="M161.89,129.58a1.19,1.19,0,0,0,.26.36,1,1,0,0,0,0-.16Z"/><path class="a" d="M196.21,123.25h0Z"/><path class="a" d="M197.66,121.47c-.26,0,.06.76.11,1.2-.26.29-.28-.51-.47-.87-.15.24-.13,1-.28,1a.75.75,0,0,1-.08-.32c-.07.64-.6.17-.66,1a.77.77,0,0,1-.07-.17,8.17,8.17,0,0,1,.27,1c-.11,0-.1.53-.26,0,.07,0,0-.2,0-.36l-.07.24c-.27-.68.11-.28,0-.8-.18.28-.33.93-.55.77-.2-.68.37-.33,0-.88l.34.19c-.46-1,.19,0-.27-1.08-.42-.11-.33.45-.75.34,0,.4.16.56.16,1-.36.8-.8-1.64-1-.64,0,.48.16,1.36-.22,1l-.08-.8c-.37,0,0,1.17-.44.72,0-.32.22-.32.15-.4-.38-.56-.08.48-.27.52l-.19-.68c-.35.2-.67.79-1.06,1a1.2,1.2,0,0,0-.14-.64c-.46.47-1.16.17-1.76-.13l-.07.64c-.05,0-.14-.26-.12-.38-.25-.19.07.38,0,.63-.1.07-.22-.31-.19-.5-.24.58-.78,1.3-1.29.74l0-.19c-.34-.19-.07,1.29-.46.79l0-.12c-.69-.13-1.27.57-1.94-.24.08.88-.71-.25-.51,1-.48-.53-.42-.76-1-1.06-.15,0-.05.79-.2,1l-.13-.62-.09.7-.28-.73-.12.2a.66.66,0,0,1,.21.43c-.18.34-.69-.31-.76-.63l-.47.65a1.1,1.1,0,0,1,.08-.54c-.18.7-.19-.65-.35,0a2.31,2.31,0,0,1,.07.51.44.44,0,0,0-.75-.08l0-.44c-.46,0-.88.39-1.37.48a1.16,1.16,0,0,1,.2,1l-.19-.66c0,.43.2.22.11.76-.2,0-.27-.73-.21-1l-.18.27c-.05-.19,0-.31-.06-.56,0,.43-.51-.59-.5.15l-.05-.2c-.49.1-.67.37-1.06.48.11.58-.07.48-.1,1-.33-.13-.74-.51-1.08-.39-.19.34,0,.5,0,.86-.12-.52-.47-.39-.36-.81a1.93,1.93,0,0,0-1,.75c.1.2.19.28.19.47s-.27-.18-.3-.43v-.06c-.44.9-1.7-1.24-1.95,0v-.06l-.37.67c-.25,0,.05-.42-.18-.71-.36,1-.88,0-1.2.73-.66-1.47-1.18.36-1.86-.52l.11.36c0,.37-.19-.18-.3-.24.08.27.2.29.17.5-.91.65-2.2-.06-3.31-.15-.4,0,.21,1.91-.46,1.16l0-.7c-.58,1-1.57.32-2.16,1.19,0-.16,0-.37,0-.38-.28-.45-.59.12-.5.51-.13,0-.11-.35-.23-.53s-.25.72-.45.25a.3.3,0,0,1,0-.21c-.05.26-.5.06-.26.59-.35-.19-.48.38-.78.11,0,.66-.56-.19-.38.71-.21-.92-.68-.62-.75-.14,0-.3-.22-.25-.25-.65-.2.07-.34.29-.19.75-.65-1-.51,1.07-1.09-.27a6.79,6.79,0,0,1-1.41,1.49c-.23-.91.57-.25.29-1.2-.41.51-.49,1.37-1.06,1.29-.16-.09,0-.42,0-.58-.41.5-1,.2-1.32.82a.5.5,0,0,1,0-.27c-.08.06-.25-.07-.12.34l.06-.14c.31.55,0,1.34.08,1.66-.19-1.22-.53-.16-.72-1.71a.86.86,0,0,0,0,.58c-.11-.06-.19-.21-.19-.55-.25.32,0,.72-.3.8a3.88,3.88,0,0,1-.06-.53c0,.42-.06.85-.36.76,0-.12-.09-.27,0-.29-.4.18-.4,1.24-1,1-.13-.89-.24-.23-.5-1l-.17.3.21.33c-.22.05-.24.66-.5.47l.06-.35-.35.27.31.2c-.09.46.33.93,0,.82,0-.09-.22.06-.47-.34h0c0,.27-.05.55-.27.42s-.24-.82-.31-1c.1.65-.45.34-.36,1a2.56,2.56,0,0,0-.17-.63l.08.53c-.16-.13-.2-.2-.28-.52-.33,0,.4.91-.08.62,0-.05,0-.12,0-.21-.42-.09-.57.54-1,.4-.35-.7.22-.27-.1-.86-.43.29-.67,1.21-1.17,1.21l.11.05c.31,1.06-.52-.39-.57.19a1.24,1.24,0,0,0-.11-.48c-.37-.05-.53.49-.87,1l0-.29c-.27-.17-.53,0-.77,0,.05.28-.08.28.13.64-1.18-1.27-.83,1.22-1.85.21.07,0,.06-.3,0-.28L144,137c.22.43.17.24.4.55.06.28,0,.54-.1.59.08-.38-.29-.71-.48-.92.07.13.1.29.17.42-.56-.69.33.91-.21.52l-.08-.24c-.07.17-.05.52-.2.51-.27-.49,0-.3-.15-.72-.17.11.06,1.12-.32.68,0-.18.12-.22.14-.4-.43-.52-.39-.36-.56-.4h0l-.43-.14.15.13c.35,1.42-.36.44-.28,1.43-.07-.94-.16-.49-.39-1.08-.15-.12-.35-.25-.38-.43.06.53-.41-.26-.31.5-.09-.18-.16,0-.34-.43-.12.23.19.31.28.54,0,.75-1-.44-1,.61-.18.53,0,1.18-.13,1.64a1.06,1.06,0,0,1-.23-.71c-.31-.18-.42-.07-.48.22a1.13,1.13,0,0,0-.3-.47c-.11.11.24.7-.07.52a5.24,5.24,0,0,1-.22-.8c-.08.25-.07.66-.15.91a1.48,1.48,0,0,1-.18-.77,1.11,1.11,0,0,0-.15,1.05l.21.12c-.06.06-.25-.41-.25-.53,0-.47.32.07.42.24l-.06.18c.64,1,.38-.4.64-.45l.29.82-.08-.76c.15.18.39.6.34.77.35.31,0-.35.36,0a.2.2,0,0,1,.06.14l.05-.31c0,.18.29.54.13.47.5.32.19-.81.58-.27v.06c.28-.46-.23-.59-.24-1.41l.86,1.32-.23-.59c.05,0,.15,0,.25.24,0-.47-.15-.24-.23-.66.44.43.45-.49.91.41-.12-.47-.35-.26-.26-.66.5,1,.17-.28.56.1.17.54-.12.34.26.72-.27-.92.45,0,.53-.2-.29-.69.22-.43.38-.77.08.24.66.17,1,.32l0,.12c-.25-.73.06-.7.18-.93a1.67,1.67,0,0,1,.18.84l.17-.08a.7.7,0,0,1,0-.51l.18.55c.21-.13.2-.83.64-.59-.18-.5-.79-1.28-.6-1.73a2.31,2.31,0,0,1,.28.85s0-.26.11-.16l.05.49c.21.15-.08-.4,0-.4.14.38.18.24.29.55,0,.05-.16-.12-.14.05a.93.93,0,0,1,.55.46c-.1-.21-.2-.52-.13-.6.22-.11.26.43.47.58-.05-.29.21-.07,0-.64.07,0,.19.23.27.38,0-.3.54-.28.17-.84l0,0s0,0,0,0h0c.18-.72.95,0,1.25-.38l.07.19c.15-.31.47-.33.49-.81.07,0,.29.3.35.54.12-.21.07-.45.44-.21-.06.4.17.27-.1.31.3.08.46.38.53-.24.08.53.39.57.45.38l-.29-.3a.43.43,0,0,1,.36-.1l.16.68c.75.63.41-1.65,1.22-.44,0-.5-.36-.23-.43-.81.25,0,.8.88.86.86.42.26,0-1,.37-.91-.11-.22-.36-.84-.19-1.14.25,0,.59.9.51,1.13-.05,0-.09,0-.12-.11a.41.41,0,0,0,.07.47l-.05-.24c.19.2.48.07.53.48a.36.36,0,0,0-.21-.49c.39.25.45-.14.81,0-.08-.11-.21-.37-.17-.39.53.17.06-.5.32-.69.28.31.2.87.41.49.25.18.23.61.22.82.13-.53.59.15.77.19l-.09.23a.22.22,0,0,1,.19-.17l-.22-.45c.11.06.18,0,.24.23,0-.33-.3-.76-.26-1.24.18.21.26-.35.49.26-.42-.11.22.62,0,.81,0-.09.1-.11.21,0a.27.27,0,0,1,0,.17c.49.47-.06-.75.29-.84.06.37.27.65.31.56-.14,0-.24-.58-.19-.88.3.2.18-.28.31-.28l-.17-.09c-.06-.37.06-.36.19-.52.09.27-.09.23,0,.34,0-.68.58.53.7,0,.17.2.19.66.34.79.14-.53.43.41.61,0-.22-.46-.2-.34-.13-.86l-.38.46.11-.77c-.14,0-.21.38-.32.32,0-.43,0-.3-.13-.68.4.66.27-.52.63-.1l.32,1.18c.48.44.43-.76,1-.58l-.19-.17c-.07-.49.25-.14.34-.37a2.1,2.1,0,0,0,.35.75c-.09-.29.32-.06.15-.86l.34.47c.41.12.1-1.24.48-1.19,0,.45.24.69.09,1.06.11,0,.23,0,.17-.25.13.23.17-.62.37-.27,0-.19-.08-.61,0-.61a.66.66,0,0,1,.05.2c-.05-.2.14-.32-.09-.73.67,1.15,1-.34,1.54.66a2.47,2.47,0,0,1,.71-.48c0,.12.05.19,0,.16.41.3-.08-1.19.38-.86.33.6-.11.39.06.61.37,1.3.39-.28.81.42l0,.1c.29.4.33-.61.65-.59a1.32,1.32,0,0,0,.05.2,1.74,1.74,0,0,1,.63-1.28c0,.53-.07.3.11.81.11-.1-.23-.83,0-1a3.31,3.31,0,0,1,.55,1l-.24.09c.29.69.31-.1.47,0l.05.32c.35-.19.18-1,.6-1l-.1-.23c0-.84.28.4.37-.23l.25.78a4.24,4.24,0,0,1,.56-1.1,4.5,4.5,0,0,1-.36,1.4.57.57,0,0,0,.46-.58c0,.09-.07.3-.15.19,0-.67.2-1,.49-1.08.29,1.56.83.22,1.3,1.39.39-.69,1.07,0,1.64-.19-.47-1.17.16-.07-.14-1.31.13-.1.18-.1.21,0l.58.66c.17.34-.08.3,0,.57.32,0,.23.5.5.79-.13-.43,0-.66.18-.52l-.36-.53c.28-.75.58,1,.87.23l-.05.42c.17-.28.8-.17.81-1.21.07.14.19.47.11.58.56,0,1-1.3,1.49-.77l0,.31c.08-.11,0-.61.24-.32,0,.12,0,.31.07.32s.15-.59.31-.44l0,.37c.6.29.62-1,1-1.3a1.47,1.47,0,0,0,.87,1.22l0,.12c.62,0,.86-.94,1.34-1.41.54.91,1.25.18,1.91.61a1.15,1.15,0,0,1-.05-.81c.17.16.24-.69.38.14H183c.26.79.48.52.7.5l-.19-1.08c.86,1.45,1.31-.87,1.89.47.08-.29.24-.32.32-.62l.11.58a1.22,1.22,0,0,0,1-.12v.43c.26,0,0-1.72.2-1.81l.25.85c.44-.1,1.05.56,1.32-.31,0,.12.06.38,0,.43.21,0,.92.41.6-.76.17.77.48,0,.64-.41l.09.58c.05-.77,0-1,.25-1.23.08.06.15.45,0,.32.29.25.06-.57.4-.33l0,.38c.24,0,.18-.19.22-.64.1-.26.46,0,.61.56,0-.32,0-.76.16-.64a.77.77,0,0,1,0,.38c.46.3.43-.78.81-.28a.8.8,0,0,0,.12.32c-.31.06-.56.08-.55,0,.11.53.38.56.34,1.33.11-.44.26-1.37.56-1.18l.07.18v.06c.06,0,.1,0,.13-.12a.43.43,0,0,0,.23.12c.12.42.34.17.46.16-.13-.57,0-.51-.21-1,0,0,0,.07-.08.11s0,0,0,.08v-.06a2.45,2.45,0,0,1-.3.11c0-.31.08-.58.29-.29,0-.38,0-.77,0-1,.34.76.76,1.12.91,1.6.3-.41.84-.41.83-1.53.07-.16.19.28.27.44s-.12.12-.11.28c.15-.32.6-.25.48-1,.35.27,0,.72.35.51V127c1,1,.73-2.18,1.89-.84a.51.51,0,0,1-.16-.24c1.08.45,1.73-1.07,2.89-.24.31.15.22-.33.28-.73l.21.59.09-.77c.24-.61,1,1.32,1.26.23l-.17-.4c.19,0,.48-.38.58.1,0-.08-.06-.44.06-.24l.09.31.28-.65c.39.14.28,1.27.78,1.21a2.07,2.07,0,0,0,.13-1.25c-.08,0-.24-.15-.33-.47l.12-.2a5.16,5.16,0,0,0-.94-2.48l-.11.64-.21-.43.22-.09c-.25-.39-.23,0-.25.29a1.38,1.38,0,0,0-.25-.47l0,1c-.13-.36-.07-.75-.3-.91,0,.45.34.79.2,1.11-.24-.39-.3-.74-.35-.34a.78.78,0,0,1-.06-.52c-.06.33-.33.22-.27.73-.27-.49-.42.26-.64-.63,0,.22-.06.76-.18.83,0-1.12-.48.06-.71-1.1.07,1-.5.58-.67,1.19,0-.08,0-.24,0-.2-.18,0-.3-.31-.46-.46a3.84,3.84,0,0,1-.06,1.56c-.4-.72-.11-1-.35-1.68.17.64-.21.73,0,1.24a2.19,2.19,0,0,1-.44-.83c.21,1-.11.21-.09.84-.35-.43-.28-.91-.46-.55A.84.84,0,0,1,197.66,121.47Zm-5.63,3.1h0l.12-.06Zm-.51.12a.63.63,0,0,0,.23,0c.06.2.08.4,0,.4S191.63,124.84,191.52,124.69Zm1.95,3.72c-.07.09-.12,0-.16-.13a.27.27,0,0,0,.13-.1v-.07C193.45,128.22,193.47,128.33,193.47,128.41Z"/><path class="a" d="M193.45,127.62s0,0,0,0a.63.63,0,0,0-.07-.12v.18Z"/><path class="a" d="M147.29,138.06h0l-.05-.07A.21.21,0,0,1,147.29,138.06Z"/><polygon class="a" points="184.23 125.06 184.26 125.2 184.28 125.07 184.23 125.06"/><path class="a" d="M143.86,137.26a.6.6,0,0,0-.09-.13A.44.44,0,0,0,143.86,137.26Z"/><path class="a" d="M142.65,137.63l-.25-.12A.66.66,0,0,0,142.65,137.63Z"/><path class="a" d="M141.64,137.75a2,2,0,0,0,.08.23h0Z"/><path class="a" d="M156,131.89l0,0C156.07,131.72,156,131.78,156,131.89Z"/><path class="a" d="M152,134.54a2.14,2.14,0,0,1,.06-.31C152,134.22,151.9,134.23,152,134.54Z"/><path class="a" d="M160.77,129.85h0Z"/><path class="a" d="M152.26,134.18c-.11-.09-.17,0-.2,0S152.22,134.28,152.26,134.18Z"/><path class="a" d="M137.69,139.3h-.05a.23.23,0,0,1,0,.09Z"/><path class="a" d="M137.67,139.39v.08S137.7,139.45,137.67,139.39Z"/><path class="a" d="M137.62,139.65l0-.18S137.57,139.49,137.62,139.65Z"/><path class="a" d="M139,139l-.07-.2A1,1,0,0,0,139,139Z"/><path class="a" d="M139.3,138.76c-.1,0-.4-.31-.47-.13l.07.15C138.82,138.47,139.38,139.12,139.3,138.76Z"/><path class="a" d="M141.86,140.44a2.17,2.17,0,0,0-.36,0c.14.18.33.42.23.53C142.37,141.39,141.44,140.52,141.86,140.44Z"/><path class="a" d="M142.9,140.35c-.11.16.14.3.18.42C143.1,140.54,143.1,140.48,142.9,140.35Z"/><path class="a" d="M149.54,137.71l.17.5C149.8,138.09,149.64,138,149.54,137.71Z"/><polygon class="a" points="149.95 134.66 149.71 134.4 149.81 134.88 149.95 134.66"/><polygon class="a" points="151.94 137.99 151.91 138.08 152.05 137.83 151.94 137.99"/><path class="a" d="M163.39,134.49l-.19-.63C163.14,134,163.3,134.72,163.39,134.49Z"/><path class="a" d="M168.31,132.64c.13.31.32.48.34.15C168.52,132.77,168.35,132.54,168.31,132.64Z"/><polygon class="a" points="183.91 130.48 183.84 130.72 184 130.5 183.91 130.48"/><path class="a" d="M202.4,142.7c-.05-.18-.24-.54-.29-.43l.24.65Z"/><path class="a" d="M201.3,141.81a3.84,3.84,0,0,0,.51,1.47c-.18-.64,0-.41-.27-1.17.05-.11.24.13.33.37-.05-.17.19.08,0-.34-.33-.43-.48-.38-.43.08A1.66,1.66,0,0,1,201.3,141.81Z"/><path class="a" d="M192.72,144.7l.09.05A.21.21,0,0,0,192.72,144.7Z"/><path class="a" d="M187.55,146.86s0-.1,0-.16A.15.15,0,0,0,187.55,146.86Z"/><path class="a" d="M186.35,146.63h.07S186.34,146.58,186.35,146.63Z"/><path class="a" d="M192.72,144.7l-.23-.13C192.58,144.78,192.63,144.69,192.72,144.7Z"/><path class="a" d="M200.88,143.83a.4.4,0,0,0,0-.19.25.25,0,0,1,0,.09Z"/><path class="a" d="M194.69,143.13l0,0c0-.08,0-.17-.08-.27Z"/><path class="a" d="M196.35,142.22a4.24,4.24,0,0,0,.28.77.78.78,0,0,1-.08-.4A3.62,3.62,0,0,0,196.35,142.22Z"/><path class="a" d="M199.49,141.87l0-.09S199.49,141.84,199.49,141.87Z"/><path class="a" d="M193.42,143.6a1.18,1.18,0,0,0-.11-.18A.78.78,0,0,0,193.42,143.6Z"/><path class="a" d="M153.59,177.92l-.07-.08C153.55,177.9,153.58,177.93,153.59,177.92Z"/><path class="a" d="M150,177v0l-.19-.26Z"/><path class="a" d="M184.44,146.78h0C184.46,146.71,184.45,146.73,184.44,146.78Z"/><path class="a" d="M170.73,155.57c.45.32.14.71.7,1C171.28,156.43,171.11,155.71,170.73,155.57Z"/><path class="a" d="M200.81,143.79l-.07,0A.06.06,0,0,0,200.81,143.79Z"/><path class="a" d="M171.43,156.6h0l.06,0Z"/><path class="a" d="M181,149a1.75,1.75,0,0,0,.16.2A1.51,1.51,0,0,0,181,149Z"/><path class="a" d="M184.09,148.31l-.11,0C184,148.31,184.07,148.32,184.09,148.31Z"/><path class="a" d="M180.07,150.53s-.1-.08-.11,0l0,.06C180,150.52,180,150.47,180.07,150.53Z"/><path class="a" d="M178.67,151.36l.08.08,0-.05Z"/><path class="a" d="M157.18,174.26c-.14-.09-.28-.21-.42-.32C157.07,174.21,157,174.49,157.18,174.26Z"/><path class="a" d="M200.74,143.54a.48.48,0,0,1,.07.25l0-.06A.82.82,0,0,0,200.74,143.54Z"/><path class="a" d="M182.32,154.56l-.26.05A.48.48,0,0,0,182.32,154.56Z"/><path class="a" d="M165.25,166.07v.09S165.28,166.13,165.25,166.07Z"/><path class="a" d="M181.46,155.06a1.29,1.29,0,0,0-.33-.28,1.31,1.31,0,0,0,.05.15Z"/><path class="a" d="M156.76,173.93h0Z"/><path class="a" d="M156.46,176.15c.2-.17-.43-.63-.69-1,.07-.37.49.31.83.53,0-.28-.38-.89-.26-1,.09.09.15.1.23.24-.28-.58.4-.43,0-1.14a.91.91,0,0,1,.16.11,9.54,9.54,0,0,1-.77-.72c.07-.09-.19-.49.19-.17-.06,0,.08.19.17.32l-.07-.23c.58.44.06.29.43.67,0-.33-.23-.94,0-.92.53.47-.11.46.49.74h-.38c.93.64-.17.06.8.77.4-.11,0-.54.43-.65-.22-.33-.43-.39-.65-.72-.15-.85,1.54,1,1.13,0-.27-.4-.88-1.05-.36-.9l.51.62c.29-.19-.68-.94-.05-.82.18.26,0,.37.1.4.62.28-.21-.43-.08-.56l.53.47c.17-.34.09-1,.27-1.36.14.16.25.37.47.45.09-.61.8-.71,1.44-.77l-.31-.55s.25.13.31.25c.29,0-.28-.28-.38-.51s.35.14.43.32c-.14-.6-.14-1.45.57-1.24l.08.17c.36,0-.68-1.09-.1-.87l0,.11c.6-.23.66-1.08,1.62-.73-.55-.69.68-.11-.14-1,.66.21.75.44,1.36.42.13,0-.38-.68-.36-.88l.44.47-.3-.64.6.49v-.22a.79.79,0,0,1-.4-.27c0-.36.7,0,.93.2l0-.76a1.26,1.26,0,0,1,.22.5c-.23-.68.48.46.27-.16a1.76,1.76,0,0,1-.32-.4.39.39,0,0,0,.64-.24l.25.35c.38-.16.49-.69.83-1-.25,0-.72-.66-.67-.8l.48.48c-.21-.37-.27-.1-.47-.61.18,0,.58.52.65.75v-.31a5.07,5.07,0,0,1,.33.46c-.21-.37.7.3.32-.34l.14.15c.33-.28.35-.57.6-.83-.36-.46-.17-.44-.38-.88.33,0,.84.16,1.06-.08,0-.36-.25-.43-.39-.76.34.41.56.17.67.57a1.7,1.7,0,0,0,.44-1c-.18-.14-.28-.18-.37-.35s.3.06.44.27l0,.06c0-1,1.94.5,1.62-.65v.06l0-.74c.22-.05.13.4.45.58-.13-1,.7-.34.68-1,1.15,1.11.84-.72,1.75-.13l-.23-.29c-.11-.36.23.1.34.12-.17-.23-.28-.21-.34-.41.51-.88,1.88-.59,2.84-.82.33-.1-.87-1.72,0-1.2l.27.64c.15-1.06,1.21-.72,1.43-1.67,0,.16.15.33.09.37.38.35.47-.26.26-.61.11,0,.21.3.37.44s0-.72.31-.34a.28.28,0,0,1,0,.21c0-.26.41-.17,0-.62.36.11.29-.47.64-.28-.21-.62.53.05.11-.76.46.82.77.43.69,0,.09.28.27.19.41.56.15-.1.21-.34-.06-.74.86.81.16-1.12,1,0a5.73,5.73,0,0,1,.84-1.7c.44.83-.43.35.06,1.2.23-.56.07-1.4.6-1.42.16.05.13.38.17.54.23-.56.84-.35,1-1a.61.61,0,0,1,0,.27c.06-.07.23,0,0-.34v.14c-.41-.48-.32-1.3-.46-1.59.45,1.14.51.07,1,1.54a1,1,0,0,0-.17-.55c.11,0,.21.17.29.49.15-.34-.15-.69.09-.81.09.18.08.28.17.5-.07-.42-.14-.84.15-.79,0,.12.14.25.08.28.32-.23.1-1.26.66-1.11.3.85.26.2.64.87l.1-.31-.26-.29c.19-.08.09-.66.36-.52v.36l.27-.31-.32-.16c0-.45-.47-.87-.13-.8,0,.1.18-.08.48.28h0c0-.27-.05-.55.17-.44s.37.78.46.91c-.2-.62.34-.37.14-1a3,3,0,0,0,.27.59l-.16-.5c.16.1.21.17.34.47.3,0-.52-.84,0-.61,0,0,0,.11,0,.21.4,0,.43-.59.82-.5.43.66-.16.29.23.83.34-.32.41-1.25.88-1.27l-.11,0c-.44-1,.53.34.49-.22a1.49,1.49,0,0,0,.17.46c.34,0,.42-.5.67-1l.08.28c.26.15.47-.07.7,0-.08-.28,0-.29-.2-.63,1.22,1.2.62-1.26,1.67-.27-.05,0,0,.29,0,.27l.28-.43c-.24-.42-.17-.24-.42-.53-.07-.28-.06-.54,0-.58,0,.37.34.69.53.9-.08-.13-.12-.29-.19-.42.57.67-.38-.89.15-.51l.09.24c0-.17,0-.52.15-.51.29.48,0,.29.19.71.15-.11-.14-1.1.25-.67,0,.17-.1.22-.1.39.43.51.38.35.54.39h0l.4.14-.14-.12c-.42-1.41.29-.44.16-1.42.12.93.18.49.43,1.07.14.12.33.25.38.42-.09-.52.38.26.24-.49.1.18.15,0,.34.42.09-.22-.19-.3-.29-.53,0-.75,1,.47.92-.56.16-.51-.08-1.15.07-1.6a1.18,1.18,0,0,1,.24.71c.29.19.38.09.44-.2a1.2,1.2,0,0,0,.28.48c.1-.1-.23-.7.05-.51a6.73,6.73,0,0,1,.23.8c.06-.24,0-.65.11-.88a1.7,1.7,0,0,1,.19.76,1.17,1.17,0,0,0,.11-1l-.19-.13c.05-.05.23.42.23.54,0,.46-.29-.08-.38-.26l.05-.17c-.62-1-.35.37-.59.41l-.28-.82.09.75c-.14-.18-.38-.61-.33-.77-.33-.32,0,.34-.34,0a.27.27,0,0,1-.06-.14l0,.3c0-.17-.28-.54-.14-.47-.48-.32-.15.79-.53.25v-.06c-.25.44.23.59.27,1.4L198.2,142l.23.59c-.05,0-.14,0-.24-.25.05.46.14.24.24.65-.43-.43-.4.49-.87-.41.14.47.34.26.28.65-.52-.95-.15.28-.53-.09-.19-.53.1-.34-.28-.71.3.9-.42,0-.48.2.31.68-.18.43-.31.77-.09-.24-.63-.16-1-.3l-.05-.12c.28.71,0,.69-.11.91a1.76,1.76,0,0,1-.23-.82l-.16.08a.61.61,0,0,1,0,.5l-.2-.53c-.2.13-.13.81-.56.59.21.49.85,1.24.72,1.69a2.44,2.44,0,0,1-.33-.83s0,.25-.09.17l-.1-.49c-.21-.14.12.39,0,.4-.18-.37-.2-.23-.33-.53,0-.05.16.11.13-.05a1,1,0,0,1-.56-.43c.11.21.24.5.18.58s-.29-.41-.5-.54c.08.28-.19.08.08.64-.06,0-.2-.23-.3-.36,0,.29-.47.31-.06.84l.05,0s0,0,0,0h0c-.08.72-.88,0-1.12.45l-.09-.19c-.1.32-.4.36-.35.82-.06,0-.31-.26-.4-.49-.09.21,0,.43-.38.24,0-.4-.2-.25,0-.32-.28-.05-.47-.32-.45.29-.15-.51-.45-.51-.48-.32l.32.26a.34.34,0,0,1-.31.14l-.26-.64c-.8-.54-.12,1.66-1.08.56.11.49.39.19.54.75-.24,0-.89-.77-1-.74-.44-.21.21,1-.19.93.15.2.48.77.38,1.09-.23,0-.71-.8-.67-1,0,0,.09,0,.13.09a.43.43,0,0,0-.15-.45l.09.24c-.21-.18-.47,0-.59-.41a.38.38,0,0,0,.29.45c-.41-.19-.39.19-.76.11.11.1.28.34.23.36-.51-.08,0,.5-.15.73-.32-.26-.36-.83-.47-.41-.28-.15-.34-.57-.37-.78,0,.55-.58,0-.76,0l0-.24a.22.22,0,0,1-.14.2l.3.4c-.11,0-.17,0-.27-.19.08.32.44.69.5,1.16-.21-.17-.16.4-.5-.16.4,0-.35-.57-.14-.8,0,.1-.07.13-.19.09a.32.32,0,0,1-.05-.17c-.56-.36.22.73-.09.87-.14-.34-.4-.58-.41-.48.12-.06.35.51.37.82-.33-.15-.11.3-.22.32l.17.06c.14.35,0,.36-.06.53-.14-.25,0-.24-.08-.33.16.65-.65-.41-.65.09-.21-.17-.34-.61-.5-.71,0,.54-.5-.31-.55.17.31.4.26.28.32.8l.23-.52.09.77c.13-.06.11-.41.22-.38.07.43,0,.31.28.64-.52-.56-.12.55-.55.22l-.58-1.08c-.55-.32-.2.84-.72.77l.22.12c.19.46-.2.19-.22.43a2.52,2.52,0,0,0-.51-.65c.15.26-.29.13.08.86l-.43-.38c-.41,0,.24,1.21-.12,1.25-.13-.44-.41-.62-.37-1-.1.05-.22,0-.08.28-.19-.19,0,.63-.27.35.05.18.25.56.12.59a1.32,1.32,0,0,1-.1-.18c.1.18,0,.34.3.68-.94-.94-.77.55-1.58-.25a2.17,2.17,0,0,1-.49.64c0-.11-.1-.18,0-.16-.46-.18.44,1.1-.07.91-.49-.48,0-.4-.25-.56-.74-1.13-.26.37-.86-.18V152c-.39-.3-.1.67-.4.73a.94.94,0,0,0-.1-.17,1.81,1.81,0,0,1-.13,1.38c-.21-.49,0-.3-.38-.73-.06.13.49.71.36,1a3.45,3.45,0,0,1-.83-.8l.18-.14c-.49-.57-.24.18-.41.13l-.16-.28c-.25.28.18,1-.17,1.13l.17.19c.26.79-.4-.29-.24.33l-.5-.65a4.42,4.42,0,0,1-.1,1.19,4.61,4.61,0,0,1-.19-1.41.52.52,0,0,0-.19.69c0-.1-.05-.3.06-.23.21.63.2,1,0,1.16-.84-1.35-.82.05-1.67-.86-.07.76-.94.34-1.36.75.88.9-.11.12.64,1.14-.06.14-.11.16-.17.09l-.76-.39c-.3-.25-.06-.3-.24-.52-.29.08-.41-.37-.76-.54.29.35.29.59.05.54l.54.35c.06.78-.91-.67-.85.12l-.13-.4c0,.32-.64.46-.2,1.4-.12-.09-.36-.34-.34-.47-.5.18-.25,1.53-.94,1.27l-.16-.27c0,.12.22.55-.06.38-.07-.11-.16-.27-.2-.26s.13.59-.08.52l-.13-.34c-.63,0-.07,1.14-.25,1.56a1.45,1.45,0,0,0-1.3-.7l-.08-.11c-.53.27-.29,1.2-.46,1.82-.88-.55-1.11.41-1.88.33a1.24,1.24,0,0,1,.45.68c-.22-.06.15.7-.38.05h0c-.62-.56-.67-.23-.83-.11l.71.84c-1.46-.83-.61,1.36-1.79.5.1.29,0,.39.08.68l-.4-.44a1.06,1.06,0,0,0-.76.6l-.23-.36c-.2.14,1,1.43.83,1.61l-.67-.58c-.29.3-1.13.06-.87.92-.08-.1-.25-.29-.23-.36-.16.12-1,.13-.06.92-.56-.55-.35.26-.26.66l-.39-.43c.39.65.53.8.5,1.13-.1,0-.37-.28-.21-.24-.36-.06.28.5-.12.46l-.2-.32c-.18.12,0,.25.2.63s-.38.19-.78-.15c.21.24.43.62.24.61a.73.73,0,0,1-.24-.3c-.53,0,.11.85-.46.63a1.32,1.32,0,0,0-.28-.21c.21-.19.39-.34.4-.29-.38-.37-.61-.27-1-.92.16.41.57,1.25.24,1.23a.79.79,0,0,1-.16-.1l0-.06c-.07,0-.07.07,0,.16-.11,0-.19,0-.24,0-.34-.29-.36,0-.45.09.43.4.25.44.7.67,0,0,0-.06,0-.13a.28.28,0,0,0,0-.08l0,0,.17-.23c.15.28.26.52-.06.38.23.3.46.62.57.77-.7-.45-1.22-.55-1.61-.87,0,.48-.41.73.22,1.66,0,.17-.3-.14-.45-.24s0-.15-.07-.28c.06.33-.33.48.18,1.06-.42-.07-.4-.6-.55-.27l-.14-.2c-1.32-.4.61,2.16-1,1.55a.5.5,0,0,1,.25.13c-1.08.07-.82,1.67-2.17,1.39-.32,0,0,.38.12.75l-.45-.44.29.71c.07.63-1.44-.79-1.14.24l.31.3c-.17,0-.23.5-.52.11,0,.07.24.37,0,.24l-.21-.25,0,.68c-.38,0-.76-1.06-1.14-.86a2.33,2.33,0,0,0,.39,1.18c.06,0,.26.07.46.33l0,.22c.55.8,1,1.68,1.76,2l-.14-.64.36.32-.17.16c.37.27.2-.09.11-.36a1.29,1.29,0,0,0,.41.34l-.35-.89c.26.27.36.66.64.72-.17-.42-.62-.6-.63-1,.37.27.57.57.45.18a.93.93,0,0,1,.27.45c-.08-.32.2-.33-.07-.77.45.33.27-.4.84.31-.1-.19-.27-.71-.2-.81.53,1,.4-.26,1.12.67-.51-.85.18-.73,0-1.34,0,.07.12.21.06.19.18-.05.42.14.62.2a4.43,4.43,0,0,1-.69-1.39c.68.44.55.79,1.11,1.3-.45-.48-.18-.73-.61-1.09a2.68,2.68,0,0,1,.78.53c-.67-.77,0-.23-.34-.78.51.22.7.66.66.26A.91.91,0,0,1,156.46,176.15Zm2.88-5.37h0l-.06.11A.61.61,0,0,0,159.34,170.78Zm.33-.36a.52.52,0,0,0-.16.14c-.16-.13-.3-.29-.26-.31S159.49,170.36,159.67,170.42Zm-3.62-2.08c0-.11.09-.05.19,0a.34.34,0,0,0,0,.14l0,.05Z"/><path class="a" d="M156.51,169a.43.43,0,0,0,0,.05l.12.06-.11-.15Z"/><path class="a" d="M192.82,144.76h0a.68.68,0,0,1,.05.07Z"/><polygon class="a" points="165.06 166.63 164.96 166.53 165.02 166.65 165.06 166.63"/><path class="a" d="M196.07,145.42l.1.12A.53.53,0,0,0,196.07,145.42Z"/><path class="a" d="M197.15,145l.24.12A1,1,0,0,0,197.15,145Z"/><path class="a" d="M198.07,144.93l-.09-.23h0Z"/><path class="a" d="M186,151.73a.05.05,0,0,0,0,0C186,151.9,186,151.84,186,151.73Z"/><path class="a" d="M189,148.61a1.58,1.58,0,0,1,0,.3C189.1,148.92,189.15,148.9,189,148.61Z"/><path class="a" d="M182.34,154.55h0l0,0Z"/><path class="a" d="M188.84,149c.11.07.16,0,.17-.08S188.85,148.89,188.84,149Z"/><path class="a" d="M201.61,143.55h0a.23.23,0,0,1,0-.09Z"/><path class="a" d="M201.63,143.47v-.08S201.6,143.41,201.63,143.47Z"/><path class="a" d="M201.67,143.21l0,.18S201.72,143.37,201.67,143.21Z"/><path class="a" d="M200.45,143.8l.08.2C200.51,144,200.49,143.89,200.45,143.8Z"/><path class="a" d="M200.16,144c.09,0,.38.31.43.14l-.06-.15C200.61,144.31,200.08,143.65,200.16,144Z"/><path class="a" d="M197.71,142.27l.34,0c-.15-.18-.34-.42-.24-.53C197.19,141.31,198.1,142.18,197.71,142.27Z"/><path class="a" d="M196.74,142.36c.1-.16-.14-.29-.19-.41C196.54,142.18,196.55,142.23,196.74,142.36Z"/><path class="a" d="M190.75,145.25l-.22-.48C190.45,144.89,190.62,145,190.75,145.25Z"/><polygon class="a" points="190.84 148.28 191.1 148.52 190.93 148.06 190.84 148.28"/><polygon class="a" points="188.47 145.23 188.49 145.14 188.39 145.4 188.47 145.23"/><path class="a" d="M178.66,150.76l.36.55C179,151.17,178.68,150.52,178.66,150.76Z"/><path class="a" d="M174.85,153.88c-.22-.25-.45-.35-.35,0C174.62,153.83,174.85,154,174.85,153.88Z"/><polygon class="a" points="162.45 161.9 162.38 161.67 162.37 161.93 162.45 161.9"/><path class="a" d="M221.82,127.53c.21,0,.51-.3.28-.49l-.69.21Z"/><path class="a" d="M221.75,125.16a1.52,1.52,0,0,0-1.58.43c.74-.08.56.14,1.42,0a.4.4,0,0,1-.13.66c.21,0,.14.46.59.35.22-.62,0-1-.69-1.21C221.43,125.23,221.63,125.21,221.75,125.16Z"/><path class="a" d="M226,118.09l-.21-.16A.49.49,0,0,0,226,118.09Z"/><path class="a" d="M238.62,105.47a.16.16,0,0,0,0,.22C238.64,105.59,238.68,105.5,238.62,105.47Z"/><path class="a" d="M240.23,105.47l-.06,0C240.19,105.49,240.21,105.53,240.23,105.47Z"/><path class="a" d="M226,118.09a3.08,3.08,0,0,0,.59.33C226.61,118.21,226.26,118.22,226,118.09Z"/><path class="a" d="M218.18,122.67a.53.53,0,0,0,.29.14l-.19-.18Z"/><path class="a" d="M220.65,115.59l-.07,0c0,.12.11.27.18.45C220.72,115.86,220.68,115.72,220.65,115.59Z"/><path class="a" d="M218.5,114.94a8.37,8.37,0,0,0-.56-.7l-.94-1.11a12.36,12.36,0,0,1,.76,1Z"/><path class="a" d="M219.52,120.29l.15.11Z"/><path class="a" d="M222.86,117.16a1,1,0,0,0,0,.25A1,1,0,0,0,222.86,117.16Z"/><path class="a" d="M220.1,135.35l-.08-.06C220,135.35,220.07,135.38,220.1,135.35Z"/><path class="a" d="M213.56,139.12l0-.1-.25-.21Z"/><path class="a" d="M240.62,106.75h0C240.57,106.74,240.58,106.75,240.62,106.75Z"/><path class="a" d="M244.25,130.72c.69.36-.71.89.27,1.23C244.38,131.75,245,130.87,244.25,130.72Z"/><path class="a" d="M218.16,122.5a1.64,1.64,0,0,1-.14-.22A.59.59,0,0,0,218.16,122.5Z"/><path class="a" d="M244.52,132h0l.1,0Z"/><path class="a" d="M239.21,118.46a.77.77,0,0,0,.29-.19C239.44,118.27,239.36,118.31,239.21,118.46Z"/><path class="a" d="M241.49,108.91l-.11.22A.41.41,0,0,0,241.49,108.91Z"/><path class="a" d="M243.52,123.74c.17.08.22.17.5.13l-.07-.08A.36.36,0,0,1,243.52,123.74Z"/><path class="a" d="M248.87,124.53s-.05-.08-.07-.13h-.17Z"/><path class="a" d="M215.76,133.68a2.13,2.13,0,0,1,.57.1C215.94,133.61,216.25,132.91,215.76,133.68Z"/><path class="a" d="M218.45,122.5c-.14,0-.22,0-.29,0l.12.13A.26.26,0,0,0,218.45,122.5Z"/><path class="a" d="M245,119.31l0,0,.4.09-.39-.11A.06.06,0,0,0,245,119.31Z"/><path class="a" d="M231.4,145.92l-.16-.29A.51.51,0,0,0,231.4,145.92Z"/><path class="a" d="M247.92,119.71a1.29,1.29,0,0,0,.41.47.5.5,0,0,0,.12-.13Z"/><path class="a" d="M216.34,133.79h0Z"/><path class="a" d="M218.22,128.55c-.44.64.42.73.7,1.11-.34.89-.71,0-1.22.08-.15.6.18,1.36-.09,1.7-.12,0-.21,0-.28-.17.16.85-1,1.52-.78,2.55a.58.58,0,0,1-.21,0,3.1,3.1,0,0,1,.93.5,1.31,1.31,0,0,0-.12.5c0,.14-.1.23-.36.17a.24.24,0,0,0,.05-.27c0-.07-.09-.15-.13-.23v.21c0,.07,0,.17,0,.25-.44,0-.4-.17-.29-.39s.17-.35,0-.5c-.06.18-.08.35-.19.66s-.16.52-.23.77a2.38,2.38,0,0,1-.63,1.16c-.9,0,.83-1.6-.46-.85l1-1c-.8.16-.68,0-.53-.17s.29-.4-.54-.24a7.5,7.5,0,0,0-1.19,1.82,6.57,6.57,0,0,1-1.17,1.77c.13.17.34.11.56.06s.42-.09.56,0a1.92,1.92,0,0,1-.74,1.09,10,10,0,0,1-1.29.87,9.34,9.34,0,0,0-1.23.86c-.32.29-.52.59-.42.85.26,0,.78-.09,1-.07s.27.18-.57.94q-.68.25-1.32.45c-.83,1.06.09.6.34.63s.45,0,.25.36c-.61.26-1,0-1,.16-.41.51,0,.39.37.22s.87-.43.93-.31l-1,.75.31.07.08,0h.54c.49,0,1,0,1.48-.08l1.38-.14c.43-.05.84-.11,1.23-.14-.27.22-.73.43-.58.66.56-.08,1.08-.14,1.59-.17l.78-.08c.26,0,.51,0,.79,0s.55-.06.82-.08.27,0,.42,0l.44-.07a14.94,14.94,0,0,0,1.85-.35c.34-.37.65-.72.93-1.07.2-.07.43.1.21.35,1-.25,0-.43.39-.9.47-.28.77,0,.48.36l.63-.53.33-.27c.1-.09.13-.14.21-.21a6.88,6.88,0,0,1,.86-.76,2.77,2.77,0,0,1,1.91-.69l-.11.25c.42-.06.5-.42.6-.77s.22-.64.67-.5l-.09.15c.21,0,.42-.1.63-.16l.63-.18a3,3,0,0,1,.36-.1l.33-.08a.54.54,0,0,1,.56.14.73.73,0,0,1,0,.73c.75-.52-.11.71,1.14.56a5.19,5.19,0,0,1-.33,1.12,3.69,3.69,0,0,0-.11,1.36c.07.38.91.32,1.18.76l-.61.2.84.45-.63.57.15.2a1.21,1.21,0,0,1,.16.26s0-.08,0-.13a.19.19,0,0,1,0-.08.46.46,0,0,1,.07-.16.43.43,0,0,1,.25-.18,1.35,1.35,0,0,1,.15.26,3.45,3.45,0,0,1,.12.46,6.64,6.64,0,0,1,.09,1,3.46,3.46,0,0,1-.2,1.44c.24.43.46.86.69,1.22l.68,1c-.19.24-.41-.11-.67-.32.51.4.41.63.32.9a.54.54,0,0,0,.27.8c0-.35.27-.39.35-.53a5.23,5.23,0,0,0,1.23,3l-.24.53a13,13,0,0,0,.72,1.17c.25.34.51.67.77,1l.79,1c.28.36.56.74.85,1.17-.43-1-.35-2.24-.07-1.95l.2,1.49c.17-.5-.37-1,0-1.35.41.73.41,2,.17,2l.51.33a5.17,5.17,0,0,1,0,1c0-.07.06-.07.1,0l.07.09,0-.07a.76.76,0,0,1,.23-.13c.17-.08.36-.26.33-1.21l.09.36c.69-1.67.88-2.86,1.38-4.27a3.9,3.9,0,0,1-.18-1.23,7.13,7.13,0,0,0-.07-1.43c.2-.5.47-1,.74-1.61a10.63,10.63,0,0,0,.69-2.31c0-.76-.08-.92-.19-1a.75.75,0,0,1-.35-.5c.48.32.8-1.46,1-.35.09-.55.17-1,.24-1.41l.08-.58,0-.33a16.76,16.76,0,0,0,0-1.78c-.25.13-.38.3-.54.16,0-.3.36-.6.6-.5l0,.08c-.41-1.92,2.37-3.74,1.58-5.36l0,.09-.13-.79-.06-.39a1.74,1.74,0,0,1-.11-.18c.08-.13.16,0,.27,0a.64.64,0,0,0,.43.17c-.27-.23-.27-.46-.17-.56a.62.62,0,0,1,.37-.09.28.28,0,0,0,.16,0l0,0,.13-.07a2.51,2.51,0,0,0,.29-.2c.7.63,1.64.34,2.57-.07a4.83,4.83,0,0,1,2.73-.73l-.22-.31c.22-.48.5,0,.8,0-.15-.25-.51-.16-.37-.43a20.9,20.9,0,0,1,2.18-1.06l1.15-.45.32-.13.47-.2,1-.43c.66-.28,1.3-.6,2-.93s1.3-.67,2-1c1.3-.73,2.54-1.52,3.78-2.33.89-.61.29-.76-.14-.91s-.74-.27,1-1a8,8,0,0,1,.82.24c.11-.14.22-.29.35-.43a2.82,2.82,0,0,0,.34-.41,53.33,53.33,0,0,1-5.17-1.48,22.71,22.71,0,0,0-5.11-1.16c.32-.08.49-.26.86-.15-.2-.32-1-.53-1.75-.6s-1.33,0-1.39.22c-.56-.17,0-.38-.35-.67-.48-.4-1.35.37-1.51-.17,0-.09.16-.13.26-.15-.36.17-1.45-.35-1.26.28-.8-.43-1.66,0-2.29-.49-.54.57-1.41-.53-1.68.36.09-.46-.26-.7-.71-.78a2.35,2.35,0,0,0-.7,0,1.3,1.3,0,0,0-.29.08.71.71,0,0,0-.1.14c.09-.27-.06-.3.1-.68-.06,0-.24.14-.51.58.07-.29.1-.38,0-.4s-.2,0-.33,0-.43-.18.33-.44a.69.69,0,0,1-.31-.26s0-.14,0-.25l0-.33c0-.22,0-.43,0-.65-.05-.86-.07-1.69-.06-2.5.92.19-.17,1.78.81,1.85-.15-1.57-.81-2.56-.36-4,.18-.37.36.28.5.44-.15-1.58.53-2.92.23-4.34.08,0,.16.18.21.32,0-.27.23-.59-.2-.63l.07.28c-.67.33-1.11-1.25-1.43-1.34.29.15.46.15.58.08s.2-.27.29-.47a1,1,0,0,1,.36-.49c.16-.09.4-.09.74.21,0-.3-.19-.64-.49-.54.14-.39.34-.58.61-.19,0-.79-.17-1-.3-1.13s-.24-.32-.27-.88c.2-.1.3.09.55.12a7.42,7.42,0,0,1-.62-.64,5.54,5.54,0,0,1-.53-1v0c.06,0,.11-.08.17-.11s.1,0,.17.12l-.12-.17a2.63,2.63,0,0,0-2.14-.66,18.43,18.43,0,0,1-2.25.08c.32-.5.18-.55-.07-.58s-.58,0-.66-.36a7,7,0,0,0-1.08.59,3.61,3.61,0,0,1,.49.21c-.92.31-1.4,1.27-2.07,1.46a3.77,3.77,0,0,1,.35-.64l-.34.28-.28.26c-.18.17-.34.34-.5.52a7.64,7.64,0,0,1,.8-.29.57.57,0,0,0,.11.7c.1.14.13.22-.28.45.07-.19-.5.45-1.07.42h0a1.28,1.28,0,0,1-.52,1.12c-.28,0-.62-.61-.8-.64.3.66-.8,1.41-.46,2.14a.89.89,0,0,0-.48-.45l.28.52c-.31.16-.4.15-.64-.07-.59.69,1,.31,0,1,0-.09-.07-.11,0-.3-.79.77-.91,1.9-1.7,2.56-.8-.23.35-.81-.38-.93-.71,1.23-1,2.93-2,3.91l.23-.15c.75.82-1.06.47-1.09,1.33,0-.18-.34-.55-.27-.44l-.13.12-.1.1a1,1,0,0,0-.11.17c-.07.12-.13.27-.21.44a1.52,1.52,0,0,1-1,.93,2.64,2.64,0,0,0,.1-.3c-.37-.27-.87-.42-1.11-.73-.18.22-.55,0-.55.43a2.74,2.74,0,0,0-1.15-1.34,5.69,5.69,0,0,0-1.42-.6,6.14,6.14,0,0,1-1.28-.48,4.69,4.69,0,0,1-1.35-1.24c.2.12.44,0,.27-.09l-1.41-.58a5.81,5.81,0,0,0,.77,1.11c-.06.25-.3.3-.6.11.19,0,.1-.26-.1-.57a11.7,11.7,0,0,0-.75-.93c.13.22.13.38.25.58-1.26-1.56.5,1.21-.78-.12l-.14-.32c-.26,0-.27.24-.68-.08-.68-.9.11-.15-.26-.78-.27-.15-.3.06-.35.19s-.15.15-.69-.41c0-.1.36.1.44,0a7.37,7.37,0,0,0-1.69-1.51l.06,0c-.62-.62-.47,0-.58.18l.17,0a6.43,6.43,0,0,1,1.13,2.39,3.71,3.71,0,0,0,.77,1.83c-.64-1-.8-1.17-.9-1.2s-.13.09-.51-.29c-.15.08-.31.33-.54,0,.35.54.28.66.24.85s0,.46.5,1.15c-.24-.13.13.57-.53.06.39.87.39.08.72.36a2.36,2.36,0,0,1,.46,1,5.19,5.19,0,0,1,.06.89,2.85,2.85,0,0,0,.23,1.1,3.38,3.38,0,0,0,.88,1.29,4.84,4.84,0,0,0,1.44,1.31,7.18,7.18,0,0,1,1.23.8c-.11.47-.79.11-.79.11a1.59,1.59,0,0,0,.77,1.36c-.21,0-.28.17-.39.43.28.35.78-.13.83.51a2.75,2.75,0,0,1-.92.06c.44.34,1,.58,1.47.93-.22.31-.63,0-.93,0,.46.42,1.12,1.14,1.69,1l0-.43c.14.17-.34.36-.52.28-.64-.19-.24-.73-.08-.86l.31.25c.79-1-1-1.17-1.32-1.87l.9-.18-1-.3c.11-.26.47-.6.77-.35.09-.67-.51-.25-.33-.89,0-.08.09-.08.14-.06L219,120c.21,0,.49-.37.54,0a1.7,1.7,0,0,0-.06-.35.64.64,0,0,0-.11-.2,1.66,1.66,0,0,0-.35-.28c-.25-.17-.48-.35-.19-.5l.09.05c-.38-.43-.59-.49-.83-.49a1.61,1.61,0,0,1-1.19-.52,4.68,4.68,0,0,1,1.7-.11c-.29-.1-.58-.22-.88-.34,0-.1,0-.29.33-.12-.37-.3-.47-.34-.54-.33s-.14,0-.47-.21c.28-.12,0-.52-.1-.88s-.18-.6.61-.09c-.41-.36-.52-.34-.61-.34s-.17,0-.53-.51c.84.52.72.34.46,0s-.66-.92-.3-.8c1,1,.58.93,1.33,1.27-.83-.82-.81-1-.6-1s.61.29.42,0a3.12,3.12,0,0,1-.93-1.45c0-.16,0-.31-.07-.49,0,0,0-.08,0,0l.05,0,.08,0c.06,0,.09,0,.11,0,.43.58,1.76,1.62,2.51,2.43l.14.24c-.85-1.45-.12-.81.14-.84a4.77,4.77,0,0,1,.51,1.33l.28.18c-.14-.38-.15-.54,0-.54l.34.89c.16.09.24-.06.41-.09s.41,0,.72.47a11.74,11.74,0,0,0-.39-1.42c-.17-.54-.14-.84.33-.74a3.36,3.36,0,0,1,0,.55c0,.21,0,.38-.09.4s.2-.16.35.08a2.3,2.3,0,0,0-.23.44c.32.45.1-.42.37-.2,0,.51.19.48.16.84-.05,0-.2-.33-.27-.18a2,2,0,0,1,.57,1.11c0-.27,0-.62.24-.56.46.25.05.61.2,1,.18-.22.3.2.59-.34.13.09,0,.35,0,.51.3,0,.86.36,1.32.49s.78.1.57-.31l-.1-.09a.21.21,0,0,0,.08,0h0c.38,0,.74,0,1.11,0a3.34,3.34,0,0,0,1.13-.11,3,3,0,0,0,1.82-1.44l.15.14c.33-.78.94-1.41.93-2.11a.54.54,0,0,1,.75,0c.23-.55.08-.74.85-1.2-.06.68.37,0-.15.63.59-.49,1-.43,1-1.41.26.53.87-.07.95-.45l-.61.2a3.71,3.71,0,0,1,.65-.89l.45.56c1.59-.77.42-3.12,2.2-3.22-.18-.59-.73.46-1-.15.47-.52,1.66-.47,1.78-.61.4-.22.32-.51.25-.83s-.15-.68.25-.88a.78.78,0,0,1-.45-1.14.73.73,0,0,1,1.08.71c-.09.09-.19.08-.24,0-.09.19-.19.43.15.48l-.11-.23a3.43,3.43,0,0,0,.61-.16c.16,0,.24,0,.31.23,0-.29-.1-.41-.33-.41a.66.66,0,0,0,.5-.1.45.45,0,0,1,.45-.07c0-.14-.11-.44,0-.46.32.09.4,0,.51-.24s.19-.47.53-.53c.14.47-.56,1,.1.72a.63.63,0,0,1-.22.54l-.4.44c.19-.18.3-.17.32-.07a.74.74,0,0,1-.16.42c-.09.13-.19.23-.21.27a1,1,0,0,0-.23.13c.13-.09.14-.05.14,0l.54-.42a.73.73,0,0,1-.32.31,6.67,6.67,0,0,0,.64-.36,1.39,1.39,0,0,1,.73-.29c-.14.16-.09.26-.09.38s-.06.24-.4.34c.15-.27,0-.2-.25-.11s-.48.18-.53.11.07.06,0,.14a.47.47,0,0,1-.18,0c-.63.25.77-.11.68.38-.35-.19-.73.15-.68.33.07-.43.64-.11.86.32-.39.65.1.78,0,1.13l.2-.39c.34.2.24.53.28,1-.29,0-.13-.46-.28-.31.56.63-.84,1.1-.52,1.9-.3.31-.69-.07-.9.21.35.89-.64.81-.38,1.74.53-.17.42-.24.8.45l-.13-1.48.58,1c.07-.43-.17-.95,0-1.2.33.5.22.43.66.29-.83.48.25,1.23-.35,1.84l-1.21-.2c-.7.94.35,1.91-.16,3.19l.28-.39c.45.25-.06.83.07,1.29a.68.68,0,0,0-.48,0l-.19.12a2.08,2.08,0,0,0-.21.21c.15,0,.08.39.08.81s.12.84.53.83a4.85,4.85,0,0,0-.45,1,1.36,1.36,0,0,0,1.15,1.25,5,5,0,0,1,1.57.47.93.93,0,0,0-.5.4c-.11.12-.28.23-.82,0,.42.32.82.58,1,.35.06.17.48.19.9.18s.81,0,1,.18a2.59,2.59,0,0,0,.36-.32,1,1,0,0,1,.22-.13.38.38,0,0,1,.24,0,.32.32,0,0,1,0,.2c0-.2.63-.2.35-.69.89,1.4,3,.32,3.7,1.57a14.65,14.65,0,0,1,2.34.14c-.07.11,0,.2-.16.13.42.28.62,0,.84-.23s.49-.48.85-.18c.16.72-.52.25-.35.55-.13.66,0,.64.24.58s.66-.16.49.21l-.14.05c-.07.22.13.13.49,0a2,2,0,0,1,1-.08,2.17,2.17,0,0,0-.3.13,9,9,0,0,1,3.7-.13,8,8,0,0,0-1.94.32,6.32,6.32,0,0,0,1.16-.18,5,5,0,0,1,1.58-.12l-.35.16-.12,0-.07,0-.13,0-.59.15a13.37,13.37,0,0,1-1.36.25l.11-.1.05,0-.1,0H256l-.32.07-.25.07-.16.06c-.05,0,0,0,0,.06s.33.07.13.14l-.7,0c-.11.22,1.43.26.63.72h.48c.45.22.14.27-.15.28s-.61,0-.41.25c-.42-.08-.82-.16-1.21-.26a1,1,0,0,1,0,.56,1.52,1.52,0,0,1-.44.77c-.1-.63,0-1.09-.18-1.38a.53.53,0,0,0-.28.7c0-.11-.05-.3.14-.26a.76.76,0,0,1,.06.8,1.07,1.07,0,0,1-.27.34l-.2.15-.27.15c-.29-.75-.82-.59-1.43-.37s-1.28.5-1.79,0c-1.14,1.11-2.79.82-4.36,1.38.92,1-.47.17,0,1.37-.38.18-.53.2-.59.13l-.35-.1a1.25,1.25,0,0,0-.4-.09,6,6,0,0,0-1.05-.07c-.31-.07-.2-.19,0-.33s.43-.25.34-.38c-.76.2-1,.19-1.15.09A.87.87,0,0,0,241,131c.38.2.07.59-.41,1.06l-.39.36.51-.24a4.86,4.86,0,0,1,.8-.24c-.17.24-.3.44-.43.59a4.21,4.21,0,0,1-1.16.92,1.36,1.36,0,0,0-.48.6,2.31,2.31,0,0,0-.15,1.19,5.88,5.88,0,0,1-.22-.83c-.09.86-.15,1.24-.2,1.9a2.11,2.11,0,0,0,.47,1.67c-.17.08-.54.16-.57-.14-.47,1.51.34,3.66-.52,4.73l-.28-.18c0,.3.46.62.08.91-.12,0-.28-.18-.32,0s.12.31.18.55l0,.18v.09s0,0,0,0a.08.08,0,0,1-.06.1,2,2,0,0,0-.31-.19c-.23.11-.05.26.16.68a3.79,3.79,0,0,1,.46,1.54,10.16,10.16,0,0,0-.76-1.07c-.17-.21-.26-.33-.32-.42l-.08-.24a8.67,8.67,0,0,0,.13,1.22,24.76,24.76,0,0,1,.16,2.84c0-.23-.09-.51-.14-.81s-.1-.48-.15-.75-.16-.6-.22-.78a2.68,2.68,0,0,1-.2-1.3,7.21,7.21,0,0,1-.33,1.57c0-.25-.1,0-.16,0s-.1,0,.12-.74v.08c.18-.78.24-1.07.25-1.2s0-.09,0-.16c-.24.47-.48.93-.73,1.37a4.43,4.43,0,0,0,.28-1.15c0-.17-.11-.25-.24-.37l-.09-.09,0-.05-.06-.14a2.83,2.83,0,0,1-.22-.61,1.11,1.11,0,0,1,.2-1.08c-.38-.31-.54-.79-.93-1.09l.57-.16a11,11,0,0,0-.35-1.45,7.31,7.31,0,0,0-.27-.72c-.07-.14-.13-.29-.21-.45s-.25-.48-.39-.74c.19.07.38.16.58.25a1.55,1.55,0,0,0-1.36-.91c-.5-.07-1,0-1.29-.32.12-.31.22-.62.31-.94a4.2,4.2,0,0,0-1.35-.8,3.88,3.88,0,0,0-.76-.21l-.4,0-.42,0a10,10,0,0,0-1.7.25,2.67,2.67,0,0,0-1.16.7c0-.13-.05-.39.18-.49a11.23,11.23,0,0,0-1.58.39c-.52.22-.84.53-.49,1-.34-.72-1.38.53-1.86,1.17l-.16-.57c-.22.94-.15,1.13-.81,1.7-.21,0-.37-.34-.06-.33-.36,0-.45.21-.44.36s-.08.35-.34.31a3.49,3.49,0,0,0,0-.44c-.32.11-.23.29-.43.87a.4.4,0,0,1-.49.18c-.15-.08-.21-.31-.14-.64a3.4,3.4,0,0,1-.34.69c-.14.21-.31.36-.39.3a2.22,2.22,0,0,1,.31-.56c-.17-.16-.45.15-.81.44s-.72.56-.6.15a3.62,3.62,0,0,0,.36-.53c.4-.07.7-.16.64-.08.22-.39.28-.6.41-.86s.35-.59.7-1.15a7.59,7.59,0,0,1-1,1.23c-.4.4-.83.72-.78.52l.25-.3.12-.1c0-.08-.09,0-.29.16.06-.13.14-.24.09-.25.79-.75.26-.4.21-.45a22.18,22.18,0,0,0-2.15,1.63.68.68,0,0,1,.36-.14.73.73,0,0,0,.2-.1L217,140l.51-.07c-.66.5-1.38.93-.93.38-.89.62-1.89,1.25-2.4,1.55l.95-.95a3.7,3.7,0,0,1,.56-.47l.58-.45c.74-.56,1.33-1,1.9-1.34-.12,0-.17,0-.22,0s-.16-.25-1.36,0c-.1-.1.64-.37,1-.5.11,0,0,.12.25.07-.14,0,0-.23,0-.38s-.08-.29-.54-.3c.39-.25.55-.18.67-.15s.19,0,.29-.21l.23.08c.52-.21.62-.31.64-.51a1.63,1.63,0,0,0,0-.36.33.33,0,0,1,0-.16l0-.18.05-.38a2.77,2.77,0,0,1,1.69-2.56c-.18.08-.26.12-.39.08,1.38-1.22,2.07-3,3-4.52l-1.74-1.3a7.39,7.39,0,0,1-2.23,2c-.66.46-.34.83-.35,1.43l-.59-.26.06,1.08c-.3,1.22-2.45.58-2.56,2.35l.45.11c-.38.36-.81,1.45-1.15,1.09,0,.08.25.4,0,.42l-.27-.18-.33,1.35c-.78.65-.94-.91-1.87.21-.22.5-.15,1.8.15,1.77a.61.61,0,0,1,.77-.14l-.16.49c.72.65,1.3,1.54,2.55,1l0-1,.54.07-.4.58c.59,0,.43-.49.39-.87a.76.76,0,0,0,.62,0l-.24-1.2c.36.15.37.74.87.44-.11-.56-.9-.23-.74-.9.6,0,.81.27.79-.33a.42.42,0,0,1,.28.49c0-.51.57-.94.3-1.43.68,0,.75-1.19,1.45-.58a2.09,2.09,0,0,1,.09-1.34c.42,1.22.95-1.07,1.75-.19-.45-1,.83-1.71,1-2.75,0,.08.08.26,0,.29.39-.34.72-.26,1.07-.39-.58-.58-.21-1.31-.32-2h0l-2.26-1.69a.66.66,0,0,1-.77-.5l3.73,2.79a.85.85,0,0,0,.45.64.49.49,0,0,1-.2-.43l-4.25-3.19c.06.4-.14.91.27,1-.67.13-.43.21-1.13,0,.8.64-.1.47.2,1.15-.81.3-.9-.38-1.06.43C218.14,129.32,218.22,128.55,218.22,128.55ZM214,144.37v0l-.45,0Zm1.74-.18-.35,0-.39,0c.11-.22.34-.45.5-.46C215.3,144,215.59,144.06,215.74,144.19Zm2.92-5.48c.23-.14,0,0-.19.25l-.27.13-.15.12Z"/><path class="a" d="M216.93,140a.91.91,0,0,1-.14.07c-.08.09-.15.16-.2.23L217,140Z"/><path class="a" d="M225.73,117.91l0,0a.2.2,0,0,1-.06-.11S225.72,117.88,225.73,117.91Z"/><polygon class="a" points="230.58 144.2 230.72 144.15 230.56 144.06 230.58 144.2"/><path class="a" d="M218,111.06a2.64,2.64,0,0,0-.2-.26A1.82,1.82,0,0,0,218,111.06Z"/><path class="a" d="M214.14,108.62l-.39-.33c-.05,0,0,0-.05,0l0,0,0,.09.07-.09,0,0,.08.06Z"/><path class="a" d="M214,111.17a4.36,4.36,0,0,0,.31.35h0Z"/><path class="a" d="M245.39,109.3a.2.2,0,0,0,0,.11C245.47,109.68,245.45,109.51,245.39,109.3Z"/><path class="a" d="M236,105a1.79,1.79,0,0,1,.12-.53C235.87,104.58,235.73,104.72,236,105Z"/><path class="a" d="M245,119.29h0a0,0,0,0,1,0,0Z"/><path class="a" d="M236.59,103.94a.8.8,0,0,0-.5.48A1.52,1.52,0,0,0,236.59,103.94Z"/><path class="a" d="M219.51,124.88l.05.13a.18.18,0,0,1,.09,0Z"/><path class="a" d="M219.65,125l.14.09C219.75,125,219.72,125,219.65,125Z"/><path class="a" d="M220.09,125.25l-.3-.19C219.85,125.15,219.91,125.28,220.09,125.25Z"/><path class="a" d="M217.72,121.48l-.2.07A.43.43,0,0,0,217.72,121.48Z"/><path class="a" d="M217,120.35a2.36,2.36,0,0,1,.07.33,2.81,2.81,0,0,1,0,.36.84.84,0,0,0,.21.56l.17,0C217.15,121.53,217.55,120.61,217,120.35Z"/><path class="a" d="M218.07,116.31a4.5,4.5,0,0,0,0,.52,1.06,1.06,0,0,1,.83.39c.36-.09.2-.12-.08-.25S218.15,116.69,218.07,116.31Z"/><path class="a" d="M218.07,114.89c.25.47.57.55.8.8C218.48,115.19,218.37,115,218.07,114.89Z"/><path class="a" d="M231.9,114.32l.39.36C232.47,114.32,232.13,114.55,231.9,114.32Z"/><polygon class="a" points="232.08 109.41 231.59 109.53 231.89 109.96 232.08 109.41"/><polygon class="a" points="236.57 109.58 236.53 109.76 236.74 109.12 236.57 109.58"/><path class="a" d="M247.9,124.89v-.66C247.61,124.3,247.44,125,247.9,124.89Z"/><path class="a" d="M254.86,127.18c-.64,0-1.08,0-.72.18C254.34,127.29,254.91,127.25,254.86,127.18Z"/><path class="a" d="M236.2,144.64a1.53,1.53,0,0,0,.18-.18.38.38,0,0,1-.17.08Z"/><path class="a" d="M248.64,124.9c-.21.15-.15.57.36.55l.43-.65Z"/><path class="a" d="M252,126.36c.62-.34,1.27-1,.85-1.58-.55.69-.69.42-1.33,1.21-.52.07-.9-.25-.8-.5-.19.18-.77-.19-1.08.22a2,2,0,0,0,2.4.2C252.23,126.05,252.05,126.24,252,126.36Z"/><path class="a" d="M242.07,135.26c0,.09.06.19.1.28A.79.79,0,0,0,242.07,135.26Z"/><path class="a" d="M238.5,139.51c0,.24.07.34.14.35C238.59,139.64,238.57,139.46,238.5,139.51Z"/><path class="a" d="M239.79,134.33l-.1.3C239.77,134.52,239.83,134.41,239.79,134.33Z"/><path class="a" d="M242.07,135.26a6.52,6.52,0,0,1-.21-.72C241.64,134.6,241.9,135,242.07,135.26Z"/><path class="a" d="M253.87,127.08a1.24,1.24,0,0,0,.48-.08l-.43,0A.31.31,0,0,1,253.87,127.08Z"/><path class="a" d="M245.23,127.35l.37.07a1.34,1.34,0,0,0,.25-.23C245.63,127.24,245.42,127.29,245.23,127.35Z"/><path class="a" d="M243.89,129c.22.15.57-.33.77-.51a.75.75,0,0,1-.67.09A.89.89,0,0,0,243.89,129Z"/><path class="a" d="M252,124.29l.31,0Z"/><path class="a" d="M241.9,133.17a.44.44,0,0,0-.21.08A.32.32,0,0,0,241.9,133.17Z"/><path class="a" d="M225.87,118.86l-.1,0C225.81,118.91,225.85,118.94,225.87,118.86Z"/><path class="a" d="M218.59,113.34l.12.13.3-.13Z"/><path class="a" d="M235.7,131.15s0,0,0,0C235.67,130.85,235.67,131,235.7,131.15Z"/><path class="a" d="M228.34,132.53c-1.06.48.54-1.73-.89-.88C227.72,131.68,227.26,133.33,228.34,132.53Z"/><path class="a" d="M253.63,127l-.42-.09A1.51,1.51,0,0,0,253.63,127Z"/><path class="a" d="M227.45,131.65h0l-.14.09Z"/><path class="a" d="M235.82,132a.73.73,0,0,0-.19.29C235.69,132.28,235.75,132.21,235.82,132Z"/><path class="a" d="M236.07,136.94l-.15.39A1.79,1.79,0,0,0,236.07,136.94Z"/><path class="a" d="M231.72,136.15c0-.12,0-.2,0-.29a.81.81,0,0,0,0-.15.64.64,0,0,1,0-.09l0-.15a.52.52,0,0,0-.06.15A.53.53,0,0,1,231.72,136.15Z"/><path class="a" d="M226,130.46l.22,0,.34-.29Z"/><path class="a" d="M227.42,130.19a1.69,1.69,0,0,1,.37-.64C227.44,129.83,226.87,128.28,227.42,130.19Z"/><path class="a" d="M253.94,126.76a.34.34,0,0,1-.31.19l.29,0C254,126.9,254,126.82,253.94,126.76Z"/><path class="a" d="M227.11,136.35v-.14h0v-.09l0-.12a1.12,1.12,0,0,0-.05.13.07.07,0,0,0,0,.05S227.08,136.17,227.11,136.35Z"/><path class="a" d="M242.73,115.92l.05.36A.53.53,0,0,0,242.73,115.92Z"/><path class="a" d="M226.92,135.55A1.27,1.27,0,0,0,227,135a2.3,2.3,0,0,0-.09.25A.81.81,0,0,1,226.92,135.55Z"/><path class="a" d="M227.8,129.55h0Z"/><path class="a" d="M225.05,120.61c.25.91.86.22,1.34.32.26.66.15.86-.06.95s-.51.06-.66.33c.33.82,1.1,1.53,1.13,2.3-.12.07-.15.22-.32.06a5.83,5.83,0,0,1,.55,2.25,4.74,4.74,0,0,0,.9,2.49.58.58,0,0,1-.13.24,1.51,1.51,0,0,1,1-.49c.17.67.83,1,.44,1.46-.12-.4-.33-.37-.54-.51l.45.62c-.18.44-.37.24-.52-.07s-.31-.72-.56-.64c.16.31.35.62.54.92l.66.87,2.77,3.63-.22-4a4.9,4.9,0,0,1,.17-2c.73-.07-.19,2.31.67,1.13l-.35.94-2,5.31-1.47-4.77-.2-.64c-.37,1.81-.43-1.11-.93.64l.2.5,3.28,8.17,2.16-9c.39-1.61,0-2,.53-3.81-.3-.52-.6,0-.9-.48-.17-2.92,2.15-1.87,1.62-4.09-.37-.62-1.21-1-.47-2.37l.69.65c.44-1.9-.92-1.3,0-3.2.24.41,0,1.55.13,1.27.86-1.17-.27-1-.09-2l.74-.07c.09-.71.14-1.44.19-2.22l-4.39.34A21,21,0,0,1,233,119.5c-.23-.08-.53-.39-.63.16a23.44,23.44,0,0,1,1,8.09l-.11,14.08,5.64-13.76.23-.56-.33-1.21c.06-.24.37-.39.42-.1.49-1-.36-.14-.47-.72.1-.62.53-.74.62-.3-.05-2,0-5.67.94-7.62l.12.43c.48-1.57-1-2-.25-3.36l.08.29a31.88,31.88,0,0,0,.45-4.16l-3.61,0a17.2,17.2,0,0,1-.12,5.69c.92.43-.13,3.4,1.11,3.52-.34,1.47-.57,1.56-.74,2.64l-3.73,22.88,8.66-22.73c.13-.36.3-.85.49-1.57s-.64-1.21-.68-2.14l.64,0-.57-1.32.81-.62-.12-.88c-.05.34-.33.72-.51.66-.2-1.37.57-3.31.9-3.35-.17-1.09-.36-2.17-.58-3.24.26.07.37.61.54,1-.7-1.71.67-.33,0-1.91-.14.22-.39-.1-.52-.13a6.92,6.92,0,0,0,.09-3.17l-5.16.24c0,.26,0,.5.07.72l-.44-.24c-.1,2.26.16,4.79,0,7.33.26-.9,1-.65,1,.11l-.69.26c.38.51.3-.77.75.26-.15,1-.82.59-1,0l.15,1.17c-.2,0-.29-.23-.54-.32.39.52-.84,1.93-.18,2.68l-.21,0c-.27,2.53-.19,3.7-.46,5.76.57.13.31.91.68,1.6a43.61,43.61,0,0,0-1.53,4.89c0,1.32.4.47.62,1.12-.26,0-.47.37-.64.69l4.15.08c0-.42.07-.72.36-.25-.25-1.1-.41-1.8-.62-2.57-.11-.39-.23-.79-.38-1.27-.08-.23-.16-.49-.26-.77l-.07-.22,0-.11a1,1,0,0,1,0-.15c-.08-.25-.15-.51-.23-.78-.11.56-.12,1.07-.34.85a3,3,0,0,1-.1-1.15c0-.36.12-.66.25-.67l.09.18a20.15,20.15,0,0,1-.94-4.76c-.19-2.11-.39-4.26-.58-6.3a21.88,21.88,0,0,0-4.09,5.21l.15-.28q-1.42,2.24-2.57,4.11c-.63.71-.53.42-.37,0s.36-.91-.25-.43c-.16.29-.32.56-.48.83l-.23.38-.12.19-.07.11a7.74,7.74,0,0,1-.49.8,12.86,12.86,0,0,1-1.07,1.29,9.84,9.84,0,0,0-2,2.6,4,4,0,0,0-2.16,1.55l4.86.51a3.68,3.68,0,0,1-.31-1.08,7,7,0,0,1,.06-2l-5.43-1a5,5,0,0,1-.76,1.5l.4,0c.18.71-.41.68-.62,1.11.29,0,.51-.58.59-.14a71.64,71.64,0,0,1-3.91,11.93l5.93,1.15c.27-1.27.58-2.53.89-3.77a1.68,1.68,0,0,0-.49-1.69c-.3-.4-.49-.87.23-2l.51.83a14.22,14.22,0,0,1,.57-3.54l2.42-8.67L221,130.06a19.61,19.61,0,0,0-3.09,3.41,12.32,12.32,0,0,0-1.89,4.08L214,146.13l5.88-5.78c.2-.2.39-.39.57-.59-.09.27,0,.44-.28.67,1-.11,2.49-1.87,2.25-2.2.52-.34.34.2.77.14.85-.28,1.3-1.8,2-1.68.11,0-.09.28-.19.4a5.7,5.7,0,0,1,1-1c.49-.4.34-.37.16-.61.24,0,.32-.14.47-.33s.32-.37.38-.2a1.06,1.06,0,0,1,.28-.5c.1-.06.19.05.2.17s0,.37.42-.13c-.79,1.24-.61,1.26-.13,1.56a.24.24,0,0,0-.17,0s-.08,0-.11.16-.14.41-.35.25a3,3,0,0,0,.61,1.78l5.84,3.46-1-2.64a.24.24,0,0,0-.22-.17c1.89-1.27,1-4,2.77-4.34.16-.49.31-1,.45-1.4l-4.78-.47c1.09,2.5,2,4.82,2.83,7.11-.93.15-.94-3.05-1.86-2.67,1.1,2.53,2.3,3.84,2.8,6.52t0,.06h3.59c.14-.26.2-.15.24.06l1,5.58-5.11-5.58c-.16-.18-.36-.49-.47-.58.09.21.18.43.26.64l3.06,8,1.44-8c.45-2.52,1.31-4.8,1.24-7.15.08,0,.13.31.16.57.06-.49.32-1.11-.1-1.12l0,.49c-.73.66-1-2.13-1.29-2.25,1.11,1,.63-2.38,2-.88,0-.33-.19-.76-.48-.72.13-.47.31-.6.58-.08,0-1.79-.55-1.2-.41-2.79.21,0,.26.35.49.53a5,5,0,0,1-.5-2.61l-3-.35a2.84,2.84,0,0,1-.11.37c-.1-.1-.29,0-.21-.37-.36,2.24.32,4-.43,6.41-.78-.86-.42.81-1.2.84,0,.47,0,.93.07,1.4l.43-.51c-.16,1.2.32,2.3,0,3.31-.09-.3-.18-.61-.26-.91,0,.75,0,1.51,0,2.27.1-.43.21-.85.34-1.27.34,1.23,1-.08.71,1.48-.08-.31,0,1.18-.45,1.82h0a4.53,4.53,0,0,1,.45,1.33l1,0a2.34,2.34,0,0,1,.09-.71c.25-.21.85.21,1,.07-.63-.59-.07-2.72-.71-3.47a.57.57,0,0,0,.64.21l-.5-.51c.2-.53.28-.6.6-.49.19-1.61-1,.45-.47-1.44,0,.15.11.08.17.4.34-1.91-.08-3.74.33-5.49.82-.46.06,1.56.77,1,.06-2.28-.36-4.77-.11-7l-2,.27a5.16,5.16,0,0,1,.2.67l0-.42c.57,0,.59.43.52,1a2.78,2.78,0,0,0,.12,1.84c-.13-.29-.67-.29-.53-.23a10.93,10.93,0,0,0,.55,2.68,13.1,13.1,0,0,0,1.62,3.33l-.41-.2a4.77,4.77,0,0,0,.92,1.81,7.24,7.24,0,0,0,1.68,1.56l1.4,1,.69-1.76.08-.2c-.17-.42,0-1.05-.47-.76a4.55,4.55,0,0,0,.94-2.05,5.64,5.64,0,0,0,.1-1.08,4.87,4.87,0,0,0,0-.54l0-.27,0-.12,0-.09c-.09-.41-.24-.87-.39-1.38a8.77,8.77,0,0,1-.36-1.4,1.83,1.83,0,0,1,0-.21s0,0,.06,0l.09,0,.18.08a5.11,5.11,0,0,1,.74.42c-.23,0-.25.2-.09.24.36,0,.79,0,1.27,0A1.12,1.12,0,0,0,246,130c-.11-.08-.24-.16-.56-.41.09-.27.7-.38,1.3-.25-.52,0-.44.27-.25.5s.5.47.65.64c0-.16.08-.3.07-.45a1.53,1.53,0,0,0,.27.26.35.35,0,0,0,.22.06c.12,0,.18-.14.27-.26s.4-.52,1.23-.06l-.15.23c.42,0,.84-.07,1.27-.07l.1-.41a2.71,2.71,0,0,1-.77-.19c-.1-.62.76,0,.94-.44-.94-.27-2.24.33-2.88-.54.46,0,1,.25,1.48.25a3,3,0,0,0-1.46-1.22l.06,0c-.48-.31-.93-.63-1.38-1l.3.34a2.11,2.11,0,0,1-2.09-.18,4.81,4.81,0,0,0-2.19-.83c1.88.13.51-.29,1-.75-.27-.37-.69-.89-.44-.94-.81,0-.83-.81-1.71-1l-.83,3.06a2.19,2.19,0,0,0,.35-.24c.08.19.84-.08.71.45,1-.24-.27-.33-.21-.59a4.24,4.24,0,0,1,2.71-.13,6.42,6.42,0,0,0,3.24-.13c2-.27,2.42-.89,4.33-1,.29.22.13.37-.09.49a2.65,2.65,0,0,1-.53.17,5.36,5.36,0,0,0,2.67.49c-.23.13-.06.32.17.6.74.12.66-.61,1.55-.07a2.87,2.87,0,0,1-.92.6c.64,0,1.31,0,2,0l.08-2a7.27,7.27,0,0,1-.69.32c-.26-.28.3-.55.59-.82l-.13,3-.14,0,.13,0,.13-3.08c-.93.36-2.39.7-2.65,1.25l.68.13c-.38.07-.24-.46,0-.59a.86.86,0,0,1,1.35.21l-.63.23c.36.47.92.42,1.52.17l0,.31A19.63,19.63,0,0,1,254,126l.75-.72-1.51.4c-.24-.28-.35-.79.34-.78-.88-.62-.9.12-1.64-.49-.08-.08,0-.12.06-.14l-1,.11c.21-.15-.07-.63.5-.42-1.67-.75-2.84.31-3.43-.39l.15,0c-1.21.06-1.27.23-1.27.44s.08.49-.8.83c-.38-.52-.78-1.06-1.18-1.57l-.24.63c-.24,0-.73,0-.65-.31-.9.47.17.27-.35.7a4.23,4.23,0,0,0-2.1-.08c-.7.07-1.28.11-1.48-.38-.36.52,1.14.25,0,.7l-.91.36.85-.14s0,0,0,0c-.37,1.09,1.27.73,1.88,1.72-.58.29-1.28-.55-.65.49.54-.21,1,.12,1.36.54a3.79,3.79,0,0,0,1.28,1.07c.39-.63,1.92.68,3.46,1-.13.14,1.23.85,2.53,1.43l.56-2.17c-.52-.17-1-.35-1.39-.5l.07-.12c-.21.35-.67.41-1.2.39-.24,0-.64-.07-1-.12s-.7-.1-1-.12c-.05-.48.15-.62,1-.66l-1.41-.29c-.27.2-.63.25-1.41.18a3.75,3.75,0,0,1,0-.58,13.49,13.49,0,0,0-1.7-.18l-.8,0h-.2c-.06,0-.15,0-.15,0l-.12.21a8.83,8.83,0,0,1,.54,2.52c.33.25.68.06,1.1.25a2.06,2.06,0,0,1,1.09,1.43,2.5,2.5,0,0,1-.53-.23,1.24,1.24,0,0,1-.5-.64c.08.22.37.75.27,1l-.67-1.1c-.05.9.53.72.57,1.4-.43-.13-.26.48-.6.32-.06-.22.12-.65-.11-1a5.47,5.47,0,0,1-.08,1.4c0,.12-.06.22-.09.32a2,2,0,0,1-.09.2,1.05,1.05,0,0,1-.23.27.46.46,0,0,1,.59.49c-.08,1.23-.52.38-.82,1,.25.33-.19,1,.4,1.16-.08.35-.38.34-.57.43a2.1,2.1,0,0,1,0,.58l2.16-.84a4.12,4.12,0,0,1-.92-.56c-.25-.18-.47-.25-.51.11l.07.15-.08-.06h0a3.88,3.88,0,0,1-1.47-2.75,29.25,29.25,0,0,0-.46-3.31l.21,0c-.22-.62-.37-1.33-.58-2a4.7,4.7,0,0,0-.85-1.69l-1.37-1.5.28,1.65c0,.06,0,.1,0,.15,0,.39-.47.88-.7.69a4.59,4.59,0,0,1-.21,2.6c-.26-1-.36.32-.16-1.07-.31,1.3-.66,1.58-.23,3.05-.48-.54-.75.94-.64,1.58l.45-.9a12,12,0,0,1-.17,2l-.67-.4c-1.05,2.67,1.09,5-.41,7,.44.74.41-1.47.94-.79-.15,1.24-1.2,2.5-1.22,2.89a2.2,2.2,0,0,0-.08.76l4.67-.1c-.17-.88-1.1-1-.89-2.43-.24.21-.92.44-1.12-.89.13-1.23,1.1-1.44,1.25-.67,0,.28-.07.42-.15.4.08.39.17.9.45.43l-.24-.16c.25-.58.34-2.21.72-1.8-.17-.91-.38-.41-.55.25.46-1.5.22-2.39.67-4-.17.24-.49.43-.45.18.65-2.29-.31-1.1-.16-2.71.53-.84.83.48.8-1.18.43-.93.68-.09.81.34a4.9,4.9,0,0,1,.83-3l-5.49-.64a3.16,3.16,0,0,0-.15.54l-.11-.56,6,.71,0,.23v-.23l-6-.71a4.71,4.71,0,0,1,0,1l.52-.4c-.11.44-.14.82-.34.8.29.48.84-.3,1.21.65-.29.58.11,1.86-.57,2,.41-1.86-.66.14-.62-1.45a2.57,2.57,0,0,1-.12,1.12c-.08.06-.13-.08-.15-.2-.78,1.7.65.89.4,2.75-.34-.29-.75.32-.72.63.12-.73.66-.27.84.46-.48,1.14,0,1.33-.15,1.95l.26-.69c.32.3.17.89.12,1.75-.3,0,0-.79-.23-.52.46,1.05-1.08,1.93-1,3.29-.38.52-.68-.11-1,.35a2,2,0,0,1-.41,1.46h4.89a2.42,2.42,0,0,0-.34-1.59c-.36.56-.22.61-1-.33l.87,2h-4l0-.37.07.4h3.76l-.88-1.08a7.45,7.45,0,0,0,.5,1.19h-3A2.39,2.39,0,0,1,235,142c.19.85.09.74.58.5a1.4,1.4,0,0,0-.34.41h2.22c-.05-.91-1-1.58-.91-2.7l1.2-.29c0-1.93-1.48-3-1.82-5.4v.8c-.55-.18-.46-1.41-.85-2.11.41,0,.43-.55.58-.94-.14.06-.25-.36-.43-.8l-2.09-5.1-1.69,4.73c-.17.45-.28,1,0,1.24l-1,.72c-1.07,1.63,0,2.5-.91,4.11-.15-.7-.79-.08-.51-1.34-.28.56-.6,1-.35,1.16a.29.29,0,0,0-.11.11l3.5.6c0-.49-.76-1.54-.48-2.11-.22-.37-.66-.39-.74-1.3a.14.14,0,0,1,.19-.08c-.09,0-.21-.3-.33-.49s-.27-.24-.43.25a5.14,5.14,0,0,0,.14-2.4,6.08,6.08,0,0,0-.29-1,1.87,1.87,0,0,0-.53-.83,1,1,0,0,0-.52-.2,1,1,0,0,0-.48.1c-.28.12-.55.24-.83.34a6.94,6.94,0,0,1-1.61.44l-2.4,2.07c-.55.49-1.1,1-1.58,1.34,0-.14-.12-.16.09-.27-1.58.73-.11,1.57-1.91,2.41-1.19.08.6-.91-.05-.73-1-.88-1.69,1.38-3.09,1.7l2.79,2a.58.58,0,0,1,.12-.1V139l-3-2.17.11-.13-.17.05,3.12,2.28a3.1,3.1,0,0,0,.45-1.45,3.81,3.81,0,0,1,.7-1.8s.06.12.16.12a5.62,5.62,0,0,1,1.64-3.28l-1.2-.79c-.05.33-.11.63-.16.92-.37-.62-.06-.77-.66-.63-.13.71.88,0,.64,1.45-.41.36-.91,1.29-1.49,1.29l.31-1.32c-.9.48-.42,1.71-.7,2.38l-.3-.17c-.34,2.08.45,2.26,0,4.44L220,140c.62,1.31-.61.94-.16,2.21l-.76.24-5.51,1.75,8.42-1.18.1,0a33.22,33.22,0,0,1,.21-4.26,14.77,14.77,0,0,1,.3,3.69c.21-.75.65-2.57.37-3.07,0,.33.08.76-.12,1a6.47,6.47,0,0,1,.1-3.88c1.46.69,1.48-3.79,3-4.54a12,12,0,0,1,.73-3.22l-4.15-.78a22.48,22.48,0,0,0-.32,2.57,6.86,6.86,0,0,0,.66,3.38l1.72,3.44,2.37-3,.4-.5c-1.68.1.56-.75-.56-1.39.41-.63.6-.84.71-.84l2-1.28c.62-.18-.23.73,0,.85,1.1-1.2.85-.19,1.79-.82-.5-.11-.15-.85.56-1.46l-1.27.65a2.32,2.32,0,0,1,1.48-1.53l.38-.17.15,0c.08,0,.09,0,.08-.29a1.91,1.91,0,0,0,.14.46c0-.15,0-.24.12-.49s.24-.75.61-2a6.2,6.2,0,0,1-.27,1.26s.06,0,.1-.1.1.07.2.09a.63.63,0,0,1,.33.19,1.34,1.34,0,0,1,.28.56,1,1,0,0,1,0,.35.88.88,0,0,1,0,.16c0,.12,0,.27,0,.39l-.35-.15c.19.5.74.79.56,1.49-.14,0-.35-.15-.32.1a4.27,4.27,0,0,1,.74,2l-.45-.52a6.63,6.63,0,0,0,.38,2.06l4.13,12,.89-11.86c.12-1.61-.28-3-.12-4.62.9.18,1.59-1.94,1.9-3l.12.06c.63-3.23,0-5.62-.06-8.64a9.88,9.88,0,0,0,.94-4.2c.14-1.73.18-3.61.47-5.12-.17.46-.71-.08-.8-.61a2.45,2.45,0,0,0-.1-1l-3.88.19c.15.45.26.82-.24.8v-.24c-.78.57-.47,1.91-.45,3l1.1.14c-.74,1.44-.59,3.26-.49,5s.17,3.24-.61,3.94c.2.7.11,1.54.29,2.24l-.57-.11c-.07.31-.13.59-.18.78l5.4.17a31.63,31.63,0,0,0-.34-4.48l.46.45c-.07-1.35-1.82-1.57-2-2.82l.84-.44c-.12-1.49.06-3,0-4.51l-5.22,0a7.91,7.91,0,0,0,.15,2.56.49.49,0,0,1-.37-.51c-.11,1.08-1.07,4.07.17,3.85-.77-.08-.41,2.34-.3,3.64l-.54-.29a3.94,3.94,0,0,1,.65,2.74c-.15.33-.52.2-.28-.22-.53,1.08.36,1-.26,2.33l-.24-.6c-.31,1.16-.1,1.11.16,1.86a2.67,2.67,0,0,1-.33,1.27l2.16.13c0-.58.21-1.12.48-1.26a1.58,1.58,0,0,1-.82-1.47c.19-.12.35.12.43.24.08-2.11-1.15-2.93-.87-4.44a.42.42,0,0,0,.29-.31,19.35,19.35,0,0,1,.43,2.85c.53-.08.4-1.43,1.31-.49-.58-1-1.78-2.68-1.85-4a.7.7,0,0,1,.14-.21l.09.12a1.68,1.68,0,0,0-.29-.81,4.58,4.58,0,0,0-.14-1.12c.39-.28-.23-1.61-.45-2.28,0,0,0,0,0,0l-5,.38c.53.08.31.84.9.17l3.18-.24h0l-3.16.25h0s0,0,0,0l-.59-3.76,3.81,3.51a2.76,2.76,0,0,1,.25.55,2,2,0,0,0,.15.26l-.06,0c.15.42.34,1,.53,1.62a2,2,0,0,1-.76-1.72c-.33-.15-.67-.31-.91-.4l-1.89-.65.31.78a1.64,1.64,0,0,0,.15.3c-1,.73-1.72,2.34-2.26,2.49,0,2-.65,4.67.19,6.11,0,.58-.43.58-.64.76,0-.34,0-.72-.08-.93.07,1.17-.51,3.33.19,3.74-.6,1.35-.54-.92-.78,1l-.19-.31a6.37,6.37,0,0,0-.73,2.78l3.63-.56a9.61,9.61,0,0,1-1.72-2.67,6.28,6.28,0,0,1-.15-4c-.07.31-.1.46-.22.54a12.78,12.78,0,0,0-.34-3.79,8.73,8.73,0,0,0-1.94-3.69l-1.87-2-.18,2.65a30.9,30.9,0,0,1-1.07,7.08l2.83.32.15-.62a2.41,2.41,0,0,0-.18-1.64,10.84,10.84,0,0,0-.77-1c.17-.16.34-.33.5-.51a8.83,8.83,0,0,0-1.3-1.23,23.89,23.89,0,0,1-1.73-2.9l-.87-1.29-1.2,2a4.25,4.25,0,0,0-.73,3.05l.49-.24a11.92,11.92,0,0,0-.26,1.28l1.7-.14c-.34-.75-.66-1.45-.34-1.48-.11-.06-.52-.11-.47-.53l.29-.16c-.48-.63-1-1.25-1.48-1.86-.59-1.7,1.32-.32.16-2.7-.58-.83-2.2-2-2.21-1.54.19.34.32,1,0,1.15l-.58-.68c-.93.34-2.08.29-1.66,2.42l1.2,1-.21.63-.58-1.06c-.07.81.47,1,.93,1.33a1,1,0,0,0-.19.77l1.44.88c-.28.31-.95-.26-.74.69.66.43.51-.94,1.22,0-.13.81-.54.76.13,1.36-.19.2-.4.11-.63-.14a5.24,5.24,0,0,1,.75,1.14l3.77,6.43.52-6.79a1.47,1.47,0,0,0-.17-1c.69-.61.4-2.49,1.28-2.23a2.9,2.9,0,0,1-.23-.76l-3.64,1.26a1.62,1.62,0,0,1,.93.4c-.72,0-.4.36-.14.79s.48,1-.1,1.14a1.15,1.15,0,0,1,.92.88,6,6,0,0,1,.23,1.54l4.66.52a5.21,5.21,0,0,0-.09-1c.06.1.2.3.13.44a6,6,0,0,1,.77-1.71c-.8-.21-.82-1.66-1.23-2.49.91-1,.87.79,1.66.52-.66,0-.43-2-1-1.71.58-.8.32-.71,1-1.08a.85.85,0,0,1-.17-.06l-4.6,1.39c.31-.19.4-.07.49.07a.76.76,0,0,0,.55.41.93.93,0,0,1-.32.78c-.11.12-.1.17.19.62C225.64,121.31,225,120.59,225.05,120.61Zm8.12-1.15h0l-.18-.63Zm.55,2.62c0-.33-.11-.73-.2-1.15a.27.27,0,0,1,.45.2C233.81,121,233.81,121.65,233.72,122.08Zm2.57-6.68c.22.42.14.61.05.7a6.82,6.82,0,0,0-.3-.75l-.09,0A.78.78,0,0,1,236.29,115.4Z"/><path class="a" d="M235.3,114.85a1.28,1.28,0,0,1-.1-.17c0,.11,0,.2,0,.3l.23.1Z"/><path class="a" d="M242.19,135.58l0,0a.29.29,0,0,1,0,.13S242.19,135.61,242.19,135.58Z"/><polygon class="a" points="242.81 119.11 242.66 119.1 242.77 119.36 242.81 119.11"/><path class="a" d="M247.1,130.44a.25.25,0,0,0,.11.17A.45.45,0,0,0,247.1,130.44Z"/><path class="a" d="M247.69,127.6c-.25-.18-.49-.37-.73-.56A4.77,4.77,0,0,0,247.69,127.6Z"/><path class="a" d="M243.56,125.1a.63.63,0,0,0-.21.16h0Z"/><path class="a" d="M240,137.29a.69.69,0,0,0,0,.2C240,138,240,137.65,240,137.29Z"/><path class="a" d="M236.27,142.34a5.24,5.24,0,0,1-.3-.78C235.94,142,235.94,142.34,236.27,142.34Z"/><path class="a" d="M227.12,136.51h0l0-.16Z"/><path class="a" d="M236,140.42a2.11,2.11,0,0,0,0,1.14A3.63,3.63,0,0,0,236,140.42Z"/><path class="a" d="M254.41,124.49h-.23a.12.12,0,0,1,0,.1Z"/><path class="a" d="M254.16,124.59l-.24.09C254,124.67,254.14,124.66,254.16,124.59Z"/><path class="a" d="M253.41,124.87l.51-.19C253.74,124.7,253.51,124.7,253.41,124.87Z"/><path class="a" d="M251.87,126.45l-.11.2A.32.32,0,0,0,251.87,126.45Z"/><path class="a" d="M249.94,126.23c.46.1,1.09.6,1.74.58l.08-.16C251.42,126.91,250.43,125.92,249.94,126.23Z"/><path class="a" d="M241.61,123.47c.58,0,1.17,0,1.75,0-.32-.21-.74-.49.06-.58C241.17,122.39,243.9,123.4,241.61,123.47Z"/><path class="a" d="M242.54,127.86c-.86-.4-.16.29-.27.37C242.9,128.37,243.05,128.4,242.54,127.86Z"/><path class="a" d="M237,127.24l-.52-.15C236.52,127.81,236.72,127.12,237,127.24Z"/><polygon class="a" points="239.12 134.73 239.5 134.07 239.04 133.72 239.12 134.73"/><polygon class="a" points="235.06 138.78 235 138.46 235.13 139.66 235.06 138.78"/><path class="a" d="M228,128.72c0,.24.06.48.08.71a1.14,1.14,0,0,0,.48-.62C228.57,128.62,228.45,128.48,228,128.72Z"/><path class="a" d="M219.35,139.91a1.39,1.39,0,0,0-.44,1.55A10.36,10.36,0,0,0,219.35,139.91Z"/><polygon class="a" points="237.83 111.61 237.6 111.08 237.8 112.08 237.83 111.61"/></svg>