<svg xmlns="http://www.w3.org/2000/svg" viewBox="0 0 402 246"><defs><style>.a{fill:#f29b3c;}</style></defs><path class="a" d="M182.64,123.76c.19-.05.14-.26-.32-.34l-.4.25Z"/><path class="a" d="M179.73,122.4c-.58,0-1.26.14-1,.52.61-.18.7,0,1.37-.24.46.08.77.3.66.4.18,0,.69.25,1,.11a3.45,3.45,0,0,0-2.12-.59C179.49,122.49,179.67,122.45,179.73,122.4Z"/><path class="a" d="M176.89,135.31l.22-.2A1.33,1.33,0,0,0,176.89,135.31Z"/><path class="a" d="M165.74,152.61a2,2,0,0,0-.49.3C165.54,152.76,165.77,152.63,165.74,152.61Z"/><path class="a" d="M171.19,150.54l-.27.1A.57.57,0,0,0,171.19,150.54Z"/><path class="a" d="M176.89,135.31l-.58.51C176.36,135.93,176.63,135.58,176.89,135.31Z"/><path class="a" d="M173.39,121.64a1.53,1.53,0,0,0,.42,0l-.38-.06Z"/><path class="a" d="M171.13,127.58l-.18-.15a.86.86,0,0,0-.23,0Z"/><path class="a" d="M163.1,120.56a2.42,2.42,0,0,0,1,.36,3.2,3.2,0,0,1-.77-.42A.24.24,0,0,0,163.1,120.56Z"/><path class="a" d="M171.57,120l.28,0Z"/><path class="a" d="M176.25,132.19a.17.17,0,0,0,0,.14A.17.17,0,0,0,176.25,132.19Z"/><path class="a" d="M187.88,113.09s0,0,0,0S187.86,113.16,187.88,113.09Z"/><path class="a" d="M182.74,123.08l0-.15-.14-.08Z"/><path class="a" d="M179.43,147.19l0,0C179.19,147.33,179.31,147.27,179.43,147.19Z"/><path class="a" d="M211.76,139c-.83-.47,1.54.06.26-.56C212.12,138.62,210.69,138.59,211.76,139Z"/><path class="a" d="M173.16,121.55l-.39-.09A2.48,2.48,0,0,0,173.16,121.55Z"/><path class="a" d="M212,138.48h0l-.13-.06Z"/><path class="a" d="M192.07,147.32a.66.66,0,0,0,.05-.23S192.08,147.16,192.07,147.32Z"/><path class="a" d="M184,144.52l.36-.13A1.84,1.84,0,0,0,184,144.52Z"/><path class="a" d="M194.75,154.78a1.6,1.6,0,0,0,.14.54.28.28,0,0,0,0-.09A.86.86,0,0,1,194.75,154.78Z"/><path class="a" d="M198,165.43l-.07-.43-.11-.31Z"/><path class="a" d="M191.77,104.45l.25-.19C191.82,104.34,191.74,104.07,191.77,104.45Z"/><path class="a" d="M173.42,121.49a.3.3,0,0,1-.26.06l.27,0S173.48,121.53,173.42,121.49Z"/><path class="a" d="M197,154.46l.34,1.26C197.24,155.36,197.11,154.9,197,154.46Z"/><path class="a" d="M219.92,117l.21-.22A.71.71,0,0,0,219.92,117Z"/><path class="a" d="M197.7,156.84a3.09,3.09,0,0,0,0,.59,1.16,1.16,0,0,0,0-.16C197.7,157.11,197.7,157,197.7,156.84Z"/><path class="a" d="M192,104.25h0Z"/><path class="a" d="M191.35,104.42c.48-3.32.29-2,.4-2.76l.05-.19a5.83,5.83,0,0,1-.11,1l-.24,1.45c0-.18.13-.57.21-.83s.16-.39.16-.24-.07.29-.14.48c.13-.31.15,0,.17.19a.89.89,0,0,0,.26.63.3.3,0,0,1-.09.1,1.75,1.75,0,0,1,.49-.32,5.23,5.23,0,0,0,.12.57.53.53,0,0,1-.07.49.8.8,0,0,0-.19-.52l.13.58c-.16.27-.2.08-.23-.19s0-.28-.06-.39-.06-.1-.12-.09l0,.11,0,.21.09.45.16.88a6.57,6.57,0,0,1,.15,1.57c-.33.2-.21-2-.46-.85l.06-1.36c-.48,1.06,0-.83-.53.15,0,1.79.28,2,.27,3.77.21.39.27-.15.48.24.47,2.51-.75,2-.21,3.87a2.2,2.2,0,0,1,.53,2l-.41-.44c.05,1.73.61,1,.44,2.78-.17-.31-.2-1.35-.23-1.09-.24,1.19.26.82.31,1.72l-.33.2c.12,1.31.24,2.67.37,4.08l4.17-1.28c-.08.12-.39.31.1.3a55.28,55.28,0,0,1,7.76-1.77l.85-.52c.21-.06.42,0,.21.14,1-.14,0-.2.42-.43s.74,0,.43.16a26.28,26.28,0,0,1,6.38-1.89l-.32.17c1.38-.23,1.38-1,2.7-1l-.23.11c1.49-.32,3-.75,4.48-1.13l.34-.08.24,0a2.72,2.72,0,0,1,.43-.07c.25,0,.41,0,.34.13a1.67,1.67,0,0,1,.91-.38,5.26,5.26,0,0,0,1.61-.69.19.19,0,0,1-.08.07c-.82.51-1.22.72-1.61.93l-1.12.62c-.08,0,.11,0,.26,0s.28,0,.19.17h-.5a.31.31,0,0,1,.14.31,1.43,1.43,0,0,1-.5-.07.9.9,0,0,1-.05.09l-.26.27a1,1,0,0,1,.36-.18.19.19,0,0,1,.15.06l-.07.08-.18.16-.38.3a6.6,6.6,0,0,1-.78.52c-.5.3-.92.48-1,.42l-2,2c0-.14.3-.47.53-.77-.94,1.2-.41-.08-1.28,1,.18-.06,0,.2.06.27a13.59,13.59,0,0,0-2.68,2.07l0-.31c-.82.64-1.64,1.36-2.49,2.1l-1.35,1.18-2.42,2c.67-.49,1-.63,1.12-.57s0,.3-.4.63l-.62.2,0,.08c.45.21.26,0,.17-.08.15-.1.26-.15.19,0l.46.23c1,.76.3.68-.59.16l1.61,1c0,.12-.4-.11-.63-.12a3.59,3.59,0,0,1,.75.5l.46.38c.2.17.25.23.34.31a2.33,2.33,0,0,0,1.09.72v.11c1.87,1.38,2.78,1.91,4.32,3,.19-.2.75.28,1.34.43,1.07.9,2.18,2,3.55,3l.31.17.08,0h0a.19.19,0,0,0,.09,0c.06,0,.07-.12.24-.1-.08.1,0,.24,0,.33s0,.11-.2.07c.23.15.39.25.64.39l1.38.78a3.65,3.65,0,0,1,.72.23c.18.1.2.16.1.14a4.42,4.42,0,0,1-.6-.22l-.15-.08a7.18,7.18,0,0,1,.87.54,13.16,13.16,0,0,1-1.29-.46c-.48-.19-.91-.38-1.21-.52-.64-.3-.67-.37-.82-.18l0,0a1.08,1.08,0,0,1-.33.06l-1.18-.16c-1-.32.68,0-.06-.38-2.57-.22-3.87-1.06-6-1.31-1.38-1.14-5.59-1.39-7.59-2.4l.08.2c-.59,0-.64-.27-1-.41,0,.15.55.31.19.31l-.75-.16-1-.24-2.57-.66c-.06.82-.12,1.64-.19,2.47l-.09,1.08-.08.73-.33,2.93c-.23,1.95-.48,3.9-.67,5.83s.85,1.08.27,3.31l-.29-.66a46.27,46.27,0,0,1-.19,5.51c0,.46-.07.92-.1,1.38l0,.37v.15c0,.21,0,.45.08.91a4.32,4.32,0,0,1-.14-.52c-.11-.18-.11-.15-.08.1s.11.75.18,1.13a8.2,8.2,0,0,1-.21-1c-.06-.24,0,.12,0,.51s.07.79,0,.17l-.06-.57c0,.13,0,.22,0,.29s-.09-.34,0,.76c-.07-.47-.1-.45-.15-.52a1,1,0,0,1-.12-.52c-.07.31-.12,0-.15-.17s-.06-.29-.24-.11a.86.86,0,0,0,.16-.61l-.06-.19-.09-.26c-.06-.17-.12-.34-.19-.5a6.07,6.07,0,0,0-.37-.79c.21.23-.08-.74.2-.48-.29-.92-.63-1.74-.8-1.51,0-1.85-1.46-3.28-1.08-4.44-.53-1.33-1-2.61-1.5-3.87q-.34-.94-.69-1.86l-.35-1-.47-1.38c.1-.08.23.16.39.56s.36,1.06.44,1.29c.21.65.42,1.28.63,1.16l-.36-.9L193,142l-.09-.21-.13-.34c-.32-.84-.63-1.62-.94-2.42-.64.34-1.26.65-1.9,1l-.91.43-.71.3c-.59.2.25-.32.41-.48-2.14,1.17-4.31,1.91-6.18,3,0,0,.18-.18.37-.31-.38.19-.93.35-.8.52l.35-.22c.75,0-1.28,1.27-1.29,1.44.42-.83-2,.75-1.27-.4-.24.15-.52.38-.4.48-.4.14-.55.12-.23-.2-1.35.74-.76.71-2,1.28,0-.09.21-.24.29-.41a6.58,6.58,0,0,1-2.22,1.34c0-.08-.12-.09.2-.24-1.82.86-2.91,1.89-5,2.63.41-.66-.75.18-1-.11l-1,.59.51,0a7.24,7.24,0,0,0-.68.35c-.15.09-.24.16-.37.25a2.11,2.11,0,0,1-.77.38l.48-.38-1,.54c.12,0,.27,0,.45,0a2.2,2.2,0,0,0-.61.6c-.09.13-.2.23-.69.39.3-.17-.88.4-.73.09h0a7.2,7.2,0,0,1-1.74,1,11.23,11.23,0,0,1,.89-.69c.36-.27.7-.53.8-.62a7,7,0,0,1-.74.48s.17-.28.3-.47.2-.34,0-.29a3.12,3.12,0,0,0,.77-.42,4,4,0,0,1-.48.17,2.63,2.63,0,0,1,.88-.6c.31-.34,0-.19-.22-.05s-.43.23.2-.34c0,.06.07,0,0,.12a10.26,10.26,0,0,0,1.09-1.32l.27-.37c.13-.16.26-.31.38-.47.26-.31.52-.61.8-.89.59-.11-.83,1.12-.24.91,1.43-1.78,2.72-3.9,4.22-5.53l-.3.29c-.21-.58,1.27-1.09,1.8-2.1-.15.23,0,.46,0,.37a47.34,47.34,0,0,0,3.26-4.31l-.08.31A13.36,13.36,0,0,0,178,135.7l.65-.73c.26-.31.52-.6.76-.86.07-.23.33-.56.28-.61s-.07,0-.06,0,0,0-.06,0l-.12.06.08-.07a7.86,7.86,0,0,0-.85-1c-.16-.17-.35-.36-.51-.51a4.38,4.38,0,0,0-.39-.36,19.74,19.74,0,0,0-1.63-1.3,12.09,12.09,0,0,1-2.95-2.7c.24.21.64.41.46.24l-1.77-1.39c0,.29.13.3.36.75a4.31,4.31,0,0,1-1.27-.8c.86.56.24-.28,0-.67,0,.1-.15.06-.17.14-.61-1.09-.46.22-1.48-1.05l.15,0a10.27,10.27,0,0,1-1.48-1c0-.38.56.33.74.19-.69-.59-1.68-.8-2.12-1.55.34.2.76.57,1.1.77a4.49,4.49,0,0,0-1.06-1.32l0,.05-.26-.28-.15-.18-.26-.32c0,.06,0,.11.08.18a2.91,2.91,0,0,1-1.49-.8c-.2-.18-.38-.35-.65-.56s-.61-.44-1.2-.81c.57.36.86.52,1,.62s.23.1.26.09,0-.12.41.06c0-.08.09-.15.41,0-.37-.21-.46-.3-.47-.34s.05,0-.15-.19t-.18-.18a5.49,5.49,0,0,1,1.08.53c.07,0-.05-.1-.27-.2s-.51-.23-.68-.34.17-.06.46,0a9.62,9.62,0,0,1,1,.35,7.83,7.83,0,0,0,.85.29,2,2,0,0,0,.79,0c1.78.25,2.19,0,3.85.25.51.29-.53.24-.53.24A7.5,7.5,0,0,0,173,121c-.19.05,0,.16.2.33.67.14.53-.24,1.37.12a2.32,2.32,0,0,1-.76.22c.81.11,1.63.12,2.47.24.17.22-.56.13-.87.17a8.76,8.76,0,0,0,2.76.25l-.57-.24c.34.07.12.26-.14.25-.84,0-1.11-.37-1.13-.48l.59.08c-.45-.7-2.35-.49-3.51-.81l.59-.28-1.28,0c-.23-.16-.35-.43.25-.35-.79-.41-.78,0-1.44-.44-.07-.06,0-.07,0-.07l-.84-.08c.18,0-.07-.32.42-.14-1.41-.59-2.44-.28-2.92-.73h.13a6.09,6.09,0,0,0-1-.12c-.17,0-.18,0-.17.09s0,.12-.06.17a1.19,1.19,0,0,1-.55.11,10.54,10.54,0,0,0-1.61-1.18,1.3,1.3,0,0,0,.07.33,2.16,2.16,0,0,1-.85-.37c-.31,0-.2.09-.07.16s.3.14.22.22a12.18,12.18,0,0,0-2.11-.63A9,9,0,0,1,160,117a3.65,3.65,0,0,0,.93.44c.3.11.43.17.15.18-.44-.21-.75-.35-1-.44,0,.05.45.4.9.73a3.28,3.28,0,0,1,.92.82c-1-.53-1.5-1.16-1.29-.64a4.66,4.66,0,0,1,1.57,1.21,6.85,6.85,0,0,0,1.1,1.17,3.59,3.59,0,0,1,1.36.89l.91.8.43.37.41.32c-.14,0,1.77,1.83,2.62,2.76l-.07,0c.43-.12,1.35.79,2.1,1.36-.17.14-.35.09-.8-.17l.66.58a2.42,2.42,0,0,1,.94.54l-.35.06a22.38,22.38,0,0,1,3,2.46c.23-.13-.43-1.33.89-.4-.05.15-.17.36-.52.13a2.21,2.21,0,0,1,.61.46l-.63-.24c.45.53.4.09.8.47-.14.14.21.38.05.44s-.31-.38-.52-.46a5.24,5.24,0,0,1,1,1.3c0-.12.17-.2.53.08s.48.5.46.58a.27.27,0,0,0,0,.13.19.19,0,0,0,0,.11.42.42,0,0,0,0,.1c.23,0,.37.33.74.26.09.08.09.13.06.17l-.26.09a.71.71,0,0,1-.16.29l-.15.2-.19.26c-.33.44-.54.77-.19.61l.11-.1,0,.08h0c-1.07,1.72-2.82,3.06-4,4.65l-.08-.07a33.81,33.81,0,0,0-2,2.84c-.23.27-.68.51-.67.32a7.29,7.29,0,0,1-1.48,1.78c.46-.81-.32.14.51-.79a6.9,6.9,0,0,0-1.73,2.07c.08-.49-.82.47-1.12,1l.67-.51c-.38.5-.75.9-1.13,1.32l-.06-.45-.17.15-.08.07-.12.13c-.17.17-.34.36-.5.54-.32.36-.62.73-.9,1.08-.55.7-1,1.33-1.36,1.88a15.47,15.47,0,0,1-1.16,1.57,22.07,22.07,0,0,1-2,2.06c0,.14.5-.35,1-.82s.91-.92,1-.85c-.4.44-1,1-1.63,1.65l-1.88,1.8a.62.62,0,0,0,.36-.07,13.77,13.77,0,0,0,2.66-1.38,14.71,14.71,0,0,1,2.55-1.38c-.1-.09.4-.66,1.75-1.4.53-.21.78-.19.83-.07s-.18.38-.7.67c-.37.18-.5.19-.44.12-.51.28-1.25.67-.81.62l.36-.3c.59-.13,2.84-1.17,2.26-.69,1.3-.72.53-.46-.29-.15.48-.17.93-.35,1.36-.54l1.08-.48c.51-.24,1-.48,1.71-.73-.24,0-.49,0-.28-.1,2-.75.77-.6,2.07-1.24.82-.18-.09.51,1.18-.23.86-.26.3.21,0,.45a11.16,11.16,0,0,1,3-1.17l-.6.37a8.52,8.52,0,0,1,1-.51l-.47-.05c.4-.13.71-.27.75-.18.32-.32-.46-.23.22-.77.55-.12,1.47-.81,1.77-.6-1.62.62.31.21-1,.86a4.42,4.42,0,0,1,.94-.42c.08,0,0,.08-.12.14,1.62-.42.55-.63,2.11-1.34-.12.26.5.15.74,0-.63.28-.42-.14.1-.52a7.07,7.07,0,0,0,1.57-.81l-.62.21c.13-.26.64-.46,1.31-.83.12.1-.59.37-.32.32.65-.64,1.88-.5,2.88-1.18.55-.12.18.28.66.15a3.36,3.36,0,0,1,1.27-.56c.18,0,.36-.09.58-.17s.22-.09.34-.16l.08-.08c-.11-.21-.25-.09.16-.53l-.24.16a1.79,1.79,0,0,1-.31.18l-1,.55.6-.46.3-.23.15-.12.09-.09-.18.09-.23.13-.45.25a4.36,4.36,0,0,1-.74.38c.56-.46.51-.38.13-.42a2.93,2.93,0,0,0,1.33-.54,2,2,0,0,1,1-.47l-.28.77.07,0a.68.68,0,0,0,.09.33l.09.14,0,0a.27.27,0,0,1,0,.08l.11.25a12.92,12.92,0,0,1,.84,2.41l-.1-.68c.31.2.41,1.25.71,1.88-.21,0-.16.44-.19.76.13-.08.45,1.5.88,1.57l0,1c.4,1.68,1.11,1.72,1.53,3.33-.35-.42-.26.35-.74-.67.16.53.27,1,.41,1,0,.35.7,1.4.67,1.94.15.2.37.21.54.81,0,.08-.1,0-.1,0s.41.89.47.31a3.25,3.25,0,0,0,0,.74c.05.32.13.67.22,1,.19.73.43,1.49.66,2.21s.45,1.41.65,2.13a22.8,22.8,0,0,1,.54,2.51c.44,1.24.9,2.59,1.27,3.71l.05-.85a3.06,3.06,0,0,1,0,.7,11.54,11.54,0,0,0,0-2.63c0-.48-.08-1-.09-1.36a4.7,4.7,0,0,1,.08-1.1c.16,0,.18.45.16.89s0,.83,0,.69c.25,1.1.29.15.32-1,0-.58,0-1.19,0-1.71a4.27,4.27,0,0,1,.2-1.22v.52a10.64,10.64,0,0,0,.14-2.55c0-.5,0-1,0-1.57,0-.25,0-.51,0-.77l0-.32,0-.27s0,.07.09,0a21.77,21.77,0,0,1-.24-4.28c.23.45.09.64.37.39,0-.63-.43.15-.42-1.1.17-.39.35-1.28.64-1.38l-.07,1.17c.4-.57.09-1.52.2-2.13l.15.09c.07-1.8-.32-1.86-.16-3.79l-.13.19c-.32-1.08.28-.87.06-1.94l.42-.29c-.05-.71-.22-2.47-.21-3.73a20.18,20.18,0,0,1,.41,3.12,10.94,10.94,0,0,0,0-2.72,2.78,2.78,0,0,1,0,.91,9.71,9.71,0,0,1-.22-3.38c.1.05.19,0,.26-.1a2,2,0,0,0,.09-.2.76.76,0,0,0,.06-.16,3.67,3.67,0,0,0,.14-.82,4,4,0,0,1,.69.25.7.7,0,0,1,.23.15,1.83,1.83,0,0,1,.35.25c2.43.34,4.66,1.33,7.42,2-.82-.83.81.19.8-.44a2.89,2.89,0,0,1,.94.25l1.85.86c.42.29-.64,0-.62.12,1.4.41.53.4,1.42.8-.14-.26.56-.18,1.34.11l-1-.56c2,.19,1.56.93,3.62,1.13l-.67,0c.26,0,.63.12,1,.22l2.39.56a11.55,11.55,0,0,0,3.64.54c.42.18,1.21.56.5.42,1.35.37,2.69.68,3.86.92l3.19.64a32.14,32.14,0,0,1-3.54-2.65l.77.39c-.4-.28-.92-.57-1.36-.83a4,4,0,0,1-1-.73c.22.08.69.32.41.1l-1.46-.9a12.67,12.67,0,0,1-1.52-1.07l1.07.57c-.77-.62-1.58-1.21-2.33-1.73s-1.45-.95-2.09-1.34a23.13,23.13,0,0,1-2.45-1.34c.27-.35-1.2-1.6-1.93-2.23l.07,0c-2.27-1.73-4.12-2.57-6.34-4l-.07-.09,0,0v0l0-.1s-.05-.11-.08-.15a1.74,1.74,0,0,0-.19-.26l.35-.23.07-.06.16-.12.6-.48c.81-.65,1.62-1.28,2.36-1.78-.36.2-.17-.3.16-.63.53-.33,1.12-1.33,1.3-1l-.17.13c.61,0,1.52-.88,2.29-1.5l-.21-.52A14.44,14.44,0,0,0,221,119l.83-.76c.42-.37.85-.74,1.25-1.06a15.65,15.65,0,0,1,2.34-1.62c.6-.66,1.61-1.5,2-2l.74-.25c1.61-1.27,2.78-2.2,4.21-3.38-.84.22-2,.53-3.51,1l1.43-.58a21.85,21.85,0,0,0-3.52,1.33,21.76,21.76,0,0,1-2.82,1.18,1.43,1.43,0,0,0,.16-.48c-.86.22-1.69.42-2.55.61l-2.44.55a13.75,13.75,0,0,0-3,.94c0-.07,0-.2.38-.3-1,.23-3.79.68-3.29,1.16-.12-.37-2.12.51-3.18,1l.1-.31A5.56,5.56,0,0,1,208,117c-.32,0-.33-.14.1-.18-1.07.12-.74.46-2,.64l.42-.29a2.71,2.71,0,0,0-1.48.68,3.81,3.81,0,0,1-2.24.24,2,2,0,0,1-1.27.63c-.1-.07.11-.19.21-.24-1.81.27-2.54,1-3.82,1a.27.27,0,0,0-.24-.11c1.4-.35,2.53-.63,2.43-.59-.07-.25-1.21,0-.4-.57a13.69,13.69,0,0,1-3.44,1.4.48.48,0,0,1-.17,0l.11,0a2.43,2.43,0,0,0-.69.22,1.68,1.68,0,0,0-.32,0c0-.14-.07-.13-.18-.09a1.11,1.11,0,0,1,0-.17.33.33,0,0,1-.25.1c-.05,0-.1,0-.21.25,0-.06,0,0,.06.21a.46.46,0,0,0,0,.09h0v.06l.62-.18a1.32,1.32,0,0,1-.75.36c0-.06,0-.13,0-.21a.49.49,0,0,1-.46-.16,6.16,6.16,0,0,0,.41-1.35,3.16,3.16,0,0,1,.32-1.07c-.25-1.77-.32-4.18-.9-5.28-.1-.5.12-.58.19-.78a5.68,5.68,0,0,0,.16.79c-.18-1-.2-3-.58-3.21.1-1.28.37.7.22-1.05l.13.23a10,10,0,0,0,0-2.39c0-.38-.1-.74-.17-1.1l0-.27c0-.09,0-.15-.05-.3l-.12-.77c-.16-1-.3-1.81-.38-2.76a33,33,0,0,1,0-4,7.17,7.17,0,0,1-.08,1c0-1.52-.05-3-.12-4.4-.41,1.12-.84,2.33-1.25,3.52l-1.2,3.44c-.39,1.1-.77,2.15-1.19,3.21l-.27.65-.26.59c-.17.38-.36.76-.55,1.14a4.26,4.26,0,0,0-.43,2.08l-.38.14-.11,1.32c-.38,1.79-1.77,2.69-2.1,5l.29-.2c-.32.76-.78,2.48-1,2.28a.63.63,0,0,1-.1.59l-.16,0-.44,2c-.64,1.43-.5-.45-1.32,1.69-.23.81-.4,2.43-.19,2.16s.4-.79.56-.75l-.19.75c.39.3.63,1,1.59-.66l.19-1.34.36-.33-.37,1.06a2.14,2.14,0,0,0,.41-1.44.88.88,0,0,0,.43-.43l0-1.38c.22-.09.14.67.53-.11,0-.65-.58.4-.36-.59.42-.53.51-.29.6-1.06.15-.05.17.12.11.42.1-.68.55-1.67.44-2.08.47-.53.7-2.13,1.1-1.92a6.45,6.45,0,0,1,.26-1.8c.12,1.23.82-2.13,1.25-1.66-.16-.94.83-2.87,1.08-4.33a.65.65,0,0,1,0,.38,4.47,4.47,0,0,1,.42-.81l.19-.28.09-.15h0c-.36-.15-.26-.68-.23-1.48.18.06.18.41.21.66a2.16,2.16,0,0,0,.16.73,1.49,1.49,0,0,1-.08-.67,3.31,3.31,0,0,0,0-.77.7.7,0,0,1,.12.22,4.33,4.33,0,0,1,0,.62,2.86,2.86,0,0,1,.06-.92c0-.07,0,0,.13-.72a5.35,5.35,0,0,1,0,1c0,.24,0,.32.05-.13,0,.29-.09.71-.13,1ZM197,121.26h0l-.58.17Zm2.37-.62-1,.26c-.1-.07,0-.19.2-.25C198.42,120.75,199,120.66,199.36,120.64Zm-4.33-.89c.12-.07.12,0,.12,0a1,1,0,0,0-.23.09l0,0Z"/><path class="a" d="M194.59,120.08s0,0,0-.06l-.06.19.09,0Z"/><path class="a" d="M177.15,135.07l0,0a.27.27,0,0,1,.1-.06Z"/><path class="a" d="M220.68,116.14h.12l-.07,0Z"/><path class="a" d="M171,125.76a.3.3,0,0,0-.08-.17S171,125.68,171,125.76Z"/><path class="a" d="M166.68,121.85c-.08-.09-.21-.22-.26-.29l-.13-.19a2.1,2.1,0,0,0,.15.22A3.2,3.2,0,0,0,166.68,121.85Z"/><path class="a" d="M164.85,120.05l-.35-.15h0Z"/><path class="a" d="M182.89,142.92l.15-.08C183.39,142.62,183.15,142.76,182.89,142.92Z"/><path class="a" d="M165,151.75l.72-.47A1.79,1.79,0,0,0,165,151.75Z"/><path class="a" d="M196.94,154.32h0l0,.14Z"/><path class="a" d="M166.34,151a1.35,1.35,0,0,0-.58.26A2.37,2.37,0,0,0,166.34,151Z"/><path class="a" d="M177.26,122.64l.21.06s0,0,0,0Z"/><path class="a" d="M177.5,122.66l.24,0A.45.45,0,0,0,177.5,122.66Z"/><path class="a" d="M178.25,122.74l-.51,0A1,1,0,0,0,178.25,122.74Z"/><path class="a" d="M171.54,121.07l-.09.09A.13.13,0,0,0,171.54,121.07Z"/><path class="a" d="M169.78,120.67a9.41,9.41,0,0,0,1.59.55l.08-.06C171.14,121.24,170.22,120.6,169.78,120.67Z"/><path class="a" d="M161.34,117.26l2.06.6c-.51-.24-1.32-.59-.41-.39-.81-.29-1.19-.41-1.29-.43s.05.06.22.16C162.26,117.38,162.63,117.61,161.34,117.26Z"/><path class="a" d="M161.8,119.22c-.48-.39-.58-.43-.58-.37s.13.22,0,.18C162.07,119.62,162.22,119.71,161.8,119.22Z"/><path class="a" d="M170.13,143l-.14-.23C169.62,143.26,170.06,142.83,170.13,143Z"/><path class="a" d="M167.05,148.68l.17-.09.25-.17V148A7.1,7.1,0,0,0,167.05,148.68Z"/><polygon class="a" points="161.2 152.74 161.42 152.43 160.5 153.65 161.2 152.74"/><path class="a" d="M197.31,164l0-1.16C197.1,162.45,196.94,163.16,197.31,164Z"/><path class="a" d="M200.9,145.38a2,2,0,0,0,.2-1.37C201,144.56,200.88,145.1,200.9,145.38Z"/><polygon class="a" points="218.53 121.21 218.22 121.6 218.88 120.94 218.53 121.21"/></svg>