<?xml version="1.0" encoding="utf-8"?>
<!-- Generator: Adobe Illustrator 26.3.1, SVG Export Plug-In . SVG Version: 6.00 Build 0)  -->
<svg version="1.1" id="Layer_1" xmlns="http://www.w3.org/2000/svg" xmlns:xlink="http://www.w3.org/1999/xlink" x="0px" y="0px"
	 viewBox="0 0 36 34" style="enable-background:new 0 0 36 34;" xml:space="preserve">
<style type="text/css">
	.st0{fill:currentColor;}
</style>
<g>
	<path class="st0" d="M10.3,16.7c0.1,0,0.1-0.1,0.1-0.2c0,0,0,0-0.1-0.1l-0.3,0.1L10.3,16.7z"/>
	<path class="st0" d="M10,15.6c-0.2,0-0.5,0-0.6,0.2c0.3,0,0.3,0.1,0.6,0c0.1,0.1,0.1,0.2,0,0.3c0,0,0,0,0,0c0.1,0,0.1,0.2,0.3,0.2
		c0-0.3-0.2-0.5-0.4-0.6C9.9,15.7,9.9,15.7,10,15.6z"/>
	<path class="st0" d="M11.5,11.6l-0.1-0.1C11.4,11.6,11.4,11.6,11.5,11.6z"/>
	<path class="st0" d="M16.8,4.2c0,0,0,0.1,0,0.1S16.8,4.2,16.8,4.2z"/>
	<path class="st0" d="M17.9,3.7L17.9,3.7C17.9,3.7,17.9,3.8,17.9,3.7z"/>
	<path class="st0" d="M11.5,11.6c0.1,0,0.2,0.1,0.3,0.1C11.8,11.6,11.6,11.6,11.5,11.6z"/>
	<path class="st0" d="M8.1,14.5c0,0,0.1,0,0.1,0.1L8.1,14.5L8.1,14.5z"/>
	<path class="st0" d="M7.9,10.4L7.9,10.4L7.9,10.4C7.9,10.4,7.9,10.4,7.9,10.4z"/>
	<path class="st0" d="M6.9,10.2L6.3,9.7C6.4,9.8,6.5,9.9,6.6,10L6.9,10.2z"/>
	<path class="st0" d="M8.4,13.4L8.4,13.4L8.4,13.4z"/>
	<path class="st0" d="M9.6,11.1C9.6,11.2,9.6,11.2,9.6,11.1C9.6,11.2,9.6,11.2,9.6,11.1z"/>
	<path class="st0" d="M9.6,20.7L9.6,20.7C9.6,20.7,9.6,20.8,9.6,20.7z"/>
	<path class="st0" d="M7,23.4L7,23.4l-0.1-0.1L7,23.4z"/>
	<path class="st0" d="M18.4,4.2L18.4,4.2L18.4,4.2L18.4,4.2z"/>
	<path class="st0" d="M21.9,16.9c0.3,0.1-0.3,0.4,0.2,0.4C22,17.3,22.3,16.9,21.9,16.9z"/>
	<path class="st0" d="M8.1,14.4L8,14.3C8.1,14.4,8.1,14.4,8.1,14.4z"/>
	<path class="st0" d="M22.1,17.4"/>
	<path class="st0" d="M18.6,10.8l0.1-0.1C18.7,10.7,18.6,10.7,18.6,10.8z"/>
	<path class="st0" d="M18.9,5.9V6C18.9,5.9,18.9,5.9,18.9,5.9z"/>
	<path class="st0" d="M21,13c0.1,0,0.1,0.1,0.2,0l0,0C21.1,13,21,13,21,13z"/>
	<path class="st0" d="M23.6,12.9L23.6,12.9h-0.1H23.6z"/>
	<path class="st0" d="M7.9,20.6c0.1,0,0.2,0,0.2,0C8,20.5,8.1,20.1,7.9,20.6z"/>
	<path class="st0" d="M8.2,14.4c0,0-0.1,0-0.1,0H8.2L8.2,14.4z"/>
	<path class="st0" d="M21.1,11.2h0.4h-0.2H21.1z"/>
	<path class="st0" d="M16.8,25.1L16.8,25.1C16.7,25.1,16.7,25.1,16.8,25.1z"/>
	<path class="st0" d="M22.7,11.2c0.1,0.1,0.1,0.1,0.2,0.2c0,0,0,0,0-0.1L22.7,11.2z"/>
	<path class="st0" d="M8.2,20.5"/>
	<path class="st0" d="M8.9,17.8c-0.2,0.4,0.2,0.3,0.3,0.4c-0.1,0.5-0.3,0.1-0.5,0.2c-0.1,0.3,0.1,0.6,0,0.8c-0.1,0-0.1,0-0.1-0.1
		c0.1,0.4-0.4,0.9-0.3,1.3H8.2c0.1,0,0.3,0.1,0.4,0.1c-0.1,0.2,0,0.4-0.2,0.4c0.1-0.1,0-0.1-0.1-0.2V21c-0.3,0,0-0.3-0.2-0.4
		C8.1,21,8.2,21.5,8,21.7c-0.3-0.1,0.2-0.6-0.2-0.4L8.1,21c-0.5,0.1,0.1-0.2-0.4-0.1c-0.3,0.5-0.2,0.6-0.5,1.1
		c0.1,0.2,0.2,0,0.3,0.2c0,0.1-0.1,0.2-0.1,0.3c0,0.1-0.1,0.2-0.2,0.2C7.1,22.8,7,22.9,6.9,23c-0.1,0.1-0.3,0.2-0.4,0.3
		c-0.1,0.1-0.2,0.3-0.2,0.5c0,0.1,0.2,0.1,0.2,0.2s0,0.2-0.2,0.6H5.9c-0.2,0.4-0.1,0.5-0.1,0.5s0.1,0.1-0.2,0.6
		c-0.1,0,0.1-0.5,0-0.4c-0.3,0.4-0.3,0.5-0.3,0.5s0.2-0.1,0.2,0h0.1l-0.4,0.4h0.4h0.2c0.2,0,0.5-0.1,0.8-0.1L7.2,26l0.6-0.2
		c-0.1,0.1-0.3,0.2-0.1,0.3c0.1,0,0.2,0,0.2-0.1l0.2-0.1l0.4-0.1l0.5-0.2c0.2-0.1,0.3-0.1,0.5-0.2l0.5-0.2l0.4-0.2l0.6-0.3l0.1-0.4
		c0.1,0,0.2,0,0.1,0.1c0.3-0.1-0.1-0.1,0-0.3s0.3,0,0.2,0.1c0.3-0.5,1-1.3,1.6-1.4L13.1,23c0.2-0.1,0.2-0.2,0.3-0.4s0.1-0.3,0.3-0.3
		l-0.1,0.1c0.1,0,0.2-0.1,0.3-0.1l0.3-0.1l0.3-0.1l0.2-0.1c0.1,0,0.2,0,0.3,0c0.1,0.1,0.1,0.2,0.1,0.3c0.1,0,0.1,0,0.1,0l0,0v0.1
		l0.1,0.1c0.1,0.2,0.2,0.4,0.4,0.3c0,0.2,0,0.4,0,0.6c0,0.2,0.1,0.5,0.1,0.7c0.1,0.2,0.4,0.1,0.6,0.3l-0.2,0.1l0.4,0.2l-0.2,0.3
		l0.2,0.2c0-0.1,0-0.2,0.1-0.2c0.2,0.3,0.3,0.7,0.1,1l0.6,0.7c-0.1,0-0.2-0.1-0.3-0.2c0.2,0.2,0.2,0.2,0.1,0.3s0,0.1,0,0.1
		s0.1,0.1,0.2,0.3c0-0.1,0.1,0,0.2-0.1c0,0.1,0.1,0.2,0.1,0.4l0.1,0.2l0.1,0.2c0.2,0.3,0.3,0.6,0.6,0.8l-0.1,0.1l0.2,0.4l0.1,0.2
		c0,0.1,0.1,0.1,0.1,0.2c0.2,0.2,0.4,0.4,0.5,0.6l0.5,0.5c0.2,0.2,0.4,0.4,0.6,0.6c-0.3-0.4-0.3-0.9-0.1-0.7l0.2,0.6
		c0-0.1,0-0.2-0.1-0.3s-0.1-0.2,0-0.2c0.3,0.3,0.3,0.8,0.2,0.8l0.3,0.2c0.1,0.2,0,0.2,0,0.4c0,0,0,0,0.1,0l0,0l0,0
		c0-0.1,0.1-0.1,0.1-0.2c0.1-0.2,0.1-0.4,0.1-0.7l0.1,0.1c0.1-0.5,0.1-0.9,0.2-1.3v-0.3c0,0,0-0.1,0-0.1V29c0-0.2,0-0.5,0-0.8
		c-0.2-0.3-0.1-0.6-0.3-1.1c0-0.3,0.1-0.7,0.2-1.1l0.1-0.3v-0.2c0-0.1,0-0.3,0-0.4c-0.1-0.4-0.2-0.1-0.3-0.3c0.2,0,0.2-0.6,0.3-0.3
		c0-0.6,0-1.1-0.1-1.6c-0.1,0.1-0.1,0.2-0.2,0.1s0.1-0.3,0.2-0.3l0,0c-0.2-0.9,0.7-2.1,0.3-2.8V20c-0.1-0.3-0.1-0.5-0.2-0.8
		s0.1,0.2,0.3,0v-0.1l0,0c0,0,0,0,0-0.1c0,0,0-0.1,0-0.1c0,0,0.1-0.1,0.2-0.1c0.2-0.1,0.3-0.2,0.5-0.3c0.4,0.1,0.9,0,1.2-0.3
		c0.4-0.3,0.8-0.5,1.3-0.6l-0.1-0.1c0.1-0.2,0.2,0,0.4-0.1c-0.1-0.1-0.2,0-0.2-0.1c0.7-0.5,1.4-0.9,2.1-1.3c0.2-0.1,0.4-0.2,0.5-0.3
		l0.1-0.1l0.2-0.1l0.4-0.4c0.6-0.5,1.2-1,1.8-1.5c0.4-0.4,0.2-0.5,0.1-0.5s-0.2-0.1,0.5-0.7c0.1,0,0.2,0.1,0.2,0.1l0.2-0.2l0.1-0.1
		c0,0,0.1-0.1,0.1-0.1c-0.5,0-1-0.1-1.5-0.2l-1.3-0.2l-0.7-0.1c-0.2,0-0.5,0-0.7-0.1h-0.7h-0.2h-0.2c0.1-0.1,0.1-0.1,0.2-0.1
		c-0.2-0.2-0.9-0.1-0.9,0.1c-0.2,0,0-0.1-0.1-0.2s-0.6,0.2-0.8,0c0,0,0.1-0.1,0.1-0.1c-0.2,0.1-0.8,0-0.6,0.2
		c-0.4-0.1-0.8,0.1-1.2,0c-0.2,0.2-0.8-0.1-0.8,0.2c0-0.2-0.2-0.2-0.4-0.2c-0.2,0-0.4,0.1-0.6,0.2c0.1-0.1-0.2-0.1-0.1-0.3
		c-0.1,0-0.2,0-0.3,0c0,0.1-0.1,0.1-0.1,0.2c0-0.1,0-0.2-0.1-0.2s-0.1,0-0.1,0s-0.1,0-0.1-0.1s0-0.1,0.2-0.1l0,0l0,0l0,0l-0.1-0.3
		c0-0.2-0.1-0.4-0.1-0.7c-0.1-0.4-0.1-0.9-0.2-1.3c0.4,0,0.1,0.9,0.4,0.9c-0.2-0.6-0.4-1.3-0.4-2c0-0.2,0.1,0.1,0.2,0.2
		c-0.1-0.8,0-1.5-0.2-2.2c0,0,0.1,0.1,0.1,0.1c0-0.1,0.1-0.3-0.1-0.3l0.1,0.1c-0.2,0.2-0.5-0.5-0.6-0.6c0.5,0.2,0.1-0.7,0.7-0.3
		c0-0.1-0.1-0.2-0.2-0.2s0.1-0.2,0.2,0c0-0.1,0-0.2-0.1-0.3l-0.1-0.1V4.2C20,4,19.9,3.8,20,3.6c0.1,0,0.1,0.1,0.2,0.2
		c-0.1-0.2-0.2-0.3-0.3-0.5c-0.1-0.2-0.2-0.4-0.3-0.5c0.1,0,0.1-0.1,0.2,0c0-0.1-0.1-0.1-0.2-0.2c-0.3-0.2-0.7-0.3-1.1-0.2
		c-0.2,0-0.4,0.1-0.5,0.1l-0.6,0.1c0-0.2,0-0.2-0.1-0.2s-0.2,0.1-0.3,0c-0.1,0.1-0.2,0.2-0.4,0.3h0.2c-0.2,0.1-0.3,0.2-0.4,0.4
		c-0.1,0.1-0.2,0.3-0.4,0.3c0-0.1,0.1-0.2,0.1-0.3c-0.2,0.2-0.3,0.4-0.4,0.6L16,3.7c-0.1,0.2,0,0.2,0.1,0.3S16.1,4,16,4.2
		c0-0.1-0.2,0.3-0.4,0.3l0,0c0,0.2-0.1,0.4-0.2,0.6c-0.1,0-0.3-0.2-0.3-0.2c0.1,0.3-0.3,0.8-0.2,1.1c0-0.1-0.1-0.1-0.2-0.2L14.7,6
		c-0.1,0.1-0.2,0.1-0.3,0c-0.2,0.4,0.4,0,0,0.4c0,0,0,0,0-0.1c-0.3,0.5-0.4,1-0.7,1.4c-0.3,0,0.1-0.4-0.2-0.4
		c-0.2,0.7-0.5,1.4-0.8,2.1L13,9.4c0.3,0.3-0.4,0.4-0.4,0.8c0-0.1-0.1-0.2-0.1-0.2c-0.1,0.1-0.1,0.2-0.2,0.3c0,0.1,0,0.1-0.1,0.2
		c0,0,0,0.1,0,0.1c-0.1,0.2-0.2,0.4-0.4,0.5c0,0,0-0.1,0-0.1l-0.3-0.1l-0.2-0.1c-0.1,0-0.1-0.1-0.2-0.1c-0.1,0.1-0.3,0-0.2,0.2
		c-0.3-0.4-0.7-0.6-1.2-0.7c-0.2,0-0.4-0.1-0.6-0.2c-0.1,0-0.2-0.1-0.3-0.2C8.5,9.7,8.3,9.6,8.2,9.5c0.1,0,0.3,0,0.2,0L7.5,9.2
		c0.1,0.2,0.1,0.2,0.3,0.4c-0.1,0.1-0.3,0.1-0.4,0c0.1,0,0.1-0.1,0-0.2C7.3,9.3,7.2,9.1,7.1,9c0.1,0.1,0,0.1,0.1,0.2
		C6.8,8.9,6.9,9.1,6.9,9.2s0.1,0.3-0.3,0V9.1c-0.2,0-0.2,0.1-0.4,0C5.9,8.7,6.3,9,6.1,8.8C6,8.8,6,8.8,5.9,8.8s-0.1,0-0.4-0.2
		c0,0,0.2,0,0.3,0C5.6,8.5,5.4,8.4,5.2,8.3C5.1,8.2,5.1,8.2,4.9,8.2l0,0C4.6,7.9,4.7,8.2,4.7,8.4c0,0,0,0,0-0.1
		c0.3,0.3,0.5,0.6,0.6,1c0.1,0.3,0.2,0.6,0.5,0.8C5.5,9.7,5.4,9.7,5.4,9.7s0,0.1-0.2,0c0,0.1,0,0.3-0.2,0.2c0.1,0.1,0.2,0.3,0.2,0.4
		c0,0.2,0.2,0.4,0.3,0.5c-0.1,0,0.1,0.3-0.1,0.2c0.1,0.2,0.2,0.2,0.2,0.1s0-0.2,0.1-0.2c0.1,0.1,0.2,0.3,0.3,0.5L6.2,12
		c0,0.1,0.1,0.2,0.1,0.3c0,0.1,0.1,0.2,0.1,0.2c0.1,0.2,0.2,0.3,0.4,0.4C7,13,7.2,13.1,7.4,13.2c0.2,0.1,0.4,0.2,0.6,0.3
		c0,0.2-0.3,0.1-0.3,0.1c0.1,0.3,0.3,0.5,0.5,0.6c-0.1,0-0.1,0.1-0.1,0.2c0.2,0.2,0.3-0.1,0.4,0.2c-0.1,0-0.3,0-0.4,0
		c0.2,0.1,0.5,0.3,0.7,0.4c-0.1,0.1-0.3,0-0.4,0c0.2,0.2,0.6,0.5,0.8,0.4l-0.1-0.2c0.1,0.1-0.1,0.2-0.2,0.1c-0.1,0-0.2-0.1-0.2-0.3
		c0,0,0-0.1,0.1-0.1l0.2,0.1c0.2-0.4-0.6-0.5-0.8-0.8l0.4-0.1l-0.5-0.1c0-0.1,0.1-0.3,0.3-0.2c-0.1-0.3-0.2-0.1-0.2-0.4
		c0,0,0,0,0.1,0L8,13.3c0.1,0,0.1-0.2,0.2,0c-0.1-0.5-0.7-0.5-0.6-0.8l0,0c-0.5-0.5-0.2,0.1-0.8-0.2C7,12.2,7.1,12,7.2,11.8
		l-0.2,0.1c0-0.1-0.1-0.2,0-0.2c-0.1-0.1-0.1,0-0.2,0s0,0.1-0.1,0c0-0.2-0.1-0.4-0.2-0.5c-0.1-0.2-0.1-0.3,0.1-0.3
		c-0.1-0.1-0.2,0-0.2,0s0,0-0.2-0.1c0.3,0,0.2,0,0.1-0.2S6,10.3,6.1,10.3c0.4,0.3,0.3,0.3,0.5,0.3c-0.3-0.2-0.3-0.3-0.3-0.3
		s0.2,0,0.1-0.2C6.2,9.9,6,9.8,6,9.6c0-0.1-0.1-0.2-0.1-0.2l0,0h0.1c0,0,0.1,0,0.1,0c0.2,0.1,0.3,0.3,0.5,0.4C6.8,9.8,7,10,7.1,10.1
		v0.1C6.9,9.8,7.3,10,7.5,10c0,0.2,0,0.3,0,0.3l0.1,0.1c0-0.1,0.1-0.1,0.2-0.1v0.2c0.1,0,0.2,0,0.3,0h0.1h0.1l0.1,0.1
		c0.1,0,0.2,0.1,0.3,0.2c0.1-0.2-0.1-0.7,0.4-0.6c0,0.1-0.1,0.3-0.2,0.3c0.1,0,0.2,0,0.2,0.1l-0.3,0.1c0.2,0.2,0.2-0.1,0.3,0
		c-0.1,0.1,0.1,0.2,0,0.3S9,10.7,9,10.7c0.2,0.1,0.3,0.2,0.4,0.4C9.3,11,9.4,11,9.5,11c0,0,0,0,0.1,0c0.4,0.1,0,0.2,0.2,0.4
		c0.1-0.1,0.3,0.1,0.4-0.1c0.1,0,0.1,0.2,0.1,0.2c0.2,0,0.4,0.1,0.6,0.1c0.1,0,0.2,0,0.3,0c0.1,0,0.1-0.1,0-0.1H11l0,0l0,0
		c0.2,0,0.4,0,0.6,0c0.2,0,0.4-0.1,0.6-0.2c0.2-0.1,0.3-0.2,0.5-0.4c0.1-0.1,0.2-0.3,0.3-0.4H13c0.2-0.3,0.3-0.7,0.4-1.1
		c0.1-0.1,0.2-0.2,0.3-0.1c0.1-0.3,0-0.3,0.3-0.7c0,0.3,0.2,0-0.1,0.3c0.2-0.3,0.4-0.3,0.4-0.8c0.1,0.2,0.4-0.2,0.4-0.3l-0.2,0.2
		c0.1-0.2,0.2-0.3,0.3-0.5l0.2,0.2C15.5,7.2,15,6.2,15.7,6c-0.1-0.3-0.3,0.3-0.4,0.1c0.2-0.3,0.7-0.4,0.7-0.5
		c0.1-0.1,0.2-0.3,0.1-0.4c-0.1-0.2,0-0.3,0.1-0.4c-0.1,0-0.4-0.1-0.2-0.4c0.2-0.3,0.6,0,0.5,0.2s-0.1,0.1-0.1,0s-0.1,0.2,0.1,0.2
		V4.4C16.7,4.3,17,4.1,17,4.3c0.1-0.2,0-0.2-0.2-0.1c0.1-0.1,0.3-0.1,0.4-0.2c0.1-0.1,0.3-0.2,0.4-0.2c-0.1,0-0.2-0.1-0.1-0.1
		c0.1,0,0.2,0,0.2-0.1c0,0,0-0.1,0-0.1c0-0.1,0-0.2,0.2-0.2C18,3.3,18,3.4,18,3.4c0,0.1,0,0.1,0.1,0s0,0.1,0,0.2S18,3.7,18,3.8
		c0.1-0.1,0.2,0,0.1,0.1c0,0.1,0,0.1-0.1,0.2H18C18,4,18,4,18,4l0.2-0.1c0,0,0,0.1-0.1,0.1c0.1,0,0.2-0.1,0.2-0.1c0.1,0,0.2,0,0.3,0
		c-0.1,0.1,0,0.1,0,0.2s0,0,0,0c0,0,0,0,0,0.1c0,0.1-0.1,0.1-0.1,0.1c0-0.1,0-0.1,0-0.2l0,0c0,0-0.1,0-0.1,0s-0.2,0-0.2,0l0,0l0,0
		v0.1c0,0-0.1,0-0.1,0c-0.2,0.5,0.3,0.2,0.3,0.8c-0.1-0.1-0.3,0.1-0.2,0.2c0-0.2,0.2-0.1,0.3,0.1c-0.1,0.3,0.1,0.4,0.1,0.6l0.1-0.2
		c0.1,0.1,0.1,0.2,0.2,0.5c-0.1,0-0.1-0.2-0.1-0.1c0.2,0.3-0.2,0.6-0.1,1c-0.1,0.2-0.3,0-0.3,0.2c0.2,0.4-0.2,0.5,0,0.9
		c0.2-0.1,0.1-0.2,0.3,0.2l-0.1-0.7L18.8,8c0-0.2-0.1-0.5-0.1-0.6c0.2,0.2,0.1,0.2,0.3,0.1c-0.3,0.3,0.2,0.6,0,1h-0.5
		c-0.2,0.5,0.2,0.9,0.1,1.6l0.1-0.2c0.2,0.1,0,0.4,0.1,0.6c-0.1,0-0.2,0.1-0.3,0.2c0.1,0,0,0.1,0.1,0.2c0,0,0,0.1,0,0.1
		c0,0,0,0.1,0,0.1c0,0.1,0.1,0.2,0.2,0.2c-0.1,0.2-0.1,0.3-0.1,0.5c0.1,0.3,0.3,0.6,0.6,0.6c0.3,0,0.5,0.1,0.8,0.1
		c-0.1,0.1-0.1,0.1-0.2,0.2s-0.1,0.1-0.4,0c0.2,0.1,0.5,0.2,0.5,0.1c0.1,0,0.1,0.1,0.2,0.1h0.2c0.2,0,0.3-0.1,0.4,0s0.1-0.2,0.3-0.2
		c0,0,0,0.1,0,0.1c0-0.1,0.3-0.1,0.1-0.3c0.6,0.5,1.5-0.1,2,0.4c0.4-0.1,0.8-0.1,1.2-0.1c0,0,0,0.1-0.1,0.1c0.5,0.2,0.3-0.4,0.9-0.2
		c0.3,0.3-0.3,0.1-0.1,0.2c0,0.5,0.7,0,1,0.3h-0.1c0,0,0.1,0,0.1,0.1h0.1l0,0c0,0,0.1,0,0.1-0.1c0.1-0.1,0.3-0.1,0.4-0.1
		c0,0,0,0-0.1,0.1c0.5-0.2,1-0.3,1.5-0.2c-0.2,0-0.5,0.1-0.7,0.2c0.1,0,0.3-0.1,0.4-0.1c0.2-0.1,0.4-0.1,0.6-0.1L28.4,13l0,0l0,0
		L28.3,13l-0.2,0.1c-0.1,0.1-0.3,0.1-0.4,0.2l0.1-0.1l0,0h0.2l-0.1,0.1l0,0l0,0l0,0l0,0c0,0,0.1,0,0,0.1l-0.2,0.1
		c0,0.1,0.1,0.1,0.1,0.1s0.1,0.1-0.1,0.3h0.1c0.1,0.1,0,0.2-0.1,0.2s-0.2,0-0.2,0.2L27.1,14c0,0,0,0.1,0,0.1c0,0.1-0.1,0.2-0.1,0.2
		c-0.1,0.2-0.2,0.4-0.4,0.5c0-0.2,0.1-0.4,0.2-0.5l0.1-0.2c0-0.1,0-0.1,0-0.2l-0.1,0.1l-0.2,0.2c-0.1,0.1-0.2,0.2-0.2,0.4
		c0-0.1,0.1-0.2,0.2-0.2c0,0.2-0.1,0.3-0.2,0.5c-0.1,0.2-0.3,0.3-0.4,0.4c-0.1-0.3-0.4-0.1-0.7,0s-0.6,0.4-0.9,0.2
		c-0.5,0.6-1.3,0.7-2.1,1.1c0.5,0.3-0.2,0.1,0,0.5c-0.2,0.1-0.2,0.1-0.3,0.1c-0.3,0-0.5,0-0.8,0c-0.1,0-0.1-0.1,0-0.1
		s0.2-0.1,0.1-0.2L21.3,17c0,0-0.1,0-0.1,0c-0.1,0-0.1,0-0.2,0c-0.1,0-0.1-0.1-0.4,0.1c0.2,0,0,0.2-0.2,0.5c0,0.1-0.1,0.1-0.2,0.2
		c0.1-0.1,0.1-0.1,0.2-0.2c0.1-0.1,0.2-0.2,0.4-0.2c-0.1,0.1-0.1,0.2-0.2,0.3c-0.1,0.2-0.3,0.4-0.4,0.6c-0.1,0.1-0.1,0.2-0.1,0.4
		c0,0.1,0,0.3,0,0.4c-0.1-0.1-0.1-0.2-0.1-0.2c0,0.1,0,0.2,0,0.4c0,0.1,0,0.3,0,0.4c0,0.3,0.1,0.6,0.3,0.8c-0.1,0.1-0.2,0.1-0.2,0
		c-0.1,0.8,0.3,1.8,0.1,2.4l-0.1-0.1c0,0.2,0.2,0.3,0.1,0.5c0,0-0.1-0.1-0.1,0c0.1,0.2,0.1,0.4,0.1,0.6l-0.1-0.2
		c-0.1,0.3-0.1,0.7,0.1,1l0.1,0.4c0,0.1,0.1,0.3,0.1,0.4c-0.1,0-0.2,0-0.4,0c0,0-0.1,0-0.1,0l0,0c0,0,0,0.1,0.1,0.4
		c0.1,0.3,0.2,0.7,0.2,1c0-0.1-0.1-0.2-0.1-0.2l-0.1-0.3c-0.1-0.1-0.1-0.2-0.2-0.3c0-0.1-0.1-0.1-0.1-0.2c0-0.1-0.1-0.2-0.1-0.3
		c0,0.1,0,0.2,0,0.2c0,0.1-0.1,0.2-0.1,0.1s0,0-0.1-0.1s-0.1,0,0-0.2l0,0c0-0.1,0.1-0.2,0.1-0.3c0,0,0-0.1,0-0.1l-0.4,0.2
		c0.2-1-1.1-1.8-0.9-2.5c-0.2-0.1-0.3-0.4-0.5-0.5l0.2-0.1c-0.2-0.5-0.4-1-0.8-1.4h0.2C17.2,21,17.1,21,17,21l-0.2-0.1h-0.2
		c-0.2,0-0.4-0.1-0.6-0.2c0-0.1,0-0.3,0.1-0.4c-0.2-0.2-0.5-0.3-0.8-0.3c-0.3,0-0.6,0-0.8,0.1c-0.2,0.1-0.4,0.1-0.6,0.2
		c-0.2,0.1-0.3,0.2-0.5,0.4c0-0.1,0-0.2,0.1-0.2c-0.2,0.1-0.5,0.2-0.7,0.3c-0.2,0.1-0.4,0.3-0.2,0.5c-0.2-0.2-0.6,0.4-0.9,0.7
		l-0.1-0.2c0,0.3-0.1,0.6-0.4,0.8c-0.1,0-0.2-0.1,0-0.1c-0.4,0.1-0.1,0.3-0.5,0.5v-0.2c-0.3,0.2-0.2,0.2-0.3,0.5
		c-0.1,0.1-0.2,0.2-0.4,0.2c-0.1,0.1-0.3,0.1-0.4,0c0,0.1,0,0.2,0,0.2l-0.1,0.1c0,0-0.1,0-0.1,0c0,0,0-0.1,0-0.1
		c-0.2,0-0.2,0.1-0.3,0.2S8.9,24,8.9,23.9s0-0.1,0-0.2c0.2-0.1,0.4-0.2,0.4-0.1c0-0.1,0-0.2-0.1-0.2c0-0.1,0-0.2,0-0.3
		c0,0.1-0.1,0.3-0.1,0.4c-0.1,0.1-0.2,0.3-0.3,0.2v-0.1l0,0c0,0-0.1,0-0.1,0.1s0-0.1,0-0.1c0.2-0.3,0-0.1,0-0.1
		c-0.2,0.2-0.3,0.3-0.4,0.3C8.2,23.9,8.1,24,8,24.1c0,0,0.1,0,0.1-0.1h0.1l0,0L8.5,24c-0.2,0.2-0.4,0.4-0.4,0.2
		c-0.3,0.2-0.6,0.5-0.8,0.6l0.2-0.3l0.1-0.1l0.1-0.1l0.1-0.1c0.2-0.2,0.4-0.4,0.5-0.5c0.1-0.1,0.2-0.2,0.3-0.2c-0.1,0,0-0.1-0.1-0.2
		s-0.1-0.1-0.3-0.2C8.2,23,8.3,23,8.4,23s0,0.1,0,0.1s0-0.2,0-0.3c0,0,0-0.1,0-0.1c0,0,0-0.1,0-0.1c0-0.1,0-0.2-0.1-0.2
		c0.3-0.3,0.1,0.3,0.4-0.2v0.1c0.9-0.8,0.1-1.9,1.2-2.8c-0.1,0.1-0.1,0.1-0.2,0.1c0.5-0.8,0.9-1.6,1.2-2.5l-0.7-0.4
		c-0.2,0.4-0.5,0.8-0.9,1.2c-0.3,0.3-0.1,0.4-0.1,0.7H8.9V19c-0.1,0.6-1,0.6-1,1.4h0.2c-0.2,0.2-0.3,0.8-0.5,0.6c0,0,0.1,0.2,0,0.2
		l-0.1-0.1l-0.1,0.7C7,22.3,7,21.6,6.6,22.3c-0.1,0.3,0,0.9,0.1,0.8s0.2-0.2,0.3-0.2l-0.1,0.2c0.3,0.2,0.5,0.6,1,0.1v-0.5h0.2
		L8,23.1c0.2-0.1,0.2-0.3,0.1-0.5c0.1,0,0.2,0,0.2-0.1l-0.1-0.5c0.1,0,0.2,0.3,0.4,0.1c0-0.2-0.4,0-0.3-0.3c0.2-0.1,0.3,0,0.3-0.3
		c0.1,0,0.1,0.1,0.1,0.2c0-0.2,0.2-0.5,0.1-0.7c0.3-0.1,0.3-0.6,0.6-0.5c-0.1-0.2-0.1-0.4,0-0.6c0.2,0.5,0.4-0.6,0.7-0.3
		c-0.2-0.4,0.3-0.9,0.4-1.4c0,0,0,0.1,0,0.1c0.2-0.2,0.3-0.2,0.4-0.3c-0.2-0.2-0.1-0.6-0.1-0.9l0,0L10,16.7c-0.2,0.1-0.3,0-0.3-0.1
		l1.6,0.8c0,0.1,0.1,0.2,0.2,0.2c-0.1,0-0.1-0.1-0.1-0.2l-1.8-0.9c0,0.2,0,0.4,0.1,0.4c-0.3,0.1-0.2,0.2-0.4,0.2
		c0.3,0.2,0,0.2,0.1,0.5C9,17.9,8.9,17.6,8.9,18C8.8,18.2,8.9,17.8,8.9,17.8z M7.9,25.7L7.9,25.7l-0.2,0.1L7.9,25.7z M8.9,25.4
		l-0.2,0.1l-0.2,0.1c0-0.1,0.1-0.2,0.1-0.2c0,0,0,0.1,0.1,0.1L8.9,25.4z M8.7,23.7C8.8,23.7,8.7,23.7,8.7,23.7l-0.1,0.1H8.6
		L8.7,23.7z"/>
	<path class="st0" d="M8.1,24.2L8.1,24.2C8.1,24.2,8.1,24.3,8.1,24.2L8.1,24.2L8.1,24.2z"/>
	<path class="st0" d="M11.4,11.5L11.4,11.5L11.4,11.5z"/>
	<polygon class="st0" points="16.3,24.4 16.3,24.4 16.3,24.3 	"/>
	<path class="st0" d="M7.2,9c0,0-0.1-0.1-0.1-0.1C7.1,8.9,7.2,8.9,7.2,9z"/>
	<path class="st0" d="M5,8.1L4.8,8l0,0V8c0,0,0,0,0-0.1l0,0l0,0l0,0L5,8.1z"/>
	<path class="st0" d="M5.2,9.4c0,0,0.1,0.1,0.1,0.1l0,0L5.2,9.4z"/>
	<path class="st0" d="M20.3,5.7C20.3,5.7,20.3,5.7,20.3,5.7C20.3,5.9,20.4,5.8,20.3,5.7z"/>
	<path class="st0" d="M15.6,4.4c0-0.1,0-0.2,0-0.2C15.6,4.2,15.5,4.3,15.6,4.4z"/>
	<path class="st0" d="M21,11.2L21,11.2z"/>
	<path class="st0" d="M15.9,3.8c-0.1,0.1-0.2,0.2-0.2,0.3C15.8,4,15.8,3.9,15.9,3.8z"/>
	<path class="st0" d="M9,15.5L9,15.5L9,15.5L9,15.5z"/>
	<path class="st0" d="M9.1,15.6L9.1,15.6C9.1,15.6,9.1,15.6,9.1,15.6z"/>
	<path class="st0" d="M9.3,15.7l-0.1-0.1C9.1,15.6,9.2,15.7,9.3,15.7z"/>
	<path class="st0" d="M7.8,14L7.8,14C7.8,14,7.8,14,7.8,14z"/>
	<path class="st0" d="M7.4,13.5c0.1,0.1,0.1,0.4,0.2,0.5h0.1C7.6,14,7.6,13.6,7.4,13.5z"/>
	<path class="st0" d="M7,11.2l0.1,0.3c0.1-0.1,0.1-0.2,0.2-0.1c0-0.1,0-0.1,0-0.1c0,0-0.1,0-0.1,0C7.2,11.3,7.1,11.4,7,11.2z"/>
	<path class="st0" d="M6.8,10.3c0.1,0.2,0.2,0.1,0.3,0.2C6.9,10.4,6.9,10.3,6.8,10.3z"/>
	<path class="st0" d="M14.1,9.3l0.2,0.1C14.3,9.2,14.2,9.4,14.1,9.3z"/>
	<polygon class="st0" points="14.1,7 13.9,7.1 14,7.2 	"/>
	<polygon class="st0" points="15.9,6.5 15.9,6.5 16,6.2 	"/>
	<path class="st0" d="M23.1,13.1l-0.1-0.2C23,12.9,22.9,13.2,23.1,13.1z"/>
	<path class="st0" d="M27.4,13.8c-0.2,0-0.4,0-0.3,0.1S27.4,13.9,27.4,13.8z"/>
	<polygon class="st0" points="19,25.4 19.1,25.5 18.9,25.3 	"/>
	<path class="st0" d="M23.5,13.5c-0.1,0.1,0,0.2,0.2,0.2l0.2-0.3C23.8,13.5,23.7,13.5,23.5,13.5z"/>
	<path class="st0" d="M25.3,13.8c0.3-0.2,0.6-0.5,0.4-0.7c-0.2,0.3-0.3,0.2-0.6,0.6c-0.3,0.1-0.5,0-0.4-0.1c-0.1,0.1-0.4,0-0.5,0.2
		c0.4,0.2,0.9,0.1,1.2-0.1C25.4,13.7,25.4,13.8,25.3,13.8z"/>
	<path class="st0" d="M20.9,19.2l0.1,0.1C21,19.3,20.9,19.2,20.9,19.2z"/>
	<path class="st0" d="M19.4,21.6c0,0.1,0.1,0.2,0.1,0.2S19.4,21.5,19.4,21.6z"/>
	<path class="st0" d="M19.5,18.8V19C19.6,18.9,19.6,18.9,19.5,18.8z"/>
	<path class="st0" d="M20.9,19.2c-0.1-0.1-0.1-0.2-0.2-0.4C20.7,18.9,20.8,19.1,20.9,19.2z"/>
	<path class="st0" d="M26.4,13.8c0.1,0,0.2,0,0.2-0.1L26.4,13.8C26.4,13.7,26.4,13.8,26.4,13.8z"/>
	<path class="st0" d="M22.2,15.1h0.2l0.1-0.1L22.2,15.1z"/>
	<path class="st0" d="M20.7,15.3c0.2,0,0.5,0,0.7,0c-0.2,0-0.4,0-0.5,0C20.9,15.2,20.8,15.2,20.7,15.3z"/>
	<path class="st0" d="M25.2,12.9h0.2H25.2z"/>
	<path class="st0" d="M21,18C21,18,21,18.1,21,18C21,18.1,21,18.1,21,18z"/>
	<path class="st0" d="M11.2,12.1L11.2,12.1C11.2,12.1,11.2,12.2,11.2,12.1z"/>
	<path class="st0" d="M7.4,9.9L7.4,9.9c0.1,0,0.1,0,0.2,0H7.4z"/>
	<path class="st0" d="M17.9,17.5L17.9,17.5C17.8,17.4,17.8,17.4,17.9,17.5z"/>
	<path class="st0" d="M13.6,18.7c-0.4,0.4,0.2-0.9-0.4-0.3C13.3,18.4,13.2,19.2,13.6,18.7z"/>
	<path class="st0" d="M26.2,13.8H26C26.1,13.8,26.1,13.8,26.2,13.8z"/>
	<path class="st0" d="M13.2,18.4L13.2,18.4L13.2,18.4L13.2,18.4z"/>
	<path class="st0" d="M16.4,16.1c0,0.1,0.1,0.3,0.1,0.4C16.5,16.4,16.5,16.2,16.4,16.1z"/>
	<path class="st0" d="M18.4,19.3L18.4,19.3C18.4,19.4,18.4,19.4,18.4,19.3z"/>
	<path class="st0" d="M15.7,20.4c0-0.1,0-0.2-0.1-0.3c0,0,0,0,0,0.1C15.7,20.2,15.7,20.3,15.7,20.4z"/>
	<path class="st0" d="M12.4,18.4l0.1-0.1l0.1-0.2L12.4,18.4z"/>
	<path class="st0" d="M13.5,17.6c0-0.1,0-0.2,0.1-0.3C13.5,17.4,13.1,16.7,13.5,17.6z"/>
	<path class="st0" d="M26.4,13.7c0,0.1-0.1,0.1-0.1,0.1L26.4,13.7C26.4,13.8,26.4,13.7,26.4,13.7z"/>
	<path class="st0" d="M14,20.8L13.8,20C13.8,20.3,13.9,20.5,14,20.8z"/>
	<path class="st0" d="M19.5,9.3v0.2C19.5,9.4,19.5,9.4,19.5,9.3z"/>
	<path class="st0" d="M13.6,19.7c0-0.1,0-0.2,0-0.2c0,0,0,0.1,0,0.1C13.6,19.6,13.6,19.7,13.6,19.7z"/>
	<path class="st0" d="M13.6,17.3L13.6,17.3z"/>
	<path class="st0" d="M11.7,12.9c0.2,0.5,0.4,0.1,0.6,0.1c0.1,0.1,0.1,0.2,0.1,0.4c0,0.1,0,0.1-0.1,0.1s-0.2,0.1-0.2,0.2
		c0.3,0.3,0.5,0.7,0.6,1.1c0,0,0,0.1-0.1,0c0.2,0.3,0.3,0.7,0.4,1.1c0.1,0.4,0.3,0.8,0.6,1.2c0,0,0,0.1,0,0.1
		c0.1-0.1,0.2-0.2,0.3-0.3c0.1,0.3,0.4,0.5,0.3,0.7c-0.1-0.2-0.2-0.2-0.3-0.2l0.2,0.3c0,0.2-0.1,0.1-0.2,0s-0.2-0.3-0.3-0.3
		c0.1,0.1,0.2,0.3,0.3,0.4l0.4,0.4l1.2,1.2l-0.2-1.5c0-0.3,0-0.7,0-1c0.3-0.1,0,1.2,0.3,0.5l-0.1,0.5l-0.3,2.1l-0.9-1.7l-0.1-0.3
		c0.1,0.8-0.3-0.5-0.3,0.3l0.1,0.2l1.7,2.8l0.2-3.5c0.1-0.9-0.1-1,0-2c-0.1-0.2-0.2,0.1-0.4-0.2c-0.2-1.5,0.7-1.1,0.4-2.2
		c-0.2-0.3-0.5-0.4-0.3-1.2l0.3,0.3c0.1-1-0.4-0.6-0.2-1.6c0.1,0.2,0.1,0.8,0.1,0.6c0.3-0.7-0.1-0.5-0.1-1l0.3-0.1
		c0-0.4,0-0.7,0-1.1l-1.6,0.4c0.4,0.6,0.8,1.2,1.1,1.9c-0.1,0-0.2-0.2-0.2,0.1c0.6,1.3,1,2.6,1.2,4l1,5.2l1.1-5.5l0.1-0.3l-0.2-0.6
		c0-0.1,0.1-0.2,0.2-0.1c0.1-0.6-0.1,0-0.2-0.3s0.2-0.4,0.2-0.2c-0.1-0.5-0.1-1.2-0.2-1.9c0-0.7,0-1.3,0.1-1.9l0.1,0.2
		c0.1-0.8-0.5-0.9-0.3-1.7v0.1c0-0.7,0-1.4-0.1-2.1L16.8,7c0.3,0.9,0.4,1.9,0.5,2.9c0.4,0.2,0.3,1.7,0.7,1.7c0,0.8-0.1,0.8,0,1.4
		l0.5,8.9l1.3-9.1c0-0.3,0.1-0.5,0.1-0.8c0-0.4-0.3-0.6-0.4-1h0.2c-0.1-0.2-0.2-0.4-0.3-0.6l0.3-0.4l-0.1-0.4c0,0.2-0.1,0.4-0.1,0.4
		c-0.1-0.6-0.1-1.2,0.1-1.7c-0.1-0.5-0.3-1.1-0.5-1.6c0.1,0,0.2,0.3,0.3,0.5c-0.4-0.8,0.2-0.2-0.1-1c0,0.1-0.1,0-0.2,0
		c0-0.5-0.1-1.1-0.2-1.6l-1.9,0.4c0,0.1,0.1,0.2,0.1,0.4l-0.2-0.1c0.1,1.2,0.4,2.4,0.6,3.7c0-0.5,0.3-0.4,0.4,0L17.5,9
		c0.2,0.2,0.1-0.4,0.3,0.1c0,0.5-0.3,0.4-0.4,0.1l0.1,0.6c-0.1,0-0.1-0.1-0.2-0.1c0.2,0.2-0.2,1,0.1,1.4h-0.1c0.1,1.3,0.2,1.9,0.2,3
		c0.2,0,0.2,0.4,0.4,0.8c-0.1,0.8-0.3,1.7-0.3,2.6c0.1,0.7,0.2,0.2,0.3,0.5c-0.1,0-0.2,0.2-0.2,0.4l1.6-0.2c0-0.2-0.1-0.4,0.1-0.1
		c-0.3-0.9-0.7-1.8-1.2-2.7c0,0.2,0,0.4-0.1,0.3c-0.1-0.2-0.1-0.6,0-0.6V15c-0.1-0.1-0.1-0.2-0.2-0.3c0,0-0.1-0.2-0.1-0.2l-0.1-0.3
		c-0.1-0.4-0.3-0.8-0.4-1.2l-0.8-3c-0.3,0.4-0.6,0.9-0.9,1.4c-0.3,0.5-0.5,1-0.7,1.5l0.1-0.1l-0.5,1.1l-0.1,0.3l-0.1,0.1v0.1
		l-0.1,0.3c-0.3,0.5,0.1-0.4-0.3-0.1c-0.4,1.4-1.2,2-1.6,3.1c-0.4,0.2-0.7,0.6-0.9,1l1.8-0.1c-0.1-0.2-0.2-0.4-0.3-0.7
		c-0.1-0.3-0.1-0.7-0.1-1l-2.1-0.1c0,0.3-0.1,0.6-0.2,0.8l0.1-0.1c0.1,0.3-0.1,0.4-0.2,0.6c0.1,0,0.2-0.3,0.2-0.1
		c-0.2,2.1-0.5,4.2-0.9,6.3l2.3,0.1c0-0.7,0.1-1.3,0.1-2c0-0.3-0.1-0.6-0.3-0.8c-0.1-0.2-0.2-0.4,0-1l0.2,0.4c0-0.6,0-1.2,0.1-1.9
		l0.4-3.4l-2.2,2.6C9.8,19,9.4,19.6,9,20.3c-0.3,0.7-0.5,1.4-0.6,2.1l-0.3,3.2l1.9-2.4l0.2-0.3c0,0.1,0,0.2-0.1,0.3
		c0.4-0.2,1.1-1.1,1-1.3c0.2-0.2,0.1,0,0.3,0c0.4-0.2,0.6-1,0.9-1c0,0,0,0.1-0.1,0.2c0.1-0.3,0.9-0.9,0.6-0.9
		c0.1-0.1,0.3-0.2,0.4-0.4l0.1-0.1l0,0v-0.1c0.1-0.1,0.1-0.2,0.2-0.1c0-0.1,0-0.2,0.1-0.2c0,0,0.1,0,0.1,0.1s0,0.2,0.2,0
		c-0.1,0.1-0.1,0.2-0.1,0.3c0,0.1,0,0.1,0,0.2c0.1,0.2,0.2,0.5,0.4,0.7c-0.1-0.1,0,0.4-0.2,0.3c0.1,0.3,0.2,0.6,0.4,0.9h1.8
		c0,0-0.1,0-0.1,0c0.1-0.1,0.2-0.1,0.2-0.1c0-0.1,0-0.2,0-0.3c0-0.1,0-0.2,0-0.3c0,0,0.1,0,0.1,0.3c0-0.1,0-0.2,0-0.4s0.2,0,0.3,0.2
		c0.1,0.1,0.1,0.2,0.2,0.3l0.1,0.1v0.1l0.1,0.2l0.4,0.7c-0.1,0.1-0.2-0.1-0.3-0.3s-0.2-0.3-0.3-0.5v-0.1l0,0l0,0l0,0l0,0
		c-0.1-0.1-0.1-0.2-0.2,0c0.1,0,0.1,0,0.2,0.1l0.9,1.4c0.3,0.4,0.5,0.8,0.7,1.3s0.5,0.9,0.8,1.6l0,0l0,0l0,0l0,0c0,0,0,0.1,0,0.1
		v0.2l0,0c-0.1-0.1-0.2-0.3-0.3-0.3l0.2,0.4l0.1,0.1l0,0l0,0v-0.2v-0.2l0.1-0.8l0.1-1.4c0-0.5,0.1-0.9,0.1-1.4c0-0.5,0-1,0-1.5
		c0.1,0.2,0.1,0.4,0.1,0.5c0-0.4,0.1-0.8-0.1-1v0.4c-0.1,0.1-0.2-0.4-0.3-0.9c0-0.4-0.1-0.7-0.3-1.1c0.1,0.2,0.2,0.2,0.2,0.1
		c0-0.1,0.1-0.3,0.1-0.5c0-0.1,0-0.3,0.1-0.4c0.1-0.1,0.1-0.1,0.3,0.2c0-0.1,0-0.3-0.1-0.4c0-0.1-0.1-0.1-0.1-0.1
		c0-0.2,0.1-0.3,0.2-0.1c-0.1-0.9-0.3-0.6-0.3-1.4c0.1,0,0.1,0.2,0.2,0.2c-0.2-0.4-0.3-0.8-0.4-1.3H18c0,0.1,0,0.1,0,0.2
		s-0.1,0-0.1-0.2c0.1,1.1,0.2,2.2,0.2,3.3c-0.4-0.4-0.1,0.4-0.4,0.5c0,0.2,0.1,0.5,0.1,0.7l0.1-0.3c0.1,0.5,0.2,1.1,0.2,1.7
		c0-0.1-0.1-0.3-0.2-0.4c0.1,0.4,0.1,0.8,0.2,1.1v-0.7c0.2,0.6,0.4-0.1,0.4,0.7c0,0.3,0,0.6,0,0.9l0,0c0.1,0.2,0.2,0.4,0.3,0.6
		l0.4-0.1c0-0.1,0-0.2,0-0.4c0.1-0.1,0.3,0,0.4,0c-0.3-0.3-0.2-1.4-0.5-1.7c0.1,0.1,0.2,0.1,0.2,0.1l-0.2-0.2c0-0.3,0.1-0.3,0.2-0.3
		c-0.1-0.8-0.4,0.3-0.3-0.7c0,0.1,0,0,0.1,0.2c0-1-0.3-1.9-0.3-2.8c0.3-0.3,0.1,0.8,0.4,0.5c-0.1-1.2-0.5-2.4-0.5-3.6L18,14.9
		c0.1,0.1,0.1,0.2,0.2,0.3c0-0.1,0-0.1-0.1-0.2c0.2,0,0.3,0.2,0.3,0.5c0,0.3,0.1,0.6,0.2,0.9c-0.1-0.1-0.3-0.1-0.2-0.1
		c0.3,1,0.8,2,1.5,2.9l-0.2-0.1c0.2,0.3,0.4,0.6,0.6,0.8c0.3,0.3,0.6,0.5,0.9,0.6l0.6,0.3l0.1-0.7V20c-0.1-0.2,0-0.5-0.2-0.3
		c0.3-0.7,0.3-1.5,0.1-2.2c0-0.1,0-0.2-0.1-0.2v-0.1V17l-0.2-0.3c-0.1-0.2-0.2-0.5-0.3-0.7s0.1,0,0.2,0l0.3,0.1
		c-0.1,0-0.1,0.1-0.1,0.1s0.4-0.1,0.7-0.1c0-0.1-0.1-0.1-0.1-0.1c-0.1,0-0.2-0.1-0.3-0.1c0.2-0.1,0.5-0.2,0.7-0.2
		c-0.3,0.1-0.3,0.1-0.2,0.2l0.1,0.1l0.1,0.1l0.2,0.1c0-0.1,0.1-0.1,0-0.2c0.7,0.4,0.1-0.4,1-0.1l-0.1,0.1c0.2,0,0.4-0.1,0.6-0.1
		v-0.2c-0.1,0-0.3,0-0.4,0c-0.1-0.2,0.4,0,0.4-0.2c-0.5-0.1-1.1,0.2-1.4-0.1h0.4h0.2h0.2l-0.1-0.1h-0.1l-0.1-0.1l-0.1-0.1
		c-0.1,0-0.1,0-0.2-0.1l0,0c-0.1-0.1-0.2-0.1-0.4-0.2c0,0,0,0.1,0,0.1c-0.2,0.1-0.5,0.1-0.7,0.1c-0.2,0-0.3-0.1-0.5-0.1l-0.5-0.2
		c-0.3-0.1-0.6-0.1-0.9-0.2c0.3,0.1,0.5,0.1,0.8,0.1c0.1,0,0.2,0,0.2,0s0-0.1,0.4-0.1c0.1-0.1,0.1-0.1,0.4-0.1
		c-0.4,0-0.4-0.1-0.4-0.1s0,0,0-0.1h-0.1h-0.1l0,0l0,0h-0.1c0.3,0,0.6,0,0.9,0c0,0-0.1-0.1-0.3-0.1c-0.2,0-0.4,0-0.6,0
		c-0.1-0.1,0-0.1,0.2-0.1c0.2,0,0.4,0,0.7,0c0.2,0,0.4,0,0.6,0c0.1,0,0.2-0.1,0.3-0.2c0.2-0.1,0.4-0.2,0.6-0.3l0.2-0.1l0.2-0.1
		c0.2-0.1,0.4-0.1,0.6-0.1c0.2,0.1,0.1,0.1,0,0.2c-0.1,0-0.2,0.1-0.2,0.1c0.5,0.1,0.9,0.1,1.4,0c-0.1,0.1,0,0.1,0.1,0.2
		c0.4,0,0.3-0.3,0.8-0.1c-0.1,0.1-0.3,0.2-0.4,0.3c0.3,0,0.7-0.1,1-0.1l-0.1-0.7L27,13.2c-0.1-0.1,0.1-0.2,0.3-0.4l0.1,1.1h-0.1h0.1
		l-0.1-1.1c-0.5,0.2-1.2,0.5-1.3,0.7h0.4c-0.2,0.1-0.1-0.1,0-0.2c0.4-0.3,0.6-0.1,0.7-0.1l-0.3,0.1c0.2,0.1,0.5,0.1,0.8-0.1v0.1
		c-0.4,0-0.9,0.1-1.3,0.1l0.3-0.3l-0.7,0.2c-0.1-0.1-0.2-0.3,0.1-0.3c-0.5-0.2-0.4,0.1-0.9-0.1c-0.1,0,0,0,0-0.1l-0.5,0.1
		c0.1-0.1-0.1-0.2,0.2-0.2c-0.2,0-0.4,0-0.6,0C24,13,23.8,13,23.6,13c-0.3,0.1-0.5,0.1-0.8,0.1h0.1c-0.2,0-0.4,0.1-0.6,0.1
		c-0.1,0,0,0.1,0,0.1s0.2,0.1,0.1,0.3c-0.5-0.2-1-0.3-1.6-0.3c0.1,0.1,0.2,0.1,0.3,0.2c-0.2,0-0.4,0-0.6,0c-0.1,0.1,0,0.1,0.1,0.1
		s0.2,0,0.2,0.1c-0.2,0-0.4,0-0.7,0.1l-0.5,0.1C19.2,14,18.8,14,18.4,14h-0.1c0.1,0,0.2,0,0.3,0c0.2,0,0.5-0.1,0.3,0s0,0,0,0l0,0
		c-0.4,0-0.2,0.1,0.1,0.2s0.7,0.2,0.8,0.4c-0.6-0.1-0.9-0.3-0.8-0.1c0.3,0,0.7,0.1,0.9,0.3c0.2,0.2,0.4,0.3,0.7,0.4
		c0.3,0,0.7,0,1,0.2c0.4,0.2,0.9,0.3,1.4,0.4c0,0,0.1,0.1,0.5,0.2l0.5,0.1l0.5,0.1l0.1-0.9c-0.3,0-0.6-0.1-0.8-0.1l0,0
		c-0.1,0.1-0.3,0.2-0.6,0.2h-0.9c0-0.2,0.2-0.2,0.5-0.3h-0.6c-0.2,0.1-0.5,0.1-0.8,0.1c0-0.1,0-0.1,0.1-0.2c-0.3,0-0.6,0-0.8,0h-0.4
		h-0.2l0,0v0.1c0.2,0.4,0.4,0.9,0.6,1.3c0.1,0.1,0.2-0.1,0.4-0.1s0.3,0.1,0.5,0.5c-0.2,0-0.4,0-0.4-0.2c0.1,0.1,0.2,0.3,0.2,0.5
		l-0.3-0.4c0,0.2,0.1,0.3,0.1,0.3c0.1,0.1,0.1,0.1,0.2,0.2c-0.1,0-0.1,0.2-0.2,0.2c0-0.1,0-0.1,0-0.2c0-0.1,0-0.2-0.1-0.3
		c0,0.2,0,0.4,0,0.6c0,0.1,0,0.3-0.1,0.4c0.1,0,0.2,0,0.2,0.2c0.1,0.6-0.2,0.2-0.2,0.6c0.1,0.1,0,0.5,0.2,0.6c0,0.2-0.1,0.2-0.2,0.3
		c0,0.1,0,0.2,0,0.3l0.8-0.4c-0.2-0.1-0.4-0.1-0.6-0.2c-0.1-0.1-0.2-0.1-0.2,0v0.1l0,0l0,0c-0.2-0.1-0.4-0.3-0.6-0.6
		c-0.2-0.2-0.3-0.5-0.4-0.8c-0.2-0.5-0.3-1.1-0.5-1.6h0.1c-0.1-0.3-0.3-0.6-0.4-1c-0.1-0.3-0.3-0.6-0.5-0.8L18,14.2l0.2,0.7
		c0,0,0,0,0,0.1c0,0.2-0.1,0.5-0.2,0.4c0.1,0.4,0.1,0.9,0.1,1.3c-0.2-0.5-0.1,0.2-0.1-0.5c-0.1,0.5-0.1,1.1,0.1,1.6
		c-0.2-0.2-0.2,0.5-0.1,0.8l0.1-0.5c0.1,0.3,0.1,0.7,0.1,1l-0.3-0.2c-0.2,1.4,0.8,2.4,0.4,3.6c0.2,0.4,0-0.8,0.3-0.5
		c0,0.5-0.1,1-0.2,1.5c0,0.1,0,0.3,0,0.4l1.7-0.3c-0.1-0.4-0.5-0.5-0.6-1.2c-0.1,0.1-0.3,0.3-0.5-0.4s0.3-0.8,0.4-0.4
		c0,0.1,0,0.2,0,0.2c0.1,0.2,0.1,0.4,0.2,0.2L19.4,22c0.1-0.3,0-1.1,0.1-1c-0.1-0.4-0.2-0.2-0.2,0.2c0.1-0.8-0.1-1.2,0-2.1
		c-0.1,0.1-0.2,0.3-0.2,0.1c0.1-1.2-0.2-0.5-0.2-1.4c0.1-0.5,0.3,0.2,0.2-0.7c0.1-0.5,0.2-0.1,0.3,0.1c-0.1-0.5,0-1.1,0.1-1.6
		l-2.1,0.1c0,0.1,0,0.2,0,0.3l-0.1-0.3l2.3-0.1v0.1v-0.1l-2.3,0.1c0,0.2,0.1,0.3,0.1,0.5l0.2-0.2c0,0.2,0,0.4-0.1,0.4
		c0.1,0.2,0.3-0.2,0.5,0.2c-0.1,0.3,0.2,0.9-0.1,1.1c0-1-0.2,0.1-0.3-0.7c0,0.2,0,0.4,0,0.6c0,0-0.1,0-0.1-0.1c0,0.2,0,0.3,0,0.5
		c0,0.1,0.1,0.2,0.1,0.2c0.1,0,0.2,0.1,0.2,0.3c-0.1,0-0.1-0.1-0.2-0.1c0,0-0.1,0-0.1,0s0.2,0.1,0.4,0.4c-0.1,0.1,0,0.2,0,0.3
		c0,0.1,0.1,0.2,0.1,0.3l0.1-0.1c0.1,0.3,0.2,0.6,0.1,0.8c-0.1-0.2-0.1-0.4-0.1-0.4c0.1,0.4,0.1,0.5,0,0.4s-0.1-0.1-0.1,0
		s0,0.1,0,0.3c-0.1-0.2-0.1-0.3-0.2-0.5c0-0.2-0.1-0.3-0.1-0.5c0.1,0.4,0,0.3,0,0.2s0-0.1,0-0.1c0.1,0.1,0.1,0.2,0.1,0.4
		c0,0.1,0,0.3,0,0.4c0,0.2,0.1,0.4,0.1,0.6c0-0.1,0-0.2-0.1-0.3v-0.2c0,0,0-0.1,0-0.1v-0.1c0,0.1,0,0.2,0,0.4s0.1,0.2,0.1,0.3
		c0,0.2,0.1,0.3,0.1,0.5c0,0,0-0.1,0-0.1c0,0,0-0.1,0-0.1V21c0-0.1,0-0.1,0-0.1c0,0.4,0.1,0.8,0.2,1.1c0-0.1,0-0.1-0.1-0.2l0,0l0,0
		c0,0,0,0,0-0.1s0,0,0,0.1s0,0.1-0.1,0c-0.1-0.1-0.1-0.2-0.1-0.3l0.1-1c0,0,0.1,0.1,0.1,0.1c0,0.1,0,0.1,0,0.2c0,0,0,0,0,0.1l0,0
		l0,0v-0.1l-0.1-0.1c-0.2-0.3-0.4-0.6-0.6-1c-0.2-0.4-0.4-0.8-0.6-1.2l0.2,0.7c-0.1,0-0.2-0.2-0.3-0.5c-0.1-0.3-0.2-0.6-0.4-0.9
		c0-0.4-0.1-0.8-0.2-1.2c0,0.2-0.1-0.2-0.3-0.5c-0.1,0.4-0.2,0.9-0.2,1.4c-0.1,0.1-0.2,0.2-0.3,0.3c-0.1,0.3-0.2,0.7-0.3,1
		c-0.1,0.3-0.1,0.6-0.1,0.8s0,0.5-0.1,0.7c0,0.3-0.1,0.5-0.2,0.8c0-0.2-0.1-0.2-0.1-0.2s-0.1-0.1,0-0.7c-0.1,0.5-0.3,0.9-0.2,0.9
		c0,0,0,0.1-0.1,0.1h1.3c0-0.2-0.4-0.7-0.4-1c-0.1-0.1-0.3-0.1-0.4-0.4c0-0.1,0.1,0,0.1,0s-0.1-0.1-0.2-0.2s-0.1-0.2-0.2,0
		c0-0.4,0-0.8-0.1-1.1c0-0.2-0.1-0.4-0.2-0.5c-0.1-0.2-0.2-0.3-0.3-0.4c-0.1-0.1-0.2-0.1-0.3-0.1c-0.1,0-0.2,0.1-0.2,0.1l-0.4,0.3
		l-0.4,0.3c-0.1,0.1-0.3,0.2-0.4,0.2l-0.3,0.3l-0.1,0.1L12,19l-0.4,0.4l-0.7,0.8c0-0.1-0.1-0.1,0-0.1c-0.7,0.5,0,0.7-0.9,1.3
		c-0.5,0.2,0.3-0.5,0-0.3c-0.4-0.2-0.8,0.8-1.4,1.1l1.1,0.6v-0.1v0.1l-1.2-0.6l0.1-0.1H8.6l1.3,0.7C10,22.6,10,22.3,10,22
		c0-0.3,0.1-0.7,0.3-1c0,0,0,0.1,0.1,0c0.1-0.6,0.3-1.2,0.7-1.8l-0.5-0.2v0.5c-0.2-0.3-0.1-0.4-0.3-0.2c0,0.4,0.3-0.1,0.3,0.7
		c-0.1,0.2-0.3,0.7-0.5,0.8c0-0.2,0-0.5,0-0.7c-0.3,0.3-0.1,0.9-0.1,1.2l-0.1-0.1c0,0.4,0,0.7,0.1,1.1c0.1,0.4,0.1,0.8,0.1,1.1
		l0.1-0.1c0.3,0.6-0.2,0.5,0.1,1.1L10,24.6l-2.5,1.6l3.6-1.6l0,0C11,24,11,23.3,11,22.5c0.2,0.6,0.2,1.2,0.3,1.8
		c0.1-0.5,0.1-1.1,0-1.6c0,0.2,0,0.3,0,0.5c-0.2-0.6-0.3-1.3-0.1-2c0.6,0.2,0.4-2,0.9-2.6c0-0.6,0-1.1,0.1-1.7L10.6,17
		c0,0.4,0,0.9,0.1,1.3c0.1,0.5,0.3,1.1,0.6,1.5l0.8,1.2l0.7-1.3l0.2-0.3c-0.7,0.3,0.2-0.4-0.2-0.6c0.2-0.3,0.2-0.5,0.3-0.5l0.8-0.9
		c0.3-0.2-0.1,0.4,0,0.4c0.4-0.7,0.4-0.2,0.7-0.6c-0.2,0-0.1-0.4,0.2-0.8L14.3,17c0.4-1.1,0.9-0.7,1.2-1.8v0.4l0.1-0.2l0.1-0.1l0,0
		v-0.1c0-0.1,0-0.3,0.1-0.8c0,0.2,0,0.3,0,0.5v-0.1c0,0,0.1,0.1,0.1,0.1c0.1,0,0.1,0.1,0.2,0.2c0.1,0.1,0.2,0.3,0.2,0.5
		c0.1,0.3,0.2,0.5,0.2,0.8l-0.1-0.1c0.1,0.2,0.4,0.4,0.4,0.7c-0.1,0-0.1-0.1-0.1,0.1c0.2,0.3,0.4,0.6,0.5,1l-0.2-0.2
		c0.1,0.3,0.2,0.7,0.4,1l2.1,4.3l-0.2-4.6c0-0.8-0.3-1.5-0.3-2.3c0.3,0,0.5-1.1,0.5-1.7l0,0c0-1.5-0.2-2.9-0.6-4.3
		c0.1-0.7,0.2-1.4,0.1-2.2c-0.1-0.9-0.2-1.8-0.2-2.6c0,0.2-0.3,0-0.4-0.3c0-0.2,0-0.3-0.1-0.5l-1.4,0.3c0.1,0.2,0.2,0.4,0,0.4V5.2
		c-0.2,0.3,0,1,0.1,1.5h0.4c-0.1,0.9,0,1.7,0.2,2.6c0.2,0.6,0.2,1.3,0.1,2c0.1,0.3,0.1,0.8,0.3,1.1h-0.2v0.4l2-0.3
		c-0.1-0.8-0.3-1.5-0.5-2.2l0.2,0.2c-0.1-0.7-0.8-0.7-1-1.3L18.5,9c-0.2-0.7-0.2-1.5-0.4-2.3L16.1,7c0,0.4,0.1,0.9,0.2,1.3
		c-0.1,0-0.2-0.1-0.2-0.2c0,0.6-0.1,2.2,0.3,1.9c-0.3,0,0,1.2,0.1,1.9l-0.2-0.1c0.3,0.4,0.4,0.9,0.4,1.3c0,0.2-0.2,0.1-0.1-0.1
		c-0.1,0.6,0.2,0.5,0,1.2L16.6,14c-0.1,0.3,0,0.6,0.1,0.9c0,0.2,0,0.5-0.1,0.7l0.8-0.1c0-0.3,0-0.6,0.1-0.6
		c-0.2-0.2-0.4-0.4-0.4-0.7c0-0.1,0.1,0.1,0.2,0.1c-0.2-1.1-0.7-1.4-0.8-2.2c0.1,0,0.1-0.1,0.1-0.2c0.2,0.5,0.3,0.9,0.5,1.4
		c0.2-0.1,0-0.7,0.4-0.3c-0.5-0.6-0.8-1.2-1.1-1.9c0,0,0-0.1,0-0.1V11c0-0.1-0.1-0.3-0.2-0.4c0-0.2-0.1-0.4-0.2-0.5
		c0.1-0.2-0.3-0.8-0.4-1.1l0,0l-1.8,0.4c0.2,0,0.2,0.4,0.3,0l1.2-0.3l-1.2,0.3l0,0l1.2-0.3l0,0l-1.2,0.3l0,0l-0.4-1.6l1.6,1.3
		c0.1,0.1,0.1,0.2,0.2,0.2l0.1,0.1l0,0c0.1,0.2,0.2,0.5,0.4,0.8c-0.3-0.2-0.4-0.5-0.5-0.8L15,9.4l-0.8-0.2l0.2,0.4l0.1,0.1
		c-0.3,0.4-0.5,1.3-0.7,1.4c0.1,1,0,2.4,0.4,3.1c0,0.3-0.1,0.3-0.2,0.4c0-0.2,0-0.4-0.1-0.5c0.1,0.6,0,1.7,0.3,1.9
		c-0.1,0.7-0.3-0.4-0.2,0.6l-0.1-0.1c-0.1,0.5-0.2,1-0.1,1.5l1.3-0.4c-0.4-0.4-0.7-0.8-1-1.3c-0.3-0.6-0.5-1.3-0.4-2
		c0,0.2,0,0.2,0,0.3c-0.1-0.6-0.2-1.3-0.5-1.9c-0.3-0.6-0.7-1.2-1.2-1.7l-0.8-0.7l0.1,1c0.1,1.2,0.1,2.4,0.1,3.7l1.1-0.1v-0.3
		c0-0.3-0.1-0.5-0.2-0.8c-0.1-0.2-0.3-0.3-0.4-0.4l0.1-0.3c-0.2-0.2-0.4-0.4-0.7-0.5c-0.4-0.4-0.7-0.8-1.1-1.2l-0.5-0.4l-0.3,0.8
		c-0.2,0.5-0.2,1.1-0.1,1.6l0.2-0.2c0,0.2,0,0.4,0,0.7l0.6-0.1C9.9,13.3,9.6,13,9.8,13c-0.1,0-0.2-0.1-0.2-0.2l0.1-0.1
		c-0.3-0.3-0.6-0.6-0.8-0.8s-0.1-0.4,0-0.5s0.1-0.2-0.3-0.8c-0.3-0.4-1.2-0.9-1.1-0.7s0.3,0.4,0.2,0.5L7.2,10
		c-0.3,0.2-0.8,0.2-0.4,1.1c0.2,0.2,0.4,0.3,0.6,0.5v0.3l-0.4-0.5c0.1,0.4,0.3,0.5,0.6,0.6c0,0.1,0,0.3,0,0.4l0.7,0.4
		C8.3,13,8,12.7,8.2,13.2c0.3,0.2,0.1-0.4,0.5,0c0.1,0.4-0.1,0.4,0.2,0.7c-0.1,0.1-0.1,0.1-0.3-0.1c0.2,0.2,0.3,0.3,0.4,0.5l1.7,2.2
		l-0.1-2.6c0-0.2,0-0.4-0.1-0.5c0.2-0.4,0-1.3,0.4-1.2c-0.1-0.1-0.1-0.2-0.1-0.4l-1.3,0.7c0.2,0,0.4,0.1,0.5,0.2
		c-0.3,0-0.1,0.2,0.1,0.4s0.4,0.5,0.1,0.6c0.2,0.1,0.4,0.3,0.5,0.5c0.1,0.3,0.2,0.6,0.2,0.9l1.8-0.1c0-0.2-0.1-0.3-0.1-0.5
		c0.1,0.1,0.1,0.1,0.1,0.2c0-0.3,0.1-0.6,0.2-0.9c-0.3-0.1-0.4-0.8-0.6-1.2c0.3-0.6,0.4,0.3,0.6,0.1c-0.2,0-0.3-1-0.5-0.8
		c0.2-0.4,0.1-0.4,0.3-0.6h-0.1L11,12.1c0.1-0.1,0.2,0,0.2,0c0.1,0.1,0.2,0.2,0.3,0.2c0,0.1,0,0.2,0,0.3c0,0,0,0.1-0.1,0.1
		c0,0.1,0,0.1,0.2,0.3C12,13.2,11.7,12.9,11.7,12.9z M15.5,11.8L15.5,11.8c-0.1-0.1-0.1-0.2-0.1-0.3L15.5,11.8z M16,13.1
		c-0.1-0.2-0.1-0.4-0.2-0.6s0.1-0.1,0.2,0.1C15.9,12.5,16,12.8,16,13.1z M16.2,9.7c0.1,0.2,0.1,0.3,0.1,0.3
		C16.3,9.9,16.2,9.8,16.2,9.7L16.2,9.7C16.2,9.7,16.2,9.7,16.2,9.7z"/>
	<path class="st0" d="M15.8,9.4L15.8,9.4C15.7,9.4,15.7,9.5,15.8,9.4L15.8,9.4L15.8,9.4z"/>
	<path class="st0" d="M21.1,19.3L21.1,19.3C21.1,19.4,21.1,19.4,21.1,19.3C21.1,19.4,21.1,19.4,21.1,19.3z"/>
	<polygon class="st0" points="19.8,10.9 19.7,10.9 19.8,11.1 	"/>
	<path class="st0" d="M23.1,16.1c0,0,0.1,0.1,0.1,0.1C23.2,16.2,23.2,16.1,23.1,16.1z"/>
	<path class="st0" d="M23.5,15c-0.1,0-0.1-0.1-0.2-0.1C23.4,14.9,23.4,15,23.5,15z"/>
	<path class="st0" d="M22.3,14.5L22.3,14.5z"/>
	<path class="st0" d="M19.8,21.6v0.2C19.8,22.2,19.8,21.9,19.8,21.6z"/>
	<path class="st0" d="M18.8,23.1c-0.1-0.1-0.1-0.2-0.2-0.4C18.6,23,18.7,23.1,18.8,23.1z"/>
	<path class="st0" d="M14,20.8L14,20.8L14,20.8L14,20.8z"/>
	<path class="st0" d="M18.5,22.2c0,0.2,0,0.4,0.1,0.6C18.6,22.6,18.6,22.4,18.5,22.2z"/>
	<path class="st0" d="M26.5,12.9h-0.1l0,0H26.5z"/>
	<path class="st0" d="M26.3,13L26.2,13C26.3,13,26.3,13,26.3,13z"/>
	<path class="st0" d="M26,13.2l0.2-0.1C26.1,13.1,26,13.1,26,13.2z"/>
	<path class="st0" d="M25.3,13.7L25.3,13.7C25.3,13.7,25.3,13.7,25.3,13.7z"/>
	<path class="st0" d="M24.3,13.7c0.3,0.1,0.6,0.1,0.9,0.1v-0.1C25.1,13.9,24.5,13.6,24.3,13.7z"/>
	<path class="st0" d="M19.1,13.5l1.1-0.2c-0.3,0-0.8,0-0.4-0.1c-0.2,0-0.5,0-0.7,0.1c0,0,0.1,0,0.2,0S19.8,13.4,19.1,13.5z"/>
	<path class="st0" d="M20,14.8c-0.6-0.2-0.2,0-0.4,0C20.1,15,20.2,15,20,14.8z"/>
	<path class="st0" d="M18,15.4h-0.2C17.9,15.8,17.9,15.4,18,15.4z"/>
	<polygon class="st0" points="19.3,19.1 19.4,18.7 19.2,18.6 	"/>
	<polygon class="st0" points="18.1,21.4 18.1,21.3 18.2,21.9 	"/>
	<path class="st0" d="M13.3,17.3c0.1,0.1,0.1,0.1,0.1,0.2c0.1-0.1,0.2-0.2,0.2-0.3C13.6,17.2,13.5,17.1,13.3,17.3z"/>
	<path class="st0" d="M10.2,23.3c-0.2,0.2-0.2,0.5-0.1,0.8C10.1,23.8,10.2,23.4,10.2,23.3z"/>
	<polygon class="st0" points="17.3,7.5 17.2,7.2 17.4,7.7 	"/>
</g>
</svg>
