<svg xmlns="http://www.w3.org/2000/svg" viewBox="0 0 402 246"><defs><style>.a{fill:currentColor;}</style></defs><path class="a" d="M249.51,118c0,.14-.07.44-.15.36l0-.52Z"/><path class="a" d="M248.73,118.78a2.37,2.37,0,0,1,.08-1.18c0,.51.07.31.06.92.08.08.19-.14.21-.33,0,.14.16-.08.14.25-.19.37-.34.36-.43,0A1.11,1.11,0,0,0,248.73,118.78Z"/><path class="a" d="M240.05,118.06l.06,0A.13.13,0,0,1,240.05,118.06Z"/><path class="a" d="M234.7,117.54a.1.1,0,0,1,0,.12S234.68,117.58,234.7,117.54Z"/><path class="a" d="M233.71,118l.06,0S233.72,118,233.71,118Z"/><path class="a" d="M240.05,118.06l-.17.14C239.9,118,240,118.08,240.05,118.06Z"/><path class="a" d="M247.79,117.32a.3.3,0,0,1,.05.15s0,0-.06-.06Z"/><path class="a" d="M242.31,118.86h0a.74.74,0,0,1,0,.21Z"/><path class="a" d="M244.08,119.25a2.6,2.6,0,0,1,0-.62.54.54,0,0,0,0,.32C244.14,119,244.12,119.13,244.08,119.25Z"/><path class="a" d="M247.05,119l0,.07Z"/><path class="a" d="M241,118.74a.86.86,0,0,1-.05.15A.88.88,0,0,1,241,118.74Z"/><path class="a" d="M190.38,112.24v.08S190.36,112.25,190.38,112.24Z"/><path class="a" d="M188.35,114.52l0,0,0,.25Z"/><path class="a" d="M232,118.33h0C232,118.38,232,118.37,232,118.33Z"/><path class="a" d="M216.77,116.52c.2-.38-.25-.53,0-1C216.77,115.74,217,116.28,216.77,116.52Z"/><path class="a" d="M247.74,117.37l-.08,0S247.72,117.35,247.74,117.37Z"/><path class="a" d="M216.81,115.57h0l0,0Z"/><path class="a" d="M228.2,117.61a1.45,1.45,0,0,1,.06-.19A.93.93,0,0,1,228.2,117.61Z"/><path class="a" d="M231.12,117.32l-.07.05S231.1,117.32,231.12,117.32Z"/><path class="a" d="M226.79,116.82s-.07.09-.11,0,0,0,0,0S226.74,116.88,226.79,116.82Z"/><path class="a" d="M225.24,116.66l0-.09.05,0Z"/><path class="a" d="M195.16,112.32a2.44,2.44,0,0,0-.06.39C195.11,112.4,194.88,112.29,195.16,112.32Z"/><path class="a" d="M247.75,117.57a.51.51,0,0,0,0-.2s0,0,0,0S247.76,117.53,247.75,117.57Z"/><path class="a" d="M227.09,113.34l-.25,0A.52.52,0,0,1,227.09,113.34Z"/><path class="a" d="M206.44,112.41l-.06-.06S206.42,112.36,206.44,112.41Z"/><path class="a" d="M226.11,113.24a1,1,0,0,1-.17.29.43.43,0,0,1,0-.12Z"/><path class="a" d="M195.1,112.72h0Z"/><path class="a" d="M193.54,112.22c-.24-.23-.08.1-.28.49-.13-.47-.23.17-.28-.6a1.51,1.51,0,0,1-.18.7c.06-.42-.29-.41-.29-.91,0,.57.27.69.09,1.29-.14-.37-.39-.51-.43-1.13-.1.15-.13.38-.29.44,0,0,.06.08.08.14-.3-.4-.69,0-.88-.71.09.89-.58.13-.34.95-.12,0-.31-.39-.36-.56,0,.7-.28.19-.39.61-.08-.39-.29-.25-.42-.47a.58.58,0,0,1,.08.39c-.15-.28-.11,0-.21.33-.21-.21,0-.54-.12-.86-.16.17,0,.44,0,.73l-.27-.69a.84.84,0,0,0-.09.4c-.1-.2-.19-.49-.29-.16l.21,0-.07.36-.27-.44a3.31,3.31,0,0,0-.13,2l.16.13c0,.24-.09.39-.16.41a1.49,1.49,0,0,0,.44.87c.43-.07.05-.86.34-1l.4.41v-.25c.06-.17.1.11.12.16,0-.36.31-.13.46-.19l0,.32c.46.74.65-.84,1-.45l.26.54,0-.48c.15.28.18.65.41.47.78-.86,1.69.14,2.49-.41a.36.36,0,0,1-.08.21c.7-1.21,1.15,1.19,1.78.25l0-.18c.33.09,0-.18.18-.44.06.58.43.45.63.66,0-.12-.1-.11-.16-.19s.05-.48.14-.37c.23.83.68.74,1,1,0-.39.33-.72.47-1.34,0,.14.1.43.16.71.12-.24.21-.06.3.17l-.27,0v0s0,0,0,0-.11,0-.09-.07c-.14.37,0,.3,0,.74.11,0,.34.14.36-.2.07,0,.11-.06.18-.12s.08.1.13.06l0,0a1.06,1.06,0,0,1,0-.14c.21-.2.52.46.69.77-.17-.56,0-.63,0-1,0,0-.2.06-.47.07a.92.92,0,0,0,0-.26c.24-.43.41.37.75.08a.5.5,0,0,1,0-.29c.12-.12.23.21.26.45,0-.4.29-.68.42-.5s.1.47.3.44l-.09-.28c.25-.23.2.41.4.18-.08.12-.08-.18,0-.24.25.16.25.32.43.88l0-.44c.21.26.61.8.62.21-.07.91.46.48.65.46-.06,0-.07-.22-.08-.31.39.6.79,0,1.19,0l.07-.67c.21,0,.25,1.35.48,1.33l-.08-.32a1.22,1.22,0,0,0,.89,0v-.44c.12.21.26.21.38.42.29-1.08,1,.59,1.55-.61v.83c.19,0,.42.17.53-.45h-.05c0-.64.19,0,.31-.15a.78.78,0,0,1,.08.62c.51-.41,1.23.06,1.56-.68.49.29.83,1,1.37.89v-.09a1.08,1.08,0,0,0,.59-1c.38.18.57,1.15,1.05.87l-.09-.27c.13-.14.3.21.34.29s0-.15,0-.25.16.15.25.22l0-.24c.4-.45.92.51,1.4.42-.08-.07,0-.33,0-.44.15.78.68.63.87.82l-.1-.31c.35.53.38-.79.73-.25l-.25.43c.16-.12.29,0,.23.37.19-.24.06-.58.33-.64,0-.21-.18-.16-.07-.43l.41-.55c0-.06.07-.08.19,0-.1,1,.31.08.05,1,.53.11,1-.5,1.45,0,.26-.93.91,0,1-1.17.26,0,.45.27.57.77-.06.09-.11-.07-.16-.13a.49.49,0,0,0,.48.39,3.58,3.58,0,0,1-.5-1,3.49,3.49,0,0,1,.64.78l.11-.62c.16.47.21-.48.36.14l-.05.19c.36,0,.32.6.65.71v-.25c.13-.09.25.51.41,0l-.22-.05a2.39,2.39,0,0,1,.34-.82c.23.14,0,.72.14.79.08-.41,0-.22,0-.63a1.46,1.46,0,0,1,.73.91.43.43,0,0,0,0-.15c.28,0,.45.7.65.38l0-.07c.28-.57.51.62.65-.4.13-.18-.23,0,0-.46.35-.29.13.87.44.61,0,0,0,0,0-.12a2.78,2.78,0,0,1,.68.29c.36-.8.83.29,1.25-.64-.13.33,0,.4,0,.56a.43.43,0,0,1,0-.15c.12,0,.1.31.13.45.13-.28.29.35.37.17,0,.21.08.16.18.17-.18-.26,0-.46-.07-.81.32-.07.25,1,.59.85l.23-.39c0,.63.29.41.26.64a1.41,1.41,0,0,0,.19-.6c.12.16.35-.13.36.24l-.15.15c.43-.19.56.72.92.35l.1-.93c.25-.35.32.55.57,0-.1.31-.1.21,0,.53-.09.06-.2-.2-.33-.21l.21.57-.4-.31c.14.39.14.29,0,.66.22.33.33-.41.54,0,.1-.12.05-.46.18-.64.18.36.5-.61.6-.1.06-.09-.09,0-.05-.25.13.1.24.08.25.36l-.14.09c.11,0,.08.37.32.18.09.22.1.69,0,.68,0,.06.19-.17.18-.45.32,0,0,1,.39.6a.18.18,0,0,1,0-.13c.08-.06.15,0,.19,0-.26-.11.18-.73-.16-.6.1-.49.26-.07.39-.24.11.35-.08.7,0,1,0-.16.08-.15.17-.21l-.12.36a.24.24,0,0,1,.19.12l-.11-.17c.15-.05.44-.61.65-.22,0-.16-.14-.48.05-.65.24.27.08-.15.28-.41.26.12-.05.67.39.49,0,0,0,.22-.09.32.3-.15.41.13.71-.1a.26.26,0,0,0-.1.4c0-.32.26-.26.39-.43V118a.27.27,0,0,0,0-.36c0,.06,0,.12-.08.1-.11-.17,0-.87.25-.91.2.2.09.69,0,.87.32-.15.15.89.48.65.06,0,.38-.71.6-.75,0,.44-.3.28-.24.66.5-1,.61.75,1.15.18l0-.52a.43.43,0,0,1,.33,0l-.2.26c.09.13.35.07.33-.34.17.46.26.22.49.12-.23,0,0,.07-.14-.23.28-.21.28,0,.43.11,0-.19.13-.46.19-.45.11.36.39.33.58.54l0-.15c.34.25.85-.4,1.15.12h0l0,0,0,0c-.2.47.24.39.32.61,0-.12.09-.33.15-.33-.07.46.11.26.13.49.15-.14.07-.56.29-.5s0,.3,0,.47a.64.64,0,0,1,.38-.42c0-.13-.11,0-.13,0,0-.24.08-.14.13-.45.11,0,0,.43.13.3l-.06-.38c.07-.09.11.07.13.11a1.67,1.67,0,0,1,.05-.68c.26.31-.1,1-.15,1.38.33-.24.47.28.68.34l0-.43a.46.46,0,0,1,.13.38l.17,0a1.09,1.09,0,0,1,0-.65c.16.15.42.08.36.66v-.1c.27-.16.78-.19.8-.39.21.24.59,0,.5.53.12.16.51-.66.49.06.25-.34,0-.15.06-.57.25-.34.25.64.46-.16.16.28-.08.16-.07.53.18-.75.4-.06.67-.45,0,.32-.12.17,0,.52,0-.19.11-.21.15-.22l0,.48.42-1.13c.18.62-.22.8.13,1.1v0c.19-.47.21.42.56.1-.12.08,0-.23,0-.37l.12.22a.16.16,0,0,1,0-.11c.21-.33.08.21.3-.08-.09-.11,0-.47.09-.62l.13.57,0-.66c.24,0,.37,1.08.66.22l-.1-.12c0-.15.2-.6.29-.25,0,.09,0,.47-.07.44l.14-.13a.86.86,0,0,0-.39-.75c0,.18.14.34,0,.6-.13-.17-.22-.48-.35-.65a4.47,4.47,0,0,1,0,.63c-.22.19-.08-.31-.2-.37a.85.85,0,0,0-.13.4c-.12-.2-.24-.27-.45-.08a.73.73,0,0,1,0,.57c-.26-.31-.23-.84-.51-1.19-.26-.78-.84.28-1-.28,0-.19.26-.29.11-.44,0,.38-.15.22-.19.37-.09-.59-.3.07-.37-.33,0,.14-.13.27-.23.38-.06.48-.24.15-.09.87-.15-.76-.53.09-.55-1l.09-.12L244,117h0c-.14.06-.13-.07-.39.39,0,.12.16.14.21.27-.23.39-.26-.4-.42-.46-.06.35.15.16,0,.56-.13,0-.19-.23-.29-.35v.19c-.38.38,0-1-.29-.35,0-.11,0-.23,0-.34-.11.18-.36.49-.21.76-.11,0-.2-.2-.21-.43s.13-.12.22-.47l-.38-.27c-.05,0,0,.19.06.21-.66.91-.86-1-1.62.1.11-.3,0-.28,0-.5-.2.06-.46-.06-.66.1l0,.22c-.39-.33-.63-.71-.94-.62a1,1,0,0,0,0,.37c-.15-.42-.59.77-.52-.06l.08,0c-.43.07-.8-.6-1.22-.76-.17.47.24.08.07.66-.33.15-.57-.31-.92-.19,0,.06,0,.12,0,.16-.37.27.1-.49-.18-.46,0,.25,0,.31-.15.42l0-.41a1.48,1.48,0,0,0,0,.5c0-.54-.45-.24-.48-.74,0,.12,0,.59-.1.77s-.24-.09-.31-.29h0c-.15.32-.39.24-.35.3-.28.13,0-.28-.15-.61l.23-.19-.35-.16.11.26c-.19.17-.3-.28-.5-.3l.13-.27-.2-.21c-.1.58-.31.1-.28.79-.45.24-.62-.56-1-.65.07,0,0,.12,0,.22-.24.1-.34-.22-.43-.54a3.17,3.17,0,0,1,0,.41c-.26,0-.12-.35-.38-.57.05.26,0,.38-.08.43a.67.67,0,0,0,0-.44c.06,1.19-.39.43-.37,1.37,0-.25-.36-.81-.18-1.26l.07.1c.05-.32-.07-.21-.15-.24a.34.34,0,0,1,.06.2c-.36-.44-.83-.14-1.26-.49,0,.13.19.36.06.44-.48.12-.67-.51-1.1-.86-.11.74.48.17.42.87a6.07,6.07,0,0,1-1.44-1c-.31,1.06-.48-.51-.9.3.07-.36-.09-.51-.27-.54,0,.3-.16.29-.13.51-.12-.35-.57-.53-.63.18,0-.69-.34,0-.42-.5-.23.23-.42-.19-.7,0,.14-.42-.23-.23-.3-.42,0,0,.07.1.05.16-.11.37-.26-.36-.42-.15s0,.4-.14.43c0-.31-.32-.71-.5-.34.07,0,.06.16.08.28-.62-.6-1.4,0-2-.7l.07.53c-.48.63-.21-.87-.55-.83-1,.18-2,.84-2.87.44-.06-.16.05-.19.07-.4-.08.06-.13.49-.22.21l0-.28c-.47.73-1.17-.59-1.56.57-.37-.47-.69.28-1.14-.43-.16.24.15.5-.06.55l-.42-.46,0,0c-.38-.87-1.2.88-1.71.24l0,.05c0,.19-.13.42-.21.35s0-.21.1-.37a1.91,1.91,0,0,0-.95-.46c.15.3-.17.25-.2.65-.09-.27.07-.42-.14-.65-.32,0-.63.28-.9.41-.09-.36-.23-.27-.22-.71a7.36,7.36,0,0,0-1-.24l0,.15c-.1-.55-.39.27-.46,0a3.59,3.59,0,0,1,0,.43l-.2-.19c.09.17.13.7,0,.75-.16-.39.06-.26,0-.58l-.07.51c-.12-.06-.14-.64,0-.79-.45,0-.88-.27-1.28-.2l0,.33a.43.43,0,0,0-.65.15,1.22,1.22,0,0,1,0-.38c-.24-.46,0,.55-.31,0a.7.7,0,0,1,.16.39l-.52-.43c0,.25-.35.8-.57.58a.48.48,0,0,1,.12-.36l-.14-.12-.12.57-.2-.51,0,.49c-.15-.1-.19-.73-.32-.69-.47.3-.38.47-.72.92,0-.93-.52,0-.6-.64-.45.68-1.08.26-1.66.45l.05.08c-.25.43-.28-.7-.55-.51l.07.13c-.35.5-.94,0-1.27-.35.07.13,0,.43-.07.4s.09-.65-.1-.48c.05.09,0,.3,0,.3l-.18-.46c-.47.31-1,.65-1.52.39-.09.16,0,.33,0,.49-.38-.1-.77-.48-1.13-.56l0,.53c-.17,0-.11-.82-.33-.34,0,.08.15,0,.21.27-.34.41-.21-.52-.53-.45l.09.6c-.25.36-.29-.32-.39-.67-.36-.71-.23,1.17-.72.64-.08-.3,0-.44-.07-.74-.33.16-.38-.26-.72-.1-.16.91.17,0,0,.84l.26-.21c-.22.48.2.12.18.65-.17.16-.43-.28-.65-.46,0,.41.25,0,.16.59l-.11-.16c0,.12,0,.27.1.26,0,.38-.13,0-.23,0a5.59,5.59,0,0,1,0-.8.89.89,0,0,1,0,.14c-.23-.57-.59-.12-.79-.58a.42.42,0,0,1,0,.25c-.13,0-.28-.5-.46-.65-.09.3.08.89-.21.73-.06-.34,0-.92-.18-.9A.59.59,0,0,1,193.54,112.22Zm5.35.7.11,0h0Zm.43.36s-.07-.15,0-.3l.2,0C199.4,113.09,199.29,113.18,199.32,113.28Zm-.85,2.53v.06l.13,0c0,.09,0,.18-.1.11A1,1,0,0,1,198.47,115.81Z"/><path class="a" d="M198.37,115.45l0,0a1,1,0,0,1,0-.1l0,.14Z"/><path class="a" d="M240.12,118h0l0-.06Z"/><polygon class="a" points="205.92 112.18 205.92 112.29 205.88 112.19 205.92 112.18"/><path class="a" d="M242.89,116.92a.24.24,0,0,1,.06-.11A.41.41,0,0,1,242.89,116.92Z"/><path class="a" d="M244,117l.18-.13A.62.62,0,0,1,244,117Z"/><path class="a" d="M244.88,116.94a.92.92,0,0,1,0,.19h0Z"/><path class="a" d="M231.55,114.39l0,0C231.45,114.27,231.5,114.31,231.55,114.39Z"/><path class="a" d="M235.41,115.94a.9.9,0,0,0-.1-.22C235.39,115.69,235.44,115.69,235.41,115.94Z"/><path class="a" d="M227.12,113.33h0Z"/><path class="a" d="M235.12,115.7c.09-.08.14,0,.19,0S235.17,115.77,235.12,115.7Z"/><path class="a" d="M248.55,117.43h0s0,0,0,.07Z"/><path class="a" d="M248.58,117.49l0,.06S248.58,117.54,248.58,117.49Z"/><path class="a" d="M248.69,117.68l-.07-.13S248.69,117.55,248.69,117.68Z"/><path class="a" d="M247.4,117.42l0-.16S247.41,117.34,247.4,117.42Z"/><path class="a" d="M247.07,117.31c.09,0,.27-.3.36-.18v.13C247.41,117,247.1,117.59,247.07,117.31Z"/><path class="a" d="M245.31,119l.3-.07c-.08.15-.18.37-.06.43C245.1,119.79,245.69,119,245.31,119Z"/><path class="a" d="M244.39,119.08c.14.11,0,.25,0,.34C244.27,119.25,244.25,119.21,244.39,119.08Z"/><path class="a" d="M238.1,118l0,.4C238,118.36,238.08,118.28,238.1,118Z"/><polygon class="a" points="237.2 115.79 237.35 115.56 237.35 115.94 237.2 115.79"/><polygon class="a" points="236.07 118.53 236.11 118.59 235.94 118.42 236.07 118.53"/><path class="a" d="M225.48,117.07l.08-.49C225.63,116.68,225.59,117.24,225.48,117.07Z"/><path class="a" d="M220.92,116.15c-.07.24-.21.39-.27.14C220.76,116.26,220.88,116.08,220.92,116.15Z"/><polygon class="a" points="207.05 116.18 207.14 116.35 206.97 116.21 207.05 116.18"/><path class="a" d="M236.81,159.28c-.07.12-.3.33-.32.23l.31-.42Z"/><path class="a" d="M235.7,159.58a2.29,2.29,0,0,1,.69-1c-.26.43-.1.3-.43.8,0,.11.23,0,.35-.16-.07.12.18,0,0,.28-.36.21-.48.13-.37-.22A.94.94,0,0,0,235.7,159.58Z"/><path class="a" d="M228.63,154.65l.08,0A.13.13,0,0,1,228.63,154.65Z"/><path class="a" d="M224.18,151.77s0,.08,0,.12S224.15,151.8,224.18,151.77Z"/><path class="a" d="M223.12,151.73h.06S223.11,151.77,223.12,151.73Z"/><path class="a" d="M228.63,154.65l-.21,0C228.52,154.55,228.55,154.64,228.63,154.65Z"/><path class="a" d="M235.67,157.85a.31.31,0,0,1,0,.15.29.29,0,0,0,0-.09Z"/><path class="a" d="M230.2,156.41l0,0-.11.19Z"/><path class="a" d="M231.52,157.61s.23-.35.35-.51c-.1.15-.14.24-.13.29Z"/><path class="a" d="M234.16,158.9v0Z"/><path class="a" d="M229.15,155.69l-.11.12A.63.63,0,0,1,229.15,155.69Z"/><path class="a" d="M187.55,127.29l0,.07S187.54,127.28,187.55,127.29Z"/><path class="a" d="M184.62,128.08v0l-.12.22Z"/><path class="a" d="M221.43,151.3h0C221.45,151.37,221.43,151.35,221.43,151.3Z"/><path class="a" d="M208.56,143.32c.34-.26,0-.58.43-.84C208.89,142.62,208.87,143.2,208.56,143.32Z"/><path class="a" d="M235.6,157.86l0-.06S235.6,157.83,235.6,157.86Z"/><path class="a" d="M209,142.48h0l0,0Z"/><path class="a" d="M218.38,149.05l.13-.15A.7.7,0,0,1,218.38,149.05Z"/><path class="a" d="M221.11,150H221S221.09,150,221.11,150Z"/><path class="a" d="M217.45,147.74s-.09.06-.1,0l0,0C217.37,147.74,217.38,147.78,217.45,147.74Z"/><path class="a" d="M216.13,147s.05,0,.07-.06l0,0Z"/><path class="a" d="M191.45,129.84a3.73,3.73,0,0,0-.26.3C191.37,129.88,191.23,129.67,191.45,129.84Z"/><path class="a" d="M235.5,158c.07-.09.1-.14.1-.17a.08.08,0,0,1,0,0A.45.45,0,0,1,235.5,158Z"/><path class="a" d="M219.2,144.72l-.25-.08A.44.44,0,0,1,219.2,144.72Z"/><path class="a" d="M201.1,135.2l0-.07S201.11,135.15,201.1,135.2Z"/><path class="a" d="M218.35,144.21a.77.77,0,0,1-.28.2l0-.12Z"/><path class="a" d="M191.19,130.15h0Z"/><path class="a" d="M190.15,128.92c-.08-.31-.12.06-.49.28.14-.47-.28,0,.09-.65a1.59,1.59,0,0,1-.52.5c.26-.33,0-.49.23-.92-.34.46-.14.73-.61,1.15.09-.4,0-.64.25-1.18-.16.07-.31.24-.47.22,0,0,0,.1,0,.15,0-.49-.57-.34-.32-1.06-.41.79-.54-.21-.8.61-.08-.08,0-.5,0-.66-.35.6-.33,0-.65.29.15-.37-.1-.36-.08-.62a.64.64,0,0,1-.15.37c0-.32-.09-.07-.36.16-.05-.28.31-.44.38-.77-.22,0-.25.36-.43.59l.16-.72a.8.8,0,0,0-.29.28c0-.22.13-.51-.15-.29l.17.13-.26.26,0-.51c-.58.25-.88,1-1.25,1.58l.06.19c-.14.21-.3.28-.36.25a1.38,1.38,0,0,0-.13,1c.39.19.53-.68.87-.68l.11.57.13-.21c.14-.12,0,.14,0,.19.17-.32.33.06.49.09l-.22.25c0,.87,1-.34,1.09.18l-.08.6.29-.39c0,.32-.19.65.09.63,1.12-.3,1.36,1,2.34,1a.38.38,0,0,1-.18.13c1.22-.67.37,1.62,1.4,1.14l0-.17c.24.24,0-.18.39-.29-.25.53.15.6.21.88,0-.12,0-.14,0-.24s.28-.39.31-.25c-.23.82.21,1,.39,1.35.22-.31.63-.46,1.06-.93,0,.14-.12.43-.21.7.23-.15.21.06.18.3l-.22-.16,0,0s0,0,0-.06-.07-.09,0-.11c-.3.26-.14.27-.36.65.1,0,.23.28.41,0,.06,0,.12,0,.22,0s0,.14.08.13v0a.53.53,0,0,1,.09-.11c.28-.06.22.66.23,1,.12-.58.34-.53.54-.89,0,0-.2,0-.45-.17a.71.71,0,0,0,.17-.21c.41-.26.17.53.61.43a.44.44,0,0,1,.1-.27c.16,0,.1.29,0,.52.22-.34.58-.47.61-.25s-.14.47,0,.53l.06-.29c.32-.09,0,.46.26.35-.12.06,0-.2.09-.22.15.26.08.4,0,1l.18-.4c.06.34.16,1,.45.48-.49.77.18.65.36.72,0,0,0-.23.07-.32.06.72.69.4,1,.59l.37-.55c.17.12-.4,1.3-.18,1.39l.07-.32a1.24,1.24,0,0,0,.82.36l.2-.39c0,.23.14.3.14.54.75-.83.67,1,1.67.16l-.37.75c.17.07.31.33.68-.18h-.05c.29-.57.17.08.34,0a.73.73,0,0,1-.2.58c.64-.14,1.08.59,1.7.07.31.48.33,1.23.84,1.41l0-.09a1.06,1.06,0,0,0,1-.65c.26.32,0,1.28.57,1.22l0-.28c.17-.07.17.31.18.41s.08-.13.12-.22c.21-.16.09.2.13.31l.08-.23c.55-.25.61.85,1.08,1,0-.1.12-.31.21-.39-.2.77.35.86.44,1.11l0-.32c.1.62.68-.56.77.07l-.4.29c.2,0,.24.15,0,.43.28-.13.3-.5.58-.44.11-.18-.1-.22.11-.43l.6-.32s.09,0,.17.07c-.49.83.25.2-.37.93.44.32,1.14,0,1.32.58.62-.73.81.41,1.35-.66.24.11.3.43.2.93-.09.06-.07-.11-.09-.18a.47.47,0,0,0,.27.55,3.43,3.43,0,0,1,0-1.13,3.31,3.31,0,0,1,.25,1l.36-.51c0,.49.39-.36.26.27l-.12.15c.34.13,0,.68.29.91l.11-.22c.15,0,0,.56.39.13l-.18-.13a2,2,0,0,1,.65-.6c.14.21-.28.65-.21.76.24-.33.12-.18.25-.57a1.44,1.44,0,0,1,.27,1.12.89.89,0,0,0,.08-.13c.27.07.1.83.42.61v-.08c.48-.41.19.77.75-.09.18-.11-.22-.08.17-.43.44-.12-.25.85.14.74-.05,0,0,0,0-.13a2.73,2.73,0,0,1,.49.56c.67-.58.63.6,1.4-.07-.27.25-.14.39-.22.52a.55.55,0,0,1,.08-.13c.12,0,0,.32-.07.46.23-.2.11.44.26.31-.11.18,0,.18.08.23,0-.31.19-.43.28-.77.32.08-.19,1,.17,1l.37-.26c-.3.55.09.49,0,.68a1.38,1.38,0,0,0,.43-.46c0,.2.36,0,.21.37l-.19.07c.46,0,.19.89.67.7l.49-.79c.38-.21,0,.63.5.25-.22.23-.18.14-.23.47-.1,0-.09-.26-.21-.33l-.05.61-.23-.45c0,.41,0,.32-.26.6.06.39.47-.23.49.21.14-.06.25-.4.43-.5,0,.4.71-.33.58.17.1-.06-.06-.08.07-.25.07.15.18.17.06.43l-.16,0c.1,0-.09.37.2.3,0,.24-.21.66-.32.6s.24-.07.36-.33c.27.17-.42.92.08.71a.17.17,0,0,1,0-.12c.1,0,.15,0,.16.09-.18-.21.48-.57.12-.61.3-.39.26.05.45,0-.05.36-.38.6-.44.85.08-.13.13-.1.23-.11l-.26.27a.25.25,0,0,1,.12.18l0-.19c.15,0,.66-.36.66.08,0-.17.09-.49.34-.56.09.35.14-.1.43-.25.18.22-.34.58.13.61,0,0-.12.18-.22.24.33,0,.31.3.67.23-.15,0-.29.07-.27.3.12-.29.34-.11.53-.21l-.08.17a.27.27,0,0,0,.14-.33c0,.06-.09.09-.12.05,0-.2.42-.76.63-.7.08.27-.23.66-.37.8.36,0-.26.86.13.78.06,0,.66-.46.87-.4-.16.42-.39.12-.51.49.9-.68.19.93.93.67l.26-.46a.38.38,0,0,1,.27.18l-.3.14c0,.16.28.21.45-.16-.06.48.13.31.38.33-.21-.1,0,0,0-.26.35-.07.26.09.33.28.08-.16.32-.34.37-.3-.07.37.19.47.26.75l.09-.13c.17.38.93.05,1,.64h0v0h0c-.41.31,0,.45,0,.68.1-.08.24-.25.29-.21-.28.37,0,.28-.12.48.19-.05.32-.45.48-.3s-.09.28-.21.41a.77.77,0,0,1,.53-.19c0-.12-.1,0-.1-.07.14-.2.14-.09.34-.33.1,0-.24.36,0,.31l.13-.36c.1,0,.06.12.06.16,0-.12.24-.4.38-.57.07.4-.57.81-.8,1.14.4-.06.26.47.42.63l.23-.37a.47.47,0,0,1-.06.4l.12.11a1.18,1.18,0,0,1,.3-.58c.06.2.31.27,0,.75l.06-.08c.31,0,.76.21.87.05.07.31.53.26.17.7,0,.2.77-.32.39.3.38-.18.11-.11.34-.47.39-.18-.11.67.48.09,0,.32-.15.09-.34.42.54-.56.38.15.81,0-.14.29-.19.09-.3.43.12-.15.2-.12.24-.11l-.28.39.93-.76c-.16.62-.59.58-.45,1v0c.41-.3,0,.47.41.38-.13,0,.13-.2.2-.32l0,.25a.16.16,0,0,1,.08-.09c.34-.17-.05.22.29.09,0-.14.25-.39.41-.48l-.2.55.37-.54c.21.11-.26,1.11.44.53v-.15c.11-.11.49-.41.37-.07,0,.09-.26.39-.29.33l.19,0a.86.86,0,0,0,.07-.84c-.08.17-.07.36-.28.53,0-.21.06-.52,0-.73a4,4,0,0,1-.32.54c-.28.05.1-.3,0-.42a.9.9,0,0,0-.32.28c0-.24-.07-.36-.35-.31,0,0-.07.37-.31.48-.06-.41.24-.83.19-1.29.18-.8-.85-.19-.72-.76.11-.15.38-.12.32-.33-.23.31-.25.12-.35.23.21-.55-.31-.09-.16-.47-.06.12-.25.17-.39.22-.29.37-.29,0-.51.7.24-.73-.51-.19,0-1.16l.15-.06h-.36c-.14,0-.08-.13-.52.14,0,.13.06.2,0,.34-.39.22,0-.48-.14-.61-.22.28.06.21-.25.5-.13,0,0-.29-.07-.44l-.11.16c-.51.14.51-.81-.07-.45a2.78,2.78,0,0,1,.21-.27c-.19.1-.56.24-.56.55-.08-.06-.07-.27,0-.47s.17,0,.42-.3l-.2-.43s-.09.17,0,.21c-1,.47-.27-1.3-1.47-.68.24-.21.14-.25.23-.45-.21,0-.38-.27-.63-.22l-.09.21c-.18-.47-.22-.93-.53-1a1,1,0,0,0-.18.33c.07-.44-.88.41-.43-.3h.1c-.41-.15-.43-.9-.72-1.24-.38.35.17.19-.25.62-.36,0-.36-.53-.73-.59,0,.08,0,.13,0,.17-.45.07.32-.39,0-.49-.13.21-.18.26-.32.31l.16-.38a1.68,1.68,0,0,0-.26.43c.2-.5-.3-.42-.1-.88-.09.09-.3.51-.44.64s-.17-.18-.14-.39h0c-.28.22-.45,0-.45.12-.3,0,.13-.25.14-.62l.29-.06-.23-.31,0,.29c-.25.06-.15-.4-.32-.5l.24-.18-.09-.27c-.35.47-.32,0-.59.58-.52,0-.31-.77-.61-1,.06,0,0,.13-.07.21-.26,0-.2-.34-.15-.67a1.67,1.67,0,0,1-.15.38c-.22-.13,0-.36-.09-.67-.07.25-.16.34-.26.35a.62.62,0,0,0,.14-.42c-.45,1.1-.53.22-.92,1.07.12-.21,0-.89.39-1.21l0,.12c.18-.27,0-.22,0-.29a.36.36,0,0,1,0,.21c-.13-.54-.68-.49-.92-1,0,.13,0,.4-.14.42-.48-.09-.38-.75-.62-1.24-.41.62.37.35,0,1a5.81,5.81,0,0,1-.88-1.49c-.73.83-.22-.66-1-.11.22-.29.15-.49,0-.6-.1.29-.26.2-.33.41,0-.37-.29-.72-.64-.1.32-.62-.31-.15-.18-.63-.3.12-.3-.35-.62-.29.3-.33-.11-.31-.1-.51a.19.19,0,0,1,0,.16c-.25.29-.08-.43-.32-.31s-.19.35-.3.33c.16-.27,0-.77-.3-.52.05,0,0,.17,0,.29-.31-.8-1.26-.59-1.55-1.47l-.15.51c-.7.37.18-.88-.16-1-.93-.24-2.13-.07-2.76-.79,0-.17.12-.15.24-.33-.1,0-.33.39-.3.09l.16-.23c-.73.47-.8-1-1.64-.13-.13-.58-.74,0-.84-.86-.25.15-.08.51-.29.47l-.18-.59v0c0-.94-1.44.3-1.63-.49v0c-.08.18-.29.33-.33.23s.12-.17.24-.29a1.78,1.78,0,0,0-.65-.82c0,.34-.25.15-.46.5,0-.28.25-.34.16-.64-.26-.18-.68,0-1,0,.08-.36-.09-.34.11-.74-.3-.19-.39-.44-.78-.64l-.08.13c.15-.54-.47.07-.39-.25a3.31,3.31,0,0,1-.16.4l-.09-.25c0,.19-.2.68-.37.66,0-.42.17-.21.24-.53l-.28.43c-.09-.11.15-.64.36-.71-.39-.2-.65-.61-1-.72l-.13.31a.42.42,0,0,0-.64-.14c.05-.09.08-.28.16-.36,0-.52-.28.48-.29-.09a.7.7,0,0,1,0,.42l-.26-.61c-.13.22-.67.56-.76.26.06-.12.2-.26.27-.26L201,135l-.37.46.06-.54-.23.42c-.09-.15.15-.73,0-.75-.55.06-.54.25-1.05.5.41-.83-.47-.21-.23-.84-.71.41-1.06-.26-1.65-.35v.09c-.42.26.09-.75-.23-.71v.15c-.53.28-.83-.4-.92-.9,0,.15-.18.4-.26.32s.39-.53.15-.46c0,.1-.14.26-.17.25l.06-.49c-.56.06-1.19.08-1.48-.38-.16.1-.18.27-.24.42-.29-.27-.43-.79-.69-1l-.29.45c-.15-.08.31-.77-.11-.46-.08,0,.11.11,0,.34-.49.19.08-.55-.23-.66l-.22.57c-.39.19-.09-.41,0-.77,0-.79-.79.9-.94.2.08-.29.24-.37.32-.66-.37,0-.19-.42-.55-.45-.6.69.14.08-.44.72l.32,0c-.43.3.11.2-.18.65-.22,0-.21-.47-.31-.73-.2.35.19.17-.16.59l0-.2c0,.12-.1.26,0,.28-.22.31-.12,0-.21-.1a4.65,4.65,0,0,1,.43-.68l-.1.11c.1-.61-.43-.41-.35-.9,0,.12-.08.13-.13.21s0-.57-.05-.79c-.23.21-.4.8-.55.51.12-.31.52-.75.31-.85A.56.56,0,0,1,190.15,128.92Zm4.15,3.27.09.08h0Zm.2.52c-.05,0,0-.16.1-.29a.55.55,0,0,0,.18.08C194.66,132.58,194.52,132.61,194.5,132.71Zm-2,1.79,0,.06a.53.53,0,0,0,.09.11c-.06.07-.12.13-.15,0A1,1,0,0,1,192.53,134.5Z"/><path class="a" d="M192.61,134.14a.06.06,0,0,0,0,0l.09-.07,0,.14Z"/><path class="a" d="M228.73,154.63h0l.06,0Z"/><polygon class="a" points="200.75 134.77 200.7 134.87 200.71 134.76 200.75 134.77"/><path class="a" d="M231.66,155a.23.23,0,0,1,.1-.07Z"/><path class="a" d="M232.57,155.64l.23,0A1.16,1.16,0,0,1,232.57,155.64Z"/><path class="a" d="M233.37,156a1.42,1.42,0,0,1-.11.16h0Z"/><path class="a" d="M222.77,147.56s0,0,0,0S222.76,147.47,222.77,147.56Z"/><path class="a" d="M225.53,150.66a1.09,1.09,0,0,0,0-.25C225.62,150.42,225.67,150.45,225.53,150.66Z"/><path class="a" d="M219.23,144.73h0Z"/><path class="a" d="M225.39,150.31c.11,0,.14,0,.15.1S225.4,150.4,225.39,150.31Z"/><path class="a" d="M236.26,158.33l.05,0-.05.05Z"/><path class="a" d="M236.26,158.4v.07S236.23,158.44,236.26,158.4Z"/><path class="a" d="M236.26,158.62v-.15S236.33,158.51,236.26,158.62Z"/><path class="a" d="M235.29,157.72l.1-.13Z"/><path class="a" d="M235.07,157.45c.08,0,.38-.11.4,0l-.08.1C235.51,157.38,234.94,157.71,235.07,157.45Z"/><path class="a" d="M232.7,158a1.49,1.49,0,0,1,.3.09c-.15.09-.35.22-.28.34C232.12,158.57,233,158.17,232.7,158Z"/><path class="a" d="M231.87,157.62c.07.15-.16.19-.21.26C231.68,157.71,231.69,157.66,231.87,157.62Z"/><path class="a" d="M227,153.72l-.22.33C226.67,153.94,226.82,153.93,227,153.72Z"/><polygon class="a" points="227.19 151.33 227.43 151.19 227.26 151.52 227.19 151.33"/><polygon class="a" points="224.94 153.25 224.95 153.33 224.87 153.1 224.94 153.25"/><path class="a" d="M216.17,147.43l.28-.41C216.47,147.14,216.2,147.63,216.17,147.43Z"/><path class="a" d="M212.46,144.71c-.17.19-.36.27-.31,0C212.26,144.75,212.44,144.63,212.46,144.71Z"/><polygon class="a" points="199.96 138.86 199.96 139.05 199.87 138.84 199.96 138.86"/><path class="a" d="M181.31,144.61c.07-.12.29-.34.31-.24l-.31.42Z"/><path class="a" d="M182.36,144.25a2.7,2.7,0,0,1-.68,1c.26-.44.11-.3.43-.81,0-.1-.22,0-.33.19.06-.12-.17,0,0-.28.35-.23.46-.15.34.19A.94.94,0,0,0,182.36,144.25Z"/><path class="a" d="M188.75,148.94h-.08A.08.08,0,0,1,188.75,148.94Z"/><path class="a" d="M192.52,152.08s0-.08,0-.12A.12.12,0,0,1,192.52,152.08Z"/><path class="a" d="M193.52,152.25h-.06S193.54,152.22,193.52,152.25Z"/><path class="a" d="M188.75,148.94l.21,0C188.85,149,188.82,149,188.75,148.94Z"/><path class="a" d="M182.33,145.91a.24.24,0,0,1,0-.15.28.28,0,0,0,0,.09Z"/><path class="a" d="M187.44,147.17l0,0a1.4,1.4,0,0,0,.12-.18Z"/><path class="a" d="M186.27,146s-.25.34-.36.5a.73.73,0,0,0,.14-.28A1.51,1.51,0,0,1,186.27,146Z"/><path class="a" d="M183.8,144.82v-.08S183.81,144.79,183.8,144.82Z"/><path class="a" d="M188.38,147.9l.12-.11A.65.65,0,0,1,188.38,147.9Z"/><path class="a" d="M213.6,186.43l.07,0S213.61,186.44,213.6,186.43Z"/><path class="a" d="M216.53,186.78v0l.2-.15Z"/><path class="a" d="M195,152.92h0C195,152.86,195,152.88,195,152.92Z"/><path class="a" d="M204.34,163.69c-.41.12-.24.52-.73.61C203.76,164.21,204,163.7,204.34,163.69Z"/><path class="a" d="M182.4,145.9l0,0S182.4,145.92,182.4,145.9Z"/><path class="a" d="M203.61,164.3h0Z"/><path class="a" d="M197.33,155.64l-.16.11Z"/><path class="a" d="M195,154.2h.09C195.07,154.21,195.05,154.21,195,154.2Z"/><path class="a" d="M197.84,157.07s.1,0,.09,0l-.05,0C197.91,157.08,197.92,157.05,197.84,157.07Z"/><path class="a" d="M198.81,158.12a.2.2,0,0,0-.08,0l0,0Z"/><path class="a" d="M211.49,182.49a1.74,1.74,0,0,0,.38-.14C211.59,182.49,211.59,182.73,211.49,182.49Z"/><path class="a" d="M182.49,145.73a.34.34,0,0,0-.09.17.17.17,0,0,1,0-.05A.44.44,0,0,1,182.49,145.73Z"/><path class="a" d="M195.34,159.51l.2.12A.37.37,0,0,1,195.34,159.51Z"/><path class="a" d="M206.77,173.58l0,.07S206.73,173.62,206.77,173.58Z"/><path class="a" d="M195.93,160.15a1,1,0,0,1,.31-.12s0,.06-.06.1Z"/><path class="a" d="M211.88,182.35h0Z"/><path class="a" d="M212.11,183.87c-.1.3.12,0,.55,0-.35.34.26.1-.4.52a1.71,1.71,0,0,1,.69-.19c-.39.16-.22.43-.66.68.52-.24.49-.56,1.09-.71-.27.3-.27.57-.78.9.17,0,.38-.07.51,0,0,0,0-.08.09-.13-.22.44.33.55-.21,1.08.72-.53.4.41,1-.21,0,.1-.18.45-.3.58.57-.4.3.13.71,0-.29.27-.07.36-.19.59a.59.59,0,0,1,.29-.27c-.16.27,0,.09.38,0-.07.27-.46.28-.66.55.22,0,.37-.23.63-.37l-.44.59a.89.89,0,0,0,.38-.14c-.12.18-.31.42,0,.31l-.1-.18.33-.14-.22.46c.61,0,1.15-.57,1.72-1l0-.18c.2-.15.37-.16.41-.12a1.64,1.64,0,0,0,.51-.82c-.26-.27-.74.45-1,.34l.15-.52-.2.14c-.17,0,0-.14.08-.18-.29.23-.26-.16-.38-.24l.29-.14c.41-.73-1-.05-.84-.53l.34-.48-.42.22c.17-.26.47-.47.22-.56-1.09-.18-.61-1.37-1.43-1.75a.34.34,0,0,1,.22,0c-1.36,0,.57-1.47-.52-1.54l-.13.12c-.06-.31-.14.12-.47.05.49-.31.21-.54.32-.8-.09.08,0,.13-.1.21s-.44.19-.39.06c.65-.56.38-.88.46-1.26-.35.14-.77.06-1.38.22l.57-.45c-.27,0-.14-.14,0-.32a1.86,1.86,0,0,1,.09.24l0,0s0,0,0,.06,0,.11,0,.11c.38-.06.25-.14.65-.34-.06-.08,0-.33-.32-.2,0-.05-.1-.06-.19-.09s.06-.12,0-.14l0,0-.13,0c-.26-.08.2-.63.4-.91-.42.39-.58.25-.94.43,0,0,.13.14.26.35a1.1,1.1,0,0,0-.25.09c-.48,0,.17-.5-.24-.64a.56.56,0,0,1-.24.17c-.15,0,.09-.28.29-.41-.36.15-.73.07-.63-.11.25-.24.39-.3.27-.45l-.21.2c-.31-.09.28-.35,0-.4.14,0-.12.15-.2.13,0-.28.17-.35.59-.76l-.38.23c.14-.3.44-.88-.09-.61.84-.37.23-.6.13-.75,0,.07-.16.17-.25.22.36-.61-.33-.66-.5-1l-.61.27c-.07-.18,1-.87.92-1l-.24.22a1,1,0,0,0-.48-.69l-.38.23c.13-.2,0-.32.18-.52-1.06.34,0-1.15-1.29-.91l.7-.46c-.11-.14-.09-.42-.66-.16l0,0c-.53.35-.11-.14-.28-.16a.8.8,0,0,1,.46-.4c-.61-.17-.61-1-1.4-.81,0-.54.33-1.2,0-1.57l-.08.06a1.09,1.09,0,0,0-1.14.18c-.07-.39.58-1.13.08-1.3l-.16.23c-.17,0,0-.35,0-.43s-.13.08-.21.14c-.25.05,0-.21,0-.32l-.17.17c-.59,0-.15-1-.51-1.27,0,.11-.24.23-.35.27.51-.61.06-.9.09-1.15l-.17.27c.19-.59-.83.25-.64-.34l.47-.11c-.19,0-.15-.22.14-.41-.3,0-.47.35-.69.19-.18.13,0,.24-.28.35l-.67.08s-.09,0-.12-.12c.78-.58-.14-.26.71-.71-.26-.43-1-.36-.93-1-.83.46-.57-.62-1.47.18-.16-.18-.1-.48.17-.91.11,0,0,.12,0,.2a.46.46,0,0,0,0-.59,3.22,3.22,0,0,1-.39,1,3.28,3.28,0,0,1,.13-1l-.51.36c.23-.43-.48.21-.13-.33l.16-.09c-.25-.23.22-.64.07-.92l-.17.17c-.15,0,.18-.52-.31-.23l.12.17a2.34,2.34,0,0,1-.8.37c-.06-.24.48-.53.45-.64-.33.23-.17.13-.42.45a1.41,1.41,0,0,1,.14-1.11,1,1,0,0,0-.11.11c-.23-.14.17-.8-.19-.68v.08c-.58.25.07-.77-.71-.12-.21.06.17.14-.3.36-.44,0,.5-.72.11-.72.05,0,0,0-.07.11a2.26,2.26,0,0,1-.27-.63c-.79.38-.39-.72-1.3-.28.32-.16.24-.32.35-.43a.51.51,0,0,1-.11.11c-.09-.06.14-.3.21-.42-.28.14,0-.44-.15-.34.15-.15.05-.18,0-.24,0,.3-.29.36-.48.65-.27-.13.46-.89.13-1l-.41.17c.42-.46.05-.48.22-.64a1.52,1.52,0,0,0-.52.35c0-.19-.33-.1-.1-.39l.2,0c-.43-.1.05-.89-.44-.8l-.66.66c-.4.13.12-.61-.4-.33.26-.18.21-.11.34-.41.09,0,0,.27.1.35l.21-.56.1.47c.14-.38.08-.31.4-.52,0-.39-.51.13-.41-.29-.15,0-.33.33-.53.39.09-.38-.75.2-.51-.25-.1,0,0,.08-.12.22,0-.15-.12-.19,0-.42H195c-.09,0,.17-.33-.12-.31.07-.23.35-.6.44-.52,0-.08-.24,0-.41.25-.22-.2.59-.81.08-.7a.21.21,0,0,1-.07.12c-.1,0-.14,0-.14-.12.13.23-.58.47-.25.56-.37.33-.23-.08-.43,0,.13-.34.49-.51.61-.74-.11.11-.16.07-.25.07l.31-.22a.21.21,0,0,1-.08-.2l0,.19c-.14,0-.7.25-.61-.17-.07.15-.19.45-.44.48,0-.34-.15.07-.45.18-.12-.23.44-.51,0-.6,0,0,.15-.16.25-.21-.31,0-.23-.33-.59-.3.14,0,.29,0,.31-.26-.17.26-.34.06-.54.14l.11-.16a.3.3,0,0,0-.2.3s.1-.07.13,0c0,.2-.55.68-.73.6,0-.27.34-.61.49-.72-.33-.05.41-.8,0-.77,0,0-.71.37-.89.29.22-.38.39-.07.56-.41-1,.56,0-.92-.76-.74l-.32.41a.34.34,0,0,1-.23-.19l.3-.11c0-.16-.22-.24-.44.1.13-.46-.07-.31-.31-.35.18.12,0,0,0,.26-.34,0-.23-.11-.27-.3-.11.15-.36.3-.4.26.12-.34-.11-.46-.14-.72l-.11.11c-.11-.38-.88-.1-.82-.67h0s0,0,0,0h0c.42-.28,0-.44.1-.66-.1.08-.26.23-.3.19.31-.34.06-.27.17-.46-.19,0-.36.42-.5.27s.13-.27.25-.39a.72.72,0,0,1-.52.16c-.06.11.09,0,.09.07-.16.19-.15.08-.36.31-.09,0,.27-.34.07-.31l-.17.35c-.1,0,0-.12,0-.15s-.26.38-.42.53c0-.38.63-.76.89-1.07-.38,0-.21-.46-.34-.61l-.27.34a.56.56,0,0,1,.1-.38l-.11-.1a1.24,1.24,0,0,1-.33.55c0-.2-.28-.27.08-.72l-.06.07c-.3,0-.72-.2-.84-.05,0-.3-.48-.24-.1-.67,0-.2-.76.31-.35-.29-.38.17-.11.11-.36.45-.38.18.15-.65-.45-.08,0-.31.15-.09.35-.41-.54.54-.35-.14-.77.06.14-.28.18-.09.3-.42-.12.15-.2.13-.23.11l.29-.38-.93.76c.18-.6.59-.57.47-1v.05c-.4.3.06-.45-.38-.34.13,0-.13.19-.2.31l0-.24a.14.14,0,0,1-.07.09c-.34.18.05-.22-.28-.08,0,.14-.26.4-.4.49l.2-.54-.37.54c-.19-.1.28-1.08-.4-.48V145c-.11.11-.47.43-.35.09,0-.09.25-.39.28-.34l-.18,0a.88.88,0,0,0-.09.81c.08-.16.07-.35.28-.52,0,.2-.07.5-.06.7a4.8,4.8,0,0,1,.32-.54c.27-.06-.11.3-.05.41a.91.91,0,0,0,.32-.29c0,.23,0,.34.32.28a.74.74,0,0,1,.31-.47c0,.38-.26.81-.23,1.23-.22.78.81.14.64.7-.11.15-.36.12-.32.32.24-.3.24-.12.34-.23-.24.54.28.08.11.45.07-.12.25-.16.39-.21.3-.37.27,0,.53-.69-.28.71.47.18-.12,1.12l-.14.06h.33c.14,0,.06.12.51-.14,0-.13,0-.2,0-.33.39-.21,0,.46.08.58.22-.26,0-.2.28-.48.11,0,0,.29,0,.43l.12-.15c.5-.14-.55.77,0,.43-.08.08-.14.18-.23.26.19-.1.55-.24.59-.53.07.06,0,.26-.07.45s-.17,0-.44.28l.15.41s.11-.16.07-.2c1-.44.09,1.25,1.29.69-.25.2-.16.23-.27.42.19,0,.32.27.56.24l.11-.19c.11.46.08.89.36,1a1.16,1.16,0,0,0,.22-.31c-.13.42.89-.34.36.31h-.1c.38.15.27.88.48,1.23.41-.3-.13-.2.33-.57.33,0,.25.54.58.62,0-.08.05-.12.06-.16.43,0-.37.34-.14.46.16-.19.21-.22.36-.26l-.22.34a1.86,1.86,0,0,0,.32-.38c-.28.46.2.43-.07.84.1-.07.37-.45.53-.56s.12.19.06.38h0c.3-.18.43,0,.44-.07.28.05-.17.23-.25.57l-.29,0,.16.32.08-.27c.24,0,.06.38.19.5l-.26.15,0,.26c.42-.4.27.09.67-.48.47.06.11.77.33,1,0,0,.05-.11.11-.18.24,0,.11.34,0,.64a3.14,3.14,0,0,1,.23-.33c.17.16-.13.34-.07.65.12-.23.22-.3.32-.3a.73.73,0,0,0-.24.38c.69-1,.54-.14,1.11-.88-.17.19-.24.83-.65,1.08V156c-.23.22-.08.2,0,.27a.33.33,0,0,1,.08-.19c0,.53.51.55.6,1.05.06-.11.09-.38.23-.37.42.17.15.77.22,1.27.55-.51-.23-.39.27-.9a5.27,5.27,0,0,1,.37,1.54c.9-.63,0,.65.83.28-.29.23-.28.42-.18.55.18-.24.3-.12.43-.31-.15.34,0,.73.54.23-.48.5.23.2,0,.62.31,0,.16.38.47.41-.38.23,0,.3-.08.48a.19.19,0,0,1,.07-.14c.32-.21-.07.41.18.35s.29-.28.38-.23c-.23.21-.27.7.09.54,0,0,.08-.15.15-.25,0,.8.9.85.84,1.71l.32-.42c.76-.15-.48.75-.23.93.72.46,1.85.63,2.1,1.47-.08.15-.16.1-.34.23.1,0,.45-.25.29,0l-.23.16c.82-.19.26,1.14,1.36.62-.14.55.63.27.36,1,.27,0,.29-.42.45-.32l-.11.59,0-.05c-.45.81,1.36.25,1.16,1l0,0c.15-.12.4-.18.39-.08s-.18.11-.34.17a1.6,1.6,0,0,0,.16.93c.16-.28.29,0,.62-.25-.16.22-.37.2-.43.49.13.25.56.26.81.37-.24.28-.09.33-.45.58.16.28.12.52.33.84l.13-.08c-.41.4.41.13.19.37.16-.12.2-.2.33-.28l-.05.25c.1-.16.51-.49.64-.4-.25.34-.25.11-.47.35l.45-.24c0,.12-.45.46-.66.43.22.33.22.78.47,1l.27-.21a.36.36,0,0,0,.45.39,1.51,1.51,0,0,1-.32.22c-.27.43.48-.27.18.2a.86.86,0,0,1,.26-.33l-.12.62c.22-.13.84-.17.76.11a.53.53,0,0,1-.36.1l-.05.17.55-.21-.34.41.42-.24c0,.17-.53.53-.43.6.47.19.57,0,1.12.06-.79.49.26.39-.29.78.8,0,.7.7,1.12,1.06l.05-.08c.49,0-.5.56-.23.68l.1-.12c.58,0,.43.72.21,1.16.1-.12.38-.23.39-.13s-.61.23-.38.3c.06-.08.26-.14.28-.11l-.34.35c.48.23,1,.52,1,1a.78.78,0,0,0,.43-.22c.08.35-.1.84,0,1.16l.49-.22c.07.14-.69.47-.17.43.09,0,0-.14.16-.3.5.09-.38.41-.19.64l.5-.35c.42,0-.16.38-.44.62-.48.62,1.14-.34.88.3-.23.2-.4.19-.63.39.28.2-.08.44.21.64.87-.29-.08-.14.75-.39l-.29-.11c.51,0,0-.22.5-.44.21.06-.08.48-.14.74.36-.2-.07-.23.46-.41l-.1.17c.09-.08.22-.16.19-.21.35-.15.07.1.11.19a6.74,6.74,0,0,1-.71.35l.14,0c-.41.45.13.54-.19.91a.73.73,0,0,1,.23-.12c.08.1-.33.47-.38.69.3-.07.75-.48.74-.17-.27.2-.83.39-.71.58C211.71,184.2,211.85,183.89,212.11,183.87Zm-1.63-4.69,0-.1h0Zm.15-.5s-.11.12-.25.17a.56.56,0,0,0-.1-.15C210.42,178.7,210.55,178.74,210.63,178.68Zm2.6-.47,0,0a.47.47,0,0,0,0-.12c.08,0,.17-.06.14,0A1.72,1.72,0,0,1,213.23,178.21Z"/><path class="a" d="M213,178.45s0,0,0,0h-.11l.11-.08Z"/><path class="a" d="M188.66,149h0l-.06,0Z"/><polygon class="a" points="206.81 174.08 206.91 174.02 206.84 174.1 206.81 174.08"/><path class="a" d="M185.92,148.51a.33.33,0,0,1-.1.06Z"/><path class="a" d="M185.12,147.91l-.21,0A.57.57,0,0,1,185.12,147.91Z"/><path class="a" d="M184.4,147.56a1.11,1.11,0,0,1,.12-.15h0Z"/><path class="a" d="M192.9,156.26s0,0,0,0S192.88,156.35,192.9,156.26Z"/><path class="a" d="M191,153a.84.84,0,0,0-.06.24C190.91,153.2,190.86,153.18,191,153Z"/><path class="a" d="M195.32,159.5h0l0,0Z"/><path class="a" d="M191.1,153.34c-.1,0-.13,0-.12-.11S191.11,153.25,191.1,153.34Z"/><path class="a" d="M181.79,145.48h0l0-.05Z"/><path class="a" d="M181.79,145.42v-.07S181.82,145.38,181.79,145.42Z"/><path class="a" d="M181.81,145.21v.14S181.74,145.32,181.81,145.21Z"/><path class="a" d="M182.68,146l-.09.13A.5.5,0,0,1,182.68,146Z"/><path class="a" d="M182.88,146.25c-.08,0-.36.13-.37,0l.08-.1C182.46,146.35,183,146,182.88,146.25Z"/><path class="a" d="M185.17,145.64l-.28-.08c.15-.1.35-.23.29-.34C185.76,145.06,184.87,145.46,185.17,145.64Z"/><path class="a" d="M185.93,146c-.05-.15.17-.18.23-.26C186.12,145.91,186.11,146,185.93,146Z"/><path class="a" d="M190.23,149.92l.27-.3C190.54,149.74,190.39,149.74,190.23,149.92Z"/><polygon class="a" points="189.62 152.21 189.37 152.32 189.59 152.01 189.62 152.21"/><polygon class="a" points="192.06 150.57 192.07 150.5 192.1 150.73 192.06 150.57"/><path class="a" d="M198.92,157.66l-.38.32C198.55,157.86,199,157.47,198.92,157.66Z"/><path class="a" d="M201.39,161.18c.22-.13.42-.14.28.08C201.58,161.21,201.37,161.26,201.39,161.18Z"/><polygon class="a" points="209.66 171.08 209.75 170.92 209.72 171.13 209.66 171.08"/><path class="a" d="M168.6,127c-.16,0-.31-.32-.07-.44l.47.29Z"/><path class="a" d="M169.35,125.12c.39,0,1,.11,1.1.61-.55-.19-.48,0-1.11-.24a.33.33,0,0,0-.09.54c-.15,0-.24.34-.55.17,0-.52.33-.8.88-.83C169.58,125.22,169.43,125.18,169.35,125.12Z"/><path class="a" d="M167.65,118l.21-.07A.58.58,0,0,1,167.65,118Z"/><path class="a" d="M160.28,104.25a.13.13,0,0,1,0,.18C160.25,104.33,160.23,104.26,160.28,104.25Z"/><path class="a" d="M158.62,103.39h.06S158.61,103.44,158.62,103.39Z"/><path class="a" d="M167.65,118a3.38,3.38,0,0,1-.57.11C167.09,118,167.39,118.05,167.65,118Z"/><path class="a" d="M172.85,123.78a.49.49,0,0,1-.27,0l.2-.1Z"/><path class="a" d="M173.54,116.93l.07,0-.12.26A2,2,0,0,0,173.54,116.93Z"/><path class="a" d="M175.31,117a6.39,6.39,0,0,1,.53-.37l.86-.58a7.87,7.87,0,0,0-.73.57Z"/><path class="a" d="M172.51,121.65l-.15.06A.67.67,0,0,1,172.51,121.65Z"/><path class="a" d="M171.1,117.73a.48.48,0,0,1,0,.17A.25.25,0,0,1,171.1,117.73Z"/><path class="a" d="M168.49,134s0,0,.07,0S168.5,134,168.49,134Z"/><path class="a" d="M172.71,138.92v-.09l.23-.1Z"/><path class="a" d="M157.9,104.18h0S157.94,104.18,157.9,104.18Z"/><path class="a" d="M148.9,124.37c-.63.08.41.85-.45.84C148.6,125.09,148.24,124.27,148.9,124.37Z"/><path class="a" d="M172.91,123.64a.8.8,0,0,0,.17-.15A.44.44,0,0,1,172.91,123.64Z"/><path class="a" d="M148.45,125.21Z"/><path class="a" d="M156.11,114.89a.49.49,0,0,1-.18-.14S156,114.8,156.11,114.89Z"/><path class="a" d="M156.67,106.48l0,.21A.61.61,0,0,1,156.67,106.48Z"/><path class="a" d="M151.27,118.23c-.15,0-.19.08-.36,0l.06,0C151,118.24,151.09,118.28,151.27,118.23Z"/><path class="a" d="M146.76,117.57l.09-.08.14,0Z"/><path class="a" d="M172,133.88a1.32,1.32,0,0,0-.44-.08C171.84,133.77,171.74,133.11,172,133.88Z"/><path class="a" d="M172.68,123.59c.1.07.17.08.23,0l-.13.09A.26.26,0,0,1,172.68,123.59Z"/><path class="a" d="M151.53,114.75l-.29,0-.37,0h.36Z"/><path class="a" d="M155.88,139.83l.14-.11A.18.18,0,0,1,155.88,139.83Z"/><path class="a" d="M148.7,114.3a1,1,0,0,1-.46.25.76.76,0,0,1-.07-.13Z"/><path class="a" d="M171.52,133.8Z"/><path class="a" d="M170.69,129.39c0-.71-.17-.17-.71-.64.35-.48-.36-.6.36-.89-.56-.06-.36-.06-.83-.36.32,0,.27-.43.39-.74l-3.79,1.39a.37.37,0,0,1-.22.29c.26,0,.36-.22.46-.39l3.31-1.22c-.15.2-.28.39-.67.2l-2,.74h0c-.2.5,0,1.19-.59,1.49.24.21.5.24.73.63-.06-.05,0-.18,0-.24-.07.89.77,1.82.25,2.52.76-.49.74,1.53,1.28.65a1.89,1.89,0,0,1-.17,1.12c.63-.29.47.7,1,.89-.29.32.05.83,0,1.25,0-.18.1-.31.29-.32-.12.48.1.29.54.5,0,.59-.54.09-.72.52.32.39.44-.09.74-.11l-.41.91a.63.63,0,0,0,.48.15c-.11.3-.31.61.12.82l-.19-.58.42.1-.17.83c.84.81,1.43.25,2.09-.08l0-.45c.24-.07.47.16.55.33s.51-.92.44-1.4c-.49-1.17-.9.06-1.37-.69v-1.2l-.23.08c-.22-.11,0-.31,0-.37-.31.2-.44-.81-.66-1.21l.36,0c.24-1.47-1.49-1.57-1.5-2.64l.24-.86-.49,0c.1-.48.41-.7,0-1.26a7.34,7.34,0,0,1-1.33-2.23l-1.54.57a19.14,19.14,0,0,0,1.4,4.56c-.1,0-.15-.06-.27-.18a2.77,2.77,0,0,1,.78,2.58,6.11,6.11,0,0,0,0,1.28,1.94,1.94,0,0,0,.18.61l.07.15a.27.27,0,0,0,.08.11l.19.12.15-.1c0,.26.08.24.16.2s.19-.13.41.1c-.58.1-.26.65-.44.79.14,0,.1-.06.17-.1.18.12.62.34.55.46-.44-.07-.63,0-.73,0s-.1.18-.22.15l0,0a16.42,16.42,0,0,1,1.06,1.3l.32.44a1.92,1.92,0,0,1,.29.44l.42.81c-.31-.3-.89-.93-1.38-1.52.15.44-.28,0-.63-.47l.4.18-.07-.08a.91.91,0,0,0,.13.1c.13.06.22.11.24.18a11.64,11.64,0,0,0-1.14-1.52c-.06,0-.36-.32,0,.32-.05,0,0,.08,0,.17-.1-.14-.17-.23-.18-.17l.06.09c0,.11.07.17.09.24s-.28-.18-.46-.52a3.87,3.87,0,0,1-.33-1,5.7,5.7,0,0,1,.11.83,4.51,4.51,0,0,0,0,.58c0-.06.22.1.54.26a1.41,1.41,0,0,0,.08.4c-.08.26-.3,0-.47-.28s-.3-.54-.54-.53a.79.79,0,0,1,0,.39c-.22,0-.29-.51-.21-.76-.18.37-.69.31-.88-.11,0-.46.12-.54-.33-.92v.38c-.67-.31-.13-.69-.71-.93.24.08.05.31-.11.23-.43-.62-.34-.75-.35-1.53l-.23.39c-.27-.62-.87-1.87-1.28-1.42.38-.28.17-.61-.2-.92a12.12,12.12,0,0,0-1.2-.73.33.33,0,0,1,0,.42,2.77,2.77,0,0,0-.68-.76,1.85,1.85,0,0,0-.27-.17l-.33-.16c-.22-.11-.45-.21-.67-.3a3.24,3.24,0,0,0-2.74.06,6.43,6.43,0,0,0,0,.76c-.35.22-.71.12-1.15.1a1.62,1.62,0,0,0-.68.09,2,2,0,0,0-.35.19l-.13.09-.09.1h.21a.66.66,0,0,0,.23,0l-.19.2-.15.15-.25.3c-.15.18-.29.35-.41.52-.22.34-.43.67-.66,1.11l.37.24c-.37.17-.62.54-1,.71.23.64-.32,1.21-.9,1.86l-.42.49a2.76,2.76,0,0,0-.29.41,2.11,2.11,0,0,0,0,.76c-.15-.27-.3-.54-.44-.83,0,0-.06,0-.07.12a6.87,6.87,0,0,0,0,.78l0-.05c.07.46,0,.52,0,.5s-.11-.16-.15,0a2.89,2.89,0,0,1,0-1,1.83,1.83,0,0,1-.45.9c-.09.12-.19.27-.35.53l-.29.51-.27.5a16.34,16.34,0,0,1,.73-2,5.06,5.06,0,0,0,.36-.81l-.11.12-.31.09a2.77,2.77,0,0,0-.76.26,1.63,1.63,0,0,1,.66-.82s0,0,.08-.07l.09-.18a2.23,2.23,0,0,0,.13-.39A2.08,2.08,0,0,0,151,137l-.28.27c-.11-.35.26-.87.36-1s-.15,0-.25,0c-.21-.35.18-.5.27-.76l-.24.09c-.39-1.11.69-2.72.69-4.11-.09.25-.34.09-.44,0a1.94,1.94,0,0,0,.72-1.29c0-.26.09-.52.13-.76s0-.22.06-.32l.08-.34a.62.62,0,0,1-.17.24,1.33,1.33,0,0,1-.16.17,1.17,1.17,0,0,0,.13-.36,2,2,0,0,0,0-.47,1.39,1.39,0,0,0-.22-.65,5.13,5.13,0,0,1-.67-1.1c-.07-.16-.14-.35-.24-.59a3.88,3.88,0,0,1,.58.42,3.76,3.76,0,0,1,.34.35l-.22-.41c-.29-.52-.48-.92-.15-1-.44-.31-.59-.21-.74-.19s-.33,0-.93-.36c-.15.14.7.68.17.63l-.44-.13-.22,0h-.16l-.61,0c-.06,0-.19,0-.46-.26.6-.76-.71-.53.24-1-1.2-.86-2.6-1.12-3.33-2.28-1,.39-2-1.66-2.66-.7a2.41,2.41,0,0,1-.62-.83,2.35,2.35,0,0,1-.14-.45.88.88,0,0,1,.09-.37c.14,0,.05.14.14.3a1.11,1.11,0,0,0-.05-.47,1,1,0,0,0-.19-.29,1,1,0,0,0-.09.52v.36a2.36,2.36,0,0,1,0,.46,1.73,1.73,0,0,1-.34-1.39c-.26,0-.54,0-.82,0,.14-.2-.07-.24-.28-.31s-.41-.18-.1-.3l.33.08c-.55-.57.5-.33.43-.56l-.47-.17c-.13-.1,0-.1.08-.11s.07,0,0,0a1.38,1.38,0,0,0-.19-.15l-.27-.17h-.08c-.09,0,0,0,0,.06l.06.1a8.56,8.56,0,0,1-.86-.45l-.38-.23-.16-.11-.06-.06c-.08-.08-.13-.15-.21-.22a3.48,3.48,0,0,1,1.13.42,4.31,4.31,0,0,0,.77.38,4.77,4.77,0,0,0-1.29-.65,6.57,6.57,0,0,1,2.73.89l-.15-.16a1.42,1.42,0,0,1,.74.29c.22.14.33.24.4.07l-.08-.06c0-.15.13-.19.22-.17a.34.34,0,0,1,.14,0l.27.08c.33.11.61.17.71-.34.32-.16-.68,0-.16-.47,1-.25.55.9,1.39.68-.11,0-.07,0-.1-.13a16.23,16.23,0,0,1,2,.44c.92-.73,2.42.53,3.49-.27-.35.29.17.44.14.59a.22.22,0,0,1,0-.15c.34,0,.35.36.47.51a.38.38,0,0,1,.32,0c.15,0,.32.09.49.14.33.11.69.19.8.08,0,.21.48.12.93,0-.51,0-.61-.09-.66-.21a.63.63,0,0,0-.27-.4,5.66,5.66,0,0,1,1.41,0,1.26,1.26,0,0,0,1.25-.84,4.63,4.63,0,0,0-.1-.92c.31.06.48-.29.57-.66l.06-.25s0-.1,0-.14.07-.12.12-.11c-.16-.19-.24-.44-.56-.45.21-.36,0-1,.36-1.07l.11.4c-.07-1.2.91-1.78.63-2.73l-.92-.12c-.29-.65.66-1,.18-1.63.28.23.18.25.54-.09,0,.24-.27.62-.32,1l.66-.72-.44,1.21c.44-.48.34-.46.68-.18.41-.72-.32-.89.14-1.56-.09-.29-.46-.06-.6-.39.42-.6-.49-1.33.06-1.72-.07-.16-.06.26-.28.2.15-.41.16-.72.45-.8l0,.38c0-.32.41-.32.28-1,.26-.32.74-.45.69-.07.08-.15-.12-.52-.41-.44a.66.66,0,0,1,.53-.62.61.61,0,0,0,.14-.07s.08-.07.09-.06,0,0-.09-.09a.32.32,0,0,1-.12,0c-.06-.07-.06-.12,0-.13s-.22,0-.37-.09-.26-.15-.21.09c-.24-.08-.25-.19-.22-.3a.37.37,0,0,0,0-.33.77.77,0,0,1,.48.26c.15.13.29.24.4.32a.38.38,0,0,1-.16-.28,3.72,3.72,0,0,0,.3.37s0,0,.1,0A.49.49,0,0,0,158,104a2.66,2.66,0,0,1-.11-.3c-.06-.23.06-.43.25-.14-.06-.18-.38-.55-.2-.76.45.34.05-.17.31-.43a.47.47,0,0,1,.28.47c0,.15.05.25.35.29.06,0-.1.2-.18.27a.48.48,0,0,1,.22.06l.11.09.13.12a2.18,2.18,0,0,0,.62.47c-.25-.15-.47-.19-.38.18.14-.32.52.18.81.31l-.12.15c.27.07.24-.16.2-.34-.05,0-.13,0-.19-.08-.06-.34.57-.71,1-.24a.56.56,0,0,1-.54.78.61.61,0,0,1,0,.79c-.11.25-.22.47.05.76.06.15,1,.46,1.22,1-.32.42-.53-.6-.78-.16,1.32.59,0,2.18,1,3.25l.44-.32a3.49,3.49,0,0,1,.32.91l-.42-.34c0,.33.33,1,.63.63-.17.81.12.87.47,1.43-.28-.63-.07,0,0-.55.49.59.34.7.41,1.22.15-.15.5,0,.57.18-.14.56.22,1.28.3,2l.15-.06a2.68,2.68,0,0,0,.38.9,2.82,2.82,0,0,0,.72.74,5.53,5.53,0,0,0,1.89.62H168l-.11,0c-.26.26,0,.35.44.34a6.62,6.62,0,0,0,.66-.08,1.52,1.52,0,0,1,.42,0c0-.14,0-.36.19-.41.14.44.48.11.69.28.32-.26-.2-.52.43-.68.25,0,.35.19.37.37a1.39,1.39,0,0,1,.73-.7c-.15-.09-.28.12-.37.11-.11-.23.14-.2,0-.5.27-.11.26.37.53.13a2.06,2.06,0,0,0-.41-.26c.12-.14.34,0,.41,0-.22,0-.31-.39-.33-.61.53,0,.56.23.54.51a2.41,2.41,0,0,0,0,.79.73.73,0,0,1,.66-.2c.18,0,.29.14.44.11a5,5,0,0,0,.18-.5c.17,0,.2.12.11.33l.26-.07c0-.16,0-.31.32-.75.27,0,1-.27.25.54l.12-.14c.65-.4,1.92-.89,2.32-1.2,0,0,.06,0,.11,0l.08,0s.08,0,0,0-.12.27-.19.4a2.12,2.12,0,0,1-.95.87c-.21.21.09.14.22.21s.08.22-.64.59c.52,0,.26-.07,1.14-.55.23,0-.17.39-.43.59s-.39.32.23.22c-.72.57-.2,0-.89.27.59-.12.47.1.27.35s-.47.52-.38.76c-.51.13-.09-.19-.71,0,.24,0,.16.17.11.26l-.57-.08a2.46,2.46,0,0,1,.8.89c-.56.22-.68,0-.81-.07a.24.24,0,0,0-.21-.09.45.45,0,0,0-.17,0l-.29.18.08,0c.15.57-.83.32-1.15,1.16.14-.26.25.08.41.12l-.47.18c.05,0,.08,0,.09.07,0,.54-.39.1-.51.65.3-.14.48.19.49.41l-.87.06.64.3c-.47.5-1.89.35-1.57,1.25l.32-.14c.08.13.24.63-.32.67-.16,0-.48-.21-.32-.31l-.16.33c.4.22,1.12-.23,1.6-.48-.24,0-.64.13-.72-.15.44-.19,1-.28,1.4-.48a1.93,1.93,0,0,1-.69-.2c.22-.5.47,0,.79-.26,0-.23,0-.38-.18-.42a1.5,1.5,0,0,0,1-.94s-.62.17-.57-.22a3.23,3.23,0,0,1,1.1-.35c.17,0,.35-.07.54-.13l.29-.12a1.48,1.48,0,0,0,.35-.2,2.79,2.79,0,0,0,1-.78,3.48,3.48,0,0,0,.58-.94,8.54,8.54,0,0,1,.39-.8,2.14,2.14,0,0,1,.63-.72c.29-.11,0,.63.55,0-.58.18-.1-.31-.29-.3.56-.4.65-.64.69-.83s0-.33.42-.67c-.24.19-.27-.1-.34-.24-.36.2-.34.07-.41.06s-.24.12-.94.71a3.2,3.2,0,0,0,1-1.31,5.8,5.8,0,0,1,1.42-1.66l.1.12c0-.22.27-.69-.38-.36l.06,0A5.14,5.14,0,0,0,178,114c.06.09.37,0,.41.1-.56.31-.64.27-.68.15s0-.3-.29-.25c-.42.43.39,0-.34.59-.41.16-.39-.08-.62-.12l-.18.24c-1.36.81.7-1.15-.69-.13.14-.16.17-.3.33-.46-.26.18-.63.43-.87.64s-.34.4-.17.48c-.3.08-.52,0-.57-.24.49-.43.47-.28.87-.77l-1.58.25c-.19,0,.09.17.31.1a4,4,0,0,1-1.46.75,5.92,5.92,0,0,1-1.32.16,2.52,2.52,0,0,0-2.2.9c.1-.35-.19-.23-.39-.4l-.17.07-.14.06-.28.07c-.2,0-.4.06-.59.11a2,2,0,0,0,0,.24,1.24,1.24,0,0,1-.62-1c0-.15,0-.28-.07-.4a3.1,3.1,0,0,0-.25-.56c.07-.08-.29.12-.29.28.14-.71-1.29-.94-.57-1.4l.14.18c-.57-1.08-.46-2.54-.76-3.75-.57-.11.18.7-.46.65-.47-.76-.35-1.72-.79-2.57,0,.16-.08.15-.09.23-.59-.8.5-.05.2-.79-.23.12-.3.1-.5-.12l.31-.34a.58.58,0,0,0-.44.23c.39-.5-.29-1.42.06-1.87-.15,0-.51.33-.72.29a1.23,1.23,0,0,1-.19-1h0c-.44-.14-.76-.81-.74-.64-.56-.59.19-.25.07-1,.2.15.39.3.57.46a7.57,7.57,0,0,0-.64-1.09,5.23,5.23,0,0,1,.12.54c-.48-.32-.55-1-1.11-1.49h.43a3.85,3.85,0,0,0-.26-.34l-.37-.38c-.2.22-.49.09-.71,0s-.36-.07-.26.36c-.7-.22-1.24-.46-1.85-.66a2.44,2.44,0,0,0-1.93,0l-.27.19c.2-.18.2,0,.29,0-.3.33-.48.59-.69.79s-.42.36-.64.57c.2,0,.32-.19.45-.1a1.61,1.61,0,0,1-.37.8,2.11,2.11,0,0,0-.48,1c.3-.37.4-.15.43.13a.42.42,0,0,0-.47.25c1.24-.47.33,1,1.31.73-.25,0-.94,1.24-1.36.8l.12-.22c-.31-.07-.23.26-.29.49.07-.11.16-.23.23-.23-.55,1.13-.37,2.42-.85,3.71.13-.1.42-.6.47-.25,0,1.35-.74,2-1.21,3.32.73.16.31-1.43,1-1.38-.19.69-.39,1.39-.63,2.1-.12.36-.24.72-.38,1.08l-.1.28s-.05,0-.07.06l-.15.06c.5.32.32.46.12.41S152,115,152,115s-.07.08-.11.3a1.05,1.05,0,0,0-.12-.39l-.05-.09,0,0-.07,0c.11.32-.33.27-.25.5a1.67,1.67,0,0,0-1-.45c-.4,0-.75,0-.77.4,0-.7-1-.12-1.34-.65-.62.17-1.26-.31-2-.18.31-.41-.73-.28-1-.49.08,0,.23.11.18.17-.25.35-.83-.41-1.28-.22-.2.14,0,.41-.3.42,0-.16-.26-.34-.6-.45l-.26-.06-.46,0a1.69,1.69,0,0,0-.74.13c.34,0,.37.17.58.3a21.14,21.14,0,0,0-4.62-.32c-1.52,0-2.91.08-4.79,0a4.19,4.19,0,0,0,.21.43,4.54,4.54,0,0,1,.21.45,3.5,3.5,0,0,1,.59-.08c1.21,1.07,1,1.12.68,1.19s-.75.09-.15.84c.82,1,1.68,2,2.61,2.94.47.47.92.93,1.41,1.35l.7.64a1.7,1.7,0,0,0,.29.25l.22.17a31.29,31.29,0,0,1,3.25,2.76c.06.25-.21.07-.38.22.24.1.56-.19.64.22l-.23.18a4.87,4.87,0,0,1,2.08,1.3c.67.57,1.38,1,2.09.78a2.55,2.55,0,0,0,.41.4l.1.09.07,0c.09,0,.22.07.28.18s0,.29-.24.39a.43.43,0,0,0,.35,0c.1,0,.18-.09.2,0a4.89,4.89,0,0,0-.26.59l-.28.63.05-.07c-.94,1.18.66,3.38-.08,4.9l.05-.06c.2,0,.4.32.32.57-.15.07-.21-.1-.36-.27a12.72,12.72,0,0,0-.64,2.78c.33-.45.21.46.61.54a.42.42,0,0,1-.19.11.81.81,0,0,1-.16,0c-.09,0-.19.06-.35.63a11.8,11.8,0,0,0,0,2.21c0,.66.12,1.2.15,1.72-.43.88-.39,1.47-.88,2.1l0,.36a2.25,2.25,0,0,0,0,.26V147a20.2,20.2,0,0,0,.06,2.13l.14-.23c-.23.72-.14,1,0,1.11a.83.83,0,0,1,.15.23s0,.05,0,.07l.08-.06c.05,0,.07,0,.08,0,.11-.34,0-.37.18-.69l.54-.21c-.22,0,0-.91.57-1.41.27.28-.33.6-.28,1l.5-1c.31-.2.12.71-.48,1.39.36-.29.69-.54,1-.79l1-.7.95-.7a11.82,11.82,0,0,0,1-.93l-.13-.36a5.71,5.71,0,0,0,1.85-2.41c0,.09.3.07.24.32.52-.28.48-.47.43-.64s-.09-.32.49-.71c-.29.2-.59.5-.72.36l.87-.89c.15-.16.31-.32.46-.49l.11-.12.06-.07,0,0,.15-.14a1.58,1.58,0,0,1,.4-1.66c.13.05.18.31.12.46l.33-.27-.31-.59.75-.21-.4-.28c.33-.31.94-.1,1.1-.41.49-1.23.2-1.1.39-2.11.4.24.6,0,.81-.36a.28.28,0,0,0,.05-.08l0,0a.16.16,0,0,1,.07-.07s.12,0,.23.11a.51.51,0,0,1,.19-.54.53.53,0,0,1,.51,0,6.69,6.69,0,0,1,.69.42l.49.31c.16.11.33.22.49.31l-.05-.14c.4,0,.45.29.46.58s0,.59.36.75l0-.22c1,.24,2,1.76,2.39,2.71,0-.24.23-.39.43-.15s-.63.3-.12.54c0-.15.18-.23.28-.15l0,.36,0,.17a1,1,0,0,0,.08.24,26.87,26.87,0,0,0,3.1,1.85,7.92,7.92,0,0,0,.72.35c.23.1.47.22.7.34.45.18.91.39,1.38.6.22-.12-.1-.38-.25-.6.33.12.67.26,1,.41l1.12.44c.39.14.83.28,1.24.41l.3.09.15,0h.09l.32,0-.65-.8c.14-.11.69.47,1,.64,0-.05-.06-.29-.44-.89-.15-.26,0,.24,0,.43a1,1,0,0,1-.33-.18,1,1,0,0,1,0-.16c-.72-1.43.71.22.09-1.36-.25-.1-.5-.22-.77-.36-.45-.75-.42-.92-.26-1s.47.05.63,0a1.1,1.1,0,0,0-.17-.88,5.69,5.69,0,0,0-.68-.82,5.57,5.57,0,0,1-.72-.82,2,2,0,0,1-.35-1.11c.2-.32.51.15.71-.2a7.25,7.25,0,0,1-.38-1,3.36,3.36,0,0,1-.13-.67,2.2,2.2,0,0,0-.27-1c-1-.22.16.47-.82.19l.42.65c-.65-.46.07.59-.47.66-.29-.41-.09-1.24-.12-1.9-.38.13.18.71-.43.61l.06-.36c-.09.12-.23.18-.16.36-.4,0-.14-.36-.22-.65a1.94,1.94,0,0,1,.79-.16.28.28,0,0,1-.17,0c.36-.78-.38-1.65-.1-2.31-.09.12-.15.06-.25.06-.13-.35.26-.89.25-1.42-.36-.17-.8.42-.88-.41.27-.24.93-.06.72-.71C171.09,129,171,129.63,170.69,129.39Zm.55,13.76-.38-.15h0Zm-1.5-1a.57.57,0,0,1,.26.45l-.34-.14-.31-.15C169.55,142.31,169.86,142.34,169.74,142.17Zm-.23-3.41-.08-.11a1,1,0,0,0-.18-.14c-.1-.18-.19-.35-.06-.2Z"/><path class="a" d="M170.12,139.51l.09.08a1.32,1.32,0,0,1,.08.19l-.23-.29Z"/><path class="a" d="M167.9,117.92l0,0a.27.27,0,0,0,.08-.07S167.92,117.91,167.9,117.92Z"/><polygon class="a" points="156.88 138.72 156.79 138.65 156.94 138.61 156.88 138.72"/><path class="a" d="M176,114.14a1.15,1.15,0,0,1,.23-.18A1.52,1.52,0,0,1,176,114.14Z"/><path class="a" d="M179.71,113.24l.39-.15s0,0,0,0v.14s0-.07,0-.1v0s0,0-.08,0Z"/><path class="a" d="M179.13,115.52a2.33,2.33,0,0,1-.3.18h0Z"/><path class="a" d="M153.76,105.89a.16.16,0,0,1,0,.09C153.61,106.19,153.67,106,153.76,105.89Z"/><path class="a" d="M162.41,104.61a1.77,1.77,0,0,0,0-.46C162.55,104.34,162.64,104.5,162.41,104.61Z"/><path class="a" d="M151.59,114.75Z"/><path class="a" d="M162.12,103.64a.75.75,0,0,1,.3.51A1.46,1.46,0,0,1,162.12,103.64Z"/><path class="a" d="M171.18,125.29l-.08.09-.06,0Z"/><path class="a" d="M171,125.33l-.14,0S171,125.31,171,125.33Z"/><path class="a" d="M170.61,125.47l.29-.09C170.83,125.44,170.74,125.53,170.61,125.47Z"/><path class="a" d="M173.54,122.91l.14.09S173.6,123,173.54,122.91Z"/><path class="a" d="M174.31,122.23c-.14.21-.2.68-.52.85l-.11-.08C174,123.06,174,122.21,174.31,122.23Z"/><path class="a" d="M175.08,118.38a3.67,3.67,0,0,1-.2.47.42.42,0,0,0-.56,0c-.14-.24,0-.2.14-.19A.55.55,0,0,0,175.08,118.38Z"/><path class="a" d="M175.57,117.11c-.29.31-.49.24-.69.36C175.25,117.19,175.36,117.09,175.57,117.11Z"/><path class="a" d="M163.72,113.4l-.36.19C163.29,113.24,163.5,113.53,163.72,113.4Z"/><polygon class="a" points="164.49 109.35 164.83 109.58 164.53 109.85 164.49 109.35"/><polygon class="a" points="161.11 108.22 161.1 108.38 161.07 107.79 161.11 108.22"/><path class="a" d="M147.5,118.06l.16-.48C147.88,117.7,147.85,118.25,147.5,118.06Z"/><path class="a" d="M140.56,118.27c.44.11.74.21.49.3C140.92,118.47,140.53,118.33,140.56,118.27Z"/><path class="a" d="M151.9,139l-.13-.1a.33.33,0,0,0,.15,0Z"/><path class="a" d="M146.81,118.3c.14.16,0,.44-.43.31l-.22-.57Z"/><path class="a" d="M143.64,118.53c-.45-.41-.86-1-.38-1.37.32.65.5.48.87,1.22.42.18.81.05.78-.16.12.17.7,0,.87.42a2,2,0,0,1-2.07-.45C143.52,118.25,143.63,118.43,143.64,118.53Z"/><path class="a" d="M149.82,128.59c-.06.06-.11.13-.17.2A.79.79,0,0,1,149.82,128.59Z"/><path class="a" d="M151.83,133c-.06.2-.14.27-.19.27C151.73,133.09,151.79,132.94,151.83,133Z"/><path class="a" d="M152.15,128.32v.28A.33.33,0,0,1,152.15,128.32Z"/><path class="a" d="M149.82,128.59c.14-.18.26-.37.38-.55C150.35,128.12,150.05,128.36,149.82,128.59Z"/><path class="a" d="M141.91,118.44a1.76,1.76,0,0,1-.39-.16l.37.07A.29.29,0,0,0,141.91,118.44Z"/><path class="a" d="M148.84,121.21l-.32,0a1.43,1.43,0,0,1-.2-.23A5,5,0,0,1,148.84,121.21Z"/><path class="a" d="M149.76,122.56c-.21.06-.37-.35-.49-.53a.64.64,0,0,0,.53.2A.58.58,0,0,1,149.76,122.56Z"/><path class="a" d="M144.16,116.85l-.26-.09Z"/><path class="a" d="M150.23,126.73a.47.47,0,0,1,.13.11A.2.2,0,0,1,150.23,126.73Z"/><path class="a" d="M167.81,118.82h.08C167.84,118.87,167.81,118.89,167.81,118.82Z"/><path class="a" d="M175,116l-.12.09a1.56,1.56,0,0,1-.2-.16Z"/><path class="a" d="M155.8,126.58v0C155.9,126.33,155.86,126.45,155.8,126.58Z"/><path class="a" d="M162.24,129.55c.71.69-.1-1.56.83-.46C162.86,129,162.9,130.5,162.24,129.55Z"/><path class="a" d="M142.15,118.39l.37,0A1.14,1.14,0,0,1,142.15,118.39Z"/><path class="a" d="M163.07,129.09h0l.1.11Z"/><path class="a" d="M156.07,127.49a.64.64,0,0,1,.05.28S156.07,127.67,156.07,127.49Z"/><path class="a" d="M154.17,131.39l0,.37A1.22,1.22,0,0,1,154.17,131.39Z"/><path class="a" d="M158.4,131.92a1,1,0,0,1,.19-.51.31.31,0,0,1,0,.1A.52.52,0,0,0,158.4,131.92Z"/><path class="a" d="M164.51,128.9l-.18-.09-.21-.33Z"/><path class="a" d="M163.08,127.75a1.23,1.23,0,0,0-.1-.58C163.17,127.46,164,126.32,163.08,127.75Z"/><path class="a" d="M141.93,118.19a.27.27,0,0,0,.22.2l-.26,0C141.87,118.29,141.87,118.22,141.93,118.19Z"/><path class="a" d="M161.72,133l.24-.6,0-.15v0l0,.13Q161.87,132.72,161.72,133Z"/><path class="a" d="M154.34,112.15l-.13.28A.52.52,0,0,1,154.34,112.15Z"/><path class="a" d="M162.33,131.85c0-.26,0-.36.09-.4a1.21,1.21,0,0,1,0,.2A.47.47,0,0,0,162.33,131.85Z"/><path class="a" d="M163,127.16h0Z"/><path class="a" d="M166.8,120.26c.35-.34.38-.37.33-.49a.83.83,0,0,1,0-.71.87.87,0,0,0,.57-.25c.13-.11.23-.18.43,0l-3-2a.32.32,0,0,1-.14,0c.44.48.27.34.5,1.16-.35-.41-.67,1.34-1.15,1.2.51.41.92-1.14,1.33-.06-.5.61-.86,1.82-1.48,1.82a6,6,0,0,1,.14,1.61c0-.13.13-.26.2-.33a5.47,5.47,0,0,0-.3.81l3.49.63a5.45,5.45,0,0,1,.6-1.32,1.15,1.15,0,0,1,1-.61c-.41-.2-.08-.65.29-1s.73-.52.15-.66a1.69,1.69,0,0,1,.9-.16l-2.37-1.7a2.48,2.48,0,0,1-.34.58c.7,0,.07,1.5.43,2.19a1.31,1.31,0,0,0-.36.82l-1,5.12L171,123a5.07,5.07,0,0,1,.89-.8c-.24.17-.43.21-.51,0,.67-.37.35-.4.49-1.09.8-.59.29.48.92.26.43-.73-.25-.39-.37-.69l1.36-.46a.8.8,0,0,0,.07-.65c.45-.18.92-.24,1.11-.91l-.76.75,0-.54,1.21-.59c.95-1.63.05-1.78-.56-2.22l-.65.44c-.15-.2.13-.67.37-.92s-1.46.28-2.13.84c-1.58,1.69.27.93-.67,2.2-.56.39-1.11.8-1.66,1.22l.18.18c-.08.36-.41.32-.51.35.23.08-.21.59-.68,1.13l1.21.48c0-.42.1-.84.1-1.14l.29.31a4.25,4.25,0,0,0,.17-2.74l-.37-1.73-1,.76c-.83.65-1.33,1.37-2.18,1.92a8,8,0,0,0-1.32.75l.24.5c-.33.27-.59.42-.83.66a2.23,2.23,0,0,0-.55,1.3l0,.54,2.12.39a31,31,0,0,1,.92-6.21l.43-2-1.79,1.07a7.42,7.42,0,0,0-2.5,2.58,11.69,11.69,0,0,0-1.25,3.06c-.07-.09-.06-.22,0-.5a6.39,6.39,0,0,1-1.18,3.37,9.11,9.11,0,0,1-2.07,1.91l2.51,1.2a6.29,6.29,0,0,0,.11-2.51l-.2.21c.27-1.71-.21.22-.33-1.06.6-.18.68-2.14,1-3.11a3.56,3.56,0,0,0-.27.77c-.11-.2-.45-.31-.29-.8.95-1,1.11-3.38,1.55-5.1-.36-.25-.53-1.79-1.06-2.64,0,0,.1-.11.18-.22l.41-.61-1.54.18c-.2,0-.5.09-.79.15a2,2,0,0,1-1,1.26c.31-.49.61-.91.84-1.22h-.05c.05,0,.12-.12.18-.18a2.74,2.74,0,0,1,.34-.4l3.49-2-1.2,2.83s0,0,0,0h0l-2.24-.87h0l2.25.87c.27.7.29,0,.69.07l-3.51-1.35h0c-.35.5-1.18,1.47-1,1.77a5.16,5.16,0,0,0-.41.89,1.53,1.53,0,0,0-.43.61l.1-.09a.78.78,0,0,1,0,.21,10.93,10.93,0,0,1-2.45,3c.92-.59.46.5.83.67a18.4,18.4,0,0,1,1.08-2.27.34.34,0,0,0,.13.31c-.2,1.31-1.32,1.74-1.83,3.52.1-.09.28-.26.38-.12a1.48,1.48,0,0,1-1,1.06c.16.17.14.65,0,1.14l1.59.38a2.71,2.71,0,0,1,0-1.15,1.94,1.94,0,0,0,.54-1.53l-.31.44c-.15-1.26.48-1,.34-2,.07.42-.22.43-.25.12a3.69,3.69,0,0,1,1.09-2.16l-.45.12c.38-1.07,1.21-3,.63-3.15.85.48.86-2.27,1.05-3.21a.42.42,0,0,1-.39.35,8,8,0,0,0,.72-2.13l-3.78-1.15c-.46,1.23-.72,2.54-1.2,3.76l.51.55c-.42,1-1.76.83-2.17,2l.46-.29a29.26,29.26,0,0,0-1.41,3.68l4,1.06.06-.71-.45,0c.31-.55.44-1.28.76-1.83-.4-.76,0-2.06.52-3.47a10.28,10.28,0,0,0,.9-4.29l.83.12c.29-.9.87-2,.45-2.6l-.06.2c-.37-.08-.2-.38,0-.73l-2.77-1a2.45,2.45,0,0,0-.33.84c-.2.42-.73.76-.74.34-.16,1.33-.6,2.91-.93,4.39a9.86,9.86,0,0,0-.34,3.74c-.79,2.52-1.79,4.38-2.09,7.24l.1,0c0,1,0,2.92.68,3-.27,1.43-.86,2.47-1.14,3.85l-1.79,8.92,5.46-7.9A7.16,7.16,0,0,0,157,127l-.47.35a4.16,4.16,0,0,1,1.08-1.51c.08-.19-.11-.12-.21-.14.05-.62.54-.75.81-1.13l-.29.06a3.74,3.74,0,0,1,.22-.67,5.79,5.79,0,0,1,.25-.55,1.73,1.73,0,0,1,.38-.45.88.88,0,0,1,.33-.16c.09,0,.14,0,.2-.08a.23.23,0,0,0,.05.12,3.56,3.56,0,0,1,.09-1c0,1,0,1.4,0,1.62s0,.3,0,.38a.76.76,0,0,0,.23-.24,1.2,1.2,0,0,0-.06.17,2.3,2.3,0,0,0,.2.42,2.41,2.41,0,0,0,.5.58,2.32,2.32,0,0,1,.84,1.67l-.84-.89c.43.7.55,1.4.16,1.35.59.78.59-.12,1.2,1.18.22,0-.25-1,.18-.68l1.28,1.61c.09,0,.19.25.38.88-.95.21.58,1.54-.67,1l.21.52,1.07,2.7,2-2.12a5.78,5.78,0,0,0,1.36-2.56,18.05,18.05,0,0,0,.39-2.2l-3.18-.33a12.15,12.15,0,0,1-.18,2.89c.92,1-.05,4.77,1.16,4.55a6.53,6.53,0,0,1-.78,3.29,1.83,1.83,0,0,1,.13-.89,7,7,0,0,0-.4,2.66,14.11,14.11,0,0,1,1-3,33.9,33.9,0,0,1-.78,3.64l.07,0,6.29,3.32-4.06-3.1-.49-.38c.62-1-.35-.94.41-1.9l.15.23c.21-1.93.83-1.89,1.05-3.72l-.25.07c-.06-.63.57-1.54,0-2.17l-.07,1.19c-.42-.15-.58-1.05-.79-1.46.13-1.23.71-.43.78-1.05-.41-.27-.22-.07-.62.36l.08-.81-1,.31a5.29,5.29,0,0,1,.67,3.15c.08,0,.15-.05.15-.05a4,4,0,0,1,.18,1.71,3.37,3.37,0,0,0,0,1.36l2.76-1-.12-.09.06.14-2.62.92,0-.12.06.12,2.47-.87c-1-.66-1.19-2.64-2.12-2.24-.47-.33.75,1-.16.56-1.26-1.19,0-1.41-1.08-2.45.15.14.06.13,0,.24-.31-.45-.65-1-1-1.52l-1.33-2.07a10.46,10.46,0,0,1-1.25-1l-.62-.53a1,1,0,0,0-.38-.2.75.75,0,0,0-.49,0,1.56,1.56,0,0,0-.66.58,5.12,5.12,0,0,0-.5.81,5.17,5.17,0,0,0-.48,2c0-.4-.13-.37-.29-.21s-.32.43-.39.39.11,0,.13.07a1.53,1.53,0,0,1-.21.4,1,1,0,0,1-.21.16c-.13.08-.27.1-.38.18.06.51-.77,1.25-.91,1.66l2.68.32a.67.67,0,0,0-.06-.12c.21,0,.07-.52,0-1.06-.05,1.13-.39.43-.64,1-.39-1.59.61-2,.15-3.66l-.57-.85c.29-.15.31-.61.28-1l-.27-3.83-2.56,3.27c-.26.33-.46.66-.55.58,0,.35-.12.77.18.88-.49.5-.76,1.53-1.23,1.58l.23-.66c-.92,1.91-2.35,2.5-2.86,4.1l.8.46c-.21,1-1.13,1.31-1.42,2.06l1.61.48a1.28,1.28,0,0,0-.15-.44c.3.33.2.4.53-.27a2.92,2.92,0,0,1-.07.72l-2.18-.66a6.94,6.94,0,0,0,.7-.88l-.95.72,2.73.82.13-.32,0,.32-2.89-.86,1.22-1.52c-.83.63-.71.62-.82.09a2.52,2.52,0,0,0-.7,1.24l3.55,1.06a2,2,0,0,1,0-1.32c-.11-.47-.47,0-.63-.55.39-1.12-.52-2.23.06-3-.07-.27-.08.47-.29.38.16-.73.19-1.26.49-1.44l0,.64c0-.56.42-.6.34-1.68.3-.57.81-.84.72-.19.09-.25-.06-.87-.37-.71.25-1.63,1.09-.61.94-2.23,0,.1-.11.2-.16.13a2.57,2.57,0,0,1,.19-1c-.35,1.35-.65-.58-.8,1.08-.46-.27.14-1.26.07-1.82.5-.72.71.07,1-.28-.15,0-.08-.35,0-.75l.27.46a5.55,5.55,0,0,1,.25-.84l-4.53-.79L152,123l.06-.18,4.52.79-.22.45a3.86,3.86,0,0,0,0-.5l-4.12-.72a5,5,0,0,1-.08,2.69c.19-.33.57-1,.66-.09-.4,1.39.12.35.31,1.19-.27,1.39-.68.16-.75,2.24,0,.23-.22,0-.29-.25,0,1.42-.43,2.12-.45,3.49,0-.59,0-1.06-.34-.33.37-.26,0,1.14.08,1.69l-.22.08c.09.46.28.05.43-.26-.06,0-.08-.14,0-.38.3-.61,1-.22.74.85-.48,1.07-.91.73-1,.5-.21,1.23-.92,1.16-1.28,1.87l3.37,1.08a2.31,2.31,0,0,0,.13-.65,15,15,0,0,1-.17-2.7c.55-.45,0,1.39.49.87-.6-2,1.52-3.48,1.4-6l-.57.18a10.18,10.18,0,0,1,.35-1.69l.11.86c.23-.52.39-1.81-.08-1.48a4.33,4.33,0,0,0,.56-2.61c-.19,1.21.07,0-.37.86a4.76,4.76,0,0,1,.47-2.24c-.21.11-.41-.4-.34-.74a.67.67,0,0,0,.06-.12l.53-1.17-1.29.83a10.19,10.19,0,0,0-2.06,2.75l.14.07c-.51.84-.8,1.8-1.24,2.66a3.69,3.69,0,0,1-1.94,2h0l-.08,0,.09-.1c.15-.58-.71.07-1.33.1l1.39,1.08a1.83,1.83,0,0,1,.1-.51c-.12-.12-.34-.19-.32-.5.46,0,.3-.68.56-.9-.06-.63-.59,0-.34-1.07.13-.41.39-.39.55-.29a1.35,1.35,0,0,1-.13-.67,2.7,2.7,0,0,1,.09-.55,3,3,0,0,1,.17-.58c-.25.24-.23.65-.32.81-.27,0,0-.42-.33-.46.2-.57.53-.2.74-1l-.73.69c0-.28.34-.62.45-.78a.84.84,0,0,1-.92.36c.43-.62.79-.82,1.12-.82s.49.28.77.19a9.31,9.31,0,0,1,1.17-2.08c0-.06,0-.14-.08-.19l-.33-.07-.68-.15a11.85,11.85,0,0,0-1.45-.24,3.28,3.28,0,0,1,0,.43,2.27,2.27,0,0,1-1.21-.46l-1.27-.12c.71.22.87.37.78.71l-.88-.14-.73-.13c-.46-.1-.82-.25-.92-.55l0,.1c-.36,0-.82,0-1.3,0l-.06,1.7a7.25,7.25,0,0,0,2.48-.51c1.37.06,3-.6,3.15-.06.84,0,1.86-1.2,2.61-.68.8-.66,0-.16-.4-.49.78-.62,2,0,2-.93h0l.52.21-.51-.38c-.87-.64.32,0,.13-.52-.52.6-2-.69-3.09-.59-.34-.45.51,0-.15-.6,0,.2-.4.11-.61.06l-.06-.52c-.45.27-.9.56-1.33.85-1.36-.93.53-.74-1.46-1.44l.12.07c-.66.36-1.4-.69-3-.53.52,0,.17.26.32.42-.27-.11-.54-.22-.81-.31.08,0,.11.07,0,.12-.77.27-.61-.28-1.5,0,.58.15.36.5.1.64l-1.17-.63.45.69a18.2,18.2,0,0,1-2.21-.5l.05-.22c.45.34.9.53,1.3.28l-.48-.33c.11-.12.61-.4,1.18.21.19.16.19.58-.11.43l.6.08c-.11-.47-1.26-1.1-2-1.63l-.58,2.27H140a.38.38,0,0,0-.11,0l.56-2.19c.19.27.61.63.33.76-.18-.13-.35-.28-.51-.42l-.38,1.46c.58.15,1.13.34,1.68.48a2.53,2.53,0,0,1-.63-.65c.89-.19.64.32,1.3.4.26-.15.44-.25.29-.4a5.47,5.47,0,0,0,2.36.27,3.26,3.26,0,0,1-.4-.25c-.16-.14-.26-.29,0-.37,1.6.5,1.83,1.06,3.44,1.74a6.68,6.68,0,0,0,2.71.9,4.36,4.36,0,0,1,2.25.81c0,.2-1.08-.06-.3.37,0-.42.59,0,.69-.14a1.64,1.64,0,0,0,.24.27l.07-2.4c-.79,0-1,.61-1.71.47.19.09-.3.39-.62.62.24.43-1,.48.57.74a4.87,4.87,0,0,0-2,.19,2,2,0,0,1-1.78-.28l.34-.19c-.46.15-.94.3-1.41.43l.06,0a3,3,0,0,0-1.56.59c.39.09.92.05,1.31.13-.77.5-1.69-.21-2.55-.22,0,.35.92.09.67.52a2.72,2.72,0,0,1-.7,0v.31c.36.11.69.26,1.05.35l-.07-.2c1.62-.29.53,1,1.74.45,0,.11.09.25,0,.35a2.67,2.67,0,0,0,.34-.14l.33-.18c.19-.12.29-.26-.17-.42.54,0,1.06.26,1.11.48-.57.23-.55.09-.86.43q.65.15,1.11.3c.14,0,.15-.18,0-.2a5.19,5.19,0,0,1,.64-.13l.3,0h0v0l0,.08a8.74,8.74,0,0,1-.63,1.09l-.35.55a2.4,2.4,0,0,0-.16.27l-.08.13-.1.21a5.11,5.11,0,0,0-.32,3.78c-.29-.36-.29.21-.5.51V130l.11,1.42,1.24-.38a6.14,6.14,0,0,0,1.75-.85,4.41,4.41,0,0,0,1.21-1.25l-.36.08a11.48,11.48,0,0,0,2.12-2.39,10.51,10.51,0,0,0,1.13-2.12c.11,0-.28-.12-.45.09a2.86,2.86,0,0,0,.59-1.51c.11-.49.26-.88.67-.74l-.16.34a4.4,4.4,0,0,1,.36-.52l-1.42-.64c-.35,2-1.25,4-1.76,5.89.38.62.32-1.25.8-.68-.13,1.57-.88,3-1.1,4.7.12-.25.16-.18.23-.3-.08,1.72-.44-.29-.7,1.11.26,0,.3.06.31.55l-.48.31a.38.38,0,0,0,.51,0c-.65.49-.77,2.41-1.37,2.77.09.15.63-.07.76.16a2.22,2.22,0,0,1-.11.62l.72.23a4.43,4.43,0,0,1,.67-1h0c-.15-.62.26-1.86.13-1.61.19-1.38.33-.14.88-1.09,0,.38,0,.76-.07,1.14.22-.63.41-1.26.59-1.9-.14.24-.27.48-.41.71,0-.92.63-1.73.8-2.77l.2.52c.13-.38.25-.77.37-1.15-.55-.21.1-1.53-.67-1,0-2.21.92-3.52,1.18-5.49,0,.34-.14.19-.24.25,0-.12,0-.24,0-.33l-2.22-.39a5.11,5.11,0,0,1-1,2.08c.21-.11.33-.37.48-.34-.28,1.36-.51.76-1,2.25.32-.38.41-.22.4.2-.2-.1-.41.22-.52.49,1.34-.94.2,1.78,1.23,1.2-.27,0-1.08,2.32-1.46,1.59l.14-.4c-.31-.09-.26.49-.33.92.08-.22.18-.45.25-.44-.6,2-.49,4.06-.72,6.29l-.62,6.17,3.89-5.19c.11-.16.24-.32.37-.48-.11.06-.35.27-.52.39l-4.81,3.26,1.86-4.15c.08-.17.15-.24.19,0l2.6.78s0,0,0,0c1.12-2.11,2.37-3,3.9-4.84-.58-.49-1.47,2.14-2.12,1.84,1.24-1.72,2.57-3.46,4.08-5.31l-3.57-.7.05,1.29c1.24.78,0,2.78,1.17,4.35a.18.18,0,0,0-.2.08l-1.42,2.12,5.08-1.67c.27-.09.62-.68.93-1.35-.41.17,0-.74-.32-.58a2.81,2.81,0,0,0,.26-.3s.1-.15.12-.16l.06,0a.35.35,0,0,0,.16-.18,1.6,1.6,0,0,0-.15-.93c.2.41.22.3.31.12s.14-.16.21-.08a.76.76,0,0,1,.1.43c.1-.09.21.12.27.28s.07.17.11.24,0,0,0,0a.39.39,0,0,0,.07.09,3.7,3.7,0,0,0,.33.36c-.62-.11.6,1.18.73,1.68-.05-.13-.16-.39-.08-.37.54.1.63,1.42,1.24,1.89.33.18.28-.3.63.12-.25.19.63,2,1.37,2.39-.2-.27-.08-.37-.1-.61.11.21.22.42.34.63l3.1,5.42.28-6.62a13.17,13.17,0,0,0-2.27-7.39l-3.57-5.68-.11,6.79a13.75,13.75,0,0,1-.36,3.14l.55-.58c.54,2.2-.93,1.36-1,3-.07,1.13-.14,2.27-.25,3.41l4.56.46a72.68,72.68,0,0,1-.22-11c.16-.34.18.2.4.26-.06-.41-.49-.53-.21-1.08l.28.12a5.26,5.26,0,0,1-.22-1.45l-4.16-.43a7.13,7.13,0,0,1-.45,1.7,3.26,3.26,0,0,1-.6,1l3.64.68a4,4,0,0,0-1.35-1.87c-.36-2.08-1.63-3.14-2-5.71l0-.06-.06-.07a.49.49,0,0,0-.08-.1s-.08,0-.1,0,0,.29,0,.37,0,.21,0,.22,0,0-.07-.06a.35.35,0,0,1-.06-.09s-.05-.09-.1-.2q-.5-1.78-1.14-3.93l.06.25a21.56,21.56,0,0,0-2.12-5.38c-.67,1.61-1.38,3.31-2.07,5a20.83,20.83,0,0,1-2,3.78l.12-.15c.05,0,.08.06.08.16a.43.43,0,0,1,0,.16v.16a1.36,1.36,0,0,1-.24.64c-.19.08-.12-.23-.14-.54a37.79,37.79,0,0,0-2.66,4.29c.34-.34.28-.08.19.28l3,.84c0-.31-.11-.68-.3-.74.3-.49.39.33.7-.79.17-1.61,0-3.13,0-4.49.42-.5.42-1.22.87-1.2.28-1.8.62-2.78,1-5l-.14-.09c.65-.48.11-2,.51-2.3-.2,0-.33.23-.47.14l.4-.95c-.27.43-.84.59-.72-.25.58-.77.21.29.61-.05l-.44-.38c.21-.63.82-.67.78.15.51-2.19,1.33-4.26,1.82-6.19l-.38.1c.08-.18.16-.38.23-.59l-3.68-1.3a6.89,6.89,0,0,0-.76,2.67c-.1,0-.36.21-.41,0-.88,1.17.47.31-.47,1.6.23-.32.45-.75.65-.75q-.65,1.28-1.23,2.58a4.47,4.47,0,0,1-.18,3c-.14,0-.25-.36-.21-.67l-.3.72.44.71-.73,1,.47.12c-.26.77-.93,1-1,1.64a13.88,13.88,0,0,0,0,1.43l.77,18.41L156.68,119c.15-.94,0-1.06.14-2.36.94.16,1-2.55,1.73-2.71a17.19,17.19,0,0,1,1.4-4.79l-2.62-.8a29.6,29.6,0,0,0-.67,3.6l.12-.23c.2,1.34-.95,1.34-1,2.76l.18-.33c.21,1.85-.57,4.92-1.07,6.62.17-.34.45-.14.38.41s-.62-.5-.5.48c.1-.23.29,0,.29.19l-.51.93,0,.53.89,11.18,3.19-10.21a23,23,0,0,1,2.89-6.56c.08-.47-.23-.27-.42-.26a20,20,0,0,1,2.33-2.89l-3.11-1.2c-.15.66-.28,1.29-.38,1.91l.52.24c-.1.88-.88.46-.52,1.66,0,.26.11-.76.38-1.05.22,1.82-.63,1-.75,2.69l.65-.38c.22,1.34-.47,1.45-.88,1.88-.9,1.75,1,1.42.23,3.84-.34.36-.42-.17-.76.19,0,1.61-.41,1.88-.5,3.34l-.44,7,4.21-5.21.28-.35c.11-1.47-.73.82-.52-.68l-.33.47-2.21,3.18-.2-4.33,0-.87c.36,1.19.24-1,.75-.79a5.07,5.07,0,0,1-.33,1.7l-1,2.92,2.72-2.08.74-.56c.22-.21.44-.42.65-.64-.17-.11-.4.19-.6.41s-.39.35-.4,0l.5-.41c-.2.07-.34,0-.54.3-.18-.41.43-.58.73-1.09a1,1,0,0,1,.58.57.48.48,0,0,1,0-.21,4.49,4.49,0,0,0,1.33-1.87,5.85,5.85,0,0,1,1-1.75c-.17.1-.16,0-.23-.12.23-.64,1-1.08,1.45-1.71,0-.26-.26-.3-.39-.42s-.16-.3.22-.81c.39,0,.63.71,1.11,0C167.43,120.23,166.76,120.74,166.8,120.26Zm-5.44-3.38-.31.49h0ZM160,118.6c.1-.22.28-.22.38-.08-.18.33-.34.66-.46.92C160,119.07,160.15,118.53,160,118.6Zm.13-5.17s0,0-.07,0c-.19.23-.33.41-.44.56,0-.09-.05-.26.23-.56A.53.53,0,0,1,160.13,113.43Z"/><path class="a" d="M160.74,113.17s.08-.06.12-.12a1.84,1.84,0,0,1-.05.25l-.2,0Z"/><path class="a" d="M149.62,128.82l0,0a.18.18,0,0,0,0,.1S149.61,128.84,149.62,128.82Z"/><polygon class="a" points="153.51 114.8 153.62 114.83 153.48 115.02 153.51 114.8"/><path class="a" d="M146.87,123.05a.28.28,0,0,1-.18.1S146.78,123.09,146.87,123.05Z"/><path class="a" d="M147,120.79l.75-.26A4,4,0,0,1,147,120.79Z"/><path class="a" d="M151.11,119.76a.57.57,0,0,1,.13.16h0Z"/><path class="a" d="M151.26,130.76a.85.85,0,0,1,0,.17C151.09,131.33,151.15,131.05,151.26,130.76Z"/><path class="a" d="M152.74,135.87a6.19,6.19,0,0,0,.41-.59C153.07,135.65,153,135.94,152.74,135.87Z"/><path class="a" d="M161.67,133.17h0l.05-.14Z"/><path class="a" d="M153.43,134.32a2.26,2.26,0,0,1-.28,1A3.64,3.64,0,0,1,153.43,134.32Z"/><path class="a" d="M142,116.54l.19.06a.17.17,0,0,0,0,.07Z"/><path class="a" d="M142.19,116.67l.19.14C142.28,116.77,142.2,116.73,142.19,116.67Z"/><path class="a" d="M142.78,117.08l-.4-.27C142.53,116.87,142.72,116.93,142.78,117.08Z"/><path class="a" d="M143.75,118.44l.05.17A.26.26,0,0,1,143.75,118.44Z"/><path class="a" d="M145.44,118.73a6.13,6.13,0,0,1-1.61,0l0-.13C144,118.87,145.1,118.39,145.44,118.73Z"/><path class="a" d="M153.06,118.81c-.49-.15-1-.28-1.47-.41.31-.07.72-.17.07-.44C153.65,118.14,151.17,118.17,153.06,118.81Z"/><path class="a" d="M151.18,122c.82-.14,0,.24.11.32C150.74,122.31,150.61,122.3,151.18,122Z"/><path class="a" d="M155.84,123h.41C156.08,123.59,156.09,123,155.84,123Z"/><polygon class="a" points="152.52 128.82 152.41 128.19 152.83 127.99 152.52 128.82"/><polygon class="a" points="154.47 133.14 154.59 132.89 154.21 133.87 154.47 133.14"/><path class="a" d="M163.29,126.87c-.1.16-.18.31-.27.47a.91.91,0,0,1-.24-.6C162.8,126.6,163,126.53,163.29,126.87Z"/><path class="a" d="M167.48,138.1a1.34,1.34,0,0,1,0,1.4A12.7,12.7,0,0,1,167.48,138.1Z"/><polygon class="a" points="158.97 109.6 159.28 109.2 158.88 110.01 158.97 109.6"/></svg>
