<svg xmlns="http://www.w3.org/2000/svg" viewBox="0 0 402 246"><defs><style>.a{fill:#fff;}</style></defs><path class="a" d="M136.69,125.87c.09.25.37.75.41.6l-.39-.9Z"/><path class="a" d="M138.13,127.17a7.32,7.32,0,0,0-.84-2c.32.89.11.56.51,1.61,0,.14-.3-.2-.45-.53.08.24-.24-.12,0,.45.46.61.63.56.5-.07A3.49,3.49,0,0,1,138.13,127.17Z"/><path class="a" d="M147.67,124.19l-.1-.08A.22.22,0,0,0,147.67,124.19Z"/><path class="a" d="M153.44,122.14s0,.14,0,.22A.28.28,0,0,0,153.44,122.14Z"/><path class="a" d="M154.83,122.7l-.09,0C154.8,122.74,154.84,122.77,154.83,122.7Z"/><path class="a" d="M147.67,124.19l.28.21C147.83,124.1,147.77,124.22,147.67,124.19Z"/><path class="a" d="M138.29,124.46a.74.74,0,0,0,0,.27,1.3,1.3,0,0,1,0-.13Z"/><path class="a" d="M145.58,126.05l0,0,.13.38Z"/><path class="a" d="M143.79,127.09a7.07,7.07,0,0,0-.43-1.07,1.39,1.39,0,0,1,.16.55C143.59,126.71,143.67,126.88,143.79,127.09Z"/><path class="a" d="M140.21,127.24v.13A.56.56,0,0,0,140.21,127.24Z"/><path class="a" d="M147,125.58c0,.11.11.2.14.26A1.59,1.59,0,0,0,147,125.58Z"/><path class="a" d="M199.69,100.29l0,.14C199.72,100.35,199.71,100.29,199.69,100.29Z"/><path class="a" d="M203,103.7l0,0,.1.46Z"/><path class="a" d="M157,122.92h0C157,123,157,123,157,122.92Z"/><path class="a" d="M172.92,116c-.43-.63,0-1-.57-1.68C172.48,114.6,172.53,115.61,172.92,116Z"/><path class="a" d="M138.38,124.53l.08,0C138.41,124.48,138.39,124.49,138.38,124.53Z"/><path class="a" d="M172.35,114.3h0l-.05-.07Z"/><path class="a" d="M160.81,120.77a2.28,2.28,0,0,0-.18-.32C160.67,120.53,160.72,120.62,160.81,120.77Z"/><path class="a" d="M157.35,120.94l.12.07C157.41,121,157.38,120.94,157.35,120.94Z"/><path class="a" d="M161.93,119c.07,0,.13.15.14,0A.7.7,0,0,0,162,119C162,119.09,162,119.15,161.93,119Z"/><path class="a" d="M163.57,118.39l-.09-.15,0,.07Z"/><path class="a" d="M194.48,102a7.26,7.26,0,0,1,.27.7C194.58,102.16,194.78,101.89,194.48,102Z"/><path class="a" d="M138.5,124.87a1,1,0,0,1-.12-.34l0,.07A1.3,1.3,0,0,0,138.5,124.87Z"/><path class="a" d="M159.55,113h.31A.42.42,0,0,0,159.55,113Z"/><path class="a" d="M182.11,105.72l0-.11S182.1,105.63,182.11,105.72Z"/><path class="a" d="M160.61,112.54a1.86,1.86,0,0,0,.36.48c0-.07,0-.12-.05-.21Z"/><path class="a" d="M194.76,102.73h0Z"/><path class="a" d="M196.09,100.35c-.27.05.14,1.07.24,1.69-.24.38-.35-.74-.6-1.25-.12.33,0,1.33-.18,1.33a1.73,1.73,0,0,1-.12-.45c0,.89-.61.2-.57,1.31a1.3,1.3,0,0,1-.1-.25c.18.52.32,1,.42,1.43-.12,0-.05.73-.27,0,.08,0,0-.28,0-.5l0,.33c-.37-1,.08-.39-.12-1.12-.15.39-.21,1.28-.47,1-.3-1,.34-.44-.13-1.24l.38.3c-.62-1.47.2.06-.43-1.52-.45-.18-.29.6-.74.42.06.56.24.79.3,1.35-.27,1.11-1.08-2.31-1.12-.92.07.67.37,1.9-.09,1.33l-.2-1.11c-.39,0,.22,1.62-.36,1-.05-.44.19-.44.1-.55-.49-.79,0,.66-.2.72l-.3-1c-.35.26-.58,1.08-1,1.37a2,2,0,0,0-.25-.88c-.4.63-1.18.2-1.87-.22l0,.89c-.05,0-.19-.35-.19-.52-.29-.26.14.53.14.88-.1.09-.29-.43-.29-.7-.15.81-.57,1.81-1.21,1v-.26c-.39-.26.17,1.79-.32,1.1v-.17c-.74-.17-1.21.79-2.07-.3.27,1.22-.79-.34-.32,1.33-.61-.71-.6-1-1.28-1.43-.16,0,.12,1.1,0,1.32l-.27-.86.06,1-.45-1-.09.27a1.33,1.33,0,0,1,.33.6c-.13.47-.79-.42-.94-.86l-.35.91a1.77,1.77,0,0,1,0-.75c0,1-.34-.89-.37,0a3.64,3.64,0,0,1,.19.7c-.31-.48-.63-.38-.8-.08l-.15-.61c-.48,0-.81.58-1.3.73a2.25,2.25,0,0,1,.45,1.41l-.35-.9c.09.6.26.3.3,1-.22,0-.46-1-.46-1.33l-.11.39c-.1-.27-.1-.43-.2-.78.1.6-.68-.79-.49.23l-.1-.26c-.49.15-.6.53-1,.71.26.78,0,.66.14,1.33-.37-.15-.9-.66-1.22-.47-.11.47.15.69.2,1.19-.26-.71-.58-.52-.58-1.1-.37.26-.48.33-.81,1.09a1.88,1.88,0,0,1,.32.63c-.05.15-.32-.22-.42-.57v-.08c-.22,1.27-2.09-1.62-2,0v-.08l-.21,1c-.26,0,0-.58-.38-1-.1,1.38-.88.13-1,1.07-1.09-2-1.13.58-2.06-.59l.2.48c.06.52-.24-.23-.37-.31.15.37.29.39.31.69-.76.94-2.28,0-3.46,0-.42,0,.75,2.61-.16,1.62l-.21-1c-.33,1.37-1.53.54-1.89,1.75,0-.22-.15-.5-.08-.52-.41-.6-.57.19-.36.73-.14,0-.22-.48-.4-.72s-.05,1-.39.37a.44.44,0,0,1,0-.29c0,.35-.5.1-.1.82-.42-.26-.39.54-.78.18.2.9-.63-.23-.19,1-.48-1.25-.88-.81-.81-.16-.1-.4-.31-.33-.45-.87-.19.1-.27.4,0,1-1-1.33-.23,1.48-1.21-.32a6.57,6.57,0,0,1-1.05,2.06c-.49-1.23.52-.35,0-1.63-.29.71-.13,1.88-.74,1.78-.2-.12-.15-.56-.2-.79-.28.71-1,.3-1.14,1.15a1,1,0,0,1,0-.37c-.07.07-.27-.1,0,.45l0-.18c.48.74.38,1.83.55,2.26-.54-1.66-.6-.22-1.23-2.33a1.79,1.79,0,0,0,.2.79c-.13-.07-.25-.28-.34-.73-.18.43.18,1-.1,1.08-.11-.27-.1-.4-.21-.73.08.59.17,1.17-.16,1-.06-.16-.18-.36-.1-.39-.37.26-.08,1.69-.74,1.37-.38-1.22-.32-.31-.79-1.31l-.1.4.31.45c-.21.07-.07.89-.4.64l0-.48-.3.36.39.28c0,.61.59,1.26.19,1.11,0-.13-.21.08-.58-.47h0c0,.37.08.75-.18.57s-.46-1.13-.58-1.33c.27.89-.38.45-.11,1.4a4.49,4.49,0,0,0-.35-.86l.23.72a1.38,1.38,0,0,1-.43-.7c-.35,0,.66,1.23.07.84,0-.07,0-.17,0-.29-.47-.14-.47.72-.93.53-.55-1,.16-.37-.33-1.17-.38.38-.39,1.63-.93,1.6l.13.07c.59,1.44-.65-.55-.56.22a2.69,2.69,0,0,0-.23-.65c-.41-.09-.45.63-.7,1.28l-.11-.38c-.33-.25-.55,0-.82,0,.12.39,0,.38.3.88-1.57-1.79-.59,1.62-1.93.15.06,0,0-.38,0-.36l-.28.55a3.49,3.49,0,0,0,.56.77c.12.39.13.73,0,.79a2.33,2.33,0,0,0-.72-1.29c.1.18.17.4.27.59-.75-1,.56,1.25-.11.67l-.14-.33c0,.22.06.7-.11.67-.39-.68,0-.39-.31-1-.16.13.31,1.51-.2.88,0-.23.09-.29.07-.52-.58-.74-.5-.52-.69-.59h0L142,123l.18.19c.68,2-.29.56,0,1.91-.27-1.29-.28-.69-.65-1.5a1.85,1.85,0,0,1-.5-.62c.18.72-.49-.39-.22.65-.14-.25-.17,0-.45-.61-.09.29.26.42.4.75.16,1-1.19-.73-1,.68-.1.67.27,1.57.16,2.16a2.08,2.08,0,0,1-.38-1c-.37-.29-.46-.15-.48.23a2.41,2.41,0,0,0-.41-.68c-.1.14.39,1,0,.69a10.07,10.07,0,0,1-.39-1.09c0,.31.05.87,0,1.18a2.83,2.83,0,0,1-.34-1,1.67,1.67,0,0,0,0,1.38l.24.19c-.05.07-.34-.58-.36-.74-.12-.63.35.13.49.39l0,.22c.88,1.44.34-.48.62-.51l.45,1.14-.22-1a2.48,2.48,0,0,1,.51,1.07c.44.46,0-.46.39.07a.29.29,0,0,1,.09.19v-.41c.09.25.42.76.24.65.61.49.05-1,.58-.28v.08c.22-.57-.36-.82-.53-1.92l1.19,1.88-.36-.82c.06,0,.17,0,.31.35-.12-.63-.2-.33-.37-.9.57.63.39-.62,1.07.64-.23-.64-.43-.37-.42-.91.74,1.36.13-.35.63.19.29.74-.07.45.43,1-.48-1.26.49.09.53-.22-.47-1,.14-.56.24-1,.14.33.75.29,1.16.52l.07.16c-.42-1-.09-.93,0-1.22a3.33,3.33,0,0,1,.38,1.14l.17-.09a1,1,0,0,1-.08-.68l.31.75c.2-.15,0-1.09.57-.74-.31-.69-1.14-1.78-1-2.38a4.72,4.72,0,0,1,.48,1.17c0-.06-.05-.35.08-.22l.17.68c.27.21-.17-.55,0-.54.25.52.26.34.44.76,0,.06-.2-.17-.14,0a1.51,1.51,0,0,1,.7.66c-.15-.3-.34-.71-.28-.82s.38.6.64.8c-.12-.39.2-.08-.16-.87.07,0,.25.34.38.54,0-.4.5-.36,0-1.13l-.06,0s0,0,0,0h0c0-1,1,.07,1.25-.45l.12.27c.09-.41.43-.42.33-1.06.07,0,.39.4.5.73.09-.28,0-.59.42-.27,0,.54.25.38,0,.42.33.13.58.53.49-.31.23.72.56.78.58.53l-.38-.41c.08-.16.21-.15.35-.14l.34.92c1,.88,0-2.23,1.19-.57-.15-.68-.45-.32-.67-1.11.27,0,1.07,1.21,1.14,1.18.52.37-.31-1.43.15-1.23a3,3,0,0,1-.49-1.54c.27,0,.86,1.22.83,1.54,0,0-.11,0-.15-.15a.71.71,0,0,0,.19.63l-.12-.33c.25.28.54.11.7.66a.63.63,0,0,0-.36-.66c.48.34.44-.18.86,0-.12-.15-.33-.51-.28-.53.6.22-.08-.68.15-.95.37.42.45,1.19.56.66a2,2,0,0,1,.45,1.13c0-.73.66.19.86.24l0,.32c0-.19.09-.21.16-.24l-.36-.61c.13.08.2,0,.31.32a13,13,0,0,1-.6-1.69c.24.28.17-.49.58.35-.47-.15.4.84.18,1.1,0-.13.08-.15.21-.08a.52.52,0,0,1,.06.24c.65.63-.27-1,.08-1.15.16.5.47.88.48.75-.14,0-.41-.77-.44-1.19.37.28.11-.38.24-.39l-.2-.12c-.16-.5,0-.48.06-.7.17.37,0,.32.1.46-.2-.92.75.71.74,0,.24.28.39.9.58,1.08,0-.73.56.55.62-.08a1.69,1.69,0,0,1-.37-1.17l-.27.65-.1-1.07c-.14,0-.12.53-.25.46a1.48,1.48,0,0,0-.32-.93c.6.89.14-.72.63-.16l.66,1.61c.63.58.24-1.06.83-.83l-.25-.23c-.21-.66.22-.19.25-.51a4.62,4.62,0,0,0,.57,1c-.17-.39.33-.09-.07-1.18l.47.63c.46.15-.23-1.69.17-1.64.14.62.45.94.4,1.45.11,0,.25,0,.1-.35.2.31,0-.86.31-.39,0-.25-.26-.82-.12-.83a1.81,1.81,0,0,1,.11.27c-.11-.27.05-.44-.3-1,1,1.55.9-.5,1.78.83a2.42,2.42,0,0,1,.59-.69c.05.17.11.27.05.23.5.39-.43-1.62.14-1.2.52.81,0,.55.24.84.75,1.76.32-.41,1,.54l0,.12c.41.54.17-.84.51-.83a1.37,1.37,0,0,0,.1.27,2.41,2.41,0,0,1,.29-1.79,2.92,2.92,0,0,0,.34,1.11c.09-.15-.48-1.13-.3-1.42a6,6,0,0,1,.85,1.36l-.22.13c.5.94.29-.14.48,0l.15.43c.31-.27-.1-1.35.32-1.42l-.16-.31c-.2-1.16.4.53.31-.35l.48,1.07a5.79,5.79,0,0,1,.27-1.54,7.83,7.83,0,0,1,0,1.93c.14,0,.44-.25.31-.82,0,.13,0,.42-.11.27-.15-.92-.08-1.42.21-1.51.73,2.13.92.26,1.72,1.83.21-1,1.1,0,1.62-.34-.8-1.58.15-.11-.49-1.79.09-.16.15-.15.2,0l.77.86c.27.46,0,.42.16.8.34,0,.38.67.73,1.05-.26-.59-.21-.9,0-.73l-.51-.7c.08-1,.85,1.3.95.26l.06.58c.09-.39.77-.27.5-1.7a1.62,1.62,0,0,1,.27.78c.58,0,.62-1.84,1.31-1.13l.1.43c.05-.15-.1-.84.16-.46.05.17.1.43.15.44,0-.16,0-.82.21-.62l.06.51c.67.37.36-1.41.68-1.83.42,1.23.94,1.49,1.2,1.63l0,.17c.63,0,.64-1.34,1-2,.77,1.23,1.31.2,2.08.77a2.23,2.23,0,0,1-.24-1.12c.2.21.07-1,.41.17h-.05c.45,1.08.61.69.82.66l-.43-1.49c1.21,2,1.14-1.22,2,.62,0-.41.17-.45.18-.86l.24.8a.9.9,0,0,0,1-.19l.08.6c.26,0-.39-2.4-.17-2.51l.43,1.17c.42-.16,1.17.76,1.27-.44,0,.17.14.52.08.59.22,0,1,.58.47-1,.32,1.07.47,0,.57-.56l.19.8c-.09-1.07-.17-1.34,0-1.7.09.08.24.61.09.43.34.35,0-.79.34-.45l.05.53c.24,0,.14-.27.1-.89.05-.36.48.07.72.78-.1-.45-.14-1.06.05-.9a1.44,1.44,0,0,1,.1.54c.52.42.29-1.08.77-.37a2.14,2.14,0,0,0,.18.45c-.31.07-.56.09-.55,0a6,6,0,0,1,.58,1.84c0-.6,0-1.88.36-1.6a2.21,2.21,0,0,1,.1.24v.09c.07.06.1,0,.11-.16.11.1.18.17.26.17.19.59.36.24.49.24-.23-.79,0-.71-.37-1.33,0,0,0,.1-.06.16a.15.15,0,0,0,0,.1v-.08a2,2,0,0,1-.29.14c0-.43,0-.8.25-.39-.08-.53-.16-1.07-.19-1.34.47,1.07,1,1.58,1.19,2.26.24-.55.78-.54.6-2.1,0-.22.24.4.34.62s-.1.17-.07.39c.1-.44.58-.32.35-1.38.39.4.11,1,.42.73l0,.34c1.16,1.49.45-3,1.81-1a1.21,1.21,0,0,1-.19-.34c1.15.72,1.64-1.39,2.92-.1.33.25.19-.43.22-1l.27.85,0-1.06c.2-.83,1.17,2,1.31.46l-.2-.57c.19.07.46-.47.59.2,0-.11-.09-.62.05-.33l.11.45.24-.88c.4.25.38,1.81.87,1.79a3.72,3.72,0,0,0,.06-1.73c-.08,0-.25-.24-.37-.69l.11-.28a9.82,9.82,0,0,0-1.1-3.57l-.09.89-.25-.63.23-.1c-.28-.57-.24,0-.24.38a2.68,2.68,0,0,0-.29-.69l0,1.35c-.16-.52-.13-1.07-.38-1.31,0,.62.4,1.14.28,1.58-.28-.58-.36-1.08-.39-.52a1.54,1.54,0,0,1-.1-.73c0,.44-.33.26-.23,1-.32-.72-.43.31-.72-1a2.66,2.66,0,0,1-.12,1.14c-.14-1.57-.51,0-.85-1.61.16,1.4-.48.76-.6,1.59,0-.11,0-.34,0-.28-.2-.07-.35-.46-.53-.69a7.26,7.26,0,0,1,.08,2.18c-.48-1-.2-1.35-.53-2.37.24.91-.14,1,.12,1.74a4.65,4.65,0,0,1-.54-1.19c.33,1.4-.09.27,0,1.17-.41-.63-.39-1.3-.54-.81A1.52,1.52,0,0,1,196.09,100.35Zm-5.5,4.07v0l.12-.08A.44.44,0,0,0,190.59,104.42Zm-.51.15a.47.47,0,0,0,.23,0c.09.27.16.56.1.56C190.39,104.91,190.22,104.78,190.08,104.57Zm2.62,5.22c0,.14-.11,0-.17-.17a.38.38,0,0,0,.11-.13l0-.1A2.8,2.8,0,0,1,192.7,109.79Z"/><path class="a" d="M192.56,108.71s0-.06,0-.07l-.09-.16,0,.25Z"/><path class="a" d="M147.55,124.1h0a.44.44,0,0,1-.08-.1Z"/><polygon class="a" points="182.56 105.16 182.62 105.36 182.61 105.17 182.56 105.16"/><path class="a" d="M143.7,122.78a1.09,1.09,0,0,0-.13-.17A.59.59,0,0,0,143.7,122.78Z"/><path class="a" d="M142.48,123.17l-.29-.19A1,1,0,0,0,142.48,123.17Z"/><path class="a" d="M141.42,123.23l.14.32h0Z"/><path class="a" d="M155.12,115.88a.08.08,0,0,0,0,0C155.16,115.64,155.13,115.73,155.12,115.88Z"/><path class="a" d="M151.67,119.49a2.23,2.23,0,0,1,0-.42C151.54,119.05,151.48,119.06,151.67,119.49Z"/><path class="a" d="M159.51,113h0Z"/><path class="a" d="M151.84,119c-.14-.12-.19-.06-.2.07S151.83,119.14,151.84,119Z"/><path class="a" d="M137.47,124.78h-.05l.05.12Z"/><path class="a" d="M137.47,124.89V125S137.51,125,137.47,124.89Z"/><path class="a" d="M137.47,125.24V125S137.38,125,137.47,125.24Z"/><path class="a" d="M138.8,124.54l-.12-.27Z"/><path class="a" d="M139.11,124.29c-.11,0-.5-.47-.53-.24l.1.22C138.53,123.84,139.26,124.78,139.11,124.29Z"/><path class="a" d="M142.22,126.87l-.4-.07c.19.26.45.62.35.75C143,128.22,141.78,127,142.22,126.87Z"/><path class="a" d="M143.33,126.85c-.09.21.2.42.27.58C143.58,127.12,143.57,127,143.33,126.85Z"/><path class="a" d="M149.88,123.74l.3.69C150.25,124.27,150.06,124.16,149.88,123.74Z"/><polygon class="a" points="149.53 119.62 149.22 119.25 149.45 119.9 149.53 119.62"/><polygon class="a" points="152.5 124.17 152.49 124.29 152.58 123.95 152.5 124.17"/><path class="a" d="M163.55,119.18l-.38-.84C163.15,118.52,163.52,119.5,163.55,119.18Z"/><path class="a" d="M168.1,116.4c.22.41.46.64.38.18C168.35,116.56,168.11,116.27,168.1,116.4Z"/><polygon class="a" points="183.44 112.67 183.44 113 183.55 112.69 183.44 112.67"/><path class="a" d="M163.26,167.48c.2.16.7.43.66.28l-.8-.55Z"/><path class="a" d="M165.17,167.81a7.09,7.09,0,0,0-1.79-1.28c.74.58.39.41,1.28,1.09.05.14-.36,0-.66-.21.2.16-.27,0,.23.38.72.27.83.15.39-.32A3.22,3.22,0,0,1,165.17,167.81Z"/><path class="a" d="M171.85,160.54l-.13,0A.23.23,0,0,0,171.85,160.54Z"/><path class="a" d="M176,156.14c0,.05.05.13.12.19A.35.35,0,0,0,176,156.14Z"/><path class="a" d="M177.44,156.05a.27.27,0,0,0-.09,0C177.44,156.09,177.49,156.1,177.44,156.05Z"/><path class="a" d="M171.85,160.54l.34.05C172,160.39,172,160.52,171.85,160.54Z"/><path class="a" d="M163.88,165.43a.8.8,0,0,0,.17.21.38.38,0,0,1,0-.13Z"/><path class="a" d="M170.94,163.13l0,0,.3.26Z"/><path class="a" d="M169.94,164.88a8.54,8.54,0,0,0-.92-.71,1.55,1.55,0,0,1,.42.4C169.57,164.66,169.73,164.76,169.94,164.88Z"/><path class="a" d="M167,166.79l.06.11A.6.6,0,0,0,167,166.79Z"/><path class="a" d="M171.92,162.06l.25.16Z"/><path class="a" d="M206.76,116.33l.1.1A.41.41,0,0,0,206.76,116.33Z"/><path class="a" d="M211.38,117.36l0,.06.33.31Z"/><path class="a" d="M179.46,155.33h0C179.48,155.42,179.49,155.39,179.46,155.33Z"/><path class="a" d="M190.81,142.47c-.66-.39-.44-.9-1.22-1.28C189.83,141.4,190.3,142.3,190.81,142.47Z"/><path class="a" d="M164,165.44a.2.2,0,0,1,0-.08S164,165.4,164,165.44Z"/><path class="a" d="M189.59,141.19h0l-.07,0Z"/><path class="a" d="M181.93,151.8l-.3-.21A1.6,1.6,0,0,0,181.93,151.8Z"/><path class="a" d="M178.91,153.4H179A.2.2,0,0,0,178.91,153.4Z"/><path class="a" d="M182.19,149.78c.07,0,.17.08.13,0l-.09-.06C182.3,149.77,182.32,149.83,182.19,149.78Z"/><path class="a" d="M183.38,148.51l-.14-.09v.07Z"/><path class="a" d="M203.42,120.43a7.34,7.34,0,0,1,.59.46C203.57,120.5,203.59,120.17,203.42,120.43Z"/><path class="a" d="M164.28,165.67a1,1,0,0,1-.28-.23.2.2,0,0,0,0,.07A1.7,1.7,0,0,0,164.28,165.67Z"/><path class="a" d="M177.46,145.28l.28-.13A.37.37,0,0,0,177.46,145.28Z"/><path class="a" d="M194.58,129.34l0-.12S194.53,129.26,194.58,129.34Z"/><path class="a" d="M178.24,144.45a2.11,2.11,0,0,0,.53.28,1.53,1.53,0,0,0-.14-.17Z"/><path class="a" d="M204,120.89Z"/><path class="a" d="M203.86,118.22c-.2.17.68.82,1.09,1.3,0,.44-.67-.45-1.15-.76.07.34.69,1.14.56,1.22a1.77,1.77,0,0,1-.35-.33c.48.75-.39.48.22,1.41l-.22-.17c.42.35.82.74,1.1,1-.07.09.34.63-.2.17.06,0-.14-.24-.27-.42l.13.3c-.81-.63-.13-.37-.68-.89.08.4.48,1.2.15,1.13-.74-.67.06-.55-.75-1l.47.06c-1.28-.94.2,0-1.14-1.08-.47.06.07.66-.4.72.34.45.6.56.94,1,.33,1.08-2.09-1.47-1.42-.26.41.54,1.28,1.46.6,1.19l-.73-.86c-.34.18,1,1.29.19,1-.26-.37-.06-.47-.19-.53-.81-.45.33.58.19.71l-.74-.67c-.16.38.05,1.2-.13,1.63a2.17,2.17,0,0,0-.64-.64c0,.74-.91.73-1.7.68l.46.75s-.34-.22-.42-.37c-.37-.09.38.4.55.71,0,.12-.46-.25-.59-.48.26.77.37,1.84-.55,1.45l-.13-.24c-.46,0,1,1.5.24,1.12l-.07-.14c-.72.18-.68,1.25-1.94.66.8,1-.85,0,.33,1.32-.86-.36-1-.66-1.78-.71-.16,0,.61.92.61,1.17l-.64-.65.5.85-.85-.7.05.28a1.52,1.52,0,0,1,.56.39c.1.48-.88,0-1.21-.35l.1,1a2,2,0,0,1-.36-.65c.42.89-.71-.65-.33.17a3.07,3.07,0,0,1,.49.54c-.49-.3-.73-.07-.75.27l-.4-.49c-.43.2-.46.87-.83,1.21.33.08,1.06.89,1,1.07l-.71-.65c.34.49.36.15.72.81-.21.05-.84-.7-1-1l.07.4a7.64,7.64,0,0,1-.52-.62c.34.5-.95-.42-.33.42l-.21-.2c-.36.34-.29.74-.55,1.05.57.6.33.58.7,1.15-.39,0-1.08-.22-1.29.08.1.47.43.55.69,1-.54-.53-.74-.23-1-.75a1.76,1.76,0,0,0-.25,1.31,1.93,1.93,0,0,1,.55.44c0,.16-.38-.07-.62-.34l0-.07c.35,1.23-2.55-.59-1.8.88l0-.08.21.94c-.25.07-.29-.5-.74-.71.49,1.28-.75.48-.48,1.39-1.81-1.34-.77,1-2.11.31l.39.35c.27.45-.32-.11-.47-.13.3.28.43.24.58.5-.29,1.16-2,1-3.14,1.4-.38.18,1.77,2.06.54,1.53l-.6-.78c.28,1.37-1.16,1.12-1,2.37-.13-.19-.34-.39-.28-.45-.62-.37-.44.42,0,.82-.13,0-.39-.34-.66-.49s.37.92-.2.5a.52.52,0,0,1-.15-.25c.17.31-.41.3.25.78-.48-.05-.11.65-.62.49.56.73-.67.06.24,1-1-.92-1.14-.36-.8.2-.25-.32-.41-.17-.77-.6-.13.17-.08.48.45.92-1.43-.8.42,1.44-1.23.22a6.84,6.84,0,0,1-.07,2.31c-1-.9.32-.54-.73-1.46,0,.76.69,1.75.1,1.92-.23,0-.38-.44-.52-.62.05.75-.77.69-.53,1.53a.81.81,0,0,1-.21-.32c0,.1-.29,0,.17.43l-.06-.18c.75.47,1.14,1.48,1.48,1.8-1.21-1.25-.63.06-2.12-1.56a1.68,1.68,0,0,0,.52.62c-.14,0-.34-.14-.63-.51,0,.47.6.8.39,1a7.45,7.45,0,0,1-.51-.56c.33.49.67,1,.31,1-.12-.13-.31-.26-.26-.31-.22.39.67,1.54-.06,1.55-.88-.92-.43-.15-1.29-.83l.09.41.47.26c-.16.16.34.83-.06.75l-.25-.42-.1.46.47.08c.29.54,1.09.87.66.91,0-.12-.15.16-.72-.16h0c.2.31.41.63.1.58s-.92-.79-1.12-.91c.64.66-.14.57.54,1.29a5.7,5.7,0,0,0-.7-.61l.52.54a1.45,1.45,0,0,1-.7-.43c-.3.16,1.15.8.45.71a1.54,1.54,0,0,1-.17-.24c-.48.1-.09.86-.59.9-.93-.6,0-.4-.83-.89-.16.51.4,1.62-.09,1.85h.15c1.2,1-.82-.18-.39.46a2.65,2.65,0,0,0-.51-.47c-.4.11-.1.78,0,1.47l-.29-.29c-.4-.06-.47.28-.74.34.29.29.16.35.68.64-2.23-.82.24,1.68-1.62,1.06,0-.06-.19-.34-.22-.3l0,.62a3.39,3.39,0,0,0,.87.4c.29.29.47.58.4.68-.24-.44-.89-.63-1.26-.77.18.11.35.27.53.38-1.13-.48,1.1.82.24.64l-.29-.22c.08.21.4.58.24.63-.68-.39-.22-.32-.75-.69-.08.19,1,1.16.26.86-.13-.19-.07-.29-.2-.48-.87-.36-.69-.21-.89-.17h0l-.53,0,.25.07c1.56,1.35,0,.63,1,1.64-.88-1-.58-.45-1.31-1a1.83,1.83,0,0,1-.75-.28c.51.53-.62-.09.13.67-.24-.15-.12.12-.7-.3.07.3.45.23.74.45.64.78-1.4,0-.51,1.1.26.63,1,1.2,1.27,1.76a2,2,0,0,1-.84-.63c-.46-.06-.47.11-.29.44a2.41,2.41,0,0,0-.7-.36c0,.16.84.63.38.57a9,9,0,0,1-.91-.72c.13.29.5.71.62,1a2.76,2.76,0,0,1-.83-.71,1.65,1.65,0,0,0,.75,1.15l.31,0c0,.09-.6-.31-.7-.43-.44-.47.37-.08.62.06l.1.21c1.51.75,0-.58.26-.76l1,.73-.72-.75a2.47,2.47,0,0,1,1,.65c.61.16-.29-.37.37-.15a.46.46,0,0,1,.18.12l-.22-.35c.2.17.75.43.54.43.77.11-.51-.92.34-.53l.05.06c-.11-.6-.74-.52-1.45-1.37l2,1-.74-.52c.06,0,.16-.06.45.15-.42-.48-.34-.19-.78-.59.8.25,0-.72,1.24,0-.52-.44-.56-.11-.82-.57,1.33.79-.07-.37.64-.15.63.49.17.42.87.64-1.05-.84.47-.16.35-.44-.89-.6-.17-.55-.3-1,.29.22.79-.11,1.25-.11l.15.11c-.86-.65-.54-.77-.61-1.06a3.5,3.5,0,0,1,.89.81l.1-.16c-.26-.23-.38-.38-.41-.55l.63.5c.11-.23-.5-1,.13-.91-.6-.45-1.86-1-2.06-1.58a4.28,4.28,0,0,1,1,.79s-.21-.28,0-.23l.47.51c.33.06-.42-.39-.3-.45.47.34.39.17.76.46,0,0-.26-.06-.1.11a1.5,1.5,0,0,1,.92.24c-.27-.18-.63-.46-.63-.58s.61.35.94.41c-.29-.29.14-.17-.56-.69.05,0,.39.18.59.29-.23-.32.27-.54-.56-1h-.07l0,0h0c-.44-.86.92-.41.88-1l.23.18c-.12-.4.17-.57-.22-1.09.05-.06.53.18.78.42-.05-.29-.3-.51.25-.43.28.46.4.23.17.38.35,0,.75.21.3-.49.52.53.85.44.75.21l-.53-.2c0-.17.12-.22.25-.27l.73.66c1.24.35-1-2,.78-1-.45-.54-.55-.09-1.1-.69.25-.1,1.49.6,1.54.54.62.1-.92-1.13-.43-1.16-.29-.18-1-.74-1.13-1.15.24-.1,1.31.71,1.43,1,0,.06-.11,0-.2-.06a.72.72,0,0,0,.45.48l-.25-.25c.35.14.52-.13.91.29a.65.65,0,0,0-.61-.44c.57.1.3-.35.76-.36-.18-.09-.52-.32-.49-.35.63-.07-.37-.58-.29-.91.52.21.93.87.79.35.4.09.73.57.9.8-.33-.64.68-.1.87-.14l.12.29c-.07-.17,0-.22,0-.28l-.58-.39c.15,0,.2,0,.42.15-.29-.36-.93-.7-1.29-1.24.34.14-.06-.52.67.06-.48.07.73.57.64.9,0-.11,0-.16.16-.15a.64.64,0,0,1,.16.19c.85.28-.69-.81-.44-1.07.36.38.8.59.76.47-.11.11-.71-.51-.92-.88.45.09-.07-.39,0-.45l-.24,0c-.36-.38-.23-.42-.25-.65.32.25.12.29.29.37-.57-.75,1,.32.67-.28.34.15.75.64,1,.73-.32-.66.74.25.52-.34-.58-.4-.46-.28-.84-.89l0,.69-.56-.91c-.1.1.13.52,0,.51a1.51,1.51,0,0,0-.69-.7c.92.55-.19-.71.5-.4l1.29,1.16c.8.26-.25-1,.37-1.09l-.32-.1c-.47-.51.12-.27,0-.56a4.44,4.44,0,0,0,.95.67c-.32-.29.25-.22-.58-1l.7.37c.48-.06-.94-1.43-.55-1.56.39.51.8.67,1,1.15.08-.08.23-.09-.06-.36.31.2-.36-.77.12-.48-.15-.21-.59-.64-.46-.7a2.25,2.25,0,0,1,.21.2c-.21-.2-.15-.42-.7-.78,1.58,1,.61-.82,2,0a2.3,2.3,0,0,1,.24-.87c.12.13.21.2.14.19.61.14-1.07-1.3-.38-1.14.81.51.23.49.57.65,1.41,1.29.11-.5,1.09.1l0,.12c.6.31-.21-.84.1-1a1.87,1.87,0,0,0,.21.21,2.48,2.48,0,0,1-.49-1.74c.47.58.19.37.77.86,0-.17-.9-.83-.87-1.16a5.91,5.91,0,0,1,1.35.89l-.15.2c.84.65.2-.25.43-.22l.31.34c.16-.38-.66-1.19-.31-1.43l-.28-.21c-.65-1,.6.31.15-.44l.87.76a6.39,6.39,0,0,1-.4-1.5,7.75,7.75,0,0,1,.83,1.74c.11-.09.29-.41-.06-.87,0,.12.18.37,0,.29-.53-.77-.68-1.26-.45-1.45,1.55,1.62.94-.15,2.32.94-.21-1,1-.47,1.32-1-1.38-1.1.09-.16-1.2-1.42,0-.18.08-.2.17-.12l1.06.46c.44.31.18.38.48.66.31-.12.62.45,1.1.65-.48-.43-.57-.73-.27-.68l-.76-.42c-.36-1,1.33.82,1-.16l.3.5c-.08-.4.59-.57-.26-1.76.17.13.55.44.57.6.54-.21-.22-1.93.7-1.58l.28.34c0-.16-.45-.71-.06-.48.13.14.28.34.33.33s-.34-.74-.07-.64l.26.43c.78.05-.26-1.42-.16-1.94a2.38,2.38,0,0,0,1.78.95l.12.14c.55-.31,0-1.49.05-2.25,1.23.77,1.26-.4,2.22-.22a2.27,2.27,0,0,1-.71-.9c.27.1-.36-.9.45,0l-.05,0c.88.77.86.35,1,.23l-1.05-1.14c2,1.24.46-1.61,2.09-.37-.17-.37,0-.48-.23-.86l.58.61c.42-.11.62-.16.81-.63l.35.5c.22-.14-1.44-2-1.3-2.15l.92.84c.31-.33,1.4.13.93-1,.12.13.37.4.35.49.17-.13,1.18,0-.07-1.15.78.79.41-.25.24-.77l.55.61c-.59-.89-.79-1.1-.79-1.51.13,0,.51.43.3.34.46.15-.42-.67.08-.56l.29.45c.22-.12,0-.31-.33-.83-.13-.34.46-.17,1,.34-.3-.35-.63-.87-.38-.81a1.86,1.86,0,0,1,.34.42c.67.12-.26-1.09.49-.7a2.8,2.8,0,0,0,.38.31c-.23.21-.44.35-.47.29.54.54.81.46,1.4,1.34-.26-.55-.89-1.67-.46-1.6l.21.17,0,.08c.09,0,.08-.08,0-.2.14,0,.25.06.31,0,.46.42.44,0,.55,0-.59-.58-.38-.6-1-1,.06,0,.06.08,0,.17a.26.26,0,0,0,0,.1l0-.06a2.08,2.08,0,0,1-.18.26c-.23-.37-.4-.69,0-.47l-.82-1.06c.93.69,1.61.9,2.15,1.36-.06-.6.42-.85-.52-2.12-.06-.21.41.23.61.37s0,.19.13.37c-.13-.43.35-.57-.39-1.36.54.15.61.81.75.41l.2.27c1.76.68-1.15-2.8,1-1.84a1,1,0,0,1-.34-.2c1.36,0,.68-2,2.44-1.63.41,0-.08-.47-.35-1l.68.56-.56-.9c-.29-.79,2.06,1,1.35-.34l-.48-.36c.2,0,.12-.65.61-.16-.07-.09-.42-.46-.14-.3l.34.31-.29-.86c.48,0,1.33,1.28,1.73,1a3.41,3.41,0,0,0-.93-1.45c-.06,0-.34-.06-.69-.37l-.06-.28a10.4,10.4,0,0,0-2.94-2.32l.43.77-.55-.39.12-.2c-.55-.32-.2.12,0,.44a3,3,0,0,0-.62-.41l.78,1.09c-.42-.34-.7-.81-1-.88.37.51,1,.72,1.13,1.15-.55-.32-.9-.69-.62-.22a1.85,1.85,0,0,1-.49-.55c.22.39-.12.39.37.94-.66-.42-.17.48-1.12-.41a2.79,2.79,0,0,1,.54,1c-1-1.23-.4.29-1.57-.89.9,1.08,0,.88.38,1.63-.07-.08-.21-.26-.14-.23-.2,0-.54-.21-.81-.31a7.24,7.24,0,0,1,1.25,1.78c-1-.61-.9-1-1.72-1.71.69.63.42.9,1,1.39a4.45,4.45,0,0,1-1.09-.73c1,1,.07.28.61,1-.67-.32-1-.89-.88-.4A1.66,1.66,0,0,1,203.86,118.22Zm-2.53,6.14h0l.06-.13A.53.53,0,0,0,201.33,124.36Zm-.36.38a.4.4,0,0,0,.18-.14c.22.19.41.41.36.44C201.4,124.88,201.2,124.85,201,124.74Zm4.84,3.27c0,.14-.12.05-.24-.06a.59.59,0,0,0,0-.18l-.07-.08C205.64,127.81,205.74,127.92,205.81,128Z"/><path class="a" d="M205.14,127.14s0,0,0-.07L205,127l.16.21Z"/><path class="a" d="M171.7,160.52h0l-.11-.05Z"/><polygon class="a" points="194.72 128.64 194.86 128.79 194.77 128.63 194.72 128.64"/><path class="a" d="M167.7,161.2a.77.77,0,0,0-.19-.08A.9.9,0,0,0,167.7,161.2Z"/><path class="a" d="M166.84,162.15l-.35,0A1.15,1.15,0,0,0,166.84,162.15Z"/><path class="a" d="M165.94,162.73l.29.21h0Z"/><path class="a" d="M174.7,149.8a0,0,0,0,0,0-.05C174.63,149.58,174.64,149.66,174.7,149.8Z"/><path class="a" d="M173.2,154.57a2.49,2.49,0,0,1-.21-.36C172.89,154.23,172.83,154.27,173.2,154.57Z"/><path class="a" d="M177.43,145.29h0s0,0,0,0Z"/><path class="a" d="M173.13,154.05c-.18,0-.19,0-.14.16C173.07,154.19,173.19,154.18,173.13,154.05Z"/><path class="a" d="M163.35,166.14l0,0,.11.07Z"/><path class="a" d="M163.41,166.23l.06.1S163.48,166.28,163.41,166.23Z"/><path class="a" d="M163.59,166.53l-.12-.2S163.4,166.39,163.59,166.53Z"/><path class="a" d="M164.36,165.22l-.25-.17A2,2,0,0,0,164.36,165.22Z"/><path class="a" d="M164.49,164.84c-.1,0-.66-.14-.57.08l.19.13C163.77,164.76,164.88,165.18,164.49,164.84Z"/><path class="a" d="M168.47,165.46l-.37.14c.3.12.7.3.69.46C169.8,166.24,168.14,165.74,168.47,165.46Z"/><path class="a" d="M169.42,164.9c0,.22.38.26.53.36C169.77,165,169.72,165,169.42,164.9Z"/><path class="a" d="M173.56,159.13l.58.47C174.14,159.43,173.91,159.42,173.56,159.13Z"/><polygon class="a" points="171.36 155.65 170.91 155.46 171.41 155.94 171.36 155.65"/><polygon class="a" points="176.06 158.36 176.11 158.47 176.03 158.13 176.06 158.36"/><path class="a" d="M183.7,149.24l-.7-.61C183.06,148.81,183.8,149.54,183.7,149.24Z"/><path class="a" d="M186.63,144.85c.37.28.69.39.42,0C186.93,144.89,186.59,144.72,186.63,144.85Z"/><polygon class="a" points="198.89 134.95 199.03 135.25 198.99 134.93 198.89 134.95"/><path class="a" d="M220.78,134.79c-.2-.16-.69-.45-.65-.31l.79.57Z"/><path class="a" d="M218.92,134.35a7.64,7.64,0,0,0,1.78,1.31c-.74-.59-.39-.4-1.28-1.09,0-.14.35,0,.65.23-.2-.16.26,0-.24-.37-.7-.3-.8-.19-.36.27A3.24,3.24,0,0,1,218.92,134.35Z"/><path class="a" d="M212.88,141.18H213A.2.2,0,0,0,212.88,141.18Z"/><path class="a" d="M209.56,145.72c0-.05-.08-.12-.15-.16A.33.33,0,0,0,209.56,145.72Z"/><path class="a" d="M208.15,146l.08,0C208.14,146,208.09,146,208.15,146Z"/><path class="a" d="M212.88,141.18l-.34,0C212.81,141.33,212.79,141.21,212.88,141.18Z"/><path class="a" d="M220.25,136.65a.66.66,0,0,0-.17-.2.61.61,0,0,1,0,.12Z"/><path class="a" d="M213.5,138.67l0,0-.31-.24Z"/><path class="a" d="M214.37,137a10.29,10.29,0,0,0,.94.67,1.58,1.58,0,0,1-.43-.38C214.74,137.19,214.58,137.1,214.37,137Z"/><path class="a" d="M217.19,135.22l-.07-.1A.61.61,0,0,0,217.19,135.22Z"/><path class="a" d="M212.64,139.73l-.27-.14Z"/><path class="a" d="M199.3,190.8l-.14,0C199.24,190.79,199.29,190.81,199.3,190.8Z"/><path class="a" d="M194.68,191.6l0,0-.43-.17Z"/><path class="a" d="M206.35,147h0C206.31,146.94,206.31,147,206.35,147Z"/><path class="a" d="M199.65,162c.75.11.76.64,1.63.69C201,162.61,200.18,162,199.65,162Z"/><path class="a" d="M220.14,136.63s0,.06,0,.07S220.15,136.67,220.14,136.63Z"/><path class="a" d="M201.28,162.7h0Z"/><path class="a" d="M204.82,150.85l.33.14A2.47,2.47,0,0,0,204.82,150.85Z"/><path class="a" d="M207.3,148.75h-.13A.21.21,0,0,0,207.3,148.75Z"/><path class="a" d="M205.11,152.79c-.08,0-.18,0-.11.07l.1,0C205,152.82,205,152.77,205.11,152.79Z"/><path class="a" d="M204.37,154.26l.16.05v-.07Z"/><path class="a" d="M200.26,185.66l-.74-.09C200.1,185.67,200.25,186,200.26,185.66Z"/><path class="a" d="M219.86,136.4a1.45,1.45,0,0,1,.28.23s0,0,0-.06A1.88,1.88,0,0,0,219.86,136.4Z"/><path class="a" d="M210.87,155.86l-.22.16A.31.31,0,0,0,210.87,155.86Z"/><path class="a" d="M202.59,174.45l.08.08S202.68,174.49,202.59,174.45Z"/><path class="a" d="M210.43,156.74a2.27,2.27,0,0,0-.58-.14l.18.13Z"/><path class="a" d="M199.51,185.57h0Z"/><path class="a" d="M201,187.75c.09-.25-1-.38-1.59-.58-.23-.37.81.05,1.37.08-.23-.26-1.17-.63-1.09-.76a1.76,1.76,0,0,1,.45.1c-.79-.39.1-.59-.91-1.06l.27,0c-.54-.09-1.08-.21-1.46-.3,0-.11-.63-.35.08-.24,0,.06.24.13.45.21l-.28-.18c1,.12.31.23,1,.4-.27-.3-1-.74-.72-.85,1,.18.24.48,1.16.44l-.43.18c1.58.14-.15.14,1.54.32.36-.29-.41-.5-.05-.79-.52-.2-.81-.15-1.33-.35-.87-.7,2.54.13,1.31-.51-.63-.23-1.86-.52-1.15-.64l1.09.32c.18-.32-1.55-.53-.74-.72.43.15.32.34.46.31.92,0-.6-.29-.56-.46l1,.16c-.09-.39-.71-.92-.81-1.35a2.45,2.45,0,0,0,.9.18c-.4-.59.33-1,1-1.38l-.81-.35a1.05,1.05,0,0,1,.56.08c.35-.12-.54-.12-.85-.28,0-.11.51,0,.75.08-.65-.46-1.36-1.24-.38-1.38l.24.12c.4-.19-1.67-.67-.83-.74l.14.08c.49-.49-.15-1.29,1.22-1.42-1.19-.37.67-.42-1-.86.92-.11,1.2,0,1.88-.25.1-.1-1-.44-1.15-.63l.88.22-.87-.44,1.08.17-.19-.19a1.57,1.57,0,0,1-.67-.06c-.34-.33.74-.37,1.19-.25l-.6-.7a2.28,2.28,0,0,1,.65.35c-.82-.51.93.21.18-.26a5.6,5.6,0,0,1-.69-.22c.56,0,.65-.25.49-.52l.59.21c.26-.32-.06-.85.08-1.27a2.48,2.48,0,0,1-1.41-.44l.93.24c-.54-.26-.39,0-1-.36.15-.13,1.07.22,1.35.4l-.27-.29c.28.08.41.16.76.28-.55-.25,1,0,.06-.45l.28.08c.12-.41-.12-.7-.05-1.05-.78-.27-.56-.34-1.16-.65.33-.17,1-.23,1.08-.55-.32-.35-.64-.29-1.08-.55.72.23.76-.09,1.21.25,0-.4,0-.51-.39-1.17a2.5,2.5,0,0,1-.69-.16c-.08-.13.37-.08.7.05l.07.05c-.87-.9,2.5-.38,1.18-1.34l.06,0-.6-.71c.19-.15.48.32,1,.35-1-.91.46-.63-.17-1.31,2.17.56.27-1.07,1.74-.89l-.49-.19c-.44-.3.32,0,.46,0-.38-.15-.48-.08-.71-.26-.22-1.08,1.46-1.4,2.26-2,.27-.25-2.38-1.32-1.06-1.18l.83.52c-.76-1.12.64-1.24,0-2.28.19.13.45.26.42.32.69.18.25-.46-.26-.72.1-.06.48.21.77.29s-.65-.73,0-.48a.6.6,0,0,1,.22.19c-.26-.24.27-.35-.5-.64.47,0-.1-.59.42-.56-.75-.53.59-.18-.54-.81,1.18.62,1.16.1.68-.34.33.24.43.07.9.38.06-.17-.08-.43-.7-.72,1.57.44-.81-1.2,1.08-.41a6.14,6.14,0,0,1-.6-2.08c1.16.65-.14.55,1.09,1.19-.26-.67-1.14-1.46-.63-1.71.22,0,.47.34.65.48-.25-.67.55-.73.12-1.44a.93.93,0,0,1,.27.25c0-.09.26-.07-.27-.36l.11.15c-.83-.31-1.44-1.18-1.84-1.42,1.44,1,.58-.15,2.38,1.12a1.89,1.89,0,0,0-.65-.49c.14,0,.36.08.72.38-.14-.42-.75-.65-.61-.87a5.1,5.1,0,0,1,.61.44c-.43-.4-.86-.8-.53-.88.15.1.36.19.32.25.12-.38-1-1.33-.29-1.43,1,.75.43.09,1.4.62l-.17-.36-.51-.19c.12-.17-.49-.72-.09-.69l.32.35v-.43l-.47,0c-.39-.46-1.21-.68-.81-.76.06.1.11-.17.72.07h0c-.25-.27-.52-.54-.2-.53s1,.64,1.24.74c-.74-.55,0-.54-.76-1.14a5.06,5.06,0,0,0,.79.49L213,146a1.59,1.59,0,0,1,.74.34c.26-.17-1.24-.63-.55-.62,0,.06.14.1.21.21.44-.13-.08-.8.39-.88,1,.49.1.37.95.76.06-.48-.67-1.47-.22-1.71h-.15c-1.3-.86.83.12.31-.44a3.19,3.19,0,0,0,.57.4c.37-.12,0-.71-.2-1.35l.31.26c.4,0,.41-.29.67-.35-.32-.26-.2-.31-.74-.56,2.25.7-.46-1.59,1.43-1,0,.06.22.31.25.27l-.08-.57a3.79,3.79,0,0,0-.88-.36c-.32-.26-.52-.53-.46-.63a2.49,2.49,0,0,0,1.3.7c-.19-.09-.37-.24-.55-.34,1.15.44-1.15-.76-.29-.59l.3.2c-.1-.2-.44-.54-.29-.59.7.37.25.3.79.65.06-.18-1.08-1.09-.33-.81.15.18.09.27.24.45.88.34.69.2.88.17h0l.51,0-.25-.06c-1.63-1.28-.08-.59-1.06-1.55.92.92.6.43,1.34.92a2,2,0,0,1,.74.28c-.53-.5.61.1-.18-.63.25.15.11-.11.7.3-.09-.28-.45-.23-.74-.44-.68-.76,1.36.07.43-1-.28-.59-1.06-1.16-1.3-1.69a2.23,2.23,0,0,1,.84.63c.45.07.46-.08.27-.4a2.61,2.61,0,0,0,.69.38c0-.16-.84-.64-.38-.56.25.2.66.5.9.73-.14-.28-.51-.7-.64-1a3.07,3.07,0,0,1,.83.71,1.74,1.74,0,0,0-.77-1.12l-.3,0c0-.07.6.34.69.45.44.47-.35.05-.6-.1l-.09-.19c-1.49-.8,0,.54-.23.69l-1-.74.73.75a2.76,2.76,0,0,1-1-.66c-.61-.18.29.36-.36.12a.39.39,0,0,1-.18-.12l.22.34c-.2-.17-.75-.44-.54-.43-.76-.13.52.89-.32.49l-.05-.06c.13.57.74.51,1.47,1.33l-2-1,.74.51c-.05,0-.15.06-.45-.15.44.46.35.19.79.57-.8-.26,0,.68-1.21,0,.54.43.55.12.84.55-1.34-.76.09.36-.61.14-.65-.47-.19-.4-.9-.61,1.08.8-.44.15-.3.42.9.57.19.52.36.94-.3-.21-.76.11-1.22.12l-.15-.11c.89.61.59.72.68,1a3.34,3.34,0,0,1-.94-.75l-.09.15a1.14,1.14,0,0,1,.45.52l-.67-.46c-.08.22.57.9-.05.87.64.4,1.91.9,2.18,1.43a5.31,5.31,0,0,1-1.05-.72s.23.26.06.21l-.52-.46c-.33-.05.45.36.34.42-.49-.31-.4-.15-.78-.41,0-.05.25.05.08-.11a1.55,1.55,0,0,1-.92-.19c.28.16.66.41.68.52s-.64-.29-1-.34c.31.26-.12.17.62.63,0,.05-.39-.15-.61-.25.27.31-.2.54.66.9h.07s0,0,0,0h0c.54.78-.84.44-.72,1l-.25-.15c.16.37-.1.55.35,1,0,.06-.54-.13-.82-.34.09.27.36.45-.18.43-.34-.42-.42-.18-.23-.35-.33.07-.76-.13-.2.5-.6-.46-.89-.33-.76-.13l.54.14c0,.16-.08.22-.19.28l-.81-.55c-1.27-.2,1.3,1.77-.6,1.06.53.46.55,0,1.18.53-.22.12-1.55-.4-1.59-.34-.62,0,1.09,1,.62,1.05a3.23,3.23,0,0,1,1.31.95c-.22.12-1.4-.51-1.57-.77,0-.06.11,0,.21,0a.79.79,0,0,0-.53-.4l.29.2c-.37-.08-.48.2-.94-.15a.67.67,0,0,0,.67.33c-.57,0-.23.37-.67.45.19.06.57.23.54.27-.58.15.48.49.47.81-.54-.12-1.07-.68-.83-.21a1.91,1.91,0,0,1-1-.63c.45.57-.63.21-.82.28l-.17-.26c.1.16.06.21,0,.27l.64.28a.49.49,0,0,1-.43-.07,14.19,14.19,0,0,1,1.5,1c-.36-.08.17.47-.65.05.44-.14-.83-.42-.82-.75.07.1,0,.16-.12.17a.44.44,0,0,1-.19-.15c-.89-.12.84.65.65.94-.43-.3-.9-.42-.83-.32.08-.11.79.37,1.08.68-.46,0,.15.35.05.43l.23,0c.44.29.33.35.4.56-.37-.18-.18-.25-.36-.29.72.59-1-.13-.59.38-.37-.08-.87-.47-1.13-.5.47.56-.76-.09-.41.42a1.81,1.81,0,0,1,1,.67l-.21-.64.75.75c.08-.11-.25-.47-.1-.48a1.56,1.56,0,0,0,.83.52c-1-.34.36.62-.37.47l-1.52-.84c-.84-.08.51.94-.08,1.11l.33,0c.58.38,0,.28.15.53a4.44,4.44,0,0,0-1.09-.42c.39.19-.18.25.83.83l-.77-.19c-.44.16,1.28,1.12,1,1.32-.52-.39-.95-.44-1.25-.85-.06.1-.2.13.16.32-.36-.11.55.64,0,.47.2.16.74.45.64.54a1.91,1.91,0,0,1-.26-.13c.26.13.26.35.88.55-1.76-.53-.31.9-1.83.46a1.93,1.93,0,0,1,0,.85c-.15-.09-.26-.13-.18-.14-.62,0,1.41.91.71.94-.91-.25-.37-.38-.74-.44-1.73-.81.06.49-1.05.2l-.07-.1c-.66-.12.46.71.21.91a1.41,1.41,0,0,0-.26-.13,2.52,2.52,0,0,1,1.05,1.44,3.12,3.12,0,0,0-1-.56c0,.16,1.12.49,1.21.8a6.16,6.16,0,0,1-1.55-.42l.06-.23c-1-.33-.1.29-.32.33l-.41-.21c0,.39,1,.88.8,1.2l.33.11c1,.66-.66-.11,0,.43l-1.08-.42a6.4,6.4,0,0,1,.92,1.22,8,8,0,0,1-1.4-1.3c-.07.12-.12.46.38.76-.08-.09-.31-.27-.13-.25.76.53,1.09.91,1,1.15-2.05-.95-.82.42-2.5-.09.58.78-.7.77-.8,1.35,1.7.48,0,.18,1.66.83.05.16,0,.2-.11.17l-1.15,0c-.52-.11-.32-.26-.69-.41-.25.22-.76-.17-1.28-.17.61.21.82.44.53.51l.86.09c.73.73-1.54-.23-.81.51l-.48-.33c.24.32-.29.74,1,1.45a1.85,1.85,0,0,1-.77-.3c-.39.4,1,1.59.06,1.65l-.39-.19c.08.14.71.44.26.4-.17-.07-.4-.18-.44-.15.12.1.64.5.36.53l-.43-.27c-.71.29.89,1.13,1,1.61a2.41,2.41,0,0,0-2-.06l-.18-.07c-.34.51.7,1.28,1,1.94-1.44-.1-.89.9-1.8,1.19A2.37,2.37,0,0,1,197,171c-.29.05.76.58-.37.23l0,0c-1.15-.23-.93.11-1,.3l1.49.45c-2.31-.09.46,1.54-1.58,1.31.35.22.3.37.65.59l-.81-.21c-.29.29-.45.44-.35.91l-.56-.22c-.11.23,2.27.85,2.27,1.08l-1.23-.21c-.08.42-1.24.61-.23,1.26a1.83,1.83,0,0,1-.56-.21c-.07.19-1,.58.7.86-1.09-.23-.19.41.24.72l-.8-.2c1,.4,1.27.47,1.5.78-.11,0-.65-.07-.43-.11-.46.12.73.31.25.47l-.49-.19c-.11.19.17.23.75.47.29.2-.29.36-1,.24.44.12,1,.35.77.43a1.41,1.41,0,0,1-.52-.15c-.61.24.83.71,0,.79a2.8,2.8,0,0,0-.49-.06c.07-.27.16-.49.22-.45a6.76,6.76,0,0,1-1.91-.34c.52.29,1.68.84,1.29,1l-.27,0-.08,0c-.08,0,0,.09.1.16-.14,0-.24.07-.26.14-.62-.1-.39.18-.44.29.82.15.66.27,1.35.27-.06,0-.09,0-.11-.12a.22.22,0,0,0-.07-.06l.07,0a1.4,1.4,0,0,1,0-.29c.39.17.72.33.25.37l1.27.42c-1.16-.08-1.83.09-2.54,0,.39.43.14.84,1.62,1.38.17.13-.46,0-.71,0s-.1-.15-.31-.22c.35.27,0,.59,1.08.87-.53.13-.95-.35-.85,0l-.31-.12c-1.83.26,2.47,1.66.13,1.87a1.3,1.3,0,0,1,.39,0c-1.14.56.48,1.91-1.25,2.27-.36.14.3.35.76.64l-.86-.21.91.53c.61.56-2.25-.09-1,.74l.59.14c-.16.11.18.58-.47.33.1,0,.58.25.26.21l-.44-.15.63.62c-.42.17-1.73-.66-2-.3a4.31,4.31,0,0,0,1.42.95c0-.06.33-.06.77.1l.17.23a10.29,10.29,0,0,0,3.58,1.1l-.69-.56.65.14,0,.24c.63.09.14-.18-.18-.4a2.51,2.51,0,0,0,.73.14l-1.14-.7c.52.14,1,.47,1.3.39-.53-.32-1.17-.28-1.48-.61.63.08,1.1.28.64,0a1.68,1.68,0,0,1,.68.3c-.36-.27-.06-.41-.72-.71.77.11,0-.5,1.18-.09-.28-.14-.9-.55-.91-.68,1.42.68.23-.43,1.8.11-1.28-.57-.41-.79-1.08-1.29.11,0,.31.14.24.15.16-.14.57-.07.86-.11a7.84,7.84,0,0,1-1.94-1c1.12.08,1.27.47,2.32.68-.9-.23-.81-.59-1.58-.72a4.75,4.75,0,0,1,1.31.11c-1.39-.38-.2-.2-1-.55.75-.05,1.33.27,1-.08A1.64,1.64,0,0,1,201,187.75Zm-1.18-6.28h0l0,.12A.31.31,0,0,0,199.83,181.47Zm.09-.48a.33.33,0,0,0-.08.2c-.28,0-.57-.12-.54-.16A1.51,1.51,0,0,0,199.92,181Zm-5.83-.14c-.1-.09.07-.08.24-.06a.27.27,0,0,0,.07.15l.1,0Z"/><path class="a" d="M195.13,181.2s.05,0,.05,0h.2l-.25-.08Z"/><path class="a" d="M213,141.19h0a.34.34,0,0,1,.11.05Z"/><polygon class="a" points="202.86 175.04 202.65 174.99 202.82 175.07 202.86 175.04"/><path class="a" d="M216.84,140.43a.82.82,0,0,0,.19.09A.85.85,0,0,0,216.84,140.43Z"/><path class="a" d="M217.59,139.57l.34,0A1.1,1.1,0,0,0,217.59,139.57Z"/><path class="a" d="M218.4,139l-.29-.2h0Z"/><path class="a" d="M212.17,151.39a.06.06,0,0,0,0,.05C212.29,151.58,212.26,151.51,212.17,151.39Z"/><path class="a" d="M212.52,146.87a1.74,1.74,0,0,1,.27.31C212.88,147.15,212.93,147.11,212.52,146.87Z"/><path class="a" d="M210.9,155.84h0l0,0Z"/><path class="a" d="M212.69,147.34c.17,0,.17-.05.1-.16S212.61,147.22,212.69,147.34Z"/><path class="a" d="M220.74,136l0,0a.35.35,0,0,1-.11-.07Z"/><path class="a" d="M220.68,135.94l-.06-.09S220.6,135.88,220.68,135.94Z"/><path class="a" d="M220.49,135.65l.13.2S220.68,135.8,220.49,135.65Z"/><path class="a" d="M219.79,136.81l.25.17A2,2,0,0,0,219.79,136.81Z"/><path class="a" d="M219.68,137.15c.1,0,.65.16.56,0L220,137C220.39,137.26,219.29,136.82,219.68,137.15Z"/><path class="a" d="M215.76,136.43l.36-.12c-.3-.13-.7-.3-.7-.46C214.42,135.66,216.07,136.17,215.76,136.43Z"/><path class="a" d="M214.88,137c0-.21-.4-.24-.55-.35C214.53,136.85,214.57,136.91,214.88,137Z"/><path class="a" d="M211.39,142.63l-.64-.4C210.78,142.39,211,142.38,211.39,142.63Z"/><polygon class="a" points="214.09 145.71 214.55 145.85 213.98 145.45 214.09 145.71"/><polygon class="a" points="209.09 143.62 209.02 143.52 209.15 143.84 209.09 143.62"/><path class="a" d="M203.85,153.67l.84.38C204.58,153.9,203.66,153.41,203.85,153.67Z"/><path class="a" d="M202.56,158.49c-.44-.15-.77-.14-.39.12C202.27,158.54,202.65,158.59,202.56,158.49Z"/><polygon class="a" points="195.99 171.9 195.72 171.72 195.92 171.97 195.99 171.9"/><path class="a" d="M228.23,111.77c.2-.19.37-.74.05-.75l-.57.81Z"/><path class="a" d="M227.11,109.33a2.69,2.69,0,0,0-1.36,1.81c.69-.72.61-.33,1.4-1.21.31,0,.35.49.16.8.2-.18.34.38.73-.12-.06-.84-.49-1.06-1.21-.69C226.81,109.68,227,109.49,227.11,109.33Z"/><path class="a" d="M227.16,101.36a2.48,2.48,0,0,1-.27,0A.42.42,0,0,0,227.16,101.36Z"/><path class="a" d="M231.07,85.66a.65.65,0,0,0,.15.37A1,1,0,0,0,231.07,85.66Z"/><path class="a" d="M232.58,86.07,232.5,86C232.57,86.15,232.61,86.22,232.58,86.07Z"/><path class="a" d="M227.16,101.36a4.41,4.41,0,0,0,.73,0C227.74,101.11,227.47,101.34,227.16,101.36Z"/><path class="a" d="M222.45,109.79a.71.71,0,0,0,.35-.11l-.27,0Z"/><path class="a" d="M218.57,102.46h-.15c0,.11-.08.25-.12.4Z"/><path class="a" d="M216.35,99.74c-.06-.11-.7.4-1,.61.3-.17.48-.22.61-.18A4.6,4.6,0,0,0,216.35,99.74Z"/><path class="a" d="M222.73,106.17l.2,0Z"/><path class="a" d="M222.9,102.64a1.54,1.54,0,0,0,0,.3A1,1,0,0,0,222.9,102.64Z"/><path class="a" d="M232.36,118.87h-.14C232.3,118.9,232.35,118.92,232.36,118.87Z"/><path class="a" d="M227.69,125.45l0-.1-.46,0Z"/><path class="a" d="M233.79,88.13v0C233.75,88.24,233.76,88.22,233.79,88.13Z"/><path class="a" d="M248.11,101.38c.59-.1.53.32.55.66s.11.64.81.47c-.16-.05-.26-.43-.41-.77A.62.62,0,0,0,248.11,101.38Z"/><path class="a" d="M222.35,109.62l-.24-.11A.45.45,0,0,0,222.35,109.62Z"/><path class="a" d="M249.47,102.51h0l.13,0Z"/><path class="a" d="M237.71,95.61a1.69,1.69,0,0,0,.18-.45A.76.76,0,0,0,237.71,95.61Z"/><path class="a" d="M235,86.8l0,.23A.51.51,0,0,0,235,86.8Z"/><path class="a" d="M244.32,97.19c.18,0,.25.11.49-.09a.32.32,0,0,0-.09-.08A.29.29,0,0,1,244.32,97.19Z"/><path class="a" d="M249.28,95a.69.69,0,0,0-.07-.15l-.07.08Z"/><path class="a" d="M226.33,122a4.27,4.27,0,0,1,.57-.77C226.44,121.72,226.24,120.88,226.33,122Z"/><path class="a" d="M222.65,109.37c-.12.17-.21.24-.3.25l.18,0A.62.62,0,0,0,222.65,109.37Z"/><path class="a" d="M244.11,90.2a.62.62,0,0,0,.12.08C244.18,90.21,244.14,90.18,244.11,90.2Z"/><path class="a" d="M245.65,122.18l-.21-.05A.16.16,0,0,0,245.65,122.18Z"/><path class="a" d="M245.71,89.47a.88.88,0,0,0,.41.2,1.75,1.75,0,0,0,.44,0,.66.66,0,0,0,.07-.26l-.49,0h-.25Z"/><path class="a" d="M226.9,121.24h0Z"/><path class="a" d="M224.89,115.08c.05,1.08,1,.25,1.59.31.32,1.07-.7.76-1.18,1.34.31.71,1.2.9,1.18,1.45-.15.11-.2.25-.4.22.39.21.41.76.47,1.33s.13,1.14.56,1.23a1.36,1.36,0,0,1-.21.28,6.39,6.39,0,0,1,1.17-1c0,.38.52.25,0,.87,0-.25-.21-.08-.38,0l.24.21c-.77,1.08-.27-.33-.86.15.29.67.91,1,.7,1.81-.71.94-.27-1.24-.9.31l.26-1.31c-1.16,1.91,0-.73-1.19,1.21-.13,1.7.46,1.24.32,2.92.4-.17.56-.83,1-1,.35.48-.06,1.43-.43,2.35s-.69,1.78-.24,1.82c.44-.32,1.2-1.63.82.12-.22.33-.45.65-.68,1,0,1.54,1-1.2.57,1.12-.25.33-.24-.57-.31-.2-.46,2.05.38-.16.4.5l-.53,1.48c0,.16,0,.3.07.44l0,.11.14-.11.3-.22c.4-.31.83-.64,1.2-1s.73-.64,1.1-1,.64-.6.94-.85c-.14.44-.45,1-.25,1.23a7,7,0,0,1,2.2-1.51,10.38,10.38,0,0,1,1.06-.39,11.09,11.09,0,0,0,1.1-.38c.17-.63.32-1.25.45-1.87.11-.1.29.31.17.73.63-.21-.06-.85.14-1.68.27-.46.51.22.36.84.2-.54.45-1.19.71-1.9s.52-1.32.79-2a5.27,5.27,0,0,1,1.94-2.64l0,.53a1.87,1.87,0,0,0,.35-1.77,2.54,2.54,0,0,1,0-.75c0-.12.07-.2.3-.16l.06.17a2.08,2.08,0,0,0,.32-.27,2.55,2.55,0,0,0,.23-.24,4.4,4.4,0,0,1,.46-.5.46.46,0,0,1,.55-.13,1.24,1.24,0,0,1,.42.88c.1-.7.26-.42.38-.25s.21.27.64-.5a2.46,2.46,0,0,1-.17,1.1,3,3,0,0,0,.48,1.36c.24.3,1.13-.46,1.62-.29l-.57.7,1.12-.29-.43,1.06.51.13a.72.72,0,0,1,.15-.75c.83.17,1,1.66.68,2l1.89.59c-.26.25-.58.15-.91.18,1.35-.09-.48.85.78.77,0-.23.39-.38.52-.51,0,.72.85,1.38,1.65,1.66l-.49.42c1.11,1,2.81,1.54,4.43,2.29-.45-.55.17-1.45.64-1.34l-.2,1c.54-.42-.34-.54.56-.94.53.34,0,1.17-.49,1.31h.87c-.06.29-.29.35-.47.67a.28.28,0,0,1,.29,0l7.76,3.75-2.58-8.93c-.1-.36.49-1.27-.41-1.27l.25-.13c-.51-1.37-1.05-1.87-1.52-3-.78.27-.77-.23-1.53-.32a8.39,8.39,0,0,0-.23-3c-.65-.55-.74,0-1.32-.09.69-.32.25-1.28.95-1a8.89,8.89,0,0,0-1.85-2.73c-.23.27-.29.5-.56.5-.22-.23.06-.73.41-.82l.1,0c-1.69-1.28.59-4.65-1.39-5.43l.1.05c-.24-.26-.36-.18-.53-.25a3.14,3.14,0,0,1-.51-.18c0-.15.19-.11.39-.09a1.41,1.41,0,0,0,.67,0c-.5-.07-.67-.28-.63-.41s.21-.2.32-.27.13-.12.08-.48a5.28,5.28,0,0,0,.64.23c.14.08.37,0,.55-.17a3.62,3.62,0,0,0,.95-1.12,12.81,12.81,0,0,1,.84-1.31l.3-.35a3.59,3.59,0,0,1,.39-.39,4.11,4.11,0,0,1,.9-.62l-.55-.13c-.12-.71.7-.49,1.1-.86-.44-.08-.84.4-.89,0,1.13-2.25,2.52-4.31,4-6.69a81.57,81.57,0,0,0,4.12-7.54c.44-1-.47-.49-1.17-.15s-1.2.54.14-1.26c.43-.22.86-.43,1.27-.62-.08-.35,0-.82-.09-1.1A38.42,38.42,0,0,1,261,84.7a20.51,20.51,0,0,0-4.72,1.78c.37-.34.62-.73,1-.82-.07-.36-.8-.16-1.51.21a3.93,3.93,0,0,0-1.57,1.29c-.49.09.16-.61,0-.86s-.92.32-1.42.69-.93.7-1.06.36c0-.1.28-.34.45-.46a5.47,5.47,0,0,1-1.39.7c-.49.22-.84.46-.62.81a4.71,4.71,0,0,0-1.91.73,3.35,3.35,0,0,1-1.66.59.93.93,0,0,1-.43.55,1.57,1.57,0,0,1-.49.16c-.33.08-.6.19-.4.81a1.14,1.14,0,0,0-.82-.68c-.09,0-.14.29-.19.66,0-.44-.15-.4-.13-1a2.58,2.58,0,0,0-.27,1.14c0-.89-.13-.51-.41-.26s-.54.27.11-.77a1,1,0,0,1-1,0c-.05,0-.08,0-.14-.09L242.2,90l-.4-.51c-.26-.33-.5-.66-.74-1,1.24-.49.85,1.57,2.09.94-1.12-1.17-2.52-1.51-2.85-3,0-.28.13-.28.34-.18s.41.16.54.18a5.62,5.62,0,0,1-.86-1.39c-.28-.55-.52-1.11-.76-1.66a8.25,8.25,0,0,0-1.64-2.77c.07-.14.25-.08.41,0-.21-.36-.34-1.15-.65-.37l.28.16a1.15,1.15,0,0,1-1,1.08c-.41.12-.77.22-.88.5a2.08,2.08,0,0,0,.25-1.87,2.37,2.37,0,0,1,.41-2.12c-.19,0-.45.19-.55.74a1,1,0,0,1,.2-1.11.61.61,0,0,0-.74.22c-.14.16-.26.24-.53,0,0-.33.18-.36.31-.72a2,2,0,0,1-.48.42c-.24.13-.48.05-1-.24.06-.17,0-.43.22-.35a1.5,1.5,0,0,0-1.07.15,4.46,4.46,0,0,0-.94.67A5.22,5.22,0,0,1,230.48,79c0-1.6-.56-.1-1-1.14a8.3,8.3,0,0,0-.54,1l.47.27c-.57.55-.51,1.9-1,2.12,0-.31,0-.62,0-.93a9.18,9.18,0,0,0-.57,1.49c.21-.13.41-.24.62-.35,0,1.22.89,1.25.38,1.83,0-.27-.19.63-.79.48h0c.18.65.45,1.27.14,1.61-.34-.09-1.08-1-1.3-1a2.73,2.73,0,0,1,.38,1.6,1.89,1.89,0,0,0,.54,1.53,1.78,1.78,0,0,0-.91-.44c.24.21.48.41.73.59-.25.31-.37.36-.83.18-.08.64.27.59.56.57s.52,0,.21.61c-.06-.11-.17-.07-.28-.31a3.34,3.34,0,0,0-.09.52,2.54,2.54,0,0,0,0,.39,6.93,6.93,0,0,0,.1.78,2.52,2.52,0,0,1,0,1.49c-1.12.23-.22-.87-1.17-.59.13,1.41,1.14,3,.75,4.35l.15-.24c.77.14.55.45.23.65s-.73.34-.4.7a1.53,1.53,0,0,0-.66-.34c-.15.22-.07.49,0,.92a1.9,1.9,0,0,1-.12,1.52l-.18-.43c-.56-.13-1,.06-1.44-.12,0,.4-.25.33.05.92a6,6,0,0,0-.59-.61,1.13,1.13,0,0,0-.22-.14l-.11,0-.17,0a3.28,3.28,0,0,0-1.32.32c-.87.36-1.71.76-2.53-.19.19,0,.47-.36.31-.36l-1.41.37c.11.68.18.41.48.94a1.15,1.15,0,0,1-.93.72c.64-.45,0-1.09-.28-1.47.05.21-.05.44,0,.65-.74-1.21-.13,1.37-1.14.55l.06-.36c-.38.19-.73.66-1.13.56-.17-.79.4-.37.42-1-.57,0-1.12,1.49-1.64.71.24-.22.59-.23.83-.44-.56-.93-.62-.69-1-.84l0,0-.32-.14-3-1.29,1.48,4.39.24.73,0-.37c1-.36,1.34-.13,1.63.16a1.27,1.27,0,0,0,1.37.53c-1.59.25-.63.41-1.3,1,0,.36.13.85-.12,1,.84-.18.27,1,1.49.65-.16.25.4.35-.14.85.66.22.19-.49.46-.74.69-.08.95.5,1.33,1.07a1.58,1.58,0,0,0,1.79.91c1.31.14,2-.61,3.12-.54.1.57-.76.79-.76.79a1.21,1.21,0,0,0,1.39.73c-.21.18-.2.42-.19.78.43.13.72-.8,1.06-.17a4.9,4.9,0,0,1-.9.85c.59,0,1.29-.28,1.88-.29-.08.51-.61.55-.92.77.65,0,1.62.24,2.11-.42l-.24-.41c.22,0-.17.67-.38.73-.73.36-.57-.55-.47-.83h.42c.34-1.69-1.49-.38-2.15-.82l.82-1-1.15.57c0-.36.21-1,.62-1-.21-.78-.63.18-.72-.64,0-.12,0-.16.11-.18l-.63.08c.21-.18.33-.8.53-.5-.47-1-1.76.08-1.6-.9l.11,0c-1.31-.31-.57.72-2,1.09q.32-1.12.66-2.22l-.6.68a.37.37,0,0,1,0-.57c-.75.22-.15.37-.72.68,0-1-1.68-.78-.88-2-.61.38.13.81-.69.73.85-1.31-.8-.3-.75-1.25.68-.45.77.21.85-.69-.58.38-.74.13-.8-.22s0-.81-.25-.89c-.63.56-.89,0-1.34-.51l-.81,1.68a1.72,1.72,0,0,0,.59-.12c-.05.36,1.6.59,2.38,1l0,.18c.15-1.08,1-.88,1.56-1.1a1.42,1.42,0,0,1-.45,1.19h.55a1,1,0,0,1,.67-.65l-.14.81c.74-.05,1.49-1,2.44-.41.06-.76-.76-2.1.25-2.6,0,.4.08,1.1-.19,1.27.09-.06.31-.34.48-.17l-.4.69c.44.3.23-.57.58-.51,0,.58.25.41.2.88-.09,0-.3-.24-.43,0a1.6,1.6,0,0,1,1,.89c0-.33,0-.78.28-.85s.43.15.47.37,0,.47.35.62c.24-.4,1,0,.85-.85.28,0,.43.4.62.62a8.21,8.21,0,0,1,1.25-.46c.41-.19.61-.44.12-.77l-.14,0s0,0,.05-.06h0c.49-.55,1.23-.77,1.79-1.31a2.53,2.53,0,0,0,.87-2.06l.28.12c-.09-.54-.09-1.09-.13-1.58,0-.12,0-.24,0-.35a2.29,2.29,0,0,0-.07-.28,1.39,1.39,0,0,0-.31-.5c0-.22.58-.47.92-.35-.18-.59-.5-.68,0-1.48.47.62.47-.16.33.62.3-.73.78-.87,0-1.73.72.32,1-.51.76-.88l-.56.5a2.56,2.56,0,0,1,.08-1.11l1,.24c1.27-1.62-1.94-2.69.06-2.58-.67-.53-.49.16-1.28-.32.08-.21.46-.25.83-.16s.72.26.73.22c.27.06-.07-.27-.41-.72s-.7-1-.47-1.06a4.27,4.27,0,0,1-1.37-2.23c.32-.47,1.46,1.35,1.62,1.93,0,.11-.11,0-.21-.14a1.66,1.66,0,0,0,.54.93l-.3-.47c.36.27.48-.12.9.78-.19-.63-.41-.93-.64-1,.29.17.35.07.42-.08s.14-.35.36-.18a4.08,4.08,0,0,1-.39-1c.36.14.32-.19.26-.69s-.18-1.11.06-1.44c.46.92.3,2.59.62,1.48a7.8,7.8,0,0,1,.22,2.51c0-.74.21-.55.29-.09a9.67,9.67,0,0,1,.1,1.28c0,.18-.06.36-.08.55,0-.34.06-.3.07-.28,0-.47.08-1,.11-1.43a3.18,3.18,0,0,1,0,.9l0-.22c.08-.67.13-1,.19-1.51a10,10,0,0,1,.27-1.56c0,.41.07.36.13.44s.09.26-.06,1c0-.48-.12-.07-.2.46a6,6,0,0,1-.26,1.17c0-.16.07-.1,0,.15s-.07.32-.09.4c-.25,1.47.41-1.65.58-1.22a5.86,5.86,0,0,0-.38,1.3,5.1,5.1,0,0,1,.68-1.59c-.11.76.31-.06.36.18l0-.41c.33-.52.39-.24.62-.11-.26.41-.29,0-.36.3.36-.32.29.13.17.52s-.31.76,0,.72c-.23.37-.8.63-1,.86.34-.08.21.08.07.23a.65.65,0,0,0,.25.88c.54-.52.37-.49,1.24-.21l-.52-.56-.26-.27a.79.79,0,0,0-.12-.13l-.08,0a.8.8,0,0,1,.27,0l.33.11.65.22a1.39,1.39,0,0,0-.45-.52c-.16-.13-.25-.13-.23-.23.6-.06.45,0,.91-.36-.41.38-.12.64.18.82s.65.4.47.86l-1.6.69c-.14.63.25,1,.69,1.31A3.91,3.91,0,0,1,237,92a2,2,0,0,1,.45,1,3.56,3.56,0,0,1,0-.68c.69-.15.57,1,1.06,1.45-.5.3-.5.82-.64,1.35.16-.17.33.19.6.47a.63.63,0,0,0,1,0,6.63,6.63,0,0,0,.11,1.26,1.23,1.23,0,0,0,1.7.17,3.24,3.24,0,0,1,1.62-.63,1.79,1.79,0,0,0-.3.83c-.06.23-.16.48-.72.66.5.06.94.13,1-.28.11.17.49-.06.85-.32s.69-.53.93-.32c.18-.34.16-1,.63-1.14a.55.55,0,0,1,.06.29c0-.3.62-.72.07-1.17a1.5,1.5,0,0,0,1.3.24,3,3,0,0,0,1-.4l.45-.25a1.45,1.45,0,0,1,.35-.12.6.6,0,0,1,.65.41,5.38,5.38,0,0,1,1.31-1c-.07.22-.09.35-.14.3.17.23.38-.3.67-.86s.64-1.13.89-.88c-.22,1.11-.68.8-.66,1.19-.49,1.22-.36,1.1-.06.81s.8-.75.42,0l-.18.19c-.19.43.07.13.52-.29s1.05-1,1.2-.94c0,0-.25.27-.4.46a16.76,16.76,0,0,1,4.25-3.1,22.37,22.37,0,0,0-2.35,2,17.91,17.91,0,0,0,1.4-1.2,10.18,10.18,0,0,1,1.85-1.43h0l-.43.49c-.14.16-.27.31-.58.62-.56.56-1.2,1.16-2,1.86,0-.09.1-.26-.13-.13-.5.47-.68.64-.8.78s-.07.12,0,.07.62-.35.4-.11l-.92.7c.15.15,2.36-1.37,1.87-.5l.67-.48c.95-.42.59-.11.19.19s-.84.6-.21.43l-2,1.16a2.83,2.83,0,0,1,.87,0c.3.07.54.25.54.48a11.53,11.53,0,0,0-2.3.08c-.09.18-.14.48.65.33-.11,0-.5,0-.18-.16,1.3-.31,1.66.06,1.26.68-1.5.21-1.85.51-2.13.8a1.32,1.32,0,0,1-1.49.46.35.35,0,0,1,0,.47.64.64,0,0,1-.2.2l-.14.11-.21.17a8.92,8.92,0,0,0-1.76,1.56c1.71.7-.28.4,1.13,1.52-.25.45-.41.57-.53.54a7.93,7.93,0,0,0-2,.81c-.74.19,0-.69-.41-.83-.5.6-.73.69-1,.69a1,1,0,0,0-1,.39c.56,0,.63.5.47,1.14,0,.16-.1.32-.16.5a4.28,4.28,0,0,1,.4-.45,5.42,5.42,0,0,1,.67-.6,3.18,3.18,0,0,1,0,.73,2.33,2.33,0,0,1-.71,1.34c-.28.39-.46,1,.26,1.84a8.85,8.85,0,0,1-.77-.63c.15.29.32.71.53,1.17a10.79,10.79,0,0,0,.63,1.25,2,2,0,0,0,1.6,1c-.15.19-.56.51-.78.28.36,1.55,2.68,2.73,2.29,4.19l-.46,0c.23.23,1,.18.67.69-.17,0-.45,0-.42.18.19.09,1,.45.89.91l-.58-.14c0,1.64,2,1.78,2.71,2.88-1.22.45-1.18,1.73-1.16,2.37l-.18,0c.48,1.73,2.08,2.46,3.14,3.83a1.75,1.75,0,0,0-.24.59l4-4a2.07,2.07,0,0,0-.61-.67,8.31,8.31,0,0,0-.82-.54,3.91,3.91,0,0,1-1.49-1.42c0,.32-.6.81-.89.76-.13-.4-1.33.15-.57-.77l.09.1c.48-1.09-.26-1.27-.69-1.67l-1.06,1.15c.27-2.7-3.71-2.08-3.13-4.23-.56,0-1-.3-1.52-.25l.54-.64-.54-.6-.13-.13-.22-.2c-.14-.13-.3-.26-.45-.38-.32-.24-.67-.48-1.06-.73l-.62-.39a5,5,0,0,0-.74-.31l.6-.39c-.62-.32-1.15.1-1.57.57s-.74,1-1.17.93c-.08-.45-.18-.88-.29-1.31a6.61,6.61,0,0,0-1.54,0,3.61,3.61,0,0,0-1.45.45,5.75,5.75,0,0,0-1.32,1,4.93,4.93,0,0,0-.86,1.6.69.69,0,0,1-.06-.79,15.2,15.2,0,0,0-1.66,1.66c-.09.12-.06.1-.07.11l0,0a1.21,1.21,0,0,0,.1.16,6.35,6.35,0,0,0,.6.65c-.41-.39-.47-.36-.42-.1a10.88,10.88,0,0,1,.17,1.19l-.38-.92a8.62,8.62,0,0,1,.38,1.47,3,3,0,0,1,0,1.07c-.1,0-.27-.8-.13-.64-.16-.13-.13.18-.12.54s0,.73-.17.61c0-.32,0-.64,0-.94-.19.2-.11.59-.15,1.83-.06.4-.19.52-.3.34a3.53,3.53,0,0,1-.19-1.38c0,.9-.19,2.32-.34,2.11a10.08,10.08,0,0,1,.12-1.2c-.14-.34-.28.33-.49,1s-.42,1.26-.42.43a10.53,10.53,0,0,0,.17-1.16c.29-.25.49-.44.46-.28.09-.84.09-1.28.15-1.85s.14-1.26.3-2.47c-.09.66-.27,1.78-.5,2.7s-.49,1.64-.5,1.26c.05-.23.09-.44.13-.67l.07-.23c0-.17-.07,0-.19.42,0-.28,0-.51,0-.51.46-1.71.11-.82,0-.87-.79,2.38-.86,2.09-1.35,4a1,1,0,0,1,.26-.45,1.7,1.7,0,0,0,.15-.28l-.08.21a5.22,5.22,0,0,1,.41-.4c-.42,1.22-.91,2.35-.68,1.16-.58,1.56-1.25,3.21-1.6,4l.53-2.12a11,11,0,0,1,.32-1.06c.11-.35.23-.7.34-1,.44-1.33.81-2.39,1.21-3.41-.25.39-.32.27-.54.48a10.7,10.7,0,0,0-1.43,2.18c-.2.19.5-1.25.76-1.85.17-.22.14,0,.38-.47-.42.49-.13-.77-1.29,1.17A5.43,5.43,0,0,1,231,119c.17-.26.26-.39.18-.58l.35-.51c.48-1.1.53-1.38.39-1.41s-.49.2-.81.32-.62.13-.69-.18a2.81,2.81,0,0,1,.68-1.79,2.31,2.31,0,0,1-.4.53,4.49,4.49,0,0,0,.34-2.13c0-.6-.18-1.24-.19-1.92l-3.06-.23a5.49,5.49,0,0,1-1,2.85c-.41.73.27.89.74,1.42l-.9.07.93.92c.62,1.21-2.38,1.74-1.11,3.33l.62-.13c-.17.51.2,1.67-.48,1.53.1.06.6.22.28.4l-.47,0,.69,1.34c-.41,1-1.83-.3-2,1.14.13.56,1.24,1.63,1.56,1.45a.77.77,0,0,1,.8-.51l.2.5c1.36.19,2.74.65,3.78-.46l-.78-.89.69-.21v.69c.65-.34.11-.63-.24-.94a1.25,1.25,0,0,0,.76-.28l-1.24-.92c.54,0,1,.45,1.37-.06-.58-.43-1.23.26-1.57-.4.65-.34,1.15-.18.66-.69a.72.72,0,0,1,.71.28c-.39-.45-.08-1.1-.79-1.38.81-.33-.06-1.4,1.23-1.23a2.3,2.3,0,0,1-1-1.21c1.47.85.25-1.4,1.88-1-1.33-.67-.4-1.9-1.06-2.89.1.06.31.19.23.26.18-.49.62-.59.92-.88-1.14-.21-1.29-1-1.94-1.55h0l-4-.3a1,1,0,0,1-1.3,0l6.58.48a1.55,1.55,0,0,0,1,.34.85.85,0,0,1-.59-.28l-7.51-.55c.41.4.59,1,1.12.84-.65.63-.31.52-1.22.92,1.39,0,.27.56,1.12.94-.63,1-1.25.47-.8,1.37a.36.36,0,0,1-.58.11A1.37,1.37,0,0,1,224.89,115.08Zm5.77,15.44v0l-.35.28Zm1.26-1c-.14.08-.32.22-.53.37a1.65,1.65,0,0,1,.27-.88C231.55,129.36,231.8,129.36,231.92,129.55Zm1-10.92c.15-.36,0,.09-.09.55a2.73,2.73,0,0,0-.19.35l-.1.29C232.67,119.44,232.79,119.09,232.93,118.63Z"/><path class="a" d="M231.83,121.8a1.09,1.09,0,0,1-.1.19c0,.2-.08.37-.1.5.09-.26.18-.52.27-.76Z"/><path class="a" d="M226.84,101.32h0a.31.31,0,0,1-.14-.09Z"/><polygon class="a" points="244.1 121.4 244.24 121.23 244.02 121.29 244.1 121.4"/><path class="a" d="M217.75,98.7a.36.36,0,0,0-.11-.21A.71.71,0,0,0,217.75,98.7Z"/><path class="a" d="M214.09,98.51l-.28-.16-2.56-1.46,1,4.63.06.28c0-.13,0-.25,0-.31l.2-3.62,1.3.53Z"/><path class="a" d="M214,103.76a2,2,0,0,0,.29-.21h0Z"/><path class="a" d="M238.33,80.6a.33.33,0,0,0,.09.13C238.7,81,238.54,80.75,238.33,80.6Z"/><path class="a" d="M228.06,83.73a3.87,3.87,0,0,1-.17-.82C227.75,83.13,227.68,83.33,228.06,83.73Z"/><path class="a" d="M244.1,90.19h0Z"/><path class="a" d="M228.15,82.24c-.22.11-.28.37-.26.67A1.09,1.09,0,0,0,228.15,82.24Z"/><path class="a" d="M224.77,111l.11.08a.52.52,0,0,1,.07-.11Z"/><path class="a" d="M225,110.93l.18,0C225.07,110.87,225,110.85,225,110.93Z"/><path class="a" d="M225.51,110.84l-.38.06C225.24,111,225.35,111,225.51,110.84Z"/><path class="a" d="M221.45,108.94l-.18.25A1.25,1.25,0,0,0,221.45,108.94Z"/><path class="a" d="M220.36,108.45c.21.21.32.91.77.93l.14-.19C220.89,109.49,220.83,108.15,220.36,108.45Z"/><path class="a" d="M218.36,102.76c.19.25.38.49.59.73.05-.35.14-.82.51-.65C219.12,101.42,219.22,103.57,218.36,102.76Z"/><path class="a" d="M216.62,100.62c.43.22.32-.33.47-.44C216.69,100.18,216.58,100.17,216.62,100.62Z"/><path class="a" d="M230.36,94.74l.75.11C231,94.44,230.82,94.82,230.36,94.74Z"/><polygon class="a" points="226.73 90.44 226.25 90.79 226.93 91 226.73 90.44"/><path class="a" d="M232.15,89l.11.08a3.63,3.63,0,0,1-.27-.28Z"/><path class="a" d="M249.05,95.93c-.11-.29-.23-.58-.35-.86C248.59,95.29,249,96.27,249.05,95.93Z"/><path class="a" d="M254.41,94.49c-.9.63-1.49,1.07-.74.73C253.85,95,254.58,94.44,254.41,94.49Z"/><polygon class="a" points="252 118.36 252.42 118.31 251.83 118.15 252 118.36"/><path class="a" d="M249.36,94c-.06.31.29.79.69.47l-.13-1Z"/><path class="a" d="M253.21,94a1.9,1.9,0,0,0-.52-2.32c.08,1.1-.25.85-.18,2.13a.62.62,0,0,1-1-.16c0,.31-.78.19-.73.86a1.57,1.57,0,0,0,2.13-1.07C253.15,93.46,253.14,93.77,253.21,94Z"/><path class="a" d="M249.81,106.46l.21.2A.58.58,0,0,0,249.81,106.46Z"/><path class="a" d="M249.44,112.05c.14.19.27.22.35.19C249.63,112.09,249.49,112,249.44,112.05Z"/><path class="a" d="M248,106.92c0,.11.05.21.07.31C248.14,107.08,248.14,107,248,106.92Z"/><path class="a" d="M249.81,106.46c-.17-.18-.32-.37-.47-.56C249.14,106.15,249.54,106.28,249.81,106.46Z"/><path class="a" d="M255.44,94.27a1,1,0,0,0,.32-.39,2.71,2.71,0,0,1-.35.24Z"/><path class="a" d="M247,98.21l.33-.13a1.44,1.44,0,0,0-.14-.37C247.07,97.88,247,98.05,247,98.21Z"/><path class="a" d="M247.86,101.23c.27,0,.29-.81.35-1.18a.88.88,0,0,1-.51.61A1.78,1.78,0,0,0,247.86,101.23Z"/><path class="a" d="M252,92l.24-.23C252.19,91.85,252.08,91.94,252,92Z"/><path class="a" d="M247.52,105.09a.41.41,0,0,0-.2.22A.34.34,0,0,0,247.52,105.09Z"/><path class="a" d="M228.26,101.36l-.14.06C228.22,101.45,228.28,101.44,228.26,101.36Z"/><path class="a" d="M218.11,101l.18,0a3.26,3.26,0,0,0,.24-.4Z"/><path class="a" d="M241,107.34s0,0,0,0C240.82,107.12,240.9,107.24,241,107.34Z"/><path class="a" d="M237.64,112.05c-.85,1-.76-1.78-1.74-.32C236.23,111.62,237,113.28,237.64,112.05Z"/><path class="a" d="M255.15,94.26a2.5,2.5,0,0,1-.38.15A.85.85,0,0,0,255.15,94.26Z"/><path class="a" d="M235.9,111.73h0l-.1.15Z"/><path class="a" d="M243.35,106.69a1.05,1.05,0,0,0-.07.43A.68.68,0,0,0,243.35,106.69Z"/><path class="a" d="M244.88,111.74l.05.42A1.24,1.24,0,0,0,244.88,111.74Z"/><path class="a" d="M242,112.71c-.09-.22-.06-.35-.34-.52a.32.32,0,0,0,0,.13C241.77,112.34,241.91,112.42,242,112.71Z"/><path class="a" d="M232.55,112.16l.21-.11.06-.29Z"/><path class="a" d="M234,111.24a2,2,0,0,1,.08-.92C233.78,110.89,232.33,109.85,234,111.24Z"/><path class="a" d="M255.28,93.84a.43.43,0,0,1-.13.42l.26-.14C255.39,94,255.36,93.88,255.28,93.84Z"/><path class="a" d="M236.72,116.6l-.85-1.21A8.17,8.17,0,0,0,236.72,116.6Z"/><path class="a" d="M240.65,89.7l.26.26A.4.4,0,0,0,240.65,89.7Z"/><path class="a" d="M236.29,110.57a1.66,1.66,0,0,0,.32.24,8.53,8.53,0,0,0,1,.51l.67.27.47.17.34.14h0s0,0-.08,0-.11.11-.16.16a.66.66,0,0,0,.14.24l.17-.21s.16-.16.12-.16c-1.33-.51-1.56-.61-1.93-.77a6,6,0,0,1-.64-.3A1.9,1.9,0,0,1,236.29,110.57Z"/><path class="a" d="M234,110.31h0Z"/><path class="a" d="M226.6,104.78c.55.51,1-.57,1.54-.9.56.33.53.6.33.85s-.54.47-.6.82c.74.4,2,.39,2.42,1-.1.15-.06.31-.35.31.67.16,1.19.83,1.81,1.53a4.1,4.1,0,0,0,2.32,1.56.54.54,0,0,1,0,.33,2.73,2.73,0,0,1,.85-1.25c.52.48,1.4.28,1.19,1-.33-.28-.54-.08-.84,0l.79.22c0,.6-.28.55-.6.37s-.69-.45-.94-.16c.34.17.69.32,1.05.46l1.13.33,6.45,1.8-3.7-4.23a3.55,3.55,0,0,1-1-1.73c.85-.56,1.18,2,1.51.46l.14,1,1.08,7.75-4.82-4.44-.53-.49c.52,2.19-1-.79-.67,1.44l.48.35,9.88,7.29-4-12.46c-.51-1.58-1.25-1.65-1.69-3.46-.68-.21-.7.45-1.39.24-2-2.26,1.49-3-.52-4.45-.82-.25-2.08,0-2-1.6l1.24,0c-.63-1.84-1.93-.42-2-2.58.54.16.92,1.27.93,1,.33-1.56-.94-.63-1.32-1.56l.85-.57c-.32-.64-.7-1.27-1.12-1.94l-5,3.77A17,17,0,0,1,233,99c-.3.12-.78.09-.64.66,2.13,1.43,3.69,4,5,6.36l9.53,17.37-2.7-21.22c0-.21-.06-.41-.08-.61l-1.17-.77c-.08-.25.21-.58.46-.37-.07-1.18-.54.12-1-.27-.27-.58.18-1,.56-.67-1.35-1.64-3.48-4.66-3.52-6.92l.4.27c-.35-1.64-2.36-.91-2.29-2.6l.27.19a27.09,27.09,0,0,0-1.85-3.79l-4.3,2.78a12.65,12.65,0,0,1,2.79,5c1.29-.36,1.59,3,3.1,2.15.37,1.53.14,1.79.49,2.86l10,30.65-4-34.24a11.52,11.52,0,0,0-.33-1.66c-.27-.73-1.48-.55-2.07-1.29l.79-.45-1.45-.68.62-1.12-.64-.66c.14.33,0,.86-.23.94-1-1-1.17-3.22-.8-3.5-.8-.8-1.62-1.58-2.45-2.34.35-.14.76.24,1.2.48-1.76-.94.61-.81-1-1.66-.05.29-.51.21-.68.29a5.22,5.22,0,0,0-1.57-2.83l-6,4.23a6.46,6.46,0,0,0,.46.54l-.65.14c1.08,2,2.76,3.86,4,6.07a.75.75,0,0,1,1.31-.68l-.69.72c.75.14-.06-.86,1-.34.36.9-.65,1.08-1.18.76l.84.85c-.22.19-.48,0-.84.14.76.14.07,2.19,1.29,2.32l-.22.18c1.12,2.25,1.9,3.14,2.79,5,.77-.3.92.52,1.78.82a29.48,29.48,0,0,0,1.1,5c.83,1.06.79.1,1.45.48-.31.16-.33.61-.34,1l5-3.07c-.3-.55-.56-1,.22-.59-1.29-1.29-2.1-2.09-3-2.91s-1.9-1.64-3.36-2.76c.3.78.61,1.31.42,1.48a3.62,3.62,0,0,1-1.06-2.12l.14,0a11.61,11.61,0,0,1-3.1-3.21c-1.15-1.53-2.5-3.48-3.84-5.29a15.78,15.78,0,0,0-.61,6.68l0-.37c.06,1.95.13,3.75.23,5.4-.17.89-.27.49-.39,0s-.28-1.24-.58-.66a23.8,23.8,0,0,1,.11,3.74,25.25,25.25,0,0,1-.34,2.8c0,.21-.07.42-.1.62l-.08.39a7,7,0,0,0-.12.78,4.91,4.91,0,0,0,.09,1.69,3.23,3.23,0,0,0-1.27,2.43l6.18-3.1a1.65,1.65,0,0,1-.49-.37,4.63,4.63,0,0,1-.94-1.53l-8.71-21.71,1.45,24.64a.53.53,0,0,1-.31.55l.53-.06c.61.22-.23.27-.33.36.44,0,.44-.18.79,0a5.24,5.24,0,0,1,.75,2.34c-.05.32-.3.34-.65,0a2.46,2.46,0,0,1-.27-.28l-.34-.48a7.3,7.3,0,0,0-.48-.61c-.08-.08.82.87,1.49,1.46a2.37,2.37,0,0,0,.68.53c.07,0-.06-.25-.49-.71a12.57,12.57,0,0,1-1.09-.78c.29.18.38.09.4-.07.14-.77-.37,1.16-.53,2.2A13.27,13.27,0,0,0,228,123l4.65,12,2-11.62q.07-.41.12-.81c.13.3.4.4.26.77.95-.55,1.1-2.92.56-3.13.27-.56.54,0,.95-.21.68-.66-.13-2.31.69-2.49.13,0,.13.3.13.47-.13-.64,1-2.38,0-2.17.88-1.27.64-2.81,1.5-3.77a.52.52,0,0,1-.08-.19c0-.07,0-.15,0-.16l-1.16-.46c-.3-.12-.48-.21-.64-.29a2.74,2.74,0,0,1-.57-.34c-.23-.19-.15-.17-.16-.16a1.24,1.24,0,0,1-.22.61,5.44,5.44,0,0,1-.77,1c-.15.15-.29.28-.41.38l-.09.08-.19.16v0l.07,0a.64.64,0,0,0,.7,0c-1.09.77.86,2.7,1.95,3-.52,0,.2.9-.46,1,.54.63,1.16,1.14,1.6,1l8.45-1.65-2.1-1a.47.47,0,0,0-.4,0c1.38-2.15-1.69-3.84.22-5.17l-.48-1.42-6.05,3.1c2.37,1.4,4.47,2.77,6.44,4.19-1,.92-2.46-2-3.3-.91,2.41,1.42,4.34,1.63,6.15,3.68a.17.17,0,0,1,0,0l4.28-2.74c0-.3.15-.25.34-.1l5.23,4.17-10.08-1.07c-.26,0-.63-.14-.8-.13.2.12.4.24.59.37l10,6.8-4.66-10.24c-1.08-2.37-1.46-4.83-3-6.72.11,0,.34.16.54.36-.23-.45-.28-1.15-.81-.86l.34.38c-.49,1.06-2.45-1.07-2.92-.94,1.93,0-.65-2.4,1.89-2.14-.24-.25-.68-.5-1-.25-.11-.49,0-.73.67-.49-1.1-1.46-1.38-.6-2.12-2,.26-.13.51.1.89.09a4,4,0,0,1-2.08-1.82l-3.8,1.84c0,.11.07.24.1.38-.2,0-.35.22-.49-.15.93,2.08,2.84,3,3.37,5.54-1.47-.16,0,1-1,1.55.29.37.6.75.9,1.11l.23-.73c.52,1.11,1.73,1.68,1.92,2.76-.28-.19-.56-.38-.83-.58q.63,1,1.32,1.89c-.1-.44-.21-.88-.29-1.33,1.09.78,1.12-.8,1.67.71-.26-.21.61,1,.45,1.89h0a3.29,3.29,0,0,1,1.23.79l1.18-.79a2,2,0,0,1-.29-.66c.19-.37,1.14-.46,1.27-.7-1.08,0-1.58-2.21-2.78-2.36a1.06,1.06,0,0,0,.89-.3l-.89,0c0-.58,0-.71.45-.86-.67-1.47-1,1.13-1.38-.83.13.1.19,0,.44.2-.66-1.83-2.2-3-2.71-4.78.74-1,1,1.24,1.51.28-1.23-1.93-3.16-3.67-4.16-5.69l-2.2,1.87a3.57,3.57,0,0,1,.5.45l-.23-.35c.59-.53.83-.09,1,.49s.32,1.31,1,1.52c-.29-.15-.91.29-.72.23a7.79,7.79,0,0,0,2,1.94,13.9,13.9,0,0,0,3.4,1.85l-.53.15a4.48,4.48,0,0,0,1.84,1.15,8.21,8.21,0,0,0,2.44.46l2.32.11-.44-2.66,0-.23c-.48-.24-.64-.9-1.06-.32a3.73,3.73,0,0,0-.88-3.55c-.31-.3-.73-.61-1.16-.95a12.56,12.56,0,0,1-1.15-1l-.18-.22c0-.07-.15-.14.12-.15a8.53,8.53,0,0,1,1.27,0c-.23.1,0,.37.19.31.29-.24.63-.51,1-.79-.9-.39-.67-.19-1.72-.35-.27-.33,0-.78.61-1-.3.35,0,.52.46.64s1,.18,1.31.25c-.25-.13-.33-.34-.55-.48,1,.26.73,0,.55-.35s-.33-.77.71-.73L253,99c.27-.23.5-.55.82-.82l-.19-.56a1.7,1.7,0,0,1-.74.28c-.47-.7.6-.53.47-1.17-.91.29-1.59,1.91-2.64,1.3.38-.29,1-.41,1.35-.71a2.36,2.36,0,0,0-1.92-.49h.07c-.56,0-1.12-.12-1.67-.19l.44.2a1.86,1.86,0,0,1-1.8,1.3,3.47,3.47,0,0,0-2.27.66c1.64-1.29.26-.74.39-1.63-.41-.24-1-.53-.85-.78-.68.61-1.11-.32-2,.09l1.35,4.29a2.11,2.11,0,0,0,.11-.45c.22.19.65-.5,1,.17.64-.77-.5-.25-.66-.57.31-.87,1.23-1.2,2.19-1.55a4.27,4.27,0,0,0,2.59-1.87c1.41-1.43,1.32-2.45,2.83-3.67.38.08.37.37.26.65a2.65,2.65,0,0,1-.3.52,3.6,3.6,0,0,0,2.49-1c-.09.3.17.43.54.64.67-.32.12-1.16,1.2-1.07a4.09,4.09,0,0,1-.34,1.32c.53-.38,1-.88,1.57-1.32l-1.42-2.45a4.57,4.57,0,0,1-.35.7c-.46-.19-.19-.78-.15-1.21l2.12,3.65a.44.44,0,0,0-.09.13l.11-.06-2.19-3.77c-.53.83-1.5,1.93-1.29,2.71l.69-.18c-.27.26-.57-.42-.46-.7.26-1,1.11-.59,1.35-.41l-.36.57c.69.36,1.14,0,1.48-.54l.21.37c-.72.46-1.44,1.32-2.16,1.52l.12-1.34c-.32.48-.64.94-.94,1.43-.38-.2-.83-.76-.27-1.17-1.13-.21-.64.71-1.67.42-.13-.06-.11-.14-.05-.21-.25.23-.49.48-.74.72.07-.31-.5-.72.12-.81-1.92.08-2.12,2-3.12,1.53l.09-.14c-1.9,1.55.21.9-.77,2.7-.72-.43-1.45-.85-2.2-1.24l.29.88c-.22.11-.67.32-.79,0-.41,1,.35.23.24,1-1.47,0-2.36,2.24-3.46,1.31.1.78,1.19-.29.55.82l.09.3h0c.25,1.57,1.47-.15,2.52.56-.34.8-1.4.34-.29,1.08.67-1.32,2.17.28,3.13,0,0-1.06,2-.61,3.48-1.25,0,.27,1.53.19,3,0l-1-3c-.69.16-1.37.32-1.94.42l-.06-.17c.3,1-1.42,1.49-2.38,2.1-.64-.44-.7-.7-.23-1.19l-1.28.5c.08.34-.09.6-.69,1-.25-.19-.49-.39-.71-.59a7.79,7.79,0,0,0-1.5.86c-.21.16-.42.31-.65.46,0,.19.12.36.06.57a6,6,0,0,1,1.31,1.47,17.7,17.7,0,0,0,2-.12,3.81,3.81,0,0,1,2.33.82,5.5,5.5,0,0,1-.89,0,2.47,2.47,0,0,1-1.12-.36c.22.15.94.49.9.76l-1.61-.69c.29.76,1.22.42,1.6,1-.77,0-.14.5-.77.48-.24-.17-.2-.59-.76-.83.56.74,1,1.74.78,2.26a.86.86,0,0,1,1.2.28c.25.41.24.51.24.65a.36.36,0,0,1-.17.27c-.18.13-.42.23-.42.58.49.08.36.91,1.18.63.11.33-.26.52-.44.71a1.65,1.65,0,0,1,.32.46l1.94-2.64a4.61,4.61,0,0,1-.91.1c-.29,0-.51.14-.4.56l.11.1h-.09a3.05,3.05,0,0,1-2.62-1.43,14.89,14.89,0,0,0-2.1-2.56l.23-.19c-1.07-.75-2.21-2.07-3.4-2.23l-2.75-.38L241,101.4a.55.55,0,0,0,.14.09c.17.36-.06,1.07-.45,1.08.65.82,1,.77,1.24,2.3-.92-.68-.24.52-.81-.77.38,1.3.11,1.79,1.47,2.69-.89-.09-.36,1.32.13,1.78l0-1.08a7.86,7.86,0,0,1,.9,1.75l-1,.16c.25,3,4.13,3.33,3.43,6.12,1,.28-.32-1.53.7-1.37.51,1.15-.05,3,.15,3.33a1.63,1.63,0,0,0,.32.7l5.49-3.68c-.64-.6-1.8,0-2.3-1.33-.17.36-.85,1.07-1.82.12-.52-1.13.54-2,1.14-1.5.17.23.14.4,0,.45.31.26.69.6.78,0l-.38,0c0-.67-.8-2-.11-2-.71-.61-.69-.06-.53.6-.27-1.55-1.09-2.09-1.44-3.67-.07.31-.35.69-.45.46-.56-2.31-1-.66-1.81-2.08.14-1,1.3-.19.27-1.51-.05-1,.77-.54,1.19-.29a3.56,3.56,0,0,1-.78-3l-7.05,3.42a2.75,2.75,0,0,0,.12.56l-.44-.37,7.72-3.75.15.17-.15-.17-7.73,3.75a3.54,3.54,0,0,1,.56.8l.4-.71c.11.44.28.77,0,.9.62.18.85-.87,1.83-.36,0,.69,1.19,1.44.45,2-.57-1.8-.73.6-1.58-.72a1.78,1.78,0,0,1,.49,1c-.06.11-.2,0-.3,0,0,1.94,1.3.25,2.07,1.93a.68.68,0,0,0-.5,1c-.29-.67.65-.68,1.29-.22.11,1.25.79,1.07,1,1.67l-.1-.73c.58,0,.75.6,1.21,1.32-.35.22-.54-.6-.6-.26,1.21.54-.13,2.29.87,3.29-.14.67-.91.37-1,.94a1.41,1.41,0,0,1,.42,1.42l5.84-3.74a1.83,1.83,0,0,0-1.13-1.18c-.13.82,0,.75-1.24.52l1.92,1.15-4.75,3-.18-.33.34.28L251,114.6l-1.47-.27a5,5,0,0,0,1.1.68L247,117.3a1.72,1.72,0,0,1-.33-.74c.77.55.58.54,1,0a1.18,1.18,0,0,0-.15.56l2.64-1.69c-.48-.81-1.88-.6-2.25-1.74l1.19-1.27c-.86-1.81-3-1.53-4.54-3.46l.37.74c-.7.29-1.17-.92-1.93-1.24.44-.38.22-.86.21-1.35-.13.17-.45-.13-.85-.38l-6.68-4.21,1.88,6.66c.13.46.35,1,.94,1l-.64,1.14c-.11,2,1.87,2,1.87,3.91-.68-.49-1,.39-1.58-.8.05.62,0,1.19.41,1.15a.25.25,0,0,0,0,.16l4.64-2c-.26-.42-1.66-.74-1.61-1.46-.36,0-.89.29-1.3-.28,0-.13.22-.18.22-.18-.22.18-1-.59-1.1.29a3,3,0,0,0-.48-1.77,5.89,5.89,0,0,0-.56-.78,4.12,4.12,0,0,0-.52-.54,2.75,2.75,0,0,0-1-.55,2.16,2.16,0,0,0-.93-.05,2,2,0,0,0-.9.4,2.48,2.48,0,0,0-.76,1l-.18.5c-.06.14-.12.28-.19.41a2.56,2.56,0,0,1-1.11,1.23c-.28,1.35-.66,3-1,4.12-.14-.13-.27-.1-.14-.3-1.09,1.42,1.21,1.55,0,3.17-1.22.61-.12-1.14-.67-.68-1.82-.39-.65,2.09-1.89,3l4.87.3a.75.75,0,0,1,.09-.15l.08.11-5.19-.32v-.17l-.14.12,5.46.34c.13-.43-.15-.84-.45-1.36a2.9,2.9,0,0,1-.51-1.79.44.44,0,0,0,.29,0,3.38,3.38,0,0,1-.83-2,7.34,7.34,0,0,1,0-1.24V115s0,0,0,0H233c.05,0,0,0,0,0v0l0,0-.06.06-.13.13-.22.26c-.07.08-.16.11-.22.18.16,0,.37,0,.5-.09a1.64,1.64,0,0,1,.33-.1c.17,0,.3,0,.43.25a.85.85,0,0,1-.61.09,3.18,3.18,0,0,1-.33-.09.61.61,0,0,0-.38,0,.58.58,0,0,0-.19.14s0,.09,0,.15l0,.22c.1.42.44,1.39.48,1.51-.14-.41-.29-.84-.4-1.25.18.64.52,1.63.76,2.28l0-.08c.71,1.89.71,1.92,1.58,3.92l-.09-.21c.48,1.09.4.91.92,2l.07.17,0,.08,0,0h0l.11.14h0a3.77,3.77,0,0,0,0-1.4,21.45,21.45,0,0,0-.54-2.13,4.13,4.13,0,0,1,.75,3.17c.19-.43.66-1.47.21-2.11.07.28.18.67,0,.77a18,18,0,0,1-1.21-3.72,3.9,3.9,0,0,0,1,.64c.65.17.26-1.18-.08-2.52s-.63-2.7,0-3.25a20.15,20.15,0,0,1-1.71-4.79l-5.54,2.23a20.91,20.91,0,0,0,1.1,2.49,7.41,7.41,0,0,0,2.65,2.82l4.58,2.74.64-5.36q0-.3.06-.63c-1.87.94.05-.93-1.76-.93,0-.75,0-1,.15-1.09l1.31-2.12c.58-.48.32.75.73.72.16-.8.37-1,.61-1a1.37,1.37,0,0,0,.39-.13l.1-.06s.07-.06.1,0a1.08,1.08,0,0,1,.19,0,2.39,2.39,0,0,1-.66-.17c-.11-.07-.11-.17,0-.17a1.47,1.47,0,0,0-.83,0c-.22-.24-.22-.44-.13-.51s.28,0,.46,0,.36.16.45.18.06,0-.14-.41a5.59,5.59,0,0,0,.5.69,1.85,1.85,0,0,1-.23-.68c-.1-.36-.3-1-.84-2.78a12.72,12.72,0,0,1,.65,1.76s0-.06,0-.13c.27.21.42-.16.79-.14s.88.35,1.14,1.23l-.12.51c.13,0,.44-.74.53,0-.06.19-.18.44-.13.54a.75.75,0,0,1,.4-.18.36.36,0,0,1,.42.3,1.94,1.94,0,0,0-.43.27.73.73,0,0,0,.54.57l10.39,3.29-4.31-7c-.87-1.41-2.21-2.24-3-3.7,1.21-.48.76-2.7.49-3.81l.18,0c-1.18-3.11-3.31-4.66-5.16-7.1.19-1.17-.45-2.65-1.25-4.2a33.34,33.34,0,0,1-2.28-4.67c.05.52-.89.47-1.29.09-.07-.31-.4-.56-.68-.79l-4.48,3.19c.41.27.72.5.13.87l-.13-.2c-.62,1.1.42,2,1,2.87l1.37-.74c-.13,1.79,1,3.18,2.07,4.49s2,2.54,1.44,3.67c.65.42,1,1.16,1.65,1.6l-.77.33.25.75L243.87,95a21.67,21.67,0,0,0-2.7-3.6l.78,0c-.78-1.12-2.95.08-3.75-.89l.77-1c-.91-1.18-1.48-2.64-2.35-3.86l-6.21,4a5.36,5.36,0,0,0,1.62,2,.62.62,0,0,1-.74-.15c.48,1,1.05,4.06,2.43,3-1,.49.88,2.18,1.8,3.15l-.83.14c1.37.56,1.65.49,2.46,1.76,0,.36-.51.52-.48,0,0,1.23,1.06.57,1.13,2l-.67-.31c.35,1.14.58.95,1.37,1.38a2,2,0,0,1,.39,1.25l2.68-1.51a1.65,1.65,0,0,1-.07-1.49,1.41,1.41,0,0,1-1.67-.64c.15-.26.45-.17.61-.12-1-1.94-2.77-1.68-3.18-3.27a.66.66,0,0,0,.18-.52,14.71,14.71,0,0,1,1.89,2.21c.57-.5-.26-1.61,1.25-1.5-1.17-.45-3.35-1-4.08-2.15a1.24,1.24,0,0,1,.05-.31l.16,0a1.21,1.21,0,0,0-.71-.51,3.72,3.72,0,0,0-.7-.94c.3-.58-1-1.34-1.59-1.8l0,0-5.62,4.24c.7-.3.9.46,1.22-.49l3.59-2.72v0h0l-3.59,2.71h0a0,0,0,0,1,0,0s0,0,0,0l-3.34-2.93,7,.18a1.92,1.92,0,0,1,.54.31,1.31,1.31,0,0,0,.28.12l-.08,0c.37.28.84.65,1.36,1.09-.7,0-1.34-.15-1.65-1-.44.14-.88.27-1.18.4l-2.47,1,.67.33a2.32,2.32,0,0,0,.37.14c-.73,1.26-.66,3.1-1.23,3.59,1.18,1.68,2,4.25,4,4.83.4.46-.17.78-.32,1.07-.26-.25-.39-.62-.66-.7.79.9,1.4,3.06,2.51,2.91.09,1.51-1.23-.38-.32,1.38l-.41-.12a4.48,4.48,0,0,0,.8,2.77l3.9-3.45a8.55,8.55,0,0,1-2.95-.91,4.65,4.65,0,0,1-2.2-3.38c.08.33.12.49,0,.65a11,11,0,0,0-2.32-3.12,8.91,8.91,0,0,0-3.85-2.13l-3.85-1,1.88,3.27a21.76,21.76,0,0,1,2.82,6.58l3.62-1.79c-.06-.22-.12-.44-.19-.66a2.1,2.1,0,0,0-1.14-1.35,11.64,11.64,0,0,0-1.38-.3c.11-.3.21-.6.31-.91a9.19,9.19,0,0,0-2-.14c-1.22-.22-1.92-1.09-3.12-1.74L223,99.39l-.31,3.3a3.12,3.12,0,0,0,1,3l.44-.52a8.6,8.6,0,0,0,.48,1.21l1.92-1.47c-.69-.44-1.35-.85-1-1.16-.14,0-.6.35-.73-.12l.23-.4c-.8-.21-1.59-.4-2.39-.57-1.37-1.21,1.22-1.45-1.06-2.87-1-.35-3.12-.14-2.93.31.34.2.75.73.56,1.15l-.89-.19c-.79,1.14-1.95,2.1-.62,3.89l1.65,0,.06.81-1-.56c.28.88.92.61,1.53.53a1.16,1.16,0,0,0,.13.93c.62-.13,1.24-.26,1.87-.37-.15.54-1.09.56-.47,1.31.87-.16.12-1.36,1.25-1.09.23.9-.22,1.2.74,1.21-.11.36-.38.44-.72.4a4,4,0,0,1,1.28.46l9.69,4.19-4.84-7.9a1.26,1.26,0,0,0-.85-.71c.46-1-1.06-2.29.18-2.67a2.66,2.66,0,0,1-.75-.47L224,105.23a1.22,1.22,0,0,1,.88-.35c-.59.65-.21.76.14,1s.75.51.21,1.15a1,1,0,0,1,1.22-.12,5.75,5.75,0,0,1,.9.88l5.95-2.94a4.06,4.06,0,0,0-.69-.74c.14,0,.42.1.42.26a4.71,4.71,0,0,1-.06-2c-1.09.4-2-.77-2.94-1.16.5-1.5,1.52,0,2.32-.76-.81.46-1.7-1.36-2.23-.67.23-1.08,0-.82.63-1.64a1.36,1.36,0,0,1-.25.07l-4.43,5.18c.2-.47.31-.44.43-.38s.25.17.63-.1a1.34,1.34,0,0,1-.08,1c-.06.19-.06.22.41.35C227.45,104.84,226.57,104.77,226.6,104.78Zm6.6-6h0l-.49-.41Zm1.86,1.89a9.26,9.26,0,0,0-.77-.86c.14-.26.42-.4.6-.19C234.65,99.65,235,100.23,235.06,100.68Zm-.3-8.24c.45.22.46.45.4.62a7,7,0,0,0-.7-.47l-.11,0A1,1,0,0,1,234.76,92.44Z"/><path class="a" d="M233.42,92.74a.77.77,0,0,1-.19-.08,2.42,2.42,0,0,0,.1.32l.29-.1Z"/><path class="a" d="M250.06,106.69l0,0a.3.3,0,0,1,.06.14A.52.52,0,0,1,250.06,106.69Z"/><polygon class="a" points="242.56 92.32 242.38 92.42 242.66 92.56 242.56 92.32"/><path class="a" d="M252.2,100.22a.8.8,0,0,0,.31.11A1.16,1.16,0,0,0,252.2,100.22Z"/><path class="a" d="M250.18,96.83l-.91-.16A4,4,0,0,0,250.18,96.83Z"/><path class="a" d="M245.43,96.82a2.67,2.67,0,0,0-.09.36h0Z"/><path class="a" d="M249.87,109.31a.62.62,0,0,0,.11.17C250.31,109.86,250.13,109.59,249.87,109.31Z"/><path class="a" d="M248.3,116.13a4.16,4.16,0,0,1-.77-.44C247.73,116.09,247.91,116.39,248.3,116.13Z"/><path class="a" d="M236.81,116.74h0l-.11-.13Z"/><path class="a" d="M246.92,114.7a1.61,1.61,0,0,0,.61,1A2.61,2.61,0,0,0,246.92,114.7Z"/><path class="a" d="M253.76,90.53l-.19.11a.23.23,0,0,1,.06.12Z"/><path class="a" d="M253.63,90.76l-.13.22C253.59,90.91,253.66,90.85,253.63,90.76Z"/><path class="a" d="M253.22,91.46l.28-.48C253.36,91.09,253.17,91.2,253.22,91.46Z"/><path class="a" d="M253.42,94.73l.05.3A.62.62,0,0,0,253.42,94.73Z"/><path class="a" d="M251.71,95.59c.44-.14,1.3.1,1.8-.31l0-.25C253.38,95.55,251.89,94.93,251.71,95.59Z"/><path class="a" d="M242.67,96.82c.51-.3,1-.57,1.55-.85-.43-.08-1-.19-.4-.72C241.44,95.79,244.59,95.54,242.67,96.82Z"/><path class="a" d="M246.09,100.91c-1,.16,0,.46,0,.64C246.68,101.24,246.82,101.16,246.09,100.91Z"/><path class="a" d="M240.61,103l-.71.26C240.31,103.88,240.16,103.17,240.61,103Z"/><polygon class="a" points="247.42 107.69 247.51 106.87 246.75 106.92 247.42 107.69"/><polygon class="a" points="244.81 114.05 244.56 113.84 245.38 114.74 244.81 114.05"/><path class="a" d="M232.42,110.36l1,.11C233.37,110,232.43,109.52,232.42,110.36Z"/><path class="a" d="M234.45,122.38c.12.28.44,1,.64,1.42C234.83,123.24,234.57,122.67,234.45,122.38Z"/><polygon class="a" points="232.45 89.81 231.9 89.55 232.66 90.23 232.45 89.81"/></svg>