<svg xmlns="http://www.w3.org/2000/svg" viewBox="0 0 402 246"><defs><style>.a{fill:"currentColor";}</style></defs><path class="a" d="M190.43,132.27a.12.12,0,0,0,0-.22l-.26.1Z"/><path class="a" d="M190.08,131.2c-.21,0-.51,0-.61.21.3,0,.26.06.6,0a.19.19,0,0,1,0,.3c.08,0,.12.21.29.16a.53.53,0,0,0-.45-.55C190,131.23,190,131.23,190.08,131.2Z"/><path class="a" d="M191.58,127.17l-.12-.06A.23.23,0,0,0,191.58,127.17Z"/><path class="a" d="M196.87,119.8s0,.09,0,.11S196.89,119.81,196.87,119.8Z"/><path class="a" d="M198,119.3H198S198,119.33,198,119.3Z"/><path class="a" d="M191.58,127.17a1.7,1.7,0,0,0,.32.1C191.91,127.19,191.73,127.21,191.58,127.17Z"/><path class="a" d="M188.24,130.09a.42.42,0,0,0,.14.06l-.1-.08Z"/><path class="a" d="M188,125.93h0V126A.69.69,0,0,1,188,125.93Z"/><path class="a" d="M187,125.8l-.59-.53a2.52,2.52,0,0,1,.31.32Z"/><path class="a" d="M188.49,129l.08.05Z"/><path class="a" d="M189.68,126.71a.28.28,0,0,0,0,.09A.28.28,0,0,0,189.68,126.71Z"/><path class="a" d="M189.74,136.31l0,0S189.72,136.33,189.74,136.31Z"/><path class="a" d="M187.07,138.92l0,0-.11-.06Z"/><path class="a" d="M198.49,119.75h0s0,0,0,0h0Z"/><path class="a" d="M202,132.5c.34.06-.33.42.16.45C202.1,132.88,202.39,132.47,202,132.5Z"/><path class="a" d="M188.21,130l-.08-.1A.49.49,0,0,0,188.21,130Z"/><path class="a" d="M202.17,133Z"/><path class="a" d="M198.67,126.33l.1-.07S198.72,126.28,198.67,126.33Z"/><path class="a" d="M199,121.42l0,.13A.79.79,0,0,0,199,121.42Z"/><path class="a" d="M201.06,128.53c.07,0,.1.05.2,0l0,0A.16.16,0,0,1,201.06,128.53Z"/><path class="a" d="M203.71,128.49l-.05,0h-.08Z"/><path class="a" d="M188,136.13a.93.93,0,0,1,.23,0C188.1,136.08,188.22,135.71,188,136.13Z"/><path class="a" d="M188.34,130a.15.15,0,0,1-.13,0l.07.06S188.34,130,188.34,130Z"/><path class="a" d="M201.17,126.79h.39l-.21,0Z"/><path class="a" d="M196.85,140.68l-.07-.07A.16.16,0,0,0,196.85,140.68Z"/><path class="a" d="M202.84,126.75a.63.63,0,0,0,.24.15s0,0,0-.06Z"/><path class="a" d="M188.26,136.11Z"/><path class="a" d="M189,133.39c-.17.36.18.29.3.44-.13.47-.29.11-.49.19-.06.3.09.62,0,.82-.05,0-.08,0-.12-.05.08.39-.38.85-.28,1.31h-.09a1,1,0,0,1,.39.12c-.08.17,0,.38-.18.36.05-.1,0-.14-.05-.21v.2c-.32,0,0-.27-.16-.35-.08.36-.06.85-.25,1.06-.27-.06.2-.62-.17-.39l.28-.35c-.53.12.14-.22-.4-.14-.32.48-.16.63-.48,1.11.08.18.22,0,.3.24a1,1,0,0,1-.1.29.84.84,0,0,1-.16.24,1.62,1.62,0,0,1-.38.32,1.46,1.46,0,0,0-.37.33.87.87,0,0,0-.2.52c0,.09.18.12.24.21s0,.2-.25.55H186c-.24.45-.14.48-.06.52s.14.06-.24.59c-.14,0,.15-.52,0-.35-.3.37-.33.46-.27.47s.2-.06.2,0h.06l-.41.37h.37l.18,0c.25,0,.52-.07.75-.12l.69-.15.65-.17c-.09.1-.29.22-.14.28a1,1,0,0,0,.23-.07l.23-.08.45-.14.48-.19a4.78,4.78,0,0,0,.48-.19l.5-.24.4-.18.61-.26.12-.37c.07,0,.17,0,.14.08.3-.11-.07-.12,0-.29s.27,0,.21.1c.34-.49,1-1.27,1.61-1.36l-.05.11c.2-.07.24-.23.28-.38s.1-.29.33-.29l-.05.07a1.77,1.77,0,0,0,.31-.15l.31-.14.31-.14.22-.09a.35.35,0,0,1,.3,0,.26.26,0,0,1,.08.29c.07,0,.11,0,.14,0l0,0,0,.05.08.14c.1.2.2.39.41.29a2.7,2.7,0,0,1,0,.56,2.31,2.31,0,0,0,.13.67c.07.18.39.14.55.34l-.22.12.38.2-.18.29.16.19c0-.1,0-.23.08-.25a1,1,0,0,1,.15,1l.59.73c-.1,0-.2-.1-.31-.18.22.17.17.22.12.26s0,.05,0,.08.07.14.21.28c0-.12.14,0,.19-.05a1.66,1.66,0,0,0,.1.36l.09.21.12.22a4.09,4.09,0,0,0,.56.81l-.14.11.25.35.13.18a1,1,0,0,0,.13.16c.17.19.35.38.53.56l.52.51c.18.18.37.36.55.56-.29-.43-.31-.87-.14-.72l.19.57c0-.08,0-.18-.08-.28s-.08-.17,0-.21c.26.32.33.77.19.75l.31.19c.07.18,0,.17,0,.35,0,0,0,0,.05,0l0,0,0,0a1.29,1.29,0,0,1,.09-.16.83.83,0,0,0,.07-.66l.06.12c.1-.5.15-.91.19-1.28l0-.28a.61.61,0,0,0,0-.15v-.19c0-.25,0-.51,0-.79-.21-.26-.15-.63-.3-1.06,0-.32.13-.67.2-1.07l.05-.32,0-.19a2.58,2.58,0,0,0,0-.39c-.09-.39-.18-.12-.3-.3.2,0,.2-.55.34-.27a8.56,8.56,0,0,0-.13-1.65c-.08.08-.12.18-.19.13s.1-.34.2-.31v0c-.25-.93.69-2.09.31-2.84l0,.05c-.06-.26-.12-.53-.18-.76s.14.18.28,0l0-.08s0,0,0,0a.16.16,0,0,1,0-.07.14.14,0,0,1,0-.11.27.27,0,0,1,.17-.08,1.84,1.84,0,0,0,.46-.29,1.43,1.43,0,0,0,1.24-.32,3.28,3.28,0,0,1,1.28-.6l-.1-.1c.09-.21.23,0,.37-.09-.07-.08-.24,0-.18-.13a23.73,23.73,0,0,1,2.07-1.34c.18-.1.36-.22.54-.33l.14-.08.2-.14.45-.35a19.59,19.59,0,0,0,1.76-1.5c.41-.39.22-.46.09-.54s-.2-.14.52-.65a1,1,0,0,1,.25.12l.16-.24.09-.12a.59.59,0,0,0,.08-.11c-.54,0-1-.1-1.46-.16l-1.33-.19-.68-.09q-.35,0-.69-.06l-.68,0h-.21l-.19,0c.07-.06.08-.13.19-.12-.23-.21-.91-.08-.92.08-.18,0,0-.14-.14-.23s-.63.21-.76,0c0,0,.07-.06.12-.07-.16.08-.75,0-.6.17-.44-.12-.84.08-1.19,0-.22.24-.75-.11-.82.24,0-.18-.18-.25-.41-.25a1.14,1.14,0,0,0-.61.16c.07-.11-.2-.11-.11-.26a.61.61,0,0,0-.27,0,.5.5,0,0,0-.07.19c0-.11,0-.15-.06-.16s-.08,0-.13,0-.1,0-.1-.06,0-.1.18-.14l0,0h0v0l-.07-.34c0-.22-.08-.44-.11-.65q-.1-.65-.18-1.26c.36,0,.05.91.42.87a6.21,6.21,0,0,1-.38-2c0-.2.15.12.21.18-.15-.78,0-1.51-.18-2.2,0,0,.07.07.1.14,0-.13.05-.32-.11-.3l.05.13c-.24.22-.5-.54-.62-.56.46.23.11-.69.7-.32,0-.09-.11-.21-.22-.19s.09-.17.22,0a1.37,1.37,0,0,0-.08-.26l-.05-.08,0-.09a1.12,1.12,0,0,1-.11-.53c.07,0,.12.1.21.15-.09-.17-.18-.3-.27-.46a6.19,6.19,0,0,0-.32-.54c.05,0,.06-.11.16,0a.85.85,0,0,0-.17-.16,1.45,1.45,0,0,0-1.11-.16c-.18,0-.35.08-.53.12l-.55.14c0-.21,0-.21-.14-.19s-.25.08-.34,0a2.74,2.74,0,0,0-.36.32l.23,0a1.49,1.49,0,0,0-.4.39,1.17,1.17,0,0,1-.35.35c0-.09.07-.19.12-.28a4.6,4.6,0,0,0-.45.56l.34-.23c-.07.19,0,.25.06.29s.05.08-.12.23c0-.09-.21.27-.45.33h0a.79.79,0,0,1-.21.58c-.11,0-.26-.2-.33-.19.13.27-.31.76-.16,1.06a.25.25,0,0,0-.2-.15l.12.2c-.12.12-.16.13-.26,0-.23.4.4,0,0,.45,0,0,0,0,0-.13-.31.46-.35,1-.66,1.42-.33,0,.13-.42-.17-.38a11.1,11.1,0,0,1-.78,2.09l.1-.1c.31.28-.44.36-.44.76,0-.09-.15-.21-.12-.17a2.07,2.07,0,0,0-.19.32c0,.05,0,.1-.07.16a.56.56,0,0,0,0,.12.68.68,0,0,1-.45.46,1.17,1.17,0,0,0,0-.11l-.33-.1-.19-.07a1,1,0,0,1-.21-.11c-.12.07-.28,0-.24.16a1.74,1.74,0,0,0-1.21-.67,3.33,3.33,0,0,1-.64-.16,1.4,1.4,0,0,1-.29-.16,2.66,2.66,0,0,1-.35-.29c.13,0,.34,0,.23,0l-.94-.31c.11.25.15.19.33.42a.47.47,0,0,1-.44,0c.13,0,.12-.1,0-.21a3.12,3.12,0,0,0-.36-.37c.06.09,0,.14.07.22-.3-.3-.27-.19-.23-.06s.08.27-.26,0l0-.12c-.16,0-.2.1-.42,0-.32-.34.09-.06-.07-.31-.15,0-.19,0-.24.09s-.12,0-.39-.15c0,0,.22,0,.28,0a5,5,0,0,0-.55-.4c-.11-.06-.17-.07-.31-.14h0c-.35-.24-.21.06-.22.2a.43.43,0,0,1,0-.07,3.27,3.27,0,0,1,.63,1,1.8,1.8,0,0,0,.46.81c-.32-.36-.4-.44-.43-.43s0,.09-.19,0c0,.09,0,.28-.16.17a.79.79,0,0,1,.2.43.88.88,0,0,0,.32.53c-.08,0,.15.32-.11.22.14.22.17.19.17.12s0-.17.07-.15a1.55,1.55,0,0,1,.31.46l.22.54a2.68,2.68,0,0,0,.12.3,1.55,1.55,0,0,0,.12.22.89.89,0,0,0,.39.35,1.86,1.86,0,0,0,.59.36,2,2,0,0,1,.58.31c0,.22-.32.06-.32.06a1.11,1.11,0,0,0,.5.62c-.08,0-.09.08-.1.2.16.16.31-.07.41.23a.9.9,0,0,1-.38,0c.23.15.51.26.74.41-.05.15-.26,0-.39,0,.25.19.62.51.84.44l-.07-.2c.08.08-.1.17-.18.13a.24.24,0,0,1-.15-.39l.16.11c.2-.44-.57-.52-.8-.84l.35-.09-.46-.13c0-.12.11-.28.27-.17-.05-.31-.24-.11-.25-.41,0,0,0,0,.05,0l-.24-.15c.08,0,.15-.17.21,0-.14-.48-.66-.46-.57-.76l0,0c-.47-.48-.23.09-.75-.17.1-.21.2-.41.31-.61l-.24.07c0-.06-.07-.16,0-.19-.12-.05-.15,0-.16,0s0,.07-.12,0a.9.9,0,0,0-.2-.5c-.1-.16-.15-.3.09-.26-.14-.08-.16,0-.18,0s0,0-.19-.12c.26,0,.2,0,.09-.17s-.29-.31-.19-.36c.36.26.26.34.47.29-.3-.2-.32-.3-.27-.35s.18,0,.09-.15a1,1,0,0,1-.4-.5c0-.08-.05-.16-.08-.25h0l.05,0a.11.11,0,0,0,.08,0,2.7,2.7,0,0,0,.51.37c.22.14.46.29.61.41l0,.07c-.22-.41.13-.2.32-.18,0,.21,0,.27,0,.34l.14.06c0-.1.06-.13.17-.12l0,.22a1.52,1.52,0,0,0,.32,0h.05l.08,0,.15.06a1.19,1.19,0,0,1,.3.18c.11-.18-.13-.67.4-.59,0,.11-.09.29-.23.27.05,0,.18,0,.24.06l-.26.09c.17.16.17-.1.33,0-.07.14.07.16,0,.26s-.12-.12-.2-.09a.84.84,0,0,1,.38.42.17.17,0,0,1,.23-.15c.35.14,0,.22.21.39.13-.07.3.13.4-.08.1,0,.08.16.09.23a4.07,4.07,0,0,1,.55.13.68.68,0,0,0,.28,0c.06,0,.06-.06,0-.13l-.06,0s0,0,0,0h0a5.49,5.49,0,0,0,.58,0,1.4,1.4,0,0,0,.56-.17,1.47,1.47,0,0,0,.47-.39,1.68,1.68,0,0,0,.27-.45l.06,0a3.85,3.85,0,0,0,.36-1.09c.05-.1.25-.17.31-.08.09-.29,0-.35.33-.67,0,.32.16,0-.05.31.24-.3.39-.32.39-.78.11.21.35-.15.38-.34l-.25.18a2.36,2.36,0,0,1,.26-.5l.19.2c.63-.56.12-1.51.85-1.8-.08-.26-.29.32-.41.06.18-.3.68-.44.72-.53a.38.38,0,0,0,.11-.43.41.41,0,0,1,.11-.45c-.1,0-.35-.1-.19-.45s.55,0,.48.16-.09.07-.11,0-.09.22.06.19l0-.09c.16-.07.44-.33.47-.16.1-.2,0-.18-.18-.1a1.62,1.62,0,0,0,.4-.25,1,1,0,0,1,.41-.19c-.07,0-.17-.1-.11-.12a.79.79,0,0,0,.25-.08.09.09,0,0,0,0-.08c0-.07,0-.16.17-.21a.18.18,0,0,1,.05.21c0,.06,0,.07.14,0s0,.12,0,.18-.09.12-.11.16c.1-.12.17,0,.14.07a.72.72,0,0,1-.07.15l-.08,0c.05,0,.05,0,.05,0l.18-.14s0,.08-.1.11a.93.93,0,0,0,.22-.09.31.31,0,0,1,.26,0c-.05.07,0,.13,0,.19s0,0,0,0a.17.17,0,0,1,0,.07.16.16,0,0,1-.12.1,1.37,1.37,0,0,0,0-.16s0,0,0,0-.06,0-.09,0-.17,0-.2,0a0,0,0,0,1,0,0,0,0,0,0,0,0,0l0,.08s-.05,0-.06,0c-.22.53.28.24.28.79-.14-.07-.27.13-.24.22,0-.22.23-.11.34.1-.1.35.09.38.08.56l.05-.21c.14.07.12.25.16.5-.1,0-.07-.23-.12-.14.25.27-.25.62-.08,1-.09.18-.26,0-.32.17.18.43-.19.47,0,.92.19-.13.14-.16.33.16l-.14-.74.28.47c0-.22-.13-.47-.1-.6.16.22.11.2.27.09-.28.31.17.61,0,1h-.46c-.21.53.24.94.13,1.63l.08-.22c.18.09,0,.42.1.64-.15,0-.21.12-.3.22.06,0,0,.12.08.25a.43.43,0,0,0,0,.11.93.93,0,0,0,0,.13c0,.09.09.15.17.16a1.93,1.93,0,0,0-.12.5.8.8,0,0,0,.63.62,6.07,6.07,0,0,1,.8.15c-.13.06-.13.13-.16.19s-.09.11-.37,0c.25.12.5.2.53.09a.28.28,0,0,0,.18.05l.25,0c.16,0,.32-.07.41,0s.11-.24.3-.23a.08.08,0,0,1,0,.08c0-.08.3-.12.12-.28.56.46,1.53-.07,2,.36a10.07,10.07,0,0,1,1.2-.08s0,.08-.07.06c.47.16.31-.44.86-.24.26.27-.3.11-.13.22,0,.51.66,0,1,.3l-.09,0a.27.27,0,0,0,.11.05h.06a0,0,0,0,0,0,0,.45.45,0,0,0,.13-.06.68.68,0,0,1,.39-.09.43.43,0,0,0-.07.07,3.12,3.12,0,0,1,1.46-.24,1.9,1.9,0,0,0-.66.23,1.78,1.78,0,0,0,.4-.13,1.36,1.36,0,0,1,.6-.13l-.11.1v0h0l-.09.05-.2.09a3.54,3.54,0,0,1-.43.16l.05-.05,0,0H208l-.15.08h0l0,0s0,0,0,0,0,0,0,0,.08,0,0,.07l-.23.05c0,.07.06.09.13.14s.1.12-.07.26h.15c.11.12,0,.16-.1.17s-.2,0-.19.16l-.33-.12a.86.86,0,0,0,0,.13.62.62,0,0,1-.11.22,3.29,3.29,0,0,1-.4.54,1.69,1.69,0,0,1,.19-.51l.14-.24a.25.25,0,0,0,0-.16l-.07.06-.18.18a.7.7,0,0,0-.21.35c0-.07.09-.2.19-.22a1.28,1.28,0,0,1-.2.5,1.57,1.57,0,0,1-.43.42c-.14-.27-.39-.13-.68,0s-.61.36-.86.25c-.53.58-1.34.67-2.11,1.08.48.28-.23.12,0,.53-.17.11-.25.14-.28.12a3.38,3.38,0,0,0-.76,0c-.14,0-.09-.06,0-.13s.16-.12.13-.17l-.18.06a.65.65,0,0,1-.15,0,.34.34,0,0,1-.17,0c-.08,0-.14-.08-.42.06.17,0,0,.25-.2.53a2.39,2.39,0,0,1-.16.22,1.92,1.92,0,0,1,.22-.18,1.41,1.41,0,0,1,.35-.21c-.08.12-.14.23-.2.31a4.6,4.6,0,0,1-.44.62,1.08,1.08,0,0,0-.15.36.76.76,0,0,0,0,.39,2.32,2.32,0,0,1-.14-.23,3.48,3.48,0,0,1,0,.36c0,.14,0,.29,0,.45a1.21,1.21,0,0,0,.27.8c-.06.05-.2.13-.23,0-.09.8.33,1.81.06,2.42l-.12-.07c0,.16.21.28.09.46,0,0-.12-.07-.13,0a.93.93,0,0,1,.11.61l-.13-.18a1.67,1.67,0,0,0,.07,1l.15.44c0,.14.08.32.1.39a1,1,0,0,0-.37,0,.31.31,0,0,1-.15,0l0,0s0,.14.12.4a6.82,6.82,0,0,1,.23,1c0-.1-.08-.18-.11-.24l-.11-.27c-.07-.14-.12-.22-.16-.29a2,2,0,0,1-.11-.2.77.77,0,0,1-.06-.28,1.29,1.29,0,0,1,0,.25c0,.09-.06.16-.09.15s0,0-.09-.05-.06,0,0-.2v0a1.1,1.1,0,0,0,.1-.31s0-.06,0-.09l-.37.18c.17-1-1.14-1.84-.87-2.49-.18-.14-.3-.37-.48-.5l.2-.1a5.24,5.24,0,0,0-.77-1.41l.22,0a.42.42,0,0,0-.23-.17l-.16-.07-.18,0a1.44,1.44,0,0,1-.63-.23c0-.13,0-.26.05-.39a1.76,1.76,0,0,0-.77-.29,2.21,2.21,0,0,0-.84.08,3.51,3.51,0,0,0-.64.24,1.74,1.74,0,0,0-.46.36.18.18,0,0,1,.07-.21,6.88,6.88,0,0,0-.73.33c-.23.14-.38.31-.2.47-.18-.25-.64.38-.86.7l-.08-.21a1.17,1.17,0,0,1-.36.8c-.1,0-.18-.09,0-.13-.35.11-.1.33-.5.47l0-.2c-.29.19-.23.23-.29.48a.64.64,0,0,1-.35.22.45.45,0,0,1-.37,0,.32.32,0,0,1,0,.23l-.08.12a.15.15,0,0,1-.09,0,.14.14,0,0,1,0-.15c-.17,0-.23.12-.33.24s-.23.23-.3.13,0-.14,0-.16c.2-.08.36-.16.35-.13a1,1,0,0,0-.07-.23,1.08,1.08,0,0,1,0-.32.88.88,0,0,1-.14.39c-.09.14-.23.27-.26.22l0-.1,0,0s-.05,0-.11.08,0-.08,0-.08c.19-.26,0-.12,0-.13-.19.18-.28.26-.37.33a1.35,1.35,0,0,0-.25.27s.06,0,.14-.06l.07,0,0,0,.24-.06c-.19.19-.44.36-.36.18-.27.23-.6.48-.77.6l.17-.26.07-.12.07-.07.07-.08c.2-.2.36-.36.51-.49a1.74,1.74,0,0,1,.27-.22c-.07,0,0-.09-.08-.16s-.09-.15-.27-.25c0-.1.19-.11.27-.13s0,.1,0,.11,0-.17,0-.29a.25.25,0,0,0,0-.09.59.59,0,0,0,0-.13.25.25,0,0,0-.08-.21c.3-.31.14.33.35-.2l0,.11c.91-.8.12-1.95,1.19-2.8-.07.06-.11.09-.16.08a13.14,13.14,0,0,0,1.17-2.52l-.73-.38a5.07,5.07,0,0,1-.91,1.2c-.27.29-.14.43-.14.7l-.24,0,0,.49c-.12.61-1,.59-1,1.42h.19c-.16.22-.33.78-.47.65,0,0,.11.16,0,.21l-.12-.05-.12.67c-.32.4-.4-.3-.77.34-.08.26,0,.86.08.81s.2-.22.32-.17l-.06.25c.3.21.54.55,1,.13v-.47l.22,0-.15.32c.24-.1.17-.28.15-.46a.31.31,0,0,0,.25-.06l-.11-.54c.15,0,.16.3.36.1,0-.25-.37,0-.31-.33.25-.1.34,0,.33-.26.1,0,.12.09.12.2,0-.24.22-.52.11-.71.28-.08.3-.65.59-.46a1.19,1.19,0,0,1,0-.64c.19.52.38-.62.72-.31-.19-.42.34-.91.4-1.41,0,0,0,.11,0,.14.16-.21.29-.22.44-.33-.25-.19-.1-.57-.14-.86h0l-.94-.5c-.22.09-.27,0-.32-.14l1.56.82c0,.1.06.21.19.24a.23.23,0,0,1-.09-.18l-1.77-.93c0,.18,0,.44.12.43-.27.15-.17.16-.45.17.33.2,0,.23.09.52-.32.24-.37-.07-.42.34C188.94,133.77,189,133.39,189,133.39Zm-1,7.91h0l-.24.06Zm1-.33-.2.08-.23.07a.22.22,0,0,1,.15-.2s0,.05.06.06Zm-.2-1.67c.07-.06,0,0,0,.08l-.1.05-.05,0Z"/><path class="a" d="M188.24,139.78l-.06,0a.41.41,0,0,0,0,.08l.12-.12Z"/><path class="a" d="M191.45,127.11h0l0,0Z"/><polygon class="a" points="196.37 139.95 196.42 139.93 196.35 139.89 196.37 139.95"/><path class="a" d="M187.3,124.52a.46.46,0,0,0-.1-.1A.45.45,0,0,0,187.3,124.52Z"/><path class="a" d="M185.13,123.64l-.21-.12s0,0,0,0v.09s0,0,0-.06v0s0,0,0,0l0,0Z"/><path class="a" d="M185.31,125a.54.54,0,0,0,.14.11h0Z"/><path class="a" d="M200.42,121.31s0,0,0,.06S200.46,121.41,200.42,121.31Z"/><path class="a" d="M195.72,119.93a.73.73,0,0,1,0-.25C195.67,119.78,195.61,119.86,195.72,119.93Z"/><path class="a" d="M201.13,126.78h0Z"/><path class="a" d="M196,119.41a.45.45,0,0,0-.21.27A1.09,1.09,0,0,0,196,119.41Z"/><path class="a" d="M189.09,131.09l0,.06a0,0,0,0,1,0,0Z"/><path class="a" d="M189.17,131.13l.07,0S189.19,131.12,189.17,131.13Z"/><path class="a" d="M189.39,131.25l-.15-.08S189.32,131.27,189.39,131.25Z"/><path class="a" d="M187.9,129.55l-.08,0A.13.13,0,0,0,187.9,129.55Z"/><path class="a" d="M187.51,129.1c.07.12.09.38.25.51l.06,0C187.67,129.58,187.7,129.12,187.51,129.1Z"/><path class="a" d="M187.11,126.73l.11.31c.05-.08.14-.16.23-.05,0-.1,0-.13,0-.14a.12.12,0,0,0-.08,0C187.3,126.89,187.2,126.93,187.11,126.73Z"/><path class="a" d="M186.87,125.91c.13.18.21.13.29.19C187,125.94,187,125.88,186.87,125.91Z"/><path class="a" d="M194.16,124.84l.16.12C194.39,124.77,194.26,124.92,194.16,124.84Z"/><polygon class="a" points="194.19 122.52 193.99 122.64 194.11 122.8 194.19 122.52"/><polygon class="a" points="196.01 122.02 196 122.11 196.07 121.78 196.01 122.02"/><path class="a" d="M203.24,128.68l-.06-.24C203.05,128.48,203,128.76,203.24,128.68Z"/><path class="a" d="M207.48,129.41c-.2,0-.35,0-.27.12S207.48,129.45,207.48,129.41Z"/><polygon class="a" points="199.06 140.95 199.21 141.05 199.02 140.82 199.06 140.95"/><path class="a" d="M203.62,129.1c-.09.07,0,.23.23.18L204,129C203.89,129.05,203.76,129.07,203.62,129.1Z"/><path class="a" d="M205.43,129.4c.3-.18.59-.47.35-.66-.25.3-.34.21-.61.56-.26.07-.47,0-.44-.12-.09.08-.41,0-.54.16a1.33,1.33,0,0,0,1.23-.11C205.53,129.27,205.45,129.35,205.43,129.4Z"/><path class="a" d="M201,134.77l.09.12A.47.47,0,0,0,201,134.77Z"/><path class="a" d="M199.5,137.13c0,.12.05.16.07.17S199.52,137.1,199.5,137.13Z"/><path class="a" d="M199.63,134.39l0,.16A.24.24,0,0,0,199.63,134.39Z"/><path class="a" d="M201,134.77a3.9,3.9,0,0,1-.19-.35C200.76,134.45,200.92,134.62,201,134.77Z"/><path class="a" d="M206.45,129.36a.56.56,0,0,0,.23-.05h-.21S206.46,129.35,206.45,129.36Z"/><path class="a" d="M202.34,130.64h.19l.15-.1Z"/><path class="a" d="M200.82,130.83a1.85,1.85,0,0,0,.73,0,1.81,1.81,0,0,1-.54,0A.37.37,0,0,0,200.82,130.83Z"/><path class="a" d="M205.26,128.42l.16,0Z"/><path class="a" d="M201.1,133.6a.22.22,0,0,0-.07.06A.1.1,0,0,0,201.1,133.6Z"/><path class="a" d="M191.28,127.68s0,0,0,0S191.27,127.72,191.28,127.68Z"/><path class="a" d="M187.51,125.51l.06.06a.39.39,0,0,0,.11-.06Z"/><path class="a" d="M198,133.09v0C197.94,132.94,197.94,133,198,133.09Z"/><path class="a" d="M193.71,134.24c-.44.36.21-.87-.38-.29C193.44,133.93,193.27,134.75,193.71,134.24Z"/><path class="a" d="M206.31,129.33l-.22,0A1,1,0,0,0,206.31,129.33Z"/><path class="a" d="M193.33,134h0l-.06.06Z"/><path class="a" d="M196.5,131.67c0,.13.06.28.09.42A1.89,1.89,0,0,0,196.5,131.67Z"/><path class="a" d="M198.45,134.89l0,.05S198.45,134.92,198.45,134.89Z"/><path class="a" d="M195.77,136a.84.84,0,0,0-.07-.32.13.13,0,0,0,0,.06A.38.38,0,0,1,195.77,136Z"/><path class="a" d="M192.53,134l.11-.06.15-.17Z"/><path class="a" d="M193.63,133.15a.61.61,0,0,1,.08-.31C193.6,133,193.22,132.27,193.63,133.15Z"/><path class="a" d="M206.46,129.24a.21.21,0,0,1-.15.09h.16S206.49,129.26,206.46,129.24Z"/><path class="a" d="M194.05,136.32l-.18-.73A5.14,5.14,0,0,0,194.05,136.32Z"/><path class="a" d="M199.6,124.9l0,.17A.31.31,0,0,0,199.6,124.9Z"/><path class="a" d="M193.7,135.28c0-.13,0-.18,0-.19a.25.25,0,0,0,0,.09A.19.19,0,0,1,193.7,135.28Z"/><path class="a" d="M193.71,132.83h0Z"/><path class="a" d="M191.75,128.44c.23.49.38.11.58.15a1.21,1.21,0,0,1,.14.35c0,.08,0,.12-.06.14s-.18.06-.21.2a5.33,5.33,0,0,1,.65,1.13s0,.12-.12,0a4.07,4.07,0,0,1,.42,1.09,2.84,2.84,0,0,0,.58,1.18.23.23,0,0,1,0,.11.44.44,0,0,1,.32-.26c.13.32.44.48.33.69-.09-.19-.17-.17-.27-.23l.25.28c0,.21-.12.12-.21,0s-.2-.33-.29-.29c.09.14.2.28.31.42l.36.38,1.16,1.22-.23-1.52a3.54,3.54,0,0,1,0-1c.27-.09,0,1.18.31.52l-.08.5-.34,2.14-.93-1.73-.15-.29c.06.83-.3-.49-.3.31l.14.22L195.8,137l.23-3.49c.05-.85-.12-1,0-2-.14-.23-.22.07-.36-.16-.23-1.46.7-1.13.37-2.2-.17-.28-.5-.4-.3-1.16l.29.27c.06-1-.42-.58-.18-1.61.11.19.07.78.11.63.26-.66-.15-.48-.14-1l.27-.1c0-.36,0-.74,0-1.13l-1.62.38a12.71,12.71,0,0,1,1.1,1.88c-.1,0-.25-.17-.23.1a15.31,15.31,0,0,1,1.2,4l1,5.25,1.08-5.46.06-.3-.18-.57c0-.13.12-.23.16-.09.13-.56-.15,0-.22-.32s.16-.41.22-.2c-.07-.51-.13-1.22-.17-1.94a8.53,8.53,0,0,1,.09-1.95l.07.2c.09-.82-.48-.91-.3-1.67l0,.14a19,19,0,0,0-.12-2.12l-1.34.22a12.57,12.57,0,0,1,.47,2.87c.38.16.26,1.71.73,1.71,0,.75-.07.81,0,1.36l.51,8.86,1.34-9.1a8,8,0,0,0,.08-.82c0-.39-.31-.56-.39-1l.24,0c-.1-.21-.2-.42-.31-.62l.26-.37-.11-.44c0,.18-.07.39-.14.37a3,3,0,0,1,.08-1.73c-.14-.54-.3-1.07-.47-1.59.1,0,.18.28.28.49-.4-.82.23-.21-.15-1,0,.12-.15,0-.2,0a4.67,4.67,0,0,0-.25-1.58l-1.91.39c0,.13.06.25.08.36l-.18-.09c.15,1.16.44,2.42.56,3.73,0-.48.33-.4.4,0l-.24.18c.18.23.05-.41.29.08,0,.5-.26.36-.36.08l.14.59c-.08,0-.13-.1-.23-.12.18.23-.18,1,.12,1.37l-.08,0c.07,1.3.17,1.89.2,3,.22,0,.17.44.35.76-.08.79-.27,1.66-.3,2.6.07.67.17.21.29.51-.1,0-.16.24-.21.41l1.56-.22c0-.21-.05-.36.11-.13a25.11,25.11,0,0,0-1.18-2.7c0,.18,0,.36-.09.29-.12-.24-.12-.59,0-.59l0,.06a3.59,3.59,0,0,1-.17-.34s-.06-.16-.1-.25l-.1-.28c-.14-.38-.26-.79-.39-1.23l-.82-3c-.3.43-.61.91-.9,1.42a10,10,0,0,0-.74,1.51l.05-.13-.5,1.1-.12.26-.06.12,0,.09-.12.32c-.34.52.05-.4-.28-.07-.44,1.44-1.2,2-1.6,3.14a2.52,2.52,0,0,0-.88,1l1.84-.1a2.12,2.12,0,0,1-.3-.67,4.86,4.86,0,0,1-.13-1l-2.08-.06a3.71,3.71,0,0,1-.22.83l.15-.06c.09.34-.13.38-.19.62.11,0,.17-.34.22-.13a50.55,50.55,0,0,1-.94,6.34l2.28.08c0-.67.05-1.34.1-2a1,1,0,0,0-.28-.82c-.13-.18-.23-.4,0-1l.23.38a9.52,9.52,0,0,1,.06-1.85l.41-3.39L190.36,134a9.33,9.33,0,0,0-1.24,1.89,6.76,6.76,0,0,0-.62,2.13l-.33,3.25,1.92-2.44.25-.33c0,.13,0,.19-.12.33.43-.18,1.1-1.15,1-1.26.23-.22.15,0,.34,0,.38-.24.57-1,.87-1,0,0,0,.13-.09.19.13-.26.93-.93.58-.88a3,3,0,0,0,.41-.39l.09-.1,0,0,0-.06c.05-.08.13-.19.18-.15a.34.34,0,0,1,.09-.21s.1,0,.11.05,0,.18.18,0a.7.7,0,0,0-.12.27.37.37,0,0,0,0,.17,5.82,5.82,0,0,0,.35.72c-.14-.12,0,.44-.18.3a1.94,1.94,0,0,0,.4.86l1.84,0a.19.19,0,0,0-.09,0c.12-.05.16-.07.18-.13a2.39,2.39,0,0,0,0-.27,1.07,1.07,0,0,1,0-.29s.07,0,.12.29c0-.12,0-.24,0-.38s.16,0,.29.18a2.84,2.84,0,0,1,.2.29l.06.08,0,.05.1.19.4.74c-.06.08-.18-.07-.34-.33s-.17-.29-.26-.46l0-.06v0h0v0l0,0c-.07-.11-.12-.21-.23,0a.62.62,0,0,1,.19.09l.85,1.41c.26.43.5.84.74,1.29s.48.94.79,1.59v0s0,0,0,0v0s0,0,0,0,0,.08,0,.13v.17h0c-.07-.06-.21-.26-.26-.29l.24.43.06.11v0h0V142l0-.22.07-.83.14-1.45c0-.47.08-.93.11-1.41a12.79,12.79,0,0,0,0-1.52,1.69,1.69,0,0,1,.07.53c0-.37.09-.82-.06-1l0,.41c-.13.14-.23-.41-.32-.9a4.91,4.91,0,0,0-.26-1.05c.11.19.18.22.22.13a2,2,0,0,0,.08-.46.92.92,0,0,1,.09-.43c.05-.07.14-.05.29.24a2.24,2.24,0,0,0-.08-.39c0-.11-.09-.13-.14-.12,0-.24.07-.32.21-.08-.14-.89-.29-.56-.34-1.37.07,0,.12.16.21.23a3.3,3.3,0,0,1-.37-1.27l-1.12,0c0,.06,0,.12,0,.2s-.11,0-.1-.17a27.91,27.91,0,0,1,.21,3.26c-.35-.38-.11.44-.4.51,0,.24.07.47.12.7l.12-.29a16,16,0,0,1,.23,1.66c0-.14-.11-.29-.16-.44q.08.57.18,1.14l0-.66c.22.59.36-.11.38.7a6.29,6.29,0,0,1,0,.94h0a2.88,2.88,0,0,1,.28.64l.38-.06a1.45,1.45,0,0,1,0-.37c.07-.12.33,0,.38,0-.28-.26-.23-1.37-.52-1.71.07.12.22.11.25.06l-.22-.22c0-.28.06-.32.19-.29-.05-.83-.35.3-.28-.7,0,.08,0,0,.09.2,0-1-.3-1.89-.27-2.81.28-.28.14.79.36.47-.14-1.17-.46-2.4-.51-3.55l-.74.22a2.49,2.49,0,0,1,.16.33,1.72,1.72,0,0,0-.07-.21c.22,0,.29.21.32.5a2,2,0,0,0,.24.91c-.07-.14-.28-.12-.22-.09a7.38,7.38,0,0,0,1.48,2.85l-.19-.08a2.85,2.85,0,0,0,.6.79,3.55,3.55,0,0,0,.93.61l.59.27.14-.7,0-.1c-.08-.19,0-.52-.21-.34a3.18,3.18,0,0,0,.07-2.21,2.41,2.41,0,0,0-.08-.25l0-.13,0-.08-.16-.34c-.1-.23-.21-.48-.27-.67s.09,0,.19,0l.32.11c-.12,0-.15.08-.06.09s.42-.05.68-.07a.34.34,0,0,0-.14-.15,1.48,1.48,0,0,1-.27-.12,1.1,1.1,0,0,1,.72-.16c-.29.05-.26.12-.18.2l.08.05.12.06.22.09c0-.05.05-.11,0-.17.66.35.13-.36,1-.1l-.06.09c.22,0,.42-.07.64-.09v-.16a1.81,1.81,0,0,1-.4,0c-.12-.24.37,0,.42-.21-.49-.06-1.11.21-1.42-.09l.35,0,.17,0h.17l-.08-.06-.05,0-.08-.07-.11-.09c-.07,0-.15,0-.25-.09h0a2.59,2.59,0,0,1-.36-.22.31.31,0,0,0,0,.08,2,2,0,0,1-.71.06,2,2,0,0,1-.49-.12l-.47-.16a8.78,8.78,0,0,0-.91-.19,6.8,6.8,0,0,0,.81.11c.14,0,.19,0,.22,0s0-.07.37-.08c.05-.07.14-.14.39-.12-.36,0-.36-.08-.35-.11s0,0,0-.06l-.12,0-.11,0h0l0,0-.14,0a3.67,3.67,0,0,1,.88,0s-.11-.06-.28-.06a5.09,5.09,0,0,1-.56,0c-.12-.06,0-.1.17-.13a4.55,4.55,0,0,1,.67,0,4.62,4.62,0,0,0,.58,0,.43.43,0,0,0,.31-.16c.23-.11.39-.22.61-.33l.18-.08.23-.08a5.08,5.08,0,0,1,.6-.13c.16.06.09.13,0,.19a2.13,2.13,0,0,1-.25.09,3.84,3.84,0,0,0,1.39,0c-.11.06,0,.12.13.21.39,0,.28-.26.78-.1a1.26,1.26,0,0,1-.41.27c.33,0,.66-.08,1-.11l-.09-.74-.33.19c-.15-.08.13-.24.27-.37l.12,1.11-.06,0h.06l-.13-1.15c-.46.24-1.18.51-1.29.74l.35,0c-.19.06-.14-.15,0-.22.38-.28.64-.12.69-.06l-.3.15c.2.15.47.07.76-.09v.12c-.42,0-.93.11-1.31.08l.31-.31-.72.23c-.15-.09-.25-.28.1-.31-.49-.18-.44.09-.87-.09-.05,0,0,0,0-.06l-.49.1c.1-.07-.08-.23.22-.18a1.8,1.8,0,0,0-.6,0,5.25,5.25,0,0,0-.55.09,1.37,1.37,0,0,1-.82.05l.08,0a1.76,1.76,0,0,0-.57.15c-.06,0,0,.07,0,.11s.23.15.05.32a10.09,10.09,0,0,0-1.57-.34,2.68,2.68,0,0,0,.28.18,1.37,1.37,0,0,1-.57,0c-.1.1,0,.11.07.11s.21,0,.22.08a3.37,3.37,0,0,0-.66.06l-.54.13a3.52,3.52,0,0,1-1.19.16h-.12a.8.8,0,0,0,.34,0c.25,0,.47-.07.34,0s0,0,0,0h0c-.45,0-.21.11.12.22s.74.24.81.37c-.61-.06-.92-.34-.75-.06a1.84,1.84,0,0,1,.95.34,1.87,1.87,0,0,0,.66.41,2.13,2.13,0,0,1,1,.16,7.63,7.63,0,0,0,1.36.37s.14.1.47.2l.49.14.53.14.08-.85c-.28,0-.55-.07-.75-.11l0,0c-.08.14-.3.19-.58.21h-.89c0-.17.18-.23.46-.29l-.63,0a1.89,1.89,0,0,1-.77.14,1.6,1.6,0,0,1,.05-.21c-.29,0-.57,0-.84,0l-.4,0h-.25s0,0,0,0l0,.06a6.43,6.43,0,0,1,.55,1.33c.12.06.2-.12.35-.12s.32.12.5.5a.35.35,0,0,1-.42-.22,1.11,1.11,0,0,1,.19.47l-.32-.41c0,.23.1.3.15.34a.33.33,0,0,1,.16.25c-.15,0-.06.24-.19.22a.39.39,0,0,1,0-.17.61.61,0,0,0-.08-.26,2.13,2.13,0,0,1,0,.59.8.8,0,0,1-.09.37c.08,0,.21,0,.25.22.06.64-.16.23-.23.6.12.15,0,.54.22.57,0,.18-.13.21-.2.27a.94.94,0,0,1,0,.3l.76-.44a2,2,0,0,1-.55-.25c-.15-.09-.25-.12-.21,0l0,.07,0,0h0a1.71,1.71,0,0,1-.59-.55,3,3,0,0,1-.38-.76c-.2-.53-.31-1.1-.53-1.63l.07,0c-.14-.29-.27-.64-.42-1a2.71,2.71,0,0,0-.52-.79l-.57-.54.18.66a.14.14,0,0,0,0,.07c0,.2-.12.48-.21.4a3.35,3.35,0,0,1,.09,1.33c-.17-.51-.11.19-.13-.53a2.9,2.9,0,0,0,.12,1.56c-.22-.24-.22.52-.13.84l.1-.48a7.07,7.07,0,0,1,.08,1l-.28-.16c-.2,1.42.76,2.45.35,3.55.22.35,0-.76.29-.46a10.34,10.34,0,0,1-.23,1.54,1.53,1.53,0,0,0,0,.39l1.74-.32c-.15-.44-.51-.46-.55-1.19-.07.12-.3.27-.48-.38s.3-.81.41-.43c0,.15,0,.22,0,.22.06.19.14.44.21.19l-.11-.07c.05-.31,0-1.15.14-1-.13-.45-.17-.18-.19.17.07-.8-.08-1.24,0-2.07-.05.14-.16.26-.16.13.11-1.21-.18-.53-.22-1.36.15-.47.34.17.23-.66.11-.51.25-.1.32.1a3.32,3.32,0,0,1,.15-1.56l-2.09.08a1.45,1.45,0,0,0,0,.29l-.09-.28,2.29-.09,0,.11,0-.11-2.29.09a3.55,3.55,0,0,1,.08.51l.16-.24c0,.23,0,.43-.07.43.14.23.29-.21.5.25-.07.31.17.93-.07,1.06,0-1-.24.12-.34-.7a1.74,1.74,0,0,1,0,.58s-.06,0-.07-.09a1.16,1.16,0,0,0,0,.47c0,.09.07.17.11.16a.28.28,0,0,1,.23.28.38.38,0,0,0-.18-.08s-.07,0-.06,0,.24.09.35.37c-.06.08,0,.17,0,.28a1,1,0,0,1,.06.3l.06-.11a1.94,1.94,0,0,1,.15.84c-.11-.22-.07-.41-.12-.41.12.4.05.47,0,.44s-.08-.05-.11,0,0,.09,0,.32a2.65,2.65,0,0,1-.16-.53,4.14,4.14,0,0,0-.15-.5c.08.43,0,.33,0,.16s0-.11,0-.07a1.72,1.72,0,0,1,.13.38,2.41,2.41,0,0,0,0,.45,4.84,4.84,0,0,1,.08.56,2.42,2.42,0,0,0-.06-.28l0-.19s0-.06,0-.11v-.13c0,.12,0,.25,0,.36s.05.21.06.31a3.27,3.27,0,0,1,.07.48s0-.05,0-.15a.35.35,0,0,1,0-.12v-.12c0-.07,0-.11,0-.11a4.35,4.35,0,0,0,.22,1.15.73.73,0,0,0-.08-.16h0v0s0,0,0-.05,0,0,0,.06,0,.08-.05,0a.54.54,0,0,1-.09-.28l.06-1s.09.05.13.15a.9.9,0,0,1,0,.16.15.15,0,0,1,0,.07h0l0,0,0-.06-.07-.12c-.19-.32-.37-.63-.55-1a11.48,11.48,0,0,1-.55-1.19l.22.67c-.09,0-.21-.22-.33-.52a7.74,7.74,0,0,0-.4-.85,4.51,4.51,0,0,0-.23-1.25c0,.16-.14-.18-.3-.47a4.59,4.59,0,0,0-.2,1.37,2.68,2.68,0,0,0-.32.34,6,6,0,0,0-.28,1c-.05.31-.08.58-.11.84s0,.5-.07.74a3.45,3.45,0,0,1-.18.76c0-.21-.1-.21-.15-.25s-.09-.14,0-.67c-.15.48-.32.91-.22.95a.28.28,0,0,0-.05.11h1.34c0-.24-.44-.74-.38-1-.11-.11-.27-.11-.36-.45,0-.05.07,0,.07,0s-.1-.12-.16-.21-.14-.16-.17,0a3.49,3.49,0,0,0-.13-1.14,2.18,2.18,0,0,0-.22-.54.9.9,0,0,0-.34-.39.45.45,0,0,0-.28-.07.64.64,0,0,0-.24.1l-.41.27-.41.32a2.42,2.42,0,0,1-.4.25l-.26.3-.1.12-.09.11-.36.43-.7.8c0-.07-.06-.06,0-.13-.71.53,0,.69-.85,1.3-.53.19.26-.48,0-.31-.45-.25-.75.82-1.37,1.15l1.15.59,0-.06v.07l-1.24-.63.05-.07-.07,0,1.3.67a2.83,2.83,0,0,0,.13-.79,2.7,2.7,0,0,1,.26-1s0,.06.07,0a3.45,3.45,0,0,1,.7-1.75l-.5-.22,0,.47c-.16-.27-.05-.38-.28-.25,0,.36.34-.06.31.66-.14.22-.28.73-.5.78,0-.23,0-.46,0-.68-.32.32-.07.89-.14,1.24l-.12-.05a3.24,3.24,0,0,0,.13,1.08,3.8,3.8,0,0,1,.13,1.14l.09-.12c.31.61-.17.52.08,1.12l-.27.18-2.47,1.64,3.59-1.6,0,0a20,20,0,0,1-.11-2.15,9,9,0,0,1,.27,1.82,4.59,4.59,0,0,0,0-1.57,1.3,1.3,0,0,1,0,.52,4.27,4.27,0,0,1-.14-2c.58.21.39-2,.92-2.55a8.59,8.59,0,0,1,.13-1.68l-1.59-.05a9.73,9.73,0,0,0,.06,1.28,3.4,3.4,0,0,0,.57,1.52l.84,1.18.71-1.26.16-.29c-.69.27.23-.42-.24-.57.16-.34.24-.46.29-.48l.82-.86c.26-.16-.09.37,0,.39.45-.7.35-.2.74-.61-.21,0-.07-.38.22-.75l-.52.46c.36-1.13.85-.67,1.21-1.81l0,.4.11-.25.07-.15v0l0-.12c0-.11,0-.3.11-.82a1.3,1.3,0,0,1,0,.48l0-.06s.06.05.1.08a.67.67,0,0,1,.18.17,1.41,1.41,0,0,1,.24.49,3.46,3.46,0,0,1,.22.82l-.14-.06c.12.24.36.36.36.72-.05,0-.15-.06-.11.06a2.82,2.82,0,0,1,.49,1l-.23-.24a4.75,4.75,0,0,0,.36,1l2.09,4.31-.21-4.57c0-.82-.26-1.46-.29-2.31.34,0,.49-1.11.54-1.67l0,0a20.85,20.85,0,0,0-.57-4.34,6.49,6.49,0,0,0,.05-2.17c-.08-.88-.21-1.82-.22-2.6,0,.24-.27,0-.35-.26a1.67,1.67,0,0,0-.11-.51l-1.44.3c.1.22.17.41,0,.42l0-.12c-.24.33,0,1,.1,1.54h.42a7.07,7.07,0,0,0,.22,2.55,3.51,3.51,0,0,1,.06,2c.12.34.14.78.26,1.12h-.23v.41l2-.26a21.55,21.55,0,0,0-.53-2.23l.21.2c-.15-.67-.82-.7-1-1.32l.28-.26c-.18-.74-.25-1.52-.42-2.26l-1.94.32a5.3,5.3,0,0,0,.23,1.29.24.24,0,0,1-.17-.24c0,.56-.14,2.16.31,1.95-.29,0,0,1.22.11,1.87l-.22-.1a2.33,2.33,0,0,1,.39,1.33c0,.18-.18.15-.11-.09-.14.6.18.48,0,1.2l-.12-.28a1.3,1.3,0,0,0,.15.93,1.78,1.78,0,0,1-.06.67l.81-.08c0-.3,0-.57.06-.65a1,1,0,0,1-.45-.7c0-.07.14.05.18.11-.18-1.06-.73-1.42-.77-2.17a.16.16,0,0,0,.07-.17,11.81,11.81,0,0,1,.46,1.4c.19-.07,0-.73.44-.3a7.73,7.73,0,0,1-1.11-1.91.23.23,0,0,1,0-.11l0,.06a1,1,0,0,0-.19-.38,2.85,2.85,0,0,0-.18-.54c.12-.15-.27-.77-.43-1.09h0l-1.82.43c.2,0,.16.4.34,0l1.17-.28-1.17.28h0l1.17-.28h0l-1.16.28h0l-.37-1.59,1.55,1.31a1.84,1.84,0,0,1,.16.25l.09.13,0,0c.11.2.25.47.39.77a1.37,1.37,0,0,1-.49-.81l-.4-.17-.75-.25.17.39.07.14c-.32.45-.51,1.33-.7,1.45.09,1,0,2.41.41,3.06,0,.29-.13.33-.2.44,0-.17,0-.37-.08-.46.09.58,0,1.72.28,1.86-.15.73-.26-.41-.24.59l-.08-.14a4.2,4.2,0,0,0-.12,1.47l1.32-.43a5.35,5.35,0,0,1-1-1.32,4.1,4.1,0,0,1-.44-2c0,.16,0,.23,0,.28a7,7,0,0,0-.49-1.85,4.22,4.22,0,0,0-1.22-1.66l-.81-.65.08,1a20.39,20.39,0,0,1,.06,3.66l1.08-.05,0-.31a1.4,1.4,0,0,0-.21-.78,4.76,4.76,0,0,0-.39-.44l.14-.26a4.11,4.11,0,0,0-.66-.54c-.43-.39-.68-.83-1.11-1.24l-.47-.45-.26.84a2.85,2.85,0,0,0-.11,1.59l.17-.16a6.36,6.36,0,0,0,0,.67l.63-.15c-.22-.36-.44-.68-.32-.7-.05,0-.22-.05-.25-.25l.1-.08c-.28-.29-.55-.57-.84-.85s-.1-.44,0-.52.14-.2-.26-.75c-.34-.38-1.16-.89-1.11-.69s.26.44.17.53l-.33-.31c-.34.17-.82.15-.36,1.14.21.15.42.3.62.46v.3l-.38-.5c.08.38.33.48.56.62a.53.53,0,0,0,0,.37l.7.4c-.07.16-.41-.11-.21.34.32.2.09-.45.49,0,.05.4-.12.38.23.66-.05.1-.15.05-.27-.06a3.54,3.54,0,0,1,.44.54l1.7,2.23-.12-2.62a.82.82,0,0,0-.12-.5c.23-.37,0-1.29.37-1.23a1.61,1.61,0,0,1-.13-.37l-1.28.69a1.13,1.13,0,0,1,.51.19c-.33,0-.12.16.07.38s.37.52.15.58a.81.81,0,0,1,.5.48,3.53,3.53,0,0,1,.24.86l1.77-.08c0-.18-.06-.34-.1-.49a.33.33,0,0,1,.08.21,3.51,3.51,0,0,1,.17-.92c-.31-.05-.41-.78-.62-1.17.27-.59.38.33.65.14-.24,0-.29-1-.49-.79.17-.45.07-.38.32-.62l-.07,0-1.63.79c.11-.08.17,0,.24,0a.58.58,0,0,0,.31.21.61.61,0,0,1,0,.28.48.48,0,0,1-.05.12c0,.07,0,.09.17.33C192.09,128.81,191.75,128.43,191.75,128.44Zm3.82-1.1h0c-.06-.13-.1-.24-.14-.31Zm.48,1.29c-.05-.16-.11-.36-.19-.57s.14-.05.19.08C196,128.09,196.05,128.41,196.05,128.63Zm.27-3.36c.13.19.12.28.1.33a3.6,3.6,0,0,0-.2-.35l0,0A.25.25,0,0,1,196.32,125.27Z"/><path class="a" d="M195.87,125l-.06-.07a.78.78,0,0,1,0,.14l.1,0Z"/><path class="a" d="M201.15,134.91l0,0a.14.14,0,0,1,0,.06S201.15,134.93,201.15,134.91Z"/><polygon class="a" points="199.85 126.49 199.8 126.5 199.85 126.62 199.85 126.49"/><path class="a" d="M203.22,131.68a.17.17,0,0,0,.1.07S203.27,131.71,203.22,131.68Z"/><path class="a" d="M203.6,130.59a1.41,1.41,0,0,1-.18-.14A.47.47,0,0,0,203.6,130.59Z"/><path class="a" d="M202.39,130.05h0Z"/><path class="a" d="M199.88,137.13v.17C199.9,137.72,199.9,137.45,199.88,137.13Z"/><path class="a" d="M198.89,138.69c-.06-.12-.13-.24-.18-.37C198.74,138.54,198.77,138.71,198.89,138.69Z"/><path class="a" d="M194.06,136.4h0l0-.08Z"/><path class="a" d="M198.63,137.75a1.67,1.67,0,0,0,.08.57A2.18,2.18,0,0,0,198.63,137.75Z"/><path class="a" d="M206.56,128.48l-.12,0a0,0,0,0,1,0,0Z"/><path class="a" d="M206.44,128.54l-.12.06C206.38,128.59,206.43,128.57,206.44,128.54Z"/><path class="a" d="M206.07,128.72l.25-.12C206.23,128.62,206.11,128.65,206.07,128.72Z"/><path class="a" d="M205.38,129.24l0,.08A.2.2,0,0,0,205.38,129.24Z"/><path class="a" d="M204.37,129.27a4.16,4.16,0,0,0,.93.11l0-.06C205.18,129.43,204.6,129.12,204.37,129.27Z"/><path class="a" d="M199.17,129.11l1.12-.21c-.34,0-.82,0-.39-.12a5.59,5.59,0,0,0-.7.09s.05,0,.16,0S199.86,129,199.17,129.11Z"/><path class="a" d="M200.07,130.37c-.58-.23-.23,0-.35,0C200.2,130.54,200.31,130.56,200.07,130.37Z"/><path class="a" d="M198.13,131l-.21,0C198,131.35,198,131,198.13,131Z"/><polygon class="a" points="199.42 134.66 199.51 134.3 199.31 134.15 199.42 134.66"/><polygon class="a" points="198.19 136.98 198.15 136.83 198.28 137.42 198.19 136.98"/><path class="a" d="M193.37,132.87a1.42,1.42,0,0,1,.14.23.54.54,0,0,0,.19-.31C193.69,132.72,193.6,132.68,193.37,132.87Z"/><path class="a" d="M190.25,138.85a.87.87,0,0,0-.07.81C190.18,139.33,190.28,139,190.25,138.85Z"/><polygon class="a" points="197.43 123.02 197.3 122.77 197.46 123.27 197.43 123.02"/></svg>
