<svg xmlns="http://www.w3.org/2000/svg" viewBox="0 0 402 246"><defs><style>.a{fill:#f69322;}</style></defs><path class="a" d="M195.24,116.05c.25,0,.48-.37.1-.64l-.74.26Z"/><path class="a" d="M194,112.91c-.63-.15-1.5-.17-1.72.54.86-.1.75.2,1.74,0,.38.27.4.73.16.86.25,0,.39.62.89.49a1.71,1.71,0,0,0-1.44-1.62C193.63,113,193.88,113,194,112.91Z"/><path class="a" d="M184.65,121.8h.24A.65.65,0,0,0,184.65,121.8Z"/><path class="a" d="M163.35,131.38a4.46,4.46,0,0,0-.93,0A4.57,4.57,0,0,0,163.35,131.38Z"/><path class="a" d="M168.55,132.81l-.36-.09C168.23,132.79,168.34,132.84,168.55,132.81Z"/><path class="a" d="M184.65,121.8l-.58,0C184.11,122,184.38,121.83,184.65,121.8Z"/><path class="a" d="M189,110.23a.33.33,0,0,0,.23,0l-.17-.06Z"/><path class="a" d="M183.3,112.91l-.1-.32a4.2,4.2,0,0,0-.38-.24C183,112.55,183.14,112.73,183.3,112.91Z"/><path class="a" d="M179.07,99.49A24,24,0,0,0,180.7,102a10.48,10.48,0,0,1-.91-1.56Q179.49,100,179.07,99.49Z"/><path class="a" d="M188.21,106l.22.11C188.37,106.07,188.27,106,188.21,106Z"/><path class="a" d="M185.13,119.33a.81.81,0,0,0-.2.08A.5.5,0,0,0,185.13,119.33Z"/><path class="a" d="M206.53,110.52l-.07-.08S206.51,110.53,206.53,110.52Z"/><path class="a" d="M196.16,114.92l.1-.12c-.06-.1-.12-.2-.18-.28Z"/><path class="a" d="M180.85,135.11h0C180.58,135.14,180.71,135.14,180.85,135.11Z"/><path class="a" d="M212.51,145.38c-.46-.86.05-.59.42-.47s.62.12,0-.91c0,.2-.32.17-.61.23S211.88,144.48,212.51,145.38Z"/><path class="a" d="M188.9,110.06a.86.86,0,0,1-.14-.13C188.82,110,188.86,110.05,188.9,110.06Z"/><path class="a" d="M213,144h0l-.11-.2Z"/><path class="a" d="M190.23,139.81a3.17,3.17,0,0,0,.32-.16C190.48,139.65,190.41,139.64,190.23,139.81Z"/><path class="a" d="M186.11,134.53l.35.13A1.09,1.09,0,0,0,186.11,134.53Z"/><path class="a" d="M188.12,151.31a2.65,2.65,0,0,0-.28.89l.15-.27C187.9,152,187.89,151.83,188.12,151.31Z"/><path class="a" d="M185.08,163.06l.31-.72,0-.24Z"/><path class="a" d="M208.93,109.28l1.25-1.17C209.22,109,209,109,208.93,109.28Z"/><path class="a" d="M189.09,109.89c-.08.13-.14.18-.19.17a.41.41,0,0,0,.11.07A.67.67,0,0,0,189.09,109.89Z"/><path class="a" d="M195.43,142.16l-.19.37C195.35,142.33,195.41,142.21,195.43,142.16Z"/><path class="a" d="M224.93,128.41l-.09-.06C224.77,128.34,224.79,128.36,224.93,128.41Z"/><path class="a" d="M195.27,142.78c-.42.76-.68,1.26-.85,1.61l.3-.53Z"/><path class="a" d="M210.19,108.1h0Z"/><path class="a" d="M207,110.88c4.63-5.54,2.83-3.39,3.9-4.68l.21-.21a16.12,16.12,0,0,1-1.23,1.52L207.8,110c.31-.35,1-1.12,1.55-1.72s1-1,.9-.88c-.38.42-.52.59-1,1,.82-.85.71-.62.66-.48s0,.24.72-.33l-.48.46c.93-.86,1.86-1.73,2.49-2.28-.08.16.1.08.15.13s-.05.18-.62.69c.15-.24-.28.12-.58.33a1.74,1.74,0,0,1,.29-.07c-1.7,1.55-.3,0-1.5,1.07.14,0,.43-.1.57,0s.13.3-.19.66c-1.29.85.08-.65-1.38.66.26-.27.53-.57.82-.91-.64.57-.92.79-1.05.9s-.1,0-.07,0,0-.08-.11,0l-1.11.93c-.27.27-.11.17,0,.14s.22,0,0,.22c.29-.1.51-.19.73-.29a3.1,3.1,0,0,1,.72-.26c.12.16,0,.4-.27.57a2.45,2.45,0,0,1-.83.35c-.28.07-.53.1-.65.13s-.11,0,.07.22c.45.2,1.07,1,0,1.86l-.51-.79a1.48,1.48,0,0,0-.21,1.42,1,1,0,0,1,0,.53,4.55,4.55,0,0,1-.75,1.11,1.42,1.42,0,0,1,.08-.53l.12-.32c0-.1.1-.24.11-.28.09-.25.17-.43.07-.34a2,2,0,0,0-.33.25,2.8,2.8,0,0,0-.24.36.91.91,0,0,0-.08.56,1.34,1.34,0,0,1-.09,1.17q-.47.08-.93.18c-.68,1.36-1.26,2.74-1.77,4,1.81.37,3.49.7,5,1.1-.29.14-1,.16-.4.58.54.11,1.08.24,1.61.38l.65.17.47.14c.64.19,1.27.42,1.89.67,1.25.51,2.45,1.11,3.56,1.67l1.07-.34c.21.07.3.39,0,.44.84.51.17-.37.68-.47.53.11.57.55.19.64a17.86,17.86,0,0,1,3.3.27,11.09,11.09,0,0,1,1.72.45c.24.11.42.25.45.44a1.71,1.71,0,0,0-.23.13c.1.16.45-.07.91-.23s1-.24.91,0l-.27,0a4,4,0,0,0,.89.35l1,.3c.62.2,1.06.43-.36.5,1.74,0,1.69.14,1.7.21s.16.12,3.11.35h-.33c-1.65-.05-2.58-.11-3.45-.17l-2.59-.16c-.15,0,.51.09,1.19.22a7.2,7.2,0,0,1,1.4.34l-2.08-.37a15.74,15.74,0,0,1,1.7.46c-.83-.15-1.62-.31-2.37-.47l.26.14c.16,0,.94.17,1.43.29.15.13-.49.1-1.09,0a7.68,7.68,0,0,1-1.52-.43.42.42,0,0,1,.08.56c-.25-.24-.23-.33-.37-.48.25.3,0,.16-.18,0s-.36-.32-.19,0a2.65,2.65,0,0,1,.39.48,1.37,1.37,0,0,0-.59-.25h-.11l-.05,0-.21,0c-.31.06-.6.13-.88.21l.15-.48c-.51,0-1,.12-1.55.21l-2.32.41c-2,.35-4,.72-6,1,1.77,0,2.25.69,1.4.89l-1-.37-.23,0c.44.5.42.28.46.18.22,0,.39.06.35.19a5.58,5.58,0,0,1,.41.52c.37,1.09-.7.37-1.36-.62l1,1.81c-.22,0-.53-.44-.91-.68a4.3,4.3,0,0,1,.69,1.94,4.06,4.06,0,0,0,1.06,2.23l-.17.13.59,1.42,0,.08h0v0l0,0,.15.16a2,2,0,0,1,.36.47,6.08,6.08,0,0,1,1.55,1.25.33.33,0,0,1-.32.28c-.14,0-.26,0-.12.3.37.49.65.84.93,1.17s.55.62,1,1.18a6.92,6.92,0,0,0-.93-.94,7.4,7.4,0,0,1-.83-1c.21.38.34.64.6,1.08l1.44,2.44c.56.78.76,1,1.29,1.79.17.29.07.21-.17-.1s-.61-.85-1-1.4l-.18-.28a9.28,9.28,0,0,1,.74,1.34c-.24-.27-.74-.94-1.25-1.66s-1-1.51-1.43-2.1c-.81-1.22-1-1.65-.49-.42l-.06-.14a2.64,2.64,0,0,1,.19,1,1.86,1.86,0,0,1-.33-.74,8.33,8.33,0,0,0-.44-1.14c.12.46.07.56,0,.53a1.4,1.4,0,0,1-.33-.37,3.09,3.09,0,0,0-.3-.43.28.28,0,0,0-.34,0c0-.59,0-.85,0-1a.19.19,0,0,0,0-.08l0,0-.15-.16c-.25-.25-.52-.5-.8-.75-.55-.5-1.13-1-1.62-1.51a7.76,7.76,0,0,1-.65-.79l-.26-.42c-.16-.23-.31-.47-.45-.7,0,.15,0,.31-.08.46a1.33,1.33,0,0,1-.76-.76,4,4,0,0,0-.47-.95c0,.38.6,1.11.07.86-1.26-1.15-2.44-2.33-3.66-3.61-.94,1.3-1.9,2.56-2.92,3.86l-.78,1-.39.5c-.13.16-.29.36-.35.42l-1,1.09c-.65.73-1.3,1.45-1.94,2.18l-1,1.09-.46.55s-.1.12-.1.11h0a2.94,2.94,0,0,1,.41.88,1.49,1.49,0,0,1,.08.63c0,.15-.15.24-.29.05a8.73,8.73,0,0,0-.09-1.09,2.41,2.41,0,0,1-.22.94,2.1,2.1,0,0,1-.35.53,2.21,2.21,0,0,0-.34.5c-.15.26-.35.69-.78,1.6.28-.68.6-1.49.63-1.53.32-.9.31-.9.07-.37l-1.12,2.53c0-.08.7-1.64,1.08-2.55.27-.64-.08.13-.43.86s-.67,1.38-.09.12l.51-1.07-.25.51c-.13.24.15-.44-.93,1.84.36-.82.24-.64.17-.57s-.14.09.25-.69c-.64,1.13-.43.63-.31.34s.17-.43-.66.92c1.77-3,1.49-2.61.85-2a7.55,7.55,0,0,0,.51-.7,9.09,9.09,0,0,1,.62-.83s-.05,0-.2.11-.37.34-.74.74c.46-.58.59-.75.6-.84s-.1-.05-.2-.08-.26-.35.58-.65a.52.52,0,0,1-.15-.17.43.43,0,0,1,0-.12l0-.07v-.21c.06-.68.13-1.36.21-2l.06-.49,0-.12,0-.19.07-.39.27-1.49c.17-.94.34-1.86.52-2.78.57-.27.3.86,0,1.94s-.49,2.13.05,2.11c.39-2.41.42-3.95.55-5.38a23.05,23.05,0,0,1-4.45-.37c-.44-.12-.28-.2.08-.27s.91-.11,1.14-.17c-1.08,0-2.07-.11-3-.21-.59-.05-1.15-.13-1.71-.2a13.51,13.51,0,0,0-3.29-.14c0-.09.26-.16.48-.2-.42,0-1-.26-1,.18l.42-.07c.59.72-1.82,1.12-1.93,1.45.86-1.17-2.06-.57-.74-2-.28,0-.65.21-.62.51-.4-.13-.51-.32-.05-.6-1.53,0-1,.58-2.41.41,0-.21.32-.26.49-.49a6.12,6.12,0,0,1-1.16.41,2.77,2.77,0,0,1-.66.05.91.91,0,0,1-.42-.09c.07-.11.07-.28.22-.26a11.7,11.7,0,0,0-1.78.31,3.68,3.68,0,0,1-2-.07c2.06-.68.12-.3,1.75-.9l-1,.12-.7.3a10.46,10.46,0,0,0-1.43.07c-.57.05-1.12.06-1-.06l1.41-.16-1.51,0a1.39,1.39,0,0,0-.34.27,21.52,21.52,0,0,0-2.39.34c-.58.1-.95.15-1.17,0,.55,0-.91-.12.54-.42h0c-1.35.09-3,.16-2.75,0,.49-.07,1.51-.17,2.48-.26l2.22-.22c-.69.05-1.19.08-1.6.09s0-.12.06-.2,0-.15-.92-.15c.49,0,2.14-.09,2.52-.12l-1.83,0a18.25,18.25,0,0,1,2.51-.2c.56-.13-.38-.09-1.18,0s-1.42.06-.07-.15c.06,0,.37,0,.47.07a3.57,3.57,0,0,0,1.46-.54,3.84,3.84,0,0,1,1.53-.53c2,.21-.37.33,1.48.44.3-.18.38-.46.78-.8a4.13,4.13,0,0,1,1.82-.88h-.31c-.11-.26-.06-.39.08-.45a1,1,0,0,1,.26,0l.34,0a2,2,0,0,0,1.66-.29c-.23.17-.14.71-.11.57,1.47-.29,2.81-1.22,4.84-2.27l-.17.37.36,0,.51-.11,1.17-.33c.8-.24,1.59-.5,2.31-.66,0-.23.4-.39.29-.5s-.09-.09-.13-.07-.14-.06-.31-.09h.13a4.49,4.49,0,0,0-.19-2.51,13.35,13.35,0,0,0-.5-1.38l-.13-.32-.12-.23-.24-.46c-.64-1.21-1.29-2.37-1-3.8.1.29.46.63.39.39l-.45-1-.23-.51c-.07-.15-.11-.21-.17-.33-.23.09-.29.16-.33.25l-.05.17a2.08,2.08,0,0,1-.11.33,1.17,1.17,0,0,1-.27-.2,1.34,1.34,0,0,1-.26-.27,2.57,2.57,0,0,1-.39-.73c.32.46.51.4.67.26s.27-.4.38-.51c-.15,0-.36-.1-.52-.1.36-.34.08-.39-.28-.59a1.52,1.52,0,0,1-.51-.37.72.72,0,0,1-.13-.66l.34.24a8.08,8.08,0,0,1-1-1.87c.73.42.53.83,1.17,1.3a14.65,14.65,0,0,0-1-1.56c-.39-.61-.7-1.23-.37-1.11.35.58.49,1,.81,1.52.38.1.53.16.57.1s0-.19,0-.3v0a.56.56,0,0,1,.24-.26,1.77,1.77,0,0,0-.24-.17,10.54,10.54,0,0,1-1.79-3,7.63,7.63,0,0,0-.3-.86c-.18-.4-.47-1-1.06-2.08.56,1,.9,1.62,1.12,2a4.21,4.21,0,0,0,.42.63,8.58,8.58,0,0,1,.88,1.21,6.84,6.84,0,0,1,1,1.34c-.44-.76-.45-.85-.38-.79s.22.25.06-.08a6.51,6.51,0,0,0-.4-.83,21.53,21.53,0,0,1,1.27,2.07,3.77,3.77,0,0,0-.44-.85c-.25-.39-.57-.89-.81-1.32s-.08-.38.16-.1.59.79.9,1.24a9.49,9.49,0,0,0,.76,1c.18.18.25.14.26-.21.21-.07.31-.37.48-.59s.41-.34,1,0c.21.46.12.65,0,.76a.49.49,0,0,1-.22.14c.55,1,.8,1.18,1.36,1.4-.15.11-.09.39-.06.76.31.24.57-.51.89.26-.23.1-.55.31-.78.4l.33.09.19,0a.92.92,0,0,1,.24.09,9.25,9.25,0,0,1,1.12.6c-.1.41-.74,0-1.12,0,.77.54,1.93,1.48,2.54,1.28l-.27-.57c.26.22-.23.47-.48.37a.75.75,0,0,1-.55-1.14l.51.33c.23-.65-.22-1-.82-1.37s-1.21-.47-1.52-.84a3.54,3.54,0,0,1,.71-.55,3.28,3.28,0,0,0-1.07,0c-.09-.42-.16-1.2.32-.9-.26-.59-.45-.66-.58-.7s-.26-.06-.54-.7c-.07-.18,0-.21,0-.2l-.64-.27c.1-.16-.23-1.13.23-.48a3.38,3.38,0,0,0-1.57-1.51c-.35-.15-.54-.16-1-1.13h.07c-.81-.6-.67-.23-.46.3a3.6,3.6,0,0,1,.39,1.66q-1.16-2.33-2.64-5l.65,1.6a6,6,0,0,1-.91-1.4,1.38,1.38,0,0,0,.29.81,4,4,0,0,1,.47,1,9.55,9.55,0,0,0-1.7-2,13.18,13.18,0,0,1-2.09-2.9,13.26,13.26,0,0,0,1.05,1.67c.28.4.43.63.39.84-.51-.85-.85-1.37-1.08-1.7s.17.57.5,1.29.62,1.37.33,1.13c-1.25-2.09-1-2.27-1.67-2.74,1.1,1.9,1.14,2.21,1,2.38s-.37.18,0,.93a8.16,8.16,0,0,1,1.25,2.4,23.15,23.15,0,0,0,.87,2.5c-.22-.27-.16.29,0,1.13s.37,2,.45,2.71l-.17-.12a3.84,3.84,0,0,1,1.13,1.52c.26.57.46,1.22.71,1.75-.49,0-.75-.19-1.19-.9l.38,1.21a2.93,2.93,0,0,1,.83,1.1l-.62,0c.37,1.1,1.34,2,1.4,3.57.56-.08,1.12-1.58,1.94-.18-.27.14-.74.35-1,0,.08.12.38.39.34.69l-.67-.46c0,.71.51.22.62.75-.41.11-.17.47-.51.5-.08-.12,0-.51-.19-.66a4.48,4.48,0,0,1,0,1,.61.61,0,0,1-.1.33.52.52,0,0,1-.18.18c.23-.06.57-.1.72.2s0,.44-.15.43-.38,0-.46.09c.38.23.13.46.91.82,0,.11-.05.13-.15.11l-.46-.16c0,.28-1.41.54-.6,1h.13s0,0,0,0h0a2,2,0,0,1-.47.32l-.27.13-.35.13a11.14,11.14,0,0,1-1.49.36,11.51,11.51,0,0,0-2.92.77l-.06-.2a18.4,18.4,0,0,1-1.68.78l-.45.21a3.94,3.94,0,0,0-.46.23,2.31,2.31,0,0,0-.67.48c-.36.12-1.23,0-1.28-.25-.5.25-.69.42-1,.56a7.79,7.79,0,0,1-1.81.42c.63-.6-.88-.06.82-.56-.88.19-1.57.28-2.13.43a2.17,2.17,0,0,0-1.3.76,2.19,2.19,0,0,0-1.53-.05,5.12,5.12,0,0,0-1.56.52l2-.25a16.73,16.73,0,0,1-2.35.75c-.48-.09-.95-.19-1.39-.29a12.8,12.8,0,0,0-3.1.85,3.41,3.41,0,0,0-1.15.79,2.4,2.4,0,0,1-1.09.65,26.86,26.86,0,0,1-4,.79,8.08,8.08,0,0,0,2.3-.29,9.63,9.63,0,0,1,2.54-.31c-.65.18-1.84.4-3.17.63l-3.88.69c-.18.09-.26.15-.11.17a12.4,12.4,0,0,0,3.78.13,16.93,16.93,0,0,1,3.92,0,23,23,0,0,1,5.08-.55c.44.1,0,.31-.73.51a11.25,11.25,0,0,1-2.6.36c-.45,0-.37-.11-.07-.16a5.25,5.25,0,0,0-2.18.22l1.08-.13c-.07.26,2.41.54.65.74,2.06,0,1.71-.21,1.19-.41a8.42,8.42,0,0,0,2.31.47,17.06,17.06,0,0,1,2.72.42c-.1-.16.19-.42.52-.38,2.57.64,2.23-.21,4.26-.07.28.23-.08.42-.25.54s-.08.19,1.16.18c.52.19.47.36.15.48a6.61,6.61,0,0,1-1.3.27,8.39,8.39,0,0,1,3.14.37l1.23.41.58.18.27.07.22.06h-.61l-.68,0c.41,0,.77,0,1.1,0l.32,0,.26,0-.33-.55c.39.14.73.18.7.39.46-.28-.21-.88.67-1.23.5.32,1.67-.08,1.77.62-1.66-.44.1.7-1.34.63a2,2,0,0,1,1,.14c.05.08-.07.13-.19.15,1.54.8.84-.67,2.51-.44-.26.35.3.76.58.72-.67-.09-.24-.68.41-.89,1,.43,1.2-.07,1.76,0l-.63-.22c.27-.35.8-.23,1.56-.26,0,.3-.71.12-.45.28.91-.56,1.79.92,3,.62.51.32,0,.72.41,1,.82-.4.2.55.75.2.36-.47.09-.37,1-.77-.48.07-.87.14-1.19.22a4,4,0,0,1,1.11-.61,2.2,2.2,0,0,0-.67.06c-.21.05-.37.09-.46,0,.48-.36.48-.23.39-.67.19.41.47.33.91.24s1-.19,1.11.08l-1.5,1.1a.31.31,0,0,0,0,.09c-.24.34-.06.36.07.59a.92.92,0,0,1,.12.44.71.71,0,0,1,0,.28,4.36,4.36,0,0,1-.23.66l.39-.6c.41.4-.26,1.27-.23,2-.4-.16-.66.21-1,.43a.08.08,0,0,1,.07.07.5.5,0,0,1,0,.22l-.16.87c-.11.66-.15,1.33.27,1.37-.31.47-.64,1-1,1.55-.48,1.39-.31,2-.08,2.32s.51.56.15,1.66c-.24,0-.53.35-.77.58s-.42.33-.43-.32c-.22.85-.53,1.74-.12,1.31a1.73,1.73,0,0,0-.16,1.15,2.22,2.22,0,0,1-.35,1.5c.2-.05.89-.9.63-.05a3.08,3.08,0,0,1-.34.48c.17-.24.2-.09.32-.13s.32-.26.79-1.14a21.57,21.57,0,0,0-1.42,3.24,18.2,18.2,0,0,0-.62,2.27c-.15.66-.28,1.27-.55,2.11a35,35,0,0,1-1.41,3.63c-.12.93-.27,2-.48,3l.51-.75a5.91,5.91,0,0,1-.54,1.06c.18.08,1.05-1.67,1.85-3.32s1.56-3.22,1.73-3.07a9,9,0,0,1-.92,2.11,3.2,3.2,0,0,0-.53,1c-1.24,2.95-.65,2,.1.77.38-.64.81-1.37,1.11-1.82s.5-.64.48-.25l-.36.65c.06.32.77-.91,1.52-2.27A31.35,31.35,0,0,1,192,155.9a4,4,0,0,0-.19.62,75.61,75.61,0,0,1,3.84-7.38c-.38,1.47-.52,1.23-.41,2a2.92,2.92,0,0,0,.31-1.29,4.44,4.44,0,0,1,.57-1.76c.25.17.93-.33,1.18.34l-1,1.44c.26.28.63-.25.95-.84a8.77,8.77,0,0,1,.88-1.57l.06.5a10.75,10.75,0,0,0,1.33-2.75,8.57,8.57,0,0,1,.42-1.08l.12-.26.13-.23a4.37,4.37,0,0,1,.35-.53h-.32c-.08-1.33.89-.44,1-1.65l.88.24a24.53,24.53,0,0,1,1.31-3.54,11.72,11.72,0,0,1-.68,3.24c.4-.55,1.29-1.92,1.16-2.45-.1.27-.13.67-.39.82a4.34,4.34,0,0,1,.22-1.6,4,4,0,0,1,.67-1.35c.2.52.42.62.61.58s.36-.27.55-.48a2,2,0,0,1,.59,1.6.7.7,0,0,1,.55.26l.28.29.3.34c.2.23.39.47.58.72.39.49.77,1,1.18,1.51a20.42,20.42,0,0,0,1.72,1.87c-.11-.57-.07-.77,0-.8s.22.1.39.26c.34.33.78.77,1,0,.64.54.85.79.89,1,.55.94,1.2,2,2,3.15.59,1.16-.67-.27-.6.22a5.34,5.34,0,0,1,1.23,1.79,5.67,5.67,0,0,0,.94,1.76c-.21-.55-.09-.67.2-.5a6.34,6.34,0,0,1,1.33,1.37c-.61-.92-1.18-1.8-1.7-2.63a4,4,0,0,1,1.26,1.11c.36.46.7,1,1.07,1.59a19.7,19.7,0,0,0,1.17,1.7,4.19,4.19,0,0,0,1.33,1.18,1.43,1.43,0,0,1-.39.2c.57.4,1.82,1.7,2.91,2.68s2,1.59,1.49.35c.49.73,1.52,2.31,1.14,2a20.23,20.23,0,0,0,2.53,2.39c.68.53,1.2.83,1.75,1.25-1-2.15-1.68-3.62-1.48-3.8l1,1.49c-.27-.54-.79-1.41-1.17-2.09s-.64-1.18-.42-1.06c.35.5.92,1.4.83,1.12s-.77-1.35-1.23-2.21a7.33,7.33,0,0,1-.83-1.84l1.16,1.9a12.72,12.72,0,0,0-1-2.5c-.46-1-1-2-1.6-3-1.16-2-2.34-3.91-3.07-5.41.83.79,1.1.61,1.07,0a13,13,0,0,0-.55-2.42l.22.18a50.76,50.76,0,0,0-3.05-6.42l-.77-1.35-.37-.64c0-.08,0-.06-.06-.07l0,0-.07-.06a3.15,3.15,0,0,1-.66-.66c.31-.15.43-.27.46-.43a6.59,6.59,0,0,0,.88,0,1.38,1.38,0,0,1,.36,0,10.84,10.84,0,0,1,1.4,0c-.41-.12,0-.74.4-.9a2.25,2.25,0,0,0,1-.3c.25-.11.74-.18.73.26l-.36,0a3.27,3.27,0,0,0,2.19.32c.93-.07,1.92-.27,2.82-.38-.25-.35-.51-.7-.8-1a15.62,15.62,0,0,0,4.21,0,32.11,32.11,0,0,0,3.65-.64,30.4,30.4,0,0,1,3.05-.6,22.21,22.21,0,0,1,4.11,0c.13-.31,1.42-.49,1.33-.76l2.27.29c2.24-.22,3.86-.39,5.67-.64-.81-.25-2-.59-3.62-1l2.58.32a39.93,39.93,0,0,0-5.8-.85c-2.32-.24-4.47-.41-5.27-.63.91,0,1.79-.09,2.64-.15-1.67-.5-2.77-1-4.3-1.61a25.74,25.74,0,0,0-5.79-1.42,3.36,3.36,0,0,1,1.47,0c-.8-.26-2.21-.85-3.6-1.26a8.75,8.75,0,0,0-1.85-.4c-.51,0-.84.08-1,.37.76-.62-3.89-1.27-4.42-1l.34-.53a3.47,3.47,0,0,1-2.54.47c-.28-.16-.13-.54.23-.27-.91-.6-.95.31-2.06-.37l.56-.23c-1-.35-1-.13-1.69.12-.71,0-1.9-.73-1.89-1.3a1.27,1.27,0,0,1-1.49.2c0-.22.24-.28.37-.3-1.6-.92-2.76-.11-3.77-1a.69.69,0,0,0,0-.25.52.52,0,0,0,0-.14l1.65.54c.42.15.67.24.61.25.16-.53-.91-1,.18-1.42-.5.06-1.19.2-1.89.24h-.38l0,0a.63.63,0,0,1-.22,0,.38.38,0,0,1-.35-.1,1,1,0,0,1,.09-.18l.08,0c0-.06-.14,0-.3,0,0-.11,0-.18-.11-.21.3-.21.25-.25.12-.27a.88.88,0,0,1,.05-.15,2,2,0,0,1-.69.13,1.34,1.34,0,0,0-.67.27c.08-.06.07,0,0,.17s0,.06,0,.07h-.06l0,0,.64.16c-.46.13-1,.2-1.08,0a1.78,1.78,0,0,1,.23-.19,2.35,2.35,0,0,1-1.09,0c.72-.43,1.29-.8,1.73-1a1.66,1.66,0,0,1,1-.24.88.88,0,0,1,0-.23l.26-.66c.18-.45.37-.92.53-1.37.22-.73.79-2.29.49-2.94.15-.58.73-.66,1.07-.92-.06.37-.33.82-.27,1,.21-.69.7-1.65,1-2.45s.48-1.38,0-1.24c.66-.83.85-.8.95-.74s.17.08.66-1l.23.08a15.14,15.14,0,0,0,2.18-3.49,3.66,3.66,0,0,0,.34-1.84,2.43,2.43,0,0,1,.22-1.45A29.29,29.29,0,0,1,221,95.33a16.66,16.66,0,0,1-1.09,1.42c1.06-1.61,1.89-3,2.54-4.21-.92.73-2,1.61-3,2.49l-3,2.53c-.94.77-1.8,1.45-2.58,2a12.44,12.44,0,0,1-2.23,1.25c-1.2.65-1.77,1.75-2.68,3a7.72,7.72,0,0,0,0-.83c-.58.77-1.09,1.5-1.53,2.16a3.32,3.32,0,0,1-1.22,1c-.41.19-.87.31-1.39.51a9.15,9.15,0,0,0-1.5.72,3,3,0,0,0-1,1.17l.5.16c-.68.44-1.84,1.8-2,1.32,0,.11.07.52-.32.54l-.23-.25L199,111.93c-1.36.77-.65-1.21-2.46.14-.57.62-1.25,2.25-.86,2.24.28-.2.81-.37,1-.12l-.49.61c.51.87.69,2,2.6,1.42l.64-1.29.63.12-.84.71c.77,0,.83-.6,1-1.09a.88.88,0,0,0,.76.08l.41-1.55c.37.21,0,1,.84.6.2-.72-1-.33-.4-1.17.78,0,.86.37,1.2-.39.24.13.22.36.06.63.32-.65,1.28-1.18,1.21-1.81.43,0,.84-.35,1.21-.63a1.34,1.34,0,0,1,.52-.28c.1,0,.12,0,.18.06l.17.23a1,1,0,0,1-.07-.54,1.14,1.14,0,0,1,.22-.58c0,.39,0,.53.07.59s.12,0,.19,0,.28-.15.09.78a2.58,2.58,0,0,1,.58-1.33,8,8,0,0,0,.93-1.17,3.55,3.55,0,0,1-.33.51c.1,0-.27.71-.5,1.14a39,39,0,0,1,3.28-4.58c-.59,1-1.2,1.78-1.73,2.52s-1.05,1.44-1.77,2.51c.64-1,1-1.47,1.44-2s.84-1,1.41-1.86c-.43.66-.54.83-.71,1.07s-.41.58-1.23,1.68c1.29-1.7,1.46-1.89,1.5-1.92s0,.12.94-1.07c-.54.76-1.27,1.65-1.66,2.14s-.51.63.08,0Zm1.28,10.58h0l-.86-.23Zm2.85.85c-.27-.1-.62-.21-1-.32,0-.23.13-.41.36-.33C210.37,121.76,210.88,122,211.17,122.31Zm-.87-4.64c.21,0,.08.06-.05.15a1.9,1.9,0,0,0-.3,0l-.11,0Z"/><path class="a" d="M209.13,118s0,0,0,0l-.24.17.24,0Z"/><path class="a" d="M184.94,121.81h-.05a.29.29,0,0,1,.13,0Z"/><polygon class="a" points="224.77 128.13 225.25 128.22 224.88 128.13 224.77 128.13"/><path class="a" d="M185.75,111.54a.18.18,0,0,0,.14-.08A.23.23,0,0,0,185.75,111.54Z"/><path class="a" d="M184.85,108.14a.83.83,0,0,1,.21-.06C184.92,108,184.87,108.08,184.85,108.14Z"/><path class="a" d="M184.63,106.4l-.52-.82h0Z"/><path class="a" d="M186.3,130.48h.17C186.88,130.4,186.61,130.42,186.3,130.48Z"/><path class="a" d="M168.86,129.74l1.55-.09C170.34,129.59,170.22,129.56,168.86,129.74Z"/><path class="a" d="M195.45,142.12l0,0v0Z"/><path class="a" d="M171,129.73c.17-.1-.09-.11-.6-.08C170.46,129.69,170.49,129.76,171,129.73Z"/><path class="a" d="M191.12,112.51l.13.17a.2.2,0,0,1,.09-.05Z"/><path class="a" d="M191.34,112.63l.22.12C191.48,112.67,191.41,112.61,191.34,112.63Z"/><path class="a" d="M192,113l-.45-.25C191.68,112.87,191.81,113,192,113Z"/><path class="a" d="M188.32,109.27l0,.29A1,1,0,0,0,188.32,109.27Z"/><path class="a" d="M187.67,108.7a4.56,4.56,0,0,1,.32.66c.11.25.2.43.29.43v-.23c0,.18-.14-.1-.28-.43S187.69,108.45,187.67,108.7Z"/><path class="a" d="M180,97.08,181.65,99c-.57-.91-1.43-2.24-.84-1.72a14.87,14.87,0,0,0-1.12-1.43c-.06,0,.13.27.35.63C180.47,97.18,181,98.12,180,97.08Z"/><path class="a" d="M179,98.29c-.54-1.39-.65-1-.91-1.36C178.74,98.26,178.88,98.52,179,98.29Z"/><path class="a" d="M174.29,124.8l-.4-.45C173.06,124.71,174.09,124.51,174.29,124.8Z"/><path class="a" d="M173.49,128.06l1.19,0-1.1-.17A.5.5,0,0,0,173.49,128.06Z"/><polygon class="a" points="156.85 129.41 157 129.27 156.09 129.78 156.85 129.41"/><path class="a" d="M184.54,163l1.44-2.83A8.23,8.23,0,0,0,184.54,163Z"/><path class="a" d="M200.7,143.54a1.06,1.06,0,0,0,1-1C201.31,143,200.78,143.26,200.7,143.54Z"/><polygon class="a" points="230.53 132.8 229.95 133.11 231.34 132.72 230.53 132.8"/></svg>