<svg xmlns="http://www.w3.org/2000/svg" viewBox="0 0 402 246"><defs><style>.a{fill:#fff;}</style></defs><path class="a" d="M188.92,105.21c.43.11.71-.43-.06-1.11l-1.2.1Z"/><path class="a" d="M185.62,98.9c-1.15-.58-2.69-1.07-2.82.1,1.48.27,1.39.74,3.07,1,.77.69,1,1.54.59,1.65.43.1.91,1.32,1.73,1.33a5.82,5.82,0,0,0-3.09-3.67C185,98.85,185.43,99,185.62,98.9Z"/><path class="a" d="M164.68,118.45l.65-.06A2.58,2.58,0,0,0,164.68,118.45Z"/><path class="a" d="M121.39,136.61a5.9,5.9,0,0,0-1.48,0A4.86,4.86,0,0,0,121.39,136.61Z"/><path class="a" d="M135.77,140.11l-.17-.05-.25-.06-.47-.11a2.76,2.76,0,0,0,.53.18,1.2,1.2,0,0,0,.23.05Z"/><path class="a" d="M164.68,118.45l-1.68.16C163,119,163.88,118.61,164.68,118.45Z"/><path class="a" d="M174.65,90.2a3.27,3.27,0,0,0,.79.49c-.22-.18-.43-.36-.64-.56Z"/><path class="a" d="M163.26,97.91l-.13-.49a2.63,2.63,0,0,0-.48-.31Z"/><path class="a" d="M156.69,73.2a13.65,13.65,0,0,0,1.93,2.91,10,10,0,0,1-1.15-2.21A3,3,0,0,0,156.69,73.2Z"/><path class="a" d="M174,84.48l.48.37C174.31,84.76,174.11,84.59,174,84.48Z"/><path class="a" d="M166.86,112.5a.52.52,0,0,0-.23.26A.43.43,0,0,0,166.86,112.5Z"/><path class="a" d="M212.31,92.74c0-.06-.06-.07-.08-.12C212.18,92.76,212.18,92.83,212.31,92.74Z"/><path class="a" d="M190.23,103.74l.25-.23a1.76,1.76,0,0,0-.21-.41Z"/><path class="a" d="M154.72,144.36l-.08,0C154.12,144.33,154.41,144.37,154.72,144.36Z"/><path class="a" d="M222.7,168.6c-.79-2,2.88,1.83,1.48-1C224.12,168,221.39,166.4,222.7,168.6Z"/><path class="a" d="M174.36,89.72c-.19-.2-.39-.41-.58-.63A4.27,4.27,0,0,0,174.36,89.72Z"/><path class="a" d="M224.18,167.62h0l-.15-.29C224.09,167.45,224.12,167.52,224.18,167.62Z"/><path class="a" d="M176.77,158.76a1.19,1.19,0,0,0,.48-.33C177.16,158.42,177,158.49,176.77,158.76Z"/><path class="a" d="M166.24,144.62l.79.24A3.76,3.76,0,0,0,166.24,144.62Z"/><path class="a" d="M172.66,176.1a6.19,6.19,0,0,0-.6,1.74c.07-.09.12-.17.19-.28A2.8,2.8,0,0,1,172.66,176.1Z"/><path class="a" d="M164.77,201.83c.15-.3.33-.7.5-1.05,0-.2.1-.44.15-.65Z"/><path class="a" d="M226.44,84.22l1.3-.72C226.79,84,226.8,83.53,226.44,84.22Z"/><path class="a" d="M175,89.88a.63.63,0,0,1-.62-.16c.15.15.3.28.44.41C174.92,90.09,175,90,175,89.88Z"/><path class="a" d="M179.19,176.78c-.08.12-.16.26-.25.42A1.21,1.21,0,0,0,179.19,176.78Z"/><path class="a" d="M262.31,137.46l.09-.11C262.32,137.34,262.28,137.37,262.31,137.46Z"/><path class="a" d="M178.77,178.15a19.44,19.44,0,0,0-1.11,1.72c.11-.15.2-.26.37-.5C178.29,178.92,178.54,178.51,178.77,178.15Z"/><path class="a" d="M227.75,83.49h0Z"/><path class="a" d="M224.72,84.75l5.47-6,.38-.34a17.57,17.57,0,0,1-1.84,2.12l-3,3.15c.42-.41,1.32-1.29,2-1.9s1.19-1,1-.71c-.49.47-.69.68-1.22,1.13,1-.79.67-.27.47.14s-.34.77.24.85a4.64,4.64,0,0,1-.52.33c1-.55,1.92-1.07,2.52-1.33a2.67,2.67,0,0,0-.24.92c-.08.28-.27.56-.83.82.32-.49-.06-.41-.27-.48a4.11,4.11,0,0,1,0,.6c-1.71.88.09-.83-1-.38a9.35,9.35,0,0,1-.19,1.61,5.77,5.77,0,0,1-.36,1.06l-.12.25-.21.35a5.2,5.2,0,0,1-.44.62c-.26,0-.27-.31-.16-.67a4.86,4.86,0,0,1,.23-.57,3.65,3.65,0,0,1,.14-.35c.08-.2.14-.37.08-.42s-.23,0-.57.14c.32-.29.67-.64,1.07-1.06a2.56,2.56,0,0,1-1,.31c-.1,0,0-.07,0-.13s.09-.14,0-.13-.43.12-1,.23c-.16.13-.21.19-.22.28a.53.53,0,0,0,0,.13s-.07.17-.12.28l-.17.38a19.26,19.26,0,0,1-2,3.58c0,1,.84.17.86,1.2-2,5.24-4.37,2.44-5.34,6.59,0,1.24.89,2.24-1.17,4.37l-.45-1.42c-2,3.17.26,2.67-2.42,5.66,0-.82,1.22-2.72.81-2.31-2.08,1.74-.39,1.88-1.41,3.56l-1.05-.16-1.13,2-1.22,2.26-2.3,4.39,5.43,1.57,4.58,1.38c-.33.19-1.15.23-.27.86,5.45,1.4,11.25,4.09,16.15,6.44l2.23-.12c.45.17.71.66.17.64,1.88,1,.28-.47,1.35-.45,1.15.34,1.33,1,.53,1,3.74.56,10.5,2,13.9,4.21h-.81c2.76,1.34,3.83-.51,6.23,1.18l-.56,0c1.53.64,3.13,1.22,4.73,1.79l2.28.78a8.59,8.59,0,0,1,1.71.77c.35.24.39.46-.25.57,2,.07,2.32.32,2.56.48s.62.32,4.62.82a1.5,1.5,0,0,1-.37,0c-2.53-.12-3.81-.26-5-.38s-2.33-.22-3.6-.37c-.24,0,.44.19,1.05.43s1.17.52,1,.63l-1.94-.71a2.37,2.37,0,0,1,.95.85,17.81,17.81,0,0,1-2.05-.87.52.52,0,0,1-.13.24,4.39,4.39,0,0,1,1.21.54,2.49,2.49,0,0,1-1.78,0,1.41,1.41,0,0,1-.62-.39c-.41-.11-.67-.24-.69-.35l-6,1.35c.1-.37,1.1-.59,1.88-.9-3.15,1.23-.68-.88-3.56.24.41.17-.17.56-.22.74-1.53-.39-4.89-.06-7.36.41l.42-.66c-2.26.14-4.62.45-7.05.78l-1.84.25-3.28.39c-2.26.26-4.52.51-6.82.74,1.84,0,2.77.21,3,.51s-.22.63-1.26.78c-.51-.18-1-.35-1.59-.53l-.26,0c.66,1,.56.45.57.16.41,0,.71.09.45.29.15.2.36.55.65,1,.79,2.52-.66,1.37-1.74-.74l1.76,3.94c-.24.15-.74-.78-1.26-1.17a15.75,15.75,0,0,1,1.46,4.45c.12.47.25,1,.39,1.44.06.19.11.37.16.56l.12.35a2.2,2.2,0,0,0,.77,1.08l-.22.22c1.7,4.78,2.78,6.83,4.22,10.7.8-.19,1.17,1.39,2.21,2.32.39,1.48.72,3.06,1.11,4.7l0,.16v.34c0,.12,0,.24,0,.35a2,2,0,0,0,.16.64,4.48,4.48,0,0,0,.92.91,3.68,3.68,0,0,1,.95.81c-.52-.34-.63-.16-.77-.13s-.3-.07-.82-.7c.29.62.48,1,.82,1.7s.83,1.56,1.93,3.72a23.77,23.77,0,0,1,1.47,2.07c.24.48.17.51-.09.2a17.64,17.64,0,0,1-1.16-1.71l-.23-.4a15.34,15.34,0,0,1,1.07,2.29c-.47-.57-1.27-1.68-2-2.79s-1.44-2.25-1.94-3.08-.81-1.4-1-1.6-.18-.06-.23.38v-.1c-.16.22-.52.22-1.07,0-.32-.45-.14-.47,0-.57s.27-.3.21-.71a.62.62,0,0,1-.48,0l-.24-.13a1.56,1.56,0,0,1-.24-.22l-.31-.31c-.81-.83-1.49-1.65-2.14-2.46a26.06,26.06,0,0,0-4.31-4.6c-.7-4.11-8.45-9.29-10.57-13.79l-.2.55c-1.2-.59-.77-1.32-1.28-2.08-.22.37.54,1.31-.18.93l-.59-.59-.38-.4-.48-.53-1.94-2.1c-1.29-1.41-2.56-2.84-3.85-4.31L205,146.52l-1.72,2.12-.88,1.07-.56.66c-1.39,1.62-2.81,3.23-4.24,4.83-2.86,3.21-5.75,6.39-8.49,9.61-2.52,3,.74,3.4-3.27,6.55l.11-1.7a55,55,0,0,1-3.29,5c-.59.81-1.19,1.62-1.81,2.41l-.37.48-.21.25a12,12,0,0,0-.8,1c-.28.44-.6,1-1.22,2.23.33-.79.62-1.64.71-1.74.23-.86.2-.84-.14-.16s-1,2-1.52,3.17a5.36,5.36,0,0,1,.45-1.11c.09-.2,0-.05.87-1.9.33-.76-.16.23-.7,1.22s-1,1.91-.22.28c.15-.28.47-.88.76-1.44-.17.34-.29.55-.38.71s.29-.79-1.27,2.12c.56-1.19.43-1.09.38-1.17s-.07-.27.47-1.2c-.79,1-.44.27-.25-.16s.3-.7-.64.2a15.89,15.89,0,0,0,1.14-1.32,3.3,3.3,0,0,0,.48-.76c.13-.33,0-.55-.27-.82.19.06.34-.09.5-.18a.72.72,0,0,1,.58-.09.29.29,0,0,0,0-.09v-.05s0,0,0-.15a8.57,8.57,0,0,0,.21-1.23c.06-.71,0-1.15-.42-1.08,2.64-3.23,1.07-7.79,3.63-9.28.58-3.09,1.18-6,1.8-8.91.32-1.42.63-2.83,1-4.23l.13-.54.2-.81.42-1.57c.27-1,.54-2,.8-3.06.75-.19,0,2.29-.67,4.68-.08.3-.17.6-.25.89l-.15.55a7.85,7.85,0,0,0-.17.91c-.05.54,0,.91.37,1,.15-.73.27-1.43.38-2.09.23-1.1.45-2.14.66-3.16.37-1.87.73-3.62,1.08-5.41-1.62-.14-3.15-.3-4.71-.51-.77-.11-1.56-.23-2.37-.37l-1.24-.22-.49-.1-.42-.09c-.66-.21-.45-.31,0-.39l.75-.1h.54l.43,0-.85-.09-.5,0-1-.1c-.65-.07-1.29-.16-1.92-.25-1.28-.19-2.52-.41-3.75-.62a48,48,0,0,0-7.24-.85c0-.12.56-.17,1-.19-.93-.11-2.11-.55-2.1.06h.92c1.33,1.1-4,1.17-4.19,1.59,1.85-1.42-4.53-1.2-1.69-2.91-.63,0-1.43.16-1.36.58-.88-.27-1.12-.54-.14-.84-3.34-.23-2.28.59-5.26.08.06-.29.68-.3,1-.58A11.38,11.38,0,0,1,148,137c.18-.15-.07-.42.68-.29-4.34-.64-7.62.24-12.28-1.1.4-.25.5-.42.43-.54s-.38-.23-.46-.29c-.28-.13-.65-.25-.38-.76-.35.05-.77.09-1.24.12a1.35,1.35,0,0,0,0,.53,13.92,13.92,0,0,0-2.19,0,4.17,4.17,0,0,1-1.94-.24c.66,0,1.28-.09,1.84-.15l-2.74-.25a1.48,1.48,0,0,0,.42.49,13,13,0,0,0-2.82.4,3,3,0,0,1-2-.12c.42,0-.06-.07-.52-.22s-.86-.35-.16-.55h0c-1,0-2.12,0-3-.06a3.86,3.86,0,0,1-1.75-.31c.58-.07,2-.14,3.29-.21s2.55-.14,3-.18c-1,0-1.71,0-2.38,0-.19-.1.46-.3.85-.49s.55-.36-.33-.51a21.43,21.43,0,0,0,2.92.13c-.68-.07-1.31-.14-1.9-.23a12.25,12.25,0,0,1,3.23-.08c1.06-.22,0-.28-1-.31a3.6,3.6,0,0,1-.92-.08c0-.05.38-.15,1.43-.29,0,.07.32.08.21.23a16.17,16.17,0,0,0,3.5-1.06,15.59,15.59,0,0,1,3.53-1c1.11.83-1.63.74-.24,1.31.25-.1.5-.21.77-.34l.42-.2.88-.34,3.59-1.44a48.6,48.6,0,0,1,7.14-2.38l-.9.13c.23-1.66,3.67-.24,5.82-1.6-.54.27-.52,1-.41.83,3.25-.66,6.4-2.2,11.09-4L163,122a24.83,24.83,0,0,0,3.5-.72l2.51-.66c.86-.23,1.69-.43,2.45-.6.33-.38,1.18-.67,1.1-.85s-.13-.16-.17-.1a.24.24,0,0,0-.15-.07,2.27,2.27,0,0,0-.34-.05h.26a20.18,20.18,0,0,0-.76-5.87,37.62,37.62,0,0,0-1.46-4.31c-1.08-2.8-2.18-5.5-2-8.5.17.67.74,1.5.61,1L167,96.62c-.55.54-.23.72-.48,1.85A7,7,0,0,1,165,95.53c1,2,1-.29,1.16-1.3-.16.2-.46-.06-.64.07.51-2.78-1.42-.07-1.52-3.66l.39.09a17.71,17.71,0,0,1-1.51-3.66c.6-.77.7,1.25,1.34,1.18a7,7,0,0,0-.6-1.37c-.25-.44-.53-.89-.76-1.24a3.27,3.27,0,0,1-.66-2.4c.43.81.69,1.8,1.08,2.42a5.5,5.5,0,0,0,.36-1.38c0-.28-.09-.55-.12-1v.07q0-.9,0-1.53a1.2,1.2,0,0,0-.21.19,12,12,0,0,1-1.59-2.43,10.63,10.63,0,0,1-.67-1.85,18.87,18.87,0,0,0-.52-1.83c-.26-.76-.67-1.74-1.45-3.43.75,1.62,1.18,2.46,1.46,3a2.72,2.72,0,0,0,.49.75c.18.16.22,0,1,1.21.29.11.62.31,1.12,1.24-.56-1.09-.61-1.33-.54-1.35s.22.13,0-.43c0,0-.05-.29-.29-.93A23.58,23.58,0,0,1,164,79c.09-.06-.1-.46-.43-1s-.79-1.32-1.06-1.88c-.09-.46.24-.17.68.38s1,1.37,1.48,2.1A17.57,17.57,0,0,0,166,80.3a1.56,1.56,0,0,0,1.17.63,23.15,23.15,0,0,0,2.41,1.15A12.39,12.39,0,0,1,171,83a17.23,17.23,0,0,1,1.85,1.41c.49,1.21-1.44-.06-1.44-.06a13.06,13.06,0,0,0,3.57,4c-.44-.11-.33.32-.18.95,1.06,1.07,1.43.06,2.45,1.81a5,5,0,0,1-1.85-.36c1.38,1.14,2.94,2.09,4.36,3.27,0,.7-1.3-.31-2-.58,1.54,1.38,3.9,3.66,4.91,3.61l-.68-1.17c.53.53-.24.74-.72.42-1.63-.9-1.5-2.07-1.35-2.33l1,.85c.33-2.11-3.71-3.71-5.4-5.73h1.63l-2.54-1.32c-.15-.64.09-1.38,1.09-.54-.82-1.8-1.44-1-2-2.6,0-.2.05-.18.2-.09l-1.5-1.12c.43.1.43-.8,1,.16a8.19,8.19,0,0,0-1.38-1.78,7,7,0,0,0-.71-.64l-.8-.67a5.1,5.1,0,0,1-2-2.4l.25.17c-2-1.9-2-1.59-2-1.12a1.41,1.41,0,0,1-.06.72c-.1.18-.35.24-.78.15a62.18,62.18,0,0,0-2.56-6.11c0,.48.09,1,.16,1.51a6.82,6.82,0,0,1-1.3-2.12c-.46-.06-.28.28-.08.64s.46.78.36,1.1a22.81,22.81,0,0,0-3.21-4A22.08,22.08,0,0,1,156,64.12a12.24,12.24,0,0,0,1.43,2.44c.46.66.66,1,.25.9-.67-1.2-1.16-2-1.52-2.53-.21-.1.33,1.29.81,2.57s.91,2.47.65,2.58c-1.56-2.9-1.48-4.26-2.07-3.71,1.41,2.76,1.55,3.62,1.56,4.46a7.36,7.36,0,0,0,.36,3.07,10.49,10.49,0,0,1,1.69,3.86c.42,1.56.86,3.52,1.51,5.3-.12-.08-.11.26,0,.92s.27,1.64.46,2.68c.3,1.73.68,3.81.84,5.19l-.19,0c1.17.25,1.68,3,2.41,5-.64.08-1-.21-1.53-1.22l.49,1.87a4.41,4.41,0,0,1,1.2,2.07l-.89-.26c.69,2.47,2.21,4.77,2.52,8.1.77,0,1.35-3.06,2.71.2-.36.22-1,.52-1.38-.32a3.69,3.69,0,0,1,.58,1.57l-1-1.18c.09,1.54.75.62,1,1.8-.57.13-.18,1-.66.92-.13-.29,0-1.08-.37-1.47a8.43,8.43,0,0,1,0,3.65c.29-.2.75-.19,1.07.75.09.31.14.56.18.76a1,1,0,0,1,0,.34.29.29,0,0,1-.22.25c-.2.06-.46.08-.53.43.25.16.32.45.45.72a1.57,1.57,0,0,0,.82.8c.06.25,0,.32-.16.33s-.49-.16-.69-.22c-.13.23-1,.49-1.6.77a4.66,4.66,0,0,0-.45.22,2.32,2.32,0,0,0-.51.28c-.23.17-.21.33.21.45l.35,0-.2.1h0c-4,2-8.85,2-12.91,3.51l-.07-.28c-2.4,1-5.48,1.74-7.09,2.83-.74.21-1.88,0-1.66-.43A12.1,12.1,0,0,1,139,125.5c1.78-1-.78-.24,1.86-.9-2.54.45-3.22.17-5.66,1.67.32-.47,0-.62-1.28-.38a20.88,20.88,0,0,0-3.52,1c1.05-.11,2-.2,2.94-.27-1.81.62-3.45,1-5.21,1.44a3.32,3.32,0,0,1-.23-.94,37.22,37.22,0,0,0-6.32,1.55,41.06,41.06,0,0,0-4.16,1.72,22.22,22.22,0,0,1-3.59,1.41,53.11,53.11,0,0,1-6.95,1.26c.27.28,1.86,0,3.4-.34s3.09-.58,3.68-.33c-1.33.32-3.34.66-5.56,1l-6.45,1c0,.15.13.27.46.33a14.1,14.1,0,0,0,3.15.54c1.23.1,2.56.14,3.87.17s2.59.05,3.76.13a15.82,15.82,0,0,1,3.19.45,5.33,5.33,0,0,1,2.06-.47,25.58,25.58,0,0,1,4.6,0c1.15.25,1.17.62.68.93a6.08,6.08,0,0,1-3.1.41c-.92-.13-1.06-.26-.73-.33-1.39-.11-3.38-.29-2.94.16l1.39-.11c.85.5,6.21,1.36,4,1.56,1.82.14,2.33.08,2.22-.07a7,7,0,0,0-1.72-.61,42.75,42.75,0,0,0,5.76,1.21c2,.31,3.84.59,6.31,1.18-.77-.32-1.27-.82-.53-.69l1.86.41c.37.07.66.11.89.13a1.48,1.48,0,0,0,.87-.12c.36-.18.55-.46,2.13-.27,1.68.82-.85,1.13,2.37,1.23,1.86.67.26,1-.56,1.12,3-.18,5.29,1.33,6.91,1.72l-1.56,0a11.8,11.8,0,0,1,2.42.24l-.75-.82c.87.26,1.62.39,1.56.67,1-.29-.51-1.25,1.4-1.55,1.13.54,3.67.23,3.92,1.21-3.66-.94.26,1-2.91.59a7.31,7.31,0,0,1,2.23.39c.12.12-.15.17-.41.18,3.43,1.4,1.81-.75,5.49-.11-.55.43.7,1.11,1.32,1.1-1.49-.26-.57-1,.86-1.13,2.29.8,2.62.14,3.85.4l-1.39-.43c.57-.43,1.74-.16,3.42,0,.07.42-1.55,0-1,.29,2-.58,4,1.62,6.63,1.45,1.13.54,0,1,1,1.38a5.77,5.77,0,0,1,3,.54,5.07,5.07,0,0,1,.86.38c.09.06.18.06.43,0,.13-.33.08-.47.2-.58a2.73,2.73,0,0,1,1.1-.42l-1.26,0h-.4l-.32,0-1.25-.09,1.65-.23a7,7,0,0,1,1-.34,3.82,3.82,0,0,0-.68-.05c-.13,0-.19,0-.36,0l-.56,0a8,8,0,0,1-1.82-.18c1.61-.31,1.42-.16.81-.85a3.42,3.42,0,0,0,1.47.61,2.22,2.22,0,0,0,.6,0l.57,0a9.26,9.26,0,0,1,1.3,0,1.89,1.89,0,0,1,1.07.35l-2,1.4a.53.53,0,0,0,.08.15c-.41.62-.21.81-.15,1.46a2.5,2.5,0,0,0,0,.25c0,.21-.07.42-.11.63-.07.43-.15.86-.26,1.31a17.72,17.72,0,0,1-.89,2.85l.72-1.35c.47.8-.75,2.79-.93,4.31-.51-.3-1,.54-1.51,1.05.43,0-1,3.26-.07,4l-1.34,1.77c-1.4,3.52.31,4.6-.94,8-.28-1.22-1.15.23-.87-2.22-.36,1.16-.78,2.16-.4,2.3a4.6,4.6,0,0,0-.44,2l0,.34-.09.47c-.06.32-.13.63-.21.92a5,5,0,0,1-.61,1.51c.05.71.65.77.08,2.47-.2.25-.34.15-.34.15.17-.07.08.56.11.93s.2.47.81-.43a23.61,23.61,0,0,0-2.23,4.66c-.61,1.66-1.08,3.3-1.52,4.84s-.85,3-1.42,4.65a61.28,61.28,0,0,1-2.47,5.95c-.62,2.56-1.32,5.38-2,7.79l1.15-1.53a7.25,7.25,0,0,1-.94,1.58,8.67,8.67,0,0,0,1.59-2.09c.62-1,1.28-2.17,1.93-3.34s1.28-2.3,1.84-3.2a6.75,6.75,0,0,1,1.47-1.86,5.62,5.62,0,0,1-1.19,2.57c-.58.83-1.12,1.49-.93,1.54-1.49,3.45-.2,1.69,1.33-.54.77-1.13,1.6-2.36,2.29-3.28s1.27-1.54,1.63-1.56l-.69,1.07c.64-.3,2-2.39,3.43-4.57a65.42,65.42,0,0,1,4.18-6.15s-.13.43,0,.45a62.94,62.94,0,0,1,3.37-6l1.53-2.45,1.32-2.06c0,1.2-.54,1.33.41,1.34.76-1.15-1.19-.43.31-2.71.86-.45,2.35-1.78,3.14-1.49l-1.54,2.05c1.62-.4,2-2.65,3-3.6l.25.41c2.3-3.19,1.44-3.94,4.1-7.23l-.54.14c.53-2.52,1.69-1.14,2.44-3.48l1.34.16c.71-1.38,2.4-4.9,3.91-7.19-.28,1.74-1.9,4.54-2.72,6.41.94-1.19,3.09-4.11,3.13-5.08a4.78,4.78,0,0,1-1.05,1.7,12.3,12.3,0,0,1,1.18-3.16,19,19,0,0,1,1-1.68c.36-.56.84-1.21,1.18-1.64a.84.84,0,0,0,1.25.22,7.68,7.68,0,0,0,1.27-1.24c.69.88,1.43,1.88,1.12,2.66l.16.08s.1.08.15.12l.19.17c.25.23.49.45.73.69.48.47.94,1,1.38,1.45.9,1,1.74,2,2.59,3.13,1.7,2.18,3.4,4.49,5.51,6.77-.16-2.8,1.24,1.32,2.32-.14,1,1,1.39,1.44,1.39,1.61l2.11,4c.3,1.12-1.21-.77-1.42-.4,2,2.46.32,1.49,1.36,3.37.19-.74,1.41.22,2.43,1.73l-1.08-2.44a7.48,7.48,0,0,1,1.82,1.77,5,5,0,0,1,.43.77,5.1,5.1,0,0,0,.26.49c.11.19.22.38.32.57a20.17,20.17,0,0,0,1.65,2.55,22.54,22.54,0,0,0,3.14,3.26c-.58-.36-1.2-.78-1.85-1.23,1.5,1.44,4.15,4.43,6.69,7.1s4.88,4.88,5.19,4.15c.67,1.07,2,3.26.93,2.29,2,2.39,4,4.44,5.73,6.14s3.22,3.06,4.65,4.46c-1.76-4.37-3-7.54-3.13-9l1.23,2.12c-.45-1.06-1.16-2.44-1.72-3.6a6.11,6.11,0,0,1-.87-2.49c.41.6,1.14,1.9.91,1.18s-1.1-2.29-1.81-3.86a23,23,0,0,1-1.5-3.9l1.55,2.89a56.23,56.23,0,0,0-2.06-5.91c-.8-2-1.65-3.8-2.48-5.5s-1.62-3.27-2.36-4.74-1.42-2.88-2-4.37c1.2-.44.18-4.52-.34-6.57h.2a49.9,49.9,0,0,0-3.31-7.66L237,151.29c-.3-.58-.6-1.18-.92-1.79-.14-.3-.29-.59-.44-.89l-.26-.42a2.35,2.35,0,0,0,.36-1.34c.36,0,.66,0,1,0h.8l.42,0a60.42,60.42,0,0,1,6.43-.24c-.9-.14,0-1,1-1.23,1.37.12,3.62-1.25,3.53-.06l-.48,0c1.12,1,3.84.47,6,.29l.2-1.56a14.54,14.54,0,0,0,4.81.37c.42,0,.85-.06,1.28-.11l1.38-.17c1.46-.18,2.89-.37,4.26-.57,2.73-.39,5.14-.75,7.41-.94a36.62,36.62,0,0,1,7,0,23.24,23.24,0,0,1,2.82-.66,11.37,11.37,0,0,0,2.45-.62l2.58.57c4.6-.32,7.95-.56,12-1-1.77-.62-4.3-1.48-7.61-2.57l3.94.77a56.53,56.53,0,0,0-9.32-2,63.87,63.87,0,0,1-7.93-1.47c.81-.15,1.56-.32,2.26-.51-1.84-.64-3.51-1.29-5.22-2s-3.45-1.41-5.29-2.12-3.77-1.43-5.72-2.06l-1.46-.45-.36-.1-.24-.06-.42-.1c-.56-.11-1.13-.2-1.72-.26.13-.14.38-.43,1.1-.23-2-.75-7.62-3.57-7.44-1.72.31-1-4.44-1.67-6.94-2l.63-.64c-2.32.28-2.48.53-5.33-.17-.62-.33-.36-.82.44-.32-2-1.16-1.95.13-4.45-1.21l1.15-.14a4.85,4.85,0,0,0-3.57-.39c-1.52-.19-4.18-1.69-4.27-2.5a3.56,3.56,0,0,1-3.13-.22c-.09-.32.45-.31.72-.31-3.57-1.84-5.89-1.07-8.2-2.73a.65.65,0,0,0-.28-.61c3,1.07,5.36,2,5.11,1.93.25-.7-2.11-1.67.15-2-2.12-.15-5.83-.16-8.06-1.32-.08-.1-.2-.22-.21-.34a2.08,2.08,0,0,1,.25,0l-.26-.13-.12,0a1.2,1.2,0,0,0-.31,0c-.19-.2-.25-.31-.45-.4.32-.29.18-.38-.08-.45a3.36,3.36,0,0,1,.16-.33,1.24,1.24,0,0,1-.84,0c-.15,0-.28-.09-.92.31.13-.1.07.09-.1.42,0,.07,0,.16,0,.19h-.08l-.07.11,1.35.42a2.64,2.64,0,0,1-2-.2c.11-.1.23-.22.39-.35a1.47,1.47,0,0,1-1.13-.67c1.07-.68,2-1.3,2.59-1.6a1.68,1.68,0,0,0,.29-.22l.32-.26c.2-.17.4-.32.58-.45a2,2,0,0,1,.87-.43c1.61-3.57,4.46-8,4.41-10.88.4-1,1-.86,1.45-1.09a8.86,8.86,0,0,0-.6,1.67c.81-2.09,3.25-5.68,2.6-6.69,1.86-2.13,0,1.85,1.87-1.51v.61A16.32,16.32,0,0,0,230.86,89c.09-.13.32-.49.49-.77l.52-.87c.34-.57.65-1.14.95-1.7a52.47,52.47,0,0,0,2.62-5.87A37.22,37.22,0,0,1,237.55,75,64.41,64.41,0,0,1,243,67.13a22.75,22.75,0,0,1-1.73,2.14c2-3,3.84-5.8,5.39-8.38-2.11,1.53-4.4,3.26-6.64,5l-6.51,4.92c-2.08,1.55-4.05,3-6,4.3s-4,2.57-6.27,3.86l-.59.37-.39.25c-.22.15-.41.29-.58.43a3.8,3.8,0,0,0-.74.79c-.38.52-.59,1-1.1,1.73l-1-.37-1.66,2.45c-2.76,2.92-6.8,2.27-10,6.34l.86.1c-1.51,1-4.39,3.61-4.55,2.89-.09.19-.12.84-.87,1l-.31-.34-3.11,3.23c-3,1.73-.63-1.79-4.72,1.06-1.4,1.23-3.49,4.18-2.75,4,.62-.42,1.72-.89,2-.55l-1.23,1.19c.54,1.28.3,3.16,4.23,1.49l1.86-2.37,1.14,0-2,1.46c1.48-.31,1.87-1.27,2.45-2.15a1.88,1.88,0,0,0,1.41-.12l1.54-2.72c.59.23-.41,1.6,1.3.71.73-1.26-1.73-.21-.17-1.82,1.48-.32,1.45.33,2.46-1,.39.14.24.53-.19,1,.93-1.19,3-2.4,3.18-3.42,1.62-.23,3.85-3,4.49-1.91a11.17,11.17,0,0,1,2.52-3.13c-1.07,2.66,4.09-2.86,4.53-1.15.33-1.08,1.56-2.16,3-3.28l1.08-.85.27-.21.14-.11,0,0,.14-.15a5,5,0,0,0,.62-.87c-.06.18-.13.5-.21.47.47-.2.49.3.5.61A7.6,7.6,0,0,1,226,81.59c.53-.75,1.2-1.53,2-2.55a4.5,4.5,0,0,1-.6,1.29c-.27.43-.57.85-.85,1.26a23.47,23.47,0,0,0-1.58,2.6,13.22,13.22,0,0,1,1.42-2.14A18.72,18.72,0,0,0,228,79.92a8.26,8.26,0,0,1-.51,1c-.16.26-.39.61-1.29,1.85a15.37,15.37,0,0,1,1.86-2.3c.14-.09.07,0,1.41-1.46a30,30,0,0,1-2,2.52c-.5.6-.66.78.23-.13-.58.69-1.41,1.58-2,2.22C225.27,84.12,224.72,84.75,224.72,84.75Zm-6.62,33.63v0l-1.4-.45.64.2Zm5.05,1.76c-.61-.24-1.37-.52-2.18-.8-.08-.32.2-.53.71-.34C221.34,119.08,222.47,119.66,223.15,120.14Zm-5.29-7.86c.35,0,.22.12.08.25a5.05,5.05,0,0,0-.56-.09l-.17,0Z"/><path class="a" d="M216.26,112.48s0-.06,0-.12c-.14.1-.27.19-.39.29l.29,0Z"/><path class="a" d="M165.44,118.38h-.11a.53.53,0,0,1,.26,0A1.16,1.16,0,0,1,165.44,118.38Z"/><path class="a" d="M263.18,137l.45.16-.29-.15Z"/><path class="a" d="M166.14,94.23a.75.75,0,0,0,.11-.43C166.2,93.83,166.17,94,166.14,94.23Z"/><path class="a" d="M163.5,83.33a7.68,7.68,0,0,1,.09-.81A2.09,2.09,0,0,0,163.5,83.33Z"/><path class="a" d="M162.66,78.48c-.38-.63-.5-.82-.63-1h0Z"/><path class="a" d="M166.48,139.11l.38,0C167.76,139.13,167.15,139.09,166.48,139.11Z"/><path class="a" d="M124.66,134c.88,0,1.7,0,2.33,0A4.92,4.92,0,0,0,124.66,134Z"/><path class="a" d="M179.22,176.74h0s0,0,0,0Z"/><path class="a" d="M128.34,134.26c-.08-.18-.57-.23-1.35-.25A3.14,3.14,0,0,0,128.34,134.26Z"/><path class="a" d="M180.43,96.72l.29.37a.15.15,0,0,1,.14,0Z"/><path class="a" d="M180.86,97.05l.42.32C181.12,97.19,181,97,180.86,97.05Z"/><path class="a" d="M182.17,98.05l-.89-.68C181.53,97.65,181.83,98,182.17,98.05Z"/><path class="a" d="M172,86.86l-.32.08A.4.4,0,0,0,172,86.86Z"/><path class="a" d="M169.35,84c.57.74,1.1,2.17,2.12,3l.25-.07C171,86.78,170.31,84.32,169.35,84Z"/><path class="a" d="M158,65.89l3.1,3.8c-.78-1.34-2-3.35-.66-2a32.14,32.14,0,0,0-2-2.6c-.15-.15.09.29.35.79C159.31,66.92,159.89,68.14,158,65.89Z"/><path class="a" d="M156.17,69.57c-.43-1.37-.62-1.67-.74-1.66s-.17.33-.33.06C156,70.31,156.19,70.72,156.17,69.57Z"/><path class="a" d="M143.07,124l0-.76C141.75,123.7,143.1,123.51,143.07,124Z"/><path class="a" d="M132.89,130.85c.48,0,.91.06,1.3.11a3,3,0,0,1-.44-.58C133.43,130.54,133.15,130.7,132.89,130.85Z"/><polygon class="a" points="111.4 131.39 112.05 131.1 109.21 132.18 111.4 131.39"/><path class="a" d="M164.78,199.36l1.95-3.24C166.8,195.32,165,197.66,164.78,199.36Z"/><path class="a" d="M196.36,166.61a3.43,3.43,0,0,0,2.09-2.2A23.34,23.34,0,0,0,196.36,166.61Z"/><polygon class="a" points="257.41 144.91 256.37 145.32 258.36 144.87 257.41 144.91"/></svg>