<?xml version="1.0" encoding="utf-8"?>
<!-- Generator: Adobe Illustrator 26.3.1, SVG Export Plug-In . SVG Version: 6.00 Build 0)  -->
<svg version="1.1" id="Layer_1" xmlns="http://www.w3.org/2000/svg" xmlns:xlink="http://www.w3.org/1999/xlink" x="0px" y="0px"
	 viewBox="0 0 92.7 72" style="enable-background:new 0 0 92.7 72;" xml:space="preserve">
<style type="text/css">
	.st0{fill:#FFFFFF;}
</style>
<path class="st0" d="M92,15.5c0,0.1-0.1,0.3-0.1,0.3v-0.4L92,15.5z"/>
<path class="st0" d="M91.4,16.2c-0.1-0.3,0-0.6,0.1-0.9c0,0.4,0.1,0.2,0,0.7c0.1,0.1,0.2-0.1,0.2-0.3c0,0.1,0.1-0.1,0.1,0.2
	c-0.2,0.3-0.3,0.3-0.3,0C91.4,16,91.4,16.1,91.4,16.2z"/>
<path class="st0" d="M84.5,15.6L84.5,15.6C84.6,15.6,84.6,15.6,84.5,15.6z"/>
<path class="st0" d="M80.3,15.2C80.3,15.2,80.3,15.2,80.3,15.2C80.3,15.3,80.3,15.2,80.3,15.2z"/>
<path class="st0" d="M79.5,15.5L79.5,15.5C79.6,15.5,79.5,15.5,79.5,15.5z"/>
<path class="st0" d="M84.5,15.6l-0.1,0.1C84.4,15.5,84.5,15.6,84.5,15.6z"/>
<path class="st0" d="M90.7,15c0,0,0,0.1,0,0.1C90.7,15.1,90.7,15.1,90.7,15L90.7,15z"/>
<path class="st0" d="M86.3,16.2L86.3,16.2c0,0.1,0,0.1,0,0.2V16.2z"/>
<path class="st0" d="M87.7,16.5c0-0.2,0-0.3,0-0.5c0,0.1,0,0.2,0,0.3C87.8,16.3,87.8,16.4,87.7,16.5z"/>
<path class="st0" d="M90.1,16.3L90.1,16.3L90.1,16.3z"/>
<path class="st0" d="M85.3,16.1c0,0,0,0.1,0,0.1C85.3,16.2,85.3,16.2,85.3,16.1z"/>
<path class="st0" d="M45.3,11L45.3,11C45.3,11,45.2,11,45.3,11z"/>
<path class="st0" d="M43.7,12.8L43.7,12.8V13V12.8z"/>
<path class="st0" d="M78.2,15.8L78.2,15.8C78.2,15.8,78.2,15.8,78.2,15.8z"/>
<path class="st0" d="M66.1,14.4c0.2-0.3-0.2-0.4,0-0.8C66.1,13.7,66.3,14.2,66.1,14.4z"/>
<path class="st0" d="M90.6,15L90.6,15C90.6,15,90.6,15,90.6,15z"/>
<path class="st0" d="M66.2,13.6L66.2,13.6L66.2,13.6z"/>
<path class="st0" d="M75.2,15.2c0-0.1,0-0.1,0-0.2C75.2,15.1,75.2,15.2,75.2,15.2z"/>
<path class="st0" d="M77.5,15L77.5,15C77.4,15,77.5,15,77.5,15z"/>
<path class="st0" d="M74.1,14.6C74.1,14.6,74,14.7,74.1,14.6C73.9,14.5,74,14.6,74.1,14.6C74,14.6,74,14.7,74.1,14.6z"/>
<path class="st0" d="M72.8,14.5L72.8,14.5L72.8,14.5L72.8,14.5z"/>
<path class="st0" d="M49,11c0,0.1,0,0.2,0,0.3C49,11.1,48.8,11,49,11z"/>
<path class="st0" d="M90.6,15.2c0-0.1,0-0.1,0-0.2l0,0C90.6,15,90.6,15.2,90.6,15.2z"/>
<path class="st0" d="M74.3,11.9h-0.2C74.2,11.8,74.2,11.8,74.3,11.9z"/>
<path class="st0" d="M58,11.1L58,11.1C57.9,11.1,57.9,11.1,58,11.1z"/>
<path class="st0" d="M73.5,11.8c0,0.1-0.1,0.2-0.1,0.2c0,0,0-0.1,0-0.1L73.5,11.8z"/>
<path class="st0" d="M49,11.4L49,11.4z"/>
<path class="st0" d="M47.8,11c-0.2-0.2-0.1,0.1-0.2,0.4c-0.1-0.4-0.2,0.1-0.2-0.5c0,0.2-0.1,0.4-0.1,0.6c0-0.3-0.2-0.3-0.2-0.7
	c0,0.5,0.2,0.5,0.1,1c-0.1-0.3-0.3-0.4-0.3-0.9c-0.1,0.1-0.1,0.3-0.2,0.3c0,0,0,0.1,0.1,0.1c-0.2-0.3-0.5,0-0.7-0.6
	c0.1,0.7-0.5,0.1-0.3,0.8c-0.1,0-0.2-0.3-0.3-0.4c0,0.6-0.2,0.2-0.3,0.5c-0.1-0.3-0.2-0.2-0.3-0.4c0.1,0.1,0.1,0.2,0.1,0.3
	c-0.1-0.2-0.1,0-0.2,0.3c-0.2-0.2,0-0.4-0.1-0.7c-0.1,0.1,0,0.3,0,0.6l-0.2-0.5c0,0.1-0.1,0.2-0.1,0.3c-0.1-0.2-0.2-0.4-0.2-0.1h0.2
	L44,11.6l-0.2-0.3c-0.2,0.5-0.2,1.1-0.1,1.6l0.1,0.1c0,0.2-0.1,0.3-0.1,0.3c0,0.3,0.2,0.5,0.3,0.7c0.3-0.1,0-0.7,0.3-0.8l0.3,0.3
	v-0.2c0-0.1,0.1,0.1,0.1,0.1c0-0.3,0.2-0.1,0.4-0.2v0.3c0.4,0.6,0.5-0.7,0.8-0.4l0.2,0.4v-0.4c0.1,0.2,0.1,0.5,0.3,0.4
	c0.6-0.7,1.3,0.1,2-0.3c0,0.1,0,0.1-0.1,0.2c0.6-1,0.9,0.9,1.4,0.2v-0.1c0.3,0.1,0-0.1,0.1-0.3c0,0.5,0.3,0.4,0.5,0.5
	c0-0.1-0.1-0.1-0.1-0.2s0-0.4,0.1-0.3c0.2,0.7,0.5,0.6,0.8,0.8c0-0.3,0.3-0.6,0.4-1.1c0,0.1,0.1,0.3,0.1,0.6c0.1-0.2,0.2,0,0.2,0.1
	h-0.2l0,0l0,0c0,0-0.1,0-0.1-0.1c-0.1,0.3,0,0.2,0,0.6c0.1,0,0.3,0.1,0.3-0.2c0.1,0,0.1,0,0.1-0.1s0.1,0.1,0.1,0l0,0
	c0,0,0-0.1,0-0.1c0.2-0.2,0.4,0.4,0.5,0.6c-0.1-0.4,0-0.5,0-0.8c0,0-0.2,0-0.4,0.1c0-0.1,0-0.1,0-0.2c0.2-0.3,0.3,0.3,0.6,0.1
	c0-0.1,0-0.2,0-0.2c0.1-0.1,0.2,0.2,0.2,0.4c0-0.3,0.2-0.5,0.3-0.4c0.1,0.1,0.1,0.4,0.2,0.3l-0.1-0.2c0.2-0.2,0.2,0.3,0.3,0.1
	c-0.1,0.1-0.1-0.1,0-0.2c0.2,0.1,0.2,0.3,0.3,0.7v-0.3c0.2,0.2,0.5,0.6,0.5,0.2c-0.1,0.7,0.4,0.4,0.5,0.4c0,0-0.1-0.2-0.1-0.2
	c0.3,0.5,0.6,0,0.9,0l0.1-0.5c0.2,0,0.2,1.1,0.4,1.1l-0.1-0.3c0.2,0.1,0.5,0.1,0.7,0v-0.3c0.1,0.2,0.2,0.2,0.3,0.3
	c0.2-0.9,0.8,0.5,1.2-0.5v0.7c0.2,0,0.3,0.1,0.4-0.4h0c0-0.5,0.2,0,0.2-0.1c0.1,0.1,0.1,0.3,0.1,0.5c0.4-0.3,1,0,1.2-0.5
	c0.4,0.2,0.7,0.8,1.1,0.7v-0.1c0.3-0.2,0.5-0.5,0.5-0.8c0.3,0.1,0.5,0.9,0.8,0.7L63,14.2c0.1-0.1,0.2,0.2,0.3,0.2c0,0.1,0-0.1,0-0.2
	c0-0.1,0.1,0.1,0.2,0.2v-0.2c0.3-0.4,0.7,0.4,1.1,0.3c-0.1-0.1,0-0.3,0-0.3c0.1,0.6,0.5,0.5,0.7,0.6l-0.1-0.2
	c0.3,0.4,0.3-0.6,0.6-0.2l-0.2,0.3c0.1-0.1,0.2,0,0.2,0.3c0.2-0.2,0-0.5,0.3-0.5c0-0.2-0.1-0.1-0.1-0.3l0.3-0.4c0,0,0.1-0.1,0.2,0
	c-0.1,0.8,0.2,0.1,0,0.8c0.4,0.1,0.8-0.4,1.1,0c0.2-0.7,0.7,0,0.8-0.9c0.2,0,0.4,0.2,0.5,0.6c0,0.1-0.1-0.1-0.1-0.1
	c0,0.2,0.2,0.3,0.4,0.3c-0.2-0.2-0.3-0.5-0.4-0.8c0.2,0.2,0.4,0.4,0.5,0.6l0.1-0.5c0.1,0.4,0.2-0.4,0.3,0.1l0,0.2
	c0.3,0,0.3,0.5,0.5,0.6v-0.2c0.1-0.1,0.2,0.4,0.3,0l-0.2,0c0-0.2,0.1-0.5,0.3-0.6c0.2,0.1,0,0.6,0.1,0.6c0.1-0.3,0-0.2,0-0.5
	c0.3,0.1,0.5,0.4,0.6,0.7c0,0,0-0.1,0-0.1c0.2,0,0.4,0.6,0.5,0.3v-0.1c0.2-0.5,0.4,0.5,0.5-0.3c0.1-0.1-0.2,0,0-0.4
	c0.3-0.2,0.1,0.7,0.3,0.5c0,0,0,0,0-0.1c0.2,0.1,0.4,0.1,0.5,0.2c0.3-0.6,0.7,0.2,1-0.5c-0.1,0.3,0,0.3,0,0.4c0,0,0-0.1,0-0.1
	c0.1,0,0.1,0.2,0.1,0.4c0.1-0.2,0.2,0.3,0.3,0.1c0,0.2,0.1,0.1,0.1,0.1c-0.1-0.2,0-0.4-0.1-0.6c0.3-0.1,0.2,0.8,0.5,0.7l0.2-0.3
	c0,0.5,0.2,0.3,0.2,0.5c0.1-0.1,0.1-0.3,0.2-0.5c0.1,0.1,0.3-0.1,0.3,0.2l-0.1,0.1c0.3-0.2,0.4,0.6,0.7,0.3l0.1-0.7
	c0.2-0.3,0.3,0.4,0.5,0c-0.1,0.2-0.1,0.2,0,0.4c-0.1,0-0.2-0.2-0.3-0.2l0.2,0.5l-0.3-0.2c0.1,0.3,0.1,0.2,0,0.5
	c0.2,0.3,0.3-0.3,0.4,0c0.1-0.1,0-0.4,0.1-0.5c0.1,0.3,0.4-0.5,0.5-0.1c0-0.1-0.1,0,0-0.2c0.1,0.1,0.2,0.1,0.2,0.3l-0.1,0.1
	c0.1,0,0.1,0.3,0.3,0.1c0.1,0.2,0.1,0.5,0,0.5c0,0,0.2-0.1,0.1-0.4c0.3,0,0,0.8,0.3,0.5c0,0,0-0.1,0-0.1c0.1,0,0.1,0,0.2,0
	c-0.2-0.1,0.1-0.6-0.1-0.5c0.1-0.4,0.2-0.1,0.3-0.2c0.1,0.3-0.1,0.6,0,0.8c0-0.1,0.1-0.1,0.1-0.2l-0.1,0.3c0.1,0,0.1,0,0.2,0.1
	l-0.1-0.1c0.1,0,0.3-0.5,0.5-0.2c0-0.1-0.1-0.4,0-0.5c0.2,0.2,0.1-0.1,0.2-0.3c0.2,0.1,0,0.5,0.3,0.4c0,0,0,0.2-0.1,0.3
	c0.2-0.1,0.3,0.1,0.6-0.1c-0.1,0-0.2,0.2-0.1,0.3c0,0,0,0,0,0c0-0.3,0.2-0.2,0.3-0.3v-0.1c0.1-0.1,0.1-0.2,0-0.3c0,0,0,0.1-0.1,0.1
	c-0.1-0.1,0-0.7,0.2-0.7c0.2,0.2,0.1,0.5,0,0.7c0.3-0.1,0.1,0.7,0.4,0.5c0,0,0.3-0.6,0.5-0.6c0,0.3-0.2,0.2-0.2,0.5
	c0.4-0.8,0.5,0.6,0.9,0.1v-0.4c0.1,0,0.2,0,0.3,0l-0.2,0.2c0.1,0.1,0.3,0.1,0.3-0.3c0.1,0.4,0.2,0.2,0.4,0.1c-0.2,0,0,0.1-0.1-0.2
	c0.2-0.2,0.2,0,0.3,0.1c0-0.2,0.1-0.4,0.2-0.4c0.1,0.3,0.3,0.3,0.5,0.4v-0.1c0.3,0.2,0.7-0.3,0.9,0.1l0,0l0,0l0,0
	c-0.2,0.4,0.2,0.3,0.3,0.5c0-0.1,0.1-0.3,0.1-0.3c-0.1,0.4,0.1,0.2,0.1,0.4c0.1-0.1,0.1-0.4,0.2-0.4c0.2,0,0,0.2,0,0.4
	c0-0.2,0.2-0.3,0.3-0.3c0-0.1-0.1,0-0.1,0c0-0.2,0.1-0.1,0.1-0.4c0.1,0,0,0.3,0.1,0.2l0-0.3c0.1-0.1,0.1,0.1,0.1,0.1
	c0-0.2,0-0.4,0-0.5c0.2,0.2-0.1,0.8-0.1,1.1c0.3-0.2,0.4,0.2,0.5,0.3v-0.3c0.1,0.1,0.1,0.2,0.1,0.3h0.1c-0.1-0.2-0.1-0.3,0-0.5
	c0.1,0.1,0.3,0.1,0.3,0.5v-0.1c0.2-0.1,0.6-0.2,0.6-0.3c0.2,0.2,0.5,0,0.4,0.4c0.1,0.1,0.4-0.5,0.4,0c0.2-0.3,0-0.1,0-0.5
	c0.2-0.3,0.2,0.5,0.4-0.1c0.1,0.2-0.1,0.1-0.1,0.4c0.1-0.6,0.3,0,0.5-0.4c0,0.3-0.1,0.1,0,0.4c0-0.2,0.1-0.2,0.1-0.2v0.4l0.3-0.9
	c0.1,0.5-0.2,0.6,0.1,0.9l0,0c0.2-0.4,0.2,0.3,0.4,0.1c-0.1,0.1,0-0.2,0-0.3l0.1,0.2c0,0,0-0.1,0-0.1c0.2-0.3,0.1,0.2,0.2-0.1
	c-0.1-0.1,0-0.4,0.1-0.5l0.1,0.5v-0.5c0.2,0,0.3,0.9,0.5,0.2l-0.1-0.1c0-0.1,0.2-0.5,0.2-0.2c0,0.1,0,0.4-0.1,0.3l0.1-0.1
	c0-0.2-0.1-0.5-0.3-0.6c0,0.1,0.1,0.3,0,0.5c-0.1-0.1-0.2-0.4-0.3-0.5c0,0.2,0,0.3,0,0.5c-0.2,0.2-0.1-0.2-0.2-0.3
	c-0.1,0.1-0.1,0.2-0.1,0.3c-0.1-0.2-0.2-0.2-0.4-0.1c0.1,0.1,0.1,0.3,0,0.5c-0.2-0.2-0.2-0.7-0.4-0.9c-0.2-0.6-0.7,0.2-0.8-0.2
	c0-0.2,0.2-0.2,0.1-0.3c0,0.3-0.1,0.2-0.2,0.3c-0.1-0.5-0.2,0.1-0.3-0.3c0,0.1-0.1,0.2-0.2,0.3c0,0.4-0.2,0.1-0.1,0.7
	c-0.1-0.6-0.4,0.1-0.4-0.8l0.1-0.1l-0.4,0.1l0,0c-0.1,0-0.1-0.1-0.3,0.3c0,0.1,0.1,0.1,0.2,0.2c-0.2,0.3-0.2-0.3-0.3-0.4
	c0,0.3,0.1,0.1,0,0.4c-0.1,0-0.2-0.2-0.2-0.3v0.2c-0.3,0.3,0-0.8-0.2-0.3c0-0.1,0-0.2,0-0.3c-0.1,0.1-0.3,0.4-0.2,0.6
	c-0.1,0-0.2-0.2-0.2-0.3c0-0.2,0.1-0.1,0.2-0.4l-0.3-0.2c0,0,0,0.2,0,0.2c-0.5,0.7-0.7-0.8-1.3,0.1c0.1-0.2,0-0.2,0-0.4
	c-0.2,0-0.4,0-0.5,0.1v0.2c-0.3-0.3-0.5-0.6-0.7-0.5c0,0.1,0,0.2,0,0.3c-0.1-0.3-0.5,0.6-0.4,0h0.1c-0.3,0.1-0.6-0.5-1-0.6
	c-0.1,0.4,0.2,0.1,0.1,0.5c-0.3,0.1-0.5-0.2-0.7-0.2c0,0,0,0.1,0,0.1c-0.3,0.2,0.1-0.4-0.1-0.4c0,0.2,0,0.2-0.1,0.3v-0.3
	c0,0.1,0,0.3,0,0.4c0-0.4-0.4-0.2-0.4-0.6c0,0.1,0,0.5-0.1,0.6c-0.1,0.1-0.2-0.1-0.2-0.2l0,0c-0.1,0.3-0.3,0.2-0.3,0.2
	c-0.2,0.1,0-0.2-0.1-0.5l0.2-0.2l-0.3-0.1l0.1,0.2c-0.2,0.1-0.2-0.2-0.4-0.2l0.1-0.2L80,13c-0.1,0.5-0.2,0.1-0.2,0.6
	c-0.4,0.2-0.5-0.4-0.8-0.5c0.1,0,0,0.1,0,0.2c-0.2,0.1-0.3-0.2-0.3-0.4c0,0.1,0,0.2,0,0.3c-0.2,0-0.1-0.3-0.3-0.5
	c0,0.2,0,0.3-0.1,0.3c0-0.1,0-0.2,0-0.3c0,0.9-0.3,0.3-0.3,1.1c0-0.2-0.3-0.6-0.1-1l0.1,0.1c0-0.3-0.1-0.2-0.1-0.2c0,0,0,0.1,0,0.2
	c-0.3-0.3-0.7-0.1-1-0.4c0,0.1,0.2,0.3,0,0.3c-0.4,0.1-0.5-0.4-0.9-0.7c-0.1,0.6,0.4,0.1,0.3,0.7c-0.4-0.2-0.8-0.5-1.1-0.8
	c-0.2,0.8-0.4-0.4-0.7,0.2c0.1-0.3-0.1-0.4-0.2-0.4c0,0.2-0.1,0.2-0.1,0.4c-0.1-0.3-0.5-0.4-0.5,0.1c0-0.5-0.3,0-0.3-0.4
	c-0.2,0.2-0.3-0.2-0.6,0c0.1-0.3-0.2-0.2-0.2-0.3c0,0,0.1,0.1,0,0.1c-0.1,0.3-0.2-0.3-0.3-0.1c-0.1,0.2,0,0.3-0.1,0.3
	c0-0.2-0.3-0.6-0.4-0.3c0.1,0,0,0.1,0.1,0.2c-0.5-0.5-1.1,0-1.6-0.6l0.1,0.4c-0.4,0.5-0.2-0.7-0.4-0.7c-0.8,0.1-1.6,0.7-2.3,0.3
	c0-0.1,0-0.2,0.1-0.3c-0.1,0-0.1,0.4-0.2,0.2v-0.2c-0.4,0.6-0.9-0.5-1.2,0.5c-0.3-0.4-0.5,0.2-0.9-0.3c-0.1,0.2,0.1,0.4,0,0.4
	l-0.3-0.4l0,0c-0.3-0.7-0.9,0.7-1.4,0.2v0c0,0.2-0.1,0.3-0.2,0.3s0-0.2,0.1-0.3c-0.2-0.2-0.5-0.3-0.8-0.4c0.1,0.2-0.1,0.2-0.2,0.5
	c-0.1-0.2,0.1-0.3-0.1-0.5c-0.3,0-0.5,0.2-0.7,0.3c-0.1-0.3-0.2-0.2-0.2-0.6c-0.3-0.1-0.5-0.1-0.8-0.2v0.1c-0.1-0.4-0.3,0.2-0.4,0
	c0,0.1,0,0.2,0,0.3l-0.2-0.2c0.1,0.1,0.1,0.6,0,0.6c-0.1-0.3,0-0.2,0-0.5l-0.1,0.4c-0.1,0-0.1-0.5,0-0.6c-0.4,0-0.7-0.2-1-0.2v0.3
	c-0.1-0.1-0.4-0.1-0.5,0.1c0,0,0,0,0,0.1c0-0.1,0-0.2,0-0.3c-0.2-0.4,0,0.4-0.2,0c0.1,0.1,0.1,0.2,0.1,0.3l-0.4-0.3
	c0,0.2-0.3,0.6-0.5,0.5c0-0.1,0-0.2,0.1-0.3L57.7,11l-0.1,0.5L57.4,11v0.4c-0.1-0.1-0.2-0.6-0.3-0.5c-0.4,0.2-0.3,0.4-0.6,0.7
	c0-0.7-0.4,0-0.5-0.5c-0.4,0.5-0.9,0.2-1.3,0.4l0,0.1c-0.2,0.3-0.2-0.6-0.4-0.4l0.1,0.1c-0.3,0.4-0.7,0-1-0.3c0.1,0.1,0,0.3-0.1,0.3
	c-0.1,0,0.1-0.5-0.1-0.4c0,0.1,0,0.2,0,0.2l-0.1-0.4C52.8,11,52.4,11.2,52,11c-0.1,0.1,0,0.3,0,0.4c-0.3-0.1-0.6-0.4-0.9-0.4v0.4
	c-0.1,0-0.1-0.6-0.3-0.3c0,0.1,0.1,0,0.2,0.2c-0.3,0.3-0.2-0.4-0.4-0.4l0.1,0.5c-0.2,0.3-0.2-0.3-0.3-0.5c-0.3-0.6-0.2,0.9-0.6,0.5
	c-0.1-0.2,0-0.3-0.1-0.6c-0.3,0.1-0.3-0.2-0.6-0.1c-0.1,0.7,0.1,0,0,0.7l0.2-0.2c-0.2,0.4,0.2,0.1,0.1,0.5c-0.1,0.1-0.3-0.2-0.5-0.4
	c0,0.3,0.2,0,0.1,0.5L49,11.7c0,0.1,0,0.2,0.1,0.2c0,0.3-0.1,0-0.2,0c0-0.2,0-0.4,0-0.6c0,0,0,0.1,0,0.1c-0.2-0.5-0.5-0.1-0.6-0.5
	c0,0.1,0,0.1,0,0.2c-0.1,0-0.2-0.4-0.4-0.5c-0.1,0.2,0.1,0.7-0.2,0.6c0-0.3,0-0.7-0.1-0.7C47.8,10.6,47.8,10.8,47.8,11z M52,11.5
	L52,11.5L52,11.5L52,11.5z M52.3,11.8c0,0-0.1-0.1,0-0.2h0.2C52.4,11.7,52.3,11.7,52.3,11.8L52.3,11.8z M51.7,13.8L51.7,13.8l0.1,0
	c0,0.1,0,0.1-0.1,0.1C51.7,13.9,51.7,13.9,51.7,13.8L51.7,13.8z"/>
<path class="st0" d="M51.6,13.5L51.6,13.5C51.6,13.5,51.6,13.5,51.6,13.5L51.6,13.5L51.6,13.5z"/>
<path class="st0" d="M84.6,15.5L84.6,15.5L84.6,15.5L84.6,15.5z"/>
<polygon class="st0" points="57.6,10.9 57.6,11 57.5,10.9 "/>
<path class="st0" d="M86.8,14.7C86.8,14.7,86.8,14.6,86.8,14.7C86.8,14.6,86.8,14.7,86.8,14.7z"/>
<path class="st0" d="M87.7,14.7l0.1-0.1C87.8,14.7,87.7,14.7,87.7,14.7z"/>
<path class="st0" d="M88.4,14.7c0,0,0,0.1,0,0.2l0,0V14.7z"/>
<path class="st0" d="M77.8,12.7L77.8,12.7C77.7,12.6,77.8,12.6,77.8,12.7z"/>
<path class="st0" d="M80.9,13.9c0-0.1,0-0.1-0.1-0.2C80.9,13.7,80.9,13.7,80.9,13.9z"/>
<path class="st0" d="M74.3,11.8L74.3,11.8z"/>
<path class="st0" d="M80.6,13.7c0.1-0.1,0.1,0,0.2,0S80.7,13.8,80.6,13.7z"/>
<path class="st0" d="M91.3,15.1L91.3,15.1C91.3,15.1,91.3,15.1,91.3,15.1L91.3,15.1z"/>
<path class="st0" d="M91.3,15.1L91.3,15.1C91.3,15.2,91.3,15.2,91.3,15.1z"/>
<path class="st0" d="M91.4,15.3l-0.1-0.1C91.3,15.2,91.4,15.2,91.4,15.3z"/>
<path class="st0" d="M90.4,15.1V15C90.4,15,90.4,15,90.4,15.1z"/>
<path class="st0" d="M90.1,15c0.1,0,0.2-0.2,0.3-0.1V15C90.4,14.7,90.1,15.2,90.1,15z"/>
<path class="st0" d="M88.7,16.3l0.2-0.1c-0.1,0.1-0.1,0.3,0,0.3C88.5,17,89,16.3,88.7,16.3z"/>
<path class="st0" d="M88,16.4c0.1,0.1,0,0.2,0,0.3C87.9,16.5,87.9,16.5,88,16.4z"/>
<path class="st0" d="M83,15.5v0.3C82.9,15.8,83,15.8,83,15.5z"/>
<polygon class="st0" points="82.3,13.8 82.4,13.6 82.4,13.9 "/>
<polygon class="st0" points="81.4,16 81.4,16 81.3,15.9 "/>
<path class="st0" d="M73,14.8l0.1-0.4C73.1,14.5,73.1,14.9,73,14.8z"/>
<path class="st0" d="M69.4,14.1c-0.1,0.2-0.2,0.3-0.2,0.1C69.3,14.2,69.4,14,69.4,14.1z"/>
<polygon class="st0" points="58.4,14.1 58.5,14.2 58.4,14.1 "/>
<path class="st0" d="M82,48.2c-0.1,0.1-0.2,0.3-0.3,0.2L82,48L82,48.2z"/>
<path class="st0" d="M81.1,48.4c0.1-0.3,0.3-0.6,0.5-0.8c-0.2,0.3-0.1,0.2-0.3,0.6c0,0.1,0.2,0,0.3-0.1c-0.1,0.1,0.1,0,0,0.2
	c-0.3,0.2-0.4,0.1-0.3-0.2C81.2,48.2,81.1,48.3,81.1,48.4z"/>
<path class="st0" d="M75.5,44.5L75.5,44.5C75.6,44.5,75.5,44.5,75.5,44.5z"/>
<path class="st0" d="M72,42.2C72,42.2,72,42.3,72,42.2C72,42.4,72,42.3,72,42.2z"/>
<path class="st0" d="M71.2,42.2L71.2,42.2C71.2,42.2,71.1,42.2,71.2,42.2z"/>
<path class="st0" d="M75.5,44.5h-0.2C75.4,44.4,75.4,44.5,75.5,44.5z"/>
<path class="st0" d="M81.1,47.1c0,0,0,0.1,0,0.1C81.1,47.1,81.1,47.1,81.1,47.1L81.1,47.1z"/>
<path class="st0" d="M76.8,45.9L76.8,45.9l-0.1,0.2L76.8,45.9z"/>
<path class="st0" d="M77.8,46.9c0,0,0.2-0.3,0.3-0.4C78,46.6,78,46.6,78,46.7L77.8,46.9z"/>
<path class="st0" d="M79.9,47.9L79.9,47.9z"/>
<path class="st0" d="M75.9,45.3L75.9,45.3C75.9,45.4,75.9,45.4,75.9,45.3z"/>
<path class="st0" d="M43,22.9L43,22.9C43,22.9,43,22.9,43,22.9z"/>
<path class="st0" d="M40.7,23.5L40.7,23.5l-0.1,0.2L40.7,23.5z"/>
<path class="st0" d="M69.8,41.9L69.8,41.9C69.8,41.9,69.8,41.9,69.8,41.9z"/>
<path class="st0" d="M59.6,35.6c0.3-0.2,0-0.5,0.3-0.7C59.9,35,59.9,35.5,59.6,35.6z"/>
<path class="st0" d="M81,47.1L81,47.1C81,47,81,47,81,47.1z"/>
<path class="st0" d="M60,34.9L60,34.9L60,34.9z"/>
<path class="st0" d="M67.4,40.1l0.1-0.1C67.5,40,67.4,40.1,67.4,40.1z"/>
<path class="st0" d="M69.6,40.8L69.6,40.8C69.5,40.8,69.5,40.8,69.6,40.8z"/>
<path class="st0" d="M66.7,39.1C66.7,39.1,66.6,39.1,66.7,39.1L66.7,39.1C66.6,39.1,66.6,39.1,66.7,39.1z"/>
<path class="st0" d="M65.6,38.5C65.6,38.5,65.7,38.5,65.6,38.5L65.6,38.5L65.6,38.5z"/>
<path class="st0" d="M46.1,24.9C46,25,46,25.1,45.9,25.1C46,24.9,45.9,24.8,46.1,24.9z"/>
<path class="st0" d="M80.9,47.2C81,47.1,81,47.1,81,47l0,0C81,47.1,81,47.1,80.9,47.2z"/>
<path class="st0" d="M68.1,36.7l-0.2-0.1C67.9,36.6,68,36.6,68.1,36.7z"/>
<path class="st0" d="M53.7,29.1L53.7,29.1C53.7,29.1,53.7,29.1,53.7,29.1z"/>
<path class="st0" d="M67.4,36.3c-0.1,0.1-0.1,0.1-0.2,0.2v-0.1L67.4,36.3z"/>
<path class="st0" d="M45.9,25.1L45.9,25.1z"/>
<path class="st0" d="M45.1,24.2c-0.1-0.2-0.1,0-0.4,0.2c0.1-0.4-0.2,0,0.1-0.5c-0.1,0.2-0.2,0.3-0.4,0.4c0.2-0.3,0-0.4,0.2-0.7
	c-0.3,0.4-0.1,0.6-0.5,0.9c0.1-0.3,0-0.5,0.2-0.9c-0.1,0.1-0.2,0.2-0.4,0.2c0,0,0,0.1,0,0.1c0-0.4-0.5-0.3-0.3-0.8
	c-0.3,0.6-0.4-0.2-0.6,0.5c-0.1-0.1,0-0.4,0-0.5c-0.3,0.5-0.3,0-0.5,0.2c0.1-0.3-0.1-0.3-0.1-0.5c0,0.1,0,0.2-0.1,0.3
	c0-0.3-0.1-0.1-0.3,0.1c0-0.2,0.2-0.3,0.3-0.6c-0.2,0-0.2,0.3-0.3,0.5l0.1-0.6c-0.1,0.1-0.2,0.1-0.2,0.2c0-0.2,0.1-0.4-0.1-0.2
	l0.1,0.1l-0.2,0.2v-0.4c-0.5,0.2-0.7,0.8-1,1.2l0,0.2c-0.1,0.2-0.2,0.2-0.3,0.2c-0.1,0.2-0.2,0.5-0.1,0.8c0.3,0.2,0.4-0.5,0.7-0.5
	l0.1,0.5l0.1-0.2c0.1-0.1,0,0.1,0,0.2c0.1-0.3,0.3,0,0.4,0.1l-0.2,0.2c0,0.7,0.8-0.3,0.9,0.1l-0.1,0.5l0.2-0.3
	c0,0.3-0.2,0.5,0.1,0.5c0.9-0.2,1.1,0.8,1.9,0.8c0,0-0.1,0.1-0.1,0.1c1-0.5,0.3,1.3,1.1,0.9v-0.1c0.2,0.2,0-0.1,0.3-0.2
	c-0.2,0.4,0.1,0.5,0.2,0.7c0-0.1,0-0.1,0-0.2s0.2-0.3,0.2-0.2c-0.2,0.6,0.2,0.8,0.3,1.1c0.2-0.2,0.5-0.4,0.8-0.7
	c0,0.1-0.1,0.3-0.2,0.6c0.2-0.1,0.2,0,0.1,0.2L47,28.4l0,0c0,0,0,0,0,0c0,0-0.1-0.1,0-0.1c-0.2,0.2-0.1,0.2-0.3,0.5
	c0.1,0,0.2,0.2,0.3,0c0,0,0.1,0,0.2,0s0,0.1,0.1,0.1l0,0c0,0,0-0.1,0.1-0.1c0.2,0,0.2,0.5,0.2,0.8c0.1-0.5,0.3-0.4,0.4-0.7
	c0,0-0.2,0-0.4-0.1c0.1,0,0.1-0.1,0.1-0.2c0.3-0.2,0.1,0.4,0.5,0.3c0-0.1,0-0.2,0.1-0.2c0.1,0,0.1,0.2,0,0.4
	c0.2-0.3,0.5-0.4,0.5-0.2s-0.1,0.4,0,0.4l0-0.2c0.3-0.1,0,0.4,0.2,0.3c-0.1,0,0-0.2,0.1-0.2c0.1,0.2,0.1,0.3,0,0.8l0.1-0.3
	c0,0.3,0.1,0.8,0.4,0.4c-0.4,0.6,0.1,0.5,0.3,0.6c0,0,0-0.2,0.1-0.3c0,0.6,0.5,0.3,0.8,0.5l0.3-0.4c0.1,0.1-0.3,1-0.1,1.1l0.1-0.3
	c0.2,0.2,0.4,0.3,0.6,0.3l0.2-0.3c0,0.2,0.1,0.2,0.1,0.4c0.6-0.7,0.5,0.8,1.3,0.1l-0.3,0.6c0.1,0.1,0.2,0.3,0.5-0.1h0
	c0.2-0.5,0.1,0.1,0.3,0c0,0.2,0,0.3-0.2,0.5c0.5-0.1,0.9,0.5,1.3,0.1c0.2,0.4,0.3,1,0.7,1.1v-0.1c0.3,0,0.7-0.2,0.8-0.5
	c0.2,0.3,0,1,0.5,1V34c0.1-0.1,0.1,0.2,0.1,0.3c0,0.1,0.1-0.1,0.1-0.2c0.2-0.1,0.1,0.2,0.1,0.2l0.1-0.2c0.4-0.2,0.5,0.7,0.9,0.8
	c0-0.1,0.1-0.2,0.2-0.3c-0.2,0.6,0.3,0.7,0.3,0.9v-0.3c0.1,0.5,0.5-0.4,0.6,0.1l-0.3,0.2c0.2,0,0.2,0.1,0,0.3
	c0.2-0.1,0.2-0.4,0.5-0.3c0.1-0.1-0.1-0.2,0.1-0.3l0.5-0.3c0,0,0.1,0,0.1,0.1c-0.4,0.7,0.2,0.2-0.3,0.7c0.3,0.3,0.9,0,1,0.5
	c0.5-0.6,0.6,0.3,1.1-0.5c0.2,0.1,0.2,0.3,0.2,0.7c-0.1,0-0.1-0.1-0.1-0.1c0,0.2,0,0.4,0.2,0.4c0-0.3,0-0.6,0-0.9
	c0.1,0.3,0.2,0.5,0.2,0.8l0.3-0.4c0,0.4,0.3-0.3,0.2,0.2l-0.1,0.1c0.3,0.1,0,0.5,0.2,0.7l0.1-0.2c0.1,0,0,0.4,0.3,0.1l-0.1-0.1
	c0.1-0.2,0.3-0.4,0.5-0.5c0.1,0.2-0.2,0.5-0.2,0.6c0.2-0.3,0.1-0.1,0.2-0.5c0.2,0.3,0.3,0.6,0.2,0.9c0,0,0-0.1,0.1-0.1
	c0.2,0.1,0.1,0.7,0.3,0.5V38c0.4-0.3,0.2,0.6,0.6-0.1c0.1-0.1-0.2-0.1,0.1-0.3c0.3-0.1-0.2,0.7,0.1,0.6c0,0,0,0,0-0.1
	c0.1,0.1,0.3,0.3,0.4,0.4c0.5-0.5,0.5,0.5,1.1-0.1c-0.2,0.2-0.1,0.3-0.2,0.4c0,0,0-0.1,0.1-0.1c0.1,0,0,0.3-0.1,0.4
	c0.2-0.2,0.1,0.3,0.2,0.2c-0.1,0.1,0,0.1,0.1,0.2c0-0.2,0.2-0.3,0.2-0.6c0.3,0.1-0.2,0.8,0.1,0.8l0.3-0.2c-0.2,0.4,0.1,0.4,0,0.5
	c0.1-0.1,0.3-0.2,0.3-0.4c0,0.2,0.3,0,0.2,0.3l-0.2,0.1c0.4,0,0.2,0.7,0.5,0.6l0.4-0.6c0.3-0.2,0,0.5,0.4,0.2
	c-0.2,0.2-0.1,0.1-0.2,0.4c-0.1,0-0.1-0.2-0.2-0.3l0,0.5l-0.2-0.4c0,0.3,0,0.3-0.2,0.5c0,0.3,0.4-0.2,0.4,0.2c0.1,0,0.2-0.3,0.3-0.4
	c0,0.3,0.6-0.3,0.5,0.1c0.1,0,0-0.1,0.1-0.2c0.1,0.1,0.1,0.1,0,0.3h-0.1c0.1,0-0.1,0.3,0.2,0.2c0,0.2-0.2,0.5-0.3,0.5
	c-0.1,0,0.2-0.1,0.3-0.3c0.2,0.1-0.3,0.7,0.1,0.6c0,0,0-0.1,0-0.1c0.1,0,0.1,0,0.1,0.1c-0.1-0.2,0.4-0.5,0.1-0.5
	c0.2-0.3,0.2,0,0.4,0c0,0.3-0.3,0.5-0.3,0.7c0.1-0.1,0.1-0.1,0.2-0.1l-0.2,0.2c0.1,0,0.1,0.1,0.1,0.1v-0.2c0.1,0,0.5-0.3,0.5,0.1
	c0-0.1,0.1-0.4,0.3-0.4c0.1,0.3,0.1-0.1,0.3-0.2c0.1,0.2-0.3,0.5,0.1,0.5c0,0-0.1,0.1-0.2,0.2c0.3,0,0.2,0.2,0.5,0.2
	c-0.1,0-0.2,0.1-0.2,0.2c0.1-0.2,0.3-0.1,0.4-0.2l-0.1,0.1c0.1,0,0.1-0.2,0.1-0.3c0,0-0.1,0.1-0.1,0c0-0.2,0.3-0.6,0.5-0.6
	c0.1,0.2-0.2,0.5-0.3,0.6c0.3,0-0.2,0.7,0.1,0.6c0,0,0.5-0.4,0.7-0.3c-0.1,0.3-0.3,0.1-0.4,0.4c0.7-0.5,0.2,0.7,0.7,0.5l0.2-0.4
	c0.1,0,0.2,0.1,0.2,0.1l-0.2,0.1c0,0.1,0.2,0.2,0.4-0.1c0,0.4,0.1,0.2,0.3,0.3c-0.2-0.1,0,0,0-0.2c0.3-0.1,0.2,0.1,0.3,0.2
	c0.1-0.1,0.3-0.3,0.3-0.2c-0.1,0.3,0.2,0.4,0.2,0.6l0.1-0.1c0.1,0.3,0.7,0,0.8,0.5l0,0l0,0l0,0c-0.3,0.2,0,0.4,0,0.5
	c0.1-0.1,0.2-0.2,0.2-0.2c-0.2,0.3,0,0.2-0.1,0.4c0.2,0,0.3-0.4,0.4-0.2c0.1,0.1-0.1,0.2-0.2,0.3c0.1-0.1,0.3-0.2,0.4-0.2
	c0-0.1-0.1,0-0.1-0.1c0.1-0.2,0.1-0.1,0.3-0.3c0.1,0-0.2,0.3,0,0.2l0.1-0.3c0.1,0,0,0.1,0,0.1c0-0.1,0.2-0.3,0.3-0.5
	c0.1,0.3-0.5,0.6-0.6,0.9c0.3,0,0.2,0.4,0.3,0.5l0.2-0.3c0,0.1,0,0.2,0,0.3l0.1,0.1c0-0.2,0.1-0.3,0.2-0.5c0,0.2,0.2,0.2,0,0.6
	l0-0.1c0.2,0,0.6,0.2,0.7,0c0.1,0.2,0.4,0.2,0.1,0.6c0,0.2,0.6-0.3,0.3,0.2c0.3-0.1,0.1-0.1,0.3-0.4c0.3-0.1-0.1,0.5,0.4,0.1
	c0,0.3-0.1,0.1-0.3,0.3c0.4-0.4,0.3,0.1,0.6,0c-0.1,0.2-0.2,0.1-0.2,0.3c0.1-0.1,0.2-0.1,0.2-0.1l-0.2,0.3l0.7-0.6
	c-0.1,0.5-0.5,0.5-0.4,0.8l0,0c0.3-0.2,0,0.4,0.3,0.3c-0.1,0,0.1-0.2,0.2-0.3v0.2c0,0,0-0.1,0.1-0.1c0.3-0.1,0,0.2,0.2,0.1
	c0-0.1,0.2-0.3,0.3-0.4l-0.2,0.4l0.3-0.4c0.2,0.1-0.2,0.9,0.3,0.4V48c0.1-0.1,0.4-0.3,0.3-0.1c0,0.1-0.2,0.3-0.2,0.3h0.2
	c0.1-0.2,0.2-0.4,0.1-0.7c-0.1,0.1-0.1,0.3-0.2,0.4c0-0.2,0-0.4,0-0.6c-0.1,0.1-0.2,0.3-0.3,0.4c-0.2,0,0.1-0.2,0-0.3
	c-0.1,0.1-0.2,0.1-0.3,0.2c0-0.2-0.1-0.3-0.3-0.2c0,0-0.1,0.3-0.2,0.4c0-0.3,0.2-0.7,0.2-1c0.1-0.6-0.7-0.2-0.6-0.6
	c0.1-0.1,0.3-0.1,0.3-0.3c-0.2,0.2-0.2,0.1-0.3,0.2c0.2-0.4-0.2-0.1-0.1-0.4c0,0.1-0.2,0.1-0.3,0.2c-0.2,0.3-0.2,0-0.4,0.6
	c0.2-0.6-0.4-0.2,0-0.9l0.1,0h-0.3c-0.1,0-0.1-0.1-0.4,0.1c0,0.1,0,0.2,0,0.3c-0.3,0.2,0-0.4-0.1-0.5c-0.2,0.2,0,0.2-0.2,0.4
	c-0.1,0,0-0.2-0.1-0.3l-0.1,0.1c-0.4,0.1,0.4-0.6-0.1-0.4c0.1-0.1,0.1-0.1,0.2-0.2c-0.2,0.1-0.4,0.2-0.4,0.4c-0.1,0-0.1-0.2,0-0.4
	c0.1-0.2,0.1,0,0.3-0.2l-0.2-0.3c0,0-0.1,0.1,0,0.2c-0.8,0.4-0.2-1-1.2-0.5c0.2-0.2,0.1-0.2,0.2-0.4c-0.2,0-0.3-0.2-0.5-0.2L76,43.8
	c-0.1-0.4-0.2-0.7-0.4-0.8c-0.1,0.1-0.1,0.2-0.1,0.3c0.1-0.3-0.7,0.3-0.3-0.2h0.1c-0.3-0.1-0.3-0.7-0.6-1c-0.3,0.3,0.1,0.2-0.2,0.5
	c-0.3,0-0.3-0.4-0.6-0.5c0,0.1,0,0.1,0,0.1c-0.4,0.1,0.3-0.3,0-0.4C73.8,42,73.7,42,73.6,42l0.1-0.3c-0.1,0.1-0.2,0.2-0.2,0.3
	c0.2-0.4-0.2-0.3-0.1-0.7c-0.1,0.1-0.2,0.4-0.3,0.5S73,41.7,73,41.6l0,0c-0.2,0.2-0.4,0-0.4,0.1c-0.2,0,0.1-0.2,0.1-0.5l0.2,0
	l-0.2-0.2v0.2c-0.2,0-0.1-0.3-0.3-0.4l0.2-0.1l-0.1-0.2c-0.3,0.4-0.3,0-0.5,0.5c-0.4,0-0.2-0.6-0.5-0.8c0,0,0,0.1-0.1,0.2
	c-0.2,0-0.2-0.3-0.1-0.5c0,0.1-0.1,0.2-0.1,0.3c-0.2-0.1,0-0.3-0.1-0.5c-0.1,0.2-0.1,0.3-0.2,0.3c0.1-0.1,0.1-0.2,0.1-0.3
	c-0.4,0.9-0.4,0.2-0.7,0.8c0.1-0.2,0-0.7,0.3-1v0.1c0.1-0.2,0-0.2,0-0.2c0,0.1,0,0.1,0,0.2c-0.1-0.4-0.5-0.4-0.7-0.8
	c0,0.1,0,0.3-0.1,0.3c-0.4-0.1-0.3-0.6-0.5-1c-0.3,0.5,0.3,0.3,0,0.8c-0.3-0.4-0.5-0.8-0.7-1.2c-0.6,0.7-0.2-0.5-0.8-0.1
	c0.2-0.2,0.1-0.4,0-0.5c-0.1,0.2-0.2,0.2-0.3,0.3c0-0.3-0.2-0.6-0.5-0.1c0.3-0.5-0.2-0.1-0.1-0.5c-0.2,0.1-0.2-0.3-0.5-0.2
	c0.2-0.3-0.1-0.2-0.1-0.4c0,0,0,0.1,0,0.1c-0.2,0.2-0.1-0.3-0.3-0.2c-0.2,0.1-0.2,0.3-0.2,0.3c0.1-0.2,0-0.6-0.2-0.4
	c0,0,0,0.1,0,0.2c-0.2-0.6-1-0.5-1.2-1.2l-0.1,0.4c-0.6,0.3,0.1-0.7-0.1-0.8c-0.7-0.2-1.7-0.1-2.2-0.6c0-0.1,0.1-0.1,0.2-0.3
	c-0.1,0-0.3,0.3-0.2,0.1l0.1-0.2c-0.6,0.4-0.6-0.8-1.3-0.1c-0.1-0.5-0.6,0-0.7-0.7c-0.2,0.1-0.1,0.4-0.2,0.4l-0.1-0.5l0,0
	c0-0.7-1.1,0.2-1.3-0.4l0,0c-0.1,0.1-0.2,0.3-0.3,0.2c0-0.1,0.1-0.1,0.2-0.2c-0.1-0.3-0.3-0.5-0.5-0.6c0,0.3-0.2,0.1-0.4,0.4
	c0-0.2,0.2-0.3,0.1-0.5c-0.2-0.1-0.5,0-0.8,0c0.1-0.3-0.1-0.3,0.1-0.6c-0.2-0.2-0.3-0.3-0.6-0.5l-0.1,0.1c0.1-0.4-0.4,0.1-0.3-0.2
	c0,0.1-0.1,0.2-0.1,0.3l-0.1-0.2c0,0.2-0.2,0.5-0.3,0.5c0-0.3,0.1-0.2,0.2-0.4l-0.2,0.3c-0.1-0.1,0.1-0.5,0.3-0.6
	c-0.3-0.2-0.5-0.5-0.8-0.6L55,29.9c-0.1-0.2-0.3-0.2-0.4-0.1c0,0,0,0-0.1,0c0-0.1,0.1-0.2,0.1-0.3c0-0.4-0.2,0.4-0.2-0.1
	c0,0.1,0,0.2,0,0.3l-0.2-0.5c-0.1,0.2-0.5,0.4-0.6,0.2c0-0.1,0.2-0.2,0.2-0.2L53.7,29l-0.3,0.4l0-0.4l-0.2,0.3
	c-0.1-0.1,0.1-0.6,0-0.6c-0.4,0-0.4,0.2-0.8,0.4c0.3-0.7-0.4-0.2-0.2-0.7c-0.6,0.3-0.8-0.2-1.3-0.3v0.1c-0.3,0.2,0.1-0.6-0.2-0.6
	v0.1C50.3,28,50.1,27.4,50,27c0,0.1-0.1,0.3-0.2,0.3c-0.1-0.1,0.3-0.4,0.1-0.4c0,0.1-0.1,0.2-0.1,0.2l0-0.4c-0.4,0-0.9,0.1-1.2-0.3
	c-0.1,0.1-0.1,0.2-0.2,0.3c-0.2-0.2-0.3-0.6-0.5-0.8l-0.2,0.4c-0.1-0.1,0.2-0.6-0.1-0.4c-0.1,0,0.1,0.1,0,0.3
	c-0.4,0.2,0.1-0.4-0.2-0.5l-0.2,0.5c-0.3,0.2-0.1-0.3,0-0.6c0-0.6-0.6,0.7-0.7,0.2c0.1-0.2,0.2-0.3,0.3-0.5c-0.3,0-0.2-0.3-0.4-0.4
	c-0.5,0.5,0.1,0.1-0.3,0.6h0.3c-0.3,0.2,0.1,0.2-0.1,0.5c-0.2,0-0.2-0.4-0.2-0.6c-0.2,0.3,0.2,0.1-0.1,0.5v-0.2c0,0.1-0.1,0.2,0,0.2
	c-0.2,0.2-0.1,0-0.2-0.1c0.1-0.2,0.2-0.4,0.3-0.5l-0.1,0.1c0.1-0.5-0.3-0.3-0.3-0.7c0,0.1-0.1,0.1-0.1,0.2c0,0.1,0-0.5,0-0.6
	c-0.2,0.2-0.3,0.6-0.4,0.4c0.1-0.2,0.4-0.6,0.2-0.7C45.2,24,45.2,24.1,45.1,24.2z M48.4,26.8L48.4,26.8L48.4,26.8L48.4,26.8z
	 M48.5,27.2c0,0,0-0.1,0.1-0.2c0,0,0.1,0.1,0.1,0.1C48.6,27.1,48.5,27.1,48.5,27.2L48.5,27.2z M46.9,28.6L46.9,28.6
	c0,0.1,0,0.1,0.1,0.1c0,0.1-0.1,0.1-0.1,0C46.9,28.7,46.9,28.6,46.9,28.6L46.9,28.6z"/>
<path class="st0" d="M47,28.3L47,28.3L47,28.3L47,28.3L47,28.3z"/>
<path class="st0" d="M75.6,44.5L75.6,44.5L75.6,44.5L75.6,44.5z"/>
<polygon class="st0" points="53.5,28.8 53.4,28.9 53.4,28.8 "/>
<path class="st0" d="M77.9,44.8C77.9,44.8,78,44.8,77.9,44.8L77.9,44.8z"/>
<path class="st0" d="M78.6,45.3h0.2C78.7,45.3,78.7,45.3,78.6,45.3z"/>
<path class="st0" d="M79.3,45.6c0,0-0.1,0.1-0.1,0.1l0,0L79.3,45.6z"/>
<path class="st0" d="M70.9,38.9L70.9,38.9C70.9,38.9,70.9,38.8,70.9,38.9z"/>
<path class="st0" d="M73.1,41.4c0-0.1,0-0.1,0-0.2C73.1,41.2,73.2,41.2,73.1,41.4z"/>
<path class="st0" d="M68.1,36.7L68.1,36.7z"/>
<path class="st0" d="M72.9,41.1c0.1,0,0.1,0,0.1,0.1C73.1,41.2,73,41.2,72.9,41.1z"/>
<path class="st0" d="M81.5,47.4L81.5,47.4L81.5,47.4L81.5,47.4z"/>
<path class="st0" d="M81.5,47.5L81.5,47.5C81.5,47.5,81.5,47.5,81.5,47.5z"/>
<path class="st0" d="M81.5,47.7v-0.1C81.5,47.5,81.6,47.6,81.5,47.7z"/>
<path class="st0" d="M80.8,46.9l0.1-0.1L80.8,46.9z"/>
<path class="st0" d="M80.6,46.7c0.1,0,0.3-0.1,0.3,0l-0.1,0.1C81,46.7,80.5,46.9,80.6,46.7z"/>
<path class="st0" d="M78.7,47.2c0.1,0,0.2,0,0.2,0.1c-0.1,0.1-0.3,0.2-0.2,0.3C78.3,47.6,79,47.3,78.7,47.2z"/>
<path class="st0" d="M78.1,46.9c0.1,0.1-0.1,0.2-0.2,0.2C77.9,46.9,77.9,46.9,78.1,46.9z"/>
<path class="st0" d="M74.2,43.8L74,44C74,44,74.1,44,74.2,43.8z"/>
<polygon class="st0" points="74.4,41.9 74.6,41.8 74.4,42 "/>
<polygon class="st0" points="72.6,43.4 72.6,43.5 72.5,43.3 "/>
<path class="st0" d="M65.7,38.8l0.2-0.3C65.9,38.6,65.7,39,65.7,38.8z"/>
<path class="st0" d="M62.7,36.7c-0.1,0.2-0.3,0.2-0.2,0C62.6,36.7,62.7,36.6,62.7,36.7z"/>
<polygon class="st0" points="52.8,32 52.8,32.2 52.8,32 "/>
<path class="st0" d="M38.1,36.6c0.1-0.1,0.2-0.3,0.2-0.2l-0.2,0.3V36.6z"/>
<path class="st0" d="M38.9,36.3c-0.1,0.3-0.3,0.6-0.5,0.8c0.2-0.3,0.1-0.2,0.3-0.6c0-0.1-0.2,0-0.3,0.2c0-0.1-0.1,0,0-0.2
	c0.3-0.2,0.4-0.1,0.3,0.2C38.8,36.5,38.9,36.4,38.9,36.3z"/>
<path class="st0" d="M44,40L44,40C43.9,40,44,40,44,40z"/>
<path class="st0" d="M47,42.5C47,42.5,47,42.4,47,42.5C47,42.4,47,42.5,47,42.5z"/>
<path class="st0" d="M47.7,42.6L47.7,42.6C47.7,42.6,47.8,42.6,47.7,42.6z"/>
<path class="st0" d="M44,40h0.2C44.1,40.1,44,40.1,44,40z"/>
<path class="st0" d="M38.9,37.6c0,0,0-0.1,0-0.1C38.9,37.5,38.9,37.5,38.9,37.6L38.9,37.6z"/>
<path class="st0" d="M42.9,38.6L42.9,38.6c0,0,0.1-0.1,0.1-0.1L42.9,38.6z"/>
<path class="st0" d="M42,37.7c0,0-0.2,0.3-0.3,0.4c0.1-0.1,0.1-0.1,0.1-0.2C41.9,37.8,41.9,37.7,42,37.7z"/>
<path class="st0" d="M40.1,36.7L40.1,36.7C40.1,36.7,40.1,36.7,40.1,36.7z"/>
<path class="st0" d="M43.7,39.2L43.7,39.2C43.7,39.1,43.7,39.2,43.7,39.2z"/>
<path class="st0" d="M63.2,67.4L63.2,67.4C63.2,67.4,63.2,67.5,63.2,67.4z"/>
<path class="st0" d="M65.3,67.7L65.3,67.7l0.1-0.1L65.3,67.7z"/>
<path class="st0" d="M48.9,43.2L48.9,43.2C48.9,43.1,48.9,43.1,48.9,43.2z"/>
<path class="st0" d="M56.3,51.7c-0.3,0.1-0.2,0.4-0.6,0.5C55.8,52.1,56,51.7,56.3,51.7z"/>
<path class="st0" d="M39,37.6L39,37.6C39,37.6,39,37.6,39,37.6z"/>
<path class="st0" d="M55.7,52.2L55.7,52.2z"/>
<path class="st0" d="M50.8,45.3l-0.1,0.1L50.8,45.3z"/>
<path class="st0" d="M48.9,44.2L48.9,44.2C49,44.2,49,44.2,48.9,44.2z"/>
<path class="st0" d="M51.2,46.4C51.2,46.4,51.2,46.4,51.2,46.4L51.2,46.4C51.2,46.4,51.2,46.4,51.2,46.4z"/>
<path class="st0" d="M51.9,47.3C51.9,47.3,51.9,47.3,51.9,47.3L51.9,47.3L51.9,47.3z"/>
<path class="st0" d="M61.6,64.6c0.1,0,0.2-0.1,0.3-0.1C61.7,64.6,61.7,64.8,61.6,64.6z"/>
<path class="st0" d="M39,37.5c0,0-0.1,0.1-0.1,0.1C38.9,37.6,38.9,37.6,39,37.5C39,37.5,39,37.5,39,37.5z"/>
<path class="st0" d="M49.2,48.4l0.2,0.1C49.3,48.4,49.2,48.4,49.2,48.4z"/>
<path class="st0" d="M58.2,59.5L58.2,59.5C58.2,59.5,58.2,59.5,58.2,59.5z"/>
<path class="st0" d="M49.7,48.9c0.1,0,0.2-0.1,0.2-0.1c0,0,0,0,0,0.1L49.7,48.9z"/>
<path class="st0" d="M61.9,64.5L61.9,64.5z"/>
<path class="st0" d="M62.4,67.6c-0.1,0.2,0.1,0,0.4,0c-0.3,0.3,0.2,0.1-0.3,0.4c0.2-0.1,0.4-0.1,0.5-0.2c-0.3,0.1-0.2,0.3-0.5,0.5
	c0.4-0.2,0.4-0.4,0.9-0.6c-0.2,0.2-0.2,0.5-0.6,0.7c0.1,0,0.3-0.1,0.4,0c0,0,0-0.1,0.1-0.1c-0.2,0.3,0.3,0.4-0.2,0.9
	c0.6-0.4,0.3,0.3,0.8-0.2c0,0.1-0.1,0.4-0.2,0.5c0.5-0.3,0.2,0.1,0.6,0c-0.2,0.2-0.1,0.3-0.2,0.5c0-0.1,0.1-0.2,0.2-0.2
	c-0.1,0.2,0,0.1,0.3,0c-0.1,0.2-0.4,0.2-0.5,0.4c0.2,0,0.3-0.2,0.5-0.3l-0.3,0.5c0.1,0,0.2-0.1,0.3-0.1c-0.1,0.1-0.2,0.3,0,0.2
	l-0.1-0.1l0.3-0.1l-0.2,0.4c0.5,0,0.9-0.5,1.4-0.8v-0.1c0.2-0.1,0.3-0.1,0.3-0.1c0.2-0.2,0.3-0.4,0.4-0.6c-0.2-0.2-0.6,0.4-0.8,0.3
	l0.1-0.4L65.8,69c-0.1,0,0-0.1,0.1-0.1c-0.2,0.2-0.2-0.1-0.3-0.2l0.2-0.1c0.3-0.6-0.8,0-0.7-0.4l0.3-0.4L65.1,68
	c0.1-0.2,0.4-0.4,0.2-0.4c-0.9-0.1-0.5-1.1-1.1-1.4c0.1,0,0.1,0,0.2,0c-1.1,0,0.5-1.2-0.4-1.2L63.8,65c0-0.2-0.1,0.1-0.4,0
	c0.4-0.2,0.2-0.4,0.3-0.6c-0.1,0.1,0,0.1-0.1,0.2c-0.1,0.1-0.3,0.2-0.3,0c0.5-0.4,0.3-0.7,0.4-1c-0.3,0.1-0.6,0-1.1,0.2l0.5-0.4
	c-0.2,0-0.1-0.1,0-0.3c0,0.1,0.1,0.1,0.1,0.2l0,0c0,0,0,0,0,0s0,0.1,0,0.1c0.3,0,0.2-0.1,0.5-0.3c0-0.1,0-0.3-0.3-0.2
	c0,0-0.1,0-0.2-0.1s0-0.1,0-0.1l0,0h-0.1c-0.2-0.1,0.2-0.5,0.3-0.7c-0.3,0.3-0.5,0.2-0.7,0.3c0,0,0.1,0.1,0.2,0.3
	c-0.1,0-0.1,0-0.2,0.1c-0.4,0,0.1-0.4-0.2-0.5c-0.1,0.1-0.1,0.1-0.2,0.1c-0.1,0,0.1-0.2,0.2-0.3c-0.3,0.1-0.6,0.1-0.5-0.1
	c0.2-0.2,0.3-0.2,0.2-0.4l-0.2,0.2c-0.2-0.1,0.2-0.3,0-0.3c0.1,0-0.1,0.1-0.2,0.1c0-0.2,0.1-0.3,0.5-0.6l-0.3,0.2
	c0.1-0.2,0.3-0.7-0.1-0.5c0.7-0.3,0.2-0.5,0.1-0.6c0,0.1-0.1,0.1-0.2,0.2c0.3-0.5-0.3-0.5-0.4-0.8L61,59.8c-0.1-0.1,0.8-0.7,0.7-0.8
	l-0.2,0.2c0-0.2-0.2-0.4-0.4-0.5l-0.3,0.2c0.1-0.2,0-0.3,0.1-0.4c-0.8,0.3,0-0.9-1-0.7l0.6-0.4c-0.1-0.1-0.1-0.3-0.5-0.1l0,0
	c-0.4,0.3-0.1-0.1-0.2-0.1c0.1-0.1,0.2-0.3,0.4-0.3c-0.5-0.1-0.5-0.8-1.1-0.6c0-0.4,0.3-0.9,0-1.2l-0.1,0c-0.3-0.1-0.7-0.1-0.9,0.1
	c-0.1-0.3,0.5-0.9,0.1-1l-0.1,0.2c-0.1,0,0-0.3,0-0.3c0-0.1-0.1,0.1-0.2,0.1c-0.2,0,0-0.2,0-0.3l-0.1,0.1c-0.5,0-0.1-0.8-0.4-1
	c0,0.1-0.2,0.2-0.3,0.2c0.4-0.5,0-0.7,0.1-0.9L57,52.4c0.2-0.5-0.7,0.2-0.5-0.3l0.4-0.1c-0.2,0-0.1-0.2,0.1-0.3
	c-0.2,0-0.4,0.3-0.5,0.2c-0.1,0.1,0,0.2-0.2,0.3l-0.5,0.1c0,0-0.1,0-0.1-0.1c0.6-0.5-0.1-0.2,0.6-0.6c-0.2-0.3-0.8-0.3-0.7-0.8
	c-0.7,0.4-0.5-0.5-1.2,0.1c-0.1-0.1-0.1-0.4,0.1-0.7c0.1,0,0,0.1,0,0.2c0.1-0.1,0.1-0.3,0-0.5c-0.1,0.3-0.2,0.5-0.3,0.8
	c0-0.3,0-0.5,0.1-0.8l-0.4,0.3c0.2-0.3-0.4,0.2-0.1-0.3l0.1-0.1c-0.2-0.2,0.2-0.5,0.1-0.7l-0.1,0.1c-0.1,0,0.1-0.4-0.2-0.2l0.1,0.1
	c-0.2,0.1-0.4,0.2-0.6,0.3c0-0.2,0.4-0.4,0.4-0.5C53,49.1,53.2,49,53,49.3c-0.1-0.3,0-0.6,0.1-0.9c0,0-0.1,0.1-0.1,0.1
	c-0.2-0.1,0.1-0.6-0.2-0.5V48c-0.5,0.2,0.1-0.6-0.6-0.1c-0.2,0,0.1,0.1-0.2,0.3c-0.3,0,0.4-0.6,0.1-0.6c0,0,0,0-0.1,0.1
	c-0.1-0.2-0.2-0.3-0.2-0.5c-0.6,0.3-0.3-0.6-1-0.2c0.3-0.1,0.2-0.3,0.3-0.3c0,0-0.1,0.1-0.1,0.1c-0.1,0,0.1-0.2,0.2-0.3
	c-0.2,0.1,0-0.3-0.1-0.3c0.1-0.1,0-0.1,0-0.2c0,0.2-0.2,0.3-0.4,0.5c-0.2-0.1,0.4-0.7,0.1-0.8l-0.3,0.1c0.3-0.4,0-0.4,0.2-0.5
	c-0.2,0.1-0.3,0.2-0.4,0.3c0-0.2-0.3-0.1-0.1-0.3h0.2c-0.3-0.1,0-0.7-0.3-0.6l-0.5,0.5c-0.3,0.1,0.1-0.5-0.3-0.3
	c0.2-0.1,0.2-0.1,0.3-0.3c0.1,0,0,0.2,0.1,0.3l0.2-0.4l0.1,0.4c0.1-0.3,0.1-0.2,0.3-0.4c0-0.3-0.4,0.1-0.3-0.2
	c-0.1,0-0.3,0.3-0.4,0.3c0.1-0.3-0.6,0.2-0.4-0.2c-0.1,0,0,0.1-0.1,0.2c0-0.1-0.1-0.2,0-0.3h0.1c-0.1,0,0.1-0.3-0.1-0.2
	c0.1-0.2,0.3-0.5,0.3-0.4c0-0.1-0.2,0-0.3,0.2c-0.2-0.2,0.5-0.6,0.1-0.6c0,0,0,0.1-0.1,0.1c-0.1,0-0.1,0-0.1-0.1
	c0.1,0.2-0.5,0.4-0.2,0.4c-0.3,0.3-0.2-0.1-0.3,0c0.1-0.3,0.4-0.4,0.5-0.6C48.6,43,48.6,43,48.5,43l0.2-0.2c0,0-0.1-0.1-0.1-0.2v0.2
	c-0.1,0-0.6,0.2-0.5-0.1c-0.1,0.1-0.2,0.4-0.3,0.4c0-0.3-0.1,0.1-0.4,0.1c-0.1-0.2,0.3-0.4,0-0.5c0,0,0.1-0.1,0.2-0.2
	c-0.2,0-0.2-0.3-0.5-0.2c0.1,0,0.2,0,0.2-0.2c-0.1,0.2-0.3,0-0.4,0.1l0.1-0.1c-0.1,0-0.2,0.1-0.2,0.2c0,0,0.1-0.1,0.1,0
	c0,0.2-0.4,0.5-0.6,0.5c0-0.2,0.3-0.5,0.4-0.6c-0.3,0,0.3-0.6,0-0.6c0,0-0.6,0.3-0.7,0.2c0.2-0.3,0.3-0.1,0.4-0.3
	c-0.8,0.4,0-0.7-0.6-0.6l-0.3,0.3c-0.1,0-0.1-0.1-0.2-0.2l0.2-0.1c0-0.1-0.2-0.2-0.3,0.1c0.1-0.4-0.1-0.2-0.2-0.3c0.1,0.1,0,0,0,0.2
	C45,41.1,45,41,45,40.8c-0.1,0.1-0.3,0.2-0.3,0.2c0.1-0.3-0.1-0.4-0.1-0.6l-0.1,0.1c-0.1-0.3-0.7-0.1-0.6-0.5l0,0l0,0l0,0
	c0.3-0.2,0-0.3,0.1-0.5c-0.1,0.1-0.2,0.2-0.2,0.2c0.2-0.3,0-0.2,0.1-0.4c-0.2,0-0.3,0.3-0.4,0.2c-0.1-0.1,0.1-0.2,0.2-0.3
	c-0.1,0.1-0.3,0.1-0.4,0.1c0,0.1,0.1,0,0.1,0.1c-0.1,0.2-0.1,0.1-0.3,0.2c-0.1,0,0.2-0.3,0.1-0.2l-0.1,0.3c-0.1,0,0-0.1,0-0.1
	s-0.2,0.3-0.3,0.4c0-0.3,0.5-0.6,0.7-0.8c-0.3,0-0.2-0.4-0.3-0.5l-0.2,0.3c0-0.1,0-0.2,0.1-0.3l-0.1-0.1c0,0.2-0.1,0.3-0.3,0.4
	c0-0.2-0.2-0.2,0.1-0.6l0,0.1c-0.2,0-0.6-0.2-0.7,0c0-0.2-0.4-0.2-0.1-0.5c0-0.2-0.6,0.2-0.3-0.2c-0.3,0.1-0.1,0.1-0.3,0.4
	c-0.3,0.1,0.1-0.5-0.4-0.1c0-0.2,0.1-0.1,0.3-0.3c-0.4,0.4-0.3-0.1-0.6,0c0.1-0.2,0.1-0.1,0.2-0.3c-0.1,0.1-0.2,0.1-0.2,0.1l0.2-0.3
	l-0.7,0.6c0.1-0.5,0.5-0.5,0.4-0.8v0c-0.3,0.2,0-0.4-0.3-0.3c0.1,0-0.1,0.2-0.2,0.2v-0.2c0,0,0,0.1-0.1,0.1c-0.3,0.1,0-0.2-0.2-0.1
	c0,0.1-0.2,0.3-0.3,0.4l0.2-0.4l-0.3,0.4c-0.2-0.1,0.2-0.9-0.3-0.4v0.1c-0.1,0.1-0.4,0.3-0.3,0.1c0-0.1,0.2-0.3,0.2-0.3h-0.1
	c-0.1,0.2-0.2,0.4-0.1,0.6c0.1-0.1,0.1-0.3,0.2-0.4c0,0.2-0.1,0.4,0,0.6c0.1-0.1,0.2-0.3,0.3-0.4c0.2,0-0.1,0.2,0,0.3
	c0.1-0.1,0.2-0.1,0.3-0.2c0,0.2,0,0.3,0.3,0.2c0-0.2,0.1-0.3,0.2-0.4c0,0.3-0.2,0.6-0.2,1c-0.2,0.6,0.6,0.1,0.5,0.6
	c-0.1,0.1-0.3,0.1-0.3,0.3c0.2-0.2,0.2-0.1,0.3-0.2c-0.2,0.4,0.2,0.1,0.1,0.4c0.1-0.1,0.2-0.1,0.3-0.2c0.2-0.3,0.2,0,0.4-0.5
	c-0.2,0.6,0.4,0.1-0.1,0.9l-0.1,0h0.3c0.1,0,0,0.1,0.4-0.1c0-0.1,0-0.2,0-0.3c0.3-0.2,0,0.4,0.1,0.5c0.2-0.2,0-0.2,0.2-0.4
	c0.1,0,0,0.2,0,0.3l0.1-0.1c0.4-0.1-0.4,0.6,0,0.3c-0.1,0.1-0.1,0.1-0.2,0.2c0.2-0.1,0.4-0.2,0.5-0.4c0.1,0,0,0.2-0.1,0.4
	c-0.1,0.2-0.1,0-0.3,0.2l0.1,0.3c0,0,0.1-0.1,0.1-0.2c0.8-0.3,0.1,1,1,0.5c-0.2,0.2-0.1,0.2-0.2,0.3c0.2,0,0.3,0.2,0.4,0.2l0.1-0.2
	c0.1,0.4,0.1,0.7,0.3,0.8c0.1-0.1,0.1-0.2,0.2-0.2c-0.1,0.3,0.7-0.3,0.3,0.2h-0.1c0.3,0.1,0.2,0.7,0.4,1c0.3-0.2-0.1-0.2,0.3-0.5
	c0.3,0,0.2,0.4,0.5,0.5c0-0.1,0-0.1,0-0.1c0.3,0-0.3,0.3-0.1,0.4c0.1-0.2,0.2-0.2,0.3-0.2L45,43c0.1-0.1,0.2-0.2,0.3-0.3
	c-0.2,0.4,0.2,0.3-0.1,0.7c0.1-0.1,0.3-0.4,0.4-0.4c0.1-0.1,0.1,0.2,0,0.3l0,0c0.2-0.1,0.3,0,0.3-0.1c0.2,0-0.1,0.2-0.2,0.5h-0.2
	l0.1,0.3l0.1-0.2c0.2,0,0,0.3,0.2,0.4l-0.2,0.1v0.2c0.3-0.3,0.2,0.1,0.5-0.4c0.4,0,0.1,0.6,0.3,0.8c0,0,0-0.1,0.1-0.1
	c0.2,0,0.1,0.3,0,0.5c0.1-0.1,0.1-0.2,0.2-0.3c0.1,0.1-0.1,0.3-0.1,0.5c0.1-0.2,0.2-0.2,0.3-0.2c-0.1,0.1-0.2,0.2-0.2,0.3
	c0.5-0.8,0.4-0.1,0.9-0.7c-0.1,0.2-0.2,0.7-0.5,0.9v0c-0.2,0.2-0.1,0.2,0,0.2c0-0.1,0-0.1,0.1-0.2c0,0.4,0.4,0.4,0.5,0.8
	c0-0.1,0.1-0.3,0.2-0.3c0.3,0.1,0.1,0.6,0.2,1c0.4-0.4-0.2-0.3,0.2-0.7c0.2,0.4,0.3,0.8,0.3,1.2c0.7-0.5,0,0.5,0.7,0.2
	c-0.2,0.2-0.2,0.3-0.1,0.4c0.1-0.2,0.2-0.1,0.3-0.2c-0.1,0.3,0,0.6,0.4,0.2c-0.4,0.4,0.2,0.2,0,0.5c0.2,0,0.1,0.3,0.4,0.3
	c-0.3,0.2,0,0.2-0.1,0.4c0,0,0-0.1,0.1-0.1c0.3-0.2-0.1,0.3,0.1,0.3s0.2-0.2,0.3-0.2c-0.2,0.2-0.2,0.6,0.1,0.4c0,0,0.1-0.1,0.1-0.2
	c0,0.6,0.7,0.7,0.7,1.4l0.3-0.3c0.6-0.1-0.4,0.6-0.2,0.7c0.6,0.4,1.5,0.5,1.7,1.2c-0.1,0.1-0.1,0.1-0.3,0.2c0.1,0,0.4-0.2,0.2,0
	l-0.2,0.1c0.6-0.2,0.2,0.9,1.1,0.5c-0.1,0.4,0.5,0.2,0.3,0.8c0.2,0,0.2-0.3,0.4-0.3l-0.1,0.5v0c-0.4,0.6,1.1,0.2,0.9,0.8l0,0
	c0.1-0.1,0.3-0.1,0.3-0.1c0,0.1-0.1,0.1-0.3,0.1c0,0.3,0,0.5,0.1,0.7c0.1-0.2,0.2,0,0.5-0.2c-0.1,0.2-0.3,0.2-0.3,0.4
	c0.1,0.2,0.4,0.2,0.6,0.3c-0.2,0.2-0.1,0.3-0.4,0.5c0.1,0.2,0.1,0.4,0.3,0.7l0.1-0.1c-0.3,0.3,0.3,0.1,0.2,0.3
	c0.1-0.1,0.2-0.2,0.3-0.2l0,0.2c0.1-0.1,0.4-0.4,0.5-0.3c-0.2,0.3-0.2,0.1-0.4,0.3l0.4-0.2c0,0.1-0.4,0.4-0.5,0.3
	c0.2,0.3,0.2,0.6,0.4,0.8l0.2-0.2c0,0.2,0.1,0.3,0.2,0.3c0,0,0.1,0,0.1,0c-0.1,0.1-0.2,0.1-0.3,0.2c-0.2,0.3,0.4-0.2,0.1,0.2
	c0-0.1,0.1-0.2,0.2-0.3l-0.1,0.5c0.2-0.1,0.7-0.1,0.6,0.1c-0.1,0.1-0.2,0.1-0.3,0.1l0,0.1l0.4-0.2l-0.3,0.3l0.3-0.2
	c0,0.1-0.4,0.4-0.3,0.5c0.4,0.2,0.5,0,0.9,0c-0.6,0.4,0.2,0.3-0.2,0.6c0.6,0,0.6,0.6,0.9,0.8l0-0.1c0.4,0-0.4,0.4-0.2,0.5l0.1-0.1
	c0.5,0,0.3,0.6,0.2,0.9c0.1-0.1,0.3-0.2,0.3-0.1c0,0.1-0.5,0.2-0.3,0.2c0-0.1,0.2-0.1,0.2-0.1l-0.3,0.3c0.4,0.2,0.8,0.4,0.8,0.8
	c0.1,0,0.2-0.1,0.3-0.2c0.1,0.3-0.1,0.7,0,0.9l0.4-0.2c0.1,0.1-0.5,0.4-0.1,0.3c0.1,0,0-0.1,0.1-0.2c0.4,0.1-0.3,0.3-0.2,0.5
	l0.4-0.3c0.3,0-0.1,0.3-0.3,0.5c-0.4,0.5,0.9-0.3,0.7,0.2c-0.2,0.2-0.3,0.2-0.5,0.3c0.2,0.2-0.1,0.3,0.2,0.5
	c0.7-0.2-0.1-0.1,0.6-0.3L62,66.1c0.4,0,0-0.2,0.4-0.3c0.2,0-0.1,0.4-0.1,0.6c0.3-0.2-0.1-0.2,0.4-0.3l-0.1,0.1
	c0.1-0.1,0.2-0.1,0.2-0.2c0.3-0.1,0.1,0.1,0.1,0.2c-0.2,0.1-0.4,0.2-0.6,0.3h0.1c-0.3,0.4,0.1,0.4-0.2,0.7c0.1,0,0.1-0.1,0.2-0.1
	c0.1,0.1-0.3,0.4-0.3,0.5c0.2-0.1,0.6-0.4,0.6-0.1c-0.2,0.2-0.7,0.3-0.6,0.5C62.1,67.9,62.2,67.6,62.4,67.6z M61.2,63.9L61.2,63.9
	L61.2,63.9L61.2,63.9z M61.3,63.5c0,0-0.1,0.1-0.2,0.1c0,0,0-0.1-0.1-0.1C61.1,63.5,61.2,63.6,61.3,63.5L61.3,63.5z M63.3,63.2
	L63.3,63.2C63.3,63.1,63.3,63.1,63.3,63.2c0.1-0.1,0.1-0.1,0.1-0.1C63.4,63.1,63.4,63.1,63.3,63.2L63.3,63.2z"/>
<path class="st0" d="M63.2,63.3L63.2,63.3L63.2,63.3L63.2,63.3L63.2,63.3z"/>
<path class="st0" d="M43.9,40.1L43.9,40.1L43.9,40.1L43.9,40.1z"/>
<polygon class="st0" points="58.3,59.9 58.3,59.8 58.3,59.9 "/>
<path class="st0" d="M41.7,39.7C41.7,39.7,41.7,39.7,41.7,39.7L41.7,39.7z"/>
<path class="st0" d="M41.1,39.2h-0.2C41,39.2,41,39.2,41.1,39.2z"/>
<path class="st0" d="M40.5,38.9c0,0,0.1-0.1,0.1-0.1l0,0L40.5,38.9z"/>
<path class="st0" d="M47.3,45.8L47.3,45.8C47.3,45.8,47.2,45.9,47.3,45.8z"/>
<path class="st0" d="M45.8,43.2c0,0.1,0,0.1,0,0.2C45.7,43.4,45.6,43.4,45.8,43.2z"/>
<path class="st0" d="M49.2,48.4L49.2,48.4L49.2,48.4z"/>
<path class="st0" d="M45.8,43.5C45.8,43.5,45.7,43.5,45.8,43.5C45.7,43.3,45.8,43.4,45.8,43.5z"/>
<path class="st0" d="M38.5,37.3L38.5,37.3L38.5,37.3L38.5,37.3z"/>
<path class="st0" d="M38.5,37.2L38.5,37.2C38.5,37.2,38.5,37.2,38.5,37.2z"/>
<path class="st0" d="M38.5,37.1v0.1C38.5,37.2,38.4,37.1,38.5,37.1z"/>
<path class="st0" d="M39.2,37.7l-0.1,0.1C39.1,37.7,39.1,37.7,39.2,37.7z"/>
<path class="st0" d="M39.3,37.9c-0.1,0-0.3,0.1-0.3,0l0.1-0.1C39,38,39.4,37.7,39.3,37.9z"/>
<path class="st0" d="M41.1,37.4l-0.2-0.1c0.1-0.1,0.3-0.2,0.2-0.3C41.6,36.9,40.9,37.3,41.1,37.4z"/>
<path class="st0" d="M41.7,37.7c0-0.1,0.1-0.1,0.2-0.2C41.9,37.6,41.9,37.7,41.7,37.7z"/>
<path class="st0" d="M45.1,40.8l0.2-0.2C45.4,40.6,45.3,40.6,45.1,40.8z"/>
<polygon class="st0" points="44.7,42.6 44.5,42.7 44.6,42.4 "/>
<polygon class="st0" points="46.6,41.3 46.6,41.2 46.6,41.4 "/>
<path class="st0" d="M52,46.9l-0.3,0.3C51.7,47.1,52.1,46.8,52,46.9z"/>
<path class="st0" d="M54,49.7c0.2-0.1,0.3-0.1,0.2,0.1C54.1,49.7,54,49.7,54,49.7z"/>
<polygon class="st0" points="60.5,57.5 60.6,57.4 60.6,57.6 "/>
<path class="st0" d="M28,22.7c-0.1,0-0.2-0.3-0.1-0.3l0.4,0.2L28,22.7z"/>
<path class="st0" d="M28.6,21.2c0.3,0,0.8,0.1,0.9,0.5c-0.4-0.2-0.4,0-0.9-0.2c-0.1,0.1-0.2,0.2-0.1,0.3c0,0,0,0.1,0.1,0.1
	c-0.1,0-0.2,0.3-0.4,0.1c0-0.4,0.3-0.6,0.7-0.7C28.8,21.2,28.7,21.2,28.6,21.2z"/>
<path class="st0" d="M27.3,15.5l0.2-0.1C27.4,15.5,27.3,15.5,27.3,15.5z"/>
<path class="st0" d="M21.5,4.7c0,0,0,0.1,0,0.1C21.4,4.7,21.4,4.7,21.5,4.7z"/>
<path class="st0" d="M20.1,4L20.1,4C20.2,4,20.1,4,20.1,4z"/>
<path class="st0" d="M27.3,15.5c-0.1,0-0.3,0.1-0.5,0.1C26.8,15.5,27.1,15.6,27.3,15.5z"/>
<path class="st0" d="M31.4,20.1c-0.1,0-0.1,0-0.2,0H31.4L31.4,20.1z"/>
<path class="st0" d="M31.9,14.7L31.9,14.7l0,0.2C31.9,14.8,31.9,14.8,31.9,14.7z"/>
<path class="st0" d="M33.3,14.7c0.1-0.1,0.3-0.2,0.4-0.3l0.7-0.5c-0.2,0.1-0.4,0.3-0.6,0.5L33.3,14.7z"/>
<path class="st0" d="M31.1,18.4l-0.1,0C31,18.5,31.1,18.4,31.1,18.4z"/>
<path class="st0" d="M30,15.3c0,0,0,0.1,0,0.1C30,15.4,30,15.4,30,15.3z"/>
<path class="st0" d="M28,28.2C28,28.2,28,28.2,28,28.2C28.1,28.2,28,28.2,28,28.2z"/>
<path class="st0" d="M31.3,32.1L31.3,32.1l0.2-0.2L31.3,32.1z"/>
<path class="st0" d="M19.6,4.6L19.6,4.6C19.6,4.6,19.6,4.6,19.6,4.6z"/>
<path class="st0" d="M12.5,20.6c-0.5,0.1,0.3,0.7-0.4,0.7C12.2,21.1,11.9,20.5,12.5,20.6z"/>
<path class="st0" d="M31.4,20c0.1,0,0.1-0.1,0.1-0.1C31.5,19.9,31.5,20,31.4,20z"/>
<path class="st0" d="M12.1,21.2"/>
<path class="st0" d="M18.2,13.1c-0.1,0-0.1-0.1-0.1-0.1C18,13,18.1,13,18.2,13.1z"/>
<path class="st0" d="M18.6,6.4v0.2C18.6,6.5,18.6,6.5,18.6,6.4z"/>
<path class="st0" d="M14.3,15.7c-0.1,0-0.2,0.1-0.3,0h0C14.1,15.7,14.2,15.8,14.3,15.7z"/>
<path class="st0" d="M10.8,15.2L10.8,15.2l0.2-0.1L10.8,15.2z"/>
<path class="st0" d="M30.7,28.1c-0.1,0-0.2-0.1-0.3-0.1C30.6,28,30.5,27.5,30.7,28.1z"/>
<path class="st0" d="M31.3,20c0.1,0.1,0.1,0.1,0.2,0H31.3C31.3,20,31.3,20,31.3,20z"/>
<path class="st0" d="M14.5,13h-0.2H14h0.3H14.5z"/>
<path class="st0" d="M18,32.8l0.1-0.1C18.1,32.8,18,32.8,18,32.8z"/>
<path class="st0" d="M12.3,12.6c-0.1,0.1-0.2,0.2-0.4,0.2c0,0,0-0.1-0.1-0.1L12.3,12.6z"/>
<path class="st0" d="M30.3,28"/>
<path class="st0" d="M29.7,24.5c0-0.6-0.1-0.1-0.6-0.5c0.3-0.4-0.3-0.5,0.3-0.7c-0.4,0-0.3,0-0.7-0.3c0.3,0,0.2-0.3,0.3-0.6l-3,1.1
	c0,0.1-0.1,0.2-0.2,0.2c0.2,0,0.3-0.2,0.4-0.3l2.6-1c-0.1,0.2-0.2,0.3-0.5,0.2l-1.6,0.6l0,0c-0.2,0.4,0,0.9-0.5,1.2
	c0.2,0.2,0.4,0.2,0.6,0.5c0,0,0-0.1,0-0.2c-0.1,0.7,0.6,1.4,0.2,2c0.6-0.4,0.6,1.2,1,0.5c0,0.3,0,0.6-0.1,0.9
	c0.5-0.2,0.4,0.6,0.8,0.7c-0.2,0.3,0,0.7,0,1c0-0.1,0.1-0.2,0.2-0.3C28.9,30,29,29.8,29.4,30c0,0.5-0.4,0.1-0.6,0.4
	c0.3,0.3,0.3-0.1,0.6-0.1L29.1,31c0.1,0.1,0.2,0.1,0.4,0.1c-0.1,0.2-0.2,0.5,0.1,0.6l-0.2-0.5l0.3,0.1l-0.1,0.7
	c0.7,0.6,1.1,0.2,1.7-0.1v-0.4c0.2-0.1,0.4,0.1,0.4,0.3s0.4-0.7,0.3-1.1c-0.4-0.9-0.7,0-1.1-0.5v-0.9l-0.2,0.1c-0.2-0.1,0-0.2,0-0.3
	c-0.2,0.2-0.3-0.6-0.5-1h0.3c0.2-1.2-1.2-1.2-1.2-2.1l0.2-0.7h-0.4c0.1-0.4,0.3-0.6,0-1c-0.5-0.5-0.8-1.1-1.1-1.8L26.9,23
	c0.2,1.2,0.6,2.5,1.1,3.6c-0.1,0-0.1,0-0.2-0.1c0.5,0.5,0.8,1.3,0.6,2c0,0.3,0,0.7,0,1c0,0.2,0.1,0.3,0.1,0.5l0.1,0.1
	c0,0,0,0.1,0.1,0.1l0.2,0.1l0.1-0.1c0,0.2,0.1,0.2,0.1,0.2c0.1,0,0.2-0.1,0.3,0.1c-0.5,0.1-0.2,0.5-0.3,0.6c0.1,0,0.1,0,0.1-0.1
	c0.1,0.1,0.5,0.3,0.4,0.4c-0.3-0.1-0.5,0-0.6,0c-0.1,0-0.1,0.1-0.2,0.1l0,0c0.3,0.3,0.6,0.7,0.8,1l0.3,0.3c0.1,0.1,0.2,0.2,0.2,0.3
	l0.3,0.6c-0.2-0.2-0.7-0.7-1.1-1.2c0.1,0.3-0.2,0-0.5-0.4l0.3,0.1l-0.1-0.1c0,0,0.1,0.1,0.1,0.1c0.1,0,0.2,0.1,0.2,0.1
	c-0.3-0.4-0.6-0.8-0.9-1.2c0,0-0.3-0.3,0,0.3c0,0,0,0.1,0,0.1c-0.1-0.1-0.1-0.2-0.1-0.1l0,0.1c0,0.1,0.1,0.1,0.1,0.2
	c0,0.1-0.2-0.1-0.4-0.4c-0.1-0.3-0.2-0.5-0.3-0.8c0,0.2,0.1,0.4,0.1,0.7c0,0.2,0,0.3,0,0.5c0,0,0.2,0.1,0.4,0.2c0,0.1,0,0.2,0.1,0.3
	c-0.1,0.2-0.2,0-0.4-0.2c-0.1-0.2-0.2-0.4-0.4-0.4c0,0.1,0,0.2,0,0.3c-0.2,0-0.2-0.4-0.2-0.6c-0.1,0.3-0.5,0.2-0.7-0.1
	c0-0.4,0.1-0.4-0.3-0.7v0.3c-0.5-0.2-0.1-0.5-0.6-0.7c0.2,0.1,0,0.2-0.1,0.2c-0.3-0.5-0.3-0.6-0.3-1.2l-0.2,0.3
	c-0.2-0.5-0.7-1.5-1-1.1c0.3-0.2,0.1-0.5-0.2-0.7c-0.3-0.2-0.6-0.4-0.9-0.6c0.1,0.1,0.1,0.2,0,0.3c-0.1-0.2-0.3-0.4-0.5-0.6
	c-0.1-0.1-0.1-0.1-0.2-0.1l-0.3-0.1c-0.2-0.1-0.4-0.2-0.5-0.2c-0.7-0.3-1.5-0.3-2.2,0c0,0.2,0,0.4,0,0.6c-0.3,0.2-0.6,0.1-0.9,0.1
	c-0.2,0-0.4,0-0.5,0.1c-0.1,0-0.2,0.1-0.3,0.2l-0.1,0.1l-0.1,0.1h0.2c0.1,0,0.1,0,0.2,0l-0.2,0.2l-0.1,0.1l-0.2,0.2
	c-0.1,0.1-0.2,0.3-0.3,0.4c-0.2,0.3-0.3,0.5-0.5,0.9l0.3,0.2c-0.3,0.1-0.5,0.4-0.8,0.6c0.2,0.5-0.3,1-0.7,1.5l-0.3,0.4
	c-0.1,0.1-0.2,0.2-0.2,0.3c0,0.2,0,0.4,0,0.6c-0.1-0.2-0.2-0.4-0.3-0.7c0,0,0,0-0.1,0.1c0,0.2,0,0.4,0,0.6v0c0.1,0.4,0,0.4,0,0.4
	s-0.1-0.1-0.1,0c0-0.3,0-0.5,0-0.8c0,0.3-0.2,0.5-0.4,0.7c-0.1,0.1-0.2,0.2-0.3,0.4l-0.2,0.4l-0.2,0.4c0.2-0.5,0.4-1.1,0.6-1.6
	c0.1-0.2,0.2-0.4,0.3-0.6l-0.1,0.1l-0.2,0.1c-0.2,0-0.4,0.1-0.6,0.2c0.1-0.3,0.3-0.5,0.5-0.6c0,0,0,0,0.1-0.1l0.1-0.1
	c0-0.1,0.1-0.2,0.1-0.3c0.1-0.2,0.1-0.5,0-0.7l-0.2,0.2c-0.1-0.3,0.2-0.7,0.3-0.8c0.1-0.1-0.1,0-0.2,0c-0.2-0.3,0.1-0.4,0.2-0.6
	L14,29.5c-0.3-0.9,0.5-2.2,0.5-3.3c-0.1,0.2-0.3,0.1-0.3,0c0.3-0.3,0.5-0.6,0.6-1c0-0.2,0.1-0.4,0.1-0.6c0-0.2,0-0.2,0-0.3l0.1-0.3
	c0,0.1-0.1,0.1-0.1,0.2c0,0-0.1,0.1-0.1,0.1c0-0.1,0.1-0.2,0.1-0.3c0-0.1,0-0.2,0-0.4c0-0.2-0.1-0.4-0.2-0.5
	c-0.2-0.3-0.4-0.6-0.5-0.9c-0.1-0.1-0.1-0.3-0.2-0.5c0.2,0.1,0.3,0.2,0.5,0.3c0.1,0.1,0.2,0.2,0.3,0.3l-0.2-0.3
	c-0.2-0.4-0.4-0.7-0.1-0.8c-0.3-0.2-0.5-0.2-0.6-0.2c-0.1,0-0.3,0-0.7-0.3c-0.1,0.1,0.6,0.5,0.1,0.5l-0.3-0.1h-0.2h-0.1h-0.5
	c0,0-0.2,0-0.4-0.2c0.5-0.6-0.6-0.4,0.2-0.8c-0.9-0.7-2.1-0.9-2.6-1.8c-0.8,0.3-1.6-1.3-2.1-0.6c-0.2-0.2-0.4-0.4-0.5-0.7
	c0-0.1-0.1-0.2-0.1-0.4c0-0.1,0-0.2,0.1-0.3c0.1,0,0,0.1,0.1,0.2c0-0.1,0-0.3,0-0.4c0-0.1-0.1-0.2-0.2-0.2c-0.1,0.1-0.1,0.3-0.1,0.4
	V17c0,0.1,0,0.2,0,0.4c-0.2-0.3-0.3-0.7-0.3-1.1c-0.2,0-0.4,0-0.6,0c0.1-0.2-0.1-0.2-0.2-0.2C5.2,16,5,15.9,5.2,15.8l0.3,0.1
	c-0.4-0.5,0.4-0.3,0.3-0.4l-0.4-0.1c-0.1-0.1,0-0.1,0.1-0.1s0.1,0,0,0c0,0-0.1-0.1-0.2-0.1l-0.2-0.1H5.1c-0.1,0,0,0,0,0l0,0.1
	c-0.2-0.1-0.5-0.2-0.7-0.4l-0.3-0.2l-0.1-0.1l0,0c-0.1-0.1-0.1-0.1-0.2-0.2c0.3,0.1,0.6,0.2,0.9,0.3c0.2,0.1,0.4,0.2,0.6,0.3
	c-0.3-0.2-0.7-0.4-1-0.5c0.8,0.1,1.5,0.3,2.2,0.7l-0.1-0.1c0.2,0,0.4,0.1,0.6,0.2c0.2,0.1,0.3,0.2,0.3,0.1l-0.1,0
	C7.2,15,7.3,15,7.4,15c0,0,0.1,0,0.1,0l0.2,0.1c0.3,0.1,0.5,0.1,0.6-0.3c0.3-0.1-0.5,0-0.1-0.4c0.8-0.2,0.4,0.7,1.1,0.5
	c-0.1,0-0.1,0-0.1-0.1c0.5,0.1,1.1,0.2,1.6,0.3c0.7-0.6,1.9,0.4,2.8-0.2c-0.3,0.2,0.1,0.3,0.1,0.5c0,0,0-0.1,0-0.1
	c0.3,0,0.3,0.3,0.4,0.4c0.1,0,0.2,0,0.3,0c0.1,0,0.3,0.1,0.4,0.1c0.3,0.1,0.5,0.2,0.6,0.1c0,0.2,0.4,0.1,0.7,0
	c-0.4,0-0.5-0.1-0.5-0.2c0-0.1-0.1-0.2-0.2-0.3c0.4,0,0.7,0,1.1,0c0.4,0,0.8-0.2,1-0.7c0-0.2,0-0.5-0.1-0.7c0.2,0,0.4-0.2,0.5-0.5
	l0-0.2c0,0,0-0.1,0-0.1c0,0,0.1-0.1,0.1-0.1c-0.1-0.2-0.2-0.3-0.4-0.4c0.2-0.3,0-0.8,0.3-0.8l0.1,0.3c-0.1-0.9,0.7-1.4,0.5-2.2
	L17.6,10c-0.2-0.5,0.5-0.8,0.1-1.3c0.2,0.2,0.1,0.2,0.4-0.1c0,0.2-0.2,0.5-0.3,0.8l0.5-0.6l-0.3,1c0.3-0.4,0.3-0.4,0.5-0.1
	c0.3-0.6-0.3-0.7,0.1-1.2c-0.1-0.2-0.4,0-0.5-0.3c0.3-0.5-0.4-1.1,0-1.4c-0.1-0.1,0,0.2-0.2,0.2c0.1-0.3,0.1-0.6,0.4-0.6v0.3
	c0-0.3,0.3-0.3,0.2-0.8c0.2-0.3,0.6-0.4,0.5-0.1c0.1-0.1-0.1-0.4-0.3-0.3c0-0.2,0.2-0.4,0.4-0.5c0,0,0.1,0,0.1-0.1
	c0,0,0.1-0.1,0.1,0c0,0,0,0-0.1-0.1c0,0-0.1,0-0.1,0c0-0.1,0-0.1,0-0.1c0,0-0.2,0-0.3-0.1c-0.1-0.1-0.2-0.1-0.2,0.1
	c-0.2-0.1-0.2-0.2-0.2-0.2c0-0.1,0-0.2,0-0.3c0.1,0,0.3,0.1,0.4,0.2c0.1,0.1,0.2,0.2,0.3,0.3c-0.1-0.1-0.1-0.1-0.1-0.2
	c0.1,0.1,0.2,0.2,0.2,0.3c0,0,0,0,0.1,0c0.1-0.1,0.1-0.1,0.1-0.2c0-0.1-0.1-0.2-0.1-0.2c0-0.2,0-0.3,0.2-0.1c0-0.1-0.3-0.4-0.2-0.6
	c0.4,0.3,0-0.1,0.2-0.3c0.1,0.1,0.2,0.2,0.2,0.4c0,0.1,0,0.2,0.3,0.2c0,0-0.1,0.2-0.1,0.2c0.1,0,0.1,0,0.2,0l0.1,0.1l0.1,0.1
	c0.1,0.2,0.3,0.3,0.5,0.4c-0.2-0.1-0.4-0.2-0.3,0.1c0.1-0.3,0.4,0.1,0.6,0.2l-0.1,0.1c0.2,0.1,0.2-0.1,0.2-0.3c0,0-0.1,0-0.2-0.1
	c0-0.3,0.5-0.6,0.8-0.2c0.1,0.2,0,0.5-0.2,0.6c-0.1,0-0.1,0-0.2,0c0.2,0.2,0.2,0.4,0,0.6c-0.1,0.2-0.2,0.4,0,0.6
	c0,0.1,0.8,0.4,1,0.8c-0.3,0.3-0.4-0.5-0.6-0.1c1,0.5,0,1.7,0.8,2.6l0.3-0.3c0.1,0.2,0.2,0.5,0.3,0.7l-0.3-0.3
	c0,0.3,0.3,0.8,0.5,0.5C23.5,11,23.7,11,24,11.5c-0.2-0.5-0.1,0,0-0.4c0.4,0.5,0.3,0.6,0.3,1c0.1-0.1,0.4,0,0.5,0.1
	c-0.1,0.4,0.2,1,0.2,1.6l0.1,0c0.1,0.3,0.2,0.5,0.3,0.7c0.2,0.2,0.3,0.4,0.6,0.6c0.5,0.3,1,0.4,1.5,0.5h0.1h-0.1
	c-0.2,0.2,0,0.3,0.3,0.3c0.2,0,0.3,0,0.5-0.1c0.1,0,0.2,0,0.3,0c0-0.1,0-0.3,0.2-0.3c0.1,0.3,0.4,0.1,0.5,0.2
	c0.3-0.2-0.2-0.4,0.3-0.5c0.2,0,0.3,0.2,0.3,0.3c0.1-0.3,0.3-0.4,0.6-0.6c-0.1-0.1-0.2,0.1-0.3,0.1c-0.1-0.2,0.1-0.2,0-0.4
	c0.2-0.1,0.2,0.3,0.4,0.1c-0.1-0.1-0.2-0.2-0.3-0.2c0.1-0.1,0.3,0,0.3,0c-0.2,0-0.2-0.3-0.3-0.5c0.4,0,0.4,0.2,0.4,0.4
	c0,0.2,0,0.4,0,0.6c0.1-0.1,0.3-0.2,0.5-0.2c0.1,0,0.2,0.1,0.3,0.1c0.1-0.1,0.1-0.3,0.1-0.4c0.1,0,0.2,0.1,0.1,0.3l0.2-0.1
	c0-0.1,0-0.2,0.3-0.6c0.2,0,0.8-0.2,0.2,0.4l0.1-0.1c0.5-0.3,1.5-0.7,1.8-0.9c0,0,0,0,0.1,0h0.1c0,0,0.1,0,0,0s-0.1,0.2-0.2,0.3
	c-0.2,0.3-0.4,0.5-0.8,0.7c-0.2,0.2,0.1,0.1,0.2,0.2c0.1,0.1,0.1,0.2-0.5,0.5c0.4,0,0.2-0.1,0.9-0.4c0.2,0-0.1,0.3-0.3,0.5
	s-0.3,0.3,0.2,0.2c-0.6,0.5-0.2,0-0.7,0.2c0.5-0.1,0.4,0.1,0.2,0.3c-0.2,0.2-0.4,0.4-0.3,0.6c-0.4,0.1-0.1-0.2-0.6,0
	c0.2,0,0.1,0.1,0.1,0.2l-0.5-0.1c0.3,0.2,0.5,0.4,0.6,0.7c-0.4,0.2-0.5,0-0.6-0.1c0-0.1-0.1-0.1-0.2-0.1c0,0-0.1,0-0.1,0L32,17.2H32
	c0.1,0.5-0.7,0.3-0.9,0.9c0.1-0.2,0.2,0.1,0.3,0.1l-0.4,0.1c0,0,0.1,0,0.1,0.1c0,0.4-0.3,0.1-0.4,0.5c0.2-0.1,0.4,0.2,0.4,0.3
	l-0.7,0l0.5,0.2c-0.4,0.4-1.5,0.3-1.2,1l0.3-0.1c0.1,0.1,0.2,0.5-0.3,0.5c-0.1,0-0.4-0.2-0.3-0.2L29.3,21c0.3,0.2,0.9-0.2,1.3-0.4
	c-0.2,0-0.5,0.1-0.6-0.1c0.3-0.2,0.8-0.2,1.1-0.4c-0.2,0-0.4-0.1-0.5-0.2c0.2-0.4,0.4,0,0.6-0.2c0-0.2,0-0.3-0.1-0.3
	c0.4-0.1,0.7-0.4,0.8-0.7c0,0-0.5,0.1-0.5-0.2c0.3-0.1,0.6-0.2,0.9-0.3c0.1,0,0.3-0.1,0.4-0.1l0.2-0.1c0.1,0,0.2-0.1,0.3-0.2
	c0.3-0.1,0.6-0.4,0.8-0.6c0.2-0.2,0.3-0.5,0.5-0.7c0.1-0.2,0.2-0.4,0.3-0.6c0.1-0.2,0.3-0.4,0.5-0.6c0.2-0.1,0,0.5,0.4,0
	c-0.5,0.1-0.1-0.2-0.2-0.2c0.4-0.3,0.5-0.5,0.5-0.7c0-0.2,0-0.3,0.3-0.5c-0.2,0.2-0.2-0.1-0.3-0.2c-0.3,0.2-0.3,0.1-0.3,0
	c-0.1,0-0.2,0.1-0.7,0.6c0.3-0.3,0.6-0.6,0.8-1c0.3-0.5,0.7-1,1.1-1.3L37,12c0-0.2,0.2-0.5-0.3-0.3h0c-0.5,0.1-0.9,0.4-1.3,0.6
	c0,0.1,0.3,0,0.3,0.1c-0.4,0.2-0.5,0.2-0.5,0.1c0-0.1,0-0.2-0.2-0.2c-0.3,0.3,0.3,0-0.3,0.5c-0.3,0.1-0.3-0.1-0.5-0.1l-0.1,0.2
	c-1.1,0.6,0.6-0.9-0.5-0.1c0.1-0.1,0.1-0.2,0.3-0.4c-0.2,0.1-0.5,0.3-0.7,0.5c-0.2,0.2-0.3,0.3-0.1,0.4c-0.2,0.1-0.4,0-0.5-0.2
	c0.4-0.3,0.4-0.2,0.7-0.6L32,12.8c-0.2,0,0.1,0.1,0.2,0.1c-0.3,0.3-0.7,0.5-1.2,0.6c-0.3,0.1-0.7,0.1-1,0.1
	c-0.7-0.1-1.3,0.2-1.7,0.7c0.1-0.3-0.2-0.2-0.3-0.3L27.9,14l-0.1,0l-0.2,0.1c-0.2,0-0.3,0-0.5,0.1c0,0.1,0,0.1,0,0.2
	c-0.3-0.2-0.5-0.5-0.5-0.8c0-0.1,0-0.2-0.1-0.3c-0.1-0.2-0.1-0.3-0.2-0.4c0.1-0.1-0.2,0.1-0.2,0.2c0.1-0.6-1-0.7-0.5-1.1l0.1,0.1
	c-0.5-0.9-0.4-2-0.6-3c-0.5-0.1,0.1,0.6-0.4,0.5c-0.4-0.6-0.3-1.4-0.6-2c0,0.1-0.1,0.1-0.1,0.2c-0.5-0.6,0.4,0,0.2-0.6
	c-0.2,0.1-0.2,0.1-0.4-0.1l0.2-0.3c-0.1,0-0.3,0.1-0.3,0.2c0.3-0.4-0.2-1.1,0-1.5c-0.1,0-0.4,0.3-0.6,0.2c-0.2-0.2-0.2-0.5-0.2-0.8
	l0,0c-0.3-0.1-0.6-0.6-0.6-0.5c-0.4-0.5,0.2-0.2,0.1-0.8C22.7,3.8,22.9,3.9,23,4c-0.1-0.3-0.3-0.6-0.5-0.9c0,0.1,0.1,0.3,0.1,0.4
	c-0.4-0.3-0.4-0.8-0.9-1.2h0.3c-0.1-0.1-0.1-0.2-0.2-0.3l-0.3-0.3c-0.2,0.2-0.4,0.1-0.6,0c-0.2-0.1-0.3-0.1-0.2,0.3
	c-0.6-0.2-1-0.4-1.5-0.5c-0.5-0.2-1-0.2-1.5,0l-0.2,0.2c0.2-0.1,0.2,0,0.2,0c-0.2,0.3-0.4,0.5-0.5,0.6c-0.2,0.2-0.3,0.3-0.5,0.5
	c0.2,0,0.3-0.2,0.4-0.1c0,0.2-0.1,0.5-0.3,0.6c-0.2,0.2-0.3,0.5-0.4,0.8c0.2-0.3,0.3-0.1,0.3,0.1c-0.2,0-0.3,0.1-0.4,0.2
	c1-0.4,0.3,0.8,1,0.6c-0.2,0-0.7,1-1.1,0.6l0.1-0.2c-0.2-0.1-0.2,0.2-0.2,0.4c0.1-0.1,0.1-0.2,0.2-0.2c-0.4,0.9-0.3,1.9-0.7,2.9
	c0.1-0.1,0.3-0.5,0.4-0.2c0,1.1-0.6,1.6-1,2.6c0.6,0.1,0.2-1.1,0.8-1.1c-0.2,0.5-0.3,1.1-0.5,1.7c-0.1,0.3-0.2,0.6-0.3,0.9l-0.1,0.2
	c0,0,0,0-0.1,0l-0.1,0c0.4,0.3,0.3,0.4,0.1,0.3c-0.2,0-0.1,0-0.1,0s-0.1,0.1-0.1,0.2c0-0.1,0-0.2-0.1-0.3l0-0.1l0,0h-0.1
	c0.1,0.3-0.3,0.2-0.2,0.4c-0.2-0.2-0.5-0.3-0.8-0.4c-0.3,0-0.6,0-0.6,0.3c0-0.6-0.8-0.1-1.1-0.5c-0.5,0.1-1-0.2-1.6-0.1
	c0.2-0.3-0.6-0.2-0.8-0.4c0.1,0,0.2,0.1,0.1,0.1c-0.2,0.3-0.7-0.3-1-0.2c-0.2,0.1,0,0.3-0.2,0.3c0-0.1-0.2-0.3-0.5-0.4l-0.2,0H7.5
	c-0.2,0-0.4,0-0.6,0.1c0.3,0,0.3,0.1,0.5,0.2c-1.2-0.2-2.4-0.3-3.7-0.3c-1.2,0-2.3,0.1-3.8,0c0,0.1,0.1,0.2,0.2,0.3
	c0.1,0.1,0.1,0.2,0.2,0.4c0.2,0,0.3-0.1,0.5-0.1c1,0.8,0.8,0.9,0.5,0.9S0.6,14,1.1,14.5c0.6,0.8,1.3,1.6,2.1,2.3
	c0.4,0.4,0.7,0.7,1.1,1.1l0.6,0.5c0.1,0.1,0.1,0.1,0.2,0.2l0.2,0.1C6.1,19.4,7,20.2,7.8,21c0,0.2-0.2,0.1-0.3,0.2
	C7.7,21.2,8,21,8,21.3l-0.2,0.1c0.6,0.2,1.2,0.6,1.6,1c0.5,0.5,1.1,0.8,1.7,0.6c0.1,0.1,0.2,0.2,0.3,0.3l0.1,0.1h0.1
	c0.1,0,0.2,0.1,0.2,0.1c0,0.1,0,0.2-0.2,0.3c0.1,0,0.2,0,0.3,0c0.1,0,0.1-0.1,0.2,0c-0.1,0.2-0.1,0.3-0.2,0.5l-0.2,0.5l0-0.1
	c-0.7,0.9,0.5,2.7-0.1,3.9l0,0c0.2,0,0.3,0.3,0.3,0.5c-0.1,0.1-0.2-0.1-0.3-0.2c-0.3,0.7-0.4,1.4-0.5,2.2c0.3-0.4,0.2,0.4,0.5,0.4
	c0,0-0.1,0.1-0.2,0.1c0,0-0.1,0-0.1,0c-0.1,0-0.2,0-0.3,0.5c-0.1,0.6-0.1,1.2,0,1.7c0,0.5,0.1,0.9,0.1,1.4c-0.3,0.7-0.3,1.2-0.7,1.7
	v0.3c0,0.1,0,0.1,0,0.2v1.1c0,0.6,0,1.1,0,1.7l0.1-0.2c-0.2,0.6-0.1,0.8,0,0.9c0,0.1,0.1,0.1,0.1,0.2c0,0,0,0,0,0.1l0.1,0
	c0,0,0.1,0,0.1,0c0.1-0.3,0-0.3,0.1-0.5l0.4-0.2c-0.2,0,0-0.7,0.5-1.1c0.2,0.2-0.3,0.5-0.2,0.8l0.4-0.8c0.2-0.2,0.1,0.6-0.4,1.1
	c0.3-0.2,0.5-0.4,0.8-0.6l0.8-0.6l0.8-0.6c0.3-0.2,0.5-0.5,0.8-0.7l-0.1-0.3c0.7-0.5,1.2-1.2,1.5-1.9c0,0.1,0.2,0.1,0.2,0.3
	c0.4-0.2,0.4-0.4,0.3-0.5c0-0.1-0.1-0.3,0.4-0.6c-0.2,0.2-0.5,0.4-0.6,0.3l0.7-0.7c0.1-0.1,0.2-0.3,0.4-0.4l0.1-0.1l0-0.1l0,0
	l0.1-0.1c-0.2-0.5,0-1,0.3-1.3c0.1,0,0.1,0.2,0.1,0.4l0.3-0.2l-0.2-0.5l0.6-0.2l-0.3-0.2c0.3-0.2,0.7-0.1,0.9-0.3
	c0.4-1,0.2-0.9,0.3-1.7c0.3,0.2,0.5,0,0.6-0.3c0,0,0,0,0-0.1l0,0c0,0,0,0,0.1-0.1c0,0,0.1,0,0.2,0.1c0-0.2,0-0.3,0.2-0.4
	c0.1-0.1,0.3-0.1,0.4,0c0.2,0.1,0.4,0.2,0.5,0.3l0.4,0.2c0.1,0.1,0.3,0.2,0.4,0.2l0-0.1c0.3,0,0.4,0.2,0.4,0.5c0,0.2,0,0.5,0.3,0.6
	v-0.2c0.8,0.2,1.6,1.4,1.9,2.1c0-0.2,0.2-0.3,0.3-0.1c0.2,0.2-0.5,0.2-0.1,0.4c0-0.1,0.1-0.2,0.2-0.1v0.3v0.1c0,0.1,0,0.1,0.1,0.2
	c0.8,0.5,1.6,1,2.5,1.5c0.2,0.1,0.4,0.2,0.6,0.3c0.2,0.1,0.4,0.2,0.6,0.3c0.4,0.1,0.7,0.3,1.1,0.5c0.2-0.1-0.1-0.3-0.2-0.5
	c0.3,0.1,0.5,0.2,0.8,0.3l0.9,0.3c0.3,0.1,0.7,0.2,1,0.3l0.2,0.1H33h0.1h0.3L32.8,36c0.1-0.1,0.5,0.4,0.8,0.5c0,0,0-0.2-0.3-0.7
	c-0.1-0.2,0,0.2,0,0.3c-0.1,0-0.2-0.1-0.3-0.1c0,0,0-0.1,0-0.1c-0.6-1.1,0.6,0.2,0.1-1.1c-0.2-0.1-0.4-0.2-0.6-0.3
	c-0.4-0.6-0.3-0.7-0.2-0.8s0.4,0,0.5,0c0.1-0.2,0-0.5-0.1-0.7c-0.2-0.2-0.3-0.4-0.5-0.6c-0.2-0.2-0.4-0.4-0.6-0.6
	c-0.2-0.3-0.3-0.6-0.3-0.9c0.2-0.3,0.4,0.1,0.6-0.2c-0.1-0.3-0.2-0.5-0.3-0.8c-0.1-0.2-0.1-0.4-0.1-0.5c0-0.3-0.1-0.5-0.2-0.8
	c-0.8-0.2,0.1,0.4-0.6,0.2l0.3,0.5c-0.5-0.4,0.1,0.5-0.4,0.5c-0.2-0.3-0.1-1-0.1-1.5c-0.3,0.1,0.1,0.6-0.3,0.5l0-0.3
	c-0.1,0.1-0.2,0.1-0.1,0.3c-0.3,0-0.1-0.3-0.2-0.5c0.2-0.1,0.4-0.1,0.6-0.1c0,0-0.1,0-0.1,0c0.3-0.6-0.3-1.3-0.1-1.8
	c-0.1,0.1-0.1,0-0.2,0c-0.1-0.3,0.2-0.7,0.2-1.1c-0.3-0.1-0.6,0.3-0.7-0.3c0.2-0.2,0.7,0,0.6-0.6C30,24.2,29.9,24.7,29.7,24.5z
	 M30.1,35.4l-0.3-0.1l0,0L30.1,35.4z M28.9,34.6c0.1,0.1,0.2,0.2,0.2,0.4l-0.3-0.1l-0.2-0.1C28.8,34.8,29,34.8,28.9,34.6L28.9,34.6z
	 M28.8,31.9L28.8,31.9c-0.1-0.1-0.2-0.2-0.2-0.2c-0.1-0.1-0.2-0.3,0-0.2L28.8,31.9z"/>
<path class="st0" d="M29.2,32.5L29.2,32.5c0.1,0.1,0.1,0.2,0.1,0.2L29.2,32.5L29.2,32.5z"/>
<path class="st0" d="M27.5,15.5L27.5,15.5C27.5,15.5,27.5,15.4,27.5,15.5C27.5,15.4,27.5,15.5,27.5,15.5z"/>
<polygon class="st0" points="18.8,31.9 18.7,31.9 18.8,31.8 "/>
<path class="st0" d="M33.9,12.5c0.1-0.1,0.1-0.1,0.2-0.1C34,12.4,34,12.4,33.9,12.5z"/>
<path class="st0" d="M36.8,11.8l0.3-0.1l0,0v0.1c0,0,0-0.1,0-0.1l0,0c0,0,0,0-0.1,0L36.8,11.8z"/>
<path class="st0" d="M36.4,13.6c-0.1,0.1-0.2,0.1-0.2,0.1l0,0L36.4,13.6z"/>
<path class="st0" d="M16.3,6C16.3,6,16.3,6,16.3,6C16.2,6.2,16.2,6,16.3,6z"/>
<path class="st0" d="M23.1,4.9c0-0.1,0-0.2,0-0.4C23.3,4.7,23.3,4.9,23.1,4.9z"/>
<path class="st0" d="M14.6,13"/>
<path class="st0" d="M22.9,4.2c0.1,0.1,0.2,0.2,0.2,0.4C23,4.5,23,4.3,22.9,4.2z"/>
<path class="st0" d="M30.1,21.3L30.1,21.3L30,21.4L30.1,21.3z"/>
<path class="st0" d="M29.9,21.3h-0.1C29.8,21.3,29.9,21.3,29.9,21.3z"/>
<path class="st0" d="M29.6,21.4l0.2-0.1C29.8,21.4,29.7,21.5,29.6,21.4z"/>
<path class="st0" d="M31.9,19.4l0.1,0.1C32.1,19.5,32,19.5,31.9,19.4z"/>
<path class="st0" d="M32.6,18.9c-0.1,0.2-0.2,0.5-0.4,0.7l-0.1-0.1C32.3,19.5,32.3,18.9,32.6,18.9z"/>
<path class="st0" d="M33.2,15.8c0,0.1-0.1,0.3-0.2,0.4c-0.1-0.1-0.3-0.1-0.4,0c-0.1-0.2,0-0.2,0.1-0.2C32.9,16.1,33.1,16,33.2,15.8z
	"/>
<path class="st0" d="M33.5,14.8c-0.2,0.2-0.4,0.2-0.5,0.3C33.3,14.9,33.4,14.8,33.5,14.8z"/>
<path class="st0" d="M24.2,11.9L23.9,12C23.8,11.8,24,12,24.2,11.9z"/>
<polygon class="st0" points="24.8,8.7 25.1,8.9 24.8,9.1 "/>
<polygon class="st0" points="22.1,7.8 22.1,7.9 22.1,7.5 "/>
<path class="st0" d="M11.4,15.6l0.1-0.4C11.7,15.3,11.6,15.7,11.4,15.6z"/>
<path class="st0" d="M5.9,15.8c0.3,0.1,0.6,0.2,0.4,0.2C6.1,15.9,5.8,15.8,5.9,15.8z"/>
<path class="st0" d="M14.8,32.1l-0.1-0.1C14.8,32.1,14.8,32.1,14.8,32.1L14.8,32.1z"/>
<path class="st0" d="M10.8,15.8c0.1,0.1,0,0.3-0.3,0.2l-0.2-0.5L10.8,15.8z"/>
<path class="st0" d="M8.3,16c-0.4-0.3-0.7-0.8-0.3-1.1c0.3,0.5,0.4,0.4,0.7,1c0.3,0.1,0.6,0,0.6-0.1c0.1,0.1,0.6,0,0.7,0.3
	c-0.6,0.2-1.2,0.1-1.6-0.4C8.2,15.7,8.3,15.9,8.3,16z"/>
<path class="st0" d="M13.2,23.9c0,0-0.1,0.1-0.1,0.2C13.1,24,13.1,24,13.2,23.9z"/>
<path class="st0" d="M14.8,27.4c0,0.2-0.1,0.2-0.2,0.2C14.7,27.5,14.7,27.4,14.8,27.4z"/>
<path class="st0" d="M15,23.7v0.2C15,23.8,15,23.8,15,23.7z"/>
<path class="st0" d="M13.2,23.9c0.1-0.1,0.2-0.3,0.3-0.4C13.6,23.5,13.4,23.7,13.2,23.9z"/>
<path class="st0" d="M6.9,15.9c-0.1,0-0.2-0.1-0.3-0.1L6.9,15.9C6.9,15.8,6.9,15.9,6.9,15.9z"/>
<path class="st0" d="M12.4,18.1h-0.3C12.1,18,12,18,12,17.9C12.1,17.9,12.3,18,12.4,18.1z"/>
<path class="st0" d="M13.1,19.1c-0.2,0-0.3-0.3-0.4-0.4c0.1,0.1,0.3,0.2,0.4,0.2C13.2,19,13.2,19.1,13.1,19.1z"/>
<path class="st0" d="M8.7,14.6l-0.2-0.1L8.7,14.6z"/>
<path class="st0" d="M13.5,22.4c0,0,0.1,0.1,0.1,0.1C13.6,22.5,13.5,22.5,13.5,22.4z"/>
<path class="st0" d="M27.4,16.2L27.4,16.2C27.4,16.2,27.4,16.2,27.4,16.2z"/>
<path class="st0" d="M33.1,14L33.1,14c-0.2,0-0.2,0-0.3-0.1L33.1,14z"/>
<path class="st0" d="M17.9,22.3L17.9,22.3C18,22.1,18,22.2,17.9,22.3z"/>
<path class="st0" d="M23,24.7c0.6,0.5-0.1-1.2,0.7-0.4C23.5,24.2,23.5,25.4,23,24.7z"/>
<path class="st0" d="M7.1,15.8h0.3C7.3,15.9,7.2,15.9,7.1,15.8z"/>
<path class="st0" d="M23.7,24.3L23.7,24.3L23.7,24.3L23.7,24.3z"/>
<path class="st0" d="M18.1,23c0,0.1,0,0.1,0,0.2C18.2,23.3,18.1,23.2,18.1,23z"/>
<path class="st0" d="M16.6,26.1v0.3C16.6,26.3,16.6,26.2,16.6,26.1z"/>
<path class="st0" d="M20,26.5c0-0.1,0.1-0.3,0.2-0.4c0,0,0,0.1,0,0.1C20,26.3,20,26.4,20,26.5z"/>
<path class="st0" d="M24.8,24.2l-0.1-0.1l-0.2-0.3L24.8,24.2z"/>
<path class="st0" d="M23.7,23.2c0-0.2,0-0.3-0.1-0.5C23.7,23,24.4,22.1,23.7,23.2z"/>
<path class="st0" d="M6.9,15.7c0,0.1,0.1,0.1,0.2,0.2H6.9C6.9,15.8,6.9,15.7,6.9,15.7z"/>
<path class="st0" d="M22.6,27.4l0.2-0.5v-0.1l0,0v0.1C22.7,27.1,22.7,27.3,22.6,27.4z"/>
<path class="st0" d="M16.8,10.9l-0.1,0.2C16.7,11,16.7,11,16.8,10.9z"/>
<path class="st0" d="M23.1,26.5c0-0.2,0-0.3,0.1-0.3c0,0.1,0,0.1,0,0.2C23.1,26.4,23.1,26.4,23.1,26.5z"/>
<path class="st0" d="M23.6,22.8L23.6,22.8z"/>
<path class="st0" d="M26.6,17.3c0.3-0.3,0.3-0.3,0.3-0.4c-0.1-0.2-0.1-0.4,0-0.6c0.2,0,0.3-0.1,0.5-0.2c0.1-0.1,0.2-0.1,0.3,0
	l-2.4-1.6c0,0-0.1,0-0.1,0c0.3,0.4,0.2,0.3,0.4,0.9c-0.3-0.3-0.5,1.1-0.9,0.9c0.4,0.3,0.7-0.9,1.1,0c-0.4,0.5-0.7,1.4-1.2,1.4
	c0.1,0.4,0.1,0.8,0.1,1.3c0-0.1,0.1-0.2,0.2-0.3c-0.1,0.2-0.2,0.4-0.2,0.6l2.8,0.5c0.1-0.4,0.3-0.7,0.5-1c0.2-0.3,0.5-0.5,0.8-0.5
	c-0.3-0.2-0.1-0.5,0.2-0.8c0.3-0.3,0.6-0.4,0.1-0.5c0.2-0.1,0.5-0.2,0.7-0.1l-1.9-1.3c-0.1,0.2-0.2,0.3-0.3,0.5
	c0.6,0,0.1,1.2,0.3,1.7c-0.2,0.2-0.3,0.4-0.3,0.6l-0.8,4l3.1-3.1c0.2-0.2,0.4-0.5,0.7-0.6c-0.2,0.1-0.3,0.2-0.4,0
	c0.5-0.3,0.3-0.3,0.4-0.9c0.6-0.5,0.2,0.4,0.7,0.2c0.3-0.6-0.2-0.3-0.3-0.5l1.1-0.4c0.1-0.2,0.1-0.3,0.1-0.5
	c0.4-0.1,0.7-0.2,0.9-0.7l-0.6,0.6v-0.4l1-0.5c0.8-1.3,0-1.4-0.4-1.8l-0.5,0.3c-0.1-0.2,0.1-0.5,0.3-0.7c0.2-0.2-1.2,0.2-1.7,0.7
	c-1.2,1.3,0.2,0.7-0.5,1.7c-0.4,0.3-0.9,0.6-1.3,1l0.1,0.1c-0.1,0.3-0.3,0.3-0.4,0.3c0.2,0.1-0.2,0.5-0.5,0.9l1,0.4
	c0-0.3,0.1-0.7,0.1-0.9l0.2,0.2c0.3-0.7,0.3-1.4,0.1-2.2l-0.3-1.4l-0.8,0.6c-0.7,0.5-1.1,1.1-1.7,1.5c-0.4,0.2-0.7,0.4-1,0.6
	l0.2,0.4c-0.3,0.2-0.5,0.3-0.7,0.5c-0.3,0.3-0.4,0.6-0.4,1v0.4l1.7,0.3c0.1-1.7,0.3-3.3,0.7-4.9l0.3-1.6l-1.4,0.8
	c-0.8,0.5-1.5,1.2-2,2c-0.4,0.8-0.8,1.6-1,2.4c-0.1-0.1,0-0.2,0-0.4c-0.1,1-0.4,1.9-0.9,2.7c-0.5,0.6-1,1.1-1.6,1.5l2,0.9
	c0.2-0.6,0.2-1.3,0.1-2l-0.2,0.2c0.2-1.4-0.2,0.2-0.3-0.8c0.5-0.1,0.5-1.7,0.8-2.5c-0.1,0.2-0.2,0.4-0.2,0.6
	c-0.1-0.2-0.4-0.2-0.2-0.6c0.8-0.8,0.9-2.7,1.2-4c-0.3-0.2-0.4-1.4-0.8-2.1c0,0,0.1-0.1,0.1-0.2l0.3-0.5l-1.2,0.1
	c-0.2,0-0.4,0.1-0.6,0.1c-0.1,0.4-0.4,0.8-0.8,1c0.2-0.4,0.5-0.7,0.7-1h0c0,0,0.1-0.1,0.1-0.1c0.1-0.1,0.2-0.2,0.3-0.3l2.8-1.6
	L23.9,12l0,0l0,0l-1.8-0.7l0,0l1.8,0.7c0.2,0.6,0.2,0,0.5,0.1L21.7,11l0,0c-0.3,0.4-0.9,1.2-0.8,1.4c-0.1,0.2-0.2,0.5-0.3,0.7
	c-0.2,0.1-0.3,0.3-0.3,0.5l0.1-0.1c0,0.1,0,0.1,0,0.2c-0.5,0.9-1.2,1.7-1.9,2.4c0.7-0.5,0.4,0.4,0.7,0.5c0.2-0.6,0.5-1.2,0.9-1.8
	c0,0.1,0,0.2,0.1,0.2c-0.2,1-1,1.4-1.4,2.8c0.1-0.1,0.2-0.2,0.3-0.1c-0.1,0.4-0.4,0.7-0.8,0.8c0.1,0.1,0.1,0.5,0,0.9l1.3,0.3
	c-0.1-0.3-0.1-0.6,0-0.9c0.3-0.3,0.5-0.8,0.4-1.2L19.5,18c-0.1-1,0.4-0.8,0.3-1.6c0.1,0.3-0.2,0.3-0.2,0.1c0.1-0.7,0.4-1.3,0.9-1.7
	l-0.4,0.1c0.3-0.8,1-2.4,0.5-2.5c0.7,0.4,0.7-1.8,0.8-2.5c0,0.2-0.2,0.3-0.3,0.3c0.3-0.5,0.5-1.1,0.6-1.7l-3-0.9c-0.4,1-0.6,2-0.9,3
	l0.4,0.4c-0.3,0.8-1.4,0.7-1.7,1.6l0.4-0.2c-0.4,0.9-0.8,1.9-1.1,2.9l3.2,0.8l0-0.6h-0.4c0.2-0.4,0.3-1,0.6-1.4
	c-0.3-0.6,0-1.6,0.4-2.7c0.5-1.1,0.7-2.2,0.7-3.4L20.9,8c0.2-0.7,0.7-1.6,0.4-2.1l0,0.2c-0.3-0.1-0.2-0.3,0-0.6L19,4.7
	c-0.1,0.2-0.2,0.4-0.3,0.7c-0.2,0.3-0.6,0.6-0.6,0.3c-0.1,1.1-0.5,2.3-0.7,3.5c-0.3,1-0.4,2-0.3,3c-0.6,2-1.4,3.5-1.7,5.7h0.1
	c0,0.8,0,2.3,0.5,2.4c-0.2,1.1-0.7,2-0.9,3l-1.4,7.1l4.3-6.2c0.3-0.4,0.5-0.9,0.7-1.4l-0.4,0.3c0.2-0.5,0.5-0.9,0.9-1.2
	c0.1-0.2-0.1-0.1-0.2-0.1c0-0.5,0.4-0.6,0.6-0.9l-0.2,0c0-0.2,0.1-0.4,0.2-0.5c0.1-0.1,0.1-0.3,0.2-0.4c0.1-0.1,0.2-0.3,0.3-0.4
	c0.1-0.1,0.2-0.1,0.3-0.1c0.1,0,0.1,0,0.2-0.1c0,0,0,0.1,0,0.1c0-0.3,0-0.5,0.1-0.8c0,0.8,0,1.1,0,1.3s0,0.2,0,0.3
	c0.1,0,0.1-0.1,0.2-0.2c0,0,0,0.1,0,0.1c0,0.1,0.1,0.2,0.2,0.3c0.1,0.2,0.2,0.3,0.4,0.5c0.4,0.3,0.6,0.8,0.7,1.3l-0.7-0.7
	c0.3,0.6,0.4,1.1,0.1,1.1c0.5,0.6,0.5-0.1,0.9,0.9c0.2,0-0.2-0.8,0.1-0.5l1,1.3c0.1,0,0.2,0.2,0.3,0.7c-0.8,0.2,0.5,1.2-0.5,0.8
	l0.2,0.4l0.8,2.1l1.6-1.7c0.5-0.6,0.9-1.3,1.1-2c0.1-0.6,0.2-1.2,0.3-1.7l-2.5-0.3c0,0.8,0,1.5-0.1,2.3c0.7,0.8,0,3.8,0.9,3.6
	c0,0.9-0.2,1.8-0.6,2.6c0-0.2,0-0.5,0.1-0.7c-0.2,0.7-0.3,1.4-0.3,2.1c0.2-0.8,0.4-1.6,0.8-2.4c-0.2,1-0.4,1.9-0.6,2.9h0.1l5,2.6
	l-3.2-2.5l-0.4-0.3c0.5-0.8-0.3-0.7,0.3-1.5l0.1,0.2c0.2-1.5,0.7-1.5,0.8-2.9l-0.2,0.1c0-0.5,0.5-1.2,0-1.7l-0.1,0.9
	c-0.3-0.1-0.5-0.8-0.6-1.2c0.1-1,0.6-0.3,0.6-0.8c-0.3-0.2-0.2-0.1-0.5,0.3l0.1-0.6l-0.8,0.2c0.4,0.8,0.6,1.6,0.5,2.5
	c0.1,0,0.1,0,0.1,0c0.1,0.4,0.2,0.9,0.1,1.4c-0.1,0.4-0.1,0.7,0,1.1l2.2-0.8l-0.1-0.1l0,0.1l-2.1,0.7v-0.1l0,0.1l2-0.7
	c-0.8-0.5-0.9-2.1-1.7-1.8c-0.4-0.3,0.6,0.8-0.1,0.4c-1-0.9,0-1.1-0.9-1.9c0.1,0.1,0,0.1,0,0.2c-0.2-0.4-0.5-0.8-0.8-1.2L24.6,24
	c-0.3-0.2-0.7-0.5-1-0.8l-0.5-0.4c-0.1-0.1-0.2-0.1-0.3-0.2c-0.1,0-0.3,0-0.4,0c-0.2,0.1-0.4,0.3-0.5,0.5c-0.2,0.2-0.3,0.4-0.4,0.6
	c-0.2,0.5-0.4,1-0.4,1.6c0-0.3-0.1-0.3-0.2-0.2s-0.3,0.3-0.3,0.3c-0.1,0,0.1,0,0.1,0.1c0,0.1-0.1,0.2-0.2,0.3c0,0-0.1,0.1-0.2,0.1
	c-0.1,0.1-0.2,0.1-0.3,0.1c0,0.4-0.6,1-0.7,1.3l2.1,0.3c0,0,0-0.1,0-0.1c0.2,0,0.1-0.4,0-0.8c0,0.9-0.3,0.3-0.5,0.8
	c-0.3-1.3,0.5-1.6,0.1-2.9L20.6,24c0.2-0.1,0.2-0.5,0.2-0.8l-0.2-3l-2,2.6c-0.2,0.3-0.4,0.5-0.4,0.5c0,0.3-0.1,0.6,0.1,0.7
	c-0.4,0.4-0.6,1.2-1,1.2l0.2-0.5c-0.7,1.5-1.9,2-2.3,3.2l0.6,0.4c-0.2,0.8-0.9,1-1.1,1.6l1.3,0.4c0-0.1-0.1-0.2-0.1-0.3
	c0.2,0.3,0.2,0.3,0.4-0.2c0,0.2,0,0.4-0.1,0.6l-1.7-0.5c0.2-0.2,0.4-0.4,0.6-0.7l-0.8,0.6l2.2,0.6l0.1-0.3v0.3l-2.3-0.7l1-1.2
	c-0.7,0.5-0.6,0.5-0.6,0.1c-0.3,0.3-0.5,0.6-0.6,1l2.8,0.8c-0.1-0.3-0.1-0.7,0-1c-0.1-0.4-0.4,0-0.5-0.4c0.3-0.9-0.4-1.8,0-2.4
	c-0.1-0.2-0.1,0.4-0.2,0.3c0.1-0.6,0.2-1,0.4-1.1v0.5c0-0.4,0.3-0.5,0.3-1.3c0.2-0.5,0.6-0.7,0.6-0.2c0.1-0.2,0-0.7-0.3-0.6
	c0.2-1.3,0.9-0.5,0.7-1.8c0,0.1-0.1,0.2-0.1,0.1c0-0.3,0-0.5,0.2-0.8c-0.3,1.1-0.5-0.5-0.6,0.9c-0.4-0.2,0.1-1,0.1-1.4
	c0.4-0.6,0.6,0.1,0.8-0.2c-0.1,0-0.1-0.3,0-0.6l0.2,0.4c0-0.2,0.1-0.4,0.2-0.7L15,19.2l-0.1,0.2l0-0.1l3.6,0.6l-0.2,0.4
	c0-0.1,0-0.3,0-0.4l-3.3-0.6c0.2,0.7,0.2,1.4-0.1,2.1c0.2-0.3,0.5-0.8,0.5-0.1c-0.3,1.1,0.1,0.3,0.2,0.9c-0.2,1.1-0.5,0.1-0.6,1.8
	c0,0.2-0.2,0-0.2-0.2c0,1.1-0.3,1.7-0.4,2.8c0-0.5,0-0.8-0.3-0.3c0.3-0.2,0,0.9,0.1,1.3l-0.2,0.1c0.1,0.4,0.2,0,0.3-0.2
	c0,0-0.1-0.1,0-0.3c0.2-0.5,0.8-0.2,0.6,0.7c-0.4,0.8-0.7,0.6-0.8,0.4c-0.2,1-0.7,0.9-1,1.5l2.7,0.9c0.1-0.2,0.1-0.3,0.1-0.5
	C16,29.5,16,28.8,16,28.1c0.4-0.4,0,1.1,0.4,0.7c-0.5-1.6,1.2-2.8,1.1-4.7L17,24.2c0.1-0.5,0.1-0.9,0.3-1.3l0.1,0.7
	c0.2-0.4,0.3-1.4-0.1-1.2c0.4-0.6,0.5-1.3,0.4-2.1c-0.2,1,0.1,0-0.3,0.7c0-0.6,0.1-1.2,0.4-1.8c-0.2,0.1-0.3-0.3-0.3-0.6
	c0,0,0-0.1,0-0.1l0.4-0.9l-1,0.7c-0.7,0.6-1.2,1.4-1.6,2.2l0.1,0.1c-0.4,0.7-0.6,1.4-1,2.1c-0.3,0.7-0.8,1.3-1.5,1.6l0,0h-0.1
	l0.1-0.1c0.1-0.5-0.6,0.1-1.1,0.1l1.1,0.9c0-0.1,0-0.3,0.1-0.4c-0.1-0.1-0.3-0.2-0.3-0.4c0.4,0,0.2-0.5,0.4-0.7c0-0.5-0.5,0-0.3-0.8
	c0.1-0.3,0.3-0.3,0.4-0.2c-0.1-0.2-0.1-0.3-0.1-0.5c0-0.1,0-0.3,0.1-0.4c0-0.2,0.1-0.3,0.1-0.5c-0.2,0.2-0.2,0.5-0.3,0.6
	c-0.2,0,0-0.3-0.3-0.4c0.2-0.5,0.4-0.2,0.6-0.8L13.1,21c0-0.2,0.3-0.5,0.4-0.6c-0.2,0.2-0.4,0.4-0.7,0.3c0.3-0.5,0.6-0.6,0.9-0.6
	s0.4,0.2,0.6,0.2c0.2-0.6,0.5-1.1,0.9-1.6c0,0,0-0.1-0.1-0.2l-0.3-0.1l-0.5-0.1c-0.4-0.1-0.8-0.2-1.1-0.2c0,0.1,0,0.2,0,0.3
	c-0.3,0-0.7-0.2-1-0.4l-1-0.1c0.6,0.2,0.7,0.3,0.6,0.6l-0.7-0.1l-0.6-0.1c-0.4-0.1-0.6-0.2-0.7-0.4v0.1c-0.3,0-0.6,0-1,0l0,1.3
	c0.7,0,1.3-0.2,2-0.4c1.1,0,2.4-0.5,2.5,0c0.7,0,1.5-0.9,2.1-0.5c0.6-0.5,0-0.1-0.3-0.4c0.6-0.5,1.6,0,1.6-0.7l0,0l0.4,0.2L16.5,17
	c-0.7-0.5,0.3,0,0.1-0.4c-0.4,0.5-1.6-0.5-2.4-0.5c-0.3-0.4,0.4,0-0.1-0.5c0,0.2-0.3,0.1-0.5,0l0-0.4c-0.4,0.2-0.7,0.4-1.1,0.7
	c-1.1-0.7,0.4-0.6-1.2-1.1l0.1,0.1c-0.5,0.3-1.1-0.5-2.4-0.4c0.4,0,0.1,0.2,0.3,0.3c-0.2-0.1-0.4-0.2-0.6-0.2c0.1,0,0.1,0.1,0,0.1
	c-0.6,0.2-0.5-0.2-1.2,0c0.5,0.1,0.3,0.4,0.1,0.5l-0.9-0.5L7,15.2c-0.6-0.1-1.2-0.2-1.7-0.4l0-0.2c0.4,0.3,0.7,0.4,1,0.2l-0.4-0.3
	c0.1-0.1,0.5-0.3,0.9,0.2C7,14.9,7,15.2,6.8,15.1l0.5,0.1c-0.1-0.4-1-0.9-1.6-1.3l-0.5,1.8h0.2c0,0-0.1,0-0.1,0l0.4-1.7
	c0.2,0.2,0.5,0.5,0.3,0.6c-0.1-0.1-0.3-0.2-0.4-0.3l-0.3,1.2c0.5,0.1,0.9,0.3,1.3,0.4c-0.2-0.1-0.4-0.3-0.5-0.5
	c0.7-0.2,0.5,0.3,1,0.3c0.2-0.1,0.3-0.2,0.2-0.3c0.6,0.2,1.2,0.3,1.9,0.2c-0.1-0.1-0.2-0.1-0.3-0.2c-0.1-0.1-0.2-0.2,0-0.3
	c1.3,0.4,1.4,0.8,2.7,1.4c0.7,0.4,1.4,0.6,2.1,0.7c0.6,0,1.3,0.3,1.8,0.6c0,0.2-0.9,0-0.2,0.3c0-0.3,0.5,0,0.5-0.1
	c0.1,0.1,0.1,0.1,0.2,0.2l0.1-1.9c-0.6,0-0.8,0.5-1.4,0.4c0.2,0.1-0.2,0.3-0.5,0.5c0.2,0.3-0.8,0.4,0.5,0.6c-0.5-0.1-1.1,0-1.6,0.2
	c-0.5,0.2-1,0.1-1.4-0.2l0.3-0.2c-0.4,0.1-0.7,0.2-1.1,0.3h0c-0.4,0-0.9,0.2-1.2,0.5c0.3,0.1,0.7,0,1,0.1c-0.6,0.4-1.3-0.2-2-0.2
	c0,0.3,0.7,0.1,0.5,0.4c-0.2,0-0.4,0-0.6,0v0.2C9,18.9,9.3,19,9.6,19.1l-0.1-0.2c1.3-0.2,0.4,0.8,1.4,0.4c0,0.1,0.1,0.2,0,0.3
	c0.1,0,0.2-0.1,0.3-0.1l0.3-0.1c0.2-0.1,0.2-0.2-0.1-0.3c0.4,0,0.8,0.2,0.9,0.4c-0.5,0.2-0.4,0.1-0.7,0.3c0.3,0.1,0.6,0.2,0.9,0.2
	c0.1,0,0.1-0.1,0-0.2c0.2,0,0.3-0.1,0.5-0.1h0.2l0,0l0,0v0.1c-0.1,0.3-0.3,0.6-0.5,0.9L12.3,21c0,0.1-0.1,0.1-0.1,0.2l-0.1,0.1
	l-0.1,0.2c-0.5,0.9-0.6,2-0.3,3c-0.2-0.3-0.2,0.2-0.4,0.4V25l0.1,1.1l1-0.3c0.5-0.1,1-0.4,1.4-0.7c0.4-0.3,0.7-0.6,1-1l-0.3,0.1
	c0.6-0.5,1.2-1.2,1.7-1.9c0.4-0.5,0.7-1.1,0.9-1.7c0.1,0-0.2-0.1-0.4,0.1c0.3-0.3,0.4-0.8,0.5-1.2c0.1-0.4,0.2-0.7,0.5-0.6l-0.1,0.3
	c0.1-0.1,0.2-0.3,0.3-0.4l-1.1-0.5c-0.3,1.6-1,3.2-1.4,4.7c0.3,0.5,0.3-1,0.6-0.5c-0.1,1.2-0.7,2.4-0.9,3.7c0.1-0.2,0.1-0.1,0.2-0.2
	c-0.1,1.4-0.3-0.2-0.6,0.9c0.2,0,0.2,0,0.2,0.4l-0.4,0.2c0.1,0.1,0.3,0.1,0.4,0c-0.5,0.4-0.6,1.9-1.1,2.2c0.1,0.1,0.5-0.1,0.6,0.1
	c0,0.2,0,0.3-0.1,0.5l0.6,0.2c0.1-0.3,0.3-0.6,0.5-0.8l0,0c-0.1-0.5,0.2-1.5,0.1-1.3c0.2-1.1,0.3-0.1,0.7-0.9c0,0.3,0,0.6-0.1,0.9
	c0.2-0.5,0.3-1,0.5-1.5c-0.1,0.2-0.2,0.4-0.3,0.6c0-0.7,0.5-1.4,0.6-2.2l0.2,0.4c0.1-0.3,0.2-0.6,0.3-0.9c-0.4-0.2,0.1-1.2-0.5-0.8
	c0-1.7,0.7-2.8,0.9-4.3c0,0.3-0.1,0.2-0.2,0.2c0-0.1,0-0.2,0-0.3L16,19.3c-0.1,0.6-0.4,1.2-0.8,1.6c0.2-0.1,0.3-0.3,0.4-0.3
	c-0.2,1.1-0.4,0.6-0.8,1.8c0.3-0.3,0.3-0.2,0.3,0.2c-0.2-0.1-0.3,0.2-0.4,0.4c1.1-0.7,0.2,1.4,1,0.9c-0.2,0-0.9,1.8-1.2,1.3l0.1-0.3
	c-0.2-0.1-0.2,0.4-0.3,0.7c0.1-0.2,0.1-0.4,0.2-0.3c-0.5,1.6-0.4,3.2-0.6,5l-0.5,4.9l3.1-4.1c0.1-0.1,0.2-0.3,0.3-0.4
	c-0.1,0-0.3,0.2-0.4,0.3l-3.8,2.6l1.5-3.3c0.1-0.1,0.1-0.2,0.2,0l2.1,0.6l0,0c0.9-1.7,1.9-2.4,3.1-3.8c-0.5-0.4-1.2,1.7-1.7,1.5
	c1-1.4,2-2.7,3.2-4.2l-2.8-0.6l0,1c1,0.6,0,2.2,0.9,3.4c-0.1,0-0.1,0-0.2,0.1L17.9,30l4-1.3c0.2-0.1,0.5-0.5,0.7-1.1
	c-0.3,0.1,0-0.6-0.3-0.5c0.1-0.1,0.1-0.2,0.2-0.2c0,0,0.1-0.1,0.1-0.1h0c0.1,0,0.1-0.1,0.1-0.1c0-0.3,0-0.5-0.1-0.7
	c0.2,0.3,0.2,0.2,0.2,0.1c0.1-0.1,0.1-0.1,0.2-0.1c0.1,0.1,0.1,0.2,0.1,0.3c0.1-0.1,0.2,0.1,0.2,0.2c0,0.1,0.1,0.1,0.1,0.2s0,0,0,0
	c0,0,0,0.1,0.1,0.1c0.1,0.1,0.2,0.2,0.3,0.3c-0.5-0.1,0.5,0.9,0.6,1.3c0-0.1-0.1-0.3-0.1-0.3c0.4,0.1,0.5,1.1,1,1.5
	c0.3,0.1,0.2-0.2,0.5,0.1c-0.2,0.2,0.5,1.6,1.1,1.9c-0.2-0.2-0.1-0.3-0.1-0.5c0.1,0.2,0.2,0.3,0.3,0.5l2.5,4.3l0.2-5.2
	c0-2.1-0.6-4.1-1.8-5.8l-2.8-4.5L25,25.6c0,0.8-0.1,1.7-0.3,2.5l0.4-0.5c0.4,1.7-0.7,1.1-0.8,2.4c-0.1,0.9-0.1,1.8-0.2,2.7l3.6,0.4
	c-0.3-2.9-0.3-5.8-0.2-8.7c0.1-0.3,0.1,0.2,0.3,0.2c0-0.3-0.4-0.4-0.2-0.9l0.2,0.1c-0.1-0.4-0.2-0.8-0.2-1.1l-3.3-0.3
	c-0.1,0.5-0.2,0.9-0.4,1.3c-0.1,0.3-0.3,0.6-0.5,0.8l2.9,0.5c-0.2-0.6-0.6-1.1-1.1-1.5c-0.3-1.6-1.3-2.5-1.6-4.5v0l0-0.1
	c0,0,0-0.1-0.1-0.1c0,0-0.1,0-0.1,0c0,0,0,0.2,0,0.3c0,0.1,0,0.2,0,0.2c0,0,0,0-0.1,0c0,0,0,0,0-0.1c0,0,0-0.1-0.1-0.2
	c-0.3-0.9-0.6-2-0.9-3.1l0,0.2c-0.4-1.5-0.9-2.9-1.7-4.3c-0.5,1.3-1.1,2.6-1.6,4c-0.4,1-1,2-1.6,3l0.1-0.1c0,0,0.1,0,0.1,0.1
	c0,0,0,0.1,0,0.1v0.1c0,0.2-0.1,0.4-0.2,0.5c-0.2,0.1-0.1-0.2-0.1-0.4c-0.8,1.1-1.5,2.2-2.1,3.4c0.3-0.3,0.2-0.1,0.2,0.2l2.4,0.7
	c0-0.2-0.1-0.5-0.2-0.6c0.2-0.4,0.3,0.3,0.6-0.6c0.1-1.3,0-2.5,0-3.6c0.3-0.4,0.3-1,0.7-0.9c0.2-1.4,0.5-2.2,0.8-4l-0.1-0.1
	c0.5-0.4,0.1-1.6,0.4-1.8c-0.2,0-0.3,0.2-0.4,0.1l0.3-0.8c-0.2,0.3-0.7,0.5-0.6-0.2c0.5-0.6,0.2,0.2,0.5,0l-0.3-0.3
	c0.2-0.5,0.6-0.5,0.6,0.1c0.4-1.7,1.1-3.4,1.4-4.9L21.5,6c0.1-0.1,0.1-0.3,0.2-0.5l-2.9-1c-0.3,0.7-0.5,1.4-0.6,2.1
	c-0.1,0-0.3,0.2-0.3,0c-0.7,0.9,0.4,0.2-0.4,1.3c0.2-0.3,0.4-0.6,0.5-0.6c-0.3,0.7-0.7,1.4-1,2c0.2,0.8,0.2,1.6-0.1,2.4
	c-0.1,0-0.2-0.3-0.2-0.5l-0.2,0.6l0.3,0.6l-0.6,0.8l0.4,0.1c-0.2,0.6-0.7,0.8-0.8,1.3c0,0.4,0,0.8,0,1.1l0.6,14.6l2.2-13.8
	c0.1-0.7,0-0.8,0.1-1.9c0.7,0.1,0.8-2,1.4-2.1c0.2-1.3,0.6-2.6,1.1-3.8l-2.1-0.6c-0.2,0.9-0.4,1.9-0.5,2.8l0.1-0.2
	c0.2,1.1-0.8,1.1-0.8,2.2l0.1-0.3c0.2,1.5-0.5,3.9-0.8,5.2c0.1-0.3,0.4-0.1,0.3,0.3s-0.5-0.4-0.4,0.4c0.1-0.2,0.2,0,0.2,0.2
	l-0.4,0.7v0.4l0.7,8.8l2.5-8.1c0.5-1.8,1.3-3.6,2.3-5.2c0.1-0.4-0.2-0.2-0.3-0.2c0.5-0.8,1.2-1.6,1.8-2.3l-2.5-0.9
	c-0.1,0.5-0.2,1-0.3,1.5l0.4,0.2c-0.1,0.7-0.7,0.4-0.4,1.3c0,0.2,0.1-0.6,0.3-0.8c0.2,1.4-0.5,0.8-0.6,2.1l0.5-0.3
	c0.2,1.1-0.4,1.1-0.7,1.5c-0.7,1.4,0.8,1.1,0.2,3c-0.3,0.3-0.3-0.1-0.6,0.2c0,1.3-0.3,1.5-0.4,2.6l-0.3,5.5l3.3-4.1l0.2-0.3
	c0.1-1.2-0.6,0.6-0.4-0.5l-0.3,0.4l-1.7,2.5l-0.2-3.4v-0.7c0.3,0.9,0.2-0.8,0.6-0.6c0,0.5-0.1,0.9-0.3,1.3l-0.8,2.3l2.2-1.6l0.6-0.4
	c0.2-0.2,0.3-0.3,0.5-0.5c-0.1-0.1-0.3,0.2-0.5,0.3c-0.2,0.2-0.3,0.3-0.3,0l0.4-0.3c-0.2,0.1-0.3,0-0.4,0.2
	c-0.1-0.3,0.3-0.5,0.6-0.9c0.2,0.1,0.4,0.2,0.5,0.5c0-0.1,0-0.1,0-0.2c0.5-0.4,0.8-0.9,1.1-1.5c0.2-0.5,0.4-1,0.8-1.4
	c-0.1,0.1-0.1,0-0.2-0.1c0.2-0.5,0.8-0.9,1.1-1.4c0-0.2-0.2-0.2-0.3-0.3c-0.1-0.1-0.1-0.2,0.2-0.6c0.3,0,0.5,0.6,0.9,0
	C27.1,17.3,26.6,17.7,26.6,17.3z M22.3,14.7L22.1,15l0,0L22.3,14.7z M21.2,16c0.1-0.2,0.2-0.2,0.3-0.1c-0.1,0.3-0.3,0.5-0.4,0.7
	C21.2,16.4,21.4,16,21.2,16z M21.3,11.9C21.3,11.9,21.3,11.9,21.3,11.9c-0.2,0.2-0.3,0.3-0.4,0.4c0-0.1,0-0.2,0.2-0.4
	C21.2,11.9,21.3,11.9,21.3,11.9z"/>
<path class="st0" d="M21.8,11.7C21.8,11.7,21.9,11.7,21.8,11.7c0.1,0,0.1,0,0.1,0.1h-0.2L21.8,11.7z"/>
<path class="st0" d="M13,24.1L13,24.1C13,24.1,13,24.1,13,24.1C13,24.2,13,24.1,13,24.1z"/>
<polygon class="st0" points="16.1,13 16.2,13 16.1,13.2 "/>
<path class="st0" d="M10.9,19.5c0,0-0.1,0.1-0.1,0.1C10.7,19.6,10.8,19.6,10.9,19.5z"/>
<path class="st0" d="M11,17.7l0.6-0.2C11.4,17.6,11.2,17.7,11,17.7z"/>
<path class="st0" d="M14.2,16.9c0,0,0.1,0.1,0.1,0.1l0,0L14.2,16.9z"/>
<path class="st0" d="M14.3,25.6c0,0,0,0.1,0,0.1C14.2,26.1,14.2,25.9,14.3,25.6z"/>
<path class="st0" d="M15.5,29.7c0.1-0.1,0.2-0.3,0.3-0.5C15.8,29.5,15.7,29.7,15.5,29.7z"/>
<path class="st0" d="M22.6,27.5L22.6,27.5l0-0.1L22.6,27.5z"/>
<path class="st0" d="M16,28.4c0,0.3-0.1,0.5-0.2,0.8C15.9,29,15.9,28.7,16,28.4z"/>
<path class="st0" d="M7,14.4l0.2,0c0,0,0,0,0,0.1L7,14.4z"/>
<path class="st0" d="M7.2,14.5l0.2,0.1C7.2,14.6,7.2,14.5,7.2,14.5z"/>
<path class="st0" d="M7.6,14.8l-0.3-0.2C7.4,14.6,7.6,14.7,7.6,14.8z"/>
<path class="st0" d="M8.4,15.9l0,0.1C8.4,16,8.4,15.9,8.4,15.9z"/>
<path class="st0" d="M9.7,16.1c-0.4,0.1-0.9,0.1-1.3,0V16C8.6,16.2,9.5,15.8,9.7,16.1z"/>
<path class="st0" d="M15.7,16.2c-0.4-0.1-0.8-0.2-1.2-0.3c0.2-0.1,0.6-0.1,0.1-0.3C16.2,15.6,14.3,15.7,15.7,16.2z"/>
<path class="st0" d="M14.3,18.7c0.6-0.1,0,0.2,0.1,0.3C13.9,18.9,13.8,18.9,14.3,18.7z"/>
<path class="st0" d="M17.9,19.5h0.3C18.1,20,18.1,19.5,17.9,19.5z"/>
<polygon class="st0" points="34.8,15.2 34.7,14.7 35,14.6 "/>
<polygon class="st0" points="16.9,27.5 17,27.3 16.7,28.1 "/>
<path class="st0" d="M23.8,22.6c-0.1,0.1-0.1,0.2-0.2,0.4c-0.1-0.1-0.2-0.3-0.2-0.5C23.5,22.3,23.6,22.3,23.8,22.6z"/>
<path class="st0" d="M27.2,31.4c0.2,0.3,0.2,0.8,0,1.1C27.1,32.2,27.1,31.8,27.2,31.4z"/>
<polygon class="st0" points="20.4,8.9 20.7,8.6 20.4,9.2 "/>
</svg>
