<svg xmlns="http://www.w3.org/2000/svg" viewBox="0 0 29.87 28.32"><defs><style>.a{fill:"currentColor";}</style></defs><path class="a" d="M8.64,10.29a.12.12,0,0,0,.14-.18l-.28,0Z"/><path class="a" d="M8.77,9.17c-.18-.13-.45-.25-.65-.07.3.09.21.17.56.25.07.13,0,.28-.1.28.08,0,0,.24.21.27a.53.53,0,0,0-.19-.68C8.63,9.14,8.72,9.17,8.77,9.17Z"/><path class="a" d="M11.8,6.12,11.71,6A.41.41,0,0,0,11.8,6.12Z"/><path class="a" d="M19.65,1.59s-.06.07,0,.09S19.68,1.61,19.65,1.59Z"/><path class="a" d="M20.93,1.62l-.07,0S20.91,1.64,20.93,1.62Z"/><path class="a" d="M11.8,6.12a1.7,1.7,0,0,0,.24.22C12.09,6.27,11.92,6.22,11.8,6.12Z"/><path class="a" d="M7.55,7.4a.36.36,0,0,0,.1.11L7.59,7.4Z"/><path class="a" d="M9.07,3.52l0,0A.58.58,0,0,0,9,3.6.3.3,0,0,1,9.07,3.52Z"/><path class="a" d="M8.17,3s-.22-.5-.31-.73A2.13,2.13,0,0,1,8,2.67Z"/><path class="a" d="M8.23,6.49l0,.08Z"/><path class="a" d="M10.25,4.92a.11.11,0,0,0,0,.07A.11.11,0,0,0,10.25,4.92Z"/><path class="a" d="M6.34,13.68l0,0S6.32,13.69,6.34,13.68Z"/><path class="a" d="M2.84,15l0,0a.36.36,0,0,0-.07-.1Z"/><path class="a" d="M21.15,2.21h0v0h0Z"/><path class="a" d="M19.09,15.28c.29.2-.47.25,0,.47C19,15.67,19.45,15.41,19.09,15.28Z"/><path class="a" d="M7.56,7.31a.56.56,0,0,1,0-.12A.24.24,0,0,0,7.56,7.31Z"/><path class="a" d="M19.05,15.75h0l.05,0Z"/><path class="a" d="M18.6,8.28l.12,0S18.67,8.25,18.6,8.28Z"/><path class="a" d="M20.88,3.93,20.8,4Z"/><path class="a" d="M19.87,11.27c.06,0,.07.08.17.1s0,0,0,0A.15.15,0,0,1,19.87,11.27Z"/><path class="a" d="M22.29,12.33a.14.14,0,0,0,0-.06l-.08,0Z"/><path class="a" d="M4.86,12.81a.58.58,0,0,1,.22.08C5,12.79,5.21,12.5,4.86,12.81Z"/><path class="a" d="M7.67,7.37a.11.11,0,0,1-.11-.06l0,.09S7.66,7.39,7.67,7.37Z"/><path class="a" d="M20.69,9.73l.15.08.19.1-.18-.1Z"/><path class="a" d="M11,20.6l0-.09A.1.1,0,0,0,11,20.6Z"/><path class="a" d="M22.22,10.39a.67.67,0,0,0,.16.23.09.09,0,0,0,.07,0Z"/><path class="a" d="M5.08,12.89Z"/><path class="a" d="M6.84,10.7c-.3.26,0,.34.09.52-.31.37-.31,0-.53,0-.17.25-.17.6-.35.73s-.09,0-.09-.09c-.09.38-.7.62-.8,1.07l-.08,0a.8.8,0,0,1,.3.27c-.13.12-.14.35-.31.25.09-.07,0-.13,0-.21L5,13.38c-.31-.1.13-.23,0-.39-.22.31-.41.75-.67.87-.22-.17.45-.49,0-.43l.4-.2c-.53-.11.22-.14-.3-.3-.49.31-.41.52-.9.82,0,.19.18.14.17.34a1,1,0,0,1-.2.23,1.38,1.38,0,0,1-.25.15,1.72,1.72,0,0,1-.48.13,1.9,1.9,0,0,0-.48.14.94.94,0,0,0-.39.4c0,.11.11.19.13.29s0,.2-.45.4a1.26,1.26,0,0,1-.31-.14C.9,16,1,16.07,1,16.14s.1.11-.47.44c-.13,0,.35-.41.17-.31-.43.2-.49.28-.44.31s.2,0,.17.1.05,0,.05,0L0,16.88.19,17l0,0,.09,0,.18.05c.24.07.5.14.74.19l.69.15c.22,0,.44.07.65.12-.12.05-.35.07-.24.2a1.75,1.75,0,0,0,.24,0l.24,0,.47.06.51,0a4.43,4.43,0,0,0,.52,0H6l.27-.29c.08,0,.16.08.09.14.33,0,0-.15.12-.27s.26.08.16.17a3.27,3.27,0,0,1,2-.57l-.09.09c.22,0,.31-.12.42-.24s.2-.22.41-.13l-.07.05H10c.11,0,.22,0,.33,0l.24,0a.29.29,0,0,1,.27.12.28.28,0,0,1,0,.3c.08,0,.11,0,.13,0v.24c0,.22,0,.43.26.44a3.1,3.1,0,0,1-.22.51,2.22,2.22,0,0,0-.17.66c0,.2.3.29.36.54h-.24l.26.34-.28.2.07.24c0-.1.1-.21.17-.2a1,1,0,0,1-.27,1l.23.9c-.09,0-.13-.16-.2-.28.13.24.07.26,0,.28s-.06,0-.07.05a.81.81,0,0,0,.08.35c.05-.12.14,0,.19,0a1.65,1.65,0,0,0,0,.37,1.69,1.69,0,0,0,0,.23,2.11,2.11,0,0,0,0,.25,4.14,4.14,0,0,0,.17,1l-.16.05c0,.14.05.28.07.42l.05.21a.83.83,0,0,0,0,.2c.08.25.16.5.25.73l.27.68c.09.24.18.48.27.74-.1-.51.07-.92.17-.71l-.07.6c.07-.05,0-.18,0-.29s0-.18.11-.18c.11.4,0,.83-.13.76l.2.3c0,.19-.07.16-.11.33,0,0,0,0,0,0a.08.08,0,0,1,0,.05l0,0a.58.58,0,0,1,.15-.11c.11-.06.24-.18.33-.57v.13c.29-.41.51-.76.7-1.08l.15-.24c0-.05,0-.07.07-.13l.08-.18c.1-.23.22-.46.34-.71-.08-.33.13-.63.17-1.09.18-.27.39-.55.62-.89l.18-.27.11-.16a3.79,3.79,0,0,0,.2-.34c.07-.39-.12-.19-.16-.4.19.07.42-.42.42-.1a8.35,8.35,0,0,0,.57-1.56c-.11,0-.19.12-.23,0s.23-.26.31-.2v0c.15-.95,1.49-1.61,1.45-2.45v0c.05-.25.11-.52.15-.76s.05.22.26.09v-.08s0,0,0,0a.08.08,0,0,1,0-.07.12.12,0,0,1,.06-.1.41.41,0,0,1,.19,0A1.5,1.5,0,0,0,19,17a1.46,1.46,0,0,0,1.26.22,3.21,3.21,0,0,1,1.41,0l-.05-.13c.17-.16.23,0,.38.06,0-.1-.22-.1-.11-.18a23.06,23.06,0,0,1,2.44-.37l.62-.08.16,0,.24,0,.56-.13a20.91,20.91,0,0,0,2.22-.64c.53-.19.39-.33.31-.45s-.13-.22.74-.38a1,1,0,0,1,.17.21l.25-.15.13-.07.12-.07c-.47-.26-.88-.51-1.27-.75l-1.13-.72L26.89,13l-.6-.34-.61-.31-.05,0-.05,0-.09,0-.19-.05c.09,0,.13-.09.23,0-.12-.29-.8-.45-.87-.31-.16-.1,0-.15,0-.27s-.66-.07-.69-.29c0,0,.09,0,.13,0-.18,0-.66-.36-.62-.09-.35-.29-.79-.27-1.06-.54-.3.13-.64-.41-.84-.12.09-.16-.06-.3-.27-.39a1.2,1.2,0,0,0-.62-.12c.11-.06-.14-.18,0-.28a.67.67,0,0,0-.27-.07.72.72,0,0,0-.13.15c0-.11,0-.15,0-.17a.73.73,0,0,0-.12,0c-.05,0-.09-.07-.07-.1s.08-.07.22-.05l0,0v0h0v0L20.34,9c.05-.22.11-.43.17-.64.11-.42.23-.82.36-1.22.31.17-.34.85,0,1a6.18,6.18,0,0,1,.48-2c.13-.16.09.17.12.26.19-.78.64-1.37.75-2.09,0,0,0,.1,0,.18,0-.13.18-.27,0-.33v.14c-.3.11-.23-.69-.33-.76.33.4.38-.59.77,0,0-.1,0-.23-.12-.25.08-.11.15-.13.21,0a1.23,1.23,0,0,0,0-.28s0,0,0-.09v-.1A1.31,1.31,0,0,1,23,2.28c.08,0,.07.14.14.23,0-.19,0-.35-.06-.53A6.33,6.33,0,0,0,23,1.35c.05,0,.1-.07.13.09A.83.83,0,0,0,23,1.22a1.49,1.49,0,0,0-.94-.6c-.18-.05-.36-.07-.54-.11L21,.4c.13-.16.07-.19,0-.22s-.26,0-.29-.18a3.5,3.5,0,0,0-.46.14l.2.11a1.31,1.31,0,0,0-.52.2,1.22,1.22,0,0,1-.47.17l.23-.21A5.49,5.49,0,0,0,19,.74a2.76,2.76,0,0,1,.4-.06c-.14.14-.09.22-.07.28s0,.1-.2.16c.07-.07-.3.16-.55.12h0a.78.78,0,0,1-.42.44c-.11,0-.15-.29-.23-.31,0,.29-.59.56-.58.89A.24.24,0,0,0,17.2,2l0,.24c-.16.06-.2.05-.26-.06-.38.27.35.18-.17.42,0,0,0-.05,0-.13-.48.29-.74.78-1.2,1-.3-.14.3-.33,0-.42a10.67,10.67,0,0,1-1.57,1.58l.13-.05c.17.39-.55.15-.72.52.06-.08,0-.26,0-.21a2.11,2.11,0,0,0-.31.21L13,5.28l-.09.09a.67.67,0,0,1-.59.24l.09-.09c-.08-.07-.18-.14-.26-.22L12,5.15,11.88,5c-.14,0-.24-.14-.29,0a1.7,1.7,0,0,0-.82-1.11,3.54,3.54,0,0,1-.52-.42,1,1,0,0,1-.19-.26,1.74,1.74,0,0,1-.2-.41c.09.1.28.18.21.09l-.73-.66c0,.27.05.23.12.51a.44.44,0,0,1-.4-.16c.12,0,.15,0,.11-.18A3.12,3.12,0,0,0,9,1.94c0,.1,0,.14,0,.23-.15-.4-.17-.29-.19-.16s0,.29-.24-.09V1.79c-.14-.08-.22,0-.37-.2-.15-.44.11,0,.06-.3-.11-.11-.18-.05-.25,0s-.13,0-.29-.29c0,0,.18.12.25.11A4,4,0,0,0,7.6.5C7.53.4,7.48.36,7.38.23l0,0c-.22-.37-.21,0-.28.09l.07,0a3.15,3.15,0,0,1,.15,1.18,1.91,1.91,0,0,0,.08.93c-.14-.46-.17-.56-.21-.56s-.06.07-.16-.1c-.07.07-.16.23-.22.09a.73.73,0,0,1,0,.47.94.94,0,0,0,.08.62c-.07,0,0,.34-.19.15,0,.25.07.24.11.18s.07-.15.12-.1A1.53,1.53,0,0,1,7,3.7c0,.18,0,.37,0,.58s0,.23,0,.32a2,2,0,0,0,0,.25,1,1,0,0,0,.21.48,1.82,1.82,0,0,0,.4.57A2.43,2.43,0,0,1,8,6.43c-.08.2-.31-.08-.31-.08a1,1,0,0,0,.2.77c-.08,0-.12,0-.18.14s.31.07.28.38a1.06,1.06,0,0,1-.36-.13c.15.24.36.45.51.68C8.05,8.3,7.91,8.1,7.8,8c.15.28.36.72.59.75V8.57c0,.1-.16.11-.22,0a.24.24,0,0,1,0-.42l.1.17c.37-.32-.3-.71-.38-1.1l.36.06L7.92,7c.06-.11.22-.21.32,0,.08-.31-.18-.21-.06-.48,0,0,0,0,.05,0l-.16-.23c.08,0,.22-.1.21.07.07-.51-.42-.7-.21-.93l0,0c-.23-.64-.25,0-.62-.47L8,4.55l-.25,0c0-.07,0-.19.1-.17-.09-.1-.12-.1-.14-.08s-.05.06-.13,0a.9.9,0,0,0,0-.54c0-.19,0-.34.2-.2-.1-.13-.14-.09-.17-.07s-.05,0-.12-.19c.22.13.2,0,.15-.12s-.14-.4,0-.41c.23.39.1.42.31.47-.19-.31-.17-.42-.1-.44S8,2.82,8,2.67A1,1,0,0,1,7.85,2a2.42,2.42,0,0,1,0-.25v0h0l0,0,0,0,.06,0a4.26,4.26,0,0,0,.32.54A6.09,6.09,0,0,1,8.72,3v.08c0-.46.21-.13.37,0,0,.2-.09.26-.16.3L9,3.49c.05-.08.1-.1.2,0l-.12.18a1.21,1.21,0,0,0,.28.15l0,0,.06.05L9.63,4a1.34,1.34,0,0,1,.2.29c.16-.12.15-.67.6-.37-.07.08-.2.22-.32.15,0,0,.17.06.2.16l-.28,0c.09.22.2,0,.3.13-.12.1,0,.17-.1.24s-.06-.16-.15-.17a.79.79,0,0,1,.17.55.18.18,0,0,1,.27,0c.26.27,0,.22,0,.44.14,0,.22.25.4.1.07.08,0,.17,0,.24a3.12,3.12,0,0,1,.45.35.62.62,0,0,0,.25.12c.06,0,.08,0,.06-.12l0,0,0,0h0l.54.21a1.63,1.63,0,0,0,.58.08,1.74,1.74,0,0,0,1-.47l0,.07c.26-.3.66-.55.78-.85.09-.07.3,0,.31.06.2-.23.17-.32.59-.47-.15.28.15,0-.18.26.34-.18.49-.14.67-.56,0,.24.39,0,.49-.14l-.3,0a2.33,2.33,0,0,1,.44-.35l.09.27c.81-.25.74-1.33,1.52-1.29,0-.27-.4.16-.4-.11.29-.21.8-.13.88-.19s.24-.2.27-.35a.4.4,0,0,1,.29-.36c-.09-.05-.28-.24,0-.49s.52.21.37.34-.1,0-.11,0-.18.17,0,.2v-.1c.18,0,.54-.12.5.05.17-.14,0-.17-.13-.17a1.61,1.61,0,0,0,.47,0,.85.85,0,0,1,.45,0c-.05-.05-.11-.16-.05-.16l.26,0a.16.16,0,0,0,.08-.06.2.2,0,0,1,.24-.12c.05.09,0,.16,0,.21s0,.06.11.07,0,.12-.08.16l-.17.09c.15-.06.18,0,.1.13a.54.54,0,0,1-.12.11H21.1c.06,0,0,0,0,0L21.37,2c-.05,0-.06.07-.14.07h.24c.09,0,.19,0,.25.07s-.07.1-.09.17a.08.08,0,0,1,0,0l0,.06a.17.17,0,0,1-.14,0l.07-.14s0,0,0,0-.05,0-.09,0-.16-.06-.16-.1a0,0,0,0,1,0,0l0,0,0,.07s0,0,0-.08c-.42.4.16.34-.07.84-.1-.12-.29,0-.3.1.09-.2.25,0,.27.23-.25.28-.09.38-.17.55L21,3.76c.1.12,0,.27-.05.51-.11,0,0-.23-.06-.17.12.35-.48.46-.48.88-.16.12-.25-.09-.37,0,0,.47-.36.35-.41.82.23,0,.19-.08.23.28l.18-.73.06.55c.09-.21.08-.48.16-.59.05.27,0,.23.2.19-.38.17-.09.62-.41.87l-.42-.2c-.4.4-.16.95-.55,1.54l.17-.17c.13.16-.15.39-.17.63-.14-.08-.24,0-.37.07.05,0,0,.13,0,.26l0,.1s0,.1,0,.15a.2.2,0,0,0,.09.21,1.88,1.88,0,0,0-.32.41.74.74,0,0,0,.32.82,5.2,5.2,0,0,1,.66.47.27.27,0,0,0-.22.1s-.13.07-.36-.1c.18.21.38.38.44.3a.37.37,0,0,0,.16.12l.24.07c.16,0,.31.06.37.16s.19-.17.37-.08a.08.08,0,0,1,0,.07c0-.07.32,0,.23-.2.32.65,1.42.57,1.67,1.15.37.12.81.28,1.12.42,0,0,0,.07-.09,0,.37.35.47-.26.89.13.13.36-.33,0-.21.15-.18.49.61.25.79.69h-.09l.07.09.05,0H25a.67.67,0,0,1,.4.08l-.09,0a3.16,3.16,0,0,1,1.43.38,1.86,1.86,0,0,0-.7-.06,2,2,0,0,0,.42,0,1.5,1.5,0,0,1,.59.13l-.13.05h-.37a2.45,2.45,0,0,1-.46,0l.06,0,0,0h0l0,0h-.28s0,0,0,0,.06.07,0,.07l-.23-.05c-.07.05,0,.11.06.19s0,.15-.17.21l.14.05c.05.15-.07.14-.17.11s-.18-.06-.23.07L25,14.82l-.09.1a.49.49,0,0,1-.18.16,2.92,2.92,0,0,1-.6.32,1.73,1.73,0,0,1,.39-.37l.23-.17a.31.31,0,0,0,.09-.13l-.09,0-.23.08a.68.68,0,0,0-.34.24c.08-.05.17-.15.26-.12a1.26,1.26,0,0,1-.39.37,1.62,1.62,0,0,1-.56.2c0-.3-.31-.28-.63-.25s-.71.09-.89-.13a6.82,6.82,0,0,1-2.37.12c.32.46-.26,0-.2.49-.21,0-.29,0-.31,0a3.75,3.75,0,0,0-.7-.28c-.13-.06-.06-.09.06-.12s.19,0,.18-.1l-.19,0h-.16a.3.3,0,0,1-.15-.07C18,15.1,18,15,17.68,15c.13.11-.09.22-.4.39l-.24.14.27-.08a2,2,0,0,1,.41,0l-.31.2a5.55,5.55,0,0,1-.65.38.92.92,0,0,0-.29.27.68.68,0,0,0-.13.37,1.18,1.18,0,0,1,0-.27l-.13.34a3.89,3.89,0,0,0-.17.41,1.2,1.2,0,0,0-.09.84c-.08,0-.23,0-.2-.11-.42.69-.45,1.78-1,2.23L14.7,20c0,.15.07.33-.12.45s-.07-.11-.11-.05,0,.45-.15.59l0-.21a1.63,1.63,0,0,0-.35.92c0,.16,0,.31,0,.46a3.46,3.46,0,0,1-.08.4.81.81,0,0,0-.34-.13l-.14,0,0-.06s0,.14-.05.41a6.29,6.29,0,0,1-.22,1v-.26a2.79,2.79,0,0,0,0-.29c0-.16,0-.25,0-.33a.9.9,0,0,1,0-.23.55.55,0,0,1,.06-.27,1.15,1.15,0,0,1-.15.2c-.06.07-.11.12-.13.11s0-.07-.07-.09,0-.07.12-.17v0l.22-.23c0-.05,0-.08,0-.11h-.42c.57-.81-.27-2.14.25-2.63-.11-.2-.12-.45-.24-.65h.22a5.13,5.13,0,0,0-.11-1.61l.18.13a.41.41,0,0,0-.13-.25.79.79,0,0,1-.13-.13.53.53,0,0,0-.14-.12c-.19-.16-.38-.25-.48-.47a1.68,1.68,0,0,0,.2-.34,1.66,1.66,0,0,0-.57-.58,2.11,2.11,0,0,0-.8-.27,3.82,3.82,0,0,0-.68-.05,1.84,1.84,0,0,0-.56.14c0-.05,0-.15.15-.16a5.43,5.43,0,0,0-.81,0c-.27,0-.47.12-.38.34-.05-.3-.74.08-1.07.29l0-.23c-.26.34-.25.41-.66.58-.11,0-.12-.16,0-.13-.36,0-.22.26-.64.23l.12-.17c-.34.05-.3.12-.46.31a.61.61,0,0,1-.41.06.41.41,0,0,1-.32-.19.33.33,0,0,1-.12.2.37.37,0,0,1-.12.07.12.12,0,0,1-.1,0,.16.16,0,0,1,0-.15c-.16-.06-.26,0-.4.08s-.3.12-.32,0,.08-.12.08-.14a2,2,0,0,1,.37,0c0-.11,0-.17,0-.24a1.17,1.17,0,0,1,.14-.3,1.06,1.06,0,0,1-.3.31c-.14.09-.31.15-.32.09l.07-.08,0,0s0,0-.12,0,0-.06,0-.07c.28-.17.07-.11,0-.14a3.18,3.18,0,0,1-.46.15,1.22,1.22,0,0,0-.35.15s.08,0,.15,0h.08l0,0,.24,0c-.25.09-.55.15-.41,0a6.59,6.59,0,0,1-.94.23l.26-.17.12-.07.09,0,.1,0L3.7,16,4,15.86c-.06,0,0-.1,0-.17s0-.18-.15-.34c0-.1.22,0,.31,0s-.05.09,0,.13.09-.15.16-.25l0-.08A.41.41,0,0,0,4.45,15a.25.25,0,0,0,0-.22c.4-.16,0,.35.39,0v.11c1.16-.35.92-1.72,2.24-2.06-.09,0-.13,0-.18,0A13.45,13.45,0,0,0,9,11l-.51-.65a5.13,5.13,0,0,1-1.32.72c-.38.16-.3.33-.42.59l-.21-.15L6.4,12c-.36.51-1.16.13-1.53.87l.17.07c-.23.14-.62.58-.69.41,0,0,0,.18-.1.18l-.09-.1L3.77,14c-.45.23-.23-.44-.83,0-.19.2-.4.76-.27.77s.27-.12.36,0l-.16.2c.19.32.27.73.91.56L4,15l.21.06-.27.22c.26,0,.27-.18.32-.35a.35.35,0,0,0,.26,0l.12-.53c.13.08,0,.33.29.23.06-.25-.34-.14-.15-.42.27,0,.3.15.41-.11.08.06.07.14,0,.23.11-.22.42-.38.4-.6.29,0,.54-.47.73-.17a1.11,1.11,0,0,1,.29-.57c-.05.54.6-.41.79,0,0-.46.67-.69.94-1.12,0,0,0,.12-.06.12A1.48,1.48,0,0,1,8.82,12c-.15-.27.15-.56.22-.84h0L8.4,10.3c-.23,0-.23-.13-.23-.26l1.08,1.39c0,.1,0,.22.08.29a.18.18,0,0,1,0-.19L8.09,9.94c-.05.18-.22.39-.07.45-.3,0-.22.08-.48,0,.22.32-.13.2-.13.51-.39.09-.3-.21-.52.13C6.67,11,6.84,10.7,6.84,10.7ZM2.66,17.49h0l-.24,0Zm1,.11H3.47l-.23,0a.21.21,0,0,1,.22-.13s0,.05,0,.08S3.63,17.56,3.69,17.6ZM4.2,16c.09,0,0,0,0,.06H4l-.06,0Z"/><path class="a" d="M3.54,16.22H3.48l-.07.05.17-.05Z"/><path class="a" d="M11.7,6V6s0,0,0,0Z"/><polygon class="a" points="10.88 19.74 10.94 19.73 10.89 19.67 10.88 19.74"/><path class="a" d="M9,1.94a.34.34,0,0,0-.05-.14Z"/><path class="a" d="M7.38.23,7.24.05s0,0,0,0l0,0,0,0,0,0,0,0s0,0,0,0l0,0Z"/><path class="a" d="M7,1.59a.79.79,0,0,0,.08.16h0Z"/><path class="a" d="M22.27,4.44s0,0,0,0S22.26,4.54,22.27,4.44Z"/><path class="a" d="M18.55,1.24A1.13,1.13,0,0,1,18.7,1C18.58,1.08,18.49,1.13,18.55,1.24Z"/><path class="a" d="M20.66,9.71h0l0,0Z"/><path class="a" d="M19,.86a.47.47,0,0,0-.3.17A1.11,1.11,0,0,0,19,.86Z"/><path class="a" d="M7.91,8.66l0,.07H8Z"/><path class="a" d="M8,8.72l0,.07S8,8.73,8,8.72Z"/><path class="a" d="M8.12,8.93,8,8.79C8,8.84,8.05,8.91,8.12,8.93Z"/><path class="a" d="M7.46,6.77h0Z"/><path class="a" d="M7.3,6.19c0,.15-.08.39,0,.57h.07C7.24,6.7,7.46,6.29,7.3,6.19Z"/><path class="a" d="M7.91,3.87q0,.15,0,.33c.08-.06.19-.09.23,0,.05-.08.07-.1.06-.12l-.07,0C8,4.1,7.91,4.09,7.91,3.87Z"/><path class="a" d="M8,3c0,.22.13.21.18.3C8.14,3.11,8.12,3,8,3Z"/><path class="a" d="M15.11,5.06l.1.18C15.35,5.09,15.16,5.17,15.11,5.06Z"/><polygon class="a" points="16.09 2.96 15.86 2.98 15.91 3.18 16.09 2.96"/><polygon class="a" points="17.95 3.26 17.91 3.34 18.11 3.07 17.95 3.26"/><path class="a" d="M21.79,12.31l.05-.25C21.7,12.05,21.56,12.29,21.79,12.31Z"/><path class="a" d="M25.35,14.72c-.19-.07-.33-.11-.29,0S25.34,14.76,25.35,14.72Z"/><polygon class="a" points="12.92 21.76 13.01 21.91 12.93 21.62 12.92 21.76"/><path class="a" d="M22,12.85c-.12,0-.13.19.13.26l.26-.17Z"/><path class="a" d="M23.49,13.87c.34,0,.73-.18.59-.46-.35.18-.39.06-.79.26-.27,0-.42-.21-.35-.29-.11,0-.37-.18-.55-.08a1.29,1.29,0,0,0,1.16.41C23.63,13.79,23.53,13.83,23.49,13.87Z"/><path class="a" d="M17.27,16.94l0,.16A.5.5,0,0,0,17.27,16.94Z"/><path class="a" d="M14.89,18.46c0,.11,0,.17,0,.18S14.93,18.44,14.89,18.46Z"/><path class="a" d="M16.14,16l-.08.14A.23.23,0,0,0,16.14,16Z"/><path class="a" d="M17.27,16.94c0-.13,0-.26,0-.39S17.23,16.76,17.27,16.94Z"/><path class="a" d="M24.43,14.26a1.14,1.14,0,0,0,.24.05l-.21-.08Z"/><path class="a" d="M20.16,13.72l.17.09a.57.57,0,0,0,.18,0Z"/><path class="a" d="M18.7,13.27a1.81,1.81,0,0,0,.69.26,1.37,1.37,0,0,1-.48-.27A.5.5,0,0,0,18.7,13.27Z"/><path class="a" d="M23.74,12.91l.15,0Z"/><path class="a" d="M17.81,15.91l-.09,0A.1.1,0,0,0,17.81,15.91Z"/><path class="a" d="M11.31,6.46s0,0,0,0S11.29,6.49,11.31,6.46Z"/><path class="a" d="M8.77,2.93l0,.08h.12Z"/><path class="a" d="M15.17,14.15v0C15.2,14,15.18,14.07,15.17,14.15Z"/><path class="a" d="M10.81,13.44c-.54.15.56-.71-.22-.42C10.7,13,10.2,13.72,10.81,13.44Z"/><path class="a" d="M24.32,14.17l-.19-.1Z"/><path class="a" d="M10.59,13h0l-.08,0Z"/><path class="a" d="M14.42,12.25a2.84,2.84,0,0,0-.09.42A2.42,2.42,0,0,0,14.42,12.25Z"/><path class="a" d="M14.87,16l0,0S14.85,16,14.87,16Z"/><path class="a" d="M12,15.9a.66.66,0,0,0,.06-.31l0,.05A.36.36,0,0,1,12,15.9Z"/><path class="a" d="M9.85,12.71H10l.21-.09Z"/><path class="a" d="M11.19,12.41a.59.59,0,0,1,.2-.25C11.24,12.24,11.18,11.44,11.19,12.41Z"/><path class="a" d="M24.49,14.15a.2.2,0,0,1-.17,0l.14.06S24.51,14.18,24.49,14.15Z"/><path class="a" d="M10.26,15.47l.14-.74C10.35,14.93,10.3,15.2,10.26,15.47Z"/><path class="a" d="M20,7.36l0,.18A.39.39,0,0,0,20,7.36Z"/><path class="a" d="M10.38,14.38c0-.12.06-.17,0-.19a.28.28,0,0,0-.05.08A.34.34,0,0,1,10.38,14.38Z"/><path class="a" d="M11.39,12.15h0Z"/><path class="a" d="M11.43,7.34c0,.55.29.26.46.38a1.27,1.27,0,0,1,0,.38c0,.07-.06.1-.1.1s-.2,0-.28.09a6.28,6.28,0,0,1,.13,1.3s-.09.09-.13,0a4.11,4.11,0,0,1-.07,1.17,2.73,2.73,0,0,0,.05,1.31s-.05.08-.08.09a.47.47,0,0,1,.4-.1c0,.34.21.61,0,.76,0-.21-.09-.22-.16-.32l.11.36c-.1.18-.16.06-.18-.11s-.05-.38-.15-.38c0,.17.07.34.11.51l.18.5L12.28,15l.42-1.48a3.18,3.18,0,0,1,.37-.94c.29,0-.43,1.1.08.6l-.28.42-1.2,1.82-.12-2,0-.32c-.29.77-.06-.57-.39.16l0,.25.42,3.32,1.64-3.08c.4-.75.32-1,.8-1.8,0-.27-.23,0-.26-.3.39-1.42,1.1-.73,1.25-1.85,0-.33-.3-.57.2-1.18l.16.37c.46-.88-.15-.7.49-1.54,0,.21-.25.74-.15.62.51-.5,0-.5.28-1l.29,0q.21-.5.42-1.05l-1.64-.31a11.45,11.45,0,0,1,.22,2.16c-.07-.06-.15-.26-.24,0a15.12,15.12,0,0,1-.58,4.15l-1.25,5.19,3.24-4.52.17-.25.07-.6c.07-.11.21-.16.18,0,.35-.46-.11-.1-.06-.38s.32-.31.28-.1c.15-.48.38-1.16.65-1.83a8.52,8.52,0,0,1,.89-1.74l0,.21c.41-.71-.07-1,.41-1.64l0,.15a20.85,20.85,0,0,0,.78-2L18.46,4.2A12.58,12.58,0,0,1,17.71,7c.27.32-.48,1.67,0,1.87-.31.69-.4.71-.6,1.22l-3.2,8.28,5-7.73c.1-.16.24-.39.41-.72s-.05-.64.07-1.09l.23.07c0-.23,0-.46,0-.69L19.92,8,20,7.54c-.07.16-.23.32-.28.27a2.94,2.94,0,0,1,.79-1.54c.08-.55.16-1.09.22-1.64.08.06.05.33.06.56,0-.91.29-.1.25-.93-.08.09-.13-.09-.17-.12a4.38,4.38,0,0,0,.43-1.55l-1.9-.43c0,.13-.05.25-.07.37l-.13-.17c-.35,1.12-.6,2.39-1,3.63.22-.42.46-.23.37.15l-.3.06c.07.29.23-.35.24.2-.19.46-.38.22-.37-.08L18,6.91c-.09,0-.08-.13-.16-.2.07.29-.59.87-.46,1.3h-.08c-.48,1.22-.63,1.8-1,2.78.2.11,0,.47,0,.84-.4.68-.93,1.39-1.35,2.24-.21.64.07.26.05.59-.09,0-.24.15-.35.28l1.5.45c.06-.2.11-.35.16-.08a25.06,25.06,0,0,0,0-2.94c-.09.15-.14.32-.2.23,0-.27.13-.6.23-.55v.07c0-.12,0-.25,0-.38s0-.17,0-.27l0-.3c0-.4.08-.82.15-1.28l.48-3c-.46.27-.94.58-1.41.92a9.39,9.39,0,0,0-1.3,1.07l.1-.1-.91.79-.22.19-.1.09-.06.06-.25.25c-.52.33.22-.35-.23-.18-1,1.13-1.9,1.31-2.75,2.19a2.67,2.67,0,0,0-1.21.55l1.71.67a2.24,2.24,0,0,1,0-.73,4.82,4.82,0,0,1,.31-1l-1.87-.91a3.35,3.35,0,0,1-.54.66h.16c0,.35-.27.29-.42.48.11,0,.29-.24.25,0A50.15,50.15,0,0,1,4.8,17l2,1c.3-.61.61-1.2.92-1.78a1,1,0,0,0,.09-.87c0-.21,0-.45.41-.92l.05.43a9.48,9.48,0,0,1,.82-1.66l1.78-2.91-3,1.47A9.42,9.42,0,0,0,6,13,6.28,6.28,0,0,0,4.52,14.7L2.87,17.52,5.64,16.1,6,15.9c-.09.1-.06.17-.25.25.47,0,1.48-.59,1.43-.74.3-.1.12.1.33.1.45-.06.92-.63,1.2-.54,0,0-.09.1-.16.15.23-.19,1.23-.47.9-.57a3.35,3.35,0,0,0,.53-.19l.12,0,0,0,.06,0c.08-.05.2-.12.23-.06s.12-.15.17-.16.09.05.08.1,0,.17.16.08a.93.93,0,0,0-.23.19.37.37,0,0,0-.08.15,4.75,4.75,0,0,0,0,.81c-.08-.18-.17.4-.29.19a2,2,0,0,0,0,.95l1.67.78s0-.05-.07-.08c.13,0,.18,0,.22,0a1.62,1.62,0,0,0,.11-.25.91.91,0,0,1,.15-.24s.06,0,0,.31l.18-.33c.07,0,.14.09.19.28s.05.21.07.34l0,.1v.06l0,.21,0,.84c-.08.05-.13-.13-.17-.44,0-.15,0-.33,0-.52v-.1h0v-.07c0-.13,0-.25-.21-.08a.4.4,0,0,1,.13.15l.2,1.63c.05.51.1,1,.14,1.48s0,1.06.06,1.78v0s0,0,0,0h0s0,0,0,0,0,0,0,0l0,.13,0,.08,0,.05v0h0c0-.09-.09-.32-.12-.37l0,.49V23s0,0,0,0l0-.05.1-.2.41-.72.72-1.27c.24-.41.47-.81.69-1.24a12.37,12.37,0,0,0,.64-1.37,1.78,1.78,0,0,1-.16.51c.17-.34.43-.71.34-.91l-.14.39c-.17.08,0-.46.08-1a5.18,5.18,0,0,0,.2-1.06c0,.22.07.27.15.2a1.77,1.77,0,0,0,.25-.38,1.08,1.08,0,0,1,.26-.35c.08,0,.16,0,.17.34a2.16,2.16,0,0,0,.09-.39c0-.12,0-.16-.08-.17.12-.21.2-.26.22,0,.25-.86,0-.63.26-1.38.07,0,0,.19.1.3A3.36,3.36,0,0,1,17.33,13l-1-.42-.1.17c0-.06-.11,0,0-.2A27.82,27.82,0,0,1,15,15.56c-.16-.48-.28.35-.57.3-.07.23-.13.46-.18.68l.23-.2c-.24.56-.22,1.14-.48,1.6,0-.15,0-.31,0-.47-.11.37-.21.74-.31,1.11L14,18c0,.63.37.05.06.79,0-.16-.17.57-.41.84h0a3.27,3.27,0,0,1,0,.7l.36.09a1.53,1.53,0,0,1,.14-.34c.12-.08.28.19.36.14-.15-.35.36-1.35.23-1.78,0,.14.16.19.21.16l-.12-.29c.15-.24.19-.27.3-.19.3-.77-.44.13,0-.75,0,.08,0,.06,0,.22.4-.91.51-1.85.92-2.67.37-.14-.21.77.13.57.36-1.11.57-2.37,1-3.44l-.77-.1a2.3,2.3,0,0,1,0,.37c0-.08,0-.15,0-.22.21.06.18.3.09.58a2,2,0,0,0-.16.93c0-.16-.21-.22-.16-.18a6.64,6.64,0,0,0-.11,1.39,6.46,6.46,0,0,0,.28,1.82l-.14-.15a2.57,2.57,0,0,0,.22,1,3.36,3.36,0,0,0,.59.93l.43.49.41-.57.06-.09c0-.2.18-.49-.05-.39a3.23,3.23,0,0,0,1-2l0-.27,0-.13V15a5.32,5.32,0,0,1,0-.72c0-.12.1,0,.18.06a2.61,2.61,0,0,1,.25.23c-.11-.06-.17,0-.1,0l.65.22a.28.28,0,0,0-.07-.19c0-.05-.09-.09-.19-.22.1-.07.43,0,.72.15-.29-.08-.29,0-.24.11a.25.25,0,0,0,.05.08l.08.1.16.18c0-.07.09-.09.1-.15.45.6.27-.27,1,.34l-.09.06c.2.07.41.11.62.17l.07-.13a2.16,2.16,0,0,1-.35-.21c0-.26.36.12.47,0-.42-.26-1.09-.27-1.25-.67l.31.17.15.08.07,0,.08,0,0-.09,0-.06,0-.1-.07-.13-.18-.18v0a1.6,1.6,0,0,1-.24-.36.28.28,0,0,0,0,.09,2.44,2.44,0,0,1-.68-.24,2.32,2.32,0,0,1-.4-.31,3,3,0,0,0-.36-.34,7,7,0,0,0-.75-.55,7.51,7.51,0,0,0,.7.43.43.43,0,0,0,.2.08c.06,0,0-.06.37.08.08,0,.18-.08.41.05-.31-.19-.3-.22-.27-.25s0,0,0-.06l-.1-.09-.09-.07,0,0,0,0L20,12.54a4.28,4.28,0,0,1,.79.4s-.08-.1-.24-.18A3.8,3.8,0,0,1,20,12.5c-.08-.1,0-.1.21-.05a5.86,5.86,0,0,1,.63.25,5.17,5.17,0,0,0,.53.21.44.44,0,0,0,.36,0c.25,0,.44,0,.69,0h.2l.24,0,.6.13c.12.13,0,.16-.09.17a1.16,1.16,0,0,1-.27,0,4,4,0,0,0,1.25.61c-.11,0-.05.11,0,.25.35.17.36-.12.75.23a1.49,1.49,0,0,1-.48.08c.31.11.63.2,1,.32l.23-.72-.39,0c-.1-.13.22-.17.4-.23l-.35,1.07h-.07l.06,0,.36-1.1c-.52,0-1.29,0-1.48.14l.32.13c-.19,0-.06-.2.08-.21.47-.1.63.15.65.23H25.1a.75.75,0,0,0,.73.24l0,.11c-.39-.17-.9-.28-1.23-.47l.41-.15-.75-.1c-.1-.14-.11-.35.22-.24C24.08,13,24,13.3,23.7,13c0,0,0,0,0,0l-.49-.11c.12,0,0-.25.28-.08a2.15,2.15,0,0,0-.54-.28,3.18,3.18,0,0,0-.53-.14,1.44,1.44,0,0,1-.77-.3h.08a2.16,2.16,0,0,0-.58-.09c-.06,0,0,.05,0,.11s.14.23-.09.32a9.4,9.4,0,0,0-1.29-1l.18.28a1.46,1.46,0,0,1-.52-.24c-.13.05-.06.09,0,.13s.19.09.17.16A2.91,2.91,0,0,0,19,11.5c-.19-.05-.37-.08-.54-.11A3.69,3.69,0,0,1,17.32,11l-.1,0a.68.68,0,0,0,.3.16c.23.09.45.13.3.18h0c-.41-.19-.24,0,0,.25s.57.53.58.67c-.53-.31-.69-.69-.66-.36a1.78,1.78,0,0,1,.73.7,1.68,1.68,0,0,0,.43.64,2,2,0,0,1,.8.55,8.55,8.55,0,0,0,1.08.89c-.05,0,.09.15.35.38l.39.33c.13.12.28.23.42.34l.42-.74-.63-.41,0,0c-.13.1-.35,0-.6-.05a3.33,3.33,0,0,1-.4-.16l-.2-.09-.23-.1c.07-.15.26-.13.54-.08l-.56-.28a1.72,1.72,0,0,1-.76-.19,1.15,1.15,0,0,1,.14-.17c-.27-.13-.53-.24-.78-.34L18.56,13l-.18-.07-.05,0s0,0,0,0l0,0a5.88,5.88,0,0,1-.06,1.45c.1.1.24,0,.38,0s.24.24.25.66a.34.34,0,0,1-.29-.37,1.09,1.09,0,0,1,0,.5l-.12-.5c-.06.22,0,.31,0,.37a.35.35,0,0,1,0,.29c-.15,0-.16.2-.27.13a.58.58,0,0,1,.06-.17.48.48,0,0,0,0-.27,1.9,1.9,0,0,1-.2.56,1,1,0,0,1-.24.3c.09,0,.2.06.14.3-.21.61-.25.15-.46.45,0,.19-.24.49,0,.61-.09.16-.2.14-.29.17a1.27,1.27,0,0,1-.11.27l.87-.08a2.44,2.44,0,0,1-.4-.46c-.1-.14-.18-.21-.21-.05l0,.08,0,0h0a1.75,1.75,0,0,1-.32-.75,3.42,3.42,0,0,1,0-.85c0-.56.18-1.13.2-1.7h.08c0-.33,0-.7,0-1.06a2.79,2.79,0,0,0-.15-.93l-.3-.73-.11.67s0,.06,0,.08c-.07.19-.3.39-.36.28a3.11,3.11,0,0,1-.46,1.25c.06-.54-.18.12.1-.54a2.91,2.91,0,0,0-.54,1.46c-.1-.3-.41.4-.46.72l.3-.4a9.27,9.27,0,0,1-.35.94l-.19-.25c-.77,1.21-.32,2.54-1.15,3.37.06.41.36-.67.46-.29a10.06,10.06,0,0,1-.85,1.3,1.19,1.19,0,0,0-.14.36l1.71.44c0-.47-.27-.64,0-1.32-.11.08-.39.13-.29-.55s.61-.61.56-.21c0,.14-.09.2-.12.18,0,.2-.06.46.11.26l-.07-.1c.17-.27.45-1.07.53-.83.07-.47-.08-.24-.24.07.39-.7.43-1.16.84-1.88-.1.1-.25.17-.19.05.59-1.06.05-.56.35-1.33.33-.37.24.29.49-.51.31-.42.27,0,.25.23a3.27,3.27,0,0,1,.78-1.36l-1.94-.79c-.05.09-.1.18-.13.25l0-.28,2.12.86,0,.11,0-.11-2.13-.86a2.18,2.18,0,0,1-.14.49l.25-.15c-.1.21-.17.39-.24.36,0,.27.35-.07.35.43-.19.26-.23.93-.5.94.42-.88-.27,0,0-.77a1.42,1.42,0,0,1-.21.54s0,0,0-.11a1.12,1.12,0,0,0-.22.42c0,.09,0,.17,0,.19a.27.27,0,0,1,.1.13.31.31,0,0,1,0,.21.41.41,0,0,0-.14-.15s-.06,0-.06,0,.18.18.17.48c-.09.06-.1.14-.12.25a1.06,1.06,0,0,1-.06.31l.09-.08a2,2,0,0,1-.21.83c0-.24.11-.4.07-.42-.06.41-.15.44-.21.38s-.06-.07-.09-.07-.07.07-.13.29a3,3,0,0,1,.07-.55c0-.22.07-.43.07-.52-.11.43-.12.32-.09.14s.05-.09.06-.05a1.08,1.08,0,0,1,0,.41,3.61,3.61,0,0,0-.16.42,5,5,0,0,1-.16.54,2.26,2.26,0,0,0,.07-.28l0-.19s0-.07,0-.11l.05-.12c0,.11-.07.23-.11.35l-.06.3a3.74,3.74,0,0,1-.14.46s0,0,.06-.13a.51.51,0,0,1,0-.11l0-.12c0-.06,0-.1.06-.09a4.61,4.61,0,0,0-.28,1.14.48.48,0,0,0,0-.18s0,0,0,0v-.09s0,0,0,.05-.05.06-.06,0a.63.63,0,0,1,0-.3l.46-.89c.06,0,.07.09.06.2l0,.15,0,.07h0v-.24c0-.37-.08-.73-.1-1.12a11.38,11.38,0,0,1,0-1.31l-.08.7c-.09,0-.1-.29-.09-.61a5.6,5.6,0,0,0,0-.93,4.92,4.92,0,0,0,.31-1.24c-.06.15-.06-.22-.08-.56a4.85,4.85,0,0,0-.75,1.17,3.42,3.42,0,0,0-.44.18,6.33,6.33,0,0,0-.65.77A7.36,7.36,0,0,0,12,15c-.13.23-.24.44-.37.64a3.68,3.68,0,0,1-.49.62c.07-.2,0-.23,0-.29s0-.16.3-.6c-.34.37-.67.69-.59.77l-.1.08,1.22.57c.06-.25-.09-.86.08-1.1-.05-.15-.2-.21-.14-.56a0,0,0,0,1,.07,0s0-.15-.06-.26-.06-.2-.17,0A3.49,3.49,0,0,0,12,13.71a2.33,2.33,0,0,0,0-.58.91.91,0,0,0-.15-.5.46.46,0,0,0-.23-.18.71.71,0,0,0-.25,0l-.49.08-.51.12a2,2,0,0,1-.47.06l-.35.17-.15.07L9.34,13l-.51.24-1,.44c0-.06,0-.08.09-.11-.86.2-.33.62-1.31.84-.56,0,.44-.32.11-.29-.31-.41-1,.44-1.73.48l.81,1,.07,0,0,.07L5,14.56l.07,0H5l.91,1.14A2.37,2.37,0,0,0,6.36,15,2.48,2.48,0,0,1,7,14.22s0,0,0,.06A3.44,3.44,0,0,1,8.41,13l-.36-.41L7.84,13c0-.32.1-.37-.15-.35-.17.33.33.08,0,.73-.21.14-.55.55-.78.51.11-.21.22-.41.34-.61-.43.17-.44.78-.65,1.08l-.09-.1a3.41,3.41,0,0,0-.32,1,4.2,4.2,0,0,1-.36,1.09L6,16.31c0,.68-.37.4-.4,1.06l-.31.05-2.93.47,3.93,0h0a21.21,21.21,0,0,1,.79-2,9,9,0,0,1-.5,1.76,4.4,4.4,0,0,0,.65-1.42,1.12,1.12,0,0,1-.21.47,4.28,4.28,0,0,1,.68-1.83C8.15,15.32,8.9,13.2,9.6,13a8.51,8.51,0,0,1,.81-1.48L9,10.77c-.15.36-.33.74-.47,1.19a3.3,3.3,0,0,0-.11,1.62L8.68,15l1.17-.85.26-.19c-.74-.05.38-.29,0-.62.29-.25.41-.33.46-.32l1.1-.45c.3,0-.23.3-.14.37.7-.46.4,0,.92-.26-.19-.07.1-.37.52-.59l-.67.21c.79-.89,1-.26,1.85-1.15l-.21.34.2-.18.13-.1v0l.08-.1.44-.69a1.49,1.49,0,0,1-.21.42l.07,0a.16.16,0,0,0,.06.12,1,1,0,0,1,.09.22,1.48,1.48,0,0,1,0,.55,4.9,4.9,0,0,1-.14.84l-.11-.12c0,.28.18.49,0,.81,0,0-.1-.11-.12,0a3,3,0,0,1,.05,1.08L14.45,14A4.63,4.63,0,0,0,14.36,15l.13,4.79,1.69-4.25c.3-.76.37-1.43.68-2.22.31.16.91-.81,1.18-1.3l0,0a21.32,21.32,0,0,0,1.27-4.19,6.5,6.5,0,0,0,.94-2c.3-.83.57-1.74.88-2.45-.12.2-.25-.11-.21-.39a1.54,1.54,0,0,0,.1-.51l-1.43-.32c0,.25,0,.45-.19.38l0-.12c-.35.2-.41.9-.55,1.44l.39.18a7,7,0,0,0-.86,2.42,3.56,3.56,0,0,1-.79,1.89c0,.36-.19.76-.23,1.12l-.2-.1-.18.37,1.94.6a20.67,20.67,0,0,0,.45-2.25l.1.27c.15-.67-.46-1-.35-1.61l.36-.12c.14-.75.4-1.49.55-2.23L18.2,4a5.5,5.5,0,0,0-.32,1.27s-.12-.1-.06-.28c-.2.52-1,1.91-.52,1.9-.27-.1-.51,1.11-.68,1.75l-.15-.19a2.4,2.4,0,0,1-.19,1.38c-.11.15-.23.06-.07-.13-.38.49,0,.52-.48,1.11V10.5a1.24,1.24,0,0,0-.24.91,2,2,0,0,1-.34.58l.78.26c.08-.28.2-.53.32-.56a.94.94,0,0,1-.13-.82c.08,0,.11.09.13.16.27-1-.08-1.58.18-2.29a.16.16,0,0,0,.14-.12,11.42,11.42,0,0,1-.16,1.46c.2,0,.31-.66.53-.09a7.44,7.44,0,0,1-.23-2.2.27.27,0,0,1,.07-.08l0,.07a1,1,0,0,0,0-.43,2.83,2.83,0,0,0,.06-.57c.17-.08.08-.81.06-1.16h0l-1.84-.35c.18.08,0,.43.31.15l1.18.23-1.18-.23h0l1.18.23h0l-1.18-.23h0l.32-1.6.88,1.83a1.34,1.34,0,0,1,0,.3s0,.11,0,.14l0,0c0,.23,0,.53,0,.86A1.38,1.38,0,0,1,16.53,6l-.3-.32-.58-.54v.43c0,.07,0,.12,0,.15-.48.28-1,1-1.24,1-.33,1-1,2.2-.89,3-.08.28-.25.25-.36.32a2.24,2.24,0,0,0,.12-.46c-.16.57-.72,1.57-.52,1.82-.44.6-.06-.49-.46.44l0-.16a4.42,4.42,0,0,0-.71,1.28l1.38.16a5.28,5.28,0,0,1-.38-1.62,4.28,4.28,0,0,1,.44-2c-.06.15-.09.22-.14.24a7.11,7.11,0,0,0,.31-1.88,4.47,4.47,0,0,0-.42-2l-.47-.92L12,5.79a22,22,0,0,1-1.46,3.36l1,.4.14-.28a1.46,1.46,0,0,0,.14-.79c0-.19-.1-.34-.17-.57l.23-.17A4.25,4.25,0,0,0,11.45,7c-.23-.53-.27-1-.5-1.59l-.24-.6-.58.65a2.89,2.89,0,0,0-.76,1.41l.22-.07a6.22,6.22,0,0,0-.31.59l.64.12c-.06-.41-.12-.8,0-.77a.29.29,0,0,1-.13-.33l.12,0C9.78,6,9.64,5.6,9.5,5.23s.09-.45.2-.48.2-.13.07-.79c-.15-.48-.69-1.29-.72-1.09s0,.51-.07.56L8.81,3C8.43,3,8,2.8,8,3.89l.39.68-.13.27-.14-.61a.9.9,0,0,0,.25.8.5.5,0,0,0-.13.34L8.71,6c-.12.11-.33-.28-.33.22.21.31.27-.38.46.17-.11.38-.26.29-.07.68-.08.07-.15,0-.21-.16a5,5,0,0,1,.18.67l.62,2.74,1-2.44a.85.85,0,0,0,.1-.5c.36-.24.56-1.17.85-1a1.46,1.46,0,0,1,0-.38l-1.45.09a1.09,1.09,0,0,1,.38.39c-.3-.14-.17.09-.09.37s.13.63-.1.59a.8.8,0,0,1,.26.64,3.76,3.76,0,0,1-.14.88l1.64.66a5,5,0,0,0,.12-.49c0,.06,0,.17,0,.23a3.69,3.69,0,0,1,.54-.77c-.26-.17,0-.88-.08-1.32.49-.43.2.46.53.4-.24-.07.15-1-.12-.92.34-.34.23-.32.55-.44l-.06,0-1.81,0c.13,0,.17,0,.2.15a.61.61,0,0,0,.19.32.46.46,0,0,1-.09.26.3.3,0,0,1-.09.1c-.05,0,0,.07,0,.36C11.58,7.82,11.43,7.34,11.43,7.34Zm3.93.58h0v0Zm-.09,1.37c0-.16,0-.37.06-.59.07,0,.15,0,.14.15C15.42,8.77,15.35,9.09,15.27,9.29ZM16.9,6.34c0,.24,0,.32,0,.35a2.33,2.33,0,0,0,0-.41s0,0,0,0A.48.48,0,0,1,16.9,6.34Z"/><path class="a" d="M16.59,5.94a.44.44,0,0,0,0-.1,1,1,0,0,0,0,.14l.07.08Z"/><path class="a" d="M17.31,17.12v0S17.31,17.14,17.31,17.12Z"/><polygon class="a" points="19.61 8.92 19.56 8.9 19.56 9.04 19.61 8.92"/><path class="a" d="M20.53,15a.21.21,0,0,0,.07.09A.3.3,0,0,0,20.53,15Z"/><path class="a" d="M21.34,14.2a1.51,1.51,0,0,1-.12-.2A.45.45,0,0,0,21.34,14.2Z"/><path class="a" d="M20.45,13.21l-.27-.11h0Z"/><path class="a" d="M15.24,18.62a1,1,0,0,1-.07.15C15,19.16,15.13,18.92,15.24,18.62Z"/><path class="a" d="M13.69,19.63c0-.14,0-.27,0-.41C13.62,19.43,13.57,19.6,13.69,19.63Z"/><path class="a" d="M10.25,15.55h0v0Z"/><path class="a" d="M13.85,18.66a1.41,1.41,0,0,0-.16.56A2.58,2.58,0,0,0,13.85,18.66Z"/><path class="a" d="M24.9,13.5l-.12,0a.05.05,0,0,1,0,0Z"/><path class="a" d="M24.76,13.51h-.13C24.69,13.52,24.74,13.53,24.76,13.51Z"/><path class="a" d="M24.35,13.52h.28A.38.38,0,0,0,24.35,13.52Z"/><path class="a" d="M23.51,13.7l-.07.06A.19.19,0,0,0,23.51,13.7Z"/><path class="a" d="M22.58,13.31a4.44,4.44,0,0,0,.8.49l.06,0C23.25,13.8,22.84,13.27,22.58,13.31Z"/><path class="a" d="M17.91,11l1.1.26c-.3-.14-.75-.34-.3-.27-.44-.15-.63-.2-.68-.21s0,0,.14.1S18.6,11.16,17.91,11Z"/><path class="a" d="M18.21,12.54c-.44-.45-.23-.07-.33-.12C18.26,12.75,18.34,12.81,18.21,12.54Z"/><path class="a" d="M16.17,12.33,16,12.21C15.89,12.56,16.07,12.25,16.17,12.33Z"/><polygon class="a" points="15.84 16.18 16.07 15.89 15.96 15.67 15.84 16.18"/><polygon class="a" points="13.77 17.78 13.79 17.63 13.67 18.22 13.77 17.78"/><path class="a" d="M11.07,12.05a2.51,2.51,0,0,1,0,.27.46.46,0,0,0,.29-.21C11.43,12.05,11.36,12,11.07,12.05Z"/><path class="a" d="M5.76,16.2a.87.87,0,0,0-.4.71C5.5,16.62,5.72,16.36,5.76,16.2Z"/><polygon class="a" points="18.84 4.76 18.83 4.47 18.76 4.99 18.84 4.76"/></svg>
