<svg id="Layer_1" data-name="Layer 1" xmlns="http://www.w3.org/2000/svg" viewBox="0 0 302.86 278.2"><defs><style>.cls-1,.cls-2{fill:#fff;}.cls-1{fill-rule:evenodd;}</style></defs><path class="cls-1" d="M171.4,228a96.1,96.1,0,0,1-94.53-33.29l32.81-45.81a5.2,5.2,0,0,1,8.54.13Z"/><path class="cls-1" d="M247.32,134.06a95.51,95.51,0,0,1-8.87,40.35l-25.67-40a12.89,12.89,0,0,0-21.32-.55l-7.11,9.92c-28.7-22-54.53-4.31-54.53-4.31l-5-6a12.88,12.88,0,0,0-20.5.82l-34.88,50A96,96,0,0,1,121.53,42.77a105.53,105.53,0,0,1,59.43,0l.23.07A96,96,0,0,1,247.32,134.06Z"/><path class="cls-1" d="M154.4,182.9,136,153.73s6.14-8.33,19.3-8.33a24,24,0,0,1,19.53,10.09Z"/><path class="cls-1" d="M229.55,189.72a96.19,96.19,0,0,1-46,34.78l-20.19-30.19,32.15-44.66a5.19,5.19,0,0,1,8.6.24Z"/><path class="cls-2" d="M196.48,26.18,190.66,24l-1.74,4.66-.86-.32,3.7-9.94.87.32L191,23.19l5.82,2.17,1.66-4.46.87.32-3.71,9.94-.86-.32Z"/><path class="cls-2" d="M201.7,25.44l.8.37-3.31,7.1-.8-.37Zm1.68-2.55a.76.76,0,0,1,.39,1.05.77.77,0,0,1-1.07.39.8.8,0,1,1,.68-1.44Z"/><path class="cls-2" d="M207,24.24l.78.4-5.08,10-.78-.4Z"/><path class="cls-2" d="M210.81,26.25l.76.43-5.43,9.8-.77-.42Z"/><path class="cls-2" d="M209.48,35.62l.73.46c-.51,1-.13,2,1.14,2.79s2.16.73,2.62,0,.07-1.51-1.19-2.64c-1.55-1.38-1.94-2.49-1.31-3.5s2.11-1.22,3.66-.25,2.09,2.35,1.4,3.69l-.75-.47c.47-.92.09-1.83-1.07-2.55s-2.05-.66-2.5.06-.08,1.36,1.22,2.57c1.48,1.37,1.89,2.56,1.26,3.57s-2.17,1.21-3.78.2S208.7,37,209.48,35.62Z"/><path class="cls-2" d="M220.12,36l.72.51-4.51,6.41-.72-.51Zm2.1-2.21a.8.8,0,1,1-.92,1.3.8.8,0,1,1,.92-1.3Z"/><path class="cls-2" d="M220.68,41.13a4.05,4.05,0,0,1,7.24,2.68l3-3.76.69.55-7,8.73-.56-.46.88-1.27a3.85,3.85,0,0,1-3.7-.74A3.92,3.92,0,0,1,220.68,41.13Zm1.16,5.14a3.27,3.27,0,1,0-.47-4.59A3.1,3.1,0,0,0,221.84,46.27Z"/><path class="cls-2" d="M229,48a3.88,3.88,0,0,1,5.75-.17c1.78,1.72,1.66,4.13-.23,6l-5.12-5a3.16,3.16,0,0,0,3.34,5.05l.69.7a3.93,3.93,0,0,1-4.41-.89A3.87,3.87,0,0,1,229,48Zm5.44,4.67a3.15,3.15,0,0,0-4.51-4.35Z"/><path class="cls-2" d="M237.9,58.07l.58.7c-1.15,1.07-1.08,2.59.08,4s2.39,1.69,3.34.91.81-1.78-.18-3.73c-1.19-2.4-1.21-3.82,0-4.82s3.06-.72,4.49,1,1.47,3.66-.07,5l-.57-.7c1.11-1,1.08-2.38,0-3.75s-2.32-1.61-3.22-.87-.83,1.7.2,3.74c1.22,2.46,1.15,3.86,0,4.82-1.37,1.12-3.16.71-4.62-1.07S236.36,59.43,237.9,58.07Z"/><path class="cls-2" d="M244.71,65.29a3.89,3.89,0,0,1,5.65,1,3.84,3.84,0,0,1-.13,4.76l-.51-.74a3.08,3.08,0,0,0-.06-3.54,3.27,3.27,0,1,0-2,5l.52.76a4,4,0,0,1-3.51-7.21Z"/><path class="cls-2" d="M256.84,70.38l.44.76-4.18,2.37A3.27,3.27,0,0,1,256,75.27c1,1.76.39,3.54-1.57,4.65l-3.8,2.16-.43-.77,3.73-2.11c1.57-.89,2-2.26,1.27-3.62a2.82,2.82,0,0,0-4.09-.92l-3.54,2-.44-.76Z"/><path class="cls-2" d="M255.1,82.25a4.11,4.11,0,1,1-2,5.46A3.95,3.95,0,0,1,255.1,82.25Zm-1.26,5.11a3.27,3.27,0,1,0,1.63-4.31A3.1,3.1,0,0,0,253.84,87.36Z"/><path class="cls-2" d="M259.24,91.5a4.12,4.12,0,1,1-2.5,5.27A4,4,0,0,1,259.24,91.5Zm-1.7,5a3.27,3.27,0,1,0,2-4.15A3.09,3.09,0,0,0,257.54,96.48Z"/><path class="cls-2" d="M269.67,99.63l.25.85-10.78,3.12-.24-.84Z"/><path class="cls-2" d="M265.36,117l.1.91c-1.54.27-2.3,1.6-2.09,3.42s1.1,2.71,2.32,2.57,1.65-1.07,1.86-3.25c.3-2.66,1.05-3.86,2.63-4s3,1,3.22,3.28-.74,3.88-2.76,4.19l-.11-.91c1.49-.25,2.21-1.41,2-3.17s-1.09-2.61-2.25-2.47-1.6,1-1.84,3.25c-.31,2.74-1.12,3.87-2.63,4-1.76.2-3-1.11-3.31-3.4S263.33,117.34,265.36,117Z"/><path class="cls-2" d="M274.49,127.17l0,.88-6.82.24,0,1.15a2.26,2.26,0,0,0,1.79,2.53l1.76.61,0,.94-2.11-.72a3.11,3.11,0,0,1-1.82-1.31l-3.89,2.68,0-1,3.6-2.45a6.28,6.28,0,0,1-.15-1.24l0-1.12-3.57.13,0-.88Z"/><path class="cls-2" d="M271.26,136.35l0,.88-7.83-.16,0-.88Zm3,.51a.76.76,0,0,1-.8.78.8.8,0,1,1,.8-.78Z"/><path class="cls-2" d="M274.49,140.75l-.05.88-11.2-.64.05-.87Z"/><path class="cls-2" d="M274.19,145l-.08.87-11.17-1L263,144Z"/><path class="cls-2" d="M265.07,147.59l-.12.85c-1.11-.07-1.88.69-2.1,2.18s.21,2.26,1.06,2.39,1.42-.55,1.94-2.15c.64-2,1.5-2.79,2.68-2.61s2,1.43,1.7,3.25-1.3,2.85-2.81,2.76l.13-.87c1,.06,1.71-.66,1.9-2s-.22-2.14-1.06-2.27-1.28.47-1.86,2.15c-.66,1.91-1.59,2.77-2.76,2.6s-2-1.5-1.71-3.38S263.52,147.42,265.07,147.59Z"/><path class="cls-2" d="M271,164.89l-.28,1.19-.81-.19.27-1.12c.3-1.24-.12-1.9-1.42-2.21l-.82-.2-.68,2.81-.78-.19.68-2.81-6.84-1.66.21-.85,6.83,1.65.42-1.73.78.18-.42,1.74.89.22A2.33,2.33,0,0,1,271,164.89Z"/><path class="cls-2" d="M263.23,165.18a4.11,4.11,0,1,1-5.17,2.69A3.94,3.94,0,0,1,263.23,165.18Zm-4.36,2.94A3.27,3.27,0,1,0,263,166,3.1,3.1,0,0,0,258.87,168.12Z"/><path class="cls-2" d="M263.45,176.9l-.28.69-1.66-.58a2.81,2.81,0,0,1,.53,3.33l-.24.6-.76-.31.26-.63c.63-1.56.11-3-2.1-3.89l-3.33-1.36.33-.82Z"/><path class="cls-2" d="M262.21,188.22l-.39.79-10.07-4.93.39-.79Z"/><path class="cls-2" d="M257.28,190.46l-.41.77L250,187.55l.41-.77Zm2.46,1.81a.8.8,0,1,1-.32-1.08A.76.76,0,0,1,259.74,192.27Z"/><path class="cls-2" d="M256.61,198.89l-.62,1.05-.72-.42.59-1c.65-1.1.44-1.85-.71-2.53l-.73-.43L253,198.06l-.69-.41,1.47-2.49-6-3.58.45-.76,6.05,3.58.91-1.54.69.41-.91,1.54.78.46A2.34,2.34,0,0,1,256.61,198.89Z"/><path class="cls-2" d="M249.11,196.88a3.88,3.88,0,0,1,1.1,5.64c-1.4,2-3.8,2.31-6,.76l4-5.87a3.17,3.17,0,0,0-4.44,4.12l-.57.81a3.93,3.93,0,0,1,.15-4.5A3.88,3.88,0,0,1,249.11,196.88ZM245.38,203a3,3,0,0,0,4.14-1,3,3,0,0,0-.58-4.2Z"/><path class="cls-2" d="M224.39,225.81l4.75-4-3.2-3.8.71-.6,6.83,8.12-.71.6-3.06-3.65-4.75,4,3.06,3.64-.71.6-6.83-8.12.71-.59Z"/><path class="cls-2" d="M222.59,230.75l-.7.51-4.63-6.32.71-.52Zm1.43,2.69a.8.8,0,1,1,.18-1.11A.77.77,0,0,1,224,233.44Z"/><path class="cls-2" d="M221.07,236l-.72.5L214,227.19l.73-.49Z"/><path class="cls-2" d="M217.5,238.33l-.75.47-6-9.49.74-.47Z"/><path class="cls-2" d="M209.91,232.66l-.76.42c-.61-.92-1.68-1.07-3-.34s-1.68,1.54-1.26,2.29,1.29.79,2.89.23c2-.69,3.11-.5,3.7.54s0,2.44-1.55,3.33-3.06.7-3.9-.55l.77-.43c.58.85,1.56.95,2.75.29s1.57-1.48,1.15-2.22-1.15-.73-2.83-.17c-1.92.63-3.17.42-3.74-.61s0-2.49,1.64-3.41S209.1,231.32,209.91,232.66Z"/><path class="cls-2" d="M204.47,241.79l-.79.39-3.45-7,.79-.39Zm.93,2.9a.77.77,0,0,1-1.07-.35.81.81,0,1,1,1.45-.71A.77.77,0,0,1,205.4,244.69Z"/><path class="cls-2" d="M199.72,239.81a4.05,4.05,0,0,1-5.83,5.07l1.85,4.47-.81.34-4.29-10.37.67-.28.69,1.39a3.84,3.84,0,0,1,2.43-2.89A3.92,3.92,0,0,1,199.72,239.81Zm-5.06-1.45a3.27,3.27,0,1,0,4.25,1.79A3.11,3.11,0,0,0,194.66,238.36Z"/><path class="cls-2" d="M189.74,243.83a3.88,3.88,0,0,1-2.61,5.12c-2.36.74-4.42-.52-5.16-3.07l6.8-2.13a3.16,3.16,0,0,0-6,.51l-1,.28a3.93,3.93,0,0,1,2.89-3.45A3.88,3.88,0,0,1,189.74,243.83ZM183,246.36a3,3,0,0,0,3.85,1.79,3,3,0,0,0,2.12-3.66Z"/><path class="cls-2" d="M176.57,246.8l-.9.17c-.38-1.51-1.75-2.18-3.56-1.83s-2.62,1.28-2.39,2.49,1.18,1.56,3.36,1.62c2.68.11,3.93.77,4.22,2.33s-.82,3-3,3.45-3.91-.46-4.37-2.45l.89-.17c.36,1.46,1.57,2.09,3.32,1.76s2.51-1.27,2.3-2.42-1.1-1.53-3.38-1.6c-2.75-.11-3.94-.84-4.22-2.33-.33-1.74.89-3.12,3.15-3.55S176.11,244.81,176.57,246.8Z"/><path class="cls-2" d="M167,249.32a3.89,3.89,0,0,1-3.56,4.49,3.85,3.85,0,0,1-4.12-2.39l.89-.09a3.08,3.08,0,0,0,3.14,1.64,3.27,3.27,0,1,0-3.44-4.11L159,249a4,4,0,0,1,8,.37Z"/><path class="cls-2" d="M156.71,257.54l-.88,0-.08-4.81a3.25,3.25,0,0,1-2.91,1.67c-2,0-3.3-1.36-3.33-3.61l-.07-4.37h.88l.07,4.28c0,1.81,1,2.88,2.56,2.86a2.82,2.82,0,0,0,2.77-3.15l-.07-4.08h.88Z"/><path class="cls-2" d="M147.1,250.32a4.12,4.12,0,1,1-3.82-4.41A3.94,3.94,0,0,1,147.1,250.32Zm-3.88-3.56a3.27,3.27,0,1,0,3,3.5A3.1,3.1,0,0,0,143.22,246.76Z"/><path class="cls-2" d="M137,249.51a4.11,4.11,0,1,1-3.41-4.72A3.94,3.94,0,0,1,137,249.51Zm-3.55-3.89a3.27,3.27,0,1,0,2.69,3.75A3.1,3.1,0,0,0,133.46,245.62Z"/><path class="cls-2" d="M124.84,254.73l-.86-.19,2.46-10.95.86.19Z"/><path class="cls-2" d="M111.69,242.58l-.84-.34c.51-1.48-.28-2.79-2-3.48s-2.9-.35-3.37.78.13,2,1.93,3.2c2.19,1.55,2.88,2.78,2.27,4.25s-2.34,2.09-4.43,1.23-3-2.51-2.32-4.44l.84.35c-.5,1.42.17,2.61,1.81,3.28s2.81.31,3.25-.77-.08-1.88-1.95-3.19c-2.25-1.59-2.85-2.85-2.27-4.25.67-1.64,2.44-2.13,4.57-1.25S112.4,240.66,111.69,242.58Z"/><path class="cls-2" d="M98.4,245.7l-.78-.4,3.06-6.09-1-.52a2.28,2.28,0,0,0-3.08.35l-1.38,1.26-.84-.42,1.64-1.5a3.13,3.13,0,0,1,2-1l-.49-4.7.93.47.42,4.33A5.8,5.8,0,0,1,100,238l1,.51,1.61-3.2.78.39Z"/><path class="cls-2" d="M90,240.86a.76.76,0,0,1-.3-1.08.8.8,0,1,1,.3,1.08Zm1.89-2.39-.77-.44L95,231.24l.76.43Z"/><path class="cls-2" d="M86.51,239.21l-.74-.46,5.92-9.53.75.46Z"/><path class="cls-2" d="M82.88,236.88l-.73-.49,6.25-9.31.72.49Z"/><path class="cls-2" d="M85,227.65l-.69-.52c.6-.94.3-2-.9-2.88s-2.09-.91-2.61-.22-.2,1.5,1,2.74c1.43,1.51,1.73,2.64,1,3.6s-2.2,1-3.67-.06-1.88-2.52-1.08-3.79l.7.53c-.54.87-.24,1.81.85,2.62s2,.84,2.51.16.19-1.35-1-2.66c-1.36-1.5-1.67-2.72-1-3.67s2.27-1,3.78.12S85.88,226.37,85,227.65Z"/><path class="cls-2" d="M67,224.56l-.9-.83.56-.61.85.77c.94.86,1.72.81,2.62-.18l.57-.63-2.14-1.94.54-.6,2.14,2,4.73-5.21.65.59-4.73,5.21,1.32,1.2-.54.6-1.32-1.21-.61.68A2.34,2.34,0,0,1,67,224.56Z"/><path class="cls-2" d="M70.45,217.61a4.12,4.12,0,1,1,.12-5.83A3.94,3.94,0,0,1,70.45,217.61ZM70,212.37a3.27,3.27,0,1,0-.12,4.61A3.1,3.1,0,0,0,70,212.37Z"/><path class="cls-2" d="M60.12,212.22l-.48-.57,1.3-1.2a2.81,2.81,0,0,1-3.19-1.09l-.42-.5.63-.53.44.53c1.07,1.29,2.58,1.5,4.41,0l2.78-2.3.56.68Z"/><path class="cls-2" d="M50.73,205.63l-.51-.72,9.18-6.45.51.72Z"/><path class="cls-2" d="M48.38,201.52a.79.79,0,1,1,1.33-.87.79.79,0,1,1-1.33.87Zm2.77-1.28-.48-.74,6.56-4.27.48.73Z"/><path class="cls-2" d="M44.08,195.59l-.63-1.06.72-.42.59,1c.64,1.09,1.4,1.28,2.55.6l.73-.43-1.47-2.49.69-.41,1.48,2.49,6-3.58.45.76-6.06,3.58.91,1.54-.69.41L48.49,196l-.78.46A2.33,2.33,0,0,1,44.08,195.59Z"/><path class="cls-2" d="M49.45,190A3.88,3.88,0,0,1,44,188.23c-1.11-2.21-.2-4.45,2.2-5.59l3.2,6.37a3.17,3.17,0,0,0-1.48-5.88l-.43-.88a3.92,3.92,0,0,1,3.87,2.29A3.86,3.86,0,0,1,49.45,190Zm-3.58-6.21a3,3,0,0,0-1.15,4.09,3,3,0,0,0,4,1.5Z"/><path class="cls-2" d="M36.72,158.5l1.46,6L43,163.38l.22.9-10.32,2.48-.21-.9,4.62-1.11-1.45-6-4.63,1.11-.21-.9,10.31-2.48.22.9Z"/><path class="cls-2" d="M30.06,154.73a.8.8,0,1,1,1.57-.27.78.78,0,0,1-.66.93A.77.77,0,0,1,30.06,154.73Zm3.05-.07-.15-.87,7.73-1.3.15.86Z"/><path class="cls-2" d="M29.12,151l-.11-.87,11.11-1.48.12.87Z"/><path class="cls-2" d="M28.61,146.74l-.08-.87,11.16-1.11.08.88Z"/><path class="cls-2" d="M37.08,142.49l0-.86c1.1-.14,1.72-1,1.65-2.53s-.63-2.19-1.49-2.15-1.29.8-1.5,2.48c-.26,2.06-.94,3-2.14,3.07s-2.2-1-2.28-2.88.75-3.05,2.24-3.24l0,.88c-1,.14-1.55,1-1.49,2.33s.62,2.06,1.47,2,1.16-.71,1.42-2.46c.29-2,1-3,2.22-3.07s2.23,1.1,2.31,3S38.64,142.36,37.08,142.49Z"/><path class="cls-2" d="M28.34,133.06a.76.76,0,0,1,.79-.8.81.81,0,1,1-.79.8Zm3,.46v-.88l7.84.08v.88Z"/><path class="cls-2" d="M35.25,130.13a4.05,4.05,0,0,1-1.9-7.48l-4.82-.35.06-.88,11.18.83-.05.73H38.17a3.84,3.84,0,0,1,1.49,3.46A3.91,3.91,0,0,1,35.25,130.13Zm3.57-3.86a3.26,3.26,0,1,0-3.5,3A3.1,3.1,0,0,0,38.82,126.27Z"/><path class="cls-2" d="M36.15,119.4a3.86,3.86,0,0,1-3.39-4.63c.4-2.44,2.45-3.71,5.06-3.22l-1.16,7A3.17,3.17,0,0,0,38.92,113l.18-1a3.93,3.93,0,0,1,1.77,4.14A3.86,3.86,0,0,1,36.15,119.4Zm.77-7.13a3,3,0,0,0-3.34,2.63,3,3,0,0,0,2.32,3.55Z"/><path class="cls-2" d="M39.42,106.34l.26-.87c1.52.34,2.73-.59,3.24-2.35s0-2.92-1.14-3.26-1.93.34-3,2.27c-1.31,2.33-2.46,3.15-4,2.71s-2.33-2.1-1.7-4.27,2.17-3.29,4.16-2.79l-.25.87c-1.46-.34-2.58.46-3.07,2.16s0,2.82,1.12,3.15,1.86-.29,3-2.29c1.34-2.41,2.53-3.14,4-2.72,1.71.49,2.38,2.2,1.75,4.41S41.41,106.83,39.42,106.34Z"/><path class="cls-2" d="M41.52,96.67a3.88,3.88,0,0,1-2.45-5.18,3.84,3.84,0,0,1,4-2.63l-.31.84a3.15,3.15,0,0,0-.9,6.14,3.15,3.15,0,0,0,3.24-5.32l.32-.87a4,4,0,0,1-3.87,7Z"/><path class="cls-2" d="M38.78,83.76l.38-.8,4.33,2.09a3.28,3.28,0,0,1-.19-3.35c.88-1.83,2.69-2.34,4.73-1.36L52,82.24l-.39.79-3.86-1.86c-1.62-.79-3-.4-3.7,1a2.82,2.82,0,0,0,1.58,3.88l3.67,1.77-.38.8Z"/><path class="cls-2" d="M49.53,78.42A4.11,4.11,0,1,1,55.18,77,3.93,3.93,0,0,1,49.53,78.42Zm4.92-1.87A3.27,3.27,0,1,0,50,77.67,3.09,3.09,0,0,0,54.45,76.55Z"/><path class="cls-2" d="M54.76,69.77a4.12,4.12,0,1,1,5.76-.94A3.95,3.95,0,0,1,54.76,69.77Zm5.07-1.43a3.27,3.27,0,1,0-4.55.72A3.12,3.12,0,0,0,59.83,68.34Z"/><path class="cls-2" d="M55.54,56.56l.56-.68L64.78,63l-.55.68Z"/><path class="cls-2" d="M72.31,50.24l.68-.6c1.1,1.12,2.62,1,4-.22s1.61-2.44.8-3.36-1.81-.75-3.72.3c-2.37,1.27-3.78,1.33-4.83.14s-.82-3,.88-4.52,3.61-1.59,5-.1l-.68.6c-1-1.08-2.42-1-3.75.16s-1.53,2.37-.76,3.25,1.72.77,3.72-.33c2.43-1.3,3.83-1.27,4.83-.13,1.17,1.33.81,3.13-.92,4.65S73.71,51.73,72.31,50.24Z"/><path class="cls-2" d="M75.49,37l.71-.52,4.06,5.48.93-.69a2.27,2.27,0,0,0,1.07-2.91l-.5-1.8.75-.56.6,2.14a3.12,3.12,0,0,1,0,2.25L87.49,42l-.85.62-4-1.58a6.09,6.09,0,0,1-.94.83l-.9.67,2.13,2.87-.71.53Z"/><path class="cls-2" d="M83.59,31.65a.77.77,0,0,1,1.1.21.8.8,0,1,1-1.34.89A.77.77,0,0,1,83.59,31.65Zm1.29,2.76.74-.48,4.31,6.54-.74.49Z"/><path class="cls-2" d="M86.64,29.27l.75-.46,5.85,9.58-.75.45Z"/><path class="cls-2" d="M90.36,27.08l.77-.43,5.49,9.77-.76.43Z"/><path class="cls-2" d="M97.65,33.12l.77-.38c.57.95,1.64,1.15,3,.49s1.75-1.46,1.37-2.23-1.25-.85-2.87-.37c-2,.59-3.15.35-3.68-.73s.07-2.43,1.71-3.24,3.1-.55,3.87.74l-.79.39c-.53-.88-1.5-1-2.73-.42s-1.64,1.4-1.26,2.16,1.11.78,2.82.31c2-.54,3.18-.27,3.71.79s-.11,2.49-1.81,3.33S98.39,34.5,97.65,33.12Z"/><path class="cls-2" d="M108.49,18.41l1.15-.44.3.77-1.08.42c-1.19.46-1.49,1.18-1,2.42l.3.79,2.7-1,.29.75-2.7,1L111,29.69l-.82.31-2.54-6.56-1.67.65-.29-.75,1.67-.65-.33-.85A2.34,2.34,0,0,1,108.49,18.41Z"/><path class="cls-2" d="M113.15,24.63a4.12,4.12,0,1,1,5.16,2.72A4,4,0,0,1,113.15,24.63Zm4.91,1.91a3.11,3.11,0,0,0,2.12-4.09A3.24,3.24,0,1,0,114,24.37,3.11,3.11,0,0,0,118.06,26.54Z"/><path class="cls-2" d="M122.59,17.81l.72-.17.49,1.69A2.82,2.82,0,0,1,126.21,17l.63-.15.19.8-.67.15c-1.64.38-2.49,1.64-2,4l.82,3.51-.85.2Z"/><path class="cls-2" d="M132.68,12.36l.87-.13,1.66,11.09-.87.13Z"/><path class="cls-2" d="M137.42,12.09a.76.76,0,0,1,.89.69.8.8,0,1,1-1.59.18A.76.76,0,0,1,137.42,12.09Zm-.09,3,.87-.1.9,7.79-.87.1Z"/><path class="cls-2" d="M144.66,10.9l1.22-.09.06.84-1.15.08c-1.27.08-1.77.68-1.68,2l.06.85,2.88-.2.06.8-2.89.2.49,7-.88.06-.48-7-1.79.13-.05-.81,1.78-.12-.06-.91A2.33,2.33,0,0,1,144.66,10.9Z"/><path class="cls-2" d="M147.28,18.22a3.87,3.87,0,0,1,4-4.1c2.47,0,4.06,1.81,4,4.47h-7.12a3.16,3.16,0,0,0,5.91,1.31l1,0a3.93,3.93,0,0,1-3.79,2.43A3.87,3.87,0,0,1,147.28,18.22Zm7.15-.41A3,3,0,0,0,151.3,15a3,3,0,0,0-3.12,2.86Z"/></svg>