<svg xmlns="http://www.w3.org/2000/svg" viewBox="0 0 536.32 134.6"><defs><style>.a,.d{fill:#134b92;}.a,.b,.c{fill-rule:evenodd;}.b,.e{fill:#008647;}.c{fill:#f7931e;}</style></defs><path class="a" d="M0,12.26V121.5L57.74,38.79A12.88,12.88,0,0,1,78.24,38l5,6s25.83-17.7,54.53,4.3l7.11-9.91a12.88,12.88,0,0,1,21.32.55L209,105.72,209.46,11a10.89,10.89,0,0,0-11-10.95L10.83,1.36A10.9,10.9,0,0,0,0,12.26Z"/><path class="b" d="M126.23,134.6H4.94L63.09,53.39a5.2,5.2,0,0,1,8.54.12Z"/><path class="b" d="M149,54.18,116.8,98.85l23.91,35.75h68L157.55,54.42A5.2,5.2,0,0,0,149,54.18Z"/><path class="c" d="M89.38,58.27l18.43,29.17L128.21,60a24,24,0,0,0-19.53-10.09C95.52,49.93,89.38,58.27,89.38,58.27Z"/><polygon class="d" points="280.88 58.95 280.88 0 288.69 0 288.69 24.21 319.33 24.21 319.33 0 327.13 0 327.13 58.95 319.33 58.95 319.33 31.17 288.69 31.17 288.69 58.95 280.88 58.95"/><path class="d" d="M339.24,59V16.25h7.23V59Zm0-50.63V0h7.23V8.32Z"/><rect class="d" x="357.33" width="7.24" height="58.95"/><rect class="d" x="375.63" width="7.24" height="58.95"/><path class="d" d="M391.19,46.21l7.16-1.13a10,10,0,0,0,3.36,6.59q2.75,2.3,7.7,2.3t7.4-2a6.09,6.09,0,0,0,2.41-4.77,4.4,4.4,0,0,0-2.13-3.86q-1.48-1-7.4-2.45a67.23,67.23,0,0,1-11-3.48,10.54,10.54,0,0,1-6.25-9.79,11,11,0,0,1,1.3-5.29,11.82,11.82,0,0,1,3.56-4,14.81,14.81,0,0,1,4.61-2.11,21.75,21.75,0,0,1,6.25-.87A24.66,24.66,0,0,1,417,16.73a12,12,0,0,1,5.61,3.92,15.31,15.31,0,0,1,2.49,6.62l-7.08,1a7.75,7.75,0,0,0-2.79-5.15,10.25,10.25,0,0,0-6.54-1.85q-5,0-7.11,1.65a4.82,4.82,0,0,0-2.14,3.86,4,4,0,0,0,.89,2.54,6.43,6.43,0,0,0,2.77,1.93q1.09.39,6.4,1.85a88.75,88.75,0,0,1,10.72,3.35,10.94,10.94,0,0,1,4.76,3.8,10.66,10.66,0,0,1,1.73,6.2,12.12,12.12,0,0,1-2.11,6.81,13.65,13.65,0,0,1-6.09,5,22.15,22.15,0,0,1-9,1.75q-8.32,0-12.69-3.46T391.19,46.21Z"/><path class="d" d="M435.31,59V16.25h7.23V59Zm0-50.63V0h7.23V8.32Z"/><path class="d" d="M458.39,37.64q0,8.2,3.46,12.27A10.43,10.43,0,0,0,470,54a10.26,10.26,0,0,0,8.06-3.88q3.31-3.89,3.32-11.85,0-8.76-3.38-12.86a10.37,10.37,0,0,0-8.32-4.11,10,10,0,0,0-8.07,3.95Q458.4,29.15,458.39,37.64ZM481.27,59V53.56a13.28,13.28,0,0,1-11.94,6.36,16.7,16.7,0,0,1-9.39-2.82,18.42,18.42,0,0,1-6.64-7.86A27.12,27.12,0,0,1,451,37.64,30.38,30.38,0,0,1,453.08,26a16.81,16.81,0,0,1,6.39-8A17.12,17.12,0,0,1,469,15.28a14.19,14.19,0,0,1,6.88,1.63,14.46,14.46,0,0,1,4.91,4.24V0H488V59Z"/><path class="d" d="M504.84,33.5h23.84c-.32-3.59-1.23-6.29-2.73-8.08a11.11,11.11,0,0,0-9-4.19,11.55,11.55,0,0,0-8.39,3.34A13.23,13.23,0,0,0,504.84,33.5ZM528.6,45.2l7.48.93a18.26,18.26,0,0,1-6.55,10.17q-4.78,3.62-12.23,3.62-9.37,0-14.86-5.77T497,38q0-10.77,5.55-16.73a18.82,18.82,0,0,1,14.4-6,18.27,18.27,0,0,1,14,5.83q5.43,5.84,5.43,16.41c0,.43,0,1.07,0,1.93H504.43q.4,7,4,10.78A11.88,11.88,0,0,0,517.34,54a11.11,11.11,0,0,0,6.8-2.09A14,14,0,0,0,528.6,45.2Z"/><path class="e" d="M280.89,114.6l7.35-.64a16.31,16.31,0,0,0,2.44,7.26,13.21,13.21,0,0,0,5.93,4.58,22.41,22.41,0,0,0,9.05,1.75,21.58,21.58,0,0,0,7.88-1.33,10.94,10.94,0,0,0,5.09-3.63,8.48,8.48,0,0,0,1.66-5,7.69,7.69,0,0,0-1.6-4.85,12,12,0,0,0-5.31-3.48,105.77,105.77,0,0,0-10.5-2.87q-8.11-1.95-11.38-3.68a16,16,0,0,1-6.29-5.49,13.47,13.47,0,0,1-2.07-7.34,15,15,0,0,1,2.53-8.34,15.69,15.69,0,0,1,7.4-5.89,27.89,27.89,0,0,1,10.82-2,29.51,29.51,0,0,1,11.56,2.11,16.59,16.59,0,0,1,7.7,6.21,17.85,17.85,0,0,1,2.9,9.29l-7.48.56q-.61-5.58-4.09-8.44t-10.27-2.86q-7.08,0-10.32,2.6a7.79,7.79,0,0,0-3.23,6.25A6.7,6.7,0,0,0,293,94.54c1.5,1.36,5.42,2.77,11.76,4.2s10.69,2.69,13.05,3.76a17.88,17.88,0,0,1,7.6,6,14.62,14.62,0,0,1,2.45,8.39,16,16,0,0,1-2.69,8.86,17.75,17.75,0,0,1-7.74,6.48A27,27,0,0,1,306,134.55a34,34,0,0,1-13.41-2.33,18.83,18.83,0,0,1-8.49-7A19.84,19.84,0,0,1,280.89,114.6Z"/><path class="e" d="M365.41,117.9l7.12.93a18.52,18.52,0,0,1-6,11.52,17.41,17.41,0,0,1-11.8,4.16q-8.77,0-14.1-5.73t-5.33-16.43a29.68,29.68,0,0,1,2.3-12.1,15.9,15.9,0,0,1,7-7.78,20.75,20.75,0,0,1,10.2-2.6q7,0,11.38,3.52a16.15,16.15,0,0,1,5.67,10l-7,1.09A11.65,11.65,0,0,0,361.25,98a9.2,9.2,0,0,0-6.17-2.18,11.25,11.25,0,0,0-8.89,3.92q-3.42,3.93-3.41,12.41t3.29,12.51a10.74,10.74,0,0,0,8.61,3.9,10.13,10.13,0,0,0,7.12-2.62C363.7,124.2,364.91,121.52,365.41,117.9Z"/><path class="e" d="M378.72,133.54V74.59H386V95.74a16.2,16.2,0,0,1,12.79-5.87A17.35,17.35,0,0,1,407,91.74a11,11,0,0,1,5,5.17q1.51,3.3,1.51,9.57v27.06h-7.24V106.48q0-5.43-2.35-7.9a8.76,8.76,0,0,0-6.66-2.48,11.77,11.77,0,0,0-6.05,1.67,9.42,9.42,0,0,0-4,4.53,20.84,20.84,0,0,0-1.21,7.88v23.36Z"/><path class="e" d="M429.27,112.19q0,8.2,3.58,12.29a11.93,11.93,0,0,0,18,0q3.59-4.11,3.58-12.51,0-7.92-3.6-12a11.92,11.92,0,0,0-18,0Q429.28,104,429.27,112.19Zm-7.44,0q0-11.86,6.6-17.57a19.84,19.84,0,0,1,13.43-4.75,19.2,19.2,0,0,1,14.4,5.77q5.58,5.77,5.59,16,0,8.23-2.48,13a17.37,17.37,0,0,1-7.2,7.33,20.83,20.83,0,0,1-10.31,2.62q-9,0-14.5-5.75T421.83,112.19Z"/><path class="e" d="M475.08,112.19q0,8.2,3.58,12.29a11.91,11.91,0,0,0,18,0q3.58-4.11,3.58-12.51,0-7.92-3.6-12a11.91,11.91,0,0,0-17.95,0Q475.07,104,475.08,112.19Zm-7.44,0q0-11.86,6.59-17.57a19.86,19.86,0,0,1,13.43-4.75,19.19,19.19,0,0,1,14.4,5.77q5.6,5.77,5.59,16,0,8.23-2.47,13a17.48,17.48,0,0,1-7.2,7.33,20.89,20.89,0,0,1-10.32,2.62q-9,0-14.49-5.75T467.64,112.19Z"/><rect class="e" x="515.97" y="74.59" width="7.24" height="58.95"/></svg>