<svg id="Layer_1" data-name="Layer 1" xmlns="http://www.w3.org/2000/svg" viewBox="0 0 302.86 278.2"><defs><style>.cls-1{fill:#038647;}.cls-1,.cls-2,.cls-3{fill-rule:evenodd;}.cls-2,.cls-4{fill:#144c91;}.cls-3{fill:#f79421;}</style></defs><path class="cls-1" d="M161.35,230.71a96.1,96.1,0,0,1-94.53-33.29l32.81-45.81a5.2,5.2,0,0,1,8.54.13Z"/><path class="cls-2" d="M237.28,136.82a95.52,95.52,0,0,1-8.88,40.35l-25.66-40a12.9,12.9,0,0,0-21.33-.55l-7.11,9.92c-28.7-22-54.52-4.31-54.52-4.31l-5-6a12.88,12.88,0,0,0-20.5.82L59.4,187A96,96,0,0,1,111.49,45.53a105.49,105.49,0,0,1,59.42,0l.23.07A96,96,0,0,1,237.28,136.82Z"/><path class="cls-3" d="M144.35,185.66l-18.42-29.17s6.13-8.33,19.29-8.33a23.94,23.94,0,0,1,19.53,10.09Z"/><path class="cls-1" d="M219.51,192.48a96.26,96.26,0,0,1-46,34.78l-20.19-30.19,32.16-44.66a5.18,5.18,0,0,1,8.59.24Z"/><path class="cls-4" d="M186.44,28.94l-5.82-2.17-1.74,4.66-.86-.32,3.7-9.94.86.32L180.92,26l5.83,2.17,1.66-4.46.86.32-3.7,9.94-.87-.32Z"/><path class="cls-4" d="M191.66,28.19l.8.37-3.31,7.1-.8-.37Zm1.67-2.54a.77.77,0,0,1,.4,1.05.81.81,0,0,1-1.46-.68A.76.76,0,0,1,193.33,25.65Z"/><path class="cls-4" d="M197,27l.78.39-5.08,10-.79-.4Z"/><path class="cls-4" d="M200.77,29l.76.42-5.43,9.81-.77-.43Z"/><path class="cls-4" d="M199.43,38.37l.74.46c-.52,1-.13,2,1.14,2.8s2.16.72,2.62,0,.07-1.51-1.19-2.64c-1.55-1.38-2-2.49-1.31-3.51s2.11-1.22,3.66-.24,2.09,2.35,1.39,3.68l-.74-.47c.47-.92.09-1.82-1.07-2.54s-2-.67-2.5.05-.09,1.36,1.21,2.57q2.22,2.07,1.27,3.57c-.7,1.12-2.17,1.22-3.78.21S198.66,39.73,199.43,38.37Z"/><path class="cls-4" d="M210.08,38.76l.72.51-4.51,6.4-.72-.5Zm2.1-2.21a.8.8,0,1,1-1.12.18A.78.78,0,0,1,212.18,36.55Z"/><path class="cls-4" d="M210.64,43.89a4.05,4.05,0,0,1,7.24,2.68l3-3.76.69.55-7,8.73-.57-.46.89-1.27a3.84,3.84,0,0,1-3.7-.74A3.92,3.92,0,0,1,210.64,43.89ZM211.79,49a3.26,3.26,0,1,0-.47-4.58A3.11,3.11,0,0,0,211.79,49Z"/><path class="cls-4" d="M218.94,50.7a3.88,3.88,0,0,1,5.75-.16c1.77,1.71,1.66,4.13-.23,6l-5.13-4.94a3.17,3.17,0,0,0,3.34,5l.7.7a4,4,0,0,1-4.41-.89A3.88,3.88,0,0,1,218.94,50.7Zm5.44,4.68a3,3,0,0,0-.27-4.24,3,3,0,0,0-4.24-.11Z"/><path class="cls-4" d="M227.86,60.83l.57.7c-1.15,1.06-1.07,2.59.09,4s2.38,1.69,3.33.92.82-1.79-.17-3.74c-1.19-2.4-1.21-3.81,0-4.82s3.05-.72,4.49,1,1.46,3.65-.07,5l-.58-.7c1.12-1,1.09-2.38,0-3.76s-2.32-1.6-3.22-.86-.83,1.69.2,3.73c1.22,2.47,1.14,3.86,0,4.82-1.37,1.13-3.16.71-4.62-1.07S226.32,62.18,227.86,60.83Z"/><path class="cls-4" d="M234.67,68.05a4,4,0,0,1,5.52,5.73l-.51-.73a3.1,3.1,0,0,0-.06-3.55,3.27,3.27,0,1,0-2,5l.52.76a4,4,0,0,1-3.51-7.2Z"/><path class="cls-4" d="M246.8,73.13l.44.77-4.18,2.37A3.29,3.29,0,0,1,245.92,78c1,1.77.39,3.55-1.57,4.66l-3.8,2.15-.44-.76L243.85,82c1.56-.89,2-2.26,1.27-3.61a2.81,2.81,0,0,0-4.09-.92l-3.55,2-.43-.76Z"/><path class="cls-4" d="M245.06,85a4.12,4.12,0,1,1-2,5.47A3.94,3.94,0,0,1,245.06,85Zm-1.26,5.12a3.27,3.27,0,1,0,1.63-4.32A3.1,3.1,0,0,0,243.8,90.12Z"/><path class="cls-4" d="M249.2,94.26a4.11,4.11,0,1,1-2.5,5.26A3.94,3.94,0,0,1,249.2,94.26Zm-1.7,5a3.26,3.26,0,1,0,2-4.16A3.1,3.1,0,0,0,247.5,99.24Z"/><path class="cls-4" d="M259.63,102.39l.25.84-10.78,3.13-.24-.85Z"/><path class="cls-4" d="M255.31,119.78l.11.9c-1.54.28-2.3,1.6-2.09,3.42s1.1,2.71,2.32,2.57,1.64-1.06,1.86-3.24c.3-2.66,1.05-3.86,2.63-4.05s3,1.05,3.22,3.29-.74,3.87-2.76,4.18l-.11-.9c1.48-.25,2.2-1.42,2-3.18s-1.09-2.6-2.25-2.47-1.61,1-1.84,3.26c-.31,2.73-1.12,3.87-2.63,4-1.76.21-3-1.11-3.31-3.39S253.29,120.09,255.31,119.78Z"/><path class="cls-4" d="M264.44,129.93l0,.88-6.82.24,0,1.15a2.27,2.27,0,0,0,1.79,2.53l1.76.6,0,.94-2.1-.71a3.17,3.17,0,0,1-1.82-1.32l-3.89,2.69,0-1.05,3.6-2.44a6.38,6.38,0,0,1-.15-1.24l0-1.12-3.58.12,0-.88Z"/><path class="cls-4" d="M261.22,139.11l0,.88-7.83-.17,0-.87Zm3,.5a.76.76,0,0,1-.8.79.81.81,0,1,1,.8-.79Z"/><path class="cls-4" d="M264.45,143.5l-.05.88-11.2-.63.05-.88Z"/><path class="cls-4" d="M264.15,147.78l-.08.88-11.17-1,.08-.88Z"/><path class="cls-4" d="M255,150.34l-.12.86c-1.11-.07-1.88.69-2.1,2.17s.21,2.27,1.06,2.39,1.41-.54,1.94-2.15c.64-2,1.5-2.78,2.68-2.61s2,1.44,1.7,3.25-1.31,2.86-2.81,2.76l.13-.87c1,.06,1.7-.65,1.9-2s-.22-2.15-1.06-2.27-1.28.47-1.86,2.15c-.67,1.91-1.59,2.77-2.76,2.6s-2-1.5-1.71-3.38S253.48,150.18,255,150.34Z"/><path class="cls-4" d="M261,167.65l-.29,1.19-.81-.2.27-1.12c.3-1.23-.11-1.89-1.41-2.21l-.82-.2-.69,2.82-.78-.19.68-2.82-6.83-1.65.21-.85,6.83,1.65.42-1.74.78.19-.42,1.74.89.21A2.34,2.34,0,0,1,261,167.65Z"/><path class="cls-4" d="M253.19,167.93a4.12,4.12,0,1,1-5.17,2.69A3.94,3.94,0,0,1,253.19,167.93Zm-4.36,2.95a3.27,3.27,0,1,0,4.1-2.11A3.09,3.09,0,0,0,248.83,170.88Z"/><path class="cls-4" d="M253.41,179.66l-.28.69-1.66-.59a2.83,2.83,0,0,1,.53,3.33l-.25.61-.75-.31.26-.63c.63-1.56.1-3-2.1-3.89l-3.33-1.37.33-.81Z"/><path class="cls-4" d="M252.17,191l-.39.79-10.07-4.93.39-.79Z"/><path class="cls-4" d="M247.24,193.21l-.41.78-6.91-3.68.41-.78ZM249.7,195a.8.8,0,1,1-.32-1.08A.77.77,0,0,1,249.7,195Z"/><path class="cls-4" d="M246.57,201.64,246,202.7l-.72-.43.59-1c.65-1.09.44-1.85-.71-2.53l-.73-.43-1.47,2.49-.69-.41,1.47-2.49-6.05-3.58.45-.75,6,3.58.91-1.54.69.41-.91,1.54.78.46A2.33,2.33,0,0,1,246.57,201.64Z"/><path class="cls-4" d="M239.06,199.64a3.88,3.88,0,0,1,1.11,5.64c-1.4,2-3.8,2.31-5.95.75l4-5.86a3.16,3.16,0,0,0-4.44,4.12l-.57.8a3.92,3.92,0,0,1,.15-4.5A3.86,3.86,0,0,1,239.06,199.64Zm-3.72,6.12a3,3,0,0,0,4.14-1,3,3,0,0,0-.59-4.19Z"/><path class="cls-4" d="M214.35,228.57l4.75-4-3.2-3.81.71-.59,6.83,8.12-.71.59-3.06-3.64-4.76,4,3.07,3.64-.71.59-6.83-8.11.71-.6Z"/><path class="cls-4" d="M212.55,233.5l-.71.52-4.62-6.32.71-.52Zm1.43,2.69a.77.77,0,0,1-1.12-.16.78.78,0,0,1,.18-1.12.79.79,0,1,1,.94,1.28Z"/><path class="cls-4" d="M211,238.73l-.73.49L204,230l.73-.5Z"/><path class="cls-4" d="M207.45,241.09l-.74.47-6-9.49.75-.47Z"/><path class="cls-4" d="M199.87,235.41l-.76.42c-.61-.92-1.69-1.07-3-.34s-1.67,1.54-1.25,2.3,1.29.79,2.88.23c2-.69,3.12-.51,3.71.54s.05,2.43-1.55,3.32-3.06.7-3.9-.55l.77-.43c.58.86,1.55,1,2.75.3s1.56-1.49,1.15-2.23-1.15-.73-2.84-.17c-1.91.64-3.16.43-3.73-.6s0-2.49,1.64-3.42S199.06,234.08,199.87,235.41Z"/><path class="cls-4" d="M194.43,244.55l-.79.38-3.45-7,.79-.38Zm.93,2.9a.8.8,0,1,1,.37-1.06A.76.76,0,0,1,195.36,247.45Z"/><path class="cls-4" d="M189.68,242.57a4.06,4.06,0,0,1-5.83,5.07l1.85,4.47-.82.33-4.28-10.37.67-.27.69,1.38a3.87,3.87,0,0,1,2.43-2.89A3.93,3.93,0,0,1,189.68,242.57Zm-5.07-1.45a3.27,3.27,0,1,0,4.25,1.78A3.11,3.11,0,0,0,184.61,241.12Z"/><path class="cls-4" d="M179.69,246.58a3.88,3.88,0,0,1-2.6,5.13c-2.36.74-4.42-.53-5.16-3.08l6.8-2.13a3.17,3.17,0,0,0-6,.51l-.94.28a3.94,3.94,0,0,1,2.89-3.45A3.87,3.87,0,0,1,179.69,246.58Zm-6.7,2.53a3,3,0,0,0,3.85,1.8,3,3,0,0,0,2.12-3.67Z"/><path class="cls-4" d="M166.52,249.56l-.89.17c-.38-1.52-1.76-2.18-3.56-1.84s-2.62,1.29-2.39,2.49S160.85,252,163,252c2.67.11,3.92.77,4.22,2.33s-.82,3-3,3.45-3.92-.46-4.37-2.46l.89-.17c.36,1.46,1.57,2.09,3.31,1.76s2.52-1.26,2.3-2.41S165.26,253,163,252.9c-2.75-.11-3.94-.84-4.22-2.33-.33-1.74.89-3.11,3.15-3.54S166.07,247.56,166.52,249.56Z"/><path class="cls-4" d="M156.94,252.08a4,4,0,0,1-7.67,2.09l.89-.09a3.08,3.08,0,0,0,3.14,1.64,3.26,3.26,0,1,0-3.44-4.11l-.92.1a4,4,0,0,1,8,.37Z"/><path class="cls-4" d="M146.66,260.3h-.87l-.08-4.8a3.29,3.29,0,0,1-2.91,1.67c-2,0-3.3-1.36-3.33-3.62l-.07-4.36.88,0,.06,4.29c0,1.8,1,2.88,2.56,2.86a2.82,2.82,0,0,0,2.77-3.15l-.06-4.08h.88Z"/><path class="cls-4" d="M137.06,253.08a4.12,4.12,0,1,1-3.82-4.41A4,4,0,0,1,137.06,253.08Zm-3.88-3.56a3.26,3.26,0,1,0,3,3.5A3.09,3.09,0,0,0,133.18,249.52Z"/><path class="cls-4" d="M127,252.27a4.11,4.11,0,1,1-3.41-4.73A3.94,3.94,0,0,1,127,252.27Zm-3.55-3.89a3.27,3.27,0,1,0,2.68,3.75A3.1,3.1,0,0,0,123.42,248.38Z"/><path class="cls-4" d="M114.8,257.48l-.86-.19,2.46-10.94.86.19Z"/><path class="cls-4" d="M101.65,245.34l-.84-.34c.5-1.48-.29-2.79-2-3.49s-2.91-.35-3.37.79.13,1.95,1.93,3.2c2.18,1.55,2.87,2.78,2.27,4.25s-2.34,2.09-4.43,1.23-3-2.52-2.33-4.44l.84.34c-.49,1.42.18,2.61,1.82,3.29s2.8.31,3.25-.77-.08-1.88-2-3.19c-2.24-1.59-2.84-2.85-2.27-4.25.68-1.65,2.45-2.13,4.58-1.26S102.35,243.42,101.65,245.34Z"/><path class="cls-4" d="M88.36,248.45l-.79-.39,3.06-6.1-1-.51a2.26,2.26,0,0,0-3.08.35l-1.38,1.26-.84-.42,1.63-1.51a3.2,3.2,0,0,1,2-1l-.48-4.71.93.47.42,4.33a6.57,6.57,0,0,1,1.16.47l1,.5,1.61-3.2.78.4Z"/><path class="cls-4" d="M80,243.62a.8.8,0,1,1,.79-1.38.76.76,0,0,1,.3,1.09A.77.77,0,0,1,80,243.62Zm1.88-2.4-.76-.44L85,234l.77.44Z"/><path class="cls-4" d="M76.47,242l-.75-.46L81.65,232l.74.46Z"/><path class="cls-4" d="M72.83,239.64l-.73-.49,6.25-9.32.73.49Z"/><path class="cls-4" d="M75,230.41l-.69-.52c.59-.94.3-2-.91-2.88s-2.08-.91-2.6-.22-.2,1.5,1,2.73c1.42,1.51,1.73,2.65,1,3.61s-2.21,1-3.67-.07-1.88-2.51-1.08-3.79l.7.53c-.54.88-.24,1.81.85,2.63s2,.83,2.5.16.2-1.35-1-2.67c-1.36-1.49-1.68-2.72-1-3.66s2.26-1,3.78.11S75.84,229.12,75,230.41Z"/><path class="cls-4" d="M56.93,227.32l-.91-.83.56-.62.86.78c.94.85,1.72.8,2.62-.18l.57-.63-2.15-2,.54-.59,2.15,1.94,4.72-5.2.65.59-4.72,5.2L63.14,227l-.54.59-1.32-1.2-.61.67C59.46,228.43,58.22,228.49,56.93,227.32Z"/><path class="cls-4" d="M60.41,220.37a4.12,4.12,0,1,1,.12-5.83A4,4,0,0,1,60.41,220.37Zm-.5-5.24a3.26,3.26,0,1,0-.11,4.6A3.09,3.09,0,0,0,59.91,215.13Z"/><path class="cls-4" d="M50.08,215l-.48-.57,1.3-1.19a2.81,2.81,0,0,1-3.19-1.1l-.42-.5.63-.52.44.52c1.07,1.3,2.58,1.51,4.41,0l2.78-2.3.56.67Z"/><path class="cls-4" d="M40.69,208.39l-.51-.72,9.18-6.45.5.72Z"/><path class="cls-4" d="M38.34,204.28a.79.79,0,1,1,1.1.24A.77.77,0,0,1,38.34,204.28ZM41.1,203l-.48-.74L47.18,198l.49.74Z"/><path class="cls-4" d="M34,198.34l-.62-1.05.72-.43.58,1a1.6,1.6,0,0,0,2.56.61L38,198l-1.47-2.5.69-.41,1.47,2.5L44.75,194l.45.76-6.06,3.57.91,1.54-.69.41-.91-1.54-.78.47A2.35,2.35,0,0,1,34,198.34Z"/><path class="cls-4" d="M39.41,192.73A3.87,3.87,0,0,1,33.94,191c-1.11-2.2-.2-4.44,2.19-5.58l3.21,6.36a3.17,3.17,0,0,0-1.48-5.87l-.43-.89a3.94,3.94,0,0,1,3.87,2.3A3.87,3.87,0,0,1,39.41,192.73Zm-3.58-6.21a3,3,0,0,0-1.15,4.09,3,3,0,0,0,4,1.5Z"/><path class="cls-4" d="M26.68,161.26l1.46,6L33,166.14l.22.9-10.32,2.48-.22-.9,4.63-1.11-1.45-6-4.63,1.12-.22-.9L31.3,159.2l.22.9Z"/><path class="cls-4" d="M20,157.49a.8.8,0,1,1,.91.66A.77.77,0,0,1,20,157.49Zm3.05-.07-.15-.87,7.73-1.31.15.87Z"/><path class="cls-4" d="M19.08,153.75l-.12-.87,11.12-1.49.12.87Z"/><path class="cls-4" d="M18.57,149.5l-.09-.88,11.16-1.1.09.87Z"/><path class="cls-4" d="M27,145.25l0-.87c1.1-.13,1.71-1,1.65-2.52s-.63-2.19-1.49-2.15-1.29.8-1.5,2.47c-.26,2.06-.95,3-2.14,3.07s-2.2-1-2.28-2.87.74-3,2.24-3.24l0,.88c-1,.14-1.55,1-1.49,2.32s.63,2.07,1.48,2,1.16-.7,1.42-2.46c.29-2,1-3,2.21-3.07s2.24,1.1,2.32,3S28.59,145.12,27,145.25Z"/><path class="cls-4" d="M18.3,135.81a.77.77,0,0,1,.79-.8.78.78,0,0,1,.8.82.77.77,0,0,1-.81.79A.76.76,0,0,1,18.3,135.81Zm3,.47v-.88l7.84.07v.88Z"/><path class="cls-4" d="M25.21,132.89a4,4,0,0,1-1.9-7.48l-4.82-.36.06-.87,11.18.83-.05.72H28.13a3.86,3.86,0,0,1,1.49,3.47A3.92,3.92,0,0,1,25.21,132.89ZM28.78,129a3.1,3.1,0,0,0-3-3.46,3.23,3.23,0,1,0-.48,6.45A3.1,3.1,0,0,0,28.78,129Z"/><path class="cls-4" d="M26.11,122.16a3.89,3.89,0,0,1-3.4-4.64c.41-2.43,2.46-3.71,5.07-3.22l-1.17,7a3.16,3.16,0,0,0,2.27-5.61l.18-1a3.92,3.92,0,0,1,1.77,4.13A3.87,3.87,0,0,1,26.11,122.16Zm.76-7.13a3,3,0,0,0-3.34,2.63,3,3,0,0,0,2.32,3.55Z"/><path class="cls-4" d="M29.38,109.1l.25-.88c1.53.35,2.74-.58,3.25-2.34s0-2.93-1.15-3.27-1.92.35-3,2.27c-1.3,2.34-2.45,3.16-4,2.72s-2.33-2.1-1.7-4.27,2.17-3.29,4.16-2.8l-.25.88c-1.47-.35-2.58.45-3.07,2.16s0,2.82,1.12,3.14,1.86-.28,3-2.29c1.33-2.4,2.52-3.13,4-2.71,1.7.49,2.38,2.19,1.74,4.41S31.37,109.59,29.38,109.1Z"/><path class="cls-4" d="M31.48,99.42A4,4,0,0,1,33,91.61l-.32.84a3.2,3.2,0,1,0,3.26,4.37A3,3,0,0,0,35,93.28l.32-.87a4,4,0,0,1-3.87,7Z"/><path class="cls-4" d="M28.73,86.51l.39-.79,4.32,2.09a3.29,3.29,0,0,1-.18-3.36C34.14,82.63,36,82.12,38,83.1L41.91,85l-.38.8-3.86-1.87c-1.62-.78-3-.39-3.7,1a2.82,2.82,0,0,0,1.57,3.89l3.68,1.77-.39.79Z"/><path class="cls-4" d="M39.48,81.18a4.11,4.11,0,0,1,4.21-7.07,4.11,4.11,0,1,1-4.21,7.07Zm4.92-1.87A3.26,3.26,0,0,0,38.79,76a3.26,3.26,0,0,0,5.61,3.34Z"/><path class="cls-4" d="M44.72,72.52a4.11,4.11,0,0,1,4.81-6.67,4.11,4.11,0,1,1-4.81,6.67Zm5.07-1.43a3.26,3.26,0,1,0-4.55.72A3.1,3.1,0,0,0,49.79,71.09Z"/><path class="cls-4" d="M45.5,59.31l.56-.68,8.68,7.1-.56.68Z"/><path class="cls-4" d="M62.27,53l.68-.6c1.1,1.11,2.62,1,4-.22s1.61-2.44.8-3.37-1.81-.75-3.73.31c-2.36,1.26-3.77,1.33-4.82.13s-.82-3,.88-4.51,3.6-1.59,5-.11l-.68.6c-1-1.07-2.42-1-3.75.17s-1.53,2.37-.76,3.24,1.72.77,3.72-.32c2.43-1.3,3.82-1.28,4.82-.14,1.17,1.34.82,3.14-.91,4.66S63.67,54.49,62.27,53Z"/><path class="cls-4" d="M65.45,39.72l.7-.53,4.07,5.48.93-.68a2.29,2.29,0,0,0,1.07-2.91l-.51-1.8.76-.56.6,2.14a3.12,3.12,0,0,1,0,2.25l4.42,1.68-.84.63-4.06-1.58a5.53,5.53,0,0,1-.93.82l-.9.67,2.13,2.88-.71.52Z"/><path class="cls-4" d="M73.55,34.4a.79.79,0,1,1-.24,1.1A.77.77,0,0,1,73.55,34.4Zm1.29,2.76.73-.48,4.31,6.55-.73.48Z"/><path class="cls-4" d="M76.6,32l.75-.46,5.85,9.57-.75.46Z"/><path class="cls-4" d="M80.32,29.83l.76-.43,5.5,9.78-.76.43Z"/><path class="cls-4" d="M87.6,35.88l.78-.38c.57,1,1.63,1.15,3,.48s1.75-1.45,1.36-2.22-1.24-.86-2.87-.38c-2,.6-3.14.35-3.67-.72s.07-2.43,1.71-3.24,3.1-.55,3.87.74l-.79.39c-.54-.89-1.51-1-2.73-.43S86.6,31.52,87,32.28s1.11.79,2.82.32c2-.54,3.18-.27,3.7.79s-.1,2.48-1.8,3.32S88.35,37.25,87.6,35.88Z"/><path class="cls-4" d="M98.45,21.16l1.14-.44.3.78-1.07.42c-1.19.45-1.5,1.17-1,2.42l.3.79,2.7-1,.29.75-2.7,1,2.54,6.56-.83.32L97.58,26.2l-1.67.64-.29-.75,1.67-.64L97,24.6A2.34,2.34,0,0,1,98.45,21.16Z"/><path class="cls-4" d="M103.11,27.38a4.12,4.12,0,1,1,5.16,2.72A4,4,0,0,1,103.11,27.38ZM108,29.29a3.1,3.1,0,0,0,2.12-4.08A3.24,3.24,0,1,0,104,27.12,3.1,3.1,0,0,0,108,29.29Z"/><path class="cls-4" d="M112.55,20.57l.72-.17.49,1.69a2.83,2.83,0,0,1,2.4-2.37l.64-.14.18.79-.66.16c-1.64.38-2.5,1.64-2,3.95l.82,3.52-.86.2Z"/><path class="cls-4" d="M122.64,15.12l.87-.13,1.66,11.09-.87.13Z"/><path class="cls-4" d="M127.38,14.84a.78.78,0,0,1,.89.69.81.81,0,0,1-1.6.19A.78.78,0,0,1,127.38,14.84Zm-.09,3.05.87-.1.9,7.79-.88.1Z"/><path class="cls-4" d="M134.62,13.65l1.22-.08.06.83-1.15.08c-1.27.09-1.78.69-1.68,2l.05.84,2.89-.2.06.81-2.89.2.49,7-.88.06-.49-7-1.78.12-.06-.8,1.79-.12-.06-.91A2.34,2.34,0,0,1,134.62,13.65Z"/><path class="cls-4" d="M137.24,21a3.87,3.87,0,0,1,4-4.11c2.47,0,4.07,1.82,4,4.47h-7.13a3.17,3.17,0,0,0,5.92,1.32l1,0a3.92,3.92,0,0,1-3.79,2.42A3.86,3.86,0,0,1,137.24,21Zm7.15-.41a3.14,3.14,0,0,0-6.26,0Z"/></svg>