<svg id="Layer_1" data-name="Layer 1" xmlns="http://www.w3.org/2000/svg" viewBox="0 0 302.86 278.2"><defs><style>.cls-1,.cls-5{fill:#144c91;}.cls-2,.cls-3{fill:#038647;}.cls-3,.cls-4,.cls-5,.cls-6{fill-rule:evenodd;}.cls-4{fill:#606161;}.cls-6{fill:#f79421;}</style></defs><polygon class="cls-1" points="36.31 231.23 36.31 205.04 39.78 205.04 39.78 215.79 53.4 215.79 53.4 205.04 56.86 205.04 56.86 231.23 53.4 231.23 53.4 218.89 39.78 218.89 39.78 231.23 36.31 231.23"/><path class="cls-1" d="M62.24,231.23v-19h3.22v19Zm0-22.49V205h3.22v3.7Z"/><rect class="cls-1" x="70.28" y="205.04" width="3.22" height="26.19"/><rect class="cls-1" x="78.41" y="205.04" width="3.22" height="26.19"/><path class="cls-1" d="M85.33,225.57l3.18-.5A4.44,4.44,0,0,0,90,228a5.17,5.17,0,0,0,3.42,1,5,5,0,0,0,3.29-.91A2.69,2.69,0,0,0,97.78,226a2,2,0,0,0-1-1.72,14.1,14.1,0,0,0-3.28-1.09,30.07,30.07,0,0,1-4.91-1.54,4.71,4.71,0,0,1-2.78-4.35,5,5,0,0,1,.58-2.35,5.27,5.27,0,0,1,1.58-1.8,6.77,6.77,0,0,1,2-.94,9.94,9.94,0,0,1,2.78-.38,11,11,0,0,1,3.92.64,5.3,5.3,0,0,1,2.49,1.74,6.8,6.8,0,0,1,1.11,2.94l-3.14.43A3.46,3.46,0,0,0,96,215.29a4.57,4.57,0,0,0-2.9-.82,5.22,5.22,0,0,0-3.16.74,2.11,2.11,0,0,0-1,1.71,1.8,1.8,0,0,0,.39,1.13,2.89,2.89,0,0,0,1.24.85c.32.12,1.27.4,2.84.83a38.06,38.06,0,0,1,4.76,1.49,4.82,4.82,0,0,1,2.12,1.69,4.7,4.7,0,0,1,.77,2.75,5.46,5.46,0,0,1-.94,3,6.07,6.07,0,0,1-2.71,2.19,9.81,9.81,0,0,1-4,.78,8.88,8.88,0,0,1-5.64-1.54A7.1,7.1,0,0,1,85.33,225.57Z"/><path class="cls-1" d="M104.93,231.23v-19h3.21v19Zm0-22.49V205h3.21v3.7Z"/><path class="cls-1" d="M115.18,221.76a8.26,8.26,0,0,0,1.54,5.45,4.61,4.61,0,0,0,3.63,1.81,4.55,4.55,0,0,0,3.58-1.73A8,8,0,0,0,125.4,222c0-2.6-.5-4.5-1.5-5.72a4.62,4.62,0,0,0-3.7-1.82,4.44,4.44,0,0,0-3.58,1.75Q115.18,218,115.18,221.76Zm10.17,9.47v-2.39a5.9,5.9,0,0,1-5.31,2.82,7.47,7.47,0,0,1-4.17-1.25,8.24,8.24,0,0,1-3-3.49,12.22,12.22,0,0,1-1-5.16,13.5,13.5,0,0,1,.94-5.15,7.46,7.46,0,0,1,2.85-3.55,7.59,7.59,0,0,1,4.23-1.23,6.3,6.3,0,0,1,5.24,2.61V205h3.19v26.19Z"/><path class="cls-1" d="M135.82,219.92h10.6a6.48,6.48,0,0,0-1.22-3.59,4.92,4.92,0,0,0-4-1.86,5.12,5.12,0,0,0-3.73,1.49A5.84,5.84,0,0,0,135.82,219.92Zm10.56,5.2,3.32.41a8.07,8.07,0,0,1-2.91,4.52,8.78,8.78,0,0,1-5.43,1.61,8.65,8.65,0,0,1-6.6-2.56q-2.44-2.57-2.44-7.19c0-3.2.82-5.67,2.46-7.44a8.37,8.37,0,0,1,6.4-2.64,8.11,8.11,0,0,1,6.22,2.59q2.41,2.6,2.41,7.29c0,.19,0,.47,0,.86H135.64a7.27,7.27,0,0,0,1.77,4.78,5.26,5.26,0,0,0,4,1.67,4.93,4.93,0,0,0,3-.93A6.21,6.21,0,0,0,146.38,225.12Z"/><path class="cls-2" d="M163.14,222.82l3.27-.29a7.26,7.26,0,0,0,1.08,3.23,5.89,5.89,0,0,0,2.64,2,9.94,9.94,0,0,0,4,.78,9.69,9.69,0,0,0,3.5-.59,4.85,4.85,0,0,0,2.26-1.62,3.76,3.76,0,0,0,.74-2.24,3.43,3.43,0,0,0-.71-2.15,5.33,5.33,0,0,0-2.36-1.55,48.3,48.3,0,0,0-4.67-1.28,23.51,23.51,0,0,1-5-1.63,7.13,7.13,0,0,1-2.8-2.44,6,6,0,0,1-.92-3.26,6.68,6.68,0,0,1,1.13-3.71,7,7,0,0,1,3.28-2.62,12.64,12.64,0,0,1,4.81-.89,13.09,13.09,0,0,1,5.14.94,7.43,7.43,0,0,1,3.42,2.76,7.9,7.9,0,0,1,1.29,4.13l-3.33.25a5.34,5.34,0,0,0-1.81-3.75,7,7,0,0,0-4.57-1.27,7.32,7.32,0,0,0-4.58,1.15,3.45,3.45,0,0,0-1.44,2.78,3,3,0,0,0,1,2.32q1,.91,5.23,1.87a33.37,33.37,0,0,1,5.79,1.67,7.84,7.84,0,0,1,3.38,2.67,6.48,6.48,0,0,1,1.09,3.72,7.15,7.15,0,0,1-1.2,3.95,7.78,7.78,0,0,1-3.44,2.87,11.86,11.86,0,0,1-5,1,15.08,15.08,0,0,1-6-1,8.33,8.33,0,0,1-3.77-3.12A8.83,8.83,0,0,1,163.14,222.82Z"/><path class="cls-2" d="M200.7,224.28l3.16.41a8.23,8.23,0,0,1-2.65,5.12,7.76,7.76,0,0,1-5.25,1.85,8.18,8.18,0,0,1-6.26-2.54c-1.58-1.7-2.37-4.14-2.37-7.3a13.17,13.17,0,0,1,1-5.38,7.09,7.09,0,0,1,3.1-3.46,9.19,9.19,0,0,1,4.53-1.15,7.9,7.9,0,0,1,5.06,1.56,7.16,7.16,0,0,1,2.52,4.44l-3.13.48a5.23,5.23,0,0,0-1.58-2.87,4.07,4.07,0,0,0-2.74-1,5,5,0,0,0-4,1.74c-1,1.17-1.52,3-1.52,5.52s.49,4.4,1.46,5.55a4.77,4.77,0,0,0,3.83,1.74,4.53,4.53,0,0,0,3.16-1.16A5.79,5.79,0,0,0,200.7,224.28Z"/><path class="cls-2" d="M206.61,231.23V205h3.22v9.4a7.17,7.17,0,0,1,5.68-2.61,7.55,7.55,0,0,1,3.66.83,4.87,4.87,0,0,1,2.23,2.3,10.66,10.66,0,0,1,.67,4.25v12h-3.22v-12a5,5,0,0,0-1-3.51,3.88,3.88,0,0,0-3-1.1,5.17,5.17,0,0,0-2.69.74,4.17,4.17,0,0,0-1.8,2,9.36,9.36,0,0,0-.53,3.5v10.38Z"/><path class="cls-2" d="M229.07,221.74a8.09,8.09,0,0,0,1.59,5.46,5.29,5.29,0,0,0,8,0q1.59-1.81,1.59-5.55a7.83,7.83,0,0,0-1.6-5.34,5.3,5.3,0,0,0-8,0Q229.07,218.1,229.07,221.74Zm-3.3,0c0-3.51,1-6.11,2.93-7.8a8.8,8.8,0,0,1,6-2.11,8.5,8.5,0,0,1,6.4,2.56,9.74,9.74,0,0,1,2.48,7.09,12.59,12.59,0,0,1-1.09,5.76,7.8,7.8,0,0,1-3.2,3.26,9.37,9.37,0,0,1-4.59,1.16,8.55,8.55,0,0,1-6.44-2.55C226.58,227.4,225.77,225,225.77,221.74Z"/><path class="cls-2" d="M249.42,221.74A8.09,8.09,0,0,0,251,227.2a5.11,5.11,0,0,0,4,1.82,5.06,5.06,0,0,0,4-1.83q1.59-1.81,1.59-5.55a7.83,7.83,0,0,0-1.6-5.34,5.3,5.3,0,0,0-8,0Q249.42,218.1,249.42,221.74Zm-3.3,0c0-3.51,1-6.11,2.93-7.8a8.81,8.81,0,0,1,6-2.11,8.5,8.5,0,0,1,6.39,2.56,9.74,9.74,0,0,1,2.49,7.09,12.58,12.58,0,0,1-1.1,5.76,7.8,7.8,0,0,1-3.2,3.26,9.36,9.36,0,0,1-4.58,1.16,8.56,8.56,0,0,1-6.45-2.55C246.94,227.4,246.12,225,246.12,221.74Z"/><rect class="cls-2" x="267.59" y="205.04" width="3.22" height="26.19"/><path class="cls-3" d="M170.26,192.61H76l12.84-17.94,32.34-45.15a4,4,0,0,1,6.63.1Z"/><path class="cls-4" d="M171.8,134.68,156,156l-14.32-22.66s4.77-6.47,15-6.47A18.61,18.61,0,0,1,171.8,134.68Z"/><path class="cls-5" d="M235,125.21c0,2.25-.09,4.48-.28,6.67a80.38,80.38,0,0,1-7.15,27.34L201.31,118.3a10,10,0,0,0-16.57-.42l-5.52,7.7c-22.29-17.09-42.36-3.34-42.36-3.34l-3.88-4.7a10,10,0,0,0-15.92.64L83.35,166.47a80.75,80.75,0,0,1-11.14-38c0-1.07-.07-2.15-.07-3.24s0-2.17.07-3.24A81.42,81.42,0,0,1,234.76,119Q235,122.09,235,125.21Z"/><path class="cls-6" d="M156,156l-14.32-22.66s4.77-6.47,15-6.47a18.61,18.61,0,0,1,15.17,7.84Z"/><path class="cls-3" d="M234.33,192.61H181.51l-18.57-27.77,25-34.7a4,4,0,0,1,6.68.19l26.12,40.94Z"/></svg>