<svg id="Layer_1" data-name="Layer 1" xmlns="http://www.w3.org/2000/svg" viewBox="0 0 302.86 278.2"><defs><style>.cls-1,.cls-2,.cls-3{fill:none;stroke-miterlimit:10;stroke-width:3px;fill-rule:evenodd;}.cls-1{stroke:#038647;}.cls-2{stroke:#144c91;}.cls-3{stroke:#f79421;}.cls-4{fill:#144c91;}</style></defs><path class="cls-1" d="M177.68,228.08a96.1,96.1,0,0,1-94.53-33.29L116,149a5.2,5.2,0,0,1,8.54.13Z"/><path class="cls-2" d="M253.6,134.19a95.51,95.51,0,0,1-8.87,40.35l-25.67-40a12.89,12.89,0,0,0-21.32-.55l-7.11,9.92c-28.7-22-54.53-4.31-54.53-4.31l-5-6a12.88,12.88,0,0,0-20.5.82l-34.88,50A96,96,0,0,1,127.81,42.9a105.53,105.53,0,0,1,59.43,0l.23.07A96,96,0,0,1,253.6,134.19Z"/><path class="cls-3" d="M160.68,183l-18.43-29.17s6.14-8.33,19.3-8.33a24,24,0,0,1,19.53,10.09Z"/><path class="cls-1" d="M235.83,189.85a96.19,96.19,0,0,1-46,34.78l-20.19-30.19,32.15-44.66a5.19,5.19,0,0,1,8.6.24Z"/><path class="cls-4" d="M202.76,26.31l-5.82-2.17-1.73,4.65-.87-.32,3.7-9.94.87.32-1.66,4.46,5.82,2.17L204.73,21l.87.33-3.71,9.94L201,31Z"/><path class="cls-4" d="M208,25.56l.79.37L205.47,33l-.79-.37ZM209.66,23a.79.79,0,1,1-1.06.38A.76.76,0,0,1,209.66,23Z"/><path class="cls-4" d="M213.27,24.36l.78.4-5.08,10-.78-.4Z"/><path class="cls-4" d="M217.09,26.37l.77.43-5.44,9.8-.77-.42Z"/><path class="cls-4" d="M215.76,35.74l.73.46c-.51,1-.13,2,1.15,2.79s2.15.73,2.61,0,.07-1.52-1.19-2.65c-1.55-1.38-1.94-2.49-1.3-3.5s2.1-1.22,3.65-.25,2.09,2.35,1.4,3.69l-.75-.47c.47-.92.09-1.82-1.06-2.55s-2.06-.66-2.51.06-.08,1.36,1.22,2.57c1.48,1.37,1.89,2.57,1.27,3.57s-2.18,1.21-3.78.2S215,37.09,215.76,35.74Z"/><path class="cls-4" d="M226.4,36.13l.72.5L222.61,43l-.72-.51Zm2.1-2.22a.76.76,0,0,1,.2,1.11.8.8,0,1,1-.2-1.11Z"/><path class="cls-4" d="M227,41.25a3.91,3.91,0,0,1,5.71-.67,3.87,3.87,0,0,1,1.53,3.36l3-3.77.68.55-7,8.73-.56-.45.88-1.27a3.86,3.86,0,0,1-3.7-.75A3.92,3.92,0,0,1,227,41.25Zm1.16,5.14a3.27,3.27,0,1,0-.47-4.59A3.11,3.11,0,0,0,228.12,46.39Z"/><path class="cls-4" d="M235.27,48.07A3.87,3.87,0,0,1,241,47.9c1.78,1.72,1.66,4.13-.23,6L235.66,49A3.17,3.17,0,0,0,239,54l.7.69a3.93,3.93,0,0,1-4.42-.89A3.86,3.86,0,0,1,235.27,48.07Zm5.43,4.67a3,3,0,0,0-.27-4.24,3,3,0,0,0-4.24-.1Z"/><path class="cls-4" d="M244.18,58.19l.58.71c-1.15,1.06-1.08,2.58.08,4s2.39,1.69,3.34.91S249,62,248,60.08c-1.19-2.4-1.21-3.81,0-4.82s3.06-.72,4.49,1,1.47,3.66-.07,5l-.57-.7c1.11-1,1.08-2.38,0-3.75s-2.32-1.61-3.22-.87-.82,1.7.2,3.74c1.22,2.46,1.15,3.86,0,4.82-1.37,1.12-3.16.71-4.62-1.07S242.65,59.55,244.18,58.19Z"/><path class="cls-4" d="M251,65.41a3.89,3.89,0,0,1,5.65,1,3.84,3.84,0,0,1-.13,4.76l-.51-.74a3.27,3.27,0,1,0-2,1.45l.52.76A4,4,0,0,1,251,65.41Z"/><path class="cls-4" d="M263.13,70.5l.43.76-4.18,2.37a3.27,3.27,0,0,1,2.86,1.76c1,1.76.39,3.54-1.57,4.66l-3.8,2.15-.43-.76,3.73-2.12c1.57-.89,2.05-2.26,1.28-3.62a2.84,2.84,0,0,0-4.1-.92l-3.54,2-.44-.77Z"/><path class="cls-4" d="M261.39,82.37a4.12,4.12,0,1,1-2,5.47A3.94,3.94,0,0,1,261.39,82.37Zm-1.27,5.11a3.27,3.27,0,1,0,1.63-4.31A3.11,3.11,0,0,0,260.12,87.48Z"/><path class="cls-4" d="M265.53,91.62a4.11,4.11,0,1,1-2.5,5.27A3.94,3.94,0,0,1,265.53,91.62Zm-1.7,5a3.26,3.26,0,1,0,2-4.15A3.09,3.09,0,0,0,263.83,96.6Z"/><path class="cls-4" d="M276,99.75l.24.85-10.77,3.12-.25-.84Z"/><path class="cls-4" d="M271.64,117.15l.1.9c-1.54.27-2.3,1.6-2.08,3.42s1.09,2.71,2.31,2.57,1.65-1.07,1.87-3.24c.29-2.66,1-3.87,2.62-4s3,1,3.22,3.28-.73,3.88-2.76,4.19l-.1-.9c1.48-.25,2.2-1.42,2-3.18s-1.08-2.61-2.24-2.47-1.61,1-1.85,3.25c-.31,2.74-1.12,3.87-2.63,4-1.76.21-3-1.11-3.31-3.4S269.61,117.46,271.64,117.15Z"/><path class="cls-4" d="M280.77,127.29l0,.88-6.82.24,0,1.15a2.26,2.26,0,0,0,1.79,2.53l1.77.61,0,.94-2.1-.72a3.11,3.11,0,0,1-1.83-1.31l-3.89,2.68,0-1,3.6-2.45a6.28,6.28,0,0,1-.15-1.24l0-1.12-3.57.13,0-.88Z"/><path class="cls-4" d="M277.54,136.48l0,.87-7.83-.16,0-.88Zm3,.5a.8.8,0,1,1-.78-.82A.77.77,0,0,1,280.55,137Z"/><path class="cls-4" d="M280.77,140.87l0,.88-11.2-.64.05-.87Z"/><path class="cls-4" d="M280.47,145.15l-.08.87-11.17-1,.08-.87Z"/><path class="cls-4" d="M271.36,147.71l-.13.85c-1.11-.07-1.88.69-2.09,2.18s.2,2.26,1.06,2.39,1.41-.54,1.93-2.15c.65-2,1.5-2.79,2.68-2.61s2,1.43,1.71,3.25-1.31,2.86-2.81,2.76l.12-.87c1,.06,1.71-.66,1.9-2s-.22-2.14-1.06-2.27-1.28.48-1.86,2.15c-.66,1.91-1.58,2.77-2.75,2.6s-2-1.5-1.72-3.37S269.8,147.54,271.36,147.71Z"/><path class="cls-4" d="M277.28,165l-.29,1.2-.81-.2.27-1.12c.3-1.24-.12-1.9-1.42-2.21l-.82-.2-.68,2.81-.78-.19.68-2.81-6.84-1.65.21-.86,6.83,1.66.43-1.74.78.19-.42,1.73.88.22A2.34,2.34,0,0,1,277.28,165Z"/><path class="cls-4" d="M269.51,165.3a4.12,4.12,0,1,1-5.17,2.69A3.95,3.95,0,0,1,269.51,165.3Zm-4.36,2.94a3.27,3.27,0,1,0,4.1-2.1A3.11,3.11,0,0,0,265.15,168.24Z"/><path class="cls-4" d="M269.73,177l-.28.69-1.66-.58a2.83,2.83,0,0,1,.54,3.33l-.25.6-.76-.31.26-.63c.64-1.55.11-3-2.09-3.88l-3.34-1.37.33-.82Z"/><path class="cls-4" d="M268.49,188.34l-.38.79L258,184.2l.39-.79Z"/><path class="cls-4" d="M263.57,190.58l-.42.78-6.91-3.69.41-.77Zm2.45,1.81a.79.79,0,1,1-1.4-.75.79.79,0,1,1,1.4.75Z"/><path class="cls-4" d="M262.9,199l-.63,1.05-.72-.42.59-1c.65-1.1.44-1.85-.7-2.53l-.73-.43-1.48,2.49-.69-.41,1.48-2.49-6-3.58.44-.76,6,3.58.91-1.54.7.41-.92,1.54.79.46A2.35,2.35,0,0,1,262.9,199Z"/><path class="cls-4" d="M255.39,197a3.88,3.88,0,0,1,1.1,5.64c-1.4,2-3.8,2.32-6,.76l4-5.87a3.17,3.17,0,0,0-4.44,4.12l-.57.81a3.94,3.94,0,0,1,.15-4.5A3.88,3.88,0,0,1,255.39,197Zm-3.73,6.13a3,3,0,0,0,4.14-1,3,3,0,0,0-.58-4.2Z"/><path class="cls-4" d="M230.67,225.93l4.75-4-3.19-3.8.7-.6,6.83,8.12-.71.6L236,222.61l-4.75,4,3.06,3.65-.71.59-6.83-8.12.71-.59Z"/><path class="cls-4" d="M228.88,230.87l-.71.52-4.63-6.33.71-.52Zm1.42,2.69a.79.79,0,1,1,.18-1.11A.76.76,0,0,1,230.3,233.56Z"/><path class="cls-4" d="M227.35,236.09l-.72.5-6.3-9.28.72-.49Z"/><path class="cls-4" d="M223.78,238.45l-.75.47-6-9.49.74-.47Z"/><path class="cls-4" d="M216.19,232.78l-.75.42c-.62-.92-1.69-1.07-3-.34s-1.68,1.54-1.26,2.29,1.29.79,2.89.23c2-.69,3.12-.5,3.7.54s0,2.44-1.55,3.33-3.06.7-3.89-.55l.76-.43c.58.86,1.56.95,2.75.29s1.57-1.48,1.15-2.22-1.15-.73-2.83-.17c-1.92.63-3.16.42-3.74-.61s0-2.49,1.64-3.41S215.38,231.45,216.19,232.78Z"/><path class="cls-4" d="M210.75,241.91l-.79.39-3.45-7,.79-.39Zm.93,2.91a.8.8,0,1,1,.38-1.07A.77.77,0,0,1,211.68,244.82Z"/><path class="cls-4" d="M206,239.93a4.05,4.05,0,0,1-5.83,5.07l1.85,4.47-.81.34-4.29-10.37.67-.28.69,1.39a3.84,3.84,0,0,1,2.43-2.89A3.92,3.92,0,0,1,206,239.93Zm-5.06-1.45a3.27,3.27,0,1,0,4.25,1.79A3.1,3.1,0,0,0,200.94,238.48Z"/><path class="cls-4" d="M196,244a3.88,3.88,0,0,1-2.61,5.12c-2.36.74-4.42-.52-5.16-3.07l6.8-2.13a3.16,3.16,0,0,0-6,.51l-1,.28a3.94,3.94,0,0,1,2.89-3.45A3.87,3.87,0,0,1,196,244Zm-6.71,2.53a3,3,0,0,0,3.85,1.8,3,3,0,0,0,2.13-3.67Z"/><path class="cls-4" d="M182.85,246.92l-.9.17c-.38-1.51-1.75-2.18-3.55-1.83s-2.63,1.28-2.4,2.49,1.18,1.56,3.36,1.63c2.68.1,3.93.76,4.23,2.32s-.83,3-3.05,3.45-3.91-.46-4.37-2.45l.9-.17c.35,1.46,1.56,2.09,3.31,1.76s2.52-1.27,2.3-2.41-1.1-1.54-3.38-1.61c-2.75-.11-3.94-.84-4.22-2.33-.33-1.74.89-3.12,3.15-3.55S182.39,244.93,182.85,246.92Z"/><path class="cls-4" d="M173.27,249.44a3.89,3.89,0,0,1-3.56,4.49,3.85,3.85,0,0,1-4.12-2.39l.89-.09a3.08,3.08,0,0,0,3.14,1.64,3.27,3.27,0,1,0-3.44-4.11l-.92.09a4,4,0,0,1,8,.37Z"/><path class="cls-4" d="M163,257.66l-.88,0-.08-4.81a3.25,3.25,0,0,1-2.91,1.67c-2,0-3.29-1.36-3.33-3.61l-.07-4.37h.88l.07,4.29c0,1.8,1,2.88,2.56,2.85a2.82,2.82,0,0,0,2.77-3.15l-.07-4.07.88,0Z"/><path class="cls-4" d="M153.38,250.45a4.12,4.12,0,1,1-3.82-4.42A3.95,3.95,0,0,1,153.38,250.45Zm-3.88-3.57a3.27,3.27,0,1,0,3,3.5A3.1,3.1,0,0,0,149.5,246.88Z"/><path class="cls-4" d="M143.3,249.63a4.12,4.12,0,1,1-3.42-4.72A3.95,3.95,0,0,1,143.3,249.63Zm-3.55-3.88a3.27,3.27,0,1,0,2.68,3.74A3.09,3.09,0,0,0,139.75,245.75Z"/><path class="cls-4" d="M131.12,254.85l-.86-.19,2.46-10.95.86.2Z"/><path class="cls-4" d="M118,242.71l-.84-.35c.51-1.48-.28-2.78-2-3.48s-2.9-.35-3.37.78.14,2,1.94,3.2c2.18,1.55,2.87,2.78,2.26,4.26s-2.34,2.08-4.43,1.23-3-2.52-2.32-4.45l.84.35c-.5,1.42.17,2.61,1.81,3.28s2.81.32,3.25-.76-.08-1.89-1.95-3.2c-2.25-1.59-2.85-2.85-2.27-4.25.67-1.64,2.44-2.13,4.57-1.25S118.68,240.78,118,242.71Z"/><path class="cls-4" d="M104.68,245.82l-.78-.4,3.06-6.09-1-.52a2.28,2.28,0,0,0-3.08.35l-1.38,1.26-.84-.42,1.64-1.5a3.13,3.13,0,0,1,2-1l-.49-4.7.94.47.42,4.33a6.7,6.7,0,0,1,1.15.46l1,.51,1.6-3.2.79.39Z"/><path class="cls-4" d="M96.3,241A.77.77,0,0,1,96,239.9a.78.78,0,0,1,1.1-.3.77.77,0,0,1,.29,1.1A.76.76,0,0,1,96.3,241Zm1.88-2.39-.76-.44,3.9-6.79.76.43Z"/><path class="cls-4" d="M92.8,239.34l-.75-.47L98,229.34l.75.47Z"/><path class="cls-4" d="M89.16,237l-.73-.49,6.25-9.31.73.49Z"/><path class="cls-4" d="M91.28,227.77l-.7-.52c.6-.94.3-2-.9-2.88s-2.09-.91-2.61-.21-.2,1.5,1,2.73c1.43,1.51,1.73,2.64,1,3.6s-2.2,1-3.67-.06-1.88-2.52-1.08-3.79l.71.53c-.55.88-.24,1.81.84,2.63s2,.83,2.51.15.2-1.35-1-2.66c-1.36-1.5-1.67-2.72-1-3.67s2.27-1,3.78.12S92.17,226.49,91.28,227.77Z"/><path class="cls-4" d="M73.26,224.68l-.91-.82.56-.62.85.77c.94.86,1.72.81,2.62-.18l.57-.63-2.14-1.94.54-.6,2.14,2,4.73-5.21.65.59-4.73,5.21,1.33,1.2-.54.6-1.33-1.2-.61.67A2.33,2.33,0,0,1,73.26,224.68Z"/><path class="cls-4" d="M76.73,217.73a4.11,4.11,0,1,1,.12-5.83A3.94,3.94,0,0,1,76.73,217.73Zm-.49-5.24a3.26,3.26,0,1,0-.12,4.61A3.1,3.1,0,0,0,76.24,212.49Z"/><path class="cls-4" d="M66.4,212.34l-.48-.57,1.3-1.19a2.83,2.83,0,0,1-3.19-1.1l-.42-.5.63-.53.44.53c1.07,1.3,2.58,1.5,4.42,0l2.78-2.3.56.68Z"/><path class="cls-4" d="M57,205.75,56.5,205l9.18-6.45.51.72Z"/><path class="cls-4" d="M54.66,201.64a.78.78,0,0,1,.22-1.1.78.78,0,0,1,1.12.23.8.8,0,1,1-1.34.87Zm2.77-1.28-.48-.73,6.56-4.28.48.73Z"/><path class="cls-4" d="M50.36,195.71l-.63-1.06.72-.42.59,1c.64,1.1,1.41,1.28,2.55.6l.74-.43-1.48-2.49.7-.41L55,195l6.06-3.57.44.75-6.05,3.58.9,1.54-.69.41-.91-1.54-.78.46A2.33,2.33,0,0,1,50.36,195.71Z"/><path class="cls-4" d="M55.74,190.09a3.88,3.88,0,0,1-5.48-1.74c-1.11-2.21-.2-4.45,2.2-5.59l3.2,6.37a3.17,3.17,0,0,0-1.48-5.88l-.43-.88a3.92,3.92,0,0,1,3.87,2.29A3.87,3.87,0,0,1,55.74,190.09Zm-3.59-6.21A3,3,0,0,0,51,188a3,3,0,0,0,4,1.51Z"/><path class="cls-4" d="M43,158.62l1.45,6,4.83-1.17.22.9-10.32,2.48L39,166l4.62-1.11-1.45-6-4.63,1.11-.21-.9,10.32-2.48.21.9Z"/><path class="cls-4" d="M36.34,154.85a.8.8,0,1,1,.92.66A.76.76,0,0,1,36.34,154.85Zm3-.07-.14-.87,7.72-1.3.15.86Z"/><path class="cls-4" d="M35.4,151.11l-.11-.87,11.11-1.48.12.87Z"/><path class="cls-4" d="M34.89,146.86l-.08-.87L46,144.88l.08.88Z"/><path class="cls-4" d="M43.36,142.61l0-.86c1.1-.14,1.72-1,1.65-2.53s-.63-2.19-1.49-2.15-1.28.8-1.5,2.48c-.26,2.06-.94,3-2.14,3.07s-2.2-1-2.28-2.87.75-3.06,2.24-3.24l0,.87c-1,.14-1.55,1-1.49,2.33s.62,2.07,1.47,2,1.17-.71,1.42-2.46c.29-2,1-3,2.22-3.07s2.23,1.1,2.31,3S44.92,142.48,43.36,142.61Z"/><path class="cls-4" d="M34.62,133.18a.8.8,0,1,1,.78.81A.77.77,0,0,1,34.62,133.18Zm3,.47v-.88l7.84.07v.88Z"/><path class="cls-4" d="M41.54,130.26a4.05,4.05,0,0,1-1.91-7.48l-4.82-.36.07-.88,11.18.83-.06.73H44.45a3.82,3.82,0,0,1,1.49,3.47A3.92,3.92,0,0,1,41.54,130.26Zm3.57-3.87a3.27,3.27,0,1,0-3.51,3A3.11,3.11,0,0,0,45.11,126.39Z"/><path class="cls-4" d="M42.43,119.52A3.86,3.86,0,0,1,39,114.89c.4-2.44,2.46-3.71,5.06-3.22l-1.16,7a3.17,3.17,0,0,0,2.27-5.62l.17-1a4,4,0,0,1,1.78,4.14A3.87,3.87,0,0,1,42.43,119.52Zm.77-7.12A3,3,0,0,0,39.86,115a3,3,0,0,0,2.32,3.55Z"/><path class="cls-4" d="M45.71,106.46l.25-.87c1.52.34,2.74-.59,3.24-2.35s0-2.92-1.14-3.26-1.93.34-3,2.27c-1.31,2.34-2.46,3.16-4,2.72s-2.32-2.11-1.7-4.28,2.18-3.28,4.16-2.79l-.25.87c-1.46-.34-2.57.46-3.06,2.16s0,2.83,1.11,3.15,1.86-.29,3-2.29c1.34-2.41,2.53-3.14,4-2.72,1.71.49,2.38,2.2,1.75,4.41S47.69,107,45.71,106.46Z"/><path class="cls-4" d="M47.8,96.79a3.88,3.88,0,0,1-2.45-5.18,3.84,3.84,0,0,1,4-2.63l-.31.84a3.09,3.09,0,0,0-2.87,2.08,3.27,3.27,0,0,0,6.12,2.28,3,3,0,0,0-.91-3.54l.32-.86a4,4,0,0,1-3.87,7Z"/><path class="cls-4" d="M45.06,83.88l.38-.79,4.33,2.08a3.27,3.27,0,0,1-.19-3.35c.89-1.83,2.69-2.34,4.73-1.36l3.93,1.9-.38.79L54,81.29c-1.62-.78-3-.4-3.69,1a2.82,2.82,0,0,0,1.57,3.89L55.54,88l-.38.79Z"/><path class="cls-4" d="M55.81,78.55a4.12,4.12,0,1,1,5.65-1.44A4,4,0,0,1,55.81,78.55Zm4.92-1.88a3.27,3.27,0,1,0-4.47,1.12A3.09,3.09,0,0,0,60.73,76.67Z"/><path class="cls-4" d="M61.05,69.89A4.11,4.11,0,1,1,66.8,69,3.93,3.93,0,0,1,61.05,69.89Zm5.06-1.43a3.27,3.27,0,1,0-4.55.72A3.09,3.09,0,0,0,66.11,68.46Z"/><path class="cls-4" d="M61.82,56.68l.56-.68,8.68,7.09-.55.68Z"/><path class="cls-4" d="M78.59,50.36l.68-.6c1.1,1.12,2.62,1,4-.22s1.61-2.44.8-3.36-1.81-.75-3.72.3c-2.36,1.27-3.77,1.34-4.82.14s-.83-3,.87-4.52,3.61-1.59,5-.1l-.68.6c-1-1.08-2.42-1-3.75.16s-1.53,2.37-.76,3.25,1.72.77,3.73-.33c2.42-1.3,3.82-1.27,4.82-.13,1.17,1.33.81,3.13-.92,4.65S80,51.85,78.59,50.36Z"/><path class="cls-4" d="M81.77,37.08l.71-.52L86.54,42l.93-.69a2.27,2.27,0,0,0,1.07-2.91L88,36.65l.75-.56.61,2.14a3.2,3.2,0,0,1-.05,2.24l4.42,1.69-.84.62L88.87,41.2a6.09,6.09,0,0,1-.94.83l-.9.67,2.13,2.87-.7.53Z"/><path class="cls-4" d="M89.87,31.77A.78.78,0,0,1,91,32a.81.81,0,0,1-1.35.89A.77.77,0,0,1,89.87,31.77Zm1.29,2.76.74-.48,4.31,6.54-.74.49Z"/><path class="cls-4" d="M92.92,29.39l.75-.46,5.85,9.58-.75.46Z"/><path class="cls-4" d="M96.64,27.2l.77-.43,5.5,9.77-.77.44Z"/><path class="cls-4" d="M103.93,33.24l.77-.38c.57,1,1.64,1.16,3,.49s1.75-1.45,1.37-2.23-1.25-.85-2.87-.37c-2,.59-3.14.35-3.67-.72s.06-2.44,1.71-3.25,3.09-.55,3.86.74l-.78.39c-.54-.88-1.51-1-2.73-.42s-1.64,1.4-1.27,2.16,1.12.78,2.83.31c1.94-.54,3.18-.27,3.7.79s-.11,2.49-1.81,3.33S104.67,34.62,103.93,33.24Z"/><path class="cls-4" d="M114.77,18.53l1.15-.44.3.77-1.08.42c-1.19.46-1.49,1.18-1,2.42l.3.8,2.71-1.05.28.75-2.7,1.05,2.54,6.56-.82.32-2.54-6.57-1.67.65-.29-.75,1.67-.65-.32-.85A2.33,2.33,0,0,1,114.77,18.53Z"/><path class="cls-4" d="M119.44,24.75a4.11,4.11,0,1,1,7.86-2.43,4.11,4.11,0,1,1-7.86,2.43Zm4.9,1.91a3.1,3.1,0,0,0,2.12-4.08,3.23,3.23,0,1,0-6.18,1.91A3.1,3.1,0,0,0,124.34,26.66Z"/><path class="cls-4" d="M128.87,17.93l.72-.17.49,1.69a2.82,2.82,0,0,1,2.41-2.36l.63-.15.19.8-.67.15c-1.63.38-2.49,1.64-1.95,4l.81,3.51-.85.2Z"/><path class="cls-4" d="M139,12.48l.87-.13,1.67,11.09-.87.13Z"/><path class="cls-4" d="M143.71,12.21a.76.76,0,0,1,.88.69.8.8,0,1,1-.88-.69Zm-.1,3,.88-.11.89,7.79-.87.1Z"/><path class="cls-4" d="M150.94,11l1.22-.08.06.83-1.15.08c-1.27.09-1.77.68-1.68,2l.06.85,2.89-.2,0,.8-2.89.2.49,7-.88.06-.48-7-1.79.13-.05-.8,1.78-.13-.06-.91A2.33,2.33,0,0,1,150.94,11Z"/><path class="cls-4" d="M153.56,18.35a3.88,3.88,0,0,1,4-4.11c2.47,0,4.06,1.81,4,4.47h-7.12A3.17,3.17,0,0,0,160.37,20h1a3.92,3.92,0,0,1-3.78,2.43A3.87,3.87,0,0,1,153.56,18.35Zm7.16-.42a3,3,0,0,0-3.14-2.86,3,3,0,0,0-3.12,2.87Z"/></svg>