<svg xmlns="http://www.w3.org/2000/svg" viewBox="0 0 189.72 189.3"><defs><style>.a{fill:#fff;fill-rule:evenodd;}</style></defs><path class="a" d="M114.7,187.22a95,95,0,0,1-93.41-32.9l32.42-45.26a5.13,5.13,0,0,1,8.44.13Z"/><path class="a" d="M189.72,94.44A94.24,94.24,0,0,1,181,134.31L155.59,94.79a12.73,12.73,0,0,0-21.07-.54l-7,9.8C99.14,82.3,73.61,99.79,73.61,99.79l-4.93-6a12.72,12.72,0,0,0-20.25.81L14,144A94.91,94.91,0,0,1,65.42,4.24a104.28,104.28,0,0,1,58.73,0,1.14,1.14,0,0,1,.22.07A94.89,94.89,0,0,1,189.72,94.44Z"/><path class="a" d="M97.9,142.7,79.69,113.88s6.07-8.23,19.07-8.23a23.67,23.67,0,0,1,19.3,10Z"/><path class="a" d="M172.16,149.44a95.11,95.11,0,0,1-45.42,34.37L106.79,154l31.76-44.13a5.13,5.13,0,0,1,8.5.24Z"/></svg>