<svg id="Layer_1" data-name="Layer 1" xmlns="http://www.w3.org/2000/svg" viewBox="0 0 248.84 28.74"><defs><style>.cls-1{fill:#144c91;}.cls-2{fill:#038647;}</style></defs><polygon class="cls-1" points="0 28.27 0 0.47 3.68 0.47 3.68 11.89 18.13 11.89 18.13 0.47 21.8 0.47 21.8 28.27 18.13 28.27 18.13 15.17 3.68 15.17 3.68 28.27 0 28.27"/><path class="cls-1" d="M27.51,28.27V8.13h3.42V28.27Zm0-23.87V.47h3.42V4.4Z"/><rect class="cls-1" x="36.04" y="0.47" width="3.41" height="27.8"/><rect class="cls-1" x="44.67" y="0.47" width="3.41" height="27.8"/><path class="cls-1" d="M52,22.26l3.37-.53A4.71,4.71,0,0,0,57,24.84a5.5,5.5,0,0,0,3.63,1.08,5.33,5.33,0,0,0,3.49-1,2.87,2.87,0,0,0,1.14-2.24,2.09,2.09,0,0,0-1-1.83,15.22,15.22,0,0,0-3.49-1.15,31.54,31.54,0,0,1-5.2-1.64,5,5,0,0,1-3-4.62A5.16,5.16,0,0,1,53.19,11a5.61,5.61,0,0,1,1.68-1.91,7.09,7.09,0,0,1,2.17-1,10.07,10.07,0,0,1,3-.41,11.74,11.74,0,0,1,4.16.68,5.67,5.67,0,0,1,2.65,1.85A7.17,7.17,0,0,1,68,13.33l-3.33.45a3.63,3.63,0,0,0-1.32-2.42,4.83,4.83,0,0,0-3.08-.88,5.57,5.57,0,0,0-3.36.78,2.27,2.27,0,0,0-1,1.82,1.94,1.94,0,0,0,.41,1.2,3.11,3.11,0,0,0,1.31.91c.34.12,1.35.42,3,.87a41.31,41.31,0,0,1,5.05,1.58,5.16,5.16,0,0,1,2.25,1.79,5,5,0,0,1,.81,2.92,5.78,5.78,0,0,1-1,3.22,6.5,6.5,0,0,1-2.87,2.33,10.5,10.5,0,0,1-4.25.83,9.43,9.43,0,0,1-6-1.64A7.51,7.51,0,0,1,52,22.26Z"/><path class="cls-1" d="M72.81,28.27V8.13h3.41V28.27Zm0-23.87V.47h3.41V4.4Z"/><path class="cls-1" d="M83.69,18.22c0,2.58.55,4.51,1.63,5.78a4.92,4.92,0,0,0,3.85,1.92A4.82,4.82,0,0,0,93,24.09q1.57-1.83,1.57-5.58,0-4.14-1.59-6.07A4.92,4.92,0,0,0,89,10.5a4.72,4.72,0,0,0-3.8,1.86Q83.69,14.22,83.69,18.22ZM94.48,28.27V25.73a6.25,6.25,0,0,1-5.63,3,8,8,0,0,1-4.43-1.33,8.8,8.8,0,0,1-3.13-3.71,12.93,12.93,0,0,1-1.1-5.47,14.33,14.33,0,0,1,1-5.47A7.91,7.91,0,0,1,88.7,7.68a6.71,6.71,0,0,1,5.55,2.77V.47h3.4v27.8Z"/><path class="cls-1" d="M105.59,16.27h11.25a6.75,6.75,0,0,0-1.29-3.81,5.23,5.23,0,0,0-4.23-2,5.4,5.4,0,0,0-3.95,1.58A6.25,6.25,0,0,0,105.59,16.27Zm11.21,5.52,3.53.43a8.62,8.62,0,0,1-3.1,4.8,10.46,10.46,0,0,1-12.77-1c-1.72-1.82-2.58-4.36-2.58-7.64s.87-6,2.61-7.89a8.87,8.87,0,0,1,6.79-2.8,8.63,8.63,0,0,1,6.6,2.75q2.57,2.75,2.56,7.73c0,.21,0,.51,0,.91h-15a7.8,7.8,0,0,0,1.88,5.09,5.62,5.62,0,0,0,4.21,1.76,5.19,5.19,0,0,0,3.2-1A6.47,6.47,0,0,0,116.8,21.79Z"/><path class="cls-2" d="M134.58,19.34l3.47-.3a7.72,7.72,0,0,0,1.15,3.42,6.24,6.24,0,0,0,2.8,2.16,10.55,10.55,0,0,0,4.26.83,10.14,10.14,0,0,0,3.72-.63,5.21,5.21,0,0,0,2.4-1.72,4,4,0,0,0,.79-2.38,3.64,3.64,0,0,0-.76-2.28,5.62,5.62,0,0,0-2.51-1.64A50.09,50.09,0,0,0,145,15.44a25.22,25.22,0,0,1-5.37-1.73,7.55,7.55,0,0,1-3-2.59,6.34,6.34,0,0,1-1-3.46,7,7,0,0,1,1.19-3.93A7.41,7.41,0,0,1,140.33,1a13.28,13.28,0,0,1,5.1-.95,13.8,13.8,0,0,1,5.45,1,7.86,7.86,0,0,1,3.63,2.92,8.46,8.46,0,0,1,1.37,4.38l-3.53.27a5.7,5.7,0,0,0-1.92-4,7.5,7.5,0,0,0-4.85-1.35,7.74,7.74,0,0,0-4.86,1.23,3.64,3.64,0,0,0-1.53,2.94,3.18,3.18,0,0,0,1.08,2.47q1.06,1,5.55,2A37.55,37.55,0,0,1,152,13.63a8.49,8.49,0,0,1,3.59,2.84,6.89,6.89,0,0,1,1.15,4,7.53,7.53,0,0,1-1.27,4.18,8.3,8.3,0,0,1-3.65,3,12.63,12.63,0,0,1-5.35,1.09,15.89,15.89,0,0,1-6.33-1.1,8.85,8.85,0,0,1-4-3.3A9.38,9.38,0,0,1,134.58,19.34Z"/><path class="cls-2" d="M174.44,20.89l3.36.44A8.71,8.71,0,0,1,175,26.76a8.18,8.18,0,0,1-5.56,2A8.62,8.62,0,0,1,162.77,26c-1.68-1.8-2.51-4.38-2.51-7.74a14,14,0,0,1,1.08-5.71,7.57,7.57,0,0,1,3.29-3.67,9.79,9.79,0,0,1,4.8-1.22,8.34,8.34,0,0,1,5.37,1.66,7.56,7.56,0,0,1,2.67,4.71l-3.31.51a5.54,5.54,0,0,0-1.68-3.05,4.35,4.35,0,0,0-2.91-1,5.3,5.3,0,0,0-4.19,1.85c-1.08,1.24-1.61,3.19-1.61,5.85s.51,4.67,1.55,5.9a5.06,5.06,0,0,0,4.06,1.84,4.76,4.76,0,0,0,3.35-1.23A6.11,6.11,0,0,0,174.44,20.89Z"/><path class="cls-2" d="M180.72,28.27V.47h3.41v10a7.61,7.61,0,0,1,6-2.77,8.12,8.12,0,0,1,3.89.88A5.2,5.2,0,0,1,196.41,11a11.28,11.28,0,0,1,.71,4.51V28.27H193.7V15.51a5.33,5.33,0,0,0-1.1-3.73,4.16,4.16,0,0,0-3.14-1.16,5.59,5.59,0,0,0-2.86.78,4.47,4.47,0,0,0-1.9,2.14,9.75,9.75,0,0,0-.57,3.71v11Z"/><path class="cls-2" d="M204.55,18.2q0,3.87,1.69,5.8a5.62,5.62,0,0,0,8.47,0q1.69-1.93,1.69-5.9a8.27,8.27,0,0,0-1.7-5.66,5.61,5.61,0,0,0-8.46,0C205.11,13.7,204.55,15.62,204.55,18.2Zm-3.51,0q0-5.59,3.11-8.28a9.33,9.33,0,0,1,6.34-2.24,9,9,0,0,1,6.78,2.72,10.34,10.34,0,0,1,2.64,7.52A13.25,13.25,0,0,1,218.74,24a8.2,8.2,0,0,1-3.39,3.46,9.92,9.92,0,0,1-4.86,1.24A9.06,9.06,0,0,1,203.65,26C201.91,24.21,201,21.6,201,18.2Z"/><path class="cls-2" d="M226.15,18.2q0,3.87,1.68,5.8a5.63,5.63,0,0,0,8.48,0q1.69-1.93,1.69-5.9a8.32,8.32,0,0,0-1.7-5.66,5.62,5.62,0,0,0-8.47,0C226.71,13.7,226.15,15.62,226.15,18.2Zm-3.51,0q0-5.59,3.11-8.28a9.32,9.32,0,0,1,6.33-2.24,9.05,9.05,0,0,1,6.79,2.72,10.33,10.33,0,0,1,2.63,7.52A13.26,13.26,0,0,1,240.34,24a8.22,8.22,0,0,1-3.4,3.46,9.87,9.87,0,0,1-4.86,1.24A9,9,0,0,1,225.25,26C223.51,24.21,222.64,21.6,222.64,18.2Z"/><rect class="cls-2" x="245.43" y="0.47" width="3.41" height="27.8"/></svg>