<svg id="Layer_1" data-name="Layer 1" xmlns="http://www.w3.org/2000/svg" viewBox="0 0 525.07 147.32"><defs><style>.cls-1,.cls-4{fill:#144c91;}.cls-1,.cls-2,.cls-3{fill-rule:evenodd;}.cls-2,.cls-5{fill:#038647;}.cls-3{fill:#f79421;}.cls-4{stroke:#144c91;stroke-miterlimit:10;}</style></defs><path class="cls-1" d="M0,13.28v119l62.89-90.1a14,14,0,0,1,22.34-.9l5.43,6.59s28.14-19.28,59.41,4.69l7.74-10.81a14,14,0,0,1,23.23.6l46.66,72.73.47-103.14A11.88,11.88,0,0,0,216.21,0H11.79C5.27,0,0,6.75,0,13.28Z"/><path class="cls-2" d="M137.5,146.54H5.38L68.72,58.07a5.67,5.67,0,0,1,9.31.14Z"/><path class="cls-2" d="M162.25,58.94l-35,48.65,26,38.95h74.07L171.62,59.2A5.66,5.66,0,0,0,162.25,58.94Z"/><path class="cls-3" d="M97.36,63.39l20.08,31.77L139.66,65.3a26.08,26.08,0,0,0-21.27-11C104.06,54.31,97.36,63.39,97.36,63.39Z"/><polygon class="cls-4" points="237.52 67.61 237.52 1.36 246.28 1.36 246.28 28.56 280.72 28.56 280.72 1.36 289.49 1.36 289.49 67.61 280.72 67.61 280.72 36.38 246.28 36.38 246.28 67.61 237.52 67.61"/><path class="cls-4" d="M303.09,67.61v-48h8.13v48Zm0-56.9V1.36h8.13v9.35Z"/><rect class="cls-4" x="323.42" y="1.36" width="8.13" height="66.25"/><rect class="cls-4" x="343.98" y="1.36" width="8.13" height="66.25"/><path class="cls-4" d="M361.47,53.28l8-1.26a11.26,11.26,0,0,0,3.77,7.41c2.06,1.71,4.95,2.57,8.65,2.57s6.51-.76,8.32-2.28A6.82,6.82,0,0,0,393,54.37,4.94,4.94,0,0,0,390.58,50q-1.68-1.1-8.32-2.76a76.1,76.1,0,0,1-12.4-3.91,11.8,11.8,0,0,1-7-11,12.33,12.33,0,0,1,1.47-5.94,13.16,13.16,0,0,1,4-4.55,16.87,16.87,0,0,1,5.17-2.37,24.58,24.58,0,0,1,7-1,27.69,27.69,0,0,1,9.92,1.63,13.46,13.46,0,0,1,6.3,4.4,17.16,17.16,0,0,1,2.8,7.44l-7.95,1.08a8.68,8.68,0,0,0-3.14-5.78q-2.6-2.09-7.34-2.08-5.61,0-8,1.85a5.4,5.4,0,0,0-2.4,4.34,4.48,4.48,0,0,0,1,2.85,7.26,7.26,0,0,0,3.11,2.17c.82.3,3.21,1,7.19,2.07a100.09,100.09,0,0,1,12,3.78,12.22,12.22,0,0,1,5.36,4.27,12,12,0,0,1,1.94,7A13.68,13.68,0,0,1,399,61.17a15.38,15.38,0,0,1-6.85,5.56,24.89,24.89,0,0,1-10.12,2q-9.36,0-14.26-3.89T361.47,53.28Z"/><path class="cls-4" d="M411.05,67.61v-48h8.13v48Zm0-56.9V1.36h8.13v9.35Z"/><path class="cls-4" d="M437,43.66q0,9.21,3.88,13.78A11.73,11.73,0,0,0,450.05,62a11.51,11.51,0,0,0,9.06-4.36q3.72-4.37,3.72-13.31,0-9.84-3.79-14.46a11.69,11.69,0,0,0-9.36-4.61,11.29,11.29,0,0,0-9.06,4.43Q437,34.12,437,43.66Zm25.71,24V61.55q-4.56,7.14-13.42,7.14a18.83,18.83,0,0,1-10.56-3.16,20.86,20.86,0,0,1-7.45-8.84,30.54,30.54,0,0,1-2.64-13,34.07,34.07,0,0,1,2.39-13,18.89,18.89,0,0,1,7.19-9,19.19,19.19,0,0,1,10.71-3.12,16,16,0,0,1,7.72,1.83,16.2,16.2,0,0,1,5.52,4.77V1.36h8.08V67.61Z"/><path class="cls-4" d="M489.18,39H516q-.54-6.06-3.08-9.08a12.41,12.41,0,0,0-10.07-4.7A12.94,12.94,0,0,0,493.4,29,14.85,14.85,0,0,0,489.18,39Zm26.71,13.15,8.4,1a20.49,20.49,0,0,1-7.36,11.43q-5.38,4.06-13.74,4.07-10.53,0-16.7-6.48T480.32,44q0-12.12,6.24-18.8t16.18-6.69a20.5,20.5,0,0,1,15.72,6.55q6.1,6.56,6.11,18.44c0,.48,0,1.2-.05,2.17H488.73q.45,7.91,4.47,12.11a13.32,13.32,0,0,0,10,4.2,12.42,12.42,0,0,0,7.64-2.35Q514,57.31,515.89,52.15Z"/><path class="cls-5" d="M237.52,124.91l8.27-.72a18.31,18.31,0,0,0,2.73,8.16,14.91,14.91,0,0,0,6.67,5.15,25.22,25.22,0,0,0,10.16,2,24.44,24.44,0,0,0,8.86-1.49,12.29,12.29,0,0,0,5.72-4.09,9.47,9.47,0,0,0,1.87-5.67,8.67,8.67,0,0,0-1.8-5.45,13.41,13.41,0,0,0-6-3.9,116.68,116.68,0,0,0-11.79-3.24q-9.14-2.19-12.79-4.13a17.86,17.86,0,0,1-7.07-6.17,15.05,15.05,0,0,1-2.33-8.25,16.86,16.86,0,0,1,2.84-9.37,17.57,17.57,0,0,1,8.32-6.62,31.47,31.47,0,0,1,12.16-2.26,33.23,33.23,0,0,1,13,2.37,18.74,18.74,0,0,1,8.65,7,20,20,0,0,1,3.25,10.44l-8.4.63q-.67-6.28-4.59-9.49t-11.54-3.21q-8,0-11.59,2.92a8.72,8.72,0,0,0-3.64,7,7.55,7.55,0,0,0,2.57,5.87q2.53,2.31,13.22,4.72T279,111.31a20.19,20.19,0,0,1,8.54,6.75,16.53,16.53,0,0,1,2.75,9.43,18.08,18.08,0,0,1-3,10,20,20,0,0,1-8.7,7.28,30.35,30.35,0,0,1-12.77,2.59q-9,0-15.07-2.62a21,21,0,0,1-9.53-7.88A22.31,22.31,0,0,1,237.52,124.91Z"/><path class="cls-5" d="M332.51,128.62l8,1q-1.31,8.26-6.7,12.94a19.58,19.58,0,0,1-13.27,4.68q-9.86,0-15.84-6.44t-6-18.46a33.33,33.33,0,0,1,2.58-13.6,18,18,0,0,1,7.84-8.75,23.3,23.3,0,0,1,11.46-2.91q7.82,0,12.79,3.95a18.19,18.19,0,0,1,6.37,11.23l-7.91,1.22a13.1,13.1,0,0,0-4-7.27,10.34,10.34,0,0,0-6.94-2.44,12.62,12.62,0,0,0-10,4.4c-2.57,2.94-3.84,7.59-3.84,13.94s1.23,11.14,3.7,14.06a12.06,12.06,0,0,0,9.67,4.38,11.4,11.4,0,0,0,8-2.94C330.58,135.7,331.93,132.68,332.51,128.62Z"/><path class="cls-5" d="M347.46,146.19V80h8.14v23.77A18.18,18.18,0,0,1,370,97.12a19.38,19.38,0,0,1,9.26,2.1,12.36,12.36,0,0,1,5.63,5.81q1.69,3.7,1.69,10.75v30.41h-8.13V115.78c0-4.06-.88-7-2.64-8.88s-4.26-2.78-7.48-2.78a13.18,13.18,0,0,0-6.8,1.88,10.6,10.6,0,0,0-4.55,5.08,23.44,23.44,0,0,0-1.35,8.86v26.25Z"/><path class="cls-5" d="M404.27,122.2q0,9.22,4,13.81a13.4,13.4,0,0,0,20.2,0q4-4.6,4-14,0-8.91-4-13.49a13.4,13.4,0,0,0-20.18,0Q404.27,113,404.27,122.2Zm-8.36,0q0-13.33,7.41-19.75a22.36,22.36,0,0,1,15.09-5.33q9.9,0,16.18,6.48t6.28,17.92q0,9.27-2.78,14.58a19.71,19.71,0,0,1-8.09,8.24,23.5,23.5,0,0,1-11.59,2.94q-10.08,0-16.29-6.46T395.91,122.2Z"/><path class="cls-5" d="M455.74,122.2q0,9.22,4,13.81a13.4,13.4,0,0,0,20.2,0q4-4.6,4-14,0-8.91-4-13.49a13.4,13.4,0,0,0-20.18,0Q455.74,113,455.74,122.2Zm-8.36,0q0-13.33,7.41-19.75a22.37,22.37,0,0,1,15.1-5.33q9.89,0,16.17,6.48t6.28,17.92q0,9.27-2.77,14.58a19.77,19.77,0,0,1-8.09,8.24,23.55,23.55,0,0,1-11.59,2.94q-10.08,0-16.3-6.46T447.38,122.2Z"/><rect class="cls-5" x="501.7" y="79.95" width="8.13" height="66.25"/></svg>