<svg id="Layer_1" data-name="Layer 1" xmlns="http://www.w3.org/2000/svg" viewBox="0 0 209.46 134.52"><defs><style>.cls-1{fill:#144c91;}.cls-1,.cls-2,.cls-3{fill-rule:evenodd;}.cls-2{fill:#038647;}.cls-3{fill:#f79421;}</style></defs><path class="cls-1" d="M0,12.19V121.42L57.74,38.71a12.88,12.88,0,0,1,20.5-.82l5,6s25.83-17.7,54.53,4.31l7.11-9.92a12.89,12.89,0,0,1,21.32.55L209,105.64,209.46,11A10.89,10.89,0,0,0,198.49,0L10.83,1.29A10.9,10.9,0,0,0,0,12.19Z"/><path class="cls-2" d="M126.23,134.52H4.94L63.09,53.31a5.2,5.2,0,0,1,8.54.12Z"/><path class="cls-2" d="M149,54.1,116.8,98.77l23.91,35.75h68L157.55,54.35A5.2,5.2,0,0,0,149,54.1Z"/><path class="cls-3" d="M89.38,58.19l18.43,29.17L128.21,60a24,24,0,0,0-19.53-10.09C95.52,49.86,89.38,58.19,89.38,58.19Z"/></svg>