<svg id="Layer_1" data-name="Layer 1" xmlns="http://www.w3.org/2000/svg" viewBox="0 0 460 200"><defs><style>.cls-1{fill:#084f95;}.cls-2{fill:#0b8a44;}.cls-3{fill:#f69322;}</style></defs><path class="cls-1" d="M287.21,111.77a5.32,5.32,0,0,1,5,3,13.13,13.13,0,0,1,.47,3.45c0,.63-.1.94-.31.94l.16.32a19.62,19.62,0,0,1-.94,3.6l1.88,6.42v.16q0,2-2.2,7.21a11.92,11.92,0,0,0-.31,2.35v1.25a25.39,25.39,0,0,1,1.72,7.36,25.53,25.53,0,0,1-2.19,8.31l.16.31a13,13,0,0,0-.63,2.82q.39,0,.63,2.19c.13,0,.39.58.78,1.73a8.54,8.54,0,0,0-.16,1.25,1.28,1.28,0,0,0,.16.47,8.41,8.41,0,0,1-1.57,3.45c-1,2-3.21,3-6.73,3q-4.44,0-5.8-5.17l-.16-1.41a5.61,5.61,0,0,1,.32-1.56c-.14,0-.45-.89-.94-2.67-.24,0-.55-1.25-.94-3.76,0-.23.62-2.27,1.88-6.11a28.05,28.05,0,0,0,.31-3.13v-1.88l-1.72-6.74v-.15h.15a1.27,1.27,0,0,1-.15-.47,1.22,1.22,0,0,1,.15-.47,1.22,1.22,0,0,0-.15-.47,40.39,40.39,0,0,1,1.72-7.05,5.47,5.47,0,0,1,.47-1.88,1.16,1.16,0,0,1-.16-.47h.16a1.16,1.16,0,0,1-.16-.47l.16-.32-.16-.31.16-.78a41.93,41.93,0,0,1-.63-5.49,11,11,0,0,1,1.88-5.33q3.64-3.43,7.52-3.44Z"/><path class="cls-1" d="M157,112h.32c1.69,0,2.84.53,3.44,1.57q1.58,1.14,1.57,4.86v.62a.14.14,0,0,1-.16.16.15.15,0,0,0,.16.16,17.11,17.11,0,0,0-.47,3,41,41,0,0,0,1.1,5.49,16.85,16.85,0,0,1-2,7.67,2.13,2.13,0,0,1-.16,1.1.14.14,0,0,0,.16.16l-.16,1.41c0,1.51.73,3.5,2.2,6a8.84,8.84,0,0,0,.47,2.19,1.16,1.16,0,0,0-.16.47,1.07,1.07,0,0,0,.16.47,26.76,26.76,0,0,1-2.51,7.84,3.39,3.39,0,0,0,2.19,3.45l1.73.47h1.56a2.65,2.65,0,0,0,1.26-.32,1.11,1.11,0,0,0,.47.16l.31-.16q3.45,1,4.54,3.14a8.84,8.84,0,0,1,1.26,3.76q0,2.07-2.67,4.38a19.89,19.89,0,0,1-3.13.94,25.19,25.19,0,0,1-6.58-1.25h-1.57l-2.35.78a14,14,0,0,1-4.38.63q-2.91,0-5.8-3.13a7.68,7.68,0,0,1-1.57-4.23q0-1.26,1.88-7.21v-1.1a95,95,0,0,0-1.72-10.34v-1.57a43,43,0,0,1,1.72-7.36,5.69,5.69,0,0,0,.47-2.82,8.18,8.18,0,0,0-.15-1.25,1.27,1.27,0,0,0,.15-.47,86,86,0,0,1-1.09-10q.59-4,2.19-5.8,2.9-3.14,4.7-3.13C154.3,112.32,155.19,112.11,157,112Z"/><path class="cls-2" d="M318.78,164.91h-2.45c-1.42,0-3,.07-4.78.2-1.11.09-1.88.14-2.31.14a6.08,6.08,0,0,1-3.7-1.05,3.28,3.28,0,0,1-1.43-2.75,2.56,2.56,0,0,1,.63-1.85,4.41,4.41,0,0,1,2.05-1.07,2.89,2.89,0,0,0,1.84-1.11,8.37,8.37,0,0,0,.74-3c.18-1.69.35-5,.5-9.91s.22-9.79.22-14.63a10.68,10.68,0,0,0-.44-3.8,3.35,3.35,0,0,0-2.08-1.53,3.11,3.11,0,0,1-2.34-3,2.89,2.89,0,0,1,1.61-2.6,9.09,9.09,0,0,1,4.5-.93l2.24,0c1.9.07,3.28.1,4.14.1q4.86,0,11-.3c.86,0,1.93-.07,3.22-.07q7.79,0,12.29,1.77a19.12,19.12,0,0,1,10.12,8.89,26.86,26.86,0,0,1,3,13.1,27.31,27.31,0,0,1-1.12,7.69,23.67,23.67,0,0,1-3,6.67,20.78,20.78,0,0,1-10.86,8,27.23,27.23,0,0,1-8.69,1.36l-4.11-.13L326,165Q321.9,164.9,318.78,164.91Zm7.13-36.8v26.28a4.14,4.14,0,0,0,.91,3,4.27,4.27,0,0,0,3.06.9q9.92,0,9.91-15.07,0-8.31-2.31-12.9-2.55-5.05-8.62-5.06a3.23,3.23,0,0,0-2.29.65A3,3,0,0,0,325.91,128.11Z"/><path class="cls-2" d="M75.69,117.66q10.59,0,10.59,4.37a3.23,3.23,0,0,1-.54,1.94,7,7,0,0,1-2.07,1.66A3.62,3.62,0,0,0,82,127.77a25.08,25.08,0,0,0-.36,5.36c0,1.59.3,2.56.88,2.92a3.13,3.13,0,0,0,1.55.41c.69,0,2.31.07,4.87.07a15,15,0,0,0,4.35-.37c.56-.25.84-.88.84-1.87a32.47,32.47,0,0,0-.4-6.25,3.48,3.48,0,0,0-1.6-2.41,7.06,7.06,0,0,1-2-1.44,2.44,2.44,0,0,1-.47-1.58,3.64,3.64,0,0,1,1-2.53,5.31,5.31,0,0,1,2.75-1.54,38.49,38.49,0,0,1,8.86-.85q6.24,0,9.22,1.14c2,.75,3,1.94,3,3.54a3.28,3.28,0,0,1-2.11,3.06,4.6,4.6,0,0,0-1.73,1.17,5.2,5.2,0,0,0-.65,2.09c-.09.56-.2,3.08-.33,7.53s-.21,8-.21,10.63q0,6.89.51,8.76a3.15,3.15,0,0,0,.61,1.35,13.79,13.79,0,0,0,2.14,1.36,2.34,2.34,0,0,1,1.29,2.18q0,2.58-3.07,3.75t-10,1.17q-6,0-8.93-1.19c-1.75-.72-2.62-1.84-2.62-3.36a3.33,3.33,0,0,1,2-3,3.82,3.82,0,0,0,1.34-1.09,6.91,6.91,0,0,0,.69-2,33.79,33.79,0,0,0,.61-7c0-1.43-.21-2.31-.62-2.65s-1.51-.51-3.28-.51q-6.07,0-7.74.68c-.45.18-.74.71-.85,1.59a34.46,34.46,0,0,0-.2,4c0,2.58.36,4.43,1.08,5.57a6.35,6.35,0,0,0,1.77,1.39,2.83,2.83,0,0,1,1.42,2.68c0,1.58-1.09,2.79-3.29,3.63a27.38,27.38,0,0,1-9.4,1.26,29.89,29.89,0,0,1-9.1-1.16,5.62,5.62,0,0,1-2.39-1.44,3,3,0,0,1-.87-2A2.46,2.46,0,0,1,61.2,159a9.1,9.1,0,0,1,2.37-1.57,2.83,2.83,0,0,0,1.34-1.22,7.86,7.86,0,0,0,.6-2.51A84.9,84.9,0,0,0,66,143.35c0-.79,0-1.73,0-2.82q-.14-8.15-.13-9.3a8.92,8.92,0,0,0-.5-3.85,6.56,6.56,0,0,0-2.76-2,2.29,2.29,0,0,1-1.5-2.14q0-3.43,6.66-4.75A40.11,40.11,0,0,1,75.69,117.66Z"/><path class="cls-2" d="M204.39,133.08v15.59c0,3.5.3,5.77.92,6.78.74,1.2,2.32,1.8,4.71,1.8a9.9,9.9,0,0,0,6.11-1.69,9.09,9.09,0,0,0,3.13-5.3c.34-1.47,1.11-2.21,2.31-2.21a3.44,3.44,0,0,1,2.93,1.62,7.09,7.09,0,0,1,1.14,4.19,16.64,16.64,0,0,1-3.12,9,8.47,8.47,0,0,1-1.73,2.09,2.88,2.88,0,0,1-1.8.56l-7.54-.91H187.72a7,7,0,0,1-3.29-.55A2.52,2.52,0,0,1,183,161.7a1.92,1.92,0,0,1,.46-1.41,9.66,9.66,0,0,1,2.22-1.31,4.4,4.4,0,0,0,2.48-2.58c.29-.92.44-3.63.44-8.11q0-3.12-.17-9c-.12-3.76-.18-6.59-.21-8.49a11,11,0,0,0-.42-3.72,2.66,2.66,0,0,0-1.78-1.44,11.76,11.76,0,0,1-2.85-1.26,2.42,2.42,0,0,1-1.09-1.93q0-2.47,4.11-3.77a31.54,31.54,0,0,1,9.37-1.12,52.51,52.51,0,0,1,9.84.68q4.22.91,4.21,3.67a2.23,2.23,0,0,1-.56,1.66,10.38,10.38,0,0,1-2.73,1.46,2.76,2.76,0,0,0-1.63,2A32.55,32.55,0,0,0,204.39,133.08Z"/><path class="cls-3" d="M375.68,146.34a6.82,6.82,0,0,0,0,9.59,6.58,6.58,0,0,0,4.79,2H408v7.62H380.47a13.9,13.9,0,0,1-10.17-4.21,14.38,14.38,0,0,1,0-20.33,15.24,15.24,0,0,1,1.41-1.24,13.45,13.45,0,0,1,.66-18.24,12.71,12.71,0,0,1,9.37-3.93H408v7.69H381.74a5.47,5.47,0,0,0-4,1.65,5.75,5.75,0,0,0-.1,8,26.92,26.92,0,0,1,3.93-3.14,16.32,16.32,0,0,1,10-2.75,12.81,12.81,0,0,1,5.28,1.51,12.28,12.28,0,0,1,4.06,3.66,9.84,9.84,0,0,1,1.8,6.1,11.42,11.42,0,0,1-2,6.06,10.59,10.59,0,0,1-6.58,4.35,16,16,0,0,1-7.86-.48,24.86,24.86,0,0,1-6.86-3.35,19.88,19.88,0,0,1-2.14-1.72A7.93,7.93,0,0,0,375.68,146.34Zm12.68-3.44a7.88,7.88,0,0,0,4.07.34,3.1,3.1,0,0,0,2-1.27,3.5,3.5,0,0,0,.69-1.93,2.36,2.36,0,0,0-.38-1.45,4.88,4.88,0,0,0-1.55-1.41,5,5,0,0,0-2.1-.59,8.67,8.67,0,0,0-5.38,1.59,15.54,15.54,0,0,0-2.55,2l.59.45A15.89,15.89,0,0,0,388.36,142.9Z"/><path class="cls-3" d="M128,117.53h7.38a42.75,42.75,0,0,1,1.1,15.48,48.17,48.17,0,0,1-2.41,9.65,46.18,46.18,0,0,0-2.31,9.3,35,35,0,0,0,1.14,13.58h-7.28a41.51,41.51,0,0,1-.82-14.27,46.63,46.63,0,0,1,2.38-9.75,47,47,0,0,0,2.3-9.24A33.68,33.68,0,0,0,128,117.53Z"/><path class="cls-3" d="M240.2,125.45a6,6,0,0,0-2.76,3.14,3.55,3.55,0,0,0,1.76,4.34,37.11,37.11,0,0,0,8.62,3.9,28.7,28.7,0,0,1,12.3,6.89,12.52,12.52,0,0,1-.37,18.44,19.57,19.57,0,0,1-12,4.38,23.62,23.62,0,0,1-5.83-.38,19.63,19.63,0,0,1-8.82-3.93,14.47,14.47,0,0,1-4.91-7.74,8.38,8.38,0,0,1,9-11.06,13.53,13.53,0,0,1,7.4,2.43,8,8,0,0,1,3.65,6,10,10,0,0,1-1,4.45l-7.34-2.52a2.56,2.56,0,0,0,.37-1.24,2.06,2.06,0,0,0-.31-1.38,2.88,2.88,0,0,0-2.05-1,1.83,1.83,0,0,0-1.86.87c-.4.66-.2,1.75.61,3.26a8.82,8.82,0,0,0,5,4,12.4,12.4,0,0,0,2.8.63,15.74,15.74,0,0,0,2.86.12,15.17,15.17,0,0,0,3.65-.62,8.63,8.63,0,0,0,3.31-1.72,5.06,5.06,0,0,0,1.69-2.93,5.51,5.51,0,0,0-1.62-4.76,29.34,29.34,0,0,0-10.76-5.65,43.22,43.22,0,0,1-9-4.1,11.9,11.9,0,0,1-4.66-5.72,10.51,10.51,0,0,1-.06-7.21q3.78-8.64,13.68-9.61a25.18,25.18,0,0,1,15.13,3.13,12.27,12.27,0,0,1,5.31,7,9.22,9.22,0,0,1-1.62,8.36q-4.17,3.45-10.1,2t-7-6.89a9.07,9.07,0,0,1,.86-4.59l7.41,2.17a3.51,3.51,0,0,0-.34,1.52,1.29,1.29,0,0,0,.58,1.07,1.93,1.93,0,0,0,1.24.34,1.48,1.48,0,0,0,1.45-1.72,3.47,3.47,0,0,0-.48-1.27,8.61,8.61,0,0,0-5.31-3,20.51,20.51,0,0,0-6.38-.5A9.94,9.94,0,0,0,240.2,125.45Z"/><path class="cls-1" d="M230.37,32.73q6.47,0,8.46,3.76a24.69,24.69,0,0,0,3.77,4.7,8,8,0,0,1,3.76,2.5,9.76,9.76,0,0,1,.62,1.73,38.69,38.69,0,0,1-1.09,8V54a10.91,10.91,0,0,0,.62,3.76,12.56,12.56,0,0,0,3,7,9.21,9.21,0,0,1,.94,3.6,19.59,19.59,0,0,1-2,7.36,25.67,25.67,0,0,0-1.72,5q.51,0,.78,3.6a5.75,5.75,0,0,0-.15,1.41l.15.31a8.76,8.76,0,0,1-1.56,4.23,4.6,4.6,0,0,1-3.92,2.2,8.84,8.84,0,0,1-3.76-1.26,4.89,4.89,0,0,1-1.88-4.07l.15-.94a11.21,11.21,0,0,0-1.56-3,4.6,4.6,0,0,0-.16-1.25,21.4,21.4,0,0,1,1.88-7,6.76,6.76,0,0,0,.47-1.72c0-1.47-.63-2.2-1.88-2.2a10.27,10.27,0,0,0-3.45,1.57h-.15a.14.14,0,0,1-.16-.16l-.78.16H229l-3.44-2-.32.47v1.41a9.22,9.22,0,0,1,.94,3.29c-.18,0-.39.73-.62,2.2a5.19,5.19,0,0,0-1.1,3.13,38.28,38.28,0,0,1,1.41,6.74q-1.68,4.35-4.07,5.17c-.42.31-1.67.52-3.76.62q-4.23-1.1-4.23-2.82a9.4,9.4,0,0,1-1.26-3.91c-1.67-2.54-2.5-4.15-2.5-4.86-.11,0-.16-.26-.16-.78a8.84,8.84,0,0,1,1.41-4.55,11.22,11.22,0,0,0,.63-3.13,1.16,1.16,0,0,1-.16-.47h.16l-.16-.31V71.58a48.15,48.15,0,0,0-1.41-5,11.07,11.07,0,0,1-.16-2v-.15c2.2-5.38,3.29-8.2,3.29-8.46a35.94,35.94,0,0,0-.94-5.64A5.33,5.33,0,0,1,214.39,46,14.63,14.63,0,0,1,218,42.6q2.82-3.3,2.82-4.23c0-1,1.09-2.14,3.29-3.45Q229,33.87,230.37,32.73ZM225.83,52a1.28,1.28,0,0,1,.16.47h-.16a1.28,1.28,0,0,1,.16.47,14.77,14.77,0,0,1-1.73,6.11c0,.08.06.39.16.94h.31a10.53,10.53,0,0,1,3-.47,2.64,2.64,0,0,1,.94.31l.78-.15a5.71,5.71,0,0,1,2.67,2,1.17,1.17,0,0,0,.62.16c1.05-.81,1.57-1.49,1.57-2a6.9,6.9,0,0,0-1.25-2.5l-.47-2.67a15.35,15.35,0,0,0,1.72-4.23v-.78q0-1.49-2.19-2l-1.88-.47Q226.38,49.5,225.83,52Z"/><path class="cls-2" d="M108.93,63.13l6.42,13.75a9.68,9.68,0,0,0,1.53,2.5,3.38,3.38,0,0,0,1.86.79c1.63.25,2.45,1.08,2.45,2.48q0,2.47-3,3.57t-9.78,1.08a72.73,72.73,0,0,1-11.37-.64,5.3,5.3,0,0,1-2.7-1.24,3,3,0,0,1-1-2.26,2.23,2.23,0,0,1,.53-1.58,4.79,4.79,0,0,1,2-1c1.06-.36,1.59-1,1.59-1.84,0-1.51-.91-2.41-2.74-2.68a65.45,65.45,0,0,0-8.32-.4q-4.52,0-5.4.54A2.75,2.75,0,0,0,80,77.39a4.07,4.07,0,0,0-.41,1.7,1.22,1.22,0,0,0,.29,1,9.37,9.37,0,0,0,1.89.73,2.45,2.45,0,0,1,2.07,2.44q0,4-9.68,4a31.56,31.56,0,0,1-8.08-.75,3,3,0,0,1-2.37-3.12,2.33,2.33,0,0,1,.52-1.63,4.63,4.63,0,0,1,1.89-1,7.29,7.29,0,0,0,3.34-2.19,32.87,32.87,0,0,0,3.24-6L77.5,62a82.11,82.11,0,0,0,3.55-8.64A19.72,19.72,0,0,0,82,47.76a17.42,17.42,0,0,1,.36-4.06,5,5,0,0,1,1.44-2.22,8,8,0,0,1,6-2.38,9.92,9.92,0,0,1,6.55,2.68Q100.65,45.44,108.93,63.13ZM85.31,67.41H92q1.83,0,1.83-.81,0-1.12-2.54-5.5a18,18,0,0,0-1.77-2.69,1.75,1.75,0,0,0-1.29-.67c-.81,0-1.49.75-2,2.27-.09.2-.41,1-1,2.41a19.31,19.31,0,0,0-1.43,4.14C83.74,67.13,84.26,67.41,85.31,67.41Z"/><path class="cls-2" d="M266.74,39.34a54,54,0,0,1,10.15.71,5.05,5.05,0,0,1,2.57,1.2,2.76,2.76,0,0,1,1,2.06,2.9,2.9,0,0,1-.74,1.8,4.18,4.18,0,0,0-1.09,2c0,.81.64,2.12,1.93,3.9.84,1.16,1.63,1.74,2.38,1.74a2.24,2.24,0,0,0,1.39-.53,12.49,12.49,0,0,0,1.77-1.88,4.93,4.93,0,0,0,1.32-2.65,2.16,2.16,0,0,0-.15-.92,12.49,12.49,0,0,0-1.1-1.46,3.05,3.05,0,0,1-.68-2.1q0-3.84,10.38-3.84a33,33,0,0,1,7.64.54,3.6,3.6,0,0,1,1.85,1.29,3.29,3.29,0,0,1,.73,2,2.56,2.56,0,0,1-.85,2.1,6.42,6.42,0,0,1-2.95,1.09,7.78,7.78,0,0,0-3.36,1.48,58,58,0,0,0-5.23,5.17q-4.62,5-5.75,7.35a16.86,16.86,0,0,0-1.14,7.05c0,2.62.1,5.06.31,7.3a7.22,7.22,0,0,0,.64,2.87,4.87,4.87,0,0,0,2,1.57c1.65.86,2.48,1.94,2.48,3.23q0,4.62-13.65,4.62A50,50,0,0,1,267.93,86q-4.21-.92-4.21-3.63c0-1.41.86-2.41,2.58-3a3.87,3.87,0,0,0,2.41-1.74q1.1-2.34,1.09-11.06a12.77,12.77,0,0,0-.55-4.23,16.12,16.12,0,0,0-2.37-3.92,88.38,88.38,0,0,0-7.91-9,10.19,10.19,0,0,0-3.4-2.34,12,12,0,0,1-2.78-1.25,2.75,2.75,0,0,1-.95-2.18q0-2.27,3.43-3.27T266.74,39.34Z"/><path class="cls-3" d="M358.31,81.93a6.93,6.93,0,0,0-2.59-.34,10.63,10.63,0,0,0-3.58,1.21,17.11,17.11,0,0,1-6.35,1.86,13.5,13.5,0,0,1-3.61-.31A15,15,0,0,1,338,82.73c-.41-.23-.81-.49-1.2-.76l-1.9,5.24h-8l17.58-48h8.79l17.58,48h-8l-1.07-3A8.8,8.8,0,0,0,358.31,81.93ZM340.24,75.7a5.8,5.8,0,0,0,1.18.89,9.36,9.36,0,0,0,2.27.93,6.64,6.64,0,0,0,1.79.11,11.68,11.68,0,0,0,3.8-1.24,15.83,15.83,0,0,1,6.27-1.8,14.38,14.38,0,0,1,2.69.14l-9.41-25.64-9.34,25.57A6.45,6.45,0,0,0,340.24,75.7Z"/><path class="cls-3" d="M157.23,87.21h-1.9a20.88,20.88,0,0,1-2.76-18,21.67,21.67,0,0,1,4.9-7.79,31.81,31.81,0,0,0,3.44-4.62,11.69,11.69,0,0,0,1.66-5.55,13.24,13.24,0,0,0-.55-4.35V39.19h20.16c5.22,0,9.48,1.37,12.81,4.11a22.84,22.84,0,0,1,7.15,10.34,29.22,29.22,0,0,1,0,19.06A23.06,23.06,0,0,1,195,83.07q-5,4.14-12.79,4.14h-25ZM169.6,51.46a16.56,16.56,0,0,1-2,7.69,30.25,30.25,0,0,1-3.94,5.31,18.94,18.94,0,0,0-4.35,6.79,12.46,12.46,0,0,0,.14,8.31h22.75a12.29,12.29,0,0,0,8.17-2.68,14.72,14.72,0,0,0,4.58-6.7,21.3,21.3,0,0,0,0-14,14.75,14.75,0,0,0-4.62-6.72,12.39,12.39,0,0,0-8.17-2.66h-13A20.15,20.15,0,0,1,169.6,51.46Z"/><path class="cls-1" d="M404.79,49.46c-.15,0-.22,0-.22-.08,0-2.35-4.56-2.73-5.7-2.81h-7.52V83.1c.08,1.06.53,5.54,2.89,5.54a.17.17,0,0,1,.15.15c0,.15-.08.23-.15.23H379c-.07,0-.07-.08-.07-.23s0-.15.07-.15c2.43,0,2.81-4.48,2.89-5.54V46.57h-7.52c-1.06.08-5.69.46-5.69,2.81,0,.08-.08.08-.16.08s-.22,0-.22-.08v-12H405v12C405,49.46,404.87,49.46,404.79,49.46Z"/></svg>