<svg xmlns="http://www.w3.org/2000/svg" viewBox="0 0 450.41 68.01"><defs><style>.a{fill:#fff;}</style></defs><path class="a" d="M166.32,0h1.26c3.67.44,5.52,2,5.52,4.79a10.82,10.82,0,0,1-.54,3.57l.18.71a4.35,4.35,0,0,1-.18.71,12.84,12.84,0,0,0,2,5.16l.53,2a14.76,14.76,0,0,1-1.42,6.76,41.84,41.84,0,0,0-1.26,5.88,22.53,22.53,0,0,0,2.14,7.65L175,39.5v2.14c0,1.93-1.12,4.88-3.39,8.9a24.37,24.37,0,0,0-.35,4.09l.18,1.26h-.18a3.81,3.81,0,0,1,.35,1.6q-.53,7.38-6.75,9.25h-1.1l-.7-.18a1.51,1.51,0,0,1-.72.18q-5.22-1.56-6.76-4.27a3.88,3.88,0,0,1-1.26-1.6v-.36a.16.16,0,0,1,.12-.18h.06L154,58.91a23.74,23.74,0,0,0,.19-2.52,7.44,7.44,0,0,0-4.11-6.93,9.91,9.91,0,0,0-2.12-2c-1.2-.76-2.14-2.78-2.86-6.05l.19-.88a10.06,10.06,0,0,0-2.68-7l-.71-.35a66.78,66.78,0,0,1,1.6,8.18l-1.26,3.78c-.41,0-.89,1.37-1.42,4.1A67.19,67.19,0,0,1,142.08,58l-.35.19.17.88v.54q-2.27,6.4-5.51,7.65a7.9,7.9,0,0,1-3.77.7c-3.1-.7-4.64-1.42-4.64-2.12-1.54-1.7-2.31-3-2.31-3.92a3.81,3.81,0,0,1,.18-1.07l-.18-.89a34.59,34.59,0,0,0,2.52-11.21,54,54,0,0,0-2-7.83,1.8,1.8,0,0,0-.17-.89q0-2.85,3.21-12.27a22.64,22.64,0,0,0,.52-3.56,83.57,83.57,0,0,1-2.51-10c-.12,0-.24-.18-.35-.54.41-4.2,1.07-6.57,2-7.11a7.62,7.62,0,0,1,3.46-4.48,8.5,8.5,0,0,1,5-1.78h.9c1.77,0,4,1.84,6.75,5.51a5.52,5.52,0,0,0,4.28,5.71,10.45,10.45,0,0,1,4.45,5.86.17.17,0,0,0-.18.15v0l.35.18c0,.24,0,.36-.17.36.12,1.6.17,2.78.17,3.56V24l-.17,1.06a1.84,1.84,0,0,1,.17.89v.18a1.39,1.39,0,0,1-.17.72c0,.56.95,1.57,2.84,3a1.24,1.24,0,0,0-.18-.53q0-2.71,3.92-9.26a8,8,0,0,1,.36-2q0-.76-1.26-7.3A13,13,0,0,1,163,2,9.65,9.65,0,0,1,166.32,0Z"/><path class="a" d="M311.52,6.61a25.13,25.13,0,0,1,10.87,2.51,10.22,10.22,0,0,0,3.44,1.16,11.45,11.45,0,0,0,2.24-.34,4.18,4.18,0,0,1,1.12-.12,4.44,4.44,0,0,1,3.51,1.85,16.87,16.87,0,0,1,3.7,11.11,7.62,7.62,0,0,1-3.21,6.74,6.91,6.91,0,0,1-3.89,1.16,5.56,5.56,0,0,1-3.2-.84,8.26,8.26,0,0,1-2.39-3,33.89,33.89,0,0,0-2.7-4.38A12.57,12.57,0,0,0,318.49,20a13.52,13.52,0,0,0-7.83-2.61,7.7,7.7,0,0,0-6.29,2.87A11.81,11.81,0,0,0,302,28a22.91,22.91,0,0,0,3.35,12.14,14.46,14.46,0,0,0,13,7.36,19.19,19.19,0,0,0,6.19-1,12.34,12.34,0,0,0,4.75-2.69,4.08,4.08,0,0,1,2.4-1.4,2.86,2.86,0,0,1,2.31,1.26,4.82,4.82,0,0,1,1,3,11.48,11.48,0,0,1-1.35,5A13,13,0,0,1,330.46,56a8.56,8.56,0,0,1-3.36,1.15,16.82,16.82,0,0,0-3.89,1.43,27.15,27.15,0,0,1-11.88,2.74,31.15,31.15,0,0,1-12.88-2.88,27.46,27.46,0,0,1-16-24.4,25.29,25.29,0,0,1,5.32-15.62,29.65,29.65,0,0,1,12.07-9.38A29,29,0,0,1,311.52,6.61Z"/><path class="a" d="M91.46,6.61a27.68,27.68,0,0,1,17.32,5.67,29.13,29.13,0,0,1,8.13,10.07,27.76,27.76,0,0,1,3,12.35,24.68,24.68,0,0,1-6,16.27,28.3,28.3,0,0,1-13.3,8.81A33.29,33.29,0,0,1,90.5,61.4a30.43,30.43,0,0,1-12.77-2.78A25.78,25.78,0,0,1,66.21,48.4a26.94,26.94,0,0,1-4-14.46,26.32,26.32,0,0,1,5.21-16.18A26.78,26.78,0,0,1,79.82,8.57,32.34,32.34,0,0,1,91.46,6.61ZM87.8,17.67a5.83,5.83,0,0,0-5.13,2.89,8.93,8.93,0,0,0-1.46,5.19A34.88,34.88,0,0,0,83,35.82,45.49,45.49,0,0,0,87.45,46a9.56,9.56,0,0,0,3,3A6.55,6.55,0,0,0,94,50.1a5.78,5.78,0,0,0,4.72-2.2,8.85,8.85,0,0,0,1.8-5.78A37.71,37.71,0,0,0,99,32.05a35.08,35.08,0,0,0-3.89-9.21,12.52,12.52,0,0,0-3.4-3.7A7.27,7.27,0,0,0,87.8,17.67Z"/><path class="a" d="M264.29,55.26a7.77,7.77,0,0,0-3-.39,12.42,12.42,0,0,0-4.06,1.37,19.18,19.18,0,0,1-7.21,2.11A15.35,15.35,0,0,1,246,58a16.32,16.32,0,0,1-4.74-1.84c-.47-.26-.92-.55-1.37-.86l-2.15,6h-9.13l20-54.53h10l20,54.53h-9.13l-1.26-3.36A9.89,9.89,0,0,0,264.29,55.26Zm-20.53-7.09a6.33,6.33,0,0,0,1.34,1,9.88,9.88,0,0,0,2.58,1.06,7.28,7.28,0,0,0,2,.11A12.42,12.42,0,0,0,254,49a18,18,0,0,1,7.13-2,15.56,15.56,0,0,1,3.05.15L253.52,18,242.91,47a7,7,0,0,0,.85,1.17Z"/><path class="a" d="M48.6,13.86q11.2,12,.71,24.4A16.72,16.72,0,0,1,20.76,26.43v-.56h8.69a5.23,5.23,0,0,0,0,.56,8,8,0,0,0,7.93,8.13h.1a7.72,7.72,0,0,0,5.67-2.36A7.42,7.42,0,0,0,45.51,26a10,10,0,0,0-3-6,19.78,19.78,0,0,0-28,0h0a19.78,19.78,0,0,0,14,33.75,19.05,19.05,0,0,0,14-5.8,18.22,18.22,0,0,0,2-2.3h9.94a28.63,28.63,0,0,1-5.83,8.45,27.41,27.41,0,0,1-20.13,8.3A28.38,28.38,0,0,1,0,34.12V34A28.39,28.39,0,0,1,28.39,5.61h.13A27.4,27.4,0,0,1,48.6,13.86Z"/><path class="a" d="M427.84,7a16.14,16.14,0,0,1,3.24,3.1,16.62,16.62,0,0,1,4.51.11,11.36,11.36,0,0,1,6.29,3.13A11.73,11.73,0,0,1,445,19.64a16.15,16.15,0,0,1,.09,4.5,15.62,15.62,0,0,1,3.11,3.23,11.06,11.06,0,0,1,0,13.23,15.47,15.47,0,0,1-3.12,3.24,15.16,15.16,0,0,1-.13,4.51,11.47,11.47,0,0,1-3.09,6.29h0a11.37,11.37,0,0,1-6.22,3.14,17.39,17.39,0,0,1-4.5.11A16.13,16.13,0,0,1,427.9,61a11.16,11.16,0,0,1-13.28,0,15.82,15.82,0,0,1-3.24-3.09,17.46,17.46,0,0,1-4.51-.11,11.34,11.34,0,0,1-6.29-3.14,11.57,11.57,0,0,1-3.09-6.29,15.5,15.5,0,0,1-.12-4.51,15.76,15.76,0,0,1-3.13-3.24,11.09,11.09,0,0,1,0-13.23,16.12,16.12,0,0,1,3.13-3.26,15.36,15.36,0,0,1,.12-4.49,11.57,11.57,0,0,1,3.09-6.29h0a11.28,11.28,0,0,1,6.29-3.14,16.62,16.62,0,0,1,4.51-.11A15.82,15.82,0,0,1,414.66,7,11.1,11.1,0,0,1,427.9,7Zm-6.62,6a3.34,3.34,0,0,0-2,.71,10.72,10.72,0,0,0-2.65,3l-1.52,2.52-2.87-.65a10.35,10.35,0,0,0-4-.28,3.22,3.22,0,0,0-1.84.86,3.55,3.55,0,0,0-.87,1.88,10.14,10.14,0,0,0,.24,4l.67,2.82-2.52,1.56a9.32,9.32,0,0,0-3,2.67,3,3,0,0,0,0,3.77,9.18,9.18,0,0,0,3,2.66l2.52,1.57-.67,2.82a10.14,10.14,0,0,0-.24,4,3.62,3.62,0,0,0,.87,1.89,3.27,3.27,0,0,0,1.84.85,10.35,10.35,0,0,0,4-.28l2.87-.66,1.52,2.51a10.91,10.91,0,0,0,2.65,3,3.43,3.43,0,0,0,2,.71,3.35,3.35,0,0,0,1.91-.71,10.54,10.54,0,0,0,2.67-3l1.52-2.51,2.86.66a10.37,10.37,0,0,0,4,.28,3.24,3.24,0,0,0,1.83-.85,3.53,3.53,0,0,0,.86-1.89,9.78,9.78,0,0,0-.23-4L436,40.08l2.51-1.57a9,9,0,0,0,3-2.66,3,3,0,0,0,0-3.77,9.19,9.19,0,0,0-3-2.67L436,27.85l.66-2.82a9.78,9.78,0,0,0,.23-4,3.47,3.47,0,0,0-.86-1.88,3.19,3.19,0,0,0-1.83-.86,10.37,10.37,0,0,0-4,.28l-2.86.65-1.52-2.52a10.64,10.64,0,0,0-2.67-3A3.19,3.19,0,0,0,421.22,13Z"/><path class="a" d="M386,18.37c-.18,0-.27,0-.27-.08,0-2.67-5.17-3.11-6.47-3.2H370.7V56.62c.09,1.26.61,6.29,3.27,6.29a.19.19,0,0,1,.18.18c0,.17-.09.26-.18.26H356.65c-.09,0-.09-.09-.09-.26s0-.18.09-.18c2.75,0,3.18-5,3.27-6.29V15.09h-8.53c-1.26.09-6.49.53-6.49,3.2,0,.08-.07.08-.16.08s-.26,0-.26-.08V4.66h41.66V18.29C386.14,18.37,386.06,18.37,386,18.37Z"/><path class="a" d="M226.91,18.37c-.17,0-.25,0-.25-.08,0-2.67-5.18-3.11-6.48-3.2h-8.56V56.62c.09,1.26.61,6.29,3.27,6.29a.19.19,0,0,1,.18.18c0,.17-.09.26-.18.26h-17.3c-.09,0-.09-.09-.09-.26s0-.18.09-.18c2.76,0,3.18-5,3.27-6.29V15.09h-8.53c-1.26.09-6.47.53-6.47,3.2,0,.08-.09.08-.18.08s-.26,0-.26-.08V4.66h41.67V18.29C227.09,18.37,227,18.37,226.91,18.37Z"/></svg>