<svg id="Layer_1" data-name="Layer 1" xmlns="http://www.w3.org/2000/svg" viewBox="0 0 460 200"><defs><style>.cls-1{fill:#fff;}</style></defs><path class="cls-1" d="M179,76.54h1c2.92.35,4.39,1.62,4.39,3.81a8.43,8.43,0,0,1-.43,2.83l.14.57a3.51,3.51,0,0,1-.14.56,10.17,10.17,0,0,0,1.56,4.1l.42,1.56a11.65,11.65,0,0,1-1.13,5.37,32.48,32.48,0,0,0-1,4.67,17.83,17.83,0,0,0,1.7,6.08l.42,1.84v1.7c0,1.53-.89,3.88-2.69,7.07a18.47,18.47,0,0,0-.28,3.25l.14,1h-.14a3.07,3.07,0,0,1,.28,1.27q-.42,5.87-5.37,7.35H177l-.56-.14a1.1,1.1,0,0,1-.57.14q-4.14-1.23-5.37-3.39a3.1,3.1,0,0,1-1-1.27v-.29a.12.12,0,0,1,.14-.14l-.43-1.13a16.55,16.55,0,0,0,.15-2,5.91,5.91,0,0,0-3.26-5.51,7.94,7.94,0,0,0-1.69-1.56c-.95-.61-1.7-2.21-2.27-4.81l.15-.7a8,8,0,0,0-2.13-5.52l-.56-.28a53.38,53.38,0,0,1,1.27,6.5l-1,3c-.33,0-.71,1.09-1.13,3.26a54.63,54.63,0,0,1,1,6.92l-.28.15.14.7v.43q-1.8,5.09-4.38,6.08a6.38,6.38,0,0,1-3,.56c-2.46-.56-3.68-1.13-3.68-1.69-1.23-1.35-1.84-2.38-1.84-3.11,0-.07,0-.36.14-.85l-.14-.71a27.44,27.44,0,0,0,2-8.91,43.15,43.15,0,0,0-1.56-6.22,1.4,1.4,0,0,0-.14-.71q0-2.26,2.55-9.75a17.68,17.68,0,0,0,.42-2.83,65.71,65.71,0,0,1-2-7.92c-.09,0-.19-.14-.28-.43q.5-5,1.56-5.65A6.07,6.07,0,0,1,152,78.23a6.77,6.77,0,0,1,4-1.41h.71q2.12,0,5.37,4.38a4.37,4.37,0,0,0,3.4,4.53,8.31,8.31,0,0,1,3.53,4.66.13.13,0,0,0-.14.14l.28.15c0,.19,0,.28-.14.28.1,1.27.14,2.21.14,2.83v1.84l-.14.84a1.42,1.42,0,0,1,.14.71v.14a1.1,1.1,0,0,1-.14.57c0,.45.76,1.25,2.26,2.4a1,1,0,0,0-.14-.42q0-2.16,3.11-7.36a6.32,6.32,0,0,1,.29-1.55q0-.6-1-5.8a10.29,10.29,0,0,1,2.83-7.07A7.51,7.51,0,0,1,179,76.54Z"/><path class="cls-1" d="M294.38,81.79a20,20,0,0,1,8.64,2,8.12,8.12,0,0,0,2.73.92,9.42,9.42,0,0,0,1.78-.27,3.46,3.46,0,0,1,.89-.1,3.53,3.53,0,0,1,2.79,1.47,13.39,13.39,0,0,1,2.94,8.83A6.06,6.06,0,0,1,311.6,100a5.47,5.47,0,0,1-3.09.92,4.38,4.38,0,0,1-2.54-.67,6.62,6.62,0,0,1-1.9-2.39,26.7,26.7,0,0,0-2.15-3.48,9.76,9.76,0,0,0-2-1.92,10.72,10.72,0,0,0-6.22-2.08,6.13,6.13,0,0,0-5,2.28,9.39,9.39,0,0,0-1.85,6.12,18.27,18.27,0,0,0,2.66,9.65,11.5,11.5,0,0,0,10.36,5.85,15.31,15.31,0,0,0,4.92-.83,9.86,9.86,0,0,0,3.78-2.14,3.23,3.23,0,0,1,1.9-1.11,2.29,2.29,0,0,1,1.84,1,3.82,3.82,0,0,1,.76,2.4,9.19,9.19,0,0,1-1.07,4,10.26,10.26,0,0,1-2.57,3.46,6.8,6.8,0,0,1-2.67.92,13.32,13.32,0,0,0-3.09,1.13,21.6,21.6,0,0,1-9.44,2.18A24.61,24.61,0,0,1,284,123a21.83,21.83,0,0,1-12.72-19.39,20.1,20.1,0,0,1,4.23-12.41,23.55,23.55,0,0,1,9.59-7.45A23,23,0,0,1,294.38,81.79Z"/><path class="cls-1" d="M119.52,81.79a22,22,0,0,1,13.76,4.51,23.08,23.08,0,0,1,6.46,8,22,22,0,0,1,2.42,9.81,19.56,19.56,0,0,1-4.78,12.93,22.45,22.45,0,0,1-10.57,7,26.21,26.21,0,0,1-8.06,1.29,24.21,24.21,0,0,1-10.14-2.21A20.45,20.45,0,0,1,99.45,115a21.47,21.47,0,0,1-3.22-11.49,21,21,0,0,1,4.14-12.86,21.31,21.31,0,0,1,9.9-7.3A25.73,25.73,0,0,1,119.52,81.79Zm-2.91,8.79a4.65,4.65,0,0,0-4.08,2.3A7.16,7.16,0,0,0,111.37,97a27.5,27.5,0,0,0,1.41,8,36,36,0,0,0,3.55,8.07,7.67,7.67,0,0,0,2.35,2.39,5.15,5.15,0,0,0,2.83.89,4.59,4.59,0,0,0,3.75-1.75,7,7,0,0,0,1.43-4.59,29.82,29.82,0,0,0-1.2-8,27.76,27.76,0,0,0-3.09-7.32,9.88,9.88,0,0,0-2.7-2.94A5.8,5.8,0,0,0,116.61,90.58Z"/><path class="cls-1" d="M256.85,120.45a6.17,6.17,0,0,0-2.34-.31,9.9,9.9,0,0,0-3.23,1.09,15.26,15.26,0,0,1-5.73,1.68,12.09,12.09,0,0,1-3.26-.28,13,13,0,0,1-3.77-1.46c-.37-.21-.73-.44-1.09-.69l-1.71,4.73h-7.25l15.87-43.33h7.93l15.87,43.33h-7.25l-1-2.67A7.91,7.91,0,0,0,256.85,120.45Zm-16.31-5.63a5.31,5.31,0,0,0,1.06.81,8,8,0,0,0,2.05.84,5.8,5.8,0,0,0,1.62.09,10,10,0,0,0,3.42-1.12,14.26,14.26,0,0,1,5.67-1.61,12.25,12.25,0,0,1,2.42.12L248.29,90.8l-8.43,23.09A5.58,5.58,0,0,0,240.54,114.82Z"/><path class="cls-1" d="M85.46,87.55q8.9,9.58.56,19.39a13.28,13.28,0,0,1-22.68-9.4V97.1h6.9a3.25,3.25,0,0,0,0,.44A6.38,6.38,0,0,0,76.62,104a6.12,6.12,0,0,0,4.51-1.87A5.91,5.91,0,0,0,83,97.2a7.94,7.94,0,0,0-2.41-4.76,15.72,15.72,0,0,0-22.24,0A15.72,15.72,0,0,0,69.5,119.26a15.13,15.13,0,0,0,11.1-4.61,13.91,13.91,0,0,0,1.59-1.83h7.9a22.66,22.66,0,0,1-4.63,6.72,21.77,21.77,0,0,1-16,6.59,22.55,22.55,0,0,1-22.62-22.59A22.55,22.55,0,0,1,69.5,81,21.77,21.77,0,0,1,85.46,87.55Z"/><path class="cls-1" d="M386.81,82.11a12.9,12.9,0,0,1,2.58,2.46,13.27,13.27,0,0,1,3.58.09,9,9,0,0,1,5,2.49,9.31,9.31,0,0,1,2.49,5,12.83,12.83,0,0,1,.07,3.57A12.59,12.59,0,0,1,403,98.29a8.77,8.77,0,0,1,0,10.51,12.3,12.3,0,0,1-2.48,2.58,12.13,12.13,0,0,1-.1,3.58,9.13,9.13,0,0,1-2.46,5h0a9,9,0,0,1-4.94,2.49,13.69,13.69,0,0,1-3.58.09,12.9,12.9,0,0,1-2.58,2.46,8.87,8.87,0,0,1-10.55,0,12.9,12.9,0,0,1-2.58-2.46,13.68,13.68,0,0,1-3.58-.09,9,9,0,0,1-5-2.49,9.19,9.19,0,0,1-2.45-5,12.13,12.13,0,0,1-.1-3.58,12.61,12.61,0,0,1-2.49-2.58,8.81,8.81,0,0,1,0-10.51,12.91,12.91,0,0,1,2.49-2.59,12.08,12.08,0,0,1,.1-3.57,9.19,9.19,0,0,1,2.45-5h0a9,9,0,0,1,5-2.49,13.26,13.26,0,0,1,3.58-.09,12.51,12.51,0,0,1,2.61-2.46,8.82,8.82,0,0,1,10.52,0Zm-5.26,4.73a2.62,2.62,0,0,0-1.56.56,8.55,8.55,0,0,0-2.11,2.39l-1.21,2-2.28-.52a8.24,8.24,0,0,0-3.2-.22,2.59,2.59,0,0,0-1.46.68,2.79,2.79,0,0,0-.69,1.5,8,8,0,0,0,.19,3.2l.53,2.24-2,1.24a7.46,7.46,0,0,0-2.4,2.12,2.36,2.36,0,0,0,0,3,7.33,7.33,0,0,0,2.4,2.11l2,1.25-.53,2.24a8,8,0,0,0-.19,3.2,2.79,2.79,0,0,0,.69,1.5,2.59,2.59,0,0,0,1.46.68,8.24,8.24,0,0,0,3.2-.22l2.28-.53,1.21,2a8.55,8.55,0,0,0,2.11,2.39,2.69,2.69,0,0,0,1.56.56,2.6,2.6,0,0,0,1.52-.56,8.41,8.41,0,0,0,2.12-2.39l1.21-2,2.27.53a8.29,8.29,0,0,0,3.21.22,2.59,2.59,0,0,0,1.46-.68,2.79,2.79,0,0,0,.68-1.5,7.81,7.81,0,0,0-.18-3.2l-.53-2.24,2-1.25a7.18,7.18,0,0,0,2.39-2.11,2.36,2.36,0,0,0,0-3,7.31,7.31,0,0,0-2.39-2.12l-2-1.24.53-2.24a7.81,7.81,0,0,0,.18-3.2,2.79,2.79,0,0,0-.68-1.5,2.59,2.59,0,0,0-1.46-.68,8.29,8.29,0,0,0-3.21.22l-2.27.52-1.21-2a8.41,8.41,0,0,0-2.12-2.39A2.53,2.53,0,0,0,381.55,86.84Z"/><path class="cls-1" d="M353.54,91.14c-.14,0-.21,0-.21-.07,0-2.12-4.11-2.47-5.14-2.54h-6.78v33c.07,1,.48,5,2.6,5a.15.15,0,0,1,.14.14c0,.14-.07.21-.14.21H330.24c-.07,0-.07-.07-.07-.21s0-.14.07-.14c2.19,0,2.53-4,2.6-5v-33h-6.78c-1,.07-5.15.42-5.15,2.54,0,.07-.06.07-.13.07s-.21,0-.21-.07V80.24h33.11V91.07C353.68,91.14,353.61,91.14,353.54,91.14Z"/><path class="cls-1" d="M227.15,91.14c-.14,0-.2,0-.2-.07,0-2.12-4.12-2.47-5.15-2.54H215v33c.07,1,.48,5,2.6,5a.15.15,0,0,1,.14.14c0,.14-.07.21-.14.21H203.85c-.07,0-.07-.07-.07-.21s0-.14.07-.14c2.19,0,2.53-4,2.6-5v-33h-6.78c-1,.07-5.14.42-5.14,2.54,0,.07-.07.07-.14.07s-.21,0-.21-.07V80.24h33.11V91.07C227.29,91.14,227.22,91.14,227.15,91.14Z"/></svg>