<?xml version="1.0" encoding="utf-8"?>
<!-- Generator: Adobe Illustrator 26.3.1, SVG Export Plug-In . SVG Version: 6.00 Build 0)  -->
<svg version="1.1" id="Layer_1" xmlns="http://www.w3.org/2000/svg" xmlns:xlink="http://www.w3.org/1999/xlink" x="0px" y="0px"
	 viewBox="0 0 591.8 232" style="enable-background:new 0 0 591.8 232;" xml:space="preserve">
<style type="text/css">
	.st0{fill:#FFFFFF;}
</style>
<g>
	<path class="st0" d="M237,84.4h1.3c3.7,0.4,5.5,2,5.5,4.8c0,1.2-0.2,2.4-0.5,3.6l0.2,0.7c0,0.2-0.1,0.5-0.2,0.7
		c0.3,1.8,0.9,3.6,2,5.2l0.5,2c0.1,2.3-0.4,4.7-1.4,6.8c-0.6,1.9-1,3.9-1.3,5.9c0.3,2.7,1,5.2,2.1,7.7l0.5,2.3v2.1
		c0,1.9-1.1,4.9-3.4,8.9c-0.2,1.4-0.4,2.7-0.4,4.1l0.2,1.3h-0.2c0.2,0.5,0.4,1,0.4,1.6c-0.4,4.9-2.6,8-6.8,9.2h-1.1l-0.7-0.2
		c-0.2,0.1-0.5,0.2-0.7,0.2c-3.5-1-5.7-2.5-6.8-4.3c-0.6-0.4-1-1-1.3-1.6V145c0-0.1,0-0.2,0.1-0.2c0,0,0,0,0.1,0l-0.5-1.4
		c0.1-0.8,0.2-1.7,0.2-2.5c0.1-2.9-1.5-5.6-4.1-6.9c-0.6-0.8-1.3-1.4-2.1-2c-1.2-0.8-2.1-2.8-2.9-6.1l0.2-0.9c0-2.6-0.9-5.1-2.7-6.9
		l-0.7-0.4c0.7,2.7,1.2,5.4,1.6,8.2l-1.3,3.8c-0.4,0-0.9,1.4-1.4,4.1c0.6,2.9,1,5.8,1.3,8.7l-0.4,0.2l0.2,0.9v0.5
		c-1.5,4.3-3.3,6.8-5.5,7.7c-1.2,0.5-2.5,0.8-3.8,0.7c-3.1-0.7-4.6-1.4-4.6-2.1c-1.5-1.7-2.3-3-2.3-3.9c0-0.1,0-0.5,0.2-1.1
		l-0.2-0.9c1.5-3.6,2.3-7.4,2.5-11.2c-0.5-2.7-1.1-5.3-2-7.8c0-0.3,0-0.6-0.2-0.9c0-1.9,1.1-6,3.2-12.3c0.3-1.2,0.4-2.4,0.5-3.6
		c-1-3.3-1.9-6.6-2.5-10c-0.1,0-0.2-0.2-0.4-0.5c0.4-4.2,1.1-6.6,2-7.1c0.5-1.9,1.8-3.5,3.5-4.5c1.4-1.1,3.2-1.7,5-1.8h0.9
		c1.8,0,4,1.8,6.8,5.5c-0.2,2.7,1.6,5.1,4.3,5.7c2.1,1.4,3.7,3.4,4.4,5.9c-0.1,0-0.2,0.1-0.2,0.1l0,0l0.4,0.2c0,0.2,0,0.4-0.2,0.4
		c0.1,1.6,0.2,2.8,0.2,3.6v2.2l-0.2,1.1c0.1,0.3,0.2,0.6,0.2,0.9v0.2c0,0.3-0.1,0.5-0.2,0.7c0,0.6,1,1.6,2.8,3
		c0-0.2-0.1-0.4-0.2-0.5c0-1.8,1.3-4.9,3.9-9.3c0-0.7,0.2-1.3,0.4-2c0-0.5-0.4-2.9-1.3-7.3c0-3.3,1.3-6.5,3.6-8.9
		C234.7,85.5,235.8,84.8,237,84.4z"/>
	<path class="st0" d="M382.2,91c3.8,0,7.5,0.9,10.9,2.5c1.1,0.6,2.2,1,3.4,1.2c0.8,0,1.5-0.2,2.2-0.3c0.4-0.1,0.7-0.1,1.1-0.1
		c1.4,0,2.7,0.7,3.5,1.8c2.5,3.1,3.8,7.1,3.7,11.1c0.2,2.7-1,5.2-3.2,6.7c-1.2,0.8-2.5,1.2-3.9,1.2c-1.1,0.1-2.2-0.2-3.2-0.8
		c-1-0.8-1.8-1.8-2.4-3c-0.8-1.5-1.7-3-2.7-4.4c-0.7-0.9-1.6-1.7-2.5-2.4c-2.3-1.7-5-2.6-7.8-2.6c-2.4-0.1-4.8,1-6.3,2.9
		c-1.7,2.2-2.5,4.9-2.3,7.7c0,4.3,1.1,8.5,3.3,12.1c2.6,4.7,7.7,7.5,13,7.4c2.1,0,4.2-0.4,6.2-1c1.8-0.5,3.4-1.5,4.8-2.7
		c0.6-0.7,1.5-1.2,2.4-1.4c0.9,0,1.8,0.5,2.3,1.3c0.7,0.9,1,1.9,1,3c-0.1,1.8-0.5,3.5-1.3,5c-0.8,1.7-1.9,3.1-3.2,4.4
		c-1,0.6-2.2,1-3.4,1.2c-1.4,0.3-2.7,0.8-3.9,1.4c-3.7,1.8-7.8,2.7-11.9,2.7c-4.4,0-8.8-1-12.9-2.9c-9.6-4.4-15.8-13.9-16-24.4
		c0-5.7,1.9-11.2,5.3-15.6c3.1-4.1,7.3-7.4,12.1-9.4C374.2,91.8,378.2,91,382.2,91z"/>
	<path class="st0" d="M162.2,91c6.2-0.1,12.4,1.9,17.3,5.7c3.4,2.7,6.2,6.1,8.1,10.1c2,3.8,3,8,3,12.3c0,6-2.1,11.8-6,16.3
		c-3.5,4.2-8.1,7.2-13.3,8.8c-3.3,1.1-6.7,1.6-10.1,1.6c-4.4,0-8.8-0.9-12.8-2.8c-4.8-2.1-8.8-5.7-11.5-10.2
		c-2.7-4.3-4.1-9.4-4.1-14.5c-0.1-5.8,1.7-11.5,5.2-16.2c3.2-4.2,7.5-7.4,12.5-9.2C154.2,91.6,158.2,90.9,162.2,91z M158.5,102.1
		c-2.1,0-4.1,1.1-5.1,2.9c-1,1.5-1.5,3.3-1.5,5.2c0.1,3.4,0.7,6.8,1.8,10.1c1.1,3.6,2.6,7,4.5,10.2c0.8,1.2,1.8,2.2,3,3
		c1.1,0.7,2.3,1.1,3.6,1.1c1.8,0.1,3.6-0.8,4.7-2.2c1.3-1.7,1.9-3.7,1.8-5.8c0-3.4-0.6-6.8-1.5-10.1c-0.8-3.2-2.2-6.3-3.9-9.2
		c-0.9-1.5-2-2.7-3.4-3.7C161.3,102.7,159.9,102.2,158.5,102.1z"/>
	<path class="st0" d="M335,139.7c-0.9-0.3-1.9-0.5-2.9-0.4c-1.4,0.2-2.8,0.7-4.1,1.4c-2.2,1.2-4.7,1.9-7.2,2.1
		c-1.4,0.1-2.8,0-4.1-0.4c-1.7-0.4-3.3-1-4.7-1.8c-0.5-0.3-0.9-0.6-1.4-0.9l-2.2,6h-9.1l20-54.5h10l20,54.5h-9.1l-1.3-3.4
		C337.8,141.1,336.4,140.2,335,139.7z M314.5,132.6c0.4,0.4,0.8,0.7,1.3,1c0.8,0.5,1.7,0.8,2.6,1.1c0.7,0.1,1.4,0.2,2,0.1
		c1.5-0.2,3-0.7,4.3-1.4c2.2-1.2,4.6-1.9,7.1-2c1-0.1,2,0,3,0.2l-10.7-29.1l-10.5,28.9C313.8,131.8,314.1,132.2,314.5,132.6
		L314.5,132.6z"/>
	<path class="st0" d="M119.3,98.3c7.5,8,7.7,16.2,0.7,24.4c-6.5,6.5-17.1,6.5-23.6,0c-3.1-3.1-4.9-7.4-4.9-11.9v-0.6h8.7
		c0,0.2,0,0.4,0,0.6c-0.1,4.4,3.5,8.1,7.9,8.1h0.1c2.1,0,4.2-0.8,5.7-2.4c1.7-1.6,2.6-3.9,2.4-6.2c-0.3-2.3-1.4-4.4-3-6
		c-7.7-7.7-20.2-7.7-28,0l0,0c-7.7,7.7-7.7,20.3,0,28c3.7,3.7,8.7,5.8,14,5.8c5.3,0.1,10.3-2,14-5.8c0.7-0.7,1.4-1.5,2-2.3h9.9
		c-1.4,3.1-3.4,6-5.8,8.5c-5.3,5.4-12.6,8.4-20.1,8.3c-15.7,0-28.4-12.6-28.5-28.3v-0.1c0-15.7,12.7-28.4,28.4-28.4h0.1
		C106.8,89.9,114,92.9,119.3,98.3z"/>
	<path class="st0" d="M498.5,91.4c1.2,0.9,2.3,1.9,3.2,3.1c1.5-0.2,3-0.1,4.5,0.1c2.4,0.4,4.6,1.4,6.3,3.1c1.7,1.7,2.8,3.9,3.1,6.3
		c0.2,1.5,0.3,3,0.1,4.5c1.2,0.9,2.2,2,3.1,3.2c2.9,3.9,2.9,9.3,0,13.2c-0.9,1.2-1.9,2.3-3.1,3.2c0.2,1.5,0.1,3-0.1,4.5
		c-0.4,2.4-1.4,4.6-3.1,6.3l0,0c-1.7,1.7-3.9,2.8-6.2,3.1c-1.5,0.2-3,0.3-4.5,0.1c-0.9,1.2-2,2.2-3.2,3.1c-3.9,2.9-9.3,2.9-13.3,0
		c-1.2-0.9-2.3-1.9-3.2-3.1c-1.5,0.2-3,0.1-4.5-0.1c-2.4-0.4-4.6-1.4-6.3-3.1c-1.7-1.7-2.7-3.9-3.1-6.3c-0.3-1.5-0.3-3-0.1-4.5
		c-1.2-0.9-2.2-2-3.1-3.2c-2.9-3.9-2.9-9.3,0-13.2c0.9-1.2,1.9-2.3,3.1-3.3c-0.2-1.5-0.1-3,0.1-4.5c0.4-2.4,1.4-4.6,3.1-6.3l0,0
		c1.7-1.7,3.9-2.8,6.3-3.1c1.5-0.2,3-0.3,4.5-0.1c0.9-1.2,2-2.2,3.3-3.1C489.3,88.5,494.7,88.5,498.5,91.4L498.5,91.4z M491.9,97.4
		c-0.7,0-1.4,0.3-2,0.7c-1.1,0.8-2,1.8-2.7,3l-1.5,2.5l-2.9-0.7c-1.3-0.4-2.7-0.4-4-0.3c-0.7,0.1-1.3,0.4-1.8,0.9s-0.8,1.2-0.9,1.9
		c-0.2,1.3-0.1,2.7,0.2,4l0.7,2.8l-2.5,1.6c-1.2,0.7-2.2,1.6-3,2.7c-0.9,1.1-0.9,2.7,0,3.8c0.8,1.1,1.8,2,3,2.7l2.5,1.6l-0.7,2.8
		c-0.4,1.3-0.4,2.7-0.2,4c0.1,0.7,0.4,1.4,0.9,1.9s1.1,0.8,1.8,0.9c1.3,0.2,2.7,0.1,4-0.3l2.9-0.7l1.5,2.5c0.7,1.2,1.6,2.2,2.7,3
		c0.6,0.4,1.3,0.7,2,0.7s1.4-0.3,1.9-0.7c1.1-0.8,2-1.8,2.7-3l1.5-2.5l2.9,0.7c1.3,0.4,2.7,0.4,4,0.3c0.7-0.1,1.3-0.4,1.8-0.9
		s0.8-1.2,0.9-1.9c0.2-1.3,0.1-2.7-0.2-4l-0.7-2.8l2.5-1.6c1.2-0.6,2.2-1.6,3-2.7c0.9-1.1,0.9-2.7,0-3.8c-0.8-1.1-1.8-2-3-2.7
		l-2.5-1.6l0.7-2.8c0.4-1.3,0.4-2.7,0.2-4c-0.1-0.7-0.4-1.4-0.9-1.9s-1.1-0.8-1.8-0.9c-1.4-0.2-2.7-0.1-4,0.3l-2.9,0.7l-1.5-2.5
		c-0.7-1.2-1.6-2.2-2.7-3C493.3,97.6,492.6,97.4,491.9,97.4z"/>
	<path class="st0" d="M456.7,102.8c-0.2,0-0.3,0-0.3-0.1c0-2.7-5.2-3.1-6.5-3.2h-8.5V141c0.1,1.3,0.6,6.3,3.3,6.3
		c0.1,0,0.2,0.1,0.2,0.2c0,0.2-0.1,0.3-0.2,0.3h-17.3c-0.1,0-0.1-0.1-0.1-0.3s0-0.2,0.1-0.2c2.8,0,3.2-5,3.3-6.3V99.5h-8.5
		c-1.3,0.1-6.5,0.5-6.5,3.2c0,0.1-0.1,0.1-0.2,0.1s-0.3,0-0.3-0.1V89.1h41.7v13.6C456.8,102.8,456.7,102.8,456.7,102.8z"/>
	<path class="st0" d="M297.6,102.8c-0.2,0-0.3,0-0.3-0.1c0-2.7-5.2-3.1-6.5-3.2h-8.6V141c0.1,1.3,0.6,6.3,3.3,6.3
		c0.1,0,0.2,0.1,0.2,0.2c0,0.2-0.1,0.3-0.2,0.3h-17.3c-0.1,0-0.1-0.1-0.1-0.3s0-0.2,0.1-0.2c2.8,0,3.2-5,3.3-6.3V99.5H263
		c-1.3,0.1-6.5,0.5-6.5,3.2c0,0.1-0.1,0.1-0.2,0.1c-0.1,0-0.3,0-0.3-0.1V89.1h41.7v13.6C297.8,102.8,297.7,102.8,297.6,102.8z"/>
</g>
<g>
	<g>
		<g>
			<path class="st0" d="M592.9,21.6c0,0.1-0.1,0.4-0.1,0.4l0-0.5L592.9,21.6z"/>
			<path class="st0" d="M592.1,22.5c-0.1-0.3-0.1-0.7,0.1-1.2c0,0.5,0.1,0.3,0.1,0.9c0.1,0.1,0.2-0.1,0.2-0.3c0,0.1,0.2-0.1,0.1,0.2
				c-0.2,0.4-0.3,0.4-0.4,0C592.1,22.2,592.1,22.4,592.1,22.5z"/>
			<path class="st0" d="M583.4,21.8L583.4,21.8C583.5,21.8,583.5,21.8,583.4,21.8z"/>
			<path class="st0" d="M578.1,21.3c0,0,0,0.1,0,0.1C578.1,21.4,578.1,21.3,578.1,21.3z"/>
			<path class="st0" d="M577.1,21.7C577.1,21.7,577.1,21.7,577.1,21.7C577.1,21.7,577.1,21.8,577.1,21.7z"/>
			<path class="st0" d="M583.4,21.8l-0.2,0.1C583.3,21.7,583.4,21.8,583.4,21.8z"/>
			<path class="st0" d="M591.2,21c0,0,0,0.1,0.1,0.1C591.2,21.1,591.2,21.1,591.2,21C591.2,21.1,591.2,21,591.2,21z"/>
			<path class="st0" d="M585.7,22.6L585.7,22.6c0,0.1,0,0.1,0,0.2L585.7,22.6z"/>
			<path class="st0" d="M587.5,23c0,0,0-0.4,0-0.6c0,0.2,0,0.3,0,0.3C587.5,22.7,587.5,22.8,587.5,23z"/>
			<path class="st0" d="M590.4,22.7L590.4,22.7C590.5,22.7,590.5,22.7,590.4,22.7z"/>
			<path class="st0" d="M584.4,22.5c0,0.1,0,0.1,0,0.2C584.4,22.6,584.4,22.5,584.4,22.5z"/>
			<path class="st0" d="M533.7,16.2C533.7,16.2,533.7,16.2,533.7,16.2C533.7,16.2,533.7,16.2,533.7,16.2z"/>
			<path class="st0" d="M531.7,18.5L531.7,18.5c0,0.1,0,0.2,0,0.3L531.7,18.5z"/>
			<path class="st0" d="M575.4,22.1C575.4,22.1,575.4,22.1,575.4,22.1C575.4,22.1,575.4,22.1,575.4,22.1z"/>
			<path class="st0" d="M560.1,20.3c0.2-0.4-0.3-0.5,0-0.9C560.1,19.6,560.4,20.1,560.1,20.3z"/>
			<path class="st0" d="M591.1,21.1C591.1,21,591.1,21,591.1,21.1C591.1,21,591.1,21,591.1,21.1z"/>
			<path class="st0" d="M560.2,19.4L560.2,19.4L560.2,19.4C560.2,19.4,560.2,19.4,560.2,19.4z"/>
			<path class="st0" d="M571.6,21.4c0-0.1,0-0.1,0.1-0.2C571.6,21.2,571.6,21.3,571.6,21.4z"/>
			<path class="st0" d="M574.5,21.1L574.5,21.1C574.5,21.1,574.5,21.1,574.5,21.1z"/>
			<path class="st0" d="M570.2,20.6c0,0-0.1,0.1-0.1,0C570.1,20.6,570.1,20.6,570.2,20.6C570.1,20.6,570.1,20.7,570.2,20.6z"/>
			<path class="st0" d="M568.6,20.4C568.6,20.4,568.6,20.4,568.6,20.4C568.7,20.4,568.7,20.4,568.6,20.4L568.6,20.4z"/>
			<path class="st0" d="M538.5,16.2c0,0.1,0,0.3-0.1,0.4C538.5,16.3,538.2,16.2,538.5,16.2z"/>
			<path class="st0" d="M591.1,21.3c0-0.1,0-0.2,0-0.2c0,0,0,0,0,0C591.2,21.2,591.1,21.2,591.1,21.3z"/>
			<path class="st0" d="M570.5,17.1l-0.3,0C570.3,17.1,570.4,17.1,570.5,17.1z"/>
			<path class="st0" d="M549.8,16.3L549.8,16.3C549.8,16.2,549.8,16.2,549.8,16.3z"/>
			<path class="st0" d="M569.5,17c-0.1,0.2-0.1,0.2-0.2,0.3c0,0,0-0.1,0-0.1L569.5,17z"/>
			<path class="st0" d="M538.5,16.6L538.5,16.6L538.5,16.6z"/>
			<path class="st0" d="M536.9,16.1c-0.2-0.2-0.1,0.1-0.3,0.5c-0.1-0.5-0.2,0.2-0.3-0.6c-0.1,0.5,0,0.3-0.2,0.7
				c0.1-0.4-0.3-0.4-0.3-0.9c0,0.6,0.3,0.7,0.1,1.3c-0.1-0.4-0.4-0.5-0.4-1.1c-0.1,0.1-0.1,0.4-0.3,0.4c0,0,0.1,0.1,0.1,0.1
				c-0.3-0.4-0.7,0-0.9-0.7c0.1,0.9-0.6,0.1-0.3,1c-0.1,0-0.3-0.4-0.4-0.6c0,0.7-0.3,0.2-0.4,0.6c-0.1-0.4-0.3-0.2-0.4-0.5
				c0.1,0.1,0.1,0.2,0.1,0.4c-0.2-0.3-0.1,0-0.2,0.3c-0.2-0.2,0-0.5-0.1-0.9c-0.2,0.2,0,0.4,0,0.7l-0.3-0.7c0,0.1-0.1,0.2-0.1,0.4
				c-0.1-0.2-0.2-0.5-0.3-0.2l0.2,0l-0.1,0.4l-0.3-0.4c-0.3,0.5-0.2,1.3-0.1,2l0.2,0.1c0,0.2-0.1,0.4-0.1,0.4
				c-0.1,0.2,0.3,0.8,0.4,0.9c0.4-0.1,0-0.9,0.3-1.1l0.4,0.4l0-0.2c0.1-0.2,0.1,0.1,0.1,0.2c0-0.4,0.3-0.1,0.5-0.2l0,0.3
				c0.5,0.7,0.6-0.8,1-0.5l0.3,0.5l0-0.5c0.2,0.3,0.2,0.6,0.4,0.5c0.8-0.9,1.7,0.1,2.5-0.4c0,0.1,0,0.1-0.1,0.2
				c0.7-1.2,1.2,1.2,1.8,0.2l0-0.2c0.3,0.1,0-0.2,0.2-0.4c0.1,0.6,0.4,0.4,0.6,0.7c0-0.1-0.1-0.1-0.2-0.2c0-0.1,0-0.5,0.1-0.4
				c0.2,0.8,0.7,0.7,1,1c0-0.4,0.3-0.7,0.5-1.3c0,0.1,0.1,0.4,0.2,0.7c0.1-0.2,0.2-0.1,0.3,0.2c-0.1,0-0.2,0-0.3,0c0,0,0,0,0,0
				c0,0,0,0,0,0c-0.1,0-0.1,0-0.1-0.1c-0.1,0.4,0,0.3,0,0.7c0.1,0,0.3,0.1,0.4-0.2c0.1,0,0.1-0.1,0.2-0.1c0,0.1,0.1,0.1,0.1,0.1l0,0
				c0-0.1,0-0.1,0-0.1c0.2-0.2,0.5,0.5,0.7,0.8c-0.2-0.6,0-0.6,0-1c0,0-0.2,0.1-0.5,0.1c0,0,0-0.1,0-0.3c0.2-0.4,0.4,0.4,0.7,0.1
				c0,0-0.1-0.1-0.1-0.3c0.1-0.1,0.2,0.2,0.3,0.5c0-0.4,0.3-0.7,0.4-0.5c0.1,0.3,0.1,0.5,0.3,0.4l-0.1-0.3c0.2-0.2,0.2,0.4,0.4,0.2
				c-0.1,0.1-0.1-0.2,0-0.2c0.3,0.2,0.3,0.3,0.4,0.9l0-0.4c0.2,0.3,0.6,0.8,0.6,0.2c-0.1,0.9,0.5,0.5,0.7,0.5
				c-0.1,0-0.1-0.2-0.1-0.3c0.4,0.6,0.8,0,1.2,0l0.1-0.7c0.2,0,0.3,1.3,0.5,1.3l-0.1-0.3c0.4,0.1,0.6,0.1,0.9,0l0-0.4
				c0.1,0.2,0.3,0.2,0.4,0.4c0.3-1.1,1,0.6,1.6-0.6l0,0.8c0.2,0,0.4,0.2,0.5-0.5l0,0c0-0.6,0.2,0,0.3-0.1c0.1,0.1,0.2,0.5,0.1,0.6
				c0.5-0.4,1.2,0.1,1.6-0.7c0.5,0.3,0.8,1,1.4,0.9l0-0.1c0.2-0.1,0.6-0.3,0.6-1c0.4,0.2,0.6,1.1,1.1,0.9L556,20
				c0.1-0.1,0.3,0.2,0.3,0.3c0,0,0-0.2,0-0.2c0.1-0.2,0.2,0.1,0.3,0.2l0-0.2c0.4-0.5,0.9,0.5,1.4,0.4c-0.1-0.1,0-0.3,0-0.4
				c0.2,0.8,0.7,0.6,0.9,0.8l-0.1-0.3c0.4,0.5,0.4-0.8,0.7-0.3l-0.2,0.4c0.2-0.1,0.3,0,0.2,0.4c0.2-0.2,0.1-0.6,0.3-0.6
				c0-0.2-0.2-0.2-0.1-0.4l0.4-0.6c0-0.1,0.1-0.1,0.2,0c-0.1,1,0.3,0.1,0.1,1c0.5,0.1,1-0.5,1.5,0c0.3-0.9,0.9,0,1-1.2
				c0.3,0,0.5,0.3,0.6,0.8c-0.1,0.1-0.1-0.1-0.2-0.1c0,0.3,0.4,0.4,0.5,0.4c-0.1-0.3-0.4-0.5-0.5-1c0.2,0.1,0.5,0.6,0.6,0.8l0.1-0.6
				c0.2,0.5,0.2-0.5,0.4,0.1l-0.1,0.2c0.4,0,0.3,0.6,0.7,0.7l0-0.2c0.1-0.1,0.2,0.5,0.4,0l-0.2,0c0.1-0.4,0.2-0.6,0.3-0.8
				c0.2,0.1,0,0.7,0.1,0.8c0.1-0.4,0-0.2,0-0.6c0.3,0.2,0.6,0.4,0.7,0.9c0-0.1,0-0.2,0-0.2c0.3,0,0.5,0.7,0.6,0.4l0-0.1
				c0.3-0.6,0.5,0.6,0.6-0.4c0.1-0.2-0.2,0,0-0.5c0.4-0.3,0.1,0.9,0.4,0.6c0,0,0,0,0-0.1c0.2,0,0.5,0.2,0.7,0.3
				c0.4-0.8,0.8,0.3,1.3-0.6c-0.1,0.3,0,0.4,0,0.6c0,0,0-0.1,0-0.2c0.1,0,0.1,0.3,0.1,0.5c0.1-0.3,0.3,0.4,0.4,0.2
				c0,0.2,0.1,0.2,0.2,0.2c-0.2-0.3,0-0.5-0.1-0.8c0.3-0.1,0.3,1,0.6,0.8l0.2-0.4c0,0.6,0.3,0.4,0.3,0.6c0.1-0.2,0.2-0.3,0.2-0.6
				c0.1,0.2,0.3-0.1,0.4,0.2L572,21c0.4-0.2,0.6,0.7,0.9,0.3l0.1-0.9c0.2-0.4,0.3,0.5,0.6,0c-0.1,0.3-0.1,0.2,0,0.5
				c-0.1,0.1-0.2-0.2-0.3-0.2l0.2,0.6l-0.4-0.3c0.1,0.4,0.1,0.3,0,0.7c0.2,0.3,0.3-0.4,0.5,0c0.1-0.1,0.1-0.5,0.2-0.6
				c0.2,0.4,0.5-0.6,0.6-0.1c0.1-0.1-0.1,0,0-0.3c0.1,0.1,0.2,0.1,0.2,0.4l-0.1,0.1c0.1,0,0.1,0.4,0.3,0.2c0.1,0.2,0.1,0.7,0,0.7
				c0,0.1,0.2-0.2,0.2-0.5c0.3,0,0,1,0.4,0.6c0,0,0-0.1,0-0.1c0.1-0.1,0.1,0,0.2,0c-0.3-0.1,0.2-0.7-0.2-0.6
				c0.1-0.5,0.3-0.1,0.4-0.2c0.1,0.4-0.1,0.7,0,1c0-0.2,0.1-0.1,0.2-0.2l-0.1,0.4c0.1,0,0.1,0,0.2,0.1l-0.1-0.2
				c0.1,0,0.4-0.6,0.6-0.2c0-0.2-0.1-0.5,0.1-0.6c0.2,0.3,0.1-0.1,0.3-0.4c0.3,0.1,0,0.7,0.4,0.5c0,0,0,0.2-0.1,0.3
				c0.3-0.1,0.4,0.1,0.7-0.1c-0.1,0.1-0.2,0.2-0.1,0.4c0-0.3,0.3-0.3,0.4-0.4l0,0.2c0.1-0.2,0-0.3,0-0.4c0,0.1,0,0.1-0.1,0.1
				c-0.1-0.2,0-0.9,0.2-0.9c0.2,0.2,0.1,0.7,0,0.9c0.3-0.2,0.2,0.9,0.5,0.6c0.1,0,0.4-0.7,0.6-0.7c0,0.4-0.3,0.3-0.2,0.7
				c0.5-1,0.6,0.7,1.1,0.2l0-0.5c0.1,0,0.2,0,0.3,0l-0.2,0.3c0.1,0.1,0.3,0.1,0.3-0.3c0.2,0.5,0.3,0.2,0.5,0.1c-0.2,0,0,0.1-0.1-0.2
				c0.3-0.2,0.3,0,0.4,0.1c0-0.2,0.1-0.5,0.2-0.4c0.1,0.4,0.4,0.3,0.6,0.5l0-0.2c0.3,0.3,0.9-0.4,1.2,0.1l0,0l0,0c0,0,0,0,0,0l0,0
				c-0.2,0.5,0.2,0.4,0.3,0.6c0-0.1,0.1-0.3,0.2-0.3c-0.1,0.5,0.1,0.3,0.1,0.5c0.2-0.1,0.1-0.6,0.3-0.5c0.1,0.1,0.1,0.3,0,0.5
				c0.1-0.2,0.3-0.4,0.4-0.4c0-0.1-0.1,0-0.1,0c0-0.2,0.1-0.1,0.1-0.5c0.1,0,0,0.4,0.1,0.3l-0.1-0.4c0.1-0.1,0.1,0.1,0.1,0.1
				c-0.1-0.1,0-0.5,0.1-0.7c0.3,0.3-0.1,1-0.1,1.4c0.3-0.2,0.5,0.3,0.7,0.3l0-0.4c0.1,0.1,0.1,0.2,0.1,0.4l0.2,0
				c-0.1-0.2-0.1-0.3,0-0.7c0.2,0.1,0.4,0.1,0.4,0.7l0-0.1c0.3-0.2,0.8-0.2,0.8-0.4c0.2,0.2,0.6,0,0.5,0.5c0.1,0.2,0.5-0.7,0.5,0.1
				c0.2-0.3,0-0.2,0.1-0.6c0.2-0.3,0.3,0.6,0.5-0.2c0.2,0.3-0.1,0.2-0.1,0.5c0.2-0.7,0.4-0.1,0.7-0.4c0,0.3-0.1,0.2,0,0.5
				c0-0.2,0.1-0.2,0.1-0.2l0,0.5l0.4-1.1c0.2,0.6-0.2,0.8,0.1,1.1l0,0c0.2-0.5,0.2,0.4,0.6,0.1c-0.1,0.1,0-0.2,0-0.4l0.1,0.2
				c0,0,0-0.1,0-0.1c0.2-0.3,0.1,0.2,0.3-0.1c-0.1-0.1,0-0.5,0.1-0.6l0.1,0.6l0-0.7c0.2,0,0.4,1.1,0.7,0.2l-0.1-0.1
				c0-0.1,0.2-0.6,0.3-0.3c0,0.1,0,0.5-0.1,0.4l0.1-0.1c0-0.4-0.2-0.6-0.4-0.8c0,0.2,0.1,0.3,0,0.6c-0.1-0.2-0.2-0.5-0.4-0.6
				c0,0.2,0,0.5,0,0.6c-0.2,0.2-0.1-0.3-0.2-0.4c-0.1,0.2-0.1,0.3-0.1,0.4c-0.1-0.2-0.2-0.3-0.5-0.1c0,0,0.1,0.3,0,0.6
				c-0.3-0.3-0.2-0.8-0.5-1.2c-0.3-0.8-0.8,0.3-1-0.3c0-0.2,0.3-0.3,0.1-0.4c0,0.4-0.1,0.2-0.2,0.4c-0.1-0.6-0.3,0.1-0.4-0.3
				c0,0.1-0.1,0.3-0.2,0.4c-0.1,0.5-0.2,0.2-0.1,0.9c-0.2-0.8-0.5,0.1-0.6-1l0.1-0.1l-0.3,0.2l0,0c-0.1,0.1-0.1-0.1-0.4,0.4
				c0.1,0.1,0.2,0.1,0.2,0.3c-0.2,0.4-0.3-0.4-0.4-0.5c-0.1,0.3,0.2,0.2,0,0.6c-0.1,0-0.2-0.2-0.3-0.3l0,0.2c-0.4,0.4,0-1-0.3-0.3
				c0-0.1,0-0.2,0.1-0.3c-0.1,0.2-0.4,0.5-0.2,0.8c-0.1,0-0.2-0.2-0.2-0.4c0.1-0.3,0.1-0.1,0.2-0.5l-0.4-0.3c0,0,0,0.2,0.1,0.2
				c-0.7,0.9-0.9-1-1.6,0.1c0.1-0.3,0-0.3,0-0.5c-0.2,0.1-0.5-0.1-0.7,0.1l0,0.2c-0.4-0.3-0.6-0.7-0.9-0.6c0-0.1,0,0.3,0,0.4
				c-0.2-0.4-0.6,0.8-0.5-0.1l0.1-0.1c-0.4,0.1-0.8-0.6-1.2-0.8c-0.2,0.5,0.2,0.1,0.1,0.7c-0.3,0.2-0.6-0.3-0.9-0.2
				c0,0.1,0,0.1,0,0.2c-0.4,0.3,0.1-0.5-0.2-0.5c0,0.2,0,0.3-0.1,0.4l0-0.4c0,0.1-0.1,0.4,0,0.5c0-0.5-0.5-0.2-0.5-0.7
				c0,0.1,0,0.6-0.1,0.8c-0.2,0.1-0.2-0.1-0.3-0.3l0,0c-0.1,0.3-0.4,0.2-0.3,0.3c-0.3,0.1,0-0.3-0.2-0.6l0.2-0.2l-0.4-0.2l0.1,0.3
				c-0.2,0.2-0.3-0.3-0.5-0.3l0.1-0.3l-0.2-0.2c-0.1,0.6-0.3,0.1-0.3,0.8c-0.5,0.2-0.6-0.6-1-0.6c0.1,0,0,0.1,0,0.2
				c-0.2,0.1-0.3-0.2-0.4-0.5c0,0.2,0,0.3,0,0.4c-0.3,0-0.1-0.4-0.4-0.6c0,0.3,0,0.4-0.1,0.4c0-0.2,0-0.4-0.1-0.4
				c0.1,1.2-0.4,0.4-0.4,1.4c0-0.2-0.4-0.8-0.2-1.3l0.1,0.1c0-0.3-0.1-0.2-0.2-0.2c0,0.1,0.1,0.1,0.1,0.2c-0.4-0.4-0.8-0.1-1.3-0.5
				c0,0.1,0.2,0.4,0.1,0.4c-0.5,0.1-0.7-0.5-1.1-0.9c-0.1,0.7,0.5,0.2,0.4,0.9c-0.5-0.2-0.9-0.5-1.4-1c-0.3,1.1-0.5-0.5-0.9,0.3
				c0.1-0.4-0.1-0.5-0.3-0.5c0,0.3-0.2,0.3-0.1,0.5c-0.1-0.4-0.6-0.5-0.6,0.2c0-0.7-0.3,0-0.4-0.5c-0.2,0.2-0.4-0.2-0.7,0
				c0.1-0.4-0.2-0.2-0.3-0.4c0,0,0.1,0.1,0.1,0.2c-0.1,0.4-0.3-0.4-0.4-0.1c-0.1,0.2,0,0.4-0.1,0.4c0-0.3-0.3-0.7-0.5-0.3
				c0.1,0,0.1,0.2,0.1,0.3c-0.6-0.6-1.4,0-2-0.7l0.1,0.5c-0.5,0.6-0.2-0.9-0.6-0.8c-1,0.2-2,0.8-2.9,0.4c-0.1-0.2,0.1-0.2,0.1-0.4
				c-0.1,0.1-0.1,0.5-0.2,0.2l0-0.3c-0.5,0.7-1.2-0.6-1.6,0.6c-0.4-0.5-0.7,0.3-1.1-0.4c-0.2,0.2,0.1,0.5-0.1,0.6l-0.4-0.5l0,0
				c-0.4-0.9-1.2,0.9-1.7,0.3l0,0c0,0.2-0.1,0.4-0.2,0.4c0-0.1,0-0.2,0.1-0.4c-0.5-0.4-0.6-0.4-1-0.5c0.2,0.3-0.2,0.2-0.2,0.6
				c-0.1-0.3,0.1-0.4-0.1-0.6c-0.3-0.1-0.6,0.3-0.9,0.4c-0.1-0.4-0.2-0.3-0.2-0.7c-0.4,0-0.6-0.2-1-0.2l0,0.2
				c-0.1-0.6-0.4,0.3-0.5-0.1c0,0.2,0.1,0.3,0,0.4l-0.2-0.2c0.1,0.2,0.1,0.7,0,0.7c-0.2-0.4,0.1-0.3,0-0.6l-0.1,0.5
				c-0.1-0.1-0.1-0.6,0-0.8c-0.4,0-0.9-0.3-1.3-0.2l0,0.3c-0.2-0.1-0.5-0.1-0.6,0.2c0-0.1-0.1-0.3,0-0.4c-0.2-0.5,0,0.6-0.3,0.1
				c0.1,0.1,0.2,0.2,0.2,0.4l-0.5-0.4c0,0.2-0.3,0.8-0.6,0.6c0-0.1,0.1-0.3,0.1-0.4l-0.1-0.1l-0.1,0.6l-0.2-0.5l0,0.5
				c-0.2-0.1-0.2-0.7-0.3-0.7c-0.5,0.3-0.4,0.5-0.7,0.9c0-0.9-0.5,0-0.6-0.6c-0.4,0.7-1.1,0.3-1.7,0.5l0,0.1
				c-0.2,0.4-0.3-0.7-0.5-0.5l0.1,0.1c-0.3,0.5-0.9,0-1.3-0.4c0.1,0.1,0,0.4-0.1,0.4c-0.1-0.2,0.1-0.6-0.1-0.5c0,0.1,0,0.3,0,0.3
				l-0.2-0.5c-0.5,0.3-1,0.7-1.5,0.4c-0.1,0.2,0,0.3,0,0.5c-0.4-0.1-0.8-0.5-1.1-0.6l0,0.5c-0.2,0-0.1-0.8-0.3-0.3
				c0,0.1,0.1,0,0.2,0.3c-0.3,0.4-0.2-0.5-0.5-0.5l0.1,0.6c-0.2,0.4-0.3-0.3-0.4-0.7c-0.4-0.7-0.2,1.2-0.7,0.6
				c-0.1-0.3,0-0.4-0.1-0.7c-0.3,0.2-0.4-0.3-0.7-0.1c-0.2,0.9,0.2,0,0,0.8l0.3-0.2c-0.2,0.5,0.2,0.1,0.2,0.7
				c-0.2,0.2-0.4-0.3-0.6-0.5c0,0.4,0.3,0,0.2,0.6l-0.1-0.2c0,0.1,0,0.3,0.1,0.3c0,0.4-0.1,0-0.2,0c0-0.2,0-0.5,0-0.8
				c0,0,0,0.1,0,0.1c-0.2-0.6-0.6-0.1-0.8-0.6c0,0.1,0,0.2,0,0.3c-0.1,0-0.3-0.5-0.5-0.7c-0.1,0.3,0.1,0.9-0.2,0.7
				c-0.1-0.3,0-0.9-0.2-0.9C536.8,15.6,537,15.9,536.9,16.1z M542.3,16.8c0,0,0.1,0,0.1,0c0,0,0,0,0,0
				C542.3,16.8,542.3,16.8,542.3,16.8z M542.7,17.2c0,0-0.1-0.1-0.1-0.3c0.1,0,0.1,0,0.2,0C542.8,17,542.7,17.1,542.7,17.2z
				 M541.8,19.7C541.9,19.7,541.9,19.8,541.8,19.7c0.1,0.1,0.1,0.1,0.1,0.1c0,0.1,0,0.2-0.1,0.1C541.9,19.9,541.9,19.8,541.8,19.7z"
				/>
			<path class="st0" d="M541.7,19.4C541.7,19.4,541.7,19.3,541.7,19.4c0-0.1,0-0.1,0-0.1C541.8,19.3,541.8,19.3,541.7,19.4
				L541.7,19.4z"/>
			<path class="st0" d="M583.5,21.7L583.5,21.7C583.5,21.7,583.5,21.7,583.5,21.7C583.5,21.7,583.5,21.7,583.5,21.7z"/>
			<polygon class="st0" points="549.3,16.1 549.3,16.2 549.2,16.1 			"/>
			<path class="st0" d="M586.3,20.6c0,0,0-0.1,0.1-0.1C586.3,20.5,586.3,20.6,586.3,20.6z"/>
			<path class="st0" d="M587.4,20.7l0.2-0.1C587.5,20.7,587.4,20.7,587.4,20.7z"/>
			<path class="st0" d="M588.3,20.6c0,0.1,0,0.1,0,0.2l0,0L588.3,20.6z"/>
			<path class="st0" d="M574.9,18.1C574.9,18.1,574.9,18.1,574.9,18.1C574.8,18,574.9,18.1,574.9,18.1z"/>
			<path class="st0" d="M578.8,19.7c0-0.1-0.1-0.2-0.1-0.2C578.8,19.4,578.8,19.4,578.8,19.7z"/>
			<path class="st0" d="M570.5,17.1L570.5,17.1C570.5,17.1,570.5,17.1,570.5,17.1L570.5,17.1z"/>
			<path class="st0" d="M578.5,19.4c0.1-0.1,0.1-0.1,0.2,0C578.6,19.5,578.5,19.5,578.5,19.4z"/>
			<path class="st0" d="M591.9,21.1L591.9,21.1C592,21.1,592,21.1,591.9,21.1L591.9,21.1z"/>
			<path class="st0" d="M592,21.2L592,21.2C592,21.2,592,21.2,592,21.2z"/>
			<path class="st0" d="M592.1,21.4l-0.1-0.1C592,21.2,592.1,21.2,592.1,21.4z"/>
			<path class="st0" d="M590.8,21.1l0-0.2C590.8,21,590.8,21,590.8,21.1z"/>
			<path class="st0" d="M590.5,21c0.1,0,0.3-0.3,0.4-0.2l0,0.1C590.8,20.7,590.5,21.3,590.5,21z"/>
			<path class="st0" d="M588.7,22.7l0.3-0.1c-0.1,0.2-0.2,0.4-0.1,0.4C588.5,23.5,589.1,22.7,588.7,22.7z"/>
			<path class="st0" d="M587.8,22.8c0.1,0.1,0,0.2-0.1,0.3C587.7,23,587.6,22.9,587.8,22.8z"/>
			<path class="st0" d="M581.5,21.8l0,0.4C581.3,22.1,581.5,22,581.5,21.8z"/>
			<polygon class="st0" points="580.6,19.5 580.7,19.3 580.7,19.7 			"/>
			<polygon class="st0" points="579.5,22.3 579.5,22.3 579.3,22.2 			"/>
			<path class="st0" d="M568.9,20.9l0.1-0.5C569,20.5,569,21,568.9,20.9z"/>
			<path class="st0" d="M564.3,20c-0.1,0.2-0.2,0.4-0.3,0.1C564.1,20.1,564.3,19.9,564.3,20z"/>
			<polygon class="st0" points="550.4,20.1 550.5,20.2 550.3,20.1 			"/>
		</g>
		<g>
			<path class="st0" d="M580.4,63c-0.1,0.1-0.3,0.3-0.3,0.2l0.3-0.4L580.4,63z"/>
			<path class="st0" d="M579.3,63.3c0.1-0.3,0.3-0.7,0.7-1c-0.3,0.4-0.1,0.3-0.4,0.8c0,0.1,0.2,0,0.4-0.2c-0.1,0.1,0.2,0,0,0.3
				c-0.4,0.2-0.5,0.1-0.4-0.2C579.4,63.1,579.3,63.2,579.3,63.3z"/>
			<path class="st0" d="M572.2,58.4L572.2,58.4C572.2,58.4,572.2,58.4,572.2,58.4z"/>
			<path class="st0" d="M567.7,55.6c0,0,0,0.1,0,0.1C567.7,55.6,567.7,55.6,567.7,55.6z"/>
			<path class="st0" d="M566.7,55.5C566.7,55.5,566.7,55.5,566.7,55.5C566.7,55.6,566.6,55.6,566.7,55.5z"/>
			<path class="st0" d="M572.2,58.4l-0.2,0C572.1,58.3,572.1,58.4,572.2,58.4z"/>
			<path class="st0" d="M579.2,61.6c0,0,0,0.1,0,0.2C579.2,61.7,579.2,61.7,579.2,61.6C579.2,61.6,579.2,61.6,579.2,61.6z"/>
			<path class="st0" d="M573.8,60.2L573.8,60.2c0,0.1,0,0.1-0.1,0.2L573.8,60.2z"/>
			<path class="st0" d="M575.1,61.4c0,0,0.2-0.4,0.3-0.5c-0.1,0.2-0.1,0.2-0.1,0.3C575.2,61.2,575.2,61.3,575.1,61.4z"/>
			<path class="st0" d="M577.7,62.6L577.7,62.6C577.7,62.7,577.7,62.7,577.7,62.6z"/>
			<path class="st0" d="M572.7,59.5c0,0.1-0.1,0.1-0.1,0.1C572.6,59.5,572.7,59.5,572.7,59.5z"/>
			<path class="st0" d="M531,31.2C531,31.3,530.9,31.3,531,31.2C530.9,31.3,531,31.2,531,31.2z"/>
			<path class="st0" d="M528.1,32L528.1,32c0,0.1-0.1,0.2-0.1,0.2L528.1,32z"/>
			<path class="st0" d="M565,55.1C565,55.1,565,55.1,565,55.1C565,55.2,565,55.1,565,55.1z"/>
			<path class="st0" d="M552.1,47.2c0.3-0.3,0-0.6,0.4-0.8C552.4,46.5,552.4,47.1,552.1,47.2z"/>
			<path class="st0" d="M579.2,61.6C579.1,61.6,579.1,61.6,579.2,61.6C579.1,61.6,579.2,61.6,579.2,61.6z"/>
			<path class="st0" d="M552.5,46.3L552.5,46.3L552.5,46.3C552.5,46.3,552.5,46.3,552.5,46.3z"/>
			<path class="st0" d="M561.9,52.9c0-0.1,0.1-0.1,0.1-0.1C562,52.8,562,52.8,561.9,52.9z"/>
			<path class="st0" d="M564.6,53.8L564.6,53.8C564.6,53.8,564.6,53.8,564.6,53.8z"/>
			<path class="st0" d="M561,51.6c0,0-0.1,0.1-0.1,0C560.9,51.5,560.9,51.5,561,51.6C560.9,51.6,560.9,51.6,561,51.6z"/>
			<path class="st0" d="M559.6,50.8C559.7,50.8,559.7,50.7,559.6,50.8L559.6,50.8L559.6,50.8z"/>
			<path class="st0" d="M534.9,33.8c-0.1,0.1-0.2,0.2-0.3,0.3C534.8,33.8,534.7,33.6,534.9,33.8z"/>
			<path class="st0" d="M579.1,61.8c0.1-0.1,0.1-0.1,0.1-0.2c0,0,0,0,0,0.1C579.1,61.7,579.1,61.7,579.1,61.8z"/>
			<path class="st0" d="M562.7,48.5l-0.2-0.1C562.5,48.5,562.6,48.5,562.7,48.5z"/>
			<path class="st0" d="M544.6,39.1L544.6,39.1C544.6,39,544.6,39,544.6,39.1z"/>
			<path class="st0" d="M561.9,48c-0.1,0.1-0.2,0.2-0.3,0.2c0,0,0-0.1,0-0.1L561.9,48z"/>
			<path class="st0" d="M534.6,34.1L534.6,34.1L534.6,34.1z"/>
			<path class="st0" d="M533.6,32.9c-0.1-0.3-0.1,0.1-0.5,0.3c0.1-0.5-0.3,0,0.1-0.6c-0.3,0.4-0.2,0.3-0.5,0.5
				c0.3-0.3,0-0.5,0.2-0.9c-0.3,0.5-0.1,0.7-0.6,1.1c0.1-0.4-0.1-0.6,0.2-1.2c-0.2,0.1-0.3,0.2-0.5,0.2c0,0,0,0.1,0,0.2
				c0-0.5-0.6-0.3-0.3-1.1c-0.4,0.8-0.5-0.2-0.8,0.6c-0.1-0.1,0-0.5,0-0.7c-0.3,0.6-0.3,0-0.6,0.3c0.1-0.4-0.1-0.4-0.1-0.6
				c0,0.1,0,0.2-0.1,0.4c0-0.3-0.1-0.1-0.4,0.2c-0.1-0.3,0.3-0.4,0.4-0.8c-0.2,0.1-0.3,0.4-0.4,0.6l0.2-0.7c-0.1,0-0.2,0.1-0.3,0.3
				c0-0.2,0.1-0.5-0.2-0.3l0.2,0.1l-0.3,0.3l0-0.5c-0.6,0.3-0.9,0.9-1.2,1.6l0.1,0.2c-0.1,0.2-0.3,0.3-0.4,0.3
				c-0.1,0.1-0.2,0.8-0.1,1c0.4,0.2,0.5-0.7,0.9-0.7l0.1,0.6l0.1-0.2c0.1-0.1,0,0.1,0,0.2c0.2-0.3,0.3,0.1,0.5,0.1l-0.2,0.2
				c0,0.9,1-0.3,1.1,0.2l-0.1,0.6l0.3-0.4c0,0.3-0.2,0.6,0.1,0.6c1.1-0.3,1.4,1,2.3,1c-0.1,0.1-0.1,0.1-0.2,0.1
				c1.2-0.7,0.4,1.6,1.4,1.1l0-0.2c0.2,0.2,0-0.2,0.4-0.3c-0.2,0.5,0.1,0.6,0.2,0.9c0-0.1,0-0.1,0-0.2c0.1-0.1,0.3-0.4,0.3-0.3
				c-0.2,0.8,0.2,1,0.4,1.4c0.2-0.3,0.6-0.5,1.1-0.9c0,0.1-0.1,0.4-0.2,0.7c0.2-0.2,0.2,0.1,0.2,0.3c-0.1-0.1-0.2-0.1-0.2-0.2
				c0,0,0,0,0,0c0,0,0,0,0-0.1C536,38,536,38,536,38c-0.3,0.3-0.1,0.3-0.4,0.6c0.1,0,0.2,0.3,0.4,0c0.1,0,0.1,0,0.2,0
				c0,0.1,0,0.1,0.1,0.1l0-0.1c0-0.1,0.1-0.1,0.1-0.1c0.3-0.1,0.2,0.7,0.2,1c0.1-0.6,0.3-0.5,0.5-0.9c0,0-0.2,0-0.4-0.2
				c0,0,0.1-0.1,0.2-0.2c0.4-0.3,0.2,0.5,0.6,0.4c0-0.1,0-0.2,0.1-0.3c0.2,0,0.1,0.3,0,0.5c0.2-0.3,0.6-0.5,0.6-0.2
				c-0.1,0.3-0.1,0.5,0.1,0.5l0.1-0.3c0.3-0.1,0,0.5,0.3,0.3c-0.1,0.1,0-0.2,0.1-0.2c0.1,0.3,0.1,0.4,0,1l0.2-0.4
				c0.1,0.3,0.2,1,0.5,0.5c-0.5,0.8,0.2,0.6,0.4,0.7c0-0.1,0-0.2,0.1-0.3c0.1,0.7,0.7,0.4,1,0.6l0.4-0.6c0.2,0.1-0.4,1.3-0.2,1.4
				l0.1-0.3c0.3,0.3,0.5,0.3,0.8,0.4l0.2-0.4c0,0.2,0.1,0.3,0.1,0.5c0.7-0.8,0.7,1,1.7,0.2l-0.4,0.8c0.2,0.1,0.3,0.3,0.7-0.2l0,0
				c0.3-0.6,0.2,0.1,0.3,0c0,0.1-0.1,0.5-0.2,0.6c0.6-0.1,1.1,0.6,1.7,0.1c0.3,0.5,0.3,1.2,0.8,1.4l0-0.1c0.2,0,0.6,0,1-0.7
				c0.3,0.3,0,1.3,0.6,1.2l0-0.3c0.2-0.1,0.2,0.3,0.2,0.4c0,0,0.1-0.1,0.1-0.2c0.2-0.2,0.1,0.2,0.1,0.3l0.1-0.2
				c0.5-0.2,0.6,0.8,1.1,1c0-0.1,0.1-0.3,0.2-0.4c-0.2,0.8,0.4,0.9,0.4,1.1l0-0.3c0.1,0.6,0.7-0.6,0.8,0.1l-0.4,0.3
				c0.2,0,0.2,0.2,0,0.4c0.3-0.1,0.3-0.5,0.6-0.4c0.1-0.2-0.1-0.2,0.1-0.4l0.6-0.3c0,0,0.1,0,0.2,0.1c-0.5,0.8,0.2,0.2-0.4,0.9
				c0.4,0.3,1.1,0,1.3,0.6c0.6-0.7,0.8,0.4,1.3-0.7c0.2,0.1,0.3,0.4,0.2,0.9c-0.1,0.1-0.1-0.1-0.1-0.2c-0.1,0.3,0.2,0.5,0.3,0.6
				c0-0.3-0.1-0.7,0-1.1c0.1,0.2,0.2,0.8,0.3,1l0.4-0.5c0,0.5,0.4-0.4,0.3,0.3l-0.1,0.1c0.3,0.1,0,0.7,0.3,0.9l0.1-0.2
				c0.1,0,0,0.6,0.4,0.1l-0.2-0.1c0.2-0.4,0.5-0.5,0.6-0.6c0.1,0.2-0.3,0.7-0.2,0.8c0.2-0.3,0.1-0.2,0.2-0.6
				c0.2,0.3,0.4,0.6,0.3,1.1c0,0,0.1-0.1,0.1-0.1c0.3,0.1,0.1,0.8,0.4,0.6l0-0.1c0.5-0.4,0.2,0.8,0.8-0.1c0.2-0.1-0.2-0.1,0.2-0.4
				c0.4-0.1-0.2,0.9,0.1,0.7c0,0,0,0,0-0.1c0.2,0.1,0.4,0.3,0.5,0.5c0.7-0.6,0.6,0.6,1.4-0.1c-0.3,0.2-0.1,0.4-0.2,0.5
				c0,0,0-0.1,0.1-0.1c0.1,0,0,0.3-0.1,0.5c0.2-0.2,0.1,0.4,0.3,0.3c-0.1,0.2,0,0.2,0.1,0.2c-0.1-0.3,0.2-0.4,0.3-0.8
				c0.3,0.1-0.2,1,0.2,1l0.4-0.3c-0.3,0.5,0.1,0.5,0,0.7c0.1-0.1,0.3-0.2,0.4-0.5c0,0.2,0.4,0,0.2,0.4l-0.2,0.1
				c0.5,0,0.2,0.9,0.7,0.7l0.5-0.8c0.4-0.2,0.1,0.6,0.5,0.2c-0.2,0.2-0.2,0.1-0.2,0.5c-0.1,0-0.1-0.3-0.2-0.3l-0.1,0.6l-0.2-0.4
				c0,0.4,0,0.3-0.3,0.6c0.1,0.4,0.5-0.2,0.5,0.2c0.1-0.1,0.2-0.4,0.4-0.5c0,0.4,0.7-0.3,0.6,0.2c0.1-0.1-0.1-0.1,0.1-0.3
				c0.1,0.2,0.2,0.2,0.1,0.4l-0.2,0c0.1,0-0.1,0.4,0.2,0.3c0,0.2-0.2,0.7-0.3,0.6c0,0.1,0.2-0.1,0.4-0.3c0.3,0.2-0.4,0.9,0.1,0.7
				c0,0,0-0.1,0-0.1c0.1,0,0.2,0,0.2,0.1c-0.2-0.2,0.5-0.6,0.1-0.6c0.3-0.4,0.3,0,0.4-0.1c-0.1,0.4-0.4,0.6-0.4,0.9
				c0.1-0.1,0.1-0.1,0.2-0.1l-0.3,0.3c0.1,0,0.1,0.1,0.1,0.2l0-0.2c0.2,0,0.7-0.4,0.7,0.1c0-0.2,0.1-0.5,0.3-0.6
				c0.1,0.3,0.1-0.1,0.4-0.2c0.2,0.2-0.3,0.6,0.1,0.6c0,0-0.1,0.2-0.2,0.2c0.3,0,0.3,0.3,0.7,0.2c-0.1,0-0.3,0.1-0.3,0.3
				c0.1-0.3,0.3-0.1,0.5-0.2l-0.1,0.2c0.2-0.1,0.2-0.2,0.1-0.3c0,0.1-0.1,0.1-0.1,0c0-0.2,0.4-0.8,0.6-0.7c0.1,0.3-0.2,0.7-0.4,0.8
				c0.4,0-0.3,0.9,0.1,0.8c0.1,0,0.7-0.5,0.9-0.4c-0.2,0.4-0.4,0.1-0.5,0.5c0.9-0.7,0.2,0.9,0.9,0.7l0.3-0.5c0.1,0,0.2,0.1,0.3,0.2
				l-0.3,0.1c0,0.2,0.3,0.2,0.4-0.2c-0.1,0.5,0.1,0.3,0.4,0.3c-0.2-0.1,0,0.1,0-0.3c0.4-0.1,0.3,0.1,0.3,0.3
				c0.1-0.2,0.3-0.3,0.4-0.3c-0.1,0.4,0.2,0.5,0.3,0.7l0.1-0.1c0.2,0.4,0.9,0,1,0.6l0,0l0,0c0,0,0,0,0,0l0,0c-0.4,0.3,0,0.5,0,0.7
				c0.1-0.1,0.2-0.2,0.3-0.2c-0.3,0.4,0,0.3-0.1,0.5c0.2,0,0.3-0.5,0.5-0.3c0,0.1-0.1,0.3-0.2,0.4c0.2-0.2,0.4-0.2,0.5-0.2
				c0-0.1-0.1,0-0.1-0.1c0.1-0.2,0.1-0.1,0.3-0.3c0.1,0-0.2,0.4,0,0.3l0.1-0.4c0.1,0,0.1,0.1,0.1,0.2c0-0.1,0.2-0.4,0.4-0.6
				c0.1,0.4-0.6,0.8-0.8,1.1c0.4-0.1,0.3,0.5,0.4,0.6l0.2-0.4c0,0.1,0,0.2-0.1,0.4l0.1,0.1c0-0.2,0.1-0.3,0.3-0.6
				c0.1,0.2,0.3,0.3,0,0.8l0.1-0.1c0.3,0,0.8,0.2,0.9,0c0.1,0.3,0.5,0.3,0.2,0.7c0,0.2,0.8-0.3,0.4,0.3c0.4-0.2,0.1-0.1,0.3-0.5
				c0.4-0.2-0.1,0.7,0.5,0.1c0,0.3-0.1,0.1-0.3,0.4c0.5-0.6,0.4,0.1,0.8,0c-0.1,0.3-0.2,0.1-0.3,0.4c0.1-0.2,0.2-0.1,0.2-0.1
				l-0.3,0.4l0.9-0.8c-0.2,0.6-0.6,0.6-0.4,1l0,0c0.4-0.3,0,0.5,0.4,0.4c-0.1,0,0.1-0.2,0.2-0.3l0,0.3c0,0,0-0.1,0.1-0.1
				c0.3-0.2,0,0.2,0.3,0.1c0-0.1,0.3-0.4,0.4-0.5l-0.2,0.6l0.4-0.5c0.2,0.1-0.3,1.1,0.4,0.5l0-0.1c0.1-0.1,0.5-0.4,0.4-0.1
				c0,0.1-0.3,0.4-0.3,0.3l0.2,0c0.2-0.3,0.1-0.6,0.1-0.8c-0.1,0.2-0.1,0.4-0.3,0.5c0-0.2,0.1-0.5,0-0.7c-0.1,0.2-0.2,0.4-0.3,0.5
				c-0.3,0.1,0.1-0.3,0-0.4c-0.2,0.1-0.3,0.2-0.3,0.3c0-0.2-0.1-0.4-0.3-0.3c0,0-0.1,0.4-0.3,0.5c-0.1-0.4,0.2-0.8,0.2-1.3
				c0.2-0.8-0.9-0.2-0.7-0.8c0.1-0.2,0.4-0.1,0.3-0.3c-0.2,0.3-0.2,0.1-0.4,0.2c0.2-0.6-0.3-0.1-0.2-0.5c-0.1,0.1-0.2,0.2-0.4,0.2
				c-0.3,0.4-0.3,0-0.5,0.7c0.2-0.7-0.5-0.2,0-1.2l0.1-0.1l-0.4,0l0,0c-0.1,0-0.1-0.1-0.5,0.1c0,0.1,0.1,0.2,0,0.3
				c-0.4,0.2,0-0.5-0.1-0.6c-0.2,0.3,0.1,0.2-0.2,0.5c-0.1,0,0-0.3-0.1-0.4l-0.1,0.2c-0.5,0.1,0.5-0.8-0.1-0.4
				c0.1-0.1,0.1-0.2,0.2-0.3c-0.2,0.1-0.6,0.3-0.6,0.6c-0.1-0.1-0.1-0.3,0-0.5c0.2-0.2,0.2,0,0.4-0.3l-0.2-0.4c0,0-0.1,0.2,0,0.2
				c-1,0.5-0.3-1.3-1.5-0.7c0.2-0.2,0.1-0.2,0.2-0.4c-0.2,0-0.4-0.3-0.6-0.2l-0.1,0.2c-0.2-0.5-0.2-0.9-0.5-1c0-0.1-0.2,0.2-0.2,0.3
				c0.1-0.4-0.9,0.4-0.4-0.3l0.1,0c-0.4-0.1-0.4-0.9-0.7-1.2c-0.4,0.3,0.2,0.2-0.2,0.6c-0.4,0-0.4-0.5-0.7-0.6c0,0.1,0,0.1,0,0.2
				c-0.5,0.1,0.3-0.4,0-0.5c-0.1,0.2-0.2,0.3-0.3,0.3l0.2-0.4c0,0-0.2,0.3-0.3,0.4c0.2-0.5-0.3-0.4-0.1-0.9
				c-0.1,0.1-0.3,0.5-0.4,0.6c-0.2,0-0.2-0.2-0.1-0.4l0,0c-0.3,0.2-0.5,0-0.4,0.1c-0.3,0,0.1-0.3,0.1-0.6l0.3-0.1l-0.2-0.3l0,0.3
				c-0.2,0.1-0.1-0.4-0.3-0.5l0.2-0.2l-0.1-0.3c-0.3,0.5-0.3,0-0.6,0.6c-0.5,0-0.3-0.8-0.6-1c0.1,0,0,0.1-0.1,0.2
				c-0.3,0-0.2-0.3-0.1-0.7c-0.1,0.2-0.1,0.2-0.2,0.4c-0.2-0.1,0-0.4-0.1-0.7c-0.1,0.3-0.2,0.3-0.3,0.4c0.1-0.2,0.2-0.3,0.1-0.4
				c-0.5,1.1-0.5,0.2-0.9,1.1c0.1-0.2,0-0.9,0.4-1.2l0,0.1c0.2-0.3,0-0.2,0-0.3c0,0.1,0,0.2,0,0.2c-0.1-0.5-0.7-0.5-0.9-1
				c0,0.1,0,0.4-0.1,0.4c-0.5-0.1-0.4-0.7-0.6-1.2c-0.4,0.6,0.4,0.4,0,1c-0.3-0.4-0.6-0.9-0.9-1.5c-0.7,0.8-0.2-0.7-0.9-0.1
				c0.2-0.3,0.1-0.5,0-0.6c-0.1,0.3-0.3,0.2-0.3,0.4c0-0.4-0.3-0.7-0.6-0.1c0.3-0.6-0.3-0.1-0.2-0.6c-0.3,0.1-0.3-0.3-0.6-0.3
				c0.3-0.3-0.1-0.3-0.1-0.5c0,0,0,0.1,0,0.2c-0.3,0.3-0.1-0.4-0.3-0.3c-0.1,0.1-0.2,0.4-0.3,0.3c0.2-0.3,0-0.8-0.3-0.5
				c0.1,0,0,0.2,0,0.3c-0.3-0.8-1.3-0.6-1.6-1.5l-0.1,0.5c-0.7,0.4,0.2-0.9-0.2-1c-0.9-0.2-2.1-0.1-2.8-0.8c0-0.2,0.1-0.1,0.2-0.3
				c-0.1,0-0.3,0.4-0.3,0.1l0.2-0.2c-0.7,0.5-0.8-1-1.6-0.1c-0.1-0.6-0.7,0-0.8-0.9c-0.3,0.1-0.1,0.5-0.3,0.5l-0.2-0.6l0,0
				c0-0.9-1.4,0.3-1.6-0.5l0,0c-0.1,0.2-0.3,0.3-0.3,0.2c0-0.1,0.1-0.2,0.2-0.3c-0.3-0.5-0.4-0.6-0.7-0.8c0,0.3-0.3,0.2-0.5,0.5
				c0-0.3,0.2-0.3,0.2-0.6c-0.3-0.2-0.7,0-1,0c0.1-0.4-0.1-0.3,0.1-0.7c-0.3-0.2-0.4-0.4-0.8-0.6l-0.1,0.1c0.2-0.5-0.5,0.1-0.4-0.2
				c-0.1,0.2-0.1,0.3-0.2,0.4l-0.1-0.2c0,0.2-0.2,0.7-0.4,0.7c0-0.4,0.2-0.2,0.2-0.5l-0.3,0.4c-0.1-0.1,0.2-0.6,0.4-0.7
				c-0.4-0.2-0.7-0.6-1-0.7l-0.1,0.3c-0.1-0.2-0.4-0.3-0.6-0.1c0-0.1,0.1-0.3,0.2-0.4c0-0.5-0.3,0.5-0.3-0.1c0,0.1,0,0.2,0,0.4
				L545,39c-0.1,0.2-0.7,0.6-0.8,0.3c0.1-0.1,0.2-0.3,0.3-0.3l-0.1-0.2l-0.4,0.5l0.1-0.5l-0.2,0.4c-0.1-0.2,0.2-0.7,0-0.8
				c-0.5,0.1-0.5,0.2-1,0.5c0.4-0.8-0.5-0.2-0.2-0.8c-0.7,0.4-1.1-0.3-1.7-0.3l0,0.1c-0.4,0.3,0.1-0.8-0.2-0.7l0,0.2
				c-0.5,0.3-0.8-0.4-0.9-0.9c0,0.2-0.2,0.4-0.3,0.3c0-0.2,0.4-0.5,0.1-0.5c0,0.1-0.1,0.3-0.2,0.2l0.1-0.5c-0.6,0.1-1.2,0.1-1.5-0.4
				c-0.2,0.1-0.2,0.3-0.2,0.4c-0.3-0.3-0.4-0.8-0.7-1l-0.3,0.5c-0.1-0.1,0.3-0.8-0.1-0.5c-0.1,0,0.1,0.1,0,0.3
				c-0.5,0.2,0.1-0.6-0.2-0.7l-0.2,0.6c-0.4,0.2-0.1-0.4,0-0.8c0-0.8-0.8,0.9-0.9,0.2c0.1-0.3,0.2-0.4,0.3-0.7
				c-0.4,0-0.2-0.4-0.6-0.4c-0.6,0.7,0.1,0.1-0.4,0.7l0.3-0.1c-0.4,0.3,0.1,0.2-0.2,0.7c-0.2,0.1-0.2-0.5-0.3-0.7
				c-0.2,0.4,0.2,0.2-0.2,0.6l0-0.2c0,0.1-0.1,0.3,0,0.3c-0.2,0.3-0.1,0-0.2-0.1c0.1-0.2,0.2-0.4,0.4-0.7c0,0-0.1,0.1-0.1,0.1
				c0.1-0.6-0.4-0.4-0.4-0.9c0,0.1-0.1,0.1-0.1,0.2c-0.1,0,0-0.6,0-0.8c-0.2,0.2-0.4,0.8-0.6,0.5c0.1-0.3,0.5-0.8,0.3-0.9
				C533.8,32.4,533.8,32.7,533.6,32.9z M537.8,36.1C537.8,36.1,537.8,36.2,537.8,36.1C537.8,36.2,537.8,36.2,537.8,36.1
				C537.8,36.2,537.8,36.1,537.8,36.1z M537.9,36.6c0,0,0-0.2,0.1-0.3c0.1,0,0.1,0.1,0.2,0.1C538.1,36.5,538,36.5,537.9,36.6z
				 M536,38.4C536,38.5,536,38.5,536,38.4c0,0.1,0,0.1,0.1,0.2c-0.1,0.1-0.1,0.1-0.1,0C535.9,38.6,536,38.5,536,38.4z"/>
			<path class="st0" d="M536.1,38.1C536.1,38.1,536.1,38,536.1,38.1c0-0.1,0-0.1,0.1-0.1C536.1,38,536.1,38.1,536.1,38.1L536.1,38.1
				z"/>
			<path class="st0" d="M572.3,58.4L572.3,58.4C572.3,58.4,572.3,58.4,572.3,58.4C572.3,58.4,572.3,58.4,572.3,58.4z"/>
			<polygon class="st0" points="544.2,38.7 544.2,38.8 544.2,38.7 			"/>
			<path class="st0" d="M575.2,58.8C575.2,58.7,575.3,58.7,575.2,58.8C575.3,58.7,575.3,58.7,575.2,58.8z"/>
			<path class="st0" d="M576.1,59.4l0.2,0C576.2,59.4,576.2,59.4,576.1,59.4z"/>
			<path class="st0" d="M576.9,59.8c0,0.1-0.1,0.1-0.1,0.2l0,0L576.9,59.8z"/>
			<path class="st0" d="M566.3,51.4C566.3,51.4,566.3,51.3,566.3,51.4C566.2,51.2,566.3,51.3,566.3,51.4z"/>
			<path class="st0" d="M569.1,54.4c0-0.1,0-0.2,0-0.2C569.2,54.2,569.2,54.2,569.1,54.4z"/>
			<path class="st0" d="M562.7,48.5L562.7,48.5C562.7,48.5,562.7,48.5,562.7,48.5L562.7,48.5z"/>
			<path class="st0" d="M568.9,54.1c0.1,0,0.1,0,0.2,0.1C569,54.2,568.9,54.2,568.9,54.1z"/>
			<path class="st0" d="M579.8,62.1L579.8,62.1C579.9,62.1,579.8,62.1,579.8,62.1L579.8,62.1z"/>
			<path class="st0" d="M579.8,62.1L579.8,62.1C579.8,62.2,579.8,62.2,579.8,62.1z"/>
			<path class="st0" d="M579.8,62.4l0-0.1C579.9,62.2,579.9,62.2,579.8,62.4z"/>
			<path class="st0" d="M578.9,61.5l0.1-0.1C578.9,61.4,578.9,61.4,578.9,61.5z"/>
			<path class="st0" d="M578.6,61.2c0.1,0,0.4-0.1,0.4,0l-0.1,0.1C579.1,61.1,578.5,61.4,578.6,61.2z"/>
			<path class="st0" d="M576.3,61.7c0.1,0,0.2,0.1,0.3,0.1c-0.1,0.1-0.3,0.2-0.3,0.3C575.7,62.3,576.6,61.9,576.3,61.7z"/>
			<path class="st0" d="M575.4,61.4c0.1,0.2-0.2,0.2-0.2,0.3C575.2,61.5,575.3,61.4,575.4,61.4z"/>
			<path class="st0" d="M570.5,57.5l-0.2,0.3C570.2,57.7,570.4,57.7,570.5,57.5z"/>
			<polygon class="st0" points="570.7,55.1 571,55 570.8,55.3 			"/>
			<polygon class="st0" points="568.5,57 568.5,57.1 568.4,56.9 			"/>
			<path class="st0" d="M559.7,51.3l0.3-0.4C560,51,559.7,51.5,559.7,51.3z"/>
			<path class="st0" d="M556,48.6c-0.2,0.2-0.4,0.3-0.3,0C555.8,48.6,555.9,48.5,556,48.6z"/>
			<polygon class="st0" points="543.4,42.8 543.4,42.9 543.3,42.7 			"/>
		</g>
		<g>
			<path class="st0" d="M524.8,48.6c0.1-0.1,0.3-0.3,0.3-0.2l-0.3,0.4L524.8,48.6z"/>
			<path class="st0" d="M525.9,48.2c-0.1,0.3-0.3,0.7-0.7,1c0.3-0.4,0.1-0.3,0.4-0.8c0-0.1-0.2,0-0.3,0.2c0.1-0.1-0.2,0,0-0.3
				c0.3-0.2,0.5-0.2,0.3,0.2C525.7,48.4,525.8,48.3,525.9,48.2z"/>
			<path class="st0" d="M532.3,52.9L532.3,52.9C532.2,52.9,532.3,52.9,532.3,52.9z"/>
			<path class="st0" d="M536.1,56c0,0,0-0.1,0-0.1C536.1,55.9,536.1,56,536.1,56z"/>
			<path class="st0" d="M537.1,56.2C537,56.2,537,56.2,537.1,56.2C537,56.2,537.1,56.1,537.1,56.2z"/>
			<path class="st0" d="M532.3,52.9l0.2,0C532.4,53,532.3,52.9,532.3,52.9z"/>
			<path class="st0" d="M525.8,49.9c0,0,0-0.1,0-0.1C525.9,49.8,525.9,49.8,525.8,49.9C525.9,49.8,525.9,49.9,525.8,49.9z"/>
			<path class="st0" d="M531,51.1L531,51.1c0-0.1,0-0.1,0.1-0.2L531,51.1z"/>
			<path class="st0" d="M529.8,50c0,0-0.2,0.3-0.4,0.5c0.1-0.1,0.1-0.2,0.1-0.3C529.6,50.1,529.7,50,529.8,50z"/>
			<path class="st0" d="M527.3,48.8L527.3,48.8C527.3,48.7,527.3,48.8,527.3,48.8z"/>
			<path class="st0" d="M531.9,51.8c0,0,0.1-0.1,0.1-0.1C532,51.8,531.9,51.8,531.9,51.8z"/>
			<path class="st0" d="M557.3,90.3C557.3,90.3,557.3,90.2,557.3,90.3C557.3,90.3,557.3,90.3,557.3,90.3z"/>
			<path class="st0" d="M560.2,90.6L560.2,90.6c0.1-0.1,0.1-0.1,0.2-0.2L560.2,90.6z"/>
			<path class="st0" d="M538.6,56.8C538.6,56.8,538.6,56.8,538.6,56.8C538.6,56.8,538.6,56.8,538.6,56.8z"/>
			<path class="st0" d="M547.9,67.6c-0.4,0.1-0.2,0.5-0.7,0.6C547.3,68.1,547.6,67.6,547.9,67.6z"/>
			<path class="st0" d="M525.9,49.9C525.9,49.9,525.9,49.9,525.9,49.9C525.9,49.9,525.9,49.9,525.9,49.9z"/>
			<path class="st0" d="M547.2,68.2L547.2,68.2L547.2,68.2C547.2,68.2,547.2,68.2,547.2,68.2z"/>
			<path class="st0" d="M540.9,59.6c-0.1,0-0.1,0.1-0.2,0.1C540.8,59.6,540.8,59.6,540.9,59.6z"/>
			<path class="st0" d="M538.6,58.1L538.6,58.1C538.6,58.1,538.6,58.1,538.6,58.1z"/>
			<path class="st0" d="M541.4,61C541.4,61,541.5,60.9,541.4,61C541.5,61,541.5,61,541.4,61C541.5,61,541.5,61,541.4,61z"/>
			<path class="st0" d="M542.4,62C542.3,62,542.3,62,542.4,62C542.3,62,542.3,62,542.4,62L542.4,62z"/>
			<path class="st0" d="M555.2,86.3c0.1,0,0.3-0.1,0.4-0.1C555.3,86.3,555.3,86.6,555.2,86.3z"/>
			<path class="st0" d="M526,49.7c-0.1,0.1-0.1,0.1-0.1,0.2c0,0,0,0,0,0C525.9,49.8,526,49.7,526,49.7z"/>
			<path class="st0" d="M538.9,63.4l0.2,0.1C539,63.5,539,63.5,538.9,63.4z"/>
			<path class="st0" d="M550.4,77.4L550.4,77.4C550.4,77.5,550.4,77.5,550.4,77.4z"/>
			<path class="st0" d="M539.5,64.1c0.1-0.1,0.2-0.1,0.3-0.1c0,0,0,0.1-0.1,0.1L539.5,64.1z"/>
			<path class="st0" d="M555.6,86.2L555.6,86.2L555.6,86.2z"/>
			<path class="st0" d="M555.8,87.7c-0.1,0.3,0.1,0,0.6,0c-0.3,0.3,0.3,0.1-0.4,0.5c0.5-0.2,0.3-0.1,0.7-0.2
				c-0.4,0.2-0.2,0.4-0.7,0.7c0.5-0.2,0.5-0.6,1.1-0.7c-0.3,0.3-0.3,0.6-0.8,0.9c0.2,0,0.4-0.1,0.5,0c0,0,0-0.1,0.1-0.1
				c-0.2,0.4,0.3,0.5-0.2,1.1c0.7-0.5,0.4,0.4,1-0.2c0,0.1-0.2,0.5-0.3,0.6c0.6-0.4,0.3,0.1,0.7,0c-0.3,0.3-0.1,0.4-0.2,0.6
				c0-0.1,0.1-0.2,0.3-0.3c-0.2,0.3,0,0.1,0.4,0c-0.1,0.3-0.5,0.3-0.7,0.6c0.2,0,0.4-0.2,0.6-0.4l-0.4,0.6c0.1,0,0.2-0.1,0.4-0.1
				c-0.1,0.2-0.3,0.4,0,0.3l-0.1-0.2l0.3-0.1l-0.2,0.5c0.6,0,1.1-0.6,1.7-1l0-0.2c0.2-0.1,0.4-0.2,0.4-0.1c0.2-0.1,0.5-0.6,0.5-0.8
				c-0.3-0.3-0.7,0.4-1,0.3l0.1-0.5l-0.2,0.1c-0.2,0.1,0-0.1,0.1-0.2c-0.3,0.2-0.3-0.2-0.4-0.2l0.3-0.1c0.4-0.7-1-0.1-0.8-0.5
				l0.3-0.5l-0.4,0.2c0.2-0.3,0.5-0.5,0.2-0.6c-1.1-0.2-0.6-1.4-1.4-1.7c0.1,0,0.1,0,0.2,0c-1.4,0,0.6-1.5-0.5-1.5l-0.1,0.1
				c-0.1-0.3-0.1,0.1-0.5,0.1c0.5-0.3,0.2-0.5,0.3-0.8c-0.1,0.1-0.1,0.1-0.1,0.2c-0.1,0-0.4,0.2-0.4,0.1c0.6-0.6,0.4-0.9,0.5-1.3
				c-0.4,0.1-0.8,0.1-1.4,0.2c0.1-0.1,0.3-0.3,0.6-0.5c-0.3,0-0.1-0.1,0-0.3c0,0.1,0.1,0.2,0.1,0.2l0,0c0,0,0,0,0,0.1
				c0,0.1,0,0.1,0,0.1c0.4-0.1,0.3-0.1,0.7-0.3c-0.1-0.1,0-0.3-0.3-0.2c0-0.1-0.1-0.1-0.2-0.1c0-0.1,0.1-0.1,0-0.1l0,0
				c-0.1,0-0.1,0-0.1,0c-0.3-0.1,0.2-0.6,0.4-0.9c-0.4,0.4-0.6,0.3-0.9,0.4c0,0,0.1,0.1,0.3,0.3c0,0-0.1,0-0.2,0.1
				c-0.5,0,0.2-0.5-0.2-0.6c0,0-0.1,0.1-0.2,0.2c-0.2,0,0.1-0.3,0.3-0.4c-0.4,0.2-0.7,0.1-0.6-0.1c0.2-0.2,0.4-0.3,0.3-0.5l-0.2,0.2
				c-0.3-0.1,0.3-0.4,0-0.4c0.1,0-0.1,0.2-0.2,0.1c0-0.3,0.2-0.4,0.6-0.8l-0.4,0.2c0.1-0.3,0.4-0.9-0.1-0.6c0.8-0.4,0.2-0.6,0.1-0.8
				c0,0.1-0.2,0.2-0.2,0.2c0.4-0.6-0.3-0.7-0.5-1l-0.6,0.3c-0.1-0.2,1-0.9,0.9-1l-0.2,0.2c-0.1-0.4-0.2-0.5-0.5-0.7l-0.4,0.2
				c0.1-0.2,0.1-0.3,0.2-0.5c-1.1,0.3,0-1.1-1.3-0.9l0.7-0.5c-0.1-0.1-0.1-0.4-0.7-0.2l0,0c-0.5,0.4-0.1-0.1-0.3-0.2
				c0-0.1,0.3-0.4,0.5-0.4c-0.6-0.2-0.6-1-1.4-0.8c0-0.5,0.3-1.2,0-1.6l-0.1,0.1c-0.2-0.1-0.6-0.2-1.1,0.2c-0.1-0.4,0.6-1.1,0.1-1.3
				l-0.2,0.2c-0.2,0,0-0.3,0-0.4c0,0-0.1,0.1-0.2,0.1c-0.2,0.1,0-0.2,0-0.3l-0.2,0.2c-0.6,0-0.2-1-0.5-1.3c0,0.1-0.2,0.2-0.4,0.3
				c0.5-0.6,0.1-0.9,0.1-1.2l-0.2,0.3c0.2-0.6-0.8,0.2-0.6-0.3l0.5-0.1c-0.2,0-0.2-0.2,0.1-0.4c-0.3,0-0.5,0.3-0.7,0.2
				c-0.2,0.1,0,0.2-0.3,0.3l-0.7,0.1c-0.1,0-0.1,0-0.1-0.1c0.8-0.6-0.1-0.3,0.7-0.7c-0.3-0.4-1-0.4-0.9-1c-0.8,0.5-0.6-0.6-1.5,0.2
				c-0.2-0.2-0.1-0.5,0.2-0.9c0.1,0,0,0.1,0,0.2c0.2-0.2,0-0.5,0-0.6c-0.1,0.3-0.1,0.6-0.4,1c-0.1-0.2,0.1-0.8,0.1-1l-0.5,0.4
				c0.2-0.4-0.5,0.2-0.1-0.3l0.2-0.1c-0.3-0.2,0.2-0.6,0.1-0.9l-0.2,0.2c-0.1,0,0.2-0.5-0.3-0.2l0.1,0.2c-0.3,0.3-0.6,0.3-0.8,0.4
				c-0.1-0.2,0.5-0.5,0.5-0.6c-0.3,0.2-0.2,0.1-0.4,0.5c-0.1-0.3-0.1-0.6,0.1-1.1c-0.1,0-0.1,0.1-0.1,0.1c-0.2-0.1,0.2-0.8-0.2-0.7
				l0,0.1c-0.6,0.3,0.1-0.8-0.7-0.1c-0.2,0.1,0.2,0.1-0.3,0.4c-0.4,0,0.5-0.7,0.1-0.7c0,0,0,0-0.1,0.1c-0.1-0.2-0.2-0.4-0.3-0.6
				c-0.8,0.4-0.4-0.7-1.3-0.3c0.3-0.2,0.2-0.3,0.3-0.4c0,0-0.1,0.1-0.1,0.1c-0.1-0.1,0.1-0.3,0.2-0.4c-0.3,0.1,0-0.4-0.2-0.3
				c0.2-0.2,0.1-0.2,0-0.2c0,0.3-0.3,0.4-0.5,0.7c-0.3-0.1,0.5-0.9,0.1-1l-0.4,0.2c0.4-0.5,0-0.5,0.2-0.6c-0.2,0.1-0.3,0.1-0.5,0.3
				c0-0.2-0.3-0.1-0.1-0.4l0.2,0c-0.4-0.1,0.1-0.9-0.4-0.8l-0.7,0.7c-0.4,0.1,0.1-0.6-0.4-0.3c0.3-0.2,0.2-0.1,0.3-0.4
				c0.1,0,0,0.3,0.1,0.3l0.2-0.6l0.1,0.5c0.1-0.4,0.1-0.3,0.4-0.5c0-0.4-0.5,0.1-0.4-0.3c-0.2,0-0.3,0.3-0.5,0.4
				c0.1-0.4-0.7,0.2-0.5-0.3c-0.1,0,0,0.1-0.1,0.2c0-0.2-0.1-0.2,0-0.4l0.2,0c-0.1-0.1,0.2-0.3-0.1-0.3c0.1-0.2,0.4-0.6,0.4-0.5
				c0-0.1-0.2,0-0.4,0.3c-0.2-0.2,0.6-0.8,0.1-0.7c0,0,0,0.1-0.1,0.1c-0.1,0-0.1,0-0.1-0.1c0.1,0.2-0.6,0.5-0.2,0.6
				c-0.4,0.3-0.2-0.1-0.4,0c0.1-0.3,0.5-0.5,0.6-0.7c-0.1,0.1-0.2,0.1-0.2,0.1l0.3-0.2c0,0-0.1-0.1-0.1-0.2l0,0.2
				c-0.1,0-0.7,0.2-0.6-0.2c-0.1,0.2-0.2,0.5-0.4,0.5c0-0.3-0.2,0.1-0.5,0.2c-0.1-0.2,0.4-0.5,0-0.6c0,0,0.1-0.2,0.2-0.2
				c-0.3,0-0.2-0.3-0.6-0.3c0.1,0,0.3,0,0.3-0.3c-0.2,0.3-0.3,0.1-0.5,0.1l0.1-0.2c-0.2,0.1-0.2,0.2-0.2,0.3c0,0,0.1-0.1,0.1,0
				c0,0.2-0.5,0.7-0.7,0.6c0-0.3,0.3-0.6,0.5-0.7c-0.3,0,0.4-0.8,0-0.8c0,0-0.7,0.4-0.9,0.3c0.2-0.4,0.4-0.1,0.6-0.4
				c-1,0.6,0-0.9-0.8-0.7l-0.3,0.4c-0.1,0-0.2-0.1-0.2-0.2l0.3-0.1c0-0.2-0.2-0.2-0.4,0.1c0.1-0.5-0.1-0.3-0.3-0.3
				c0.2,0.1,0.1-0.1,0,0.3c-0.3,0-0.2-0.1-0.3-0.3c-0.1,0.2-0.4,0.3-0.4,0.3c0.1-0.3-0.1-0.5-0.1-0.7l-0.1,0.1
				c-0.1-0.4-0.9-0.1-0.8-0.7l0,0l0,0c0,0,0,0,0,0l0,0c0.4-0.3,0-0.4,0.1-0.7c-0.1,0.1-0.3,0.2-0.3,0.2c0.3-0.3,0.1-0.3,0.2-0.5
				c-0.2,0-0.4,0.4-0.5,0.3c0-0.1,0.1-0.3,0.3-0.4c-0.2,0.1-0.4,0.2-0.5,0.2c-0.1,0.1,0.1,0,0.1,0.1c-0.2,0.2-0.1,0.1-0.4,0.3
				c-0.1,0,0.3-0.3,0.1-0.3l-0.2,0.3c-0.1,0,0-0.1,0-0.2c0,0.1-0.3,0.4-0.4,0.5c0-0.4,0.6-0.8,0.9-1.1c-0.4,0-0.2-0.5-0.3-0.6
				l-0.3,0.3c0-0.1,0-0.2,0.1-0.4l-0.1-0.1c0,0.2-0.1,0.3-0.3,0.6c0-0.2-0.3-0.3,0.1-0.7l-0.1,0.1c-0.3,0-0.7-0.2-0.8,0
				c0-0.3-0.5-0.2-0.1-0.7c0-0.2-0.8,0.3-0.4-0.3c-0.4,0.2-0.1,0.1-0.4,0.5c-0.4,0.2,0.1-0.7-0.4-0.1c0-0.3,0.1-0.1,0.3-0.4
				c-0.5,0.5-0.3-0.1-0.8,0.1c0.1-0.3,0.2-0.1,0.3-0.4c-0.1,0.2-0.2,0.1-0.2,0.1l0.3-0.4l-0.9,0.8c0.2-0.6,0.6-0.6,0.5-1l0,0
				c-0.4,0.3,0.1-0.4-0.4-0.3c0.1,0-0.1,0.2-0.2,0.3l0-0.2c0,0,0,0.1-0.1,0.1c-0.3,0.2,0-0.2-0.3-0.1c0,0.1-0.3,0.4-0.4,0.5l0.2-0.5
				l-0.4,0.5c-0.2-0.1,0.3-1.1-0.4-0.5l0,0.1c-0.1,0.1-0.5,0.4-0.4,0.1c0-0.1,0.3-0.4,0.3-0.3l-0.2,0c-0.2,0.3-0.1,0.6-0.1,0.8
				c0.1-0.2,0.1-0.4,0.3-0.5c0,0.2-0.1,0.5-0.1,0.7c0.1-0.2,0.2-0.4,0.3-0.5c0.3-0.1-0.1,0.3,0,0.4c0.1-0.1,0.2-0.2,0.3-0.3
				c0,0.2,0.1,0.3,0.3,0.3c0,0,0.1-0.4,0.3-0.5c0,0.4-0.3,0.8-0.2,1.2c-0.2,0.8,0.8,0.1,0.6,0.7c-0.1,0.2-0.4,0.1-0.3,0.3
				c0.2-0.3,0.2-0.1,0.3-0.2c-0.2,0.5,0.3,0.1,0.1,0.4c0.1-0.1,0.2-0.2,0.4-0.2c0.3-0.4,0.3,0,0.5-0.7c-0.3,0.7,0.5,0.2-0.1,1.1
				l-0.1,0.1l0.3,0l0,0c0.1,0,0.1,0.1,0.5-0.1c0-0.1,0-0.2,0-0.3c0.4-0.2,0,0.5,0.1,0.6c0.2-0.3,0-0.2,0.3-0.5c0.1,0,0,0.3,0,0.4
				l0.1-0.2c0.5-0.1-0.6,0.8,0,0.4c-0.1,0.1-0.1,0.2-0.2,0.3c0.2-0.1,0.6-0.2,0.6-0.5c0.1,0.1,0,0.3-0.1,0.5c-0.2,0.2-0.2,0-0.4,0.3
				l0.2,0.4c0,0,0.1-0.2,0.1-0.2c1-0.5,0.1,1.2,1.3,0.7c-0.3,0.2-0.2,0.2-0.3,0.4c0.2,0,0.3,0.3,0.6,0.2l0.1-0.2
				c0.1,0.5,0.1,0.9,0.4,1c-0.1,0.1,0.2-0.2,0.2-0.3c-0.1,0.4,0.9-0.3,0.4,0.3l-0.1,0c0.4,0.2,0.3,0.9,0.5,1.2
				c0.4-0.3-0.1-0.2,0.3-0.6c0.3,0,0.2,0.5,0.6,0.6c0-0.1,0.1-0.1,0.1-0.2c0.4,0-0.4,0.3-0.1,0.5c0.2-0.2,0.2-0.2,0.4-0.3l-0.2,0.3
				c0.1,0,0.3-0.3,0.3-0.4c-0.3,0.5,0.2,0.4-0.1,0.8c0.1-0.1,0.4-0.5,0.5-0.6c0.2,0,0.1,0.2,0.1,0.4l0,0c0.3-0.2,0.4,0,0.4-0.1
				c0.3,0-0.2,0.2-0.2,0.6l-0.3,0l0.2,0.3l0.1-0.3c0.2,0,0.1,0.4,0.2,0.5l-0.3,0.2l0,0.3c0.4-0.4,0.3,0.1,0.7-0.5
				c0.5,0,0.1,0.8,0.3,1c0,0,0.1-0.1,0.1-0.2c0.2,0,0.1,0.3,0,0.6c0.1-0.1,0.1-0.2,0.2-0.3c0.2,0.2-0.1,0.3-0.1,0.6
				c0.1-0.2,0.2-0.3,0.3-0.3c-0.2,0.1-0.2,0.3-0.2,0.4c0.7-1,0.5-0.1,1.1-0.9c-0.2,0.2-0.2,0.8-0.6,1.1l0-0.1
				c-0.2,0.2-0.1,0.2,0,0.3c0-0.1,0-0.1,0.1-0.2c0,0.5,0.5,0.6,0.6,1c0.1-0.1,0.1-0.4,0.2-0.4c0.4,0.2,0.1,0.8,0.2,1.3
				c0.5-0.5-0.2-0.4,0.3-0.9c0.2,0.4,0.3,0.9,0.4,1.5c0.9-0.6,0,0.6,0.8,0.3c-0.3,0.2-0.3,0.4-0.2,0.6c0.2-0.2,0.3-0.1,0.4-0.3
				c-0.1,0.3,0,0.7,0.5,0.2c-0.5,0.5,0.2,0.2,0,0.6c0.3,0,0.2,0.4,0.5,0.4c-0.4,0.2,0,0.3-0.1,0.5c0,0,0-0.1,0.1-0.1
				c0.3-0.2-0.1,0.4,0.2,0.4c0.2-0.1,0.3-0.3,0.4-0.2c-0.2,0.2-0.3,0.7,0.1,0.5c0,0,0.1-0.1,0.1-0.3c0,0.8,0.9,0.8,0.9,1.7l0.3-0.4
				c0.8-0.2-0.5,0.7-0.2,0.9c0.7,0.5,1.9,0.6,2.1,1.5c-0.1,0.1-0.2,0.1-0.3,0.2c0.1,0,0.4-0.2,0.3,0l-0.2,0.2
				c0.8-0.2,0.3,1.1,1.4,0.6c-0.1,0.6,0.6,0.3,0.4,1c0.3,0,0.3-0.4,0.5-0.3l-0.1,0.6l0,0c-0.4,0.8,1.4,0.2,1.2,1l0,0
				c0.1-0.1,0.4-0.2,0.4-0.1c-0.1,0.1-0.2,0.1-0.3,0.2c0,0.5,0,0.6,0.2,0.9c0.2-0.3,0.3,0,0.6-0.3c-0.2,0.2-0.4,0.2-0.4,0.5
				c0.1,0.3,0.6,0.3,0.8,0.4c-0.2,0.3-0.1,0.3-0.4,0.6c0.2,0.3,0.1,0.5,0.3,0.8l0.1-0.1c-0.4,0.4,0.4,0.1,0.2,0.4
				c0.2-0.1,0.2-0.2,0.3-0.3l-0.1,0.2c0.1-0.2,0.5-0.5,0.6-0.4c-0.2,0.3-0.2,0.1-0.5,0.3l0.5-0.2c0,0.1-0.5,0.5-0.7,0.4
				c0.2,0.3,0.2,0.8,0.5,1l0.3-0.2c0,0.2,0.1,0.4,0.4,0.4c-0.1,0.1-0.2,0.2-0.3,0.2c-0.3,0.4,0.5-0.3,0.2,0.2
				c0.1-0.1,0.1-0.2,0.3-0.3l-0.1,0.6c0.2-0.1,0.8-0.2,0.8,0.1c-0.1,0.1-0.3,0.1-0.4,0.1l0,0.2l0.5-0.2l-0.3,0.4l0.4-0.2
				c0,0.2-0.5,0.5-0.4,0.6c0.5,0.2,0.6,0,1.1,0.1c-0.8,0.5,0.3,0.4-0.3,0.8c0.8,0,0.7,0.7,1.1,1.1l0.1-0.1c0.5,0-0.5,0.6-0.2,0.7
				l0.1-0.1c0.6,0,0.4,0.7,0.2,1.2c0.1-0.1,0.4-0.2,0.4-0.1c-0.1,0.2-0.6,0.2-0.4,0.3c0.1-0.1,0.3-0.1,0.3-0.1l-0.3,0.4
				c0.5,0.2,1,0.5,1,1c0.2,0,0.3-0.1,0.4-0.2c0.1,0.4-0.1,0.8,0,1.2l0.5-0.2c0.1,0.1-0.7,0.5-0.2,0.4c0.1,0,0-0.1,0.2-0.3
				c0.5,0.1-0.4,0.4-0.2,0.6l0.5-0.4c0.4,0-0.2,0.4-0.4,0.6c-0.5,0.6,1.1-0.3,0.9,0.3c-0.2,0.2-0.4,0.2-0.6,0.4
				c0.3,0.2-0.1,0.4,0.2,0.6c0.9-0.3-0.1-0.1,0.8-0.4l-0.3-0.1c0.5,0,0-0.2,0.5-0.4c0.2,0.1-0.1,0.5-0.1,0.7
				c0.4-0.2-0.1-0.2,0.5-0.4l-0.1,0.2c0.1-0.1,0.2-0.2,0.2-0.2c0.4-0.2,0.1,0.1,0.1,0.2c-0.2,0.1-0.4,0.2-0.7,0.4c0,0,0.1,0,0.1,0
				c-0.4,0.5,0.1,0.5-0.2,0.9c0.1-0.1,0.1-0.1,0.2-0.1c0.1,0.1-0.3,0.5-0.4,0.7c0.3-0.1,0.7-0.5,0.7-0.2c-0.3,0.2-0.8,0.4-0.7,0.6
				C555.4,88,555.5,87.7,555.8,87.7z M554.1,83c0,0,0-0.1,0-0.1c0,0,0,0,0,0C554.1,83,554.1,83,554.1,83z M554.3,82.5
				c0,0-0.1,0.1-0.2,0.2c0-0.1-0.1-0.1-0.1-0.2C554.1,82.5,554.2,82.6,554.3,82.5z M556.9,82C556.9,82,556.9,82,556.9,82
				c0-0.1,0-0.1,0-0.2c0.1,0,0.2-0.1,0.1,0C557,82,557,82,556.9,82z"/>
			<path class="st0" d="M556.6,82.3C556.6,82.3,556.6,82.3,556.6,82.3c-0.1,0-0.1,0-0.1,0.1C556.5,82.3,556.6,82.3,556.6,82.3
				L556.6,82.3z"/>
			<path class="st0" d="M532.2,52.9L532.2,52.9C532.2,52.9,532.2,52.9,532.2,52.9C532.2,52.9,532.2,52.9,532.2,52.9z"/>
			<polygon class="st0" points="550.4,77.9 550.5,77.9 550.5,78 			"/>
			<path class="st0" d="M529.4,52.5C529.4,52.5,529.4,52.5,529.4,52.5C529.4,52.5,529.4,52.5,529.4,52.5z"/>
			<path class="st0" d="M528.6,51.9l-0.2,0C528.5,51.9,528.6,51.9,528.6,51.9z"/>
			<path class="st0" d="M527.9,51.5c0-0.1,0.1-0.1,0.1-0.2l0,0L527.9,51.5z"/>
			<path class="st0" d="M536.5,60.2C536.5,60.2,536.5,60.2,536.5,60.2C536.5,60.3,536.4,60.3,536.5,60.2z"/>
			<path class="st0" d="M534.6,56.9c0,0.1-0.1,0.2-0.1,0.2C534.5,57.1,534.4,57.1,534.6,56.9z"/>
			<path class="st0" d="M538.9,63.4L538.9,63.4C538.9,63.4,538.9,63.4,538.9,63.4L538.9,63.4z"/>
			<path class="st0" d="M534.6,57.3c-0.1,0-0.1,0-0.1-0.1C534.6,57.2,534.7,57.2,534.6,57.3z"/>
			<path class="st0" d="M525.3,49.5L525.3,49.5C525.3,49.4,525.3,49.4,525.3,49.5L525.3,49.5z"/>
			<path class="st0" d="M525.3,49.4L525.3,49.4C525.3,49.3,525.3,49.4,525.3,49.4z"/>
			<path class="st0" d="M525.3,49.2l0,0.1C525.3,49.3,525.2,49.3,525.3,49.2z"/>
			<path class="st0" d="M526.2,50l-0.1,0.1C526.1,50.1,526.1,50,526.2,50z"/>
			<path class="st0" d="M526.4,50.2c-0.1,0-0.4,0.1-0.4,0l0.1-0.1C526,50.3,526.5,50,526.4,50.2z"/>
			<path class="st0" d="M528.7,49.6l-0.3-0.1c0.1-0.1,0.3-0.2,0.3-0.3C529.3,49,528.4,49.4,528.7,49.6z"/>
			<path class="st0" d="M529.4,50c-0.1-0.2,0.2-0.2,0.2-0.3C529.6,49.9,529.6,49.9,529.4,50z"/>
			<path class="st0" d="M533.8,53.9l0.3-0.3C534.1,53.7,533.9,53.7,533.8,53.9z"/>
			<polygon class="st0" points="533.2,56.2 532.9,56.3 533.1,56 			"/>
			<polygon class="st0" points="535.6,54.5 535.6,54.4 535.6,54.7 			"/>
			<path class="st0" d="M542.5,61.6l-0.4,0.3C542.1,61.8,542.5,61.4,542.5,61.6z"/>
			<path class="st0" d="M545,65.1c0.2-0.1,0.4-0.1,0.3,0.1C545.2,65.1,545,65.2,545,65.1z"/>
			<polygon class="st0" points="553.3,74.9 553.4,74.8 553.3,75 			"/>
		</g>
		<g>
			<g>
				<path class="st0" d="M512,31c-0.2,0-0.3-0.3-0.1-0.4l0.5,0.3L512,31z"/>
				<path class="st0" d="M512.8,29.2c0.4,0,1,0.1,1.1,0.6c-0.6-0.2-0.5,0-1.1-0.2c-0.2,0.1-0.2,0.4-0.1,0.5c-0.2,0-0.2,0.3-0.6,0.2
					c0-0.5,0.3-0.8,0.9-0.8C513,29.3,512.8,29.2,512.8,29.2z"/>
				<path class="st0" d="M511,22.1c0.1,0,0.1,0,0.2-0.1C511.2,22,511.1,22,511,22.1z"/>
				<path class="st0" d="M503.6,8.3c0,0.1,0,0.2,0,0.2C503.6,8.4,503.6,8.3,503.6,8.3z"/>
				<path class="st0" d="M501.9,7.5C502,7.5,502,7.5,501.9,7.5C502,7.5,501.9,7.5,501.9,7.5z"/>
				<path class="st0" d="M511,22.1c-0.2,0.1-0.4,0.1-0.6,0.1C510.5,22,510.8,22.1,511,22.1z"/>
				<path class="st0" d="M516.3,27.8c-0.1,0-0.2,0.1-0.3,0.1C516.1,27.8,516.1,27.8,516.3,27.8C516.2,27.8,516.2,27.8,516.3,27.8z"
					/>
				<path class="st0" d="M516.9,21L516.9,21c0,0.1,0,0.1-0.1,0.2C516.9,21.1,516.9,21,516.9,21z"/>
				<path class="st0" d="M518.7,21c0,0,0.2-0.2,0.5-0.4c0.3-0.2,0.6-0.4,0.9-0.6c-0.4,0.3-0.6,0.5-0.7,0.6
					C519.2,20.7,519,20.8,518.7,21z"/>
				<path class="st0" d="M515.9,25.7l-0.1,0.1C515.8,25.7,515.9,25.7,515.9,25.7z"/>
				<path class="st0" d="M514.5,21.8c0,0.1,0,0.1,0,0.2C514.5,21.9,514.5,21.8,514.5,21.8z"/>
				<path class="st0" d="M511.9,38C512,38,512,38,511.9,38C512,38,512,38.1,511.9,38z"/>
				<path class="st0" d="M516.2,42.9L516.2,42.9c0.1-0.1,0.1-0.2,0.2-0.2L516.2,42.9z"/>
				<path class="st0" d="M501.2,8.3C501.2,8.3,501.2,8.3,501.2,8.3C501.3,8.3,501.3,8.3,501.2,8.3z"/>
				<path class="st0" d="M492.3,28.5c-0.6,0.1,0.4,0.9-0.4,0.8C492,29.2,491.7,28.4,492.3,28.5z"/>
				<path class="st0" d="M516.3,27.7c0.1,0,0.1-0.1,0.2-0.1C516.4,27.6,516.4,27.6,516.3,27.7z"/>
				<path class="st0" d="M491.9,29.3L491.9,29.3L491.9,29.3C491.8,29.3,491.8,29.3,491.9,29.3z"/>
				<path class="st0" d="M499.5,19c-0.1,0-0.1-0.1-0.2-0.1C499.3,18.9,499.4,18.9,499.5,19z"/>
				<path class="st0" d="M500,10.6l0,0.2C500,10.7,500,10.6,500,10.6z"/>
				<path class="st0" d="M494.7,22.4c-0.2,0-0.2,0.1-0.4,0c0,0,0,0,0.1,0C494.4,22.4,494.5,22.4,494.7,22.4z"/>
				<path class="st0" d="M490.1,21.7C490.2,21.7,490.2,21.7,490.1,21.7c0.1-0.1,0.2-0.1,0.2,0L490.1,21.7z"/>
				<path class="st0" d="M515.4,37.9c-0.1-0.1-0.3-0.1-0.4-0.1C515.3,37.8,515.2,37.1,515.4,37.9z"/>
				<path class="st0" d="M516.1,27.6c0.1,0.1,0.2,0.1,0.2,0c0,0-0.1,0.1-0.1,0.1C516.1,27.7,516.1,27.7,516.1,27.6z"/>
				<path class="st0" d="M494.9,18.9l-0.3,0l-0.4,0c0.1,0,0.2,0,0.4,0C494.7,18.8,494.8,18.9,494.9,18.9z"/>
				<path class="st0" d="M499.4,43.9l0.1-0.1C499.5,43.9,499.4,43.9,499.4,43.9z"/>
				<path class="st0" d="M492.1,18.4c-0.2,0.1-0.3,0.2-0.5,0.2c0,0-0.1-0.1-0.1-0.1L492.1,18.4z"/>
				<path class="st0" d="M515,37.8L515,37.8L515,37.8z"/>
				<path class="st0" d="M514.1,33.4c0-0.7-0.2-0.2-0.7-0.6c0.3-0.5-0.4-0.6,0.4-0.9c-0.6-0.1-0.4-0.1-0.8-0.4
					c0.3,0,0.3-0.4,0.4-0.7l-3.8,1.4c0,0.1-0.1,0.2-0.2,0.3c0.3,0,0.4-0.2,0.5-0.4l3.3-1.2c-0.1,0.2-0.3,0.4-0.7,0.2l-2,0.7
					c0,0,0,0,0,0c-0.2,0.5,0,1.2-0.6,1.5c0.2,0.2,0.5,0.2,0.7,0.6c-0.1,0,0-0.2,0-0.2c-0.1,0.9,0.8,1.8,0.3,2.5
					c0.8-0.5,0.7,1.5,1.3,0.6c0.1,0.3-0.1,0.9-0.2,1.1c0.6-0.3,0.5,0.7,1,0.9c-0.3,0.3,0,0.8,0,1.2c0-0.2,0.1-0.3,0.3-0.3
					c-0.1,0.5,0.1,0.3,0.5,0.5c0,0.6-0.5,0.1-0.7,0.5c0.3,0.4,0.4-0.1,0.7-0.1l-0.4,0.9c0.1,0.1,0.3,0.2,0.5,0.1
					c-0.1,0.3-0.3,0.6,0.1,0.8l-0.2-0.6l0.4,0.1l-0.2,0.8c0.8,0.8,1.4,0.2,2.1-0.1l0-0.4c0.2-0.1,0.5,0.2,0.6,0.3
					c0.2,0.1,0.5-0.9,0.4-1.4c-0.5-1.2-0.9,0.1-1.4-0.7l0-1.2l-0.2,0.1c-0.2-0.1,0-0.3,0-0.4c-0.3,0.2-0.4-0.8-0.7-1.2l0.4,0
					c0.2-1.5-1.5-1.6-1.5-2.6l0.2-0.9l-0.5,0c0.1-0.5,0.4-0.7,0-1.3c-0.6-0.7-1-1.4-1.3-2.2l-1.5,0.6c0.4,1.5,0.6,3.2,1.4,4.6
					c-0.1,0-0.2-0.1-0.3-0.2c0.9,0.8,0.9,1.7,0.8,2.6c0,0.4-0.1,0.9,0,1.3c0,0.2,0.1,0.4,0.2,0.6c0,0.1,0,0.1,0.1,0.1
					c0,0.1,0.1,0.1,0.1,0.1c0,0,0.1,0.1,0.2,0.1c0.1,0,0.1-0.1,0.2-0.1c0,0.3,0.1,0.2,0.2,0.2c0.1,0,0.2-0.1,0.4,0.1
					c-0.6,0.1-0.3,0.7-0.4,0.8c0.1,0,0.1-0.1,0.2-0.1c0.2,0.1,0.6,0.3,0.5,0.5c-0.4-0.1-0.6,0-0.7,0c-0.1,0.1-0.1,0.2-0.2,0.2
					c0,0,0,0-0.1,0c0.3,0.3,0.6,0.7,1.1,1.3c0.1,0.1,0.2,0.3,0.3,0.4c0.1,0.2,0.3,0.3,0.3,0.4c0.2,0.3,0.3,0.6,0.4,0.8
					c-0.3-0.3-0.9-0.9-1.4-1.5c0.2,0.4-0.3,0-0.6-0.5c0.1,0.1,0.3,0.1,0.4,0.2c0,0,0-0.1-0.1-0.1c0.1,0.1,0.1,0.1,0.1,0.1
					c0.1,0.1,0.2,0.1,0.2,0.2c-0.4-0.7-0.5-0.6-1.1-1.5c-0.1,0-0.4-0.3,0,0.3c0,0,0,0.1,0,0.2c-0.1-0.1-0.2-0.2-0.2-0.2l0.1,0.1
					c0,0.1,0.1,0.2,0.1,0.2c0,0.1-0.3-0.2-0.5-0.5c-0.2-0.4-0.3-0.7-0.3-1c0.1,0.4,0.1,0.6,0.1,0.8c0,0.2,0,0.3,0,0.6
					c0-0.1,0.2,0.1,0.5,0.3c0,0.1,0,0.2,0.1,0.4c-0.1,0.3-0.3,0-0.5-0.3c-0.2-0.3-0.3-0.5-0.5-0.5c0,0.1,0.1,0.2,0,0.4
					c-0.2,0-0.3-0.5-0.2-0.8c-0.2,0.4-0.7,0.3-0.9-0.1c0-0.5,0.1-0.5-0.3-0.9l0,0.4c-0.7-0.3-0.1-0.7-0.7-0.9
					c0.2,0.1,0.1,0.3-0.1,0.2c-0.4-0.6-0.3-0.7-0.4-1.5l-0.2,0.4c-0.3-0.6-0.9-1.9-1.3-1.4c0.4-0.3,0.2-0.6-0.2-0.9
					c-0.4-0.3-0.9-0.6-1.2-0.7c0.2,0.1,0.1,0.3,0.1,0.4c-0.2-0.3-0.4-0.5-0.7-0.8c0,0-0.2-0.1-0.3-0.2l-0.3-0.2
					c-0.2-0.1-0.4-0.2-0.7-0.3c-0.9-0.4-1.9-0.3-2.7,0.1c0,0.3,0,0.5,0,0.8c-0.3,0.2-0.7,0.1-1.2,0.1c-0.2,0-0.4,0-0.7,0.1
					c-0.1,0-0.2,0.1-0.3,0.2c0,0-0.1,0.1-0.1,0.1c0,0-0.1,0.1-0.1,0.1l0.2,0c0.1,0,0.1,0,0.2,0c-0.1,0.1-0.1,0.1-0.2,0.2
					c-0.1,0.1-0.1,0.1-0.1,0.2c-0.1,0.1-0.2,0.2-0.3,0.3c-0.2,0.2-0.3,0.4-0.4,0.5c-0.2,0.3-0.4,0.7-0.7,1.1l0.4,0.2
					c-0.4,0.2-0.6,0.5-1,0.7c0.2,0.6-0.3,1.2-0.9,1.9c-0.1,0.2-0.3,0.3-0.4,0.5c-0.1,0.2-0.3,0.4-0.3,0.4c0,0.1,0,0.3,0,0.8
					c-0.2-0.3-0.3-0.5-0.4-0.8c0,0-0.1,0-0.1,0.1c0,0.1,0,0.3,0,0.8l0-0.1c0.1,0.5,0,0.5,0,0.5c-0.1,0-0.1-0.2-0.2,0
					c-0.1,0-0.1-0.8,0-1c-0.1,0.5-0.3,0.7-0.4,0.9c-0.1,0.1-0.2,0.3-0.4,0.5c-0.1,0.2-0.2,0.4-0.3,0.5c-0.1,0.2-0.2,0.4-0.3,0.5
					c0.2-0.7,0.5-1.5,0.7-2c0.2-0.5,0.4-0.8,0.4-0.8l-0.1,0.1c-0.1,0-0.1,0.1-0.3,0.1c-0.2,0-0.4,0.1-0.8,0.3
					c0.1-0.4,0.4-0.7,0.6-0.8c0,0,0.1,0,0.1-0.1l0.1-0.2c0.1-0.1,0.1-0.3,0.1-0.4c0.1-0.3,0.1-0.6,0-0.9l-0.3,0.3
					c-0.1-0.4,0.3-0.9,0.4-1c0-0.1-0.1,0-0.2,0c-0.2-0.3,0.2-0.5,0.3-0.8l-0.2,0.1c-0.4-1.1,0.7-2.7,0.7-4.1c-0.1,0.2-0.3,0.1-0.4,0
					c0.4-0.3,0.6-0.8,0.7-1.3c0.1-0.3,0.1-0.5,0.1-0.8c0-0.1,0-0.2,0.1-0.3c0-0.1,0.1-0.2,0.1-0.3c-0.1,0.1-0.1,0.2-0.2,0.2
					c-0.1,0.1-0.1,0.1-0.2,0.2c0.1-0.1,0.1-0.2,0.1-0.4c0-0.2,0-0.3,0-0.5c0-0.3-0.1-0.5-0.2-0.6c-0.2-0.3-0.5-0.6-0.7-1.1
					c-0.1-0.2-0.1-0.4-0.2-0.6c0.2,0.1,0.4,0.3,0.6,0.4c0.1,0.1,0.2,0.2,0.3,0.3c-0.1-0.1-0.2-0.3-0.2-0.4c-0.3-0.5-0.5-0.9-0.2-1
					c-0.4-0.3-0.6-0.2-0.7-0.2c-0.2,0-0.3,0-0.9-0.4c-0.1,0.1,0.7,0.7,0.2,0.6c-0.1,0-0.3-0.1-0.4-0.1l-0.2,0l-0.2,0l-0.6,0
					c-0.1,0-0.2,0-0.5-0.3c0.6-0.8-0.7-0.5,0.2-1c-1.2-0.9-2.6-1.1-3.3-2.3c-1,0.4-2-1.6-2.7-0.7c-0.3-0.3-0.5-0.5-0.6-0.8
					c-0.1-0.1-0.1-0.3-0.1-0.5c0-0.1,0-0.3,0.1-0.4c0.1,0,0.1,0.1,0.1,0.3c0-0.2,0-0.3-0.1-0.5c-0.1-0.1-0.1-0.2-0.2-0.3
					c-0.1,0.1-0.1,0.3-0.1,0.5c0,0.1,0,0.3,0,0.4c0,0.1,0,0.3,0,0.5c-0.5-0.6-0.4-1.2-0.3-1.4c-0.3,0-0.5,0-0.8,0
					c0.1-0.2-0.1-0.2-0.3-0.3c-0.2-0.1-0.4-0.2-0.1-0.3l0.3,0.1c-0.5-0.6,0.5-0.3,0.4-0.6l-0.5-0.2c-0.1-0.1,0-0.1,0.1-0.1
					c0,0,0.1,0,0.1,0c0,0-0.1-0.1-0.2-0.2c-0.1-0.1-0.2-0.1-0.3-0.2l-0.1,0c-0.1,0,0,0,0,0.1l0.1,0.1c-0.3-0.1-0.6-0.3-0.9-0.4
					c-0.1-0.1-0.2-0.2-0.4-0.2c-0.1,0-0.1-0.1-0.2-0.1l-0.1-0.1c-0.1-0.1-0.1-0.1-0.2-0.2c0.4,0.1,0.8,0.2,1.1,0.4
					c0.3,0.2,0.6,0.3,0.8,0.4c-0.7-0.4-0.4-0.2-1.3-0.6c0.9,0.1,2,0.3,2.7,0.9c0-0.1-0.2-0.2-0.2-0.2c0.2,0,0.5,0.1,0.7,0.3
					c0.2,0.1,0.3,0.2,0.4,0.1l-0.1-0.1c0-0.1,0.1-0.2,0.2-0.2c0,0,0.1,0,0.1,0c0.1,0,0.2,0.1,0.3,0.1c0.3,0.1,0.6,0.2,0.7-0.3
					c0.3-0.2-0.7,0-0.2-0.5c1-0.3,0.6,0.9,1.4,0.7c-0.1,0-0.1,0-0.1-0.1c0.6,0.1,1.4,0.2,2,0.4c0.9-0.7,2.4,0.5,3.5-0.3
					c-0.3,0.3,0.2,0.4,0.1,0.6c0,0,0-0.1,0-0.2c0.3,0,0.3,0.4,0.5,0.5c0.1-0.1,0.2-0.1,0.3,0c0.1,0,0.3,0.1,0.5,0.1
					c0.3,0.1,0.7,0.2,0.8,0.1c0.1,0.2,0.5,0.1,0.9,0c-0.5,0-0.6-0.1-0.7-0.2c0-0.1-0.1-0.3-0.3-0.4c0.6-0.1,1,0,1.4-0.1
					c0.4,0,1-0.1,1.2-0.8c0-0.3,0-0.6-0.1-0.9c0.3,0.1,0.5-0.3,0.6-0.7c0-0.1,0-0.2,0.1-0.3c0-0.1,0-0.1,0-0.1
					c0-0.1,0.1-0.1,0.1-0.1c-0.2-0.2-0.2-0.4-0.6-0.4c0.2-0.4,0-1,0.4-1.1l0.1,0.4c-0.1-1.2,0.9-1.8,0.6-2.7l-0.9-0.1
					c-0.3-0.7,0.7-1,0.2-1.6c0.3,0.2,0.2,0.3,0.5-0.1c0,0.2-0.3,0.6-0.3,1l0.7-0.7l-0.4,1.2c0.4-0.5,0.3-0.5,0.7-0.2
					c0.4-0.7-0.3-0.9,0.1-1.6c-0.1-0.3-0.5-0.1-0.6-0.4c0.4-0.6-0.5-1.3,0.1-1.7c-0.1-0.2-0.1,0.3-0.3,0.2c0.1-0.4,0.2-0.7,0.4-0.8
					l0.1,0.4c0-0.3,0.4-0.3,0.3-0.9c0.3-0.3,0.7-0.5,0.7-0.1c0.1-0.1-0.1-0.5-0.4-0.4c0.1-0.5,0.3-0.5,0.5-0.6c0.1,0,0.1,0,0.1-0.1
					c0,0,0.1-0.1,0.1-0.1c0,0,0,0-0.1-0.1c0,0-0.1,0-0.1,0c-0.1-0.1-0.1-0.1,0-0.1c0,0.1-0.2,0-0.4-0.1c-0.1-0.1-0.3-0.1-0.2,0.1
					c-0.2-0.1-0.2-0.2-0.2-0.3c0-0.1,0.1-0.2,0-0.3c0.2,0,0.3,0.1,0.5,0.3c0.1,0.1,0.3,0.2,0.4,0.3c-0.1-0.1-0.1-0.2-0.2-0.3
					c0.1,0.1,0.2,0.3,0.3,0.4c0,0,0,0,0.1,0c0,0-0.1-0.1-0.1-0.1c0,0-0.1-0.2-0.1-0.3c-0.1-0.2,0.1-0.4,0.2-0.1
					c-0.1-0.2-0.4-0.5-0.2-0.8c0.5,0.3,0-0.2,0.3-0.4c0.3,0.1,0.3,0.3,0.3,0.5c0,0.2,0.1,0.3,0.4,0.3c0.1,0-0.1,0.2-0.2,0.3
					c0.1,0,0.2,0,0.2,0.1c0,0,0.1,0.1,0.1,0.1c0,0,0.1,0.1,0.1,0.1c0.2,0.2,0.3,0.3,0.6,0.5c-0.3-0.1-0.5-0.2-0.4,0.2
					c0.1-0.3,0.5,0.2,0.8,0.3l-0.1,0.2c0.3,0.1,0.2-0.2,0.2-0.3c-0.1,0-0.1,0-0.2-0.1c-0.1-0.3,0.6-0.7,1-0.2
					c0.2,0.6-0.3,0.8-0.5,0.8c0.3,0.3,0.2,0.6,0,0.8c-0.1,0.2-0.2,0.5,0,0.8c0.1,0.1,1,0.5,1.2,1c-0.3,0.4-0.5-0.6-0.8-0.2
					c1.3,0.6,0,2.2,1,3.3l0.4-0.3c0.1,0.3,0.3,0.6,0.3,0.9l-0.4-0.3c0,0.3,0.3,1,0.6,0.6c-0.2,0.8,0.1,0.9,0.5,1.4
					c-0.3-0.6-0.1,0,0-0.6c0.5,0.6,0.3,0.7,0.4,1.2c0.1-0.1,0.5,0,0.6,0.2c-0.1,0.6,0.2,1.3,0.3,2l0.1-0.1c0,0.2,0.2,0.6,0.4,0.9
					c0.2,0.3,0.4,0.5,0.7,0.7c0.6,0.4,1.2,0.4,1.9,0.6l0,0c0,0,0,0,0,0c0,0,0,0,0.1,0l-0.1,0c-0.3,0.3,0,0.3,0.4,0.3
					c0.2,0,0.5-0.1,0.7-0.1c0.2,0,0.3,0,0.4,0c0-0.1,0-0.4,0.2-0.4c0.1,0.4,0.5,0.1,0.7,0.3c0.3-0.3-0.2-0.5,0.4-0.7
					c0.3,0,0.3,0.2,0.4,0.4c0.1-0.3,0.4-0.6,0.7-0.7c-0.1-0.1-0.3,0.1-0.4,0.1c-0.1-0.2,0.1-0.2,0-0.5c0.3-0.1,0.3,0.4,0.5,0.1
					c-0.1-0.1-0.3-0.2-0.4-0.3c0.1-0.1,0.3,0,0.4,0c-0.2,0-0.3-0.4-0.3-0.6c0.5,0,0.6,0.2,0.5,0.5c0,0.3-0.1,0.6,0,0.8
					c0.2-0.2,0.5-0.2,0.7-0.2c0.2,0,0.3,0.1,0.4,0.1c0.1-0.2,0.1-0.3,0.2-0.5c0.2,0,0.2,0.1,0.1,0.3l0.3-0.1c0-0.2,0-0.3,0.3-0.8
					c0.3,0,1-0.3,0.3,0.5l0.1-0.1c0.7-0.4,1.9-0.9,2.3-1.2c0,0,0.1,0,0.1,0c0,0,0.1,0,0.1,0c0,0,0.1,0,0,0c-0.1,0.1-0.1,0.3-0.2,0.4
					c-0.1,0.3-0.3,0.5-1,0.9c-0.2,0.2,0.1,0.1,0.2,0.2c0.1,0.1,0.1,0.2-0.6,0.6c0.5,0,0.3-0.1,1.1-0.6c0.2,0-0.2,0.4-0.4,0.6
					c-0.3,0.2-0.4,0.3,0.2,0.2c-0.7,0.6-0.2,0-0.9,0.3c0.6-0.1,0.5,0.1,0.3,0.4c-0.2,0.3-0.5,0.5-0.4,0.8c-0.5,0.1-0.1-0.2-0.7,0
					c0.2,0,0.2,0.2,0.1,0.3c-0.2,0-0.4,0-0.6-0.1c0.3,0.2,0.6,0.5,0.8,0.9c-0.6,0.2-0.7,0-0.8-0.1c-0.1-0.1-0.1-0.1-0.2-0.1
					c0,0-0.1,0-0.2,0c-0.1,0-0.2,0.1-0.3,0.2l0.1,0c0.2,0.6-0.8,0.3-1.1,1.2c0.1-0.3,0.2,0.1,0.4,0.1l-0.5,0.2c0,0,0.1,0,0.1,0.1
					c0,0.5-0.4,0.1-0.5,0.7c0.3-0.1,0.5,0.2,0.5,0.4l-0.9,0.1l0.6,0.3c-0.5,0.5-1.9,0.4-1.6,1.3l0.3-0.1c0.1,0.1,0.2,0.6-0.3,0.7
					c-0.2,0-0.5-0.2-0.3-0.3l-0.2,0.3c0.4,0.2,1.1-0.2,1.6-0.5c-0.2,0-0.6,0.1-0.7-0.1c0.4-0.2,1-0.3,1.4-0.5
					c-0.3,0-0.5-0.1-0.7-0.2c0.2-0.5,0.5,0,0.8-0.3c0-0.2,0-0.4-0.2-0.4c0.5-0.2,0.8-0.4,1-0.9c0,0-0.6,0.2-0.6-0.2
					c0.4-0.2,0.8-0.3,1.1-0.4c0.2,0,0.3-0.1,0.5-0.1c0.1,0,0.2-0.1,0.3-0.1c0.1-0.1,0.2-0.1,0.3-0.2c0.4-0.2,0.7-0.5,1-0.8
					c0.3-0.3,0.5-0.6,0.6-0.9c0.1-0.3,0.2-0.6,0.4-0.8c0.1-0.2,0.3-0.5,0.6-0.7c0.3-0.1,0,0.6,0.5,0c-0.6,0.2-0.1-0.3-0.3-0.3
					c0.6-0.4,0.6-0.7,0.7-0.8c0-0.2,0-0.3,0.4-0.7c-0.2,0.2-0.3-0.1-0.3-0.2c-0.4,0.2-0.3,0.1-0.4,0.1c-0.1,0-0.2,0.1-0.9,0.7
					c0.7-0.6,0.9-1,1-1.3c0.2-0.3,0.4-0.7,1.4-1.7c0,0,0.1,0.1,0.1,0.1c0-0.2,0.3-0.7-0.4-0.3l0.1,0c-0.5,0.2-0.4,0-1.7,0.8
					c0.1,0.1,0.4,0,0.4,0.1c-0.6,0.3-0.6,0.3-0.7,0.2c0-0.1,0-0.3-0.3-0.3c-0.4,0.4,0.4,0-0.3,0.6c-0.4,0.2-0.4-0.1-0.6-0.1
					l-0.2,0.2c-1.4,0.8,0.7-1.2-0.7-0.1c0.1-0.2,0.2-0.3,0.3-0.5c-0.3,0.2-0.6,0.4-0.9,0.6c-0.2,0.2-0.3,0.4-0.2,0.5
					c-0.3,0.1-0.5,0-0.6-0.2c0.5-0.4,0.5-0.3,0.9-0.8l-1.6,0.3c-0.2,0.1,0.1,0.2,0.3,0.1c-0.6,0.4-1,0.6-1.5,0.8
					c-0.4,0.1-1,0.2-1.3,0.2c-0.8,0-1.6,0.1-2.2,0.9c0.1-0.4-0.2-0.2-0.4-0.4c-0.1,0-0.1,0.1-0.2,0.1c-0.1,0-0.1,0-0.1,0.1
					c-0.1,0-0.2,0.1-0.3,0.1c-0.2,0-0.4,0.1-0.6,0.1c0,0.1,0,0.2,0,0.2c-0.4-0.2-0.6-0.7-0.6-1c0-0.2,0-0.3-0.1-0.4
					c-0.1-0.2-0.1-0.4-0.3-0.6c0.1-0.1-0.3,0.1-0.3,0.3c0.1-0.7-1.3-0.9-0.6-1.4l0.1,0.2c-0.6-1.1-0.5-2.5-0.8-3.7
					c-0.6-0.1,0.2,0.7-0.5,0.7c-0.5-0.8-0.4-1.7-0.8-2.6c0,0.2-0.1,0.1-0.1,0.2c-0.6-0.8,0.5-0.1,0.2-0.8c-0.2,0.1-0.3,0.1-0.5-0.1
					l0.3-0.3c-0.1,0-0.4,0.1-0.4,0.2c0.4-0.5-0.3-1.4,0.1-1.9c-0.1,0-0.5,0.3-0.7,0.3c-0.3-0.4-0.2-0.7-0.2-1.1l0,0
					C505.3,8.5,505,7.9,505,8c-0.6-0.6,0.2-0.2,0.1-1c0.2,0.1,0.4,0.3,0.6,0.5c-0.2-0.4-0.4-0.7-0.6-1.1c0.1,0.2,0.1,0.4,0.1,0.5
					c-0.5-0.3-0.6-1-1.1-1.5c0.1,0,0.3,0,0.4,0c-0.1-0.1-0.2-0.2-0.3-0.3c-0.1-0.1-0.2-0.3-0.4-0.4c-0.2,0.2-0.5,0.1-0.7,0
					c-0.2-0.1-0.4-0.1-0.3,0.4c-0.7-0.2-1.2-0.5-1.9-0.6c-0.6-0.2-1.3-0.3-1.9,0c-0.1,0.1-0.2,0.1-0.3,0.2c0.2-0.2,0.2,0,0.3,0
					c-0.3,0.3-0.5,0.6-0.7,0.8c-0.2,0.2-0.4,0.4-0.6,0.6c0.2,0,0.3-0.2,0.5-0.1c-0.1,0.5-0.2,0.7-0.4,0.8c-0.1,0.2-0.3,0.3-0.5,1
					c0.3-0.4,0.4-0.1,0.4,0.1c-0.2-0.1-0.4,0.1-0.5,0.3c1.2-0.5,0.3,1,1.3,0.7c-0.3,0-0.9,1.2-1.3,0.8l0.1-0.2
					c-0.3-0.1-0.2,0.3-0.3,0.5c0.1-0.1,0.2-0.2,0.2-0.2c-0.5,1.1-0.4,2.4-0.8,3.7c0.1-0.1,0.4-0.6,0.5-0.3c0,1.3-0.7,2-1.2,3.3
					c0.7,0.2,0.3-1.4,1-1.4c-0.2,0.7-0.4,1.4-0.6,2.1c-0.1,0.4-0.2,0.7-0.4,1.1l-0.1,0.3c0,0,0,0-0.1,0.1c0,0-0.1,0.1-0.2,0.1
					c0.5,0.3,0.3,0.5,0.1,0.4c-0.1,0-0.2-0.1-0.2-0.1c-0.1,0-0.1,0.1-0.1,0.3c0-0.2-0.1-0.3-0.1-0.4c0,0,0-0.1-0.1-0.1c0,0,0,0,0,0
					c0,0,0,0-0.1,0c0.1,0.3-0.3,0.3-0.2,0.5c-0.1-0.2-0.6-0.4-1-0.4c-0.4,0-0.7,0-0.8,0.4c0-0.7-1-0.1-1.3-0.6
					c-0.6,0.2-1.3-0.3-2-0.2c0.3-0.4-0.7-0.3-1-0.5c0.1,0,0.2,0.1,0.2,0.2c-0.3,0.4-0.8-0.4-1.3-0.2c-0.2,0.1,0,0.4-0.3,0.4
					c0-0.2-0.3-0.3-0.6-0.4c-0.1,0-0.2,0-0.3-0.1c-0.1,0-0.3,0-0.5,0c-0.3,0-0.6,0-0.7,0.1c0.3,0,0.4,0.2,0.6,0.3
					c-1.5-0.3-3.1-0.3-4.6-0.3c-1.5,0-2.9,0.1-4.8,0c0,0.1,0.1,0.3,0.2,0.4c0.1,0.1,0.1,0.3,0.2,0.4c0.2,0,0.4-0.1,0.6-0.1
					c1.2,1.1,1,1.1,0.7,1.2c-0.3,0.1-0.7,0.1-0.1,0.8c0.8,1,1.7,2,2.6,2.9c0.5,0.5,0.9,0.9,1.4,1.4l0.7,0.6c0.1,0.1,0.2,0.2,0.3,0.3
					l0.2,0.2c1.2,0.9,2.3,1.7,3.3,2.7c0.1,0.2-0.2,0.1-0.4,0.2c0.2,0.1,0.6-0.2,0.6,0.2l-0.2,0.2c0.7,0.1,1.4,0.7,2.1,1.3
					c0.7,0.6,1.4,1,2.1,0.8c0.1,0.2,0.3,0.3,0.4,0.4l0.1,0.1c0,0,0,0,0.1,0c0.1,0,0.2,0.1,0.3,0.2c0.1,0.1,0,0.3-0.2,0.4
					c0.1,0.1,0.2,0,0.3,0c0.1,0,0.2-0.1,0.2,0c-0.1,0.1-0.2,0.4-0.3,0.6l-0.3,0.6l0-0.1c-0.9,1.2,0.7,3.4-0.1,4.9l0-0.1
					c0.2,0,0.4,0.3,0.3,0.6c-0.1,0.1-0.2-0.1-0.4-0.3c-0.4,1.4-0.5,1.7-0.6,2.8c0.3-0.5,0.2,0.5,0.6,0.5c-0.1,0.1-0.1,0.1-0.2,0.1
					c-0.1,0-0.1,0-0.2,0c-0.1,0-0.2,0.1-0.4,0.6c-0.1,0.8-0.1,1.6,0,2.2c0,0.7,0.1,1.2,0.2,1.7c-0.4,0.9-0.4,1.5-0.9,2.1
					c0,0.1,0,0.2,0,0.4c0,0.1,0,0.2,0,0.3c0,0.2,0,0.3,0,0.5c0,0.3,0,0.6,0,0.9c0,0.6,0,1.3,0.1,2.1l0.1-0.2c-0.2,0.7-0.1,1,0,1.1
					c0.1,0.1,0.1,0.1,0.1,0.2c0,0,0,0.1,0,0.1c0,0,0.1,0,0.1-0.1c0,0,0.1,0,0.1,0c0.1-0.3,0-0.4,0.2-0.7l0.5-0.2
					c-0.2,0,0-0.9,0.6-1.4c0.3,0.3-0.3,0.6-0.3,1l0.5-1.1c0.3-0.2,0.1,0.7-0.5,1.4c0.4-0.3,0.7-0.6,1-0.8c0.3-0.2,0.6-0.5,1-0.7
					c0.3-0.2,0.6-0.5,0.9-0.7c0.3-0.3,0.6-0.6,1-0.9c0-0.1-0.1-0.2-0.1-0.4c0.6-0.4,1.6-1.6,1.8-2.4c0.1,0.1,0.3,0.1,0.2,0.3
					c0.5-0.3,0.5-0.5,0.4-0.6c0-0.2-0.1-0.3,0.5-0.7c-0.3,0.2-0.6,0.5-0.7,0.4l0.9-0.9c0.2-0.2,0.3-0.3,0.5-0.5l0.1-0.1l0.1-0.1l0,0
					L499,45c-0.2-0.2-0.1-1.2,0.4-1.7c0.1,0.1,0.2,0.3,0.1,0.5l0.3-0.3l-0.3-0.6l0.8-0.2l-0.4-0.3c0.3-0.3,0.9-0.1,1.1-0.4
					c0.5-1.2,0.2-1.1,0.4-2.1c0.4,0.2,0.6-0.1,0.8-0.4c0,0,0-0.1,0-0.1l0,0c0,0,0-0.1,0.1-0.1c0.1,0,0.1,0,0.2,0.1
					c0-0.2,0-0.4,0.2-0.5c0.2-0.1,0.3,0,0.5,0c0.2,0.1,0.3,0.2,0.7,0.4l0.5,0.3c0.2,0.1,0.3,0.2,0.5,0.3l-0.1-0.1
					c0.4,0,0.4,0.3,0.5,0.6c0,0.3,0,0.6,0.4,0.8l0-0.2c1,0.2,2,1.8,2.4,2.7c0-0.2,0.2-0.4,0.4-0.1c0.1,0.3-0.6,0.3-0.1,0.5
					c0-0.2,0.2-0.2,0.3-0.2l0,0.4l0,0.2c0,0.1,0.1,0.2,0.1,0.2c1.1,0.7,2.1,1.4,3.1,1.8c0.2,0.2,0.5,0.2,0.7,0.3
					c0.2,0.1,0.5,0.2,0.7,0.3c0.5,0.2,0.9,0.4,1.4,0.6c0.2-0.1-0.1-0.4-0.2-0.6c0.3,0.1,0.7,0.3,1,0.4c0.4,0.1,0.8,0.3,1.1,0.4
					c0.4,0.1,0.8,0.3,1.2,0.4l0.3,0.1l0.1,0l0.1,0c0.1,0,0.2,0,0.3,0l-0.7-0.8c0.1-0.1,0.7,0.5,1,0.6c0,0-0.1-0.3-0.4-0.9
					c-0.2-0.3,0,0.2,0,0.4c-0.1,0-0.2-0.1-0.3-0.2c0-0.1,0-0.1,0-0.2c-0.7-1.4,0.7,0.2,0.1-1.4c-0.3-0.1-0.5-0.2-0.8-0.4
					c-0.5-0.7-0.4-0.9-0.3-1c0.2,0,0.5,0,0.6,0c0.1-0.3,0-0.6-0.2-0.9c-0.2-0.3-0.4-0.5-0.7-0.8c-0.3-0.3-0.5-0.5-0.7-0.8
					c-0.2-0.3-0.3-0.6-0.4-1.1c0.2-0.3,0.5,0.2,0.7-0.2c-0.2-0.4-0.3-0.7-0.4-1c-0.1-0.3-0.1-0.6-0.1-0.7c0-0.3,0-0.6-0.3-1
					c-1-0.2,0.2,0.5-0.8,0.2l0.4,0.6c-0.7-0.5,0.1,0.6-0.5,0.7c-0.3-0.4-0.1-1.2-0.1-1.9c-0.4,0.1,0.2,0.7-0.4,0.6l0.1-0.4
					c-0.1,0.1-0.2,0.2-0.2,0.4c-0.4,0-0.1-0.4-0.2-0.6c0.2-0.1,0.5-0.2,0.8-0.2c0,0-0.1,0-0.2,0c0.4-0.8-0.4-1.7-0.1-2.3
					c-0.1,0.1-0.1,0.1-0.2,0.1c-0.1-0.4,0.3-0.9,0.2-1.4c-0.4-0.2-0.8,0.4-0.9-0.4c0.3-0.2,0.9-0.1,0.7-0.7
					C514.5,33,514.4,33.7,514.1,33.4z M514.7,47.2c-0.1,0-0.2-0.1-0.4-0.1c0,0,0,0,0,0C514.5,47.1,514.7,47.1,514.7,47.2z
					 M513.2,46.2c0.1,0.1,0.3,0.3,0.3,0.4c-0.1-0.1-0.2-0.1-0.3-0.1c-0.1-0.1-0.2-0.1-0.3-0.1C513,46.3,513.4,46.4,513.2,46.2z
					 M513,42.8c0,0-0.1-0.1-0.1-0.1c-0.1-0.1-0.1-0.1-0.2-0.1c-0.1-0.2-0.2-0.3-0.1-0.2C512.8,42.5,512.9,42.7,513,42.8z"/>
				<path class="st0" d="M513.6,43.5C513.6,43.6,513.7,43.6,513.6,43.5c0.1,0.1,0.2,0.2,0.2,0.3C513.7,43.7,513.6,43.6,513.6,43.5
					C513.6,43.5,513.6,43.5,513.6,43.5z"/>
				<path class="st0" d="M511.3,22L511.3,22C511.3,22,511.3,21.9,511.3,22C511.3,21.9,511.3,22,511.3,22z"/>
				<polygon class="st0" points="500.4,42.8 500.3,42.7 500.4,42.7 				"/>
				<path class="st0" d="M519.3,18.1c0.1-0.1,0.1-0.1,0.2-0.2C519.5,18,519.4,18.1,519.3,18.1z"/>
				<path class="st0" d="M523.1,17.2l0.4-0.2c0,0,0,0,0,0l0,0l0,0.1c0,0,0-0.1,0-0.1l0,0c0,0-0.1,0-0.1,0
					C523.3,17.2,523.2,17.2,523.1,17.2z"/>
				<path class="st0" d="M522.5,19.5c-0.1,0.1-0.2,0.1-0.3,0.2l0,0L522.5,19.5z"/>
				<path class="st0" d="M497.1,10C497.1,10,497.1,10.1,497.1,10C496.9,10.3,497,10.2,497.1,10z"/>
				<path class="st0" d="M505.7,8.7c0-0.2,0-0.3,0-0.5C505.9,8.4,506,8.6,505.7,8.7z"/>
				<path class="st0" d="M495,18.9C495,18.9,495,18.9,495,18.9L495,18.9L495,18.9z"/>
				<path class="st0" d="M505.4,7.7c0.2,0.2,0.3,0.3,0.3,0.5C505.6,8.1,505.5,7.9,505.4,7.7z"/>
				<path class="st0" d="M514.6,29.3L514.6,29.3c-0.1,0.1-0.1,0.1-0.1,0L514.6,29.3z"/>
				<path class="st0" d="M514.5,29.4l-0.1,0C514.4,29.4,514.4,29.3,514.5,29.4z"/>
				<path class="st0" d="M514,29.5l0.3-0.1C514.2,29.5,514.2,29.6,514,29.5z"/>
				<path class="st0" d="M517,26.9l0.1,0.1C517.1,27,517,27,517,26.9z"/>
				<path class="st0" d="M517.7,26.3c-0.1,0.2-0.2,0.7-0.5,0.8l-0.1-0.1C517.4,27.1,517.4,26.2,517.7,26.3z"/>
				<path class="st0" d="M518.5,22.4c-0.1,0.2-0.1,0.3-0.2,0.5c-0.1-0.1-0.4-0.2-0.6,0c-0.1-0.2-0.1-0.2,0.1-0.2
					C518,22.7,518.3,22.7,518.5,22.4z"/>
				<path class="st0" d="M518.9,21.1c-0.3,0.3-0.5,0.2-0.7,0.4C518.6,21.2,518.7,21.1,518.9,21.1z"/>
				<path class="st0" d="M507.1,17.5l-0.4,0.2C506.7,17.3,506.9,17.6,507.1,17.5z"/>
				<polygon class="st0" points="507.8,13.4 508.2,13.6 507.9,13.9 				"/>
				<polygon class="st0" points="504.4,12.3 504.4,12.5 504.4,11.9 				"/>
				<path class="st0" d="M490.9,22.2l0.2-0.5C491.3,21.8,491.2,22.4,490.9,22.2z"/>
				<path class="st0" d="M483.9,22.4c0.4,0.1,0.7,0.2,0.5,0.3C484.3,22.6,483.9,22.5,483.9,22.4z"/>
				<path class="st0" d="M495.4,43.1c0,0-0.1-0.1-0.1-0.1C495.3,43.1,495.3,43.1,495.4,43.1L495.4,43.1z"/>
			</g>
			<g>
				<path class="st0" d="M490.2,22.4c0.1,0.2,0,0.4-0.4,0.3l-0.2-0.6L490.2,22.4z"/>
				<path class="st0" d="M487,22.7c-0.4-0.4-0.9-1-0.4-1.4c0.3,0.6,0.5,0.5,0.9,1.2c0.4,0.2,0.8,0,0.8-0.2c0.1,0.2,0.7,0,0.9,0.4
					c-0.7,0.3-1.4,0.1-2.1-0.4C486.9,22.4,487,22.6,487,22.7z"/>
				<path class="st0" d="M493.3,32.7c-0.1,0.1-0.1,0.1-0.2,0.2C493.1,32.8,493.2,32.8,493.3,32.7z"/>
				<path class="st0" d="M495.3,37.1c-0.1,0.2-0.1,0.3-0.2,0.3C495.2,37.2,495.2,37.1,495.3,37.1z"/>
				<path class="st0" d="M495.6,32.4c0,0.1,0,0.2,0,0.3C495.5,32.6,495.5,32.5,495.6,32.4z"/>
				<path class="st0" d="M493.3,32.7c0.1-0.2,0.3-0.4,0.4-0.6C493.8,32.2,493.5,32.5,493.3,32.7z"/>
				<path class="st0" d="M485.3,22.6c-0.1,0-0.3-0.1-0.4-0.2C485,22.5,485.2,22.5,485.3,22.6C485.3,22.5,485.3,22.6,485.3,22.6z"/>
				<path class="st0" d="M492.2,25.3l-0.3,0c-0.1-0.1-0.1-0.1-0.2-0.2C491.9,25.2,492.1,25.3,492.2,25.3z"/>
				<path class="st0" d="M493.2,26.7c-0.2,0.1-0.4-0.4-0.5-0.5c0.2,0.2,0.3,0.2,0.5,0.2C493.2,26.4,493.2,26.5,493.2,26.7z"/>
				<path class="st0" d="M487.5,21l-0.3-0.1C487.3,20.9,487.5,21,487.5,21z"/>
				<path class="st0" d="M493.6,30.9c0.1,0,0.1,0.1,0.1,0.1C493.7,31,493.7,30.9,493.6,30.9z"/>
				<path class="st0" d="M511.2,22.9C511.2,22.9,511.3,22.9,511.2,22.9C511.2,22.9,511.2,22.9,511.2,22.9z"/>
				<path class="st0" d="M518.4,20l-0.1,0.1c-0.1,0-0.1-0.1-0.2-0.2L518.4,20z"/>
				<path class="st0" d="M499.2,30.7C499.2,30.7,499.2,30.7,499.2,30.7C499.3,30.4,499.3,30.6,499.2,30.7z"/>
				<path class="st0" d="M505.7,33.6c0.7,0.7-0.1-1.6,0.8-0.5C506.3,33.1,506.3,34.6,505.7,33.6z"/>
				<path class="st0" d="M485.5,22.6c0.1,0,0.2,0,0.4,0C485.7,22.6,485.6,22.6,485.5,22.6z"/>
				<path class="st0" d="M506.5,33.2L506.5,33.2l0.1,0.1C506.6,33.2,506.5,33.2,506.5,33.2z"/>
				<path class="st0" d="M499.5,31.6c0,0.1,0.1,0.2,0.1,0.3C499.5,31.8,499.5,31.8,499.5,31.6z"/>
				<path class="st0" d="M497.6,35.5l0,0.4C497.6,35.7,497.6,35.6,497.6,35.5z"/>
				<path class="st0" d="M501.8,36c0.1-0.2,0-0.3,0.2-0.5c0,0,0,0.1,0,0.1C502,35.7,501.9,35.8,501.8,36z"/>
				<path class="st0" d="M507.9,33c-0.1,0-0.1-0.1-0.2-0.1c-0.1-0.1-0.1-0.2-0.2-0.3L507.9,33z"/>
				<path class="st0" d="M506.5,31.8c0-0.2,0-0.4-0.1-0.6C506.6,31.5,507.4,30.4,506.5,31.8z"/>
				<path class="st0" d="M485.3,22.4c0,0.1,0.1,0.2,0.2,0.2c-0.1,0-0.2,0-0.3,0C485.3,22.4,485.3,22.4,485.3,22.4z"/>
				<path class="st0" d="M505.2,37.1l0.2-0.6l0.1-0.2c0,0,0,0,0,0l0-0.1c0,0,0,0,0,0.1l0,0c0,0,0,0.1,0,0.1
					C505.4,36.7,505.3,36.9,505.2,37.1z"/>
				<path class="st0" d="M497.7,16.3l-0.1,0.3C497.6,16.4,497.6,16.3,497.7,16.3z"/>
				<path class="st0" d="M505.8,35.9c0-0.3,0.1-0.4,0.1-0.4c0,0.1,0,0.1,0,0.2C505.8,35.8,505.8,35.8,505.8,35.9z"/>
				<path class="st0" d="M506.4,31.2C506.4,31.2,506.4,31.2,506.4,31.2C506.4,31.2,506.4,31.2,506.4,31.2z"/>
				<path class="st0" d="M510.2,24.3c0.4-0.3,0.4-0.4,0.3-0.5c0-0.1-0.2-0.3,0-0.7c0.3,0,0.4-0.2,0.6-0.3c0.1-0.1,0.2-0.2,0.4,0
					l-3-2c0,0-0.1,0-0.1,0c0.4,0.5,0.3,0.3,0.5,1.1c-0.4-0.4-0.7,1.3-1.1,1.2c0.5,0.4,0.9-1.1,1.3-0.1c-0.5,0.6-0.8,1.8-1.5,1.8
					c0,0.5,0.2,0.8,0.2,1.6c0-0.1,0.1-0.3,0.2-0.3c-0.1,0.2-0.2,0.5-0.3,0.8l3.5,0.6c0.2-0.5,0.3-0.9,0.6-1.3c0.3-0.4,0.6-0.6,1-0.6
					c-0.4-0.2-0.1-0.7,0.3-1c0.4-0.3,0.7-0.5,0.1-0.7c0.2-0.1,0.6-0.2,0.9-0.2l-2.4-1.7c-0.1,0.3-0.3,0.5-0.3,0.6
					c0.7,0,0.1,1.5,0.4,2.2c-0.2,0.1-0.3,0.5-0.4,0.8l-1,5.1l4-3.9c0.3-0.3,0.6-0.6,0.9-0.8c-0.2,0.2-0.4,0.2-0.5,0
					c0.7-0.4,0.3-0.4,0.5-1.1c0.8-0.6,0.3,0.5,0.9,0.2c0.4-0.7-0.2-0.4-0.4-0.7c0.5-0.2,0.9-0.3,1.4-0.5c0.1-0.2,0.1-0.5,0.1-0.7
					c0.4-0.2,0.9-0.2,1.1-0.9l-0.8,0.8l0-0.5c0.4-0.2,0.8-0.4,1.2-0.6c0.9-1.6,0-1.8-0.6-2.2l-0.6,0.4c-0.2-0.2,0.1-0.7,0.4-0.9
					c0.1-0.3-1.5,0.3-2.1,0.8c-1.6,1.7,0.3,0.9-0.7,2.2c-0.6,0.4-1.1,0.8-1.7,1.2l0.2,0.2c-0.1,0.4-0.4,0.3-0.5,0.3
					c0.2,0.1-0.2,0.6-0.7,1.1l1.2,0.5c0-0.4,0.1-0.8,0.1-1.1l0.3,0.3c0.4-1.1,0.3-1.9,0.2-2.7l-0.4-1.7l-1,0.8
					c-0.8,0.6-1.3,1.4-2.2,1.9c-0.5,0.2-0.9,0.4-1.3,0.7c0.1,0.2,0.2,0.3,0.2,0.5c-0.3,0.3-0.6,0.4-0.8,0.7
					c-0.2,0.2-0.4,0.6-0.5,1.3c0,0.2,0,0.4,0,0.5l2.1,0.4c0-2.1,0.4-4.1,0.9-6.2l0.4-2l-1.8,1.1c-1.1,0.6-1.9,1.6-2.5,2.6
					c-0.6,1-1,2-1.2,3.1c-0.1-0.1-0.1-0.2,0-0.5c-0.1,1.5-0.5,2.5-1.2,3.4c-0.6,0.8-1.4,1.4-2.1,1.9l2.5,1.2
					c0.2-0.8,0.3-1.6,0.1-2.5l-0.2,0.2c0.3-1.7-0.2,0.2-0.3-1.1c0.6-0.2,0.7-2.1,1-3.1c-0.1,0.1-0.2,0.5-0.3,0.8
					c-0.1-0.2-0.4-0.3-0.3-0.8c0.9-1,1.1-3.4,1.5-5.1c-0.4-0.2-0.5-1.8-1.1-2.6c0,0,0.1-0.1,0.2-0.2l0.4-0.6l-1.5,0.2
					c-0.2,0-0.5,0.1-0.8,0.2c-0.2,0.7-0.6,1-1,1.3c0.3-0.5,0.6-0.9,0.8-1.2c0,0,0,0-0.1,0c0.1,0,0.1-0.1,0.2-0.2
					c0.2-0.2,0.3-0.4,0.3-0.4l3.5-2l-1.2,2.8c0,0,0,0,0,0c0,0,0,0,0,0l0,0l0,0l0,0l0,0l0,0l0,0l-2.2-0.9c0,0,0,0,0,0c0,0,0,0,0,0
					l2.3,0.9c0.3,0.7,0.3,0,0.7,0.1l-3.5-1.3c0,0,0,0,0,0c-0.4,0.5-1.2,1.5-1,1.8c-0.2,0.3-0.3,0.5-0.4,0.9
					c-0.2,0.2-0.3,0.4-0.4,0.6l0.1-0.1c0,0.1,0,0.1,0,0.2c-0.4,1.1-1.7,2.2-2.4,3c0.9-0.6,0.5,0.5,0.8,0.7c-0.1,0.1,0.4-1,1.1-2.3
					c0,0.1,0,0.2,0.1,0.3c-0.2,1.3-1.3,1.7-1.8,3.5c0.1-0.1,0.3-0.3,0.4-0.1c-0.2,0.6-0.7,1-1,1.1c0.2,0.2,0.1,0.7,0,1.1l1.6,0.4
					c-0.1-0.4-0.1-0.9,0-1.2c0.4-0.6,0.5-0.5,0.5-1.5l-0.3,0.4c-0.2-1.3,0.5-1,0.3-2c0.1,0.4-0.2,0.4-0.2,0.1
					c0.3-1.3,0.4-1.3,1.1-2.2l-0.5,0.1c0.4-1.1,1.2-3,0.6-3.2c0.8,0.5,0.8-2.3,1-3.2c-0.1,0.3-0.3,0.3-0.4,0.4
					c0.4-0.7,0.6-1.4,0.7-2.1l-3.8-1.1c-0.4,1.2-0.7,2.5-1.2,3.8l0.5,0.5c-0.4,1-1.8,0.8-2.2,2l0.5-0.3c-0.7,1.6-1,2.4-1.4,3.7l4,1
					c0-0.2,0-0.4,0.1-0.7l-0.4,0c0.3-0.6,0.4-1.3,0.7-1.8c-0.4-0.8,0-2.1,0.5-3.5c0.5-1.4,1.1-2.9,0.9-4.3l0.8,0.1
					c0.3-0.9,0.9-2,0.4-2.6l-0.1,0.2c-0.4-0.1-0.2-0.4,0-0.7l-2.8-1c-0.1,0.3-0.3,0.6-0.3,0.8c-0.2,0.4-0.7,0.8-0.7,0.3
					c-0.2,1.3-0.6,2.9-0.9,4.4c-0.3,1.5-0.5,2.9-0.3,3.7c-0.8,2.5-1.8,4.4-2.1,7.3l0.1,0c0,1,0,2.9,0.7,3c-0.3,1.4-0.9,2.5-1.1,3.9
					l-1.7,8.9l5.4-7.9c0.3-0.5,0.6-1,0.8-1.6l-0.5,0.3c0.2-0.6,0.9-1.3,1.1-1.5c0.1-0.2-0.1-0.1-0.2-0.1c0-0.6,0.5-0.8,0.8-1.1
					l-0.3,0.1c0.1-0.2,0.1-0.4,0.2-0.7c0.1-0.2,0.2-0.5,0.3-0.6c0.1-0.2,0.2-0.3,0.4-0.4c0.1-0.1,0.2-0.1,0.3-0.2
					c0.1,0,0.1,0,0.2-0.1c0,0.1,0,0.1,0.1,0.1c0-0.2,0-0.8,0.1-1c0,1,0,1.4,0,1.6c0,0.2,0,0.3,0,0.4c0.1-0.1,0.2-0.1,0.2-0.2
					c0,0.1-0.1,0.1-0.1,0.2c0,0.1,0.1,0.3,0.2,0.4c0.2,0.3,0.3,0.4,0.5,0.6c0.4,0.3,0.7,0.6,0.9,1.7l-0.8-0.9
					c0.4,0.7,0.6,1.4,0.2,1.4c0.6,0.8,0.6-0.1,1.2,1.2c0.2,0-0.3-1,0.2-0.7l1.3,1.6c0.1,0,0.2,0.3,0.4,0.9c-1,0.2,0.6,1.5-0.7,1
					c0.1,0.2,0.1,0.3,0.2,0.5l1.1,2.7l2-2.1c0.8-0.8,1.1-1.8,1.3-2.6c0.2-0.8,0.3-1.5,0.4-2.2L508,31c0,1,0,1.9-0.2,2.9
					c0.9,1,0,4.8,1.2,4.5c0,1.4-0.3,2.5-0.8,3.3c-0.1-0.3,0.1-0.6,0.1-0.9c-0.3,0.4-0.4,2-0.4,2.7c0.3-0.9,0.5-2.3,1-3
					c-0.1,1.2-0.6,3-0.8,3.6l0.1,0l6.3,3.3l-4.1-3.1l-0.5-0.4c0.6-1-0.3-0.9,0.4-1.9l0.2,0.2c0.2-1.9,0.8-1.9,1-3.7l-0.2,0.1
					c-0.1-0.6,0.6-1.5,0-2.2l-0.1,1.2c-0.4-0.1-0.6-1-0.8-1.5c0.1-1.2,0.7-0.4,0.8-1.1c-0.4-0.3-0.2-0.1-0.6,0.4
					c0-0.3,0.1-0.5,0.1-0.8l-1,0.3c0.5,1,0.9,2.3,0.7,3.1c0.1,0,0.1-0.1,0.1-0.1c0.2,0.6,0.2,1.2,0.2,1.7c0,0.5-0.1,1,0,1.4l2.8-1
					c0,0-0.1-0.1-0.1-0.1l0.1,0.1l-2.6,0.9l0-0.1c0,0,0,0.1,0.1,0.1l2.5-0.9c-1-0.7-1.2-2.6-2.1-2.2c-0.5-0.3,0.8,1-0.2,0.6
					c-1.3-1.2,0-1.4-1.1-2.4c0.1,0.1,0.1,0.1,0,0.2c-0.3-0.4-0.7-1-1-1.5c-0.5-0.7-0.9-1.4-1.3-2.1c-0.4-0.2-0.8-0.6-1.3-1
					c-0.2-0.2-0.4-0.3-0.6-0.5c-0.1-0.1-0.2-0.2-0.4-0.2c-0.2,0-0.3,0-0.5,0c-0.3,0.1-0.5,0.3-0.7,0.6c-0.2,0.2-0.3,0.5-0.5,0.8
					c-0.3,0.6-0.5,1.4-0.5,2c0-0.4-0.1-0.4-0.3-0.2c-0.2,0.2-0.3,0.4-0.4,0.4c0,0,0.1,0,0.1,0.1c-0.1,0.2-0.2,0.3-0.2,0.4
					c-0.1,0.1-0.1,0.1-0.2,0.2c-0.1,0.1-0.3,0.1-0.4,0.2c0.1,0.5-0.8,1.3-0.9,1.7l2.7,0.3c0-0.1,0-0.1-0.1-0.1c0.2,0,0.1-0.5,0-1.1
					c0,1.1-0.4,0.4-0.6,1c-0.4-1.6,0.6-2,0.1-3.7l-0.6-0.9c0.3-0.1,0.3-0.6,0.3-1l-0.3-3.8l-2.5,3.3c-0.3,0.3-0.5,0.7-0.5,0.6
					c0,0.3-0.1,0.8,0.2,0.9c-0.5,0.5-0.8,1.5-1.2,1.6l0.2-0.7c-0.9,1.9-2.3,2.5-2.8,4.1l0.8,0.5c-0.2,0.9-1.1,1.3-1.4,2.1l1.6,0.5
					c0-0.1-0.1-0.3-0.2-0.4c0.3,0.3,0.2,0.4,0.5-0.3c0,0.2,0,0.4-0.1,0.7l-2.2-0.6c0.2-0.3,0.5-0.6,0.7-0.9l-0.9,0.7l2.7,0.8
					l0.1-0.3l0,0.3l-2.9-0.9l1.2-1.5c-0.8,0.6-0.7,0.6-0.8,0.1c-0.5,0.5-0.6,0.9-0.7,1.2l3.6,1c-0.1-0.4-0.2-0.7,0-1.3
					c-0.1-0.5-0.5,0-0.6-0.5c0.4-1.1-0.5-2.2,0-3c-0.1-0.3-0.1,0.5-0.3,0.4c0.2-0.7,0.2-1.3,0.5-1.4l0,0.6c0-0.6,0.4-0.6,0.3-1.7
					c0.3-0.6,0.8-0.8,0.7-0.2c0.1-0.3-0.1-0.9-0.4-0.7c0.2-1.6,1.1-0.6,0.9-2.2c0,0.1-0.1,0.2-0.2,0.1c0-0.4,0.1-0.7,0.2-1
					c-0.3,1.4-0.7-0.6-0.8,1.1c-0.5-0.3,0.1-1.3,0.1-1.8c0.5-0.7,0.7,0.1,1-0.3c-0.2,0-0.1-0.4-0.1-0.7l0.3,0.5
					c0.1-0.3,0.1-0.5,0.2-0.8l-4.5-0.8c0,0.1,0,0.1-0.1,0.2l0.1-0.2l4.5,0.8l-0.2,0.4c0-0.1,0-0.3,0-0.5l-4.1-0.7
					c0.1,0.7,0.3,1.7-0.1,2.7c0.2-0.3,0.6-1,0.7-0.1c-0.4,1.4,0.1,0.3,0.3,1.2c-0.3,1.4-0.7,0.2-0.7,2.3c0,0.2-0.2,0-0.3-0.3
					c0,1.4-0.4,2.1-0.4,3.5c0-0.6,0-1.1-0.3-0.3c0.4-0.3,0,1.1,0.1,1.7l-0.2,0.1c0.1,0.5,0.3,0,0.4-0.3c-0.1,0-0.1-0.1,0-0.4
					c0.3-0.6,1-0.2,0.7,0.8c-0.5,1.1-0.9,0.7-1,0.5c-0.2,1.2-0.9,1.2-1.3,1.9l3.4,1.1c0.1-0.2,0.1-0.4,0.1-0.7
					c0.1-0.3-0.4-1.6-0.2-2.7c0.5-0.4,0,1.4,0.5,0.9c-0.6-2,1.5-3.5,1.4-6l-0.6,0.2c0.1-0.5,0.2-1.1,0.3-1.7l0.1,0.9
					c0.2-0.5,0.4-1.8-0.1-1.5c0.7-1.1,0.5-1.5,0.6-2.6c-0.2,1.2,0.1,0-0.4,0.9c0-1.3,0.2-1.4,0.5-2.2c-0.2,0.1-0.4-0.4-0.3-0.7
					c0,0,0-0.1,0.1-0.1l0.5-1.2l-1.3,0.8c-0.8,0.5-1.4,1.8-2,2.8l0.1,0.1c-0.5,0.8-0.8,1.8-1.2,2.7c-0.4,0.9-1.1,1.7-1.9,2l0,0
					c0,0,0,0,0,0c0,0-0.1,0-0.1,0l0.1-0.1c0.1-0.6-0.7,0.1-1.3,0.1l1.4,1.1c0-0.2,0-0.4,0.1-0.5c-0.1-0.1-0.3-0.2-0.3-0.5
					c0.5,0,0.3-0.7,0.6-0.9c-0.1-0.6-0.6,0-0.3-1.1c0.1-0.4,0.4-0.4,0.5-0.3c-0.1-0.1-0.1-0.4-0.1-0.7c0-0.1,0-0.4,0.1-0.5
					c0-0.2,0.1-0.4,0.2-0.6c-0.2,0.2-0.2,0.7-0.3,0.8c-0.3,0,0-0.4-0.3-0.5c0.2-0.6,0.5-0.2,0.7-1l-0.7,0.7c0-0.3,0.3-0.6,0.4-0.8
					c-0.3,0.5-0.7,0.4-0.9,0.4c0.4-0.6,0.8-0.8,1.1-0.8c0.3,0,0.5,0.3,0.8,0.2c0.3-0.7,0.7-1.4,1.2-2.1c0-0.1,0-0.1-0.1-0.2
					c-0.1,0-0.2,0-0.3-0.1c-0.2,0-0.5-0.1-0.7-0.1c-0.5-0.1-0.9-0.2-1.5-0.2c0,0.1,0,0.3,0,0.4c-0.7-0.1-1-0.2-1.2-0.5l-1.3-0.1
					c0.7,0.2,0.9,0.4,0.8,0.7c-0.3-0.1-0.6-0.1-0.9-0.1c-0.3,0-0.5-0.1-0.7-0.1c-0.5-0.1-0.8-0.2-0.9-0.5l0,0.1c-0.4,0-0.8,0-1.3,0
					l-0.1,1.7c1.2-0.1,2.6-0.4,2.5-0.5c1.4,0.1,3-0.6,3.1-0.1c0.8,0,1.9-1.2,2.6-0.7c0.8-0.7,0-0.2-0.4-0.5c0.8-0.6,2-0.1,2-0.9
					c0,0,0,0,0,0l0.5,0.2l-0.5-0.4c-0.9-0.6,0.3,0,0.1-0.5c-0.5,0.6-2-0.7-3.1-0.6c-0.3-0.4,0.5,0-0.1-0.6c0,0.2-0.4,0.1-0.6,0.1
					l-0.1-0.5c-0.5,0.3-0.9,0.6-1.3,0.9c-1.4-0.9,0.5-0.7-1.5-1.4l0.1,0.1c-0.7,0.4-1.4-0.7-3-0.5c0.5,0,0.2,0.3,0.3,0.4
					c-0.3-0.1-0.5-0.2-0.8-0.3c0.1,0,0.1,0.1,0,0.1c-0.8,0.3-0.6-0.3-1.5,0c0.6,0.2,0.4,0.5,0.1,0.6c-0.4-0.2-0.8-0.4-1.2-0.6
					l0.5,0.7c-0.7,0-1.5-0.4-2.2-0.5l0.1-0.2c0.4,0.3,0.9,0.5,1.3,0.3l-0.5-0.3c0.1-0.1,0.6-0.4,1.2,0.2c0.2,0.2,0.2,0.6-0.1,0.4
					c0.2,0,0.4,0.1,0.6,0.1c-0.1-0.5-1.3-1.1-2-1.6l-0.6,2.3c0,0,0.1,0,0.1,0c0,0-0.1,0-0.1-0.1l0.5-2.2c0.2,0.3,0.6,0.6,0.3,0.8
					c-0.2-0.1-0.4-0.3-0.5-0.4l-0.4,1.5c0.6,0.1,1.1,0.3,1.7,0.5c-0.3-0.2-0.5-0.5-0.6-0.6c0.9-0.2,0.6,0.3,1.3,0.4
					c0.3-0.2,0.4-0.3,0.3-0.4c0.8,0.2,1.5,0.3,2.4,0.3c0,0-0.2-0.1-0.4-0.2c-0.2-0.1-0.3-0.3,0-0.4c1.6,0.5,1.8,1.1,3.4,1.7
					c0.9,0.6,1.8,0.7,2.7,0.9c0.9,0.1,1.7,0.3,2.3,0.8c0,0.2-1.1-0.1-0.3,0.4c0-0.4,0.6,0,0.7-0.1c0.1,0.1,0.2,0.2,0.2,0.3l0.1-2.4
					c-0.8,0-1,0.6-1.7,0.5c0.2,0.1-0.3,0.4-0.6,0.6c0.2,0.4-1,0.5,0.6,0.7c-0.8-0.1-1.4,0.1-2,0.2c-0.6,0.1-1.2,0.2-1.8-0.3l0.3-0.2
					c-0.5,0.2-0.9,0.3-1.4,0.4l0.1,0c-0.6,0.2-0.7,0-1.5,0.6c0.4,0.1,0.9,0,1.3,0.1c-0.8,0.5-1.7-0.2-2.6-0.2c0,0.3,0.9,0.1,0.7,0.5
					c-0.2,0-0.5,0-0.7,0l0,0.3c0.4,0.1,0.7,0.2,1,0.3l-0.1-0.2c1.6-0.3,0.5,1,1.7,0.4c0,0.1,0.1,0.2,0,0.3c0.1,0,0.2-0.1,0.3-0.1
					c0.1-0.1,0.2-0.1,0.3-0.2c0.2-0.1,0.3-0.3-0.2-0.4c0.5,0,1.1,0.3,1.1,0.5c-0.6,0.2-0.6,0.1-0.9,0.4c0.4,0.1,0.8,0.2,1.1,0.3
					c0.1,0,0.2-0.2-0.1-0.2c0.2-0.1,0.4-0.1,0.6-0.1c0.1,0,0.2,0,0.3,0l0,0l0,0l0,0l0,0.1c-0.1,0.3-0.4,0.7-0.6,1.1
					c-0.1,0.2-0.2,0.4-0.3,0.6c-0.1,0.1-0.1,0.2-0.2,0.3l-0.1,0.1l-0.1,0.2c-0.5,1.1-0.8,2.5-0.3,3.8c-0.3-0.4-0.3,0.2-0.5,0.5
					c0,0.1,0,0.1,0,0.2l0.1,1.4l1.2-0.4c0.6-0.2,1.2-0.5,1.7-0.9c0.5-0.4,1-0.9,1.2-1.3c-0.1,0-0.2,0.1-0.4,0.1
					c1-0.8,1.6-1.6,2.1-2.4c0.5-0.8,0.9-1.4,1.1-2.1c0.1,0-0.3-0.1-0.5,0.1c0.4-0.4,0.5-1,0.6-1.5c0.1-0.5,0.3-0.9,0.7-0.7l-0.2,0.3
					c0.1-0.2,0.2-0.4,0.3-0.5l-1.4-0.6c-0.3,1.9-1.2,4-1.7,5.9c0.4,0.6,0.3-1.3,0.8-0.7c-0.1,1.6-0.9,3-1.1,4.7
					c0.1-0.3,0.2-0.2,0.2-0.3c-0.1,1.7-0.4-0.3-0.7,1.1c0.3,0,0.3,0.1,0.3,0.6l-0.5,0.3c0,0.1,0.3,0.1,0.5,0
					c-0.7,0.5-0.8,2.4-1.4,2.8c0.1,0.2,0.6-0.1,0.8,0.2c0,0.2-0.1,0.4-0.1,0.6l0.7,0.2c0.2-0.4,0.4-0.7,0.7-1l0,0
					c-0.1-0.6,0.3-1.9,0.1-1.6c0.2-1.4,0.3-0.1,0.9-1.1c0,0.4,0,0.8-0.1,1.1c0.2-0.6,0.4-1.3,0.6-1.9c-0.1,0.2-0.3,0.5-0.4,0.7
					c0-0.9,0.6-1.7,0.8-2.8l0.2,0.5c0.1-0.4,0.3-0.8,0.4-1.2c-0.6-0.2,0.1-1.5-0.7-1c0-2.2,0.9-3.5,1.2-5.5c0,0.3-0.1,0.2-0.2,0.3
					c0-0.1,0-0.2,0-0.3l-2.2-0.4c-0.2,1-0.6,1.5-1,2.1c0.2-0.1,0.3-0.4,0.5-0.3c-0.3,1.4-0.5,0.8-1,2.3c0.3-0.4,0.4-0.2,0.4,0.2
					c-0.2-0.1-0.4,0.2-0.5,0.5c1.3-1,0.2,1.8,1.2,1.2c-0.3,0-1.1,2.3-1.4,1.6L495,34c-0.3-0.1-0.3,0.5-0.3,0.9
					c0.1-0.2,0.2-0.4,0.2-0.4c-0.6,2-0.5,4.1-0.7,6.3l-0.6,6.2l3.9-5.2c0.1-0.2,0.2-0.3,0.4-0.5c-0.1,0.1-0.3,0.3-0.5,0.4l-4.8,3.3
					l1.8-4.2c0.1-0.2,0.1-0.2,0.2,0l2.6,0.8c0,0,0,0,0,0c1.1-2.1,2.4-3,3.9-4.9c-0.6-0.5-1.5,2.2-2.1,1.9c1.2-1.7,2.6-3.5,4.1-5.3
					l-3.6-0.7c0,0.4,0,0.8,0.1,1.3c1.2,0.8,0,2.8,1.2,4.3c-0.1,0-0.2,0-0.2,0.1l-1.4,2.1l5.1-1.7c0.3-0.1,0.6-0.7,0.9-1.4
					c-0.4,0.2,0-0.7-0.3-0.6c0.1-0.1,0.2-0.2,0.3-0.3c0,0,0.1-0.2,0.1-0.2l0.1,0c0.1-0.1,0.1-0.1,0.2-0.2c0-0.1,0-0.5-0.2-0.9
					c0.2,0.4,0.2,0.3,0.3,0.1c0-0.1,0.1-0.2,0.2-0.1c0.1,0.1,0.1,0.2,0.1,0.4c0.1-0.1,0.2,0.1,0.3,0.3c0,0.1,0.1,0.2,0.1,0.2
					c0,0,0,0,0,0c0,0,0,0,0.1,0.1c0.1,0.1,0.2,0.2,0.3,0.4c-0.6-0.1,0.6,1.2,0.7,1.7c-0.1-0.1-0.2-0.4-0.1-0.4
					c0.5,0.1,0.6,1.4,1.2,1.9c0.3,0.2,0.3-0.3,0.6,0.1c-0.2,0.2,0.6,2,1.4,2.4c-0.2-0.3-0.1-0.4-0.1-0.6c0.1,0.2,0.2,0.4,0.3,0.6
					l3.1,5.4l0.3-6.6c0.1-2.6-0.9-5.2-2.3-7.4l-3.6-5.7l-0.1,6.8c0,1.1-0.1,2.1-0.3,3.1l0.5-0.6c0.6,2.2-0.9,1.4-1,3
					c-0.1,1.1-0.1,2.3-0.2,3.4l4.6,0.4c-0.3-3.7-0.6-7.4-0.3-11c0.2-0.3,0.2,0.2,0.4,0.3c-0.1-0.4-0.5-0.5-0.2-1.1l0.3,0.1
					c-0.1-0.4-0.2-0.9-0.2-1.5l-4.2-0.4c-0.1,0.6-0.2,1.2-0.4,1.7c-0.2,0.5-0.4,0.8-0.6,1l3.6,0.7c-0.4-0.8-0.8-1.5-1.4-1.9
					c-0.4-2.1-1.6-3.1-2-5.7c0,0,0,0,0-0.1c0,0,0-0.1-0.1-0.1c0,0-0.1-0.1-0.1-0.1c0,0-0.1,0-0.1,0c0,0.1,0,0.3,0,0.4
					c0,0.1,0,0.2,0,0.2c0,0,0,0-0.1-0.1c0,0,0-0.1-0.1-0.1c0,0,0-0.1-0.1-0.2c-0.3-1.2-0.7-2.5-1.2-3.9l0.1,0.3
					c-0.4-1.9-1.3-3.9-2.2-5.4c-0.7,1.6-1.4,3.3-2,5c-0.6,1.5-1.2,2.7-2,3.8l0.1-0.1c0.1,0,0.1,0.1,0.1,0.2c0,0,0,0.1,0,0.2
					c0,0,0,0.1,0,0.2c0,0.2-0.1,0.5-0.2,0.6c-0.2,0.1-0.1-0.2-0.1-0.5c-1.4,2.1-1.7,2.6-2.6,4.3c0.3-0.3,0.3-0.1,0.2,0.3l3,0.8
					c-0.1-0.3-0.1-0.7-0.3-0.7c0.3-0.5,0.4,0.3,0.7-0.8c0.2-1.6,0-3.1,0-4.5c0.4-0.5,0.4-1.2,0.9-1.2c0.3-1.8,0.6-2.8,1-5l-0.1-0.1
					c0.7-0.5,0.1-2,0.5-2.3c-0.2,0-0.3,0.2-0.5,0.1l0.4-1c-0.3,0.4-0.8,0.6-0.7-0.2c0.6-0.8,0.2,0.3,0.6-0.1l-0.4-0.4
					c0.2-0.6,0.8-0.7,0.8,0.1c0.5-2.2,1.3-4.3,1.8-6.2l-0.4,0.1c0.1-0.2,0.2-0.4,0.2-0.6l-3.7-1.3c-0.4,0.9-0.8,2.1-0.7,2.7
					c-0.1,0-0.4,0.2-0.4,0c-0.9,1.2,0.5,0.3-0.5,1.6c0.2-0.3,0.4-0.8,0.6-0.8c-0.4,0.9-0.8,1.7-1.2,2.6c0.2,0.1,0.3,1.9-0.2,3
					c-0.1,0-0.3-0.4-0.2-0.7l-0.3,0.7l0.4,0.7l-0.7,1l0.5,0.1c-0.3,0.8-0.9,1-1,1.6c0,0.6,0,1.1,0,1.4l0.9,18.4l2.8-17.5
					c0.1-0.9,0-1.1,0.1-2.4c0.9,0.2,0.9-2.6,1.7-2.7c0.1-1.4,0.7-3.1,1.4-4.8l-2.6-0.8c-0.3,1.2-0.5,2.4-0.7,3.6l0.1-0.2
					c0.2,1.3-0.9,1.3-1,2.8l0.2-0.3c0.2,1.8-0.6,4.9-1,6.6c0.2-0.3,0.4-0.1,0.4,0.4c-0.2,0.5-0.6-0.5-0.5,0.5c0.1-0.2,0.3,0,0.3,0.2
					l-0.5,0.9c0,0.2,0,0.3,0,0.5l0.9,11.2l3.1-10.2c0.7-2.2,1.5-4.7,2.9-6.6c0.1-0.5-0.2-0.3-0.4-0.3c0.7-1.1,1.5-2,2.3-2.9
					l-3.1-1.2c-0.1,0.7-0.3,1.3-0.4,1.9l0.5,0.2c-0.1,0.9-0.9,0.5-0.5,1.7c0,0.3,0.1-0.8,0.4-1c0.2,1.8-0.6,1-0.7,2.7l0.6-0.4
					c0.2,1.3-0.5,1.4-0.9,1.9c-0.9,1.8,1,1.4,0.2,3.8c-0.3,0.4-0.4-0.2-0.8,0.2c0,1.6-0.4,1.9-0.5,3.3l-0.4,7l4.2-5.2
					c0.1-0.1,0.2-0.2,0.3-0.4c0.1-1.5-0.7,0.8-0.5-0.7L505,33l-2.2,3.2l-0.2-4.3l0-0.9c0.4,1.2,0.2-1,0.7-0.8c0,0.5-0.1,1.1-0.3,1.7
					l-0.9,2.9l2.7-2.1c0.2-0.2,0.5-0.4,0.7-0.6c0.2-0.2,0.4-0.4,0.6-0.6c-0.2-0.1-0.4,0.2-0.6,0.4c-0.2,0.2-0.4,0.4-0.4,0l0.5-0.4
					c-0.2,0.1-0.3,0-0.5,0.3c-0.2-0.4,0.4-0.6,0.7-1.1c0.2,0.1,0.4,0.2,0.6,0.6c0,0,0-0.1,0-0.2c0.6-0.4,1-1.2,1.3-1.9
					c0.3-0.7,0.6-1.4,1-1.8c-0.2,0.1-0.2,0-0.2-0.1c0.2-0.6,1-1.1,1.4-1.7c0-0.3-0.3-0.3-0.4-0.4c-0.1-0.1-0.2-0.3,0.2-0.8
					c0.4,0,0.6,0.7,1.1,0C510.8,24.3,510.2,24.8,510.2,24.3z M504.7,21c-0.1,0.1-0.2,0.3-0.3,0.5c0,0,0,0,0,0
					C504.6,21.2,504.7,21.1,504.7,21z M503.4,22.7c0.1-0.2,0.3-0.2,0.4-0.1c-0.2,0.3-0.3,0.7-0.5,0.9
					C503.4,23.1,503.5,22.6,503.4,22.7z M503.5,17.5C503.5,17.5,503.4,17.5,503.5,17.5c-0.3,0.2-0.4,0.4-0.5,0.6
					c0-0.1-0.1-0.3,0.2-0.6C503.3,17.5,503.4,17.5,503.5,17.5z"/>
				<path class="st0" d="M504.1,17.2c0,0,0.1-0.1,0.1-0.1c0,0.1,0,0.2-0.1,0.3c-0.1,0-0.1,0-0.2,0C504,17.4,504.1,17.3,504.1,17.2z"
					/>
				<path class="st0" d="M493.1,32.9L493.1,32.9C493.1,32.9,493,33,493.1,32.9C493.1,33,493,33,493.1,32.9z"/>
				<polygon class="st0" points="496.9,18.9 497,18.9 496.8,19.1 				"/>
				<path class="st0" d="M490.3,27.2c0,0-0.1,0.1-0.2,0.1C490.1,27.3,490.2,27.2,490.3,27.2z"/>
				<path class="st0" d="M490.4,24.9c0.3-0.1,0.5-0.2,0.8-0.3C490.8,24.8,490.6,24.9,490.4,24.9z"/>
				<path class="st0" d="M494.5,23.9c0.1,0.1,0.1,0.1,0.1,0.2l0,0L494.5,23.9z"/>
				<path class="st0" d="M494.7,34.9c0,0.1,0,0.1,0,0.2C494.5,35.4,494.6,35.2,494.7,34.9z"/>
				<path class="st0" d="M496.2,40c0.1-0.2,0.3-0.4,0.4-0.6C496.5,39.8,496.4,40.1,496.2,40z"/>
				<path class="st0" d="M505.1,37.2C505.1,37.2,505.1,37.2,505.1,37.2c0,0,0-0.1,0-0.1L505.1,37.2z"/>
				<path class="st0" d="M496.9,38.4c0,0.4-0.1,0.7-0.3,1C496.7,39.1,496.7,38.7,496.9,38.4z"/>
				<path class="st0" d="M485.4,20.7l0.2,0.1c0,0,0,0.1,0,0.1L485.4,20.7z"/>
				<path class="st0" d="M485.6,20.8l0.2,0.1C485.7,20.9,485.6,20.9,485.6,20.8z"/>
				<path class="st0" d="M486.2,21.2l-0.4-0.3C485.9,21,486.1,21.1,486.2,21.2z"/>
				<path class="st0" d="M487.1,22.6l0,0.2C487.2,22.7,487.1,22.7,487.1,22.6z"/>
				<path class="st0" d="M488.8,22.9c-0.4,0-1.1,0.2-1.6,0l0-0.1C487.4,23,488.5,22.5,488.8,22.9z"/>
				<path class="st0" d="M496.4,22.9c-0.5-0.1-1-0.3-1.5-0.4c0.3-0.1,0.7-0.2,0.1-0.4C497,22.3,494.6,22.3,496.4,22.9z"/>
				<path class="st0" d="M494.6,26.1c0.8-0.1,0.1,0.2,0.1,0.3C494.1,26.4,494,26.4,494.6,26.1z"/>
				<path class="st0" d="M499.2,27.1l0.4,0C499.5,27.7,499.5,27.1,499.2,27.1z"/>
				<polygon class="st0" points="496,32.9 495.8,32.3 496.3,32.1 				"/>
				<polygon class="st0" points="497.9,37.2 498,37 497.7,38 				"/>
				<path class="st0" d="M506.7,30.9c-0.1,0.2-0.2,0.3-0.3,0.5c-0.2-0.2-0.3-0.5-0.2-0.6C506.2,30.7,506.4,30.6,506.7,30.9z"/>
				<path class="st0" d="M511,42.1c0.2,0.3,0.3,1,0,1.4C511,43,510.9,42.4,511,42.1z"/>
				<polygon class="st0" points="502.3,13.7 502.6,13.3 502.2,14.1 				"/>
			</g>
		</g>
	</g>
</g>
</svg>
