<svg xmlns="http://www.w3.org/2000/svg" viewBox="0 0 590.22 60.12"><defs><style>.a{fill:#084f95;}.b{fill:#0b8a44;}.c{fill:#f69322;}</style></defs><path class="a" d="M349.83,0V.15c.08,0,.13,0,.17-.11a7.89,7.89,0,0,1,6.41,4.63,11.82,11.82,0,0,0,2,2.44l.23.51c-.26,3.22-2.08,5.3-5.48,6.23-.54,0-1.38-.09-2.49-.09a.69.69,0,0,0-.35-.2,18.35,18.35,0,0,1-5.45.85,35.06,35.06,0,0,0-2.1,3.54c-2.22,1.39-3.38,2.66-3.46,3.81l.11.34a16.62,16.62,0,0,0-.27,1.72,1.69,1.69,0,0,1,.2.85A24.34,24.34,0,0,1,336.56,34a13.91,13.91,0,0,0-.88,2.49v.15c-.11,1.28.68,2.36,2.36,3.31a8.37,8.37,0,0,1,2.21,3.73c1,1.93,2.1,2.93,3.19,3h.15a1.19,1.19,0,0,0,.56-.07,1.71,1.71,0,0,0,.54.22h.15q.95.13,6.3-4.55a8.74,8.74,0,0,1,4.05-.55c1.9.69,2.81,1.47,2.72,2.36l.54,2.15a10.84,10.84,0,0,1-3.77,7.31q-.46.46-3.42,5A9.14,9.14,0,0,1,345,60.05V59.9a.13.13,0,0,0-.15.13v0c-.73-.15-1.1-.3-1.1-.42s-.13,0-.15.15l-.66-.22-1.09-.12c-.71-.08-2.36-.14-5-.2a5.41,5.41,0,0,0-.81-.24c-.07,0-.13,0-.15.17q-3-.31-6.62-3.54a8.78,8.78,0,0,1-1.71-3.22,63.07,63.07,0,0,0-3.54-6.58,15.1,15.1,0,0,1-1.18-4.16,1.69,1.69,0,0,0,.2-.46.3.3,0,0,1-.28-.33v0l.17-1.59a41.36,41.36,0,0,1,1.43-6.11l.23-1.4a21.15,21.15,0,0,0-1.05-5.9,1.53,1.53,0,0,1-.11-.47c1.11-3.73,2-5.58,2.64-5.52a20.9,20.9,0,0,1,3.07-3.69c.79-1.53,1.57-3.24,2.36-5.11A4.89,4.89,0,0,1,333.1,8.5q.47-2,4.9-4l.27.16a22,22,0,0,0,4.36-1.18c2.9-2.24,5.2-3.35,6.92-3.34C349.56,0,349.65,0,349.83,0Z"/><path class="a" d="M11.52.51a5.29,5.29,0,0,1,5,3A13.55,13.55,0,0,1,17,6.89c0,.62-.1.93-.31.93l.16.32a19.06,19.06,0,0,1-.94,3.54l1.89,6.41v.19q0,2-2.19,7.08a11.66,11.66,0,0,0-.32,2.35V29A25.27,25.27,0,0,1,17,36.28a25.69,25.69,0,0,1-2.17,8.25l.15.31a12.83,12.83,0,0,0-.62,2.81c.26,0,.47.72.62,2.17.13,0,.39.57.78,1.72a6.47,6.47,0,0,0-.15,1.24,1.18,1.18,0,0,0,.15.47,8.52,8.52,0,0,1-1.56,3.42c-.95,2-3.19,3-6.68,3-2.94,0-4.86-1.72-5.77-5.14l-.15-1.41a5.42,5.42,0,0,1,.32-1.54,8.13,8.13,0,0,1-.94-2.66c-.23,0-.55-1.18-.94-3.72,0-.24.63-2.26,1.88-6.08A27,27,0,0,0,2.18,36V34.11L.47,27.42v-.15H.63a.8.8,0,0,1,0-.95,1.26,1.26,0,0,0-.16-.46,40.17,40.17,0,0,1,1.71-7A5.26,5.26,0,0,1,2.65,17a1.25,1.25,0,0,1-.16-.47h.16a1.2,1.2,0,0,1-.16-.46l.16-.32-.16-.3.16-.78A39.88,39.88,0,0,1,2,9.21,10.91,10.91,0,0,1,3.89,3.93,10.87,10.87,0,0,1,11.36.5Z"/><path class="a" d="M576.1.35c.83.09,1.25.19,1.25.32a1.26,1.26,0,0,1,.46-.16,13.75,13.75,0,0,1,7.94,5,5.21,5.21,0,0,0,2,4.71c.61,0,1.08.95,1.41,2.81-.65,2.7-1.43,4.05-2.36,4.05,0,.64-1.5,1-4.51,1.08a16.67,16.67,0,0,1-7.15-2.79,11.63,11.63,0,0,0-2.65-2.19h-.31q-4,0-4.72,4.83c0,2,.62,3.26,1.87,3.74,3.29.51,5.36,1.19,6.22,2q4.22,3.54,4.21,5.45a21.79,21.79,0,0,0,7.31,4.2c1.18,1.34,1.91,2.36,2.36,3a16.47,16.47,0,0,1,.78,3.54v.47a18.41,18.41,0,0,1-2.5,8.09,5,5,0,0,0-1.87,3.11c-1.17,4-2.22,6.06-2.94,6.06a4.62,4.62,0,0,1-3.54,1.71q0,.19-1.56.48a18.81,18.81,0,0,1-5.6-1.1c-.2,0-.31,0-.31.16l-.78-.16-4.71.94c-4.26-.7-6.39-1.33-6.38-1.87-2.36-1.52-3.54-3.4-3.54-5.6a9,9,0,0,0-2.36-3.27,8.85,8.85,0,0,1-1.56-3.11c.31-2.49.68-3.73,1.09-3.73a6,6,0,0,1,5.6-3.42q5.25,0,7.78,6.06a3.68,3.68,0,0,0,1.41.47,7.79,7.79,0,0,1,1.18-.16,7.51,7.51,0,0,1,3.89,1.09h.93c.47,0,.93-1,1.4-3.11v-.62c-.86-2.17-1.94-3.27-3.26-3.27,0-.13-.63-.39-1.88-.78,0-.11,0-.15-.15-.15a1.25,1.25,0,0,1-.46.15,18.42,18.42,0,0,1-4.72-2,11.28,11.28,0,0,1-3.74-4.71,5.55,5.55,0,0,0-2.95-2.81c-2.8-1.45-4.52-3.16-5.14-5.13l-.15-1.09a17.21,17.21,0,0,0,.62-3.26c2.19-2.79,3.27-4.85,3.27-6.23l-.15-1.4.15-.31a5.26,5.26,0,0,1-.47-1.86,6,6,0,0,1,2.49-3.89c0-.89,1-1.88,3-3l2.18-.46h2.36a16.82,16.82,0,0,1,2.49.15l1.55-.47V2A10.66,10.66,0,0,1,576.1.35Z"/><path class="b" d="M214.45,30l6.37,13.66a10,10,0,0,0,1.52,2.48,3.45,3.45,0,0,0,1.85.79c1.63.24,2.43,1.07,2.43,2.46q0,2.46-3,3.54A31.2,31.2,0,0,1,214,54a73.42,73.42,0,0,1-11.29-.63A5.21,5.21,0,0,1,200,52.19,3,3,0,0,1,199,50a2.14,2.14,0,0,1,.53-1.57,4.53,4.53,0,0,1,1.93-1c1.05-.36,1.59-1,1.59-1.83,0-1.49-.91-2.36-2.73-2.66a65,65,0,0,0-8.25-.4c-3,0-4.78.17-5.36.54a2.6,2.6,0,0,0-.94,1.18,3.78,3.78,0,0,0-.4,1.68c0,.5.09.82.28,1a8.24,8.24,0,0,0,1.88.73,2.43,2.43,0,0,1,2.05,2.36q0,4-9.61,4a31.31,31.31,0,0,1-8-.74,3,3,0,0,1-2.36-3.1,2.32,2.32,0,0,1,.52-1.62,4.62,4.62,0,0,1,1.87-1,7.25,7.25,0,0,0,3.32-2.17,33.17,33.17,0,0,0,3.21-6l4.72-10.41a78.17,78.17,0,0,0,3.54-8.58,19.26,19.26,0,0,0,.93-5.59,18.07,18.07,0,0,1,.36-4,5,5,0,0,1,1.42-2.2,7.92,7.92,0,0,1,5.9-2.36,9.88,9.88,0,0,1,6.56,2.75Q206.23,12.44,214.45,30ZM191,34.25h6.6c1.18,0,1.82-.26,1.82-.8q0-1.11-2.53-5.46a17.17,17.17,0,0,0-1.75-2.63,1.76,1.76,0,0,0-1.28-.68c-.81,0-1.48.76-2,2.26l-1,2.36a19.2,19.2,0,0,0-1.41,4.11C189.44,34,190,34.25,191,34.25Z"/><path class="b" d="M380.22,6.38a37.38,37.38,0,0,1,7.24.67c3.06.6,4.59,1.9,4.59,3.87a2.06,2.06,0,0,1-.43,1.46,9.66,9.66,0,0,1-2.36,1.43,4.37,4.37,0,0,0-2,3.41,67.5,67.5,0,0,0-.5,10.25q0,12.87.64,15.94a3.25,3.25,0,0,0,.73,1.5,5.89,5.89,0,0,0,1.7,1.18A3.19,3.19,0,0,1,392,49q0,2.69-4.12,3.7A46.82,46.82,0,0,1,377,53.8q-11,0-11-4.17c0-1,.71-2,2.15-2.83a3.93,3.93,0,0,0,2-2.76,127.21,127.21,0,0,0,.66-16.33q0-8.62-.87-11a5,5,0,0,0-2.27-2.5,7.94,7.94,0,0,1-1.85-1.52,2.37,2.37,0,0,1-.47-1.54,2.64,2.64,0,0,1,1.4-2.36,16.15,16.15,0,0,1,4.93-1.53A43.07,43.07,0,0,1,380.22,6.38Z"/><path class="b" d="M44.39,8.68,61.18,23.39c1.58,1.36,2.71,2.05,3.4,2.05,1.18,0,1.76-1.25,1.76-3.74a21.62,21.62,0,0,0-.51-5.78,3.82,3.82,0,0,0-2.07-2.36,4.93,4.93,0,0,1-1.86-1.37,3,3,0,0,1-.54-1.87q0-2.84,3.88-3.63a31,31,0,0,1,5.53-.35A27.15,27.15,0,0,1,77.85,7c2.06.62,3.1,1.81,3.1,3.54a3.55,3.55,0,0,1-2.52,3.3,5,5,0,0,0-1.38.76,2.82,2.82,0,0,0-.65,1c-.61,1.49-.92,4.3-1,8.43v17.9a34.25,34.25,0,0,1-.7,8.57c-.6,2.17-1.71,3.26-3.3,3.26a3.56,3.56,0,0,1-1.81-.43,17.7,17.7,0,0,1-2.56-2l-20-17.88a5.86,5.86,0,0,0-3.47-1.88c-1.37,0-2.06,1.89-2.06,5.69a25.57,25.57,0,0,0,.53,6.41,4,4,0,0,0,2.14,2.53c1.51.74,2.26,1.71,2.26,2.9q0,4.73-10.08,4.72a17,17,0,0,1-7.08-1.18,3.72,3.72,0,0,1-2.51-3.4,2.63,2.63,0,0,1,.47-1.72A9.42,9.42,0,0,1,29.41,46a4.33,4.33,0,0,0,1.93-3.34,101,101,0,0,0,.57-12.54,56.66,56.66,0,0,0-1-12.67A5.81,5.81,0,0,0,30,15.24a5.61,5.61,0,0,0-1.89-1.35A6.35,6.35,0,0,1,26,12.38a2.56,2.56,0,0,1-.59-1.72q0-3.23,5.56-4.08a56.12,56.12,0,0,1,6.61-.27,12.93,12.93,0,0,1,3.92.42A9.54,9.54,0,0,1,44.39,8.68Z"/><path class="c" d="M303.73,48.67a7,7,0,0,0-2.57-.34,11,11,0,0,0-3.54,1.18,16.8,16.8,0,0,1-6.3,1.85,13.12,13.12,0,0,1-3.53-.31,14.54,14.54,0,0,1-4.16-1.61,12.43,12.43,0,0,1-1.18-.76l-1.88,5.2H272.5L290,6.22h8.72l17.46,47.69h-8L307.1,51A8.71,8.71,0,0,0,303.73,48.67Zm-17.94-6.19a6,6,0,0,0,1.18.9,9.77,9.77,0,0,0,2.25.92,6.27,6.27,0,0,0,1.78.1,11.51,11.51,0,0,0,3.78-1.24A16,16,0,0,1,301,41.38a13.92,13.92,0,0,1,2.66.14l-9.34-25.47-9.28,25.4a6.25,6.25,0,0,0,.74,1Z"/><path class="c" d="M510.18,34.85a6.78,6.78,0,0,0,0,9.52,6.5,6.5,0,0,0,4.71,1.94h27.35v7.57h-27.3a13.83,13.83,0,0,1-10.11-4.17,14.32,14.32,0,0,1,0-20.2,15.73,15.73,0,0,1,1.41-1.18,13.37,13.37,0,0,1,.66-18.12,12.63,12.63,0,0,1,9.3-3.9h26.09V14H516.2a5.4,5.4,0,0,0-4,1.64,5.71,5.71,0,0,0-.1,7.94A26.76,26.76,0,0,1,516,20.41a16.13,16.13,0,0,1,9.88-2.73,12.57,12.57,0,0,1,5.24,1.51,12,12,0,0,1,4,3.62A9.85,9.85,0,0,1,537,28.87a11.35,11.35,0,0,1-2,6,10.65,10.65,0,0,1-6.55,4.31,15.8,15.8,0,0,1-7.81-.48,24.42,24.42,0,0,1-6.8-3.33,16.52,16.52,0,0,1-2.12-1.71A7.14,7.14,0,0,0,510.18,34.85Zm12.59-3.42a8,8,0,0,0,4.05.34,3.13,3.13,0,0,0,1.94-1.27,3.5,3.5,0,0,0,.69-1.91,2.35,2.35,0,0,0-.38-1.44,5,5,0,0,0-1.53-1.4,4.82,4.82,0,0,0-2.09-.58,8.48,8.48,0,0,0-5.29,1.57,15.31,15.31,0,0,0-2.53,2l.58.45A16.11,16.11,0,0,0,522.77,31.43Z"/><path class="c" d="M426.87,6.49a14.3,14.3,0,0,1,2.84,2.71,15.29,15.29,0,0,1,3.94.09A10,10,0,0,1,439.12,12a10.35,10.35,0,0,1,2.75,5.48,14.45,14.45,0,0,1,.06,3.94,14,14,0,0,1,2.76,2.84,9.72,9.72,0,0,1,0,11.56,13.47,13.47,0,0,1-2.75,2.84,13.35,13.35,0,0,1-.1,3.94,10.08,10.08,0,0,1-2.71,5.49h0a10,10,0,0,1-5.45,2.73,14.84,14.84,0,0,1-3.94.1,14,14,0,0,1-2.84,2.71,9.76,9.76,0,0,1-11.6,0A14,14,0,0,1,412.47,51a14.84,14.84,0,0,1-3.94-.1A10.07,10.07,0,0,1,403,48.12a10.2,10.2,0,0,1-2.7-5.49,13.68,13.68,0,0,1-.1-3.94,13.87,13.87,0,0,1-2.73-2.84,9.69,9.69,0,0,1,0-11.56,13.66,13.66,0,0,1,2.74-2.84,13.69,13.69,0,0,1,.1-3.94A10.15,10.15,0,0,1,403.06,12h0a10,10,0,0,1,5.44-2.74,15.29,15.29,0,0,1,3.94-.09,13.66,13.66,0,0,1,2.87-2.71,9.71,9.71,0,0,1,11.57,0Zm-5.77,5.2a3,3,0,0,0-1.71.62A9.26,9.26,0,0,0,417,14.94l-1.32,2.16-2.5-.58a9,9,0,0,0-3.54-.24,2.77,2.77,0,0,0-1.54.82,3.07,3.07,0,0,0-.76,1.64,8.81,8.81,0,0,0,.21,3.54l.58,2.46L406,26.11a8,8,0,0,0-2.63,2.36,2.56,2.56,0,0,0,0,3.35A8,8,0,0,0,406,34.18l2.16,1.37L407.58,38a8.81,8.81,0,0,0-.21,3.54,3.07,3.07,0,0,0,.76,1.5,2.91,2.91,0,0,0,1.6.75,9,9,0,0,0,3.54-.25l2.5-.57,1.33,2.19a9.26,9.26,0,0,0,2.36,2.63,2.61,2.61,0,0,0,3.38,0,8.85,8.85,0,0,0,2.36-2.63L426.55,43l2.5.57a9,9,0,0,0,3.54.25,2.91,2.91,0,0,0,1.48-.75,3.15,3.15,0,0,0,.76-1.64,8.81,8.81,0,0,0-.22-3.54L434,35.4,436.19,34a8.15,8.15,0,0,0,2.63-2.36,2.54,2.54,0,0,0,0-3.35A8,8,0,0,0,436.19,26l-2.12-1.27.58-2.47a8.81,8.81,0,0,0,.21-3.54,3,3,0,0,0-.79-1.59,2.87,2.87,0,0,0-1.61-.75,9,9,0,0,0-3.54.24l-2.5.58L425.07,15a8.85,8.85,0,0,0-2.36-2.63A2.81,2.81,0,0,0,421.1,11.69Z"/><path class="c" d="M100.17,14.11a5.94,5.94,0,0,0-2.73,3.11,3.53,3.53,0,0,0,1.7,4.3,36.13,36.13,0,0,0,8.61,3.84A28.56,28.56,0,0,1,120,32.21a12.44,12.44,0,0,1,.38,17.59q-.36.38-.75.72a19.27,19.27,0,0,1-11.92,4.34,23.45,23.45,0,0,1-5.79-.37,19.39,19.39,0,0,1-8.76-3.91,14.37,14.37,0,0,1-4.87-7.68,8.34,8.34,0,0,1,8.93-11,13.59,13.59,0,0,1,7.35,2.36,8,8,0,0,1,3.63,5.9,10.2,10.2,0,0,1-1,4.41l-7.29-2.5a2.39,2.39,0,0,0,.38-1.18,2.07,2.07,0,0,0-.31-1.37,2.93,2.93,0,0,0-2-1,1.83,1.83,0,0,0-1.85.87c-.39.65-.19,1.72.6,3.23a8.82,8.82,0,0,0,5,3.94,12.61,12.61,0,0,0,2.77.62,15,15,0,0,0,2.84.13,15.42,15.42,0,0,0,3.63-.62A8.59,8.59,0,0,0,114.17,45a5,5,0,0,0,1.69-2.9,5.47,5.47,0,0,0-1.62-4.72,28.94,28.94,0,0,0-10.61-5.61,42.71,42.71,0,0,1-9-4A11.78,11.78,0,0,1,90,22,10.49,10.49,0,0,1,90,14.87q3.75-8.58,13.59-9.54a24.91,24.91,0,0,1,15,3.11,12.24,12.24,0,0,1,5.27,6.93,9.17,9.17,0,0,1-1.61,8.25,10.85,10.85,0,0,1-10,2q-5.89-1.46-7-6.86a9,9,0,0,1,.86-4.55l7.36,2.16a3.3,3.3,0,0,0-.34,1.51,1.27,1.27,0,0,0,.58,1.06,1.9,1.9,0,0,0,1.18.34,1.48,1.48,0,0,0,1.43-1.7,3.42,3.42,0,0,0-.47-1.27,8.61,8.61,0,0,0-5.27-3,21.38,21.38,0,0,0-6.33-.5A10,10,0,0,0,100.17,14.11Z"/><path class="a" d="M245.23,4.59c0,.14,0,.22-.15.22-2.42,0-2.79,4.72-2.86,5.58V46.58h16.66c1.18-.07,5.66-.44,5.66-2.78,0-.08.07-.15.22-.15a.16.16,0,0,1,.16.15V55.71h-35c-.09,0-.09-.07-.09-.22s0-.15.09-.15c2.35,0,2.78-4.45,2.86-5.51V10.32c-.08-1.18-.46-5.51-2.86-5.51-.09,0-.09-.08-.09-.22s0-.16.09-.16h15.15C245.23,4.43,245.23,4.51,245.23,4.59Z"/><path class="a" d="M466.15,4.59c0,.14-.07.22-.15.22-1.43,0-1.81.67-1.81,1.43a4.57,4.57,0,0,0,.67,2.19l16.67,28V10.17c-.07-1.18-.52-5.36-2.87-5.36-.07,0-.07-.08-.07-.22s0-.16.07-.16h15.17a.16.16,0,0,1,.14.16c0,.14-.07.22-.14.22-2.36,0-2.8,4.38-2.87,5.51V49.83c.07,1.06.52,5.51,2.87,5.51a.15.15,0,0,1,.14.15c0,.15-.07.22-.14.22H478.66c-.07,0-.07-.07-.07-.22s0-.15.07-.15c1.44,0,1.82-.68,1.82-1.43a5.75,5.75,0,0,0-.6-2.11L462.46,22.68V49.8c.07,1.07.52,5.51,2.86,5.51a.16.16,0,0,1,.15.15c0,.16-.07.23-.15.23H450.16c-.07,0-.07-.07-.07-.23s0-.15.07-.15c2.42,0,2.79-4.44,2.86-5.51V10.32c-.07-1.18-.44-5.51-2.86-5.51-.07,0-.07-.08-.07-.22s0-.16.07-.16H466a.16.16,0,0,1,.15.16Z"/><path class="a" d="M166.18,16.43c-.15,0-.22,0-.22-.08,0-2.36-4.53-2.72-5.66-2.79h-7.47V49.83c.08,1.06.53,5.51,2.87,5.51a.15.15,0,0,1,.15.15c0,.15-.08.22-.15.22H140.54c-.08,0-.08-.07-.08-.22s0-.15.08-.15c2.36,0,2.79-4.45,2.87-5.51V13.56h-7.47c-1.06.07-5.66.45-5.66,2.79,0,.08-.07.08-.15.08s-.22,0-.22-.08V4.43h36.45V16.35C166.36,16.43,166.25,16.43,166.18,16.43Z"/></svg>