<svg id="Layer_1" data-name="Layer 1" xmlns="http://www.w3.org/2000/svg" viewBox="0 0 566.46 200"><defs><style>.cls-1{fill:#084f95;}.cls-2{fill:#0b8a44;}.cls-3{fill:#f69322;}</style></defs><path class="cls-1" d="M329.57,74.5v.13c.07,0,.11,0,.14-.1a6.71,6.71,0,0,1,5.44,3.93,10,10,0,0,0,1.71,2.07l.2.43q-.33,4.1-4.65,5.28c-.46,0-1.17-.07-2.11-.07A.55.55,0,0,0,330,86a15.63,15.63,0,0,1-4.62.72,29.91,29.91,0,0,0-1.78,3q-2.83,1.77-2.93,3.23l.09.29a12.26,12.26,0,0,0-.23,1.46,1.43,1.43,0,0,1,.17.72,20.65,20.65,0,0,1-2.38,7.92,11.81,11.81,0,0,0-.75,2.11v.13c-.09,1.08.58,2,2,2.8a7.13,7.13,0,0,1,1.88,3.17c.88,1.63,1.78,2.48,2.7,2.57h.13a.9.9,0,0,0,.47-.06,1.48,1.48,0,0,0,.46.19h.13q.8.11,5.34-3.86a7.44,7.44,0,0,1,3.43-.46q2.42.87,2.31,2l.46,1.82a9.22,9.22,0,0,1-3.2,6.2q-.39.39-2.9,4.22a7.75,7.75,0,0,1-5.28,1.25l0-.13a.12.12,0,0,0-.13.13q-.93-.2-.93-.36c-.06,0-.11,0-.13.13l-.56-.19-.92-.1c-.6-.07-2-.12-4.23-.17a4.2,4.2,0,0,0-.69-.2c-.06,0-.11,0-.13.14q-2.54-.27-5.61-3a7.36,7.36,0,0,1-1.45-2.73,53.88,53.88,0,0,0-3-5.58,12.84,12.84,0,0,1-1-3.53,1.54,1.54,0,0,0,.17-.39.26.26,0,0,1-.24-.3l.14-1.35a35.16,35.16,0,0,1,1.22-5.18l.19-1.19a18,18,0,0,0-.89-5,1.4,1.4,0,0,1-.09-.4c.94-3.16,1.69-4.73,2.24-4.68a17.38,17.38,0,0,1,2.6-3.13q1-1.95,2-4.33a4.19,4.19,0,0,1,1.32-2.17c.27-1.12,1.65-2.26,4.16-3.4l.23.13a18,18,0,0,0,3.69-1q3.69-2.84,5.87-2.83C329.34,74.53,329.42,74.5,329.57,74.5Z"/><path class="cls-1" d="M42.71,74.93a4.48,4.48,0,0,1,4.22,2.51,11.41,11.41,0,0,1,.39,2.9c0,.53-.08.79-.26.79l.13.27a15.68,15.68,0,0,1-.79,3L48,89.84V90Q48,91.7,46.14,96a10.08,10.08,0,0,0-.27,2v1.06a21.31,21.31,0,0,1,1.45,6.2,21.65,21.65,0,0,1-1.84,7l.13.26a11.31,11.31,0,0,0-.53,2.38c.22,0,.4.61.53,1.84.11,0,.33.49.66,1.46a6.28,6.28,0,0,0-.13,1.05,1,1,0,0,0,.13.4,7.2,7.2,0,0,1-1.32,2.9c-.81,1.67-2.71,2.51-5.67,2.51-2.49,0-4.12-1.46-4.89-4.36l-.13-1.19a4.7,4.7,0,0,1,.27-1.31,6.92,6.92,0,0,1-.79-2.25c-.2,0-.47-1-.8-3.16q0-.3,1.59-5.15a23.19,23.19,0,0,0,.26-2.64v-1.58l-1.45-5.67v-.13h.13a.68.68,0,0,1,0-.8,1,1,0,0,0-.13-.39,34.4,34.4,0,0,1,1.45-5.94,4.45,4.45,0,0,1,.4-1.58,1.05,1.05,0,0,1-.14-.4h.14a1,1,0,0,1-.14-.39l.14-.27-.14-.26.14-.66a33.24,33.24,0,0,1-.53-4.62,9.23,9.23,0,0,1,1.58-4.48,9.22,9.22,0,0,1,6.33-2.91Z"/><path class="cls-1" d="M521.43,74.8c.7.07,1.06.16,1.06.27a1,1,0,0,1,.39-.14,11.7,11.7,0,0,1,6.73,4.23,4.42,4.42,0,0,0,1.71,4c.51,0,.91.8,1.19,2.38-.55,2.29-1.21,3.43-2,3.43,0,.55-1.27.86-3.82.92a14.17,14.17,0,0,1-6.07-2.37,9.84,9.84,0,0,0-2.24-1.85h-.27q-3.36,0-4,4.09c0,1.71.53,2.77,1.59,3.17q4.18.66,5.27,1.71,3.57,3,3.57,4.62a18.47,18.47,0,0,0,6.2,3.56c1,1.14,1.62,2,2,2.51a14.19,14.19,0,0,1,.66,3v.4a15.59,15.59,0,0,1-2.12,6.86,4.22,4.22,0,0,0-1.58,2.64c-1,3.43-1.89,5.14-2.5,5.14a3.93,3.93,0,0,1-3,1.45c0,.11-.44.24-1.32.4a15.75,15.75,0,0,1-4.75-.93c-.17,0-.26,0-.26.14l-.66-.14-4,.8q-5.42-.9-5.41-1.59c-2-1.29-3-2.88-3-4.75a7.64,7.64,0,0,0-2-2.77,7.38,7.38,0,0,1-1.32-2.64c.26-2.11.57-3.16.92-3.16a5.14,5.14,0,0,1,4.75-2.9q4.45,0,6.6,5.14a3.06,3.06,0,0,0,1.19.4,6.58,6.58,0,0,1,1-.14,6.4,6.4,0,0,1,3.3.93h.79c.4,0,.79-.88,1.19-2.64v-.53c-.73-1.84-1.65-2.77-2.77-2.77q0-.16-1.59-.66c0-.09,0-.13-.13-.13a1,1,0,0,1-.39.13,15.7,15.7,0,0,1-4-1.71,9.59,9.59,0,0,1-3.17-4,4.74,4.74,0,0,0-2.5-2.38q-3.57-1.84-4.36-4.35l-.13-.92a14.65,14.65,0,0,0,.53-2.77c1.85-2.36,2.77-4.11,2.77-5.28l-.13-1.19.13-.26a4.49,4.49,0,0,1-.4-1.58,5.14,5.14,0,0,1,2.11-3.3c0-.75.84-1.59,2.51-2.51l1.85-.39h2c.5,0,1.21,0,2.11.13l1.32-.4v.13A9,9,0,0,1,521.43,74.8Z"/><path class="cls-2" d="M214.78,99.94l5.4,11.58a8.28,8.28,0,0,0,1.29,2.1,2.86,2.86,0,0,0,1.57.67c1.38.21,2.06.91,2.06,2.09,0,1.39-.84,2.39-2.51,3a26.5,26.5,0,0,1-8.24.91,61.44,61.44,0,0,1-9.57-.54,4.4,4.4,0,0,1-2.27-1,2.5,2.5,0,0,1-.85-1.9,1.85,1.85,0,0,1,.45-1.33,3.88,3.88,0,0,1,1.64-.87c.89-.31,1.34-.82,1.34-1.55,0-1.27-.77-2-2.31-2.26a56.46,56.46,0,0,0-7-.34c-2.53,0-4.05.15-4.54.46a2.26,2.26,0,0,0-.8,1,3.36,3.36,0,0,0-.34,1.43q0,.63.24.81a7.26,7.26,0,0,0,1.59.62,2.06,2.06,0,0,1,1.74,2q0,3.4-8.15,3.41a26.63,26.63,0,0,1-6.8-.63,2.53,2.53,0,0,1-2-2.63,2,2,0,0,1,.44-1.37,4,4,0,0,1,1.59-.89,6.14,6.14,0,0,0,2.81-1.84,27.84,27.84,0,0,0,2.73-5.08l4-8.83a67.49,67.49,0,0,0,3-7.27,16.39,16.39,0,0,0,.79-4.74,15.2,15.2,0,0,1,.3-3.41,4.25,4.25,0,0,1,1.21-1.87,6.74,6.74,0,0,1,5-2A8.38,8.38,0,0,1,204.15,82Q207.81,85.05,214.78,99.94Zm-19.89,3.6h5.6c1,0,1.54-.22,1.54-.68q0-.94-2.14-4.63A14.35,14.35,0,0,0,198.4,96a1.46,1.46,0,0,0-1.08-.57c-.69,0-1.26.64-1.72,1.91l-.83,2a16.19,16.19,0,0,0-1.2,3.49C193.57,103.31,194,103.54,194.89,103.54Z"/><path class="cls-2" d="M355.34,79.91a31.62,31.62,0,0,1,6.14.57c2.59.51,3.89,1.61,3.89,3.28A1.77,1.77,0,0,1,365,85a8.3,8.3,0,0,1-2,1.21,3.72,3.72,0,0,0-1.72,2.89,57.22,57.22,0,0,0-.42,8.69q0,10.92.54,13.52a2.8,2.8,0,0,0,.62,1.27,5.05,5.05,0,0,0,1.44,1,2.7,2.7,0,0,1,1.89,2.49q0,2.28-3.49,3.14a39.78,39.78,0,0,1-9.23.91q-9.31,0-9.32-3.54,0-1.29,1.83-2.4a3.34,3.34,0,0,0,1.66-2.34A108.44,108.44,0,0,0,347.36,98q0-7.32-.74-9.37a4.24,4.24,0,0,0-1.92-2.12,6.69,6.69,0,0,1-1.57-1.29,2,2,0,0,1-.4-1.31,2.23,2.23,0,0,1,1.19-2,13.61,13.61,0,0,1,4.18-1.3A36.64,36.64,0,0,1,355.34,79.91Z"/><path class="cls-2" d="M70.58,81.86,84.82,94.33q2,1.74,2.88,1.74c1,0,1.49-1.06,1.49-3.17A18.4,18.4,0,0,0,88.76,88,3.23,3.23,0,0,0,87,86a4.2,4.2,0,0,1-1.57-1.16,2.56,2.56,0,0,1-.46-1.59q0-2.4,3.29-3.08a26,26,0,0,1,4.69-.29,22.82,22.82,0,0,1,6,.52c1.75.53,2.63,1.54,2.63,3a3,3,0,0,1-2.14,2.8,4.25,4.25,0,0,0-1.17.65,2.36,2.36,0,0,0-.55.86q-.77,1.89-.8,7.15v9.32c0,1.43,0,3.38,0,5.86a29,29,0,0,1-.6,7.26c-.51,1.84-1.45,2.77-2.8,2.77a3.09,3.09,0,0,1-1.53-.37A15.4,15.4,0,0,1,89.82,118L72.87,102.84a5,5,0,0,0-2.94-1.6q-1.75,0-1.75,4.83a21.53,21.53,0,0,0,.45,5.43,3.41,3.41,0,0,0,1.81,2.15q1.92.94,1.92,2.46,0,4-8.55,4a14.37,14.37,0,0,1-6-1,3.16,3.16,0,0,1-2.13-2.88,2.25,2.25,0,0,1,.4-1.46,7.79,7.79,0,0,1,1.8-1.31,3.64,3.64,0,0,0,1.63-2.83A85.6,85.6,0,0,0,60,100a48.15,48.15,0,0,0-.86-10.75,4.91,4.91,0,0,0-.8-1.83,4.74,4.74,0,0,0-1.6-1.14A5.58,5.58,0,0,1,55,85a2.23,2.23,0,0,1-.5-1.46q0-2.74,4.72-3.46a46.42,46.42,0,0,1,5.6-.23,11.06,11.06,0,0,1,3.33.36A8,8,0,0,1,70.58,81.86Z"/><path class="cls-3" d="M290.48,115.77a5.89,5.89,0,0,0-2.18-.29,9.25,9.25,0,0,0-3,1,14.22,14.22,0,0,1-5.34,1.57,11.24,11.24,0,0,1-3-.26,12.35,12.35,0,0,1-3.52-1.37,10,10,0,0,1-1-.64l-1.6,4.41H264l14.8-40.42h7.4L301,120.21h-6.76l-.9-2.49A7.3,7.3,0,0,0,290.48,115.77Zm-15.21-5.25a5,5,0,0,0,1,.76,8.16,8.16,0,0,0,1.91.78,5.41,5.41,0,0,0,1.51.09,9.8,9.8,0,0,0,3.2-1.05,13.4,13.4,0,0,1,5.28-1.51,11.42,11.42,0,0,1,2.26.12l-7.92-21.6-7.87,21.54A5.44,5.44,0,0,0,275.27,110.52Z"/><path class="cls-3" d="M465.53,104.05a5.76,5.76,0,0,0,0,8.07,5.56,5.56,0,0,0,4,1.65h23.19v6.42H469.57a11.74,11.74,0,0,1-8.57-3.54,12.13,12.13,0,0,1,0-17.13,13.22,13.22,0,0,1,1.19-1,11.34,11.34,0,0,1,.56-15.36,10.71,10.71,0,0,1,7.89-3.31h22.12v6.48H470.64a4.58,4.58,0,0,0-3.37,1.39,4.84,4.84,0,0,0-.08,6.73,22.29,22.29,0,0,1,3.31-2.64,13.67,13.67,0,0,1,8.38-2.32,10.7,10.7,0,0,1,4.44,1.28,10.23,10.23,0,0,1,3.43,3.07,8.37,8.37,0,0,1,1.51,5.14,9.61,9.61,0,0,1-1.71,5.11,9,9,0,0,1-5.55,3.66,13.38,13.38,0,0,1-6.62-.41,20.92,20.92,0,0,1-5.77-2.82,14.83,14.83,0,0,1-1.8-1.45A6.35,6.35,0,0,0,465.53,104.05Zm10.68-2.9a6.8,6.8,0,0,0,3.43.29,2.66,2.66,0,0,0,1.65-1.08,2.94,2.94,0,0,0,.58-1.62,1.93,1.93,0,0,0-.32-1.22,4.15,4.15,0,0,0-1.3-1.19,4.11,4.11,0,0,0-1.77-.49A7.25,7.25,0,0,0,474,97.17a13.32,13.32,0,0,0-2.15,1.71l.49.38A13.55,13.55,0,0,0,476.21,101.15Z"/><path class="cls-3" d="M394.89,80a12.06,12.06,0,0,1,2.41,2.3,12.73,12.73,0,0,1,3.34.08,8.46,8.46,0,0,1,4.64,2.32,8.74,8.74,0,0,1,2.33,4.65,12,12,0,0,1,.05,3.34A11.5,11.5,0,0,1,410,95.1a8.22,8.22,0,0,1,0,9.8,11.5,11.5,0,0,1-2.33,2.41,11.22,11.22,0,0,1-.08,3.34,8.56,8.56,0,0,1-2.3,4.65h0a8.5,8.5,0,0,1-4.62,2.32,12.73,12.73,0,0,1-3.34.08,12.06,12.06,0,0,1-2.41,2.3,8.31,8.31,0,0,1-4.9,1.62,8.41,8.41,0,0,1-4.94-1.62,12,12,0,0,1-2.4-2.3,12.73,12.73,0,0,1-3.34-.08,8.52,8.52,0,0,1-4.65-2.32,8.62,8.62,0,0,1-2.29-4.65,11.55,11.55,0,0,1-.09-3.34A11.71,11.71,0,0,1,370,104.9a8.22,8.22,0,0,1,0-9.8,11.71,11.71,0,0,1,2.32-2.41,11.55,11.55,0,0,1,.09-3.34,8.62,8.62,0,0,1,2.29-4.65h0a8.5,8.5,0,0,1,4.62-2.32,12.73,12.73,0,0,1,3.34-.08,11.63,11.63,0,0,1,2.43-2.3,8.24,8.24,0,0,1,9.81,0ZM390,84.41a2.45,2.45,0,0,0-1.45.53,7.72,7.72,0,0,0-2,2.23L385.43,89l-2.12-.49a7.72,7.72,0,0,0-3-.21A2.44,2.44,0,0,0,379,89a2.61,2.61,0,0,0-.64,1.39,7.32,7.32,0,0,0,.18,3l.49,2.09-1.83,1.16a6.75,6.75,0,0,0-2.23,2,2.17,2.17,0,0,0,0,2.84,6.75,6.75,0,0,0,2.23,2l1.83,1.16-.49,2.09a7.32,7.32,0,0,0-.18,3A2.61,2.61,0,0,0,379,111a2.44,2.44,0,0,0,1.36.64,7.72,7.72,0,0,0,3-.21l2.12-.49,1.13,1.86a7.72,7.72,0,0,0,2,2.23,2.21,2.21,0,0,0,2.87,0,7.7,7.7,0,0,0,2-2.23l1.14-1.86,2.12.49a7.68,7.68,0,0,0,3,.21A2.48,2.48,0,0,0,401,111a2.61,2.61,0,0,0,.64-1.39,7.5,7.5,0,0,0-.18-3l-.49-2.09,1.83-1.16a6.86,6.86,0,0,0,2.23-2,2.17,2.17,0,0,0,0-2.84,6.86,6.86,0,0,0-2.23-2L401,95.44l.49-2.09a7.5,7.5,0,0,0,.18-3A2.61,2.61,0,0,0,401,89a2.48,2.48,0,0,0-1.37-.64,7.68,7.68,0,0,0-3,.21l-2.12.49-1.14-1.86a7.7,7.7,0,0,0-2-2.23A2.44,2.44,0,0,0,390,84.41Z"/><path class="cls-3" d="M117.88,86.46a5.07,5.07,0,0,0-2.32,2.64A3,3,0,0,0,117,92.75,30.58,30.58,0,0,0,124.3,96a24.25,24.25,0,0,1,10.36,5.81,10.55,10.55,0,0,1-.32,15.53,16.41,16.41,0,0,1-10.1,3.68,19.65,19.65,0,0,1-4.91-.32,16.45,16.45,0,0,1-7.43-3.31,12.22,12.22,0,0,1-4.13-6.51,7.06,7.06,0,0,1,7.57-9.32,11.44,11.44,0,0,1,6.23,2,6.76,6.76,0,0,1,3.08,5,8.57,8.57,0,0,1-.82,3.74l-6.18-2.12a2.1,2.1,0,0,0,.32-1,1.79,1.79,0,0,0-.26-1.16,2.47,2.47,0,0,0-1.73-.87,1.56,1.56,0,0,0-1.57.74c-.33.55-.16,1.46.51,2.74a7.48,7.48,0,0,0,4.21,3.34,10.55,10.55,0,0,0,2.35.53,13.52,13.52,0,0,0,2.41.11,13.27,13.27,0,0,0,3.08-.53,7.3,7.3,0,0,0,2.78-1.45,4.21,4.21,0,0,0,1.43-2.46,4.63,4.63,0,0,0-1.37-4,24.57,24.57,0,0,0-9-4.76A36.23,36.23,0,0,1,113.18,98a10,10,0,0,1-3.92-4.82,8.86,8.86,0,0,1-.05-6.07q3.18-7.28,11.52-8.09a21.16,21.16,0,0,1,12.74,2.64,10.35,10.35,0,0,1,4.47,5.87,7.77,7.77,0,0,1-1.37,7,9.19,9.19,0,0,1-8.5,1.69c-3.33-.82-5.3-2.75-5.92-5.81a7.58,7.58,0,0,1,.73-3.86l6.24,1.83a2.85,2.85,0,0,0-.29,1.28,1.09,1.09,0,0,0,.49.9,1.66,1.66,0,0,0,1,.29,1.25,1.25,0,0,0,.93-.44,1.24,1.24,0,0,0,.29-1,3,3,0,0,0-.4-1.08,7.31,7.31,0,0,0-4.47-2.57,17.85,17.85,0,0,0-5.37-.42A8.47,8.47,0,0,0,117.88,86.46Z"/><path class="cls-1" d="M240.88,78.39c0,.12,0,.19-.13.19-2.05,0-2.37,4-2.43,4.73V114h14.13c1-.06,4.8-.38,4.8-2.36,0-.07.06-.13.19-.13a.14.14,0,0,1,.13.13v10.1H227.9c-.07,0-.07-.06-.07-.19s0-.13.07-.13c2,0,2.36-3.77,2.43-4.67V83.25c-.07-1-.39-4.67-2.43-4.67-.07,0-.07-.07-.07-.19s0-.13.07-.13h12.85C240.88,78.26,240.88,78.32,240.88,78.39Z"/><path class="cls-1" d="M428.2,78.39c0,.12-.06.19-.13.19-1.21,0-1.53.57-1.53,1.21a3.82,3.82,0,0,0,.57,1.86l14.13,23.72V83.12c-.06-1-.44-4.54-2.43-4.54-.06,0-.06-.07-.06-.19s0-.13.06-.13h12.86a.13.13,0,0,1,.12.13c0,.12-.06.19-.12.19-2,0-2.37,3.71-2.43,4.67v33.5c.06.9.44,4.67,2.43,4.67a.13.13,0,0,1,.12.13c0,.13-.06.19-.12.19H438.81c-.06,0-.06-.06-.06-.19s0-.13.06-.13c1.22,0,1.54-.57,1.54-1.21a4.89,4.89,0,0,0-.51-1.79L425.07,93.73v23c.06.9.44,4.67,2.43,4.67a.13.13,0,0,1,.12.13c0,.13-.06.19-.12.19H414.64c-.06,0-.06-.06-.06-.19s0-.13.06-.13c2.05,0,2.37-3.77,2.43-4.67V83.25c-.06-1-.38-4.67-2.43-4.67-.06,0-.06-.07-.06-.19s0-.13.06-.13h13.43A.13.13,0,0,1,428.2,78.39Z"/><path class="cls-1" d="M173.85,88.43c-.13,0-.19,0-.19-.07,0-2-3.84-2.3-4.8-2.36h-6.33v30.75c.07.9.45,4.67,2.43,4.67a.14.14,0,0,1,.13.13c0,.13-.07.19-.13.19H152.11c-.07,0-.07-.06-.07-.19s0-.13.07-.13c2,0,2.36-3.77,2.43-4.67V86h-6.33c-.9.06-4.8.38-4.8,2.36,0,.07-.06.07-.13.07s-.19,0-.19-.07V78.26H174v10.1C174,88.43,173.91,88.43,173.85,88.43Z"/></svg>