<svg id="Layer_1" data-name="Layer 1" xmlns="http://www.w3.org/2000/svg" viewBox="0 0 460 200"><defs><style>.cls-1{fill:#084f95;}.cls-2{fill:#0b8a44;}.cls-3{fill:#f69322;}</style></defs><path class="cls-1" d="M130.46,78.47a5.34,5.34,0,0,1,5,3,13.15,13.15,0,0,1,.47,3.46c0,.63-.1.94-.31.94l.16.32a19,19,0,0,1-.95,3.62l1.89,6.44v.16q0,2-2.2,7.23a12.09,12.09,0,0,0-.31,2.36v1.26a25.54,25.54,0,0,1,1.72,7.39,25.33,25.33,0,0,1-2.2,8.33l.16.32a14.23,14.23,0,0,0-.63,2.83c.26,0,.47.73.63,2.2.13,0,.39.57.79,1.73a7.33,7.33,0,0,0-.16,1.25,1.14,1.14,0,0,0,.16.48,8.54,8.54,0,0,1-1.58,3.45c-1,2-3.22,3-6.76,3q-4.44,0-5.81-5.19l-.16-1.41a5.77,5.77,0,0,1,.31-1.57,8.59,8.59,0,0,1-.94-2.68c-.24,0-.55-1.25-.94-3.77q0-.36,1.88-6.13a26.82,26.82,0,0,0,.32-3.15v-1.88l-1.73-6.76v-.16h.16a1.16,1.16,0,0,1-.16-.47,1.14,1.14,0,0,1,.16-.48,1.34,1.34,0,0,0-.16-.47A40.84,40.84,0,0,1,121,97a5.62,5.62,0,0,1,.47-1.89,1.16,1.16,0,0,1-.16-.47h.16a1.16,1.16,0,0,1-.16-.47l.16-.32-.16-.31.16-.79a41.92,41.92,0,0,1-.63-5.5,11,11,0,0,1,1.89-5.35c2.43-2.3,4.95-3.46,7.54-3.46Z"/><path class="cls-2" d="M307.65,85.4h17.51c3.54,0,6.13-.07,7.75-.22a24.45,24.45,0,0,0,4.75-.9,4.19,4.19,0,0,1,1.13-.2,3.85,3.85,0,0,1,3.13,1.9,12.44,12.44,0,0,1,2.25,7.5,5.76,5.76,0,0,1-.94,3.49,3,3,0,0,1-2.57,1.28,3,3,0,0,1-1.75-.46,8.77,8.77,0,0,1-1.69-2.06,7.27,7.27,0,0,0-3.8-3,26.29,26.29,0,0,0-7.54-.77q-3.93,0-4.77,1.4a4.41,4.41,0,0,0-.53,2c-.06.84-.09,3-.09,6.44,0,1.36.23,2.21.68,2.53s1.65.5,3.58.5a3,3,0,0,0,2.08-.6,3.36,3.36,0,0,0,.82-2.13,15.48,15.48,0,0,1,.49-2.71,2.79,2.79,0,0,1,.94-1.27,2.47,2.47,0,0,1,1.67-.62,2.92,2.92,0,0,1,2.38,1.33,9.46,9.46,0,0,1,1.21,3.49,27,27,0,0,1,.5,5.23,20.33,20.33,0,0,1-1.67,8.83,3,3,0,0,1-2.8,1.87,1.88,1.88,0,0,1-1.6-.6,5.93,5.93,0,0,1-.68-2.47q-.51-3.84-4.5-3.84a2.19,2.19,0,0,0-2.09,1,7.79,7.79,0,0,0-.56,3.59c0,1.07.07,2.45.22,4.14a21.49,21.49,0,0,0,.46,3.35,2.11,2.11,0,0,0,1.68,1.42,20,20,0,0,0,4.72.39c3.41,0,6-.44,7.7-1.31A9.74,9.74,0,0,0,340,119.1a8.57,8.57,0,0,1,1.72-2.66,2.89,2.89,0,0,1,2-.68A2.86,2.86,0,0,1,346,117a5.07,5.07,0,0,1,.93,3.12,16.47,16.47,0,0,1-1,5.11,25.71,25.71,0,0,1-2.59,5.45,7,7,0,0,1-1.3,1.55,2.06,2.06,0,0,1-1.29.39,13,13,0,0,1-1.87-.2,37.1,37.1,0,0,0-5.83-.51H304.14a4.2,4.2,0,0,1-2.69-.77,2.6,2.6,0,0,1-.95-2.16,2.07,2.07,0,0,1,.41-1.44,6.61,6.61,0,0,1,1.87-1.12,3.6,3.6,0,0,0,1.51-1.09,4.82,4.82,0,0,0,.77-1.91,67.62,67.62,0,0,0,1.13-13.86q0-13.15-1.64-16.59a2.51,2.51,0,0,0-.75-1,7.32,7.32,0,0,0-1.7-.64,2.47,2.47,0,0,1-1.94-2.59,3.1,3.1,0,0,1,.64-1.94,3,3,0,0,1,1.71-1.13A27.87,27.87,0,0,1,307.65,85.4Z"/><path class="cls-2" d="M193.86,95.59l-15.64,31.65a12.93,12.93,0,0,1-2.72,4,4.93,4.93,0,0,1-3.28,1.1,6,6,0,0,1-2.93-.71,5.13,5.13,0,0,1-1.55-1.28,15.07,15.07,0,0,1-1.41-2.64L152.4,97.06a12.22,12.22,0,0,0-2.1-3.53,4.77,4.77,0,0,0-2.67-1.24,2.29,2.29,0,0,1-2-2.52c0-1.75,1.2-3.1,3.58-4s5.8-1.42,10.26-1.42c4.63,0,8,.36,10.22,1.06s3.27,1.8,3.27,3.27a3.39,3.39,0,0,1-1.78,2.66c-.9.61-1.36,1.19-1.36,1.74a5.9,5.9,0,0,0,.62,2.14l4.25,9.61c.62,1.41,1.31,2.11,2.08,2.11a2.53,2.53,0,0,0,2-1.12,24.61,24.61,0,0,0,2.39-4.43c1.79-3.95,2.83-6.29,3.13-7a4.69,4.69,0,0,0,.44-1.65c0-.78-.53-1.44-1.6-2a2.7,2.7,0,0,1-1.77-2.35q0-4.05,10.87-4.06,5.42,0,7.65.87a3.06,3.06,0,0,1,2.23,3c0,1.69-1,2.65-2.93,2.9a6.6,6.6,0,0,0-2.69.68A11,11,0,0,0,193.86,95.59Z"/><path class="cls-3" d="M214.39,113.17a6.86,6.86,0,0,0,0,9.62,6.62,6.62,0,0,0,4.81,2h27.63v7.65H219.2A14,14,0,0,1,209,128.19a14.45,14.45,0,0,1,0-20.41,14.25,14.25,0,0,1,1.42-1.25,13.49,13.49,0,0,1,.66-18.3,12.79,12.79,0,0,1,9.41-3.94h26.35V92H220.48a5.51,5.51,0,0,0-4,1.66,5.8,5.8,0,0,0-1.67,4,5.72,5.72,0,0,0,1.57,4,26.42,26.42,0,0,1,3.94-3.15,16.39,16.39,0,0,1,10-2.77,12.88,12.88,0,0,1,5.29,1.53,12.15,12.15,0,0,1,4.08,3.66,9.92,9.92,0,0,1,1.8,6.13,11.32,11.32,0,0,1-2,6.08,10.6,10.6,0,0,1-6.61,4.36,15.84,15.84,0,0,1-7.88-.48,24.78,24.78,0,0,1-6.89-3.36,18.81,18.81,0,0,1-2.14-1.73A7.75,7.75,0,0,0,214.39,113.17Zm12.73-3.46a7.94,7.94,0,0,0,4.08.35,3.14,3.14,0,0,0,2-1.28,3.5,3.5,0,0,0,.69-1.94,2.38,2.38,0,0,0-.38-1.45,5.07,5.07,0,0,0-1.56-1.42,5.15,5.15,0,0,0-2.11-.59,8.66,8.66,0,0,0-5.39,1.6,15.26,15.26,0,0,0-2.56,2l.59.45A15.63,15.63,0,0,0,227.12,109.71Z"/><path class="cls-3" d="M99.61,117.64a47.87,47.87,0,0,0-2.32-9.31,44.63,44.63,0,0,1-2.39-9.79,41.54,41.54,0,0,1,.83-14.28H103a34.28,34.28,0,0,0-1.14,13.59,46.07,46.07,0,0,0,2.32,9.34,49.81,49.81,0,0,1,2.38,9.68,43.27,43.27,0,0,1-1.1,15.57H97.74L73.53,97.68v34.76H66V84.26h7.36L99.81,122.2A35.14,35.14,0,0,0,99.61,117.64Z"/><path class="cls-3" d="M367.47,92.21a6,6,0,0,0-2.76,3.14,3.55,3.55,0,0,0,1.76,4.36,36.94,36.94,0,0,0,8.65,3.91,28.94,28.94,0,0,1,12.35,6.92,12.56,12.56,0,0,1-.38,18.51,19.63,19.63,0,0,1-12,4.39,23.78,23.78,0,0,1-5.85-.38,19.67,19.67,0,0,1-8.85-3.95,14.41,14.41,0,0,1-4.93-7.76,8.41,8.41,0,0,1,9-11.11,13.74,13.74,0,0,1,7.42,2.44,8.05,8.05,0,0,1,3.66,6,9.9,9.9,0,0,1-1,4.46l-7.36-2.53a2.63,2.63,0,0,0,.38-1.24,2.18,2.18,0,0,0-.31-1.38,2.91,2.91,0,0,0-2.06-1,1.83,1.83,0,0,0-1.87.88q-.6,1,.6,3.27a8.87,8.87,0,0,0,5,4,13,13,0,0,0,2.8.64,18,18,0,0,0,2.87.12,16.29,16.29,0,0,0,3.67-.62,8.83,8.83,0,0,0,3.32-1.73,5.08,5.08,0,0,0,1.7-2.94,5.55,5.55,0,0,0-1.63-4.78,29.21,29.21,0,0,0-10.79-5.67,42.86,42.86,0,0,1-9-4.12,11.77,11.77,0,0,1-4.67-5.74,10.51,10.51,0,0,1-.07-7.23q3.81-8.69,13.73-9.65a25.3,25.3,0,0,1,15.19,3.15,12.25,12.25,0,0,1,5.32,7,9.22,9.22,0,0,1-1.62,8.39q-4.19,3.47-10.14,2T372.56,97a9.09,9.09,0,0,1,.86-4.6l7.44,2.18a3.49,3.49,0,0,0-.35,1.52,1.32,1.32,0,0,0,.59,1.07,2,2,0,0,0,1.25.35,1.47,1.47,0,0,0,1.1-.52,1.48,1.48,0,0,0,.35-1.21,3.51,3.51,0,0,0-.48-1.28A8.72,8.72,0,0,0,378,91.43a20.64,20.64,0,0,0-6.4-.5A9.9,9.9,0,0,0,367.47,92.21Z"/><path class="cls-1" d="M273,82.59c0,.15,0,.23-.15.23-2.44,0-2.82,4.8-2.9,5.64V125h16.85c1.14-.08,5.71-.46,5.71-2.82,0-.08.08-.16.23-.16a.16.16,0,0,1,.15.16v12H257.52c-.07,0-.07-.08-.07-.23s0-.15.07-.15c2.44,0,2.82-4.5,2.9-5.57V88.38c-.08-1.14-.46-5.56-2.9-5.56-.07,0-.07-.08-.07-.23s0-.15.07-.15h15.32C273,82.44,273,82.51,273,82.59Z"/></svg>