<svg xmlns="http://www.w3.org/2000/svg" viewBox="0 0 325.75 59.8"><defs><style>.a{fill:#084f95;}.b{fill:#0b8a44;}.c{fill:#f69322;}</style></defs><path class="a" d="M64.46,0a5.35,5.35,0,0,1,5,3,13.06,13.06,0,0,1,.47,3.46c0,.63-.1.94-.31.94l.16.32a18.92,18.92,0,0,1-1,3.62l1.89,6.44V18q0,2-2.2,7.23a12.51,12.51,0,0,0-.31,2.36v1.26a25.34,25.34,0,0,1,1.72,7.39,25.37,25.37,0,0,1-2.2,8.33l.16.32a13.78,13.78,0,0,0-.63,2.83c.26,0,.47.73.63,2.2.13,0,.39.57.79,1.73a7.5,7.5,0,0,0-.16,1.25,1.19,1.19,0,0,0,.16.48A8.55,8.55,0,0,1,67.1,56.8c-1,2-3.22,3-6.76,3q-4.44,0-5.81-5.19l-.16-1.41a5.61,5.61,0,0,1,.31-1.57A8.56,8.56,0,0,1,53.74,49c-.24,0-.55-1.25-.94-3.77q0-.36,1.88-6.13A25.46,25.46,0,0,0,55,35.9V34l-1.73-6.76V27.1h.16a1.1,1.1,0,0,1-.16-.47,1.19,1.19,0,0,1,.16-.48,1.31,1.31,0,0,0-.16-.47A40.62,40.62,0,0,1,55,18.56a5.65,5.65,0,0,1,.47-1.89,1.1,1.1,0,0,1-.16-.47h.16a1.1,1.1,0,0,1-.16-.47l.16-.32-.16-.31.16-.79a42.28,42.28,0,0,1-.63-5.5,11,11,0,0,1,1.89-5.35c2.43-2.3,5-3.46,7.54-3.46Z"/><path class="b" d="M241.65,7h17.51c3.54,0,6.13-.07,7.75-.22a24,24,0,0,0,4.75-.9,4,4,0,0,1,1.13-.2,3.84,3.84,0,0,1,3.13,1.9,12.39,12.39,0,0,1,2.25,7.5,5.76,5.76,0,0,1-.94,3.49,3.34,3.34,0,0,1-4.32.82,9.07,9.07,0,0,1-1.69-2.06,7.33,7.33,0,0,0-3.8-3,26.21,26.21,0,0,0-7.54-.77q-3.93,0-4.77,1.4a4.52,4.52,0,0,0-.53,2c-.06.84-.09,3-.09,6.44,0,1.36.23,2.21.68,2.53s1.65.5,3.58.5a3,3,0,0,0,2.08-.6,3.4,3.4,0,0,0,.82-2.13,15.56,15.56,0,0,1,.49-2.71,2.71,2.71,0,0,1,.94-1.27,2.46,2.46,0,0,1,1.67-.62,2.91,2.91,0,0,1,2.38,1.33,9.43,9.43,0,0,1,1.21,3.49,27,27,0,0,1,.5,5.23,20.29,20.29,0,0,1-1.67,8.83,3,3,0,0,1-2.8,1.87,1.89,1.89,0,0,1-1.6-.6,5.93,5.93,0,0,1-.68-2.47q-.51-3.84-4.5-3.84a2.21,2.21,0,0,0-2.09,1,7.75,7.75,0,0,0-.56,3.59c0,1.07.07,2.45.22,4.14a22.13,22.13,0,0,0,.46,3.35,2.11,2.11,0,0,0,1.68,1.42,19.69,19.69,0,0,0,4.72.39c3.41,0,6-.44,7.7-1.31A9.72,9.72,0,0,0,274,40.66,8.51,8.51,0,0,1,275.72,38a2.92,2.92,0,0,1,2-.68A2.87,2.87,0,0,1,280,38.56a5.12,5.12,0,0,1,.93,3.12,16.5,16.5,0,0,1-1,5.11,26.18,26.18,0,0,1-2.59,5.45,6.91,6.91,0,0,1-1.3,1.55,2.05,2.05,0,0,1-1.29.39,13,13,0,0,1-1.87-.2,38,38,0,0,0-5.83-.51H238.14a4.16,4.16,0,0,1-2.69-.77,2.61,2.61,0,0,1-.95-2.16,2.07,2.07,0,0,1,.41-1.44A6.83,6.83,0,0,1,236.78,48a3.56,3.56,0,0,0,1.51-1.09,4.9,4.9,0,0,0,.77-1.91,67.79,67.79,0,0,0,1.13-13.86q0-13.15-1.64-16.59a2.47,2.47,0,0,0-.75-1,7.43,7.43,0,0,0-1.7-.64,2.47,2.47,0,0,1-1.94-2.59,3.1,3.1,0,0,1,.64-1.94,3,3,0,0,1,1.71-1.13A27.6,27.6,0,0,1,241.65,7Z"/><path class="b" d="M127.86,17.15,112.22,48.8a13,13,0,0,1-2.72,4,4.94,4.94,0,0,1-3.28,1.1,6,6,0,0,1-2.93-.71,5.18,5.18,0,0,1-1.55-1.28,14.88,14.88,0,0,1-1.41-2.64L86.4,18.62a12.37,12.37,0,0,0-2.1-3.53,4.79,4.79,0,0,0-2.67-1.24,2.29,2.29,0,0,1-2-2.52c0-1.75,1.2-3.1,3.58-4A30,30,0,0,1,93.47,5.91,36.36,36.36,0,0,1,103.69,7c2.22.7,3.27,1.8,3.27,3.27a3.38,3.38,0,0,1-1.78,2.66c-.9.61-1.36,1.19-1.36,1.74a5.93,5.93,0,0,0,.62,2.14l4.25,9.61c.62,1.41,1.31,2.11,2.08,2.11a2.52,2.52,0,0,0,2-1.12A24.28,24.28,0,0,0,115.16,23C117,19,118,16.66,118.29,16a4.54,4.54,0,0,0,.44-1.65c0-.78-.53-1.44-1.6-2A2.7,2.7,0,0,1,115.36,10q0-4,10.87-4.06,5.42,0,7.65.87a3.07,3.07,0,0,1,2.23,3c0,1.69-1,2.65-2.93,2.9a6.65,6.65,0,0,0-2.69.68A11,11,0,0,0,127.86,17.15Z"/><path class="c" d="M148.39,34.73a6.85,6.85,0,0,0,0,9.62,6.59,6.59,0,0,0,4.81,2h27.63V54H153.2A14,14,0,0,1,143,49.75a14.44,14.44,0,0,1,0-20.41,14,14,0,0,1,1.42-1.25,13.49,13.49,0,0,1,.66-18.3,12.78,12.78,0,0,1,9.41-3.94h26.35v7.71H154.48a5.48,5.48,0,0,0-4,1.66,5.82,5.82,0,0,0-1.67,4,5.72,5.72,0,0,0,1.57,4,26.55,26.55,0,0,1,3.94-3.15,16.43,16.43,0,0,1,10-2.77,12.77,12.77,0,0,1,5.29,1.53,12.14,12.14,0,0,1,4.08,3.66,9.93,9.93,0,0,1,1.8,6.13,11.3,11.3,0,0,1-2,6.08,10.61,10.61,0,0,1-6.61,4.36,15.83,15.83,0,0,1-7.88-.48,24.89,24.89,0,0,1-6.89-3.36A18.61,18.61,0,0,1,150,33.49,7.59,7.59,0,0,0,148.39,34.73Zm12.73-3.46a8,8,0,0,0,4.08.35,3.14,3.14,0,0,0,2-1.28,3.49,3.49,0,0,0,.69-1.94,2.4,2.4,0,0,0-.38-1.45,4.66,4.66,0,0,0-3.67-2,8.66,8.66,0,0,0-5.39,1.6,15,15,0,0,0-2.56,2l.59.45A15.79,15.79,0,0,0,161.12,31.27Z"/><path class="c" d="M33.61,39.2a48.23,48.23,0,0,0-2.32-9.31A44.59,44.59,0,0,1,28.9,20.1a41.58,41.58,0,0,1,.83-14.28H37a34.29,34.29,0,0,0-1.14,13.59,46.08,46.08,0,0,0,2.32,9.34,49.61,49.61,0,0,1,2.38,9.68A43.22,43.22,0,0,1,39.46,54H31.74L7.53,19.24V54H0V5.82H7.36L33.81,43.76A34.72,34.72,0,0,0,33.61,39.2Z"/><path class="c" d="M301.47,13.77a6,6,0,0,0-2.76,3.14,3.55,3.55,0,0,0,1.76,4.36,37,37,0,0,0,8.65,3.91,29,29,0,0,1,12.35,6.92,12.55,12.55,0,0,1,.4,17.76q-.37.39-.78.75a19.61,19.61,0,0,1-12,4.39,23.43,23.43,0,0,1-5.85-.38,19.73,19.73,0,0,1-8.85-3.95,14.37,14.37,0,0,1-4.93-7.76,8.41,8.41,0,0,1,9-11.11,13.79,13.79,0,0,1,7.42,2.44,8.06,8.06,0,0,1,3.66,6,9.86,9.86,0,0,1-1,4.46l-7.36-2.53a2.61,2.61,0,0,0,.38-1.24,2.22,2.22,0,0,0-.31-1.38,2.93,2.93,0,0,0-2.06-1,1.83,1.83,0,0,0-1.87.88q-.6,1,.6,3.27a8.84,8.84,0,0,0,5,4,12.91,12.91,0,0,0,2.8.64,17.19,17.19,0,0,0,2.87.12,16.38,16.38,0,0,0,3.67-.62,8.73,8.73,0,0,0,3.32-1.73,5.05,5.05,0,0,0,1.7-2.94,5.54,5.54,0,0,0-1.63-4.78,29.15,29.15,0,0,0-10.79-5.67,42.58,42.58,0,0,1-9-4.12,11.77,11.77,0,0,1-4.67-5.74,10.51,10.51,0,0,1-.07-7.23Q294.93,5.94,304.85,5A25.31,25.31,0,0,1,320,8.13a12.25,12.25,0,0,1,5.32,7,9.22,9.22,0,0,1-1.62,8.39q-4.19,3.47-10.14,2t-7-7a9.12,9.12,0,0,1,.86-4.6l7.44,2.18a3.46,3.46,0,0,0-.35,1.52,1.32,1.32,0,0,0,.59,1.07,2,2,0,0,0,1.25.35,1.5,1.5,0,0,0,1.1-.52,1.48,1.48,0,0,0,.35-1.21,3.49,3.49,0,0,0-.48-1.28A8.72,8.72,0,0,0,312,13a20.55,20.55,0,0,0-6.4-.5A9.92,9.92,0,0,0,301.47,13.77Z"/><path class="a" d="M207,4.15c0,.15,0,.23-.15.23-2.44,0-2.82,4.8-2.9,5.64V46.56H220.8c1.14-.08,5.71-.46,5.71-2.82,0-.08.08-.16.23-.16a.17.17,0,0,1,.15.16v12H191.52c-.07,0-.07-.08-.07-.23s0-.15.07-.15c2.44,0,2.82-4.5,2.9-5.57V9.94c-.08-1.14-.46-5.56-2.9-5.56-.07,0-.07-.08-.07-.23s0-.15.07-.15h15.32C207,4,207,4.07,207,4.15Z"/></svg>