<svg id="Layer_1" data-name="Layer 1" xmlns="http://www.w3.org/2000/svg" viewBox="0 0 460 200"><defs><style>.cls-1{fill:#084f95;}.cls-2{fill:#0b8a44;}.cls-3{fill:#f69322;}</style></defs><path class="cls-1" d="M100.56,72.62c1.38,0,3,.78,4.83,2.33a9.54,9.54,0,0,0,3.83,1.5,1.35,1.35,0,0,1,.67-.16h.67a.14.14,0,0,1,.16.16l.34-.16h.5q3.12,0,5.16,4.83l.67,2.83a6.09,6.09,0,0,0-.33,1.5l.16.34-.16.83A13,13,0,0,0,120.72,96c.56,2.33.83,3.61.83,3.83a21.69,21.69,0,0,1-.66,2.5c.22,0,.33.14.33.34a18.28,18.28,0,0,0-1,3,1.31,1.31,0,0,1,.17.5c-.31,0-1.08,1.5-2.33,4.5q-1.84,1.66-1.84,8.33h-.16a1.25,1.25,0,0,1,.16.5,13.75,13.75,0,0,1-2.66,6.5,21.92,21.92,0,0,1-8.5,5.33l-3.17,2.34a6,6,0,0,1-2.67,1.5V135a16.39,16.39,0,0,1-4.66.83q-4.71,0-8.67-5.16-1.22-4.8-6.5-10.34a10.09,10.09,0,0,1-2.67-7h.17l-.17-.33v-.17c0-.11.06-.16.17-.16l-.17-.34v-.16A22.93,22.93,0,0,1,78.89,103a11.74,11.74,0,0,0,.33-2.83v-.34c0-.11.06-.16.17-.16-.56-2.42-.83-3.7-.83-3.84h.16a3.14,3.14,0,0,1-.33-1.5,12.46,12.46,0,0,1,5-10q2.08-1.17,5.17-5.84c0-1.25,1.66-2.58,5-4a10.73,10.73,0,0,0,4-1.5ZM96.22,93.28a8,8,0,0,0,.67,3.34,16.1,16.1,0,0,1-2.33,6.66c-1.09,1.39-1.75,2.23-2,2.5a9,9,0,0,0-1.34,3.5,18.42,18.42,0,0,0,2,3.67c.45.42,1,1.92,1.67,4.5a.15.15,0,0,1-.17.17,4.36,4.36,0,0,0,1.5,3.33q1.26,0,2.5-5.33a21.51,21.51,0,0,1,5.5-5.17q2.3-2.83,2.5-4.33v-.84a12,12,0,0,0-2-3.16,15.18,15.18,0,0,0-.16-2.34,12.74,12.74,0,0,1,1.66-5,2,2,0,0,1,.17-1c-.47-2.33-1.2-3.5-2.17-3.5l-3.33-1.83h-.17Q96.22,91.38,96.22,93.28Z"/><path class="cls-2" d="M242.3,74.26l.33.17a1.36,1.36,0,0,1,.67-.17h.17c.11,0,.16.06.16.17a.15.15,0,0,0,.17-.17q2.58,0,9.5,3.33c.92,0,1.42.06,1.5.17a8.64,8.64,0,0,1,2-.67h1.83a8,8,0,0,1,4,1.84,8.26,8.26,0,0,1,1.5,3l-.16.33.16.83a7.82,7.82,0,0,1-2.83,4.84q0,1.08-6.17,2L250,88.43h-.17a.31.31,0,0,0-.33.33l.83,2.83v.34a4.17,4.17,0,0,1-1.5,3.5c-.33.77-.56,1.16-.67,1.16.11.56.22,1.61.34,3.17a11.83,11.83,0,0,0-.34,1.67q.92,4.57,2.34,6.33a.15.15,0,0,1-.17.17,21.56,21.56,0,0,1,.83,2.66q0,6.91-2.66,10.84c-.2,1.44-.37,2.16-.5,2.16s.05.17.16.17a13.11,13.11,0,0,1-.33,1.83l.83,7q-1.24,7.66-7.66,7.67a7.64,7.64,0,0,1-6-3,15.5,15.5,0,0,1-.67-4c.22-.25.44-1.81.67-4.67l-1.17-5.16q0-2.39,2-7.5l1.33-4.67c0-.11,0-.17-.16-.17l.33-1.5a1.31,1.31,0,0,1-.17-.5h.17q0-1.2-4-9c-.11-.66-.22-1-.33-1a34.68,34.68,0,0,1,1-5.83,14.31,14.31,0,0,0,.16-2.17q-.87-1.83-6.5-1.83c-4.22-1.17-6.33-2.33-6.33-3.5-.31-.11-.81-.83-1.5-2.17q0-4.53,4.67-6.33a23.58,23.58,0,0,1,3.16-.33v.16l.34-.16a8.57,8.57,0,0,1,2.33.33.15.15,0,0,0,.17-.17,30.63,30.63,0,0,0,5,.34q1.2,0,3.83-2.34A8,8,0,0,1,242.3,74.26Z"/><path class="cls-2" d="M39.47,76.89,49.85,91.37l.44.32V76.89H67.11v54.62H56.62L41.55,109.39v22.12H22.16V76.89Z"/><path class="cls-2" d="M414.87,77.18A35.11,35.11,0,0,1,424.62,79a4.09,4.09,0,0,0,1.16.22,11.07,11.07,0,0,0,2.16-.65,3.39,3.39,0,0,1,1.23-.22c1.61,0,3.32,1.28,5.11,3.83A12.76,12.76,0,0,1,437,89.49a5,5,0,0,1-1.21,3.42,3.78,3.78,0,0,1-2.94,1.39,4.35,4.35,0,0,1-2.35-.58,41.63,41.63,0,0,1-4-3.43q-4.33-4-8.52-4.05a5,5,0,0,0-3.23,1,3.11,3.11,0,0,0-1.21,2.56c0,2.1,1.84,3.67,5.52,4.73a80.24,80.24,0,0,1,9.57,3.22q9.21,4.47,9.21,13.18a15.22,15.22,0,0,1-6.28,12.56q-6.44,5-16.8,5a46.15,46.15,0,0,1-9.75-1.11,23.14,23.14,0,0,1-7.4-2.58c-1.15-.77-2.2-2.45-3.12-5a22.3,22.3,0,0,1-1.39-7.57,4.21,4.21,0,0,1,.72-2.67,2.78,2.78,0,0,1,2.28-1.16,3.58,3.58,0,0,1,2.63,1.41,52.58,52.58,0,0,1,3.58,5.09,9.77,9.77,0,0,0,4.24,3.36,14.26,14.26,0,0,0,6,1.34,8.26,8.26,0,0,0,4.33-1,2.92,2.92,0,0,0,1.67-2.54,3.11,3.11,0,0,0-1.3-2.49,13.12,13.12,0,0,0-4.23-2,57.45,57.45,0,0,1-7.87-3,23.83,23.83,0,0,1-5.06-3.42q-5.7-5.05-5.7-11.48a13.84,13.84,0,0,1,1.48-6.19,15.46,15.46,0,0,1,4.19-5.22A22.27,22.27,0,0,1,414.87,77.18Z"/><path class="cls-1" d="M365.44,77.55a15.56,15.56,0,0,1,3,2.9,15.93,15.93,0,0,1,4.22.11,10.68,10.68,0,0,1,5.86,2.93,11.06,11.06,0,0,1,2.94,5.87,15.18,15.18,0,0,1,.07,4.22,15,15,0,0,1,2.93,3,10.39,10.39,0,0,1,0,12.39,15,15,0,0,1-2.93,3,14.34,14.34,0,0,1-.11,4.21,10.77,10.77,0,0,1-2.9,5.87h0a10.69,10.69,0,0,1-5.83,2.93,15.93,15.93,0,0,1-4.22.11,15.27,15.27,0,0,1-3,2.9,10.45,10.45,0,0,1-12.43,0,15.31,15.31,0,0,1-3.05-2.9,15.85,15.85,0,0,1-4.21-.11,10.28,10.28,0,0,1-8.77-8.8,14.34,14.34,0,0,1-.11-4.21,15,15,0,0,1-2.93-3,10.39,10.39,0,0,1,0-12.39,15,15,0,0,1,2.93-3,14.4,14.4,0,0,1,.11-4.22,10.8,10.8,0,0,1,2.9-5.87h0a10.66,10.66,0,0,1,5.83-2.93,15.85,15.85,0,0,1,4.21-.11,15.18,15.18,0,0,1,3.08-2.9,10.47,10.47,0,0,1,6.2-2A10.61,10.61,0,0,1,365.44,77.55Zm-6.2,5.58a3.12,3.12,0,0,0-1.83.66,9.77,9.77,0,0,0-2.5,2.82L353.48,89l-2.67-.63a9.9,9.9,0,0,0-3.78-.25,3.08,3.08,0,0,0-1.72.8,3.24,3.24,0,0,0-.81,1.76,9.3,9.3,0,0,0,.22,3.78l.62,2.64L343,98.53a8.64,8.64,0,0,0-2.82,2.49,2.77,2.77,0,0,0,0,3.59,8.66,8.66,0,0,0,2.82,2.5l2.31,1.46-.62,2.64a9.31,9.31,0,0,0-.22,3.78,3.24,3.24,0,0,0,.81,1.76,3.08,3.08,0,0,0,1.72.81,9.93,9.93,0,0,0,3.78-.26l2.67-.62,1.43,2.34a10,10,0,0,0,2.5,2.83,2.83,2.83,0,0,0,3.63,0,9.94,9.94,0,0,0,2.49-2.83l1.43-2.34,2.68.62a9.88,9.88,0,0,0,3.77.26,3.12,3.12,0,0,0,1.73-.81,3.31,3.31,0,0,0,.8-1.76,9.31,9.31,0,0,0-.22-3.78l-.62-2.64,2.31-1.46a8.66,8.66,0,0,0,2.82-2.5,2.77,2.77,0,0,0,0-3.59,8.64,8.64,0,0,0-2.82-2.49l-2.31-1.47.62-2.64a9.3,9.3,0,0,0,.22-3.78,3.31,3.31,0,0,0-.8-1.76,3.11,3.11,0,0,0-1.73-.8,9.85,9.85,0,0,0-3.77.25L365,89l-1.43-2.35A9.75,9.75,0,0,0,361,83.79,3.1,3.1,0,0,0,359.24,83.13Z"/><path class="cls-3" d="M279.75,86.77v43h-8V78.66h28a17.87,17.87,0,0,1,13.05,5.39,18.35,18.35,0,0,1,1.5,24.31,123.47,123.47,0,0,1,9.1,19.91l.55,1.47h-8.66a126.8,126.8,0,0,0-6.71-15.18,16.13,16.13,0,0,1-1.43.88,25.91,25.91,0,0,1-7.88,3,17.6,17.6,0,0,1-8.73-.22,11.62,11.62,0,0,1-6.74-5.43,12.45,12.45,0,0,1-1.69-6.82,10.93,10.93,0,0,1,2.6-6.53,13.67,13.67,0,0,1,4.84-3.59,14.09,14.09,0,0,1,5.91-1.14,19.46,19.46,0,0,1,13.67,6.71q2.69-6.3-2.09-11.62a9.94,9.94,0,0,0-7.29-3Zm24.34,21.08q-3.84-4.69-8.8-5a5.26,5.26,0,0,0-2.49.44,5.11,5.11,0,0,0-1.94,1.46,3,3,0,0,0-.66,1.69,4.44,4.44,0,0,0,.62,2.38,3.62,3.62,0,0,0,2.2,1.69,9.13,9.13,0,0,0,4.66,0,18.9,18.9,0,0,0,5.46-2.09C303.48,108.24,303.8,108,304.09,107.85Z"/><path class="cls-3" d="M143.54,87.09a6.43,6.43,0,0,0-2.94,3.34,3.79,3.79,0,0,0,1.87,4.62,39.3,39.3,0,0,0,9.17,4.14,30.6,30.6,0,0,1,13.09,7.33,13.32,13.32,0,0,1-.4,19.62,20.8,20.8,0,0,1-12.76,4.66,25.16,25.16,0,0,1-6.2-.41,20.84,20.84,0,0,1-9.39-4.18,15.39,15.39,0,0,1-5.22-8.23,8.92,8.92,0,0,1,9.57-11.77,14.38,14.38,0,0,1,7.86,2.59,8.5,8.5,0,0,1,3.89,6.34,10.59,10.59,0,0,1-1,4.73l-7.81-2.68a2.67,2.67,0,0,0,.41-1.32,2.23,2.23,0,0,0-.33-1.46,3.07,3.07,0,0,0-2.18-1.1,1.92,1.92,0,0,0-2,.93c-.43.7-.22,1.85.64,3.47a9.37,9.37,0,0,0,5.31,4.21,13.23,13.23,0,0,0,3,.68,17,17,0,0,0,3,.13,16.6,16.6,0,0,0,3.88-.66,9.23,9.23,0,0,0,3.52-1.83,5.35,5.35,0,0,0,1.8-3.12,5.87,5.87,0,0,0-1.72-5.06,31,31,0,0,0-11.44-6,45.54,45.54,0,0,1-9.57-4.37,12.55,12.55,0,0,1-4.95-6.08,11.18,11.18,0,0,1-.08-7.67q4-9.2,14.56-10.23A26.82,26.82,0,0,1,163.23,81a13,13,0,0,1,5.64,7.43,9.8,9.8,0,0,1-1.72,8.89q-4.44,3.66-10.74,2.12t-7.48-7.33a9.68,9.68,0,0,1,.91-4.88l7.89,2.31a3.69,3.69,0,0,0-.37,1.62,1.35,1.35,0,0,0,.62,1.13,2,2,0,0,0,1.32.37,1.59,1.59,0,0,0,1.18-.55,1.57,1.57,0,0,0,.36-1.28,3.59,3.59,0,0,0-.51-1.36,9.2,9.2,0,0,0-5.65-3.24,22.27,22.27,0,0,0-6.78-.54A10.72,10.72,0,0,0,143.54,87.09Z"/><path class="cls-1" d="M223.85,104.7c0,15.19-11,27.47-24.39,27.47s-24.32-12.28-24.32-27.47,10.91-27.46,24.32-27.46S223.85,89.51,223.85,104.7Zm-39.5,0c0,9.78,6.55,17.77,15.11,17.77s15.1-8,15.1-17.77S208,86.93,199.46,86.93,184.35,94.93,184.35,104.7Z"/></svg>