<svg xmlns="http://www.w3.org/2000/svg" viewBox="0 0 696.41 347.4"><defs><style>.a{fill:#084f95;}.b{fill:#0b8a44;}.c{fill:#f69322;}.d{opacity:0.41;}.e{fill:#f99e43;}.f{fill:#f19a3b;}</style></defs><path class="a" d="M217.41,143.1c1.4,0,3,.8,4.8,2.3a9.46,9.46,0,0,0,3.8,1.5,1.45,1.45,0,0,1,.7-.2h.7c.1,0,.1,0,.2.1h0l.3-.2h.5c2.1,0,3.8,1.6,5.2,4.8l.7,2.8a4,4,0,0,0-.3,1.5l.2.3-.2.9a12.73,12.73,0,0,0,3.7,9.4,26.82,26.82,0,0,1,.8,3.8,23.35,23.35,0,0,1-.7,2.5.27.27,0,0,1,.3.3v.1a17.6,17.6,0,0,0-1,3c.1.2.1.3.2.5-.3,0-1.1,1.5-2.3,4.5-1.2,1.1-1.8,3.9-1.8,8.3h-.3c.1.2.1.3.2.5a13,13,0,0,1-2.7,6.5,22.2,22.2,0,0,1-8.5,5.3l-3.2,2.3a6.51,6.51,0,0,1-2.7,1.5v-.2a15,15,0,0,1-4.7.8c-3.1,0-6-1.7-8.7-5.2-.8-3.2-3-6.6-6.5-10.3a10.08,10.08,0,0,1-2.7-7h.2l-.2-.3V183a.22.22,0,0,1,.2-.2l-.2-.3v-.2a22.61,22.61,0,0,1,2.2-9.2,13.33,13.33,0,0,0,.3-2.8V170a.22.22,0,0,1,.2-.2,35.07,35.07,0,0,1-.8-3.8h.2a4,4,0,0,1-.3-1.5,12.46,12.46,0,0,1,5-10c1.4-.8,3.1-2.7,5.2-5.8,0-1.2,1.7-2.6,5-4a9.74,9.74,0,0,0,4-1.5Zm-4.3,20.7a7.54,7.54,0,0,0,.7,3.3,17.81,17.81,0,0,1-2.3,6.7c-1.1,1.4-1.8,2.2-2,2.5a9.32,9.32,0,0,0-1.3,3.5,19,19,0,0,0,2,3.7c.4.4,1,1.9,1.7,4.5,0,.1,0,.2-.1.2h0a4.13,4.13,0,0,0,1.5,3.3c.8,0,1.7-1.8,2.5-5.3a22.67,22.67,0,0,1,5.5-5.2c1.5-1.9,2.4-3.3,2.5-4.3v-.8a13.24,13.24,0,0,0-2-3.2,8.58,8.58,0,0,0-.2-2.3,12.39,12.39,0,0,1,1.7-5,1.8,1.8,0,0,1,.2-1c-.5-2.3-1.2-3.5-2.2-3.5l-3.3-1.8h-.2C214.61,160.9,213.11,162.5,213.11,163.8Z"/><path class="b" d="M359.21,144.7l.3.2a1.45,1.45,0,0,1,.7-.2h.2a.22.22,0,0,1,.2.2c.1,0,.2,0,.2-.1h0c1.7,0,4.9,1.1,9.5,3.3a3.22,3.22,0,0,1,1.5.2,11.76,11.76,0,0,1,2-.7h1.8a8.14,8.14,0,0,1,4,1.8,8.47,8.47,0,0,1,1.5,3l-.2.3.2.8a7.67,7.67,0,0,1-2.8,4.8c0,.7-2.1,1.4-6.2,2l-5.2-1.3h-.2a.27.27,0,0,0-.3.3h0l.8,2.8v.3a4.35,4.35,0,0,1-1.5,3.5c-.3.8-.6,1.2-.7,1.2.1.6.2,1.6.3,3.2a4.67,4.67,0,0,0-.3,1.7c.6,3,1.4,5.2,2.3,6.3,0,.1,0,.2-.1.2h0a27.59,27.59,0,0,1,.8,2.7q0,6.9-2.7,10.8a6.34,6.34,0,0,1-.5,2.2c-.1,0,0,.2.2.2l-.3,1.8.8,7c-.8,5.1-3.4,7.7-7.7,7.7a7.39,7.39,0,0,1-6-3,17.63,17.63,0,0,1-.7-4c.2-.2.4-1.8.7-4.7l-1.2-5.2c0-1.6.7-4.1,2-7.5l1.3-4.7c0-.1,0-.2-.2-.2l.3-1.5c-.1-.2-.1-.3-.2-.5h.2c0-.8-1.3-3.8-4-9-.1-.7-.2-1-.3-1a37,37,0,0,1,1-5.8,15,15,0,0,0,.2-2.2c-.6-1.2-2.7-1.8-6.5-1.8-4.2-1.2-6.3-2.3-6.3-3.5-.3-.1-.8-.8-1.5-2.2,0-3,1.6-5.1,4.7-6.3a16.55,16.55,0,0,1,3.2-.3v.2l.3-.2a8.52,8.52,0,0,1,2.3.3c.1,0,.2,0,.2-.1h0a28,28,0,0,0,5,.3c.8,0,2.1-.8,3.8-2.3A7.08,7.08,0,0,1,359.21,144.7Z"/><path class="b" d="M156.31,147.4l10.4,14.5.4.3V147.4H184V202h-10.5l-15.1-22.1V202H139V147.4Z"/><path class="b" d="M531.71,147.7a36.81,36.81,0,0,1,9.8,1.8,5,5,0,0,0,1.2.2,9,9,0,0,0,2.2-.6,2.66,2.66,0,0,1,1.2-.3c1.6,0,3.3,1.3,5.1,3.8a12.81,12.81,0,0,1,2.7,7.3,5,5,0,0,1-1.2,3.4,3.7,3.7,0,0,1-2.9,1.4,4.65,4.65,0,0,1-2.3-.6c-1.4-1.1-2.7-2.2-4-3.4-2.9-2.7-5.7-4-8.5-4.1a4.55,4.55,0,0,0-3.2,1,3.22,3.22,0,0,0-1.2,2.6c0,2.1,1.8,3.7,5.5,4.7a77.18,77.18,0,0,1,9.6,3.2c6.1,3,9.2,7.4,9.2,13.2a15.36,15.36,0,0,1-6.3,12.6c-4.3,3.3-9.9,5-16.8,5a46.73,46.73,0,0,1-9.8-1.1,21.8,21.8,0,0,1-7.4-2.6c-1.1-.8-2.2-2.4-3.1-5a21.78,21.78,0,0,1-1.4-7.6,4.39,4.39,0,0,1,.7-2.7,2.94,2.94,0,0,1,2.3-1.2,3.76,3.76,0,0,1,2.6,1.4,46.65,46.65,0,0,1,3.6,5.1,9.93,9.93,0,0,0,4.2,3.4,13.8,13.8,0,0,0,6,1.3,8,8,0,0,0,4.3-1,3,3,0,0,0,1.7-2.5,3.13,3.13,0,0,0-1.3-2.5,13.52,13.52,0,0,0-4.2-2,65.85,65.85,0,0,1-7.8-2.9,28.3,28.3,0,0,1-5.1-3.4c-3.8-3.4-5.7-7.2-5.7-11.5a13.21,13.21,0,0,1,1.5-6.2,15.09,15.09,0,0,1,4.2-5.2A21.79,21.79,0,0,1,531.71,147.7Z"/><path class="a" d="M482.31,148a16.43,16.43,0,0,1,3,2.9,19.67,19.67,0,0,1,4.2.1,11,11,0,0,1,5.9,2.9,10.33,10.33,0,0,1,2.9,5.9,19.67,19.67,0,0,1,.1,4.2,16.43,16.43,0,0,1,2.9,3,10.5,10.5,0,0,1,0,12.4,16.43,16.43,0,0,1-2.9,3,14.79,14.79,0,0,1-.1,4.2,10.33,10.33,0,0,1-2.9,5.9h0a10.06,10.06,0,0,1-5.8,2.9,14.79,14.79,0,0,1-4.2.1,16.43,16.43,0,0,1-3,2.9,10.5,10.5,0,0,1-12.4,0,13.76,13.76,0,0,1-3-2.9,19.67,19.67,0,0,1-4.2-.1,10.19,10.19,0,0,1-8.8-8.8,14.79,14.79,0,0,1-.1-4.2,16.43,16.43,0,0,1-2.9-3,10.5,10.5,0,0,1,0-12.4,16.43,16.43,0,0,1,2.9-3,14.79,14.79,0,0,1,.1-4.2,11,11,0,0,1,2.9-5.9h0a10.06,10.06,0,0,1,5.8-2.9,14.79,14.79,0,0,1,4.2-.1A14.25,14.25,0,0,1,470,148a10.46,10.46,0,0,1,12.3,0Zm-6.2,5.6a2.87,2.87,0,0,0-1.8.7,9.52,9.52,0,0,0-2.5,2.8l-1.4,2.4-2.7-.6a9.66,9.66,0,0,0-3.8-.2,3.81,3.81,0,0,0-1.7.8,3.7,3.7,0,0,0-.8,1.8,9.76,9.76,0,0,0,.2,3.8l.6,2.6-2.3,1.3a8.42,8.42,0,0,0-2.8,2.5,2.74,2.74,0,0,0,0,3.6,8.42,8.42,0,0,0,2.8,2.5l2.3,1.5-.6,2.6a9.66,9.66,0,0,0-.2,3.8,3.7,3.7,0,0,0,.8,1.8,3.81,3.81,0,0,0,1.7.8,8.21,8.21,0,0,0,3.8-.3l2.7-.6,1.4,2.3a8.42,8.42,0,0,0,2.5,2.8,2.74,2.74,0,0,0,3.6,0,11.17,11.17,0,0,0,2.5-2.8l1.4-2.3,2.7.6a12,12,0,0,0,3.8.3,3.37,3.37,0,0,0,1.7-.8,3.7,3.7,0,0,0,.8-1.8,9.76,9.76,0,0,0-.2-3.8l-.6-2.6,2.3-1.5a9.52,9.52,0,0,0,2.8-2.5,2.74,2.74,0,0,0,0-3.6,8.42,8.42,0,0,0-2.8-2.5l-2.3-1.5.6-2.6a9.66,9.66,0,0,0,.2-3.8,3.7,3.7,0,0,0-.8-1.8,3.81,3.81,0,0,0-1.7-.8,9.76,9.76,0,0,0-3.8.2l-2.6.7-1.4-2.4a10.24,10.24,0,0,0-2.6-2.9A5.34,5.34,0,0,0,476.11,153.6Z"/><path class="c" d="M396.61,157.3v43h-8V149.2h28a17.67,17.67,0,0,1,13,5.4,18.35,18.35,0,0,1,1.5,24.3,123.09,123.09,0,0,1,9.1,19.9l.5,1.5H432a120.92,120.92,0,0,0-6.7-15.2c-.5.3-.9.6-1.4.9a26.91,26.91,0,0,1-7.9,3,17.09,17.09,0,0,1-8.7-.2,11.32,11.32,0,0,1-6.7-5.4,11.63,11.63,0,0,1-1.6-6.8,10.42,10.42,0,0,1,2.6-6.5,14.11,14.11,0,0,1,4.8-3.6,13.46,13.46,0,0,1,5.9-1.1,19.2,19.2,0,0,1,13.6,6.7c1.8-4.2,1.1-8.1-2.1-11.6a10,10,0,0,0-7.3-3Zm24.4,21c-2.6-3.1-5.5-4.8-8.8-5a5.28,5.28,0,0,0-2.5.4,4,4,0,0,0-1.9,1.5,3.63,3.63,0,0,0-.7,1.7,5,5,0,0,0,.6,2.4,4.14,4.14,0,0,0,2.2,1.7,9.35,9.35,0,0,0,4.7,0,18.4,18.4,0,0,0,5.5-2.1Z"/><path class="c" d="M260.41,157.6a6.25,6.25,0,0,0-2.9,3.3,3.76,3.76,0,0,0,1.9,4.6,34.52,34.52,0,0,0,9.2,4.1,30.39,30.39,0,0,1,13.1,7.3,13.28,13.28,0,0,1,.4,18.8l-.8.8a21.17,21.17,0,0,1-12.8,4.7,25.55,25.55,0,0,1-6.2-.4,20.56,20.56,0,0,1-9.4-4.2,15.3,15.3,0,0,1-5.2-8.2,9,9,0,0,1,5.5-11.4,8.14,8.14,0,0,1,4.1-.4,14.55,14.55,0,0,1,7.8,2.6,8.57,8.57,0,0,1,3.9,6.3,10.73,10.73,0,0,1-1,4.7l-7.8-2.7a3.26,3.26,0,0,0,.4-1.3,2.7,2.7,0,0,0-.3-1.5,2.66,2.66,0,0,0-2.2-1.1,2,2,0,0,0-2,.9c-.4.7-.2,1.9.6,3.5a9.49,9.49,0,0,0,5.4,4.2,16.28,16.28,0,0,0,3,.7,15.06,15.06,0,0,0,3,.1,17.78,17.78,0,0,0,3.9-.7,9,9,0,0,0,3.5-1.8,5.46,5.46,0,0,0,1.8-3.1,6.06,6.06,0,0,0-1.7-5.1,30.49,30.49,0,0,0-11.4-6,43.78,43.78,0,0,1-9.6-4.4,12.5,12.5,0,0,1-5-6.1,11.32,11.32,0,0,1-.1-7.7c2.7-6.1,7.5-9.5,14.6-10.2a26.59,26.59,0,0,1,16.1,3.3,13,13,0,0,1,5.6,7.4,9.8,9.8,0,0,1-1.7,8.9c-3,2.4-6.5,3.1-10.7,2.1s-6.7-3.5-7.5-7.3a10.21,10.21,0,0,1,.9-4.9l7.9,2.3a4.71,4.71,0,0,0-.4,1.6,1.15,1.15,0,0,0,.6,1.1,2.2,2.2,0,0,0,1.3.4,1.66,1.66,0,0,0,1.2-.5,2,2,0,0,0,.4-1.3,7.84,7.84,0,0,0-.5-1.4,8.9,8.9,0,0,0-5.6-3.2,22.1,22.1,0,0,0-6.8-.5A15,15,0,0,0,260.41,157.6Z"/><path class="a" d="M340.71,175.2c0,15.2-11,27.5-24.4,27.5S292,190.4,292,175.2s10.9-27.5,24.3-27.5S340.71,160,340.71,175.2Zm-39.5,0c0,9.8,6.6,17.8,15.1,17.8s15.1-8,15.1-17.8-6.6-17.8-15.1-17.8S301.21,165.4,301.21,175.2Z"/><g class="d"><path class="e" d="M44.81,264.2c.1-.4-.4-1.1-1.1-.5v1.5Z"/><path class="e" d="M38.51,264.6c-.6,1-1.2,2.6,0,3.4.3-1.6.8-1.2,1.1-3.1.7-.5,1.5-.3,1.6.2.1-.4,1.3-.3,1.4-1.3-1.5-.4-2.7.2-3.7,1.6C38.41,265.3,38.51,264.8,38.51,264.6Z"/><path class="e" d="M48.81,286.2l.2-.4A.76.76,0,0,0,48.81,286.2Z"/><path class="e" d="M53.51,329.4c-.2.6-.4,1.3-.5,1.7C53.21,330.3,53.51,329.7,53.51,329.4Z"/><path class="e" d="M59,321c-.1.2-.3.4-.4.6C58.81,321.6,58.91,321.4,59,321Z"/><path class="e" d="M48.81,286.2a10.37,10.37,0,0,1-.4,1C48.81,287.3,48.71,286.7,48.81,286.2Z"/><path class="e" d="M30.81,271.9c.1-.1.1-.2.1-.4-.1.1-.1.2-.2.3Z"/><path class="e" d="M32.31,283.5h-.6a2.65,2.65,0,0,0-.6.5C31.51,283.8,31.91,283.7,32.31,283.5Z"/><path class="e" d="M6.11,283.2c.5.1,3.8-1,5.3-1.5a28.74,28.74,0,0,1-3.3.7A20.75,20.75,0,0,1,6.11,283.2Z"/><path class="e" d="M22.91,270.8l.3-.3Z"/><path class="e" d="M44.71,284v.4C44.81,284.2,44.81,284.1,44.71,284Z"/><path class="e" d="M41.51,241c-.1,0-.1,0-.2.1C41.41,241.1,41.51,241.1,41.51,241Z"/><path class="e" d="M43.31,261.9l-.2-.2a1.42,1.42,0,0,0-.6.2Z"/><path class="e" d="M70.21,300.6c-.1,0-.1.1,0,0C70,301.1,70.11,300.9,70.21,300.6Z"/><path class="e" d="M106.61,250.6c-1.8.3-1-.4-.6-1s.6-1-1.6-.6c.4.1.1.7.1,1.2S104.61,251.2,106.61,250.6Z"/><path class="e" d="M30.51,271.9c-.1.1-.2.1-.3.2C30.41,272.1,30.51,272,30.51,271.9Z"/><path class="e" d="M104.41,249h0l-.4.1A.6.6,0,0,1,104.41,249Z"/><path class="e" d="M83.91,286.8a1.08,1.08,0,0,0-.1-.6C83.71,286.2,83.71,286.3,83.91,286.8Z"/><path class="e" d="M72.21,291l.4-.6A2.09,2.09,0,0,0,72.21,291Z"/><path class="e" d="M103,297.1a4.62,4.62,0,0,0,1.4,1c-.1-.2-.3-.3-.4-.4C104,297.9,103.81,297.8,103,297.1Z"/><path class="e" d="M122,309.3c-.3-.3-.7-.6-1.1-1-.1-.1-.3-.1-.4-.2Z"/><path class="e" d="M40.71,236.1c-.6-1.3-1-2.2-1.3-2.9C40.31,235.4,40.31,235.8,40.71,236.1Z"/><path class="e" d="M30.31,271.5c.2.2.3.3.2.4.1,0,.1-.1.2-.2C30.61,271.7,30.41,271.5,30.31,271.5Z"/><path class="e" d="M91,278.9l.5.5Z"/><path class="e" d="M83.71,218.8l-.2.1C83.51,219.1,83.61,219,83.71,218.8Z"/><path class="e" d="M92,279.6a26.23,26.23,0,0,0,2.4,2.4l-.8-.8Z"/><path class="e" d="M42.41,240.3c-7.1-11.4-4.4-7-6-9.6a2.19,2.19,0,0,0-.3-.5,35.18,35.18,0,0,1,2,3.1c.7,1.1.7,1.1,3.2,5.2-.4-.8-1.4-2.4-2.1-3.7s-1.3-2.4-1-2.1c.5.9.7,1.3,1.3,2.3-1-1.9-.7-1.6-.5-1.4s.4.2-.2-1.5a9.74,9.74,0,0,1,.5,1.1c-1-2.1-2-4.3-2.6-5.7.2.2.2-.1.3-.2s.3.2.9,1.5c-.3-.4,0,.6.2,1.2a1.27,1.27,0,0,1,.1-.6c1.8,3.9-.2.5,1,3.3.1-.3.1-.8.3-1s.6-.1,1.1.7c.8,2.8-1.1-.5.4,2.8-.3-.6-.7-1.3-1.1-2,.6,1.5.9,2.1,1,2.4s0,.2,0,.1-.1-.1,0,.2.2.6,1,2.5c.3.6.2.3.3.1s.1-.4.4.2a7.08,7.08,0,0,0-.1-1.5,6.55,6.55,0,0,1,0-1.4c.4-.1.7.3.9.8a3.22,3.22,0,0,1,.1,1.7,3.26,3.26,0,0,1-.2,1.2c0,.2,0,.2.4,0,.6-.7,2.4-1.3,3.3,1l-1.7.5a2.62,2.62,0,0,0,2.4,1.2,1.61,1.61,0,0,1,.9.3,9.33,9.33,0,0,1,1.5,2,1.65,1.65,0,0,1-.9-.5c-.2-.1-.3-.3-.5-.4s-.4-.3-.4-.4c-.4-.3-.6-.5-.6-.3a2.54,2.54,0,0,1,.2.7c.2.2.4.5.5.6a2,2,0,0,0,.9.5,2.38,2.38,0,0,1,2,.8,9.85,9.85,0,0,0-.2,1.7,73.88,73.88,0,0,0,6.1,5.4c1.7-3,3.3-5.8,4.8-8.2.1.6-.3,1.9.8,1,.5-.9,1.1-1.8,1.6-2.6a6.07,6.07,0,0,1,.7-1l.5-.8c.7-1,1.5-2,2.3-3,1.6-1.9,3.4-3.7,5-5.3v-2.1c.2-.3.9-.3.8.2,1.4-1.2-.6-.5-.4-1.5.5-.9,1.3-.7,1.2,0a32,32,0,0,1,2.4-5.7,16.65,16.65,0,0,1,1.8-2.8,1.37,1.37,0,0,1,1-.6.9.9,0,0,0,.1.5c.4-.1.1-.8.1-1.7s.1-1.9.6-1.6l-.1.5a5.26,5.26,0,0,0,1.1-1.4c.4-.6.8-1.1,1.1-1.6.7-1,1.4-1.6.7.9,1.1-3,1.2-2.9,1.3-2.9s.3-.2,2.4-5.3c-.1.2-.1.4-.2.6-1,2.9-1.7,4.5-2.3,6-.3.9-.8,2-1.8,4.5a11.22,11.22,0,0,0,1.1-2,14.86,14.86,0,0,1,1.4-2.3l-1.9,3.5a31.61,31.61,0,0,1,1.8-2.7c-.7,1.4-1.5,2.7-2.2,3.9l.4-.4a21.23,21.23,0,0,1,1.3-2.4c.3-.2-.1.9-.6,1.9a16.28,16.28,0,0,1-1.6,2.4.78.78,0,0,1,1,.2c-.6.3-.7.2-1.1.4.7-.3.3.1-.1.3s-.8.4-.2.3a4.87,4.87,0,0,1,1.1-.4c-.4.4-.7.6-.8.9,0,.1,0,.1-.1.2v.5a10.28,10.28,0,0,0-.1,1.7l-.8-.5a25,25,0,0,0-.5,2.9c-.2,1.4-.4,2.9-.6,4.3-.5,3.8-1,7.5-1.7,11.3,1-3.1,2.5-3.6,2.4-2l-1.2,1.6-.2.4c1.1-.5.7-.6.6-.7.2-.4.3-.6.6-.5a4.33,4.33,0,0,1,1.1-.4c2.1,0,.3,1.5-1.9,2l3.8-.7c-.1.4-1.1.7-1.7,1.2,1.1-.5,2.3-.2,3.8-.1s3.3.2,4.5-.6l.1.4c1-.1,2-.2,2.9-.2h.3c.1-.1.3-.1.4-.2a10.37,10.37,0,0,1,1-.4c1.3-1.2,1.4-1,3.1-2a.59.59,0,0,1,.3.7c0,.3-.1.5.5.4,1.1-.4,1.9-.7,2.6-1a23.55,23.55,0,0,1,2.7-1,13.17,13.17,0,0,0-2.2,1.1,14.78,14.78,0,0,1-2.3.9c.8-.1,1.3-.2,2.3-.4,1.3-.3,2.8-.6,5.1-1.1,1.7-.5,2.2-.8,3.9-1.2.6-.1.4,0-.3.2s-1.9.6-3.1.9l-.6.1a14.29,14.29,0,0,1,2.8-.5,34.59,34.59,0,0,1-3.7,1.3c-1.6.5-3.3,1-4.5,1.3-2.6.7-3.5.8-1,.6h-.3a5.25,5.25,0,0,1,2,.3,2.62,2.62,0,0,1-1.5.1,22,22,0,0,0-2.3.1c.9,0,1,.2.9.3a2.93,2.93,0,0,1-.8.4,4.65,4.65,0,0,0-.9.3.6.6,0,0,0-.3.6,12.34,12.34,0,0,1-1.7-.6h-.3l-.4.2a16.18,16.18,0,0,0-1.8,1c-1.2.7-2.4,1.4-3.6,2a13.36,13.36,0,0,1-1.8.7c-.3.1-.5.1-.9.2a8.33,8.33,0,0,1-1.5.4c.3.1.5.3.8.4a2.38,2.38,0,0,1-1.8.9,8.08,8.08,0,0,0-2,.3c.6.3,2.3-.4,1.6.4-2.8,1.6-5.5,3-8.5,4.4,1.8,2.4,3.4,4.8,5.1,7.4l1.3,1.9.7,1a2.77,2.77,0,0,1,.5.9l1.4,2.3c.9,1.6,1.8,3.1,2.7,4.7.5.8.9,1.5,1.4,2.3l.7,1.1c0,.1.2.2.1.2h0a8.25,8.25,0,0,1,1.8-.2,3.73,3.73,0,0,1,1.2.2c.3.1.4.4-.1.5a19.45,19.45,0,0,0-2-.5,4.26,4.26,0,0,1,1.5.9,3.63,3.63,0,0,1,.7.9,4.43,4.43,0,0,0,.7.9c.4.4,1,1,2.4,2.3-1-.9-2.3-1.9-2.3-2-1.4-1.1-1.4-1.1-.6-.3,2,1.8,3.6,3.3,3.8,3.4-.1,0-2.5-2.2-3.9-3.4-1-.9.2.2,1.3,1.2s2,2,.2.2c-.3-.3-1-.9-1.6-1.5a6.53,6.53,0,0,0,.8.7c.4.4-.7-.5,2.7,2.7-1.2-1.1-1-.8-.9-.6s.1.3-1.1-.8c1.6,1.8.9,1.1.4.7s-.7-.5,1.2,1.7c-4.2-4.8-3.8-4.1-3-2.6a6.42,6.42,0,0,0-1-1.3c-.3-.4-.6-.8-1.1-1.6-.1,0,0,.1.1.4a9.72,9.72,0,0,0,.9,1.7c-.8-1.1-1-1.5-1.1-1.5s-.2.2-.3.3c-.2.3-.8.3-.8-1.4-.1.1-.2.1-.4.2h-.5l-.2-.1c-1.2-.5-2.3-1-3.4-1.5l-.8-.4-.2-.1-.3-.2-.6-.3c-.8-.4-1.7-.9-2.5-1.3-1.6-.9-3.1-1.7-4.6-2.5-.1-1.2,1.7,0,3.5,1s3.5,2.1,3.8,1.1c-4-2.1-6.7-3-9.2-4.1a43.14,43.14,0,0,1-3.2,7.7c-.5.7-.5.4-.4-.3s.3-1.7.4-2.1c-.7,1.9-1.4,3.6-2.1,5.2-.4,1-.9,2-1.3,2.9a24.51,24.51,0,0,0-2.1,5.7,2.24,2.24,0,0,1-.1-1c-.3.7-1,1.5-.2,1.8l.1-.8c1.6-.6.9,3.9,1.4,4.3-1.6-2.2-2.2,3.3-4,.1-.1.5,0,1.3.5,1.4-.5.6-.9.7-1.1-.3-.8,2.7.4,2.2-.7,4.5-.4-.2-.3-.7-.6-1.1a8.68,8.68,0,0,1,.1,2.3,2.66,2.66,0,0,1-.3,1.2,2.51,2.51,0,0,1-.4.7c-.2-.2-.5-.3-.3-.6a19.38,19.38,0,0,0-.5,3.3c-.2,1.4-.7,3.1-1.3,3.6,0-4-.4-.4-.6-3.6a11.63,11.63,0,0,1-.4,1.8c0,.5.1,1,.1,1.4-.2.4-.4,1.5-.7,2.6s-.5,2-.7,1.7l.5-2.6-.9,2.6a6.89,6.89,0,0,0,.3.8c-.4,1.8-.6,3.4-.8,4.4a3.71,3.71,0,0,1-.6,2.1c.3-1-.7,1.6-.4-1.2h0c-.6,2.4-1.4,5.4-1.6,4.8.2-.9.6-2.8,1-4.5s.8-3.4.9-4.1c-.3,1.2-.5,2.1-.7,2.9-.2.5-.2,0-.3-.2s-.3,0-.8,1.5c.3-.9,1.1-3.8,1.2-4.5l-1,3.3a32.42,32.42,0,0,1,1.1-4.5c.1-1.1-.4.6-.8,2.1s-.7,2.5-.3,0c.1-.1.2-.6.4-.8a7.73,7.73,0,0,0-.1-2.9,6.73,6.73,0,0,1-.1-3c1.5-3.3.4.8,1.6-2.4-.1-.6-.6-.9-1-1.8a7.1,7.1,0,0,1-.5-3.7l-.2.6c-.5,0-.7-.1-.7-.4a1.09,1.09,0,0,1,.1-.5l.3-.6c.4-.9.9-2.1.4-3.1.2.5,1.2.7.9.5.3-2.8-.5-5.7-1.2-9.9l.5.5a6.37,6.37,0,0,0,.2-.7c0-.2.1-.6.1-1a17,17,0,0,0,.1-2.3,32.42,32.42,0,0,1,.2-4.5c-.4-.2-.5-.9-.7-.8s-.2.1-.2.2a1.07,1.07,0,0,0-.3.5l.1-.2c-1-.8-2.8-1-4.6-1.1a24.37,24.37,0,0,0-2.7.1l-.7.1-.5.1-.9.2c-2.5.4-4.9.9-7.3-.4.6,0,1.4-.5.9-.5l-2.1.2-1,.1c-.3,0-.5.1-.7.1,0,.5.1.6.3.7s.2.1.3.2.3.2.5.4a2.18,2.18,0,0,1-.5.4l-.6.3a4,4,0,0,1-1.5.3c1-.3,1-.7.8-1a8.65,8.65,0,0,0-.7-1c0,.3-.4.6-.5.9-.4-.8-.6-.4-1.2.2a5.5,5.5,0,0,1-.9.7,1.67,1.67,0,0,1-1.2-.1l.6-.5a18.89,18.89,0,0,1-3.9.7c1.2-1,1.8-.5,3-1.3a29.54,29.54,0,0,0-3.3.8c-1.3.3-2.6.5-2.2,0,1.2-.3,2.1-.3,3.2-.5.4-.6.6-.9.5-1s-.3-.1-.5-.2h0a.86.86,0,0,1-.3-.6,1.38,1.38,0,0,0-.4.3c-4.1,1.3-5.5,1.4-6.4,1.4H16c-.8.1-2,.3-4.3.7,2.2-.4,3.4-.6,4.2-.8s1.1-.3,1.4-.4a13.53,13.53,0,0,1,2.7-.9,13.43,13.43,0,0,1,2.9-1c-1.6.3-1.8.3-1.6.2s.6-.2-.1-.2c-.1,0-.6.1-1.7.2,1.6-.3.8-.4,4.4-1.1a10.53,10.53,0,0,0-1.8.3c-.8.2-1.9.5-2.8.7s-.7-.1-.1-.3a21.16,21.16,0,0,1,2.7-.9c1-.3,1.8-.6,2.3-.8s.4-.4-.2-.6c0-.4-.5-.8-.8-1.2s-.4-.9.6-1.8c.9-.1,1.2.1,1.4.4a1.34,1.34,0,0,1,.1.5c2.1-.4,2.6-.7,3.3-1.6.1.3.6.4,1.3.5.6-.4-.6-1.3,1-1.4a9,9,0,0,0,.3,1.6c.1-.2.2-.3.3-.5l.2-.3c.1-.1.1-.2.3-.4a8.52,8.52,0,0,1,1.7-1.6c.7.4-.4,1.3-.7,2,1.4-1,3.7-2.5,3.7-3.7l-1.2.1c.5-.3.7.7.4,1.1a1.37,1.37,0,0,1-2.3.3l.9-.7c-1-.8-2-.2-2.9.7s-1.5,1.9-2.3,2.2a7.58,7.58,0,0,1-.6-1.6,5.55,5.55,0,0,0-.7,1.9c-.8-.1-2.2-.4-1.4-1.1-1.2.1-1.4.4-1.6.6s-.2.4-1.6.6c-.4,0-.4-.1-.3-.2a7,7,0,0,0-.8,1c-.2-.3-2.1-.2-.7-.7-2.3.6-3.2,1.4-3.6,1.9s-.6.9-2.6,1.2v-.1c-1.5,1.1-.8,1.1.3,1a6.63,6.63,0,0,1,3.2.3c-3.2.5-6.6,1.1-10.3,1.8l3.2-.2a9.44,9.44,0,0,1-3,.8,2.89,2.89,0,0,0,1.6,0,9.43,9.43,0,0,1,2-.3,17.68,17.68,0,0,0-4.6,1.8,27.75,27.75,0,0,1-6.3,2,18.73,18.73,0,0,0,3.6-.9c.9-.3,1.4-.4,1.7-.2-1.8.4-2.9.7-3.6.9-.5.2,1.1,0,2.6-.1s2.8-.3,2.2.1c-4.4,1-4.6.4-5.8,1.4,4-.8,4.6-.7,4.8-.4s.1.8,1.6.6a14.29,14.29,0,0,1,5-.8,42.32,42.32,0,0,0,4.9-.1c-.6.2.4.5,2,.7s3.7.5,5,.8l-.3.2a6.82,6.82,0,0,1,3.3-1.1c1.2-.1,2.4-.1,3.5-.2-.3.9-.8,1.2-2.3,1.6h2.4a4.58,4.58,0,0,1,2.4-.8l-.4,1.1c2.2,0,4.4-1.2,7.1-.4.2-1-2.2-2.9.8-3.5.1.6.2,1.5-.6,1.7a2.1,2.1,0,0,1,1.4-.2l-1.2.9c1.3.4.7-.8,1.7-.7,0,.8.7.6.6,1.2-.3.1-.9-.3-1.3,0a4.8,4.8,0,0,1,1.7.5.7.7,0,0,1,.5.4.76.76,0,0,1,.2.4c0-.4.1-1.1.8-1.2s.8.2.7.5-.3.6-.1.9c.6-.5.9,0,2-1.1.2,0,.2.1.1.3a4.35,4.35,0,0,1-.6.7c.5.1.2,2.8,1.4,1.6l.1-.2a.1.1,0,0,0,.1.1h0c.1.3.2.6.3,1,0,.2.1.4.1.6v.7a26.35,26.35,0,0,1-.2,2.8,21.31,21.31,0,0,0-.3,5.6H49c.2,1.1.3,2.3.4,3.4,0,.3.1.6.1.9s.1.7.1.9a5.27,5.27,0,0,0,.5,1.5c0,.7-.7,2.2-1.2,2.1.2,1,.3,1.5.4,2.1a12.35,12.35,0,0,1-.3,3.4c-.7-1.4-.6,1.5-.5-1.8-.2,1.7-.4,2.9-.5,4a3.9,3.9,0,0,0,.6,2.7c-.5.3-.8,1.4-1,2.7a10.34,10.34,0,0,0,0,3.1l.7-3.7a23.47,23.47,0,0,1,0,4.6c-.4.8-.9,1.6-1.3,2.3a27.21,27.21,0,0,0-.3,6,7.66,7.66,0,0,0,.7,2.5,4.11,4.11,0,0,1,.5,2.3,48.45,48.45,0,0,1-.9,7.5,14.92,14.92,0,0,0,.8-4.2,21.78,21.78,0,0,1,.9-4.7c-.1,1.3-.4,3.5-.7,6-.4,2.8-.7,5.3-1,7.2,0,.4.1.5.2.3.7-.5,1.6-3.6,2.4-6.6s1.6-5.9,2.3-6.9a38.77,38.77,0,0,1,2-9.3c.4-.7.5.2.5,1.6a21.27,21.27,0,0,1-.9,4.8c-.3.8-.4.6-.3,0-.5,1.4-1.1,3.3-.9,4l.4-2c.4.3,2.3-4,1.7-.7,1.2-3.6.6-3.1,0-2.3a14.65,14.65,0,0,0,2.2-3.8,49.31,49.31,0,0,1,2.3-4.6c-.3.1-.6-.6-.4-1.1,2.6-4.2.9-4.1,2.3-7.6.6-.4.7.4.8.7s.3.3,1-1.9c.6-.8.9-.6,1,0a12.07,12.07,0,0,1-.3,2.5,15.41,15.41,0,0,1,2.5-5.3c.5-.7,1-1.3,1.4-1.9a5.5,5.5,0,0,1,.7-.9,1.38,1.38,0,0,1,.3-.4c.1-.1.1-.2.2-.4a4.33,4.33,0,0,0-.1.5l-.2.6-.4,1.2a19.68,19.68,0,0,1,.7-1.9,1.69,1.69,0,0,0,.2-.5l.2-.4-1.2.3c.5-.6.7-1.2,1.1-1-.2-1-1.7-.1-1.8-1.9.9-.7.8-3,2.1-2.8-1.7,2.7,1.3.2.3,2.7a5.15,5.15,0,0,1,.8-1.7c.2,0,.2.2.2.4,2.3-2.3-.7-1.9.7-4.7.5.7,1.5-.1,1.6-.6-.5,1.1-1.3,0-1.3-1.2,1.4-1.6.6-2.2,1.1-3.1l-.7,1c-.5-.7,0-1.5.4-2.9.6.1-.2,1.3.2,1-.5-1.9,2.7-2.6,2.8-5,.9-.7,1.2.5,1.9-.2-.2-1.7,1.1,0,.8-1.2-.6-.9-.6-.4-.8-2.2a10.33,10.33,0,0,0-.3,2.2,7.31,7.31,0,0,1-.4-2.3,4.22,4.22,0,0,0-.3,1.2,1.29,1.29,0,0,1-.2.8c-.4-1.1-.1-1-1-1.1.8-.1.9-.6,1-1.5s.2-1.9.8-1.9l1.1,3.3c.1,0,.1.1.2.1.5.6.6.3,1.1.2a1.1,1.1,0,0,1,.8,0c.2,0,.3.1.5.2a7,7,0,0,1,1,.8l-.8-1c.9-.5,2.1,1.2,3.4,1.6-.5.6,0,1.3.2,2,0-.1.1-.1.2-.1a.76.76,0,0,1,.4.1c.4.2.9.5,1.5.8,1.1.6,2.2,1,2.6.3.6.8,1.4,1.7,2.2,2.6,2.2,1.6,3.3,1.7,4,1.5s1.3-.6,3,.7c-.1.4.3,1.1.6,1.7s.3.9-.8.6c1.4.9,2.8,1.9,2.2,1a3.47,3.47,0,0,0,2,1,4.11,4.11,0,0,1,2.4,1.5c0-.4-1.1-2.1.3-1.1.4.5.7.9.7.9-.3-.4,0-.4,0-.6s-.3-.7-1.6-2.1a54.81,54.81,0,0,0,4.9,4.4,25.15,25.15,0,0,0,3.7,2.4,24,24,0,0,1,3.4,2.2c1.3,1,3,2.3,5.6,4.6a39.81,39.81,0,0,1,5,2.6c-.4-.5-.7-.9-1-1.3,1,1,1.6,1.4,1.6,1.6.3-.3-2.3-2.8-4.8-5.2s-4.8-4.6-4.4-4.8a20.63,20.63,0,0,1,3.2,2.8c.7.8,1,1.3,1.5,1.5,4.5,3.9,3.2,2.3,1.4.3-.9-1-2-2.2-2.6-3s-.8-1.3-.2-1l1,1c.6.1-1.2-1.9-3.1-4a67,67,0,0,1-5.1-5.7l1,.7a130.38,130.38,0,0,1-10.8-11c2.4,1.5,1.9,1.6,3.4,1.9a5.71,5.71,0,0,0-2.1-1.3,8.66,8.66,0,0,1-2.8-2c.4-.3-.1-1.8,1.3-1.9l2,2.6c.7-.3-.1-1.3-.9-2.2a16.4,16.4,0,0,1-2.3-2.5l.9.2a19.68,19.68,0,0,0-4.1-3.9,10.48,10.48,0,0,1-1.7-1.4l-.4-.4a1.38,1.38,0,0,1-.3-.4c-.2-.3-.5-.6-.7-.9l-.2.6c-2.4-.6-.3-1.8-2.3-2.7l.9-1.4a42,42,0,0,1-5.5-4.4c1.7.3,3.8,2.1,5.3,3.1-.7-1-2.7-3.4-3.7-3.5.4.3,1.1.6,1.2,1.2a7.49,7.49,0,0,1-2.7-1.3,6.33,6.33,0,0,1-2-2c1-.1,1.3-.4,1.4-.7a4.28,4.28,0,0,0-.5-1.3,3.92,3.92,0,0,1,3.2-.1,1.55,1.55,0,0,1,.8-.8l.7-.3.8-.3c.5-.2,1.1-.4,1.6-.6,1.1-.4,2.2-.8,3.4-1.2a32.49,32.49,0,0,0,4.3-2c-1.1-.1-1.4-.3-1.4-.5s.3-.3.7-.5c.8-.4,1.8-.9.6-1.7,1.3-.8,1.9-1.1,2.2-1,2-.4,4.2-1,6.7-1.6,2.4-.4-.9,1,.1,1.2a8.68,8.68,0,0,1,3.9-1.1,11.69,11.69,0,0,0,3.7-.6c-1.1.1-1.2-.2-.8-.6a13,13,0,0,1,3.2-1.6c-2,.6-3.9,1.1-5.6,1.5a7.44,7.44,0,0,1,2.7-1.6,27.47,27.47,0,0,1,3.4-1,25.94,25.94,0,0,0,3.7-1.1,7.43,7.43,0,0,0,2.9-1.7,2,2,0,0,1,.1.8c1-.8,4.1-2.2,6.4-3.6s3.9-2.5,1.5-2.4c1.6-.5,5-1.4,4.3-.8a38.45,38.45,0,0,0,5.7-3.1c1.3-.9,2.2-1.6,3.2-2.4-4.4.6-7.4.9-7.6.4l3.2-.8c-1.1.2-3,.6-4.4.9s-2.4.4-2.1.1c1.1-.3,3-.8,2.5-.8-.8.2-2.8.6-4.6.9s-3.4.6-3.7.4l4-1a23.51,23.51,0,0,0-5,.3c-2,.3-4.1.7-6.3,1.1-4.3.9-8.3,1.9-11.3,2.3,1.9-1,1.7-1.6.5-1.9a21.89,21.89,0,0,0-4.6-.4l.4-.3a83.33,83.33,0,0,0-13.1,1.7l-2.8.6-1.4.3c-.2,0-.1,0-.1.1l-.1.1-.1.1a5.3,5.3,0,0,1-1.5.8c-.1-.6-.2-.9-.5-1.1a6.52,6.52,0,0,0,.5-1.5l.3-.6a18.29,18.29,0,0,1,.8-2.5c-.4.7-1.3-.4-1.4-1.2.3-.5.1-1.3.1-2-.1-.5.1-1.4.9-1.1l-.1.7a5.63,5.63,0,0,0,1.8-3.7c.4-1.7.6-3.5.9-5.2a20.94,20.94,0,0,0-2.3.8,28.1,28.1,0,0,0,2.5-7.4c.5-2.5.8-4.8,1-6.8a52.21,52.21,0,0,1,.7-5.7,36.48,36.48,0,0,1,2.3-7.3c-.5-.4,0-2.8-.6-2.8l1.8-3.8c.9-4.1,1.5-7.1,2.1-10.4-.9,1.3-2.2,3.2-3.9,5.8l2.1-4.4c-1.2,1.6-3.1,5.8-4.9,9.8s-3.3,7.7-4.2,8.9c.5-1.6.9-3.2,1.3-4.8-1.9,2.7-3.4,4.3-5.3,6.7a45.29,45.29,0,0,0-5.8,9.4,7.92,7.92,0,0,1,.8-2.6c-.9,1.3-2.8,3.4-4.3,5.6a21.45,21.45,0,0,0-1.8,3c-.3.9-.4,1.5.1,1.9-.6-1.7-4.5,6.1-4.4,7.2l-.7-.9c.2,2.3.4,2.5-.6,4.8-.5.4-1-.1-.3-.6-1.6,1.3,0,1.8-1.8,3.4l-.1-1.1c-1.2,1.6-.8,1.7-.8,3.1-.4,1.3-2.4,2.9-3.4,2.6a2.39,2.39,0,0,1-.5,2.7c-.4-.1-.4-.6-.3-.8-2.5,2.3-1.8,4.8-4,6.1a.76.76,0,0,0-.4-.1h-.3c.8-1,1.4-2,1.9-2.6s.8-1,.8-.9c-.8-.6-2.2,1.1-2.4-1.1-.2.9-.3,2.2-.7,3.5l-.1.5a.35.35,0,0,1-.1.2v.5c-.1.3-.2.5-.4.5s-.2-.1-.3-.3v-.2c-.1,0-.2.2-.2.5-.2,0-.3-.1-.4.1-.2-.7-.3-.6-.4-.4-.1-.1-.2-.1-.2-.2a2.75,2.75,0,0,1-.2,1.3c-.1.2-.1.5.1,1.3-.1-.2.1-.1.3.1h.1v.1l.1.1.6-1c0,.9-.2,1.9-.6,1.9-.1-.1-.1-.3-.2-.5a4.42,4.42,0,0,1-.7,1.9c-.3-1.5-.7-2.7-.8-3.6a3.11,3.11,0,0,1,.2-2c-.1,0-.3-.1-.4-.1a7,7,0,0,0-1-.8c-.7-.6-1.4-1.2-2.1-1.7-1.2-.8-3.6-2.7-4.9-2.6-.9-.6-.7-1.7-1-2.4.6.3,1.2,1.1,1.7,1.1-1.1-.8-2.5-2.2-3.7-3.2s-2.2-1.6-2.2-.6c-1.1-1.6-.9-2-.8-2.1s.2-.2-1.3-1.7a1.38,1.38,0,0,0,.3-.4,30.66,30.66,0,0,0-4.9-5.9,7.88,7.88,0,0,0-3-1.7,4.33,4.33,0,0,1-2.5-1.2c-1.1-1-2.7-2.9-6-7.5a27.76,27.76,0,0,1,1.9,2.7,78.17,78.17,0,0,0-6-6.9c.8,2,1.7,4.4,2.7,6.7s1.8,4.5,2.7,6.7,1.5,4,2,5.7a21.52,21.52,0,0,1,.9,4.7c.5,2.5,2.1,4.1,3.7,6.4a8.8,8.8,0,0,0-1.5-.5,46.27,46.27,0,0,0,3,4,6,6,0,0,1,1,2.7,22.62,22.62,0,0,1,.1,2.7,13.74,13.74,0,0,0,.4,3.1,5.57,5.57,0,0,0,1.5,2.5l.6-.8c.4,1.5,2.1,4.3,1.1,4.4.2.1,1,.2.8.9l-.6.3,2.3,3.1c.6,2.8-2.5.5-1.2,4.4.8,1.4,3.3,3.5,3.5,2.8-.2-.6-.2-1.6.4-1.9l.8,1.2c1.8-.4,4,0,4-3.8l-1.9-1.9.6-1,.8,1.9c.4-1.4-.6-1.8-1.3-2.4a1.76,1.76,0,0,0,.6-1.3l-2.5-1.6c.6-.5,1.7.5,1.5-1.1-1.2-.8-1.2,1.6-2.3,0,.4-1.4,1.2-1.3,0-2.3q.6-.45,1.2.3c-1-.9-1.3-2.9-2.5-3.2a3.71,3.71,0,0,0-.4-2.5,5.16,5.16,0,0,1-.2-1.1c0-.2.1-.2.2-.3s.3-.1.5-.2a2.17,2.17,0,0,1-1-.2,2.33,2.33,0,0,1-.9-.7c.7.3,1,.3,1.1.2a.37.37,0,0,0,.1-.3c-.1-.3-.1-.6,1.4.3a4.47,4.47,0,0,1-2-1.8,12.64,12.64,0,0,0-1.5-2.3,5.35,5.35,0,0,1,.7.9c.1-.2,1.1.9,1.7,1.5a85.82,85.82,0,0,1-6.2-8.4c1.4,1.6,2.5,3.2,3.5,4.5s1.9,2.7,3.4,4.6c-1.3-1.7-2-2.7-2.7-3.7s-1.4-2.1-2.5-3.6a18.38,18.38,0,0,1,1.5,1.9c.3.5.8,1.1,2.2,3.2-2.3-3.3-2.5-3.7-2.5-3.8s.2.1-1.4-2.3c1,1.4,2.2,3.2,2.8,4.2s.8,1.3,0-.2A32.92,32.92,0,0,0,42.41,240.3Zm19.5,3.9h0c-.4.6-.7,1.1-.9,1.4C61.21,245.3,61.41,244.9,61.91,244.2Zm3.1-4.6c-.3.4-.7,1-1.2,1.6a.54.54,0,0,1-.4-.8C63.61,240.7,64.41,240,65,239.6Zm-8.7-1.1c.1-.4.1-.1.2.2-.1.1-.1.3-.2.5v-.7Z"/><path class="e" d="M56.21,240.7c-.1,0-.1.1,0,0a1.27,1.27,0,0,0,.1.6.6.6,0,0,1,.1-.4C56.31,240.8,56.21,240.8,56.21,240.7Z"/><path class="e" d="M49,285.7h0l.1-.1A.1.1,0,0,1,49,285.7Z"/><polygon class="e" points="83.21 218.9 83.61 218.1 83.21 218.7 83.21 218.9"/><path class="e" d="M31.31,278.4a.37.37,0,0,0-.1-.3A.44.44,0,0,1,31.31,278.4Z"/><path class="e" d="M24.81,278v-.4C24.61,277.8,24.71,277.9,24.81,278Z"/><path class="e" d="M21.61,277.4c-1,.3-1.4.4-1.7.5h0Z"/><path class="e" d="M65.11,288.3c0-.1.1-.2.1-.3C65.31,287.2,65.21,287.7,65.11,288.3Z"/><path class="e" d="M53.71,318.7c.2-.9.5-1.8.7-2.8C54.31,316,54.21,316.2,53.71,318.7Z"/><path class="e" d="M55,314.9c-.1-.4-.2.1-.5,1C54.61,315.9,54.71,315.9,55,314.9Z"/><path class="e" d="M36.11,269.4l.4-.1v-.2Z"/><path class="e" d="M36.51,269.1l.3-.3Q36.51,268.95,36.51,269.1Z"/><path class="e" d="M37.51,268.1l-.7.7C37.11,268.7,37.51,268.5,37.51,268.1Z"/><path class="e" d="M28.81,272.5l.5.2A1.69,1.69,0,0,1,28.81,272.5Z"/><path class="e" d="M27.41,273.3c.3-.1.9-.1,1.4-.2s.9-.1.9-.3l-.4-.2c.3.2-.3.2-.9.3S27,273.2,27.41,273.3Z"/><path class="e" d="M2.41,280.1l4.3-1.8c-2,.5-4.8,1.2-3.5.5C1,279.6.11,279.9,0,280s.6-.1,1.3-.2C2.91,279.4,4.81,279,2.41,280.1Z"/><path class="e" d="M4,282.6c-2.8.2-2.1.6-2.9.8C3.81,283.1,4.31,283,4,282.6Z"/><path class="e" d="M48.11,306.3c-.3.2-.7.3-1,.5C47.31,308.4,47.51,306.5,48.11,306.3Z"/><path class="e" d="M53.41,309.6c.2-.7.4-1.5.6-2.1-.3.6-.6,1.3-.9,1.9C53.21,309.4,53.31,309.5,53.41,309.6Z"/><polygon class="e" points="46.21 339.8 46.11 339.4 46.41 341.3 46.21 339.8"/><path class="e" d="M121.61,310.2l-4.2-4.2C117.11,306.1,120.91,310.2,121.61,310.2Z"/><path class="e" d="M96.51,270.4a2,2,0,0,0-1.2-2.3C95.91,269,96.11,270.1,96.51,270.4Z"/><polygon class="e" points="94.71 211.4 95.01 212.7 95.11 210 94.71 211.4"/></g><path class="f" d="M570.81.2c-.1.2-.1.6,0,.5L571,0Z"/><path class="f" d="M571.21,1.6a3.71,3.71,0,0,0,.5-1.5c-.2.6-.2.3-.5,1.1-.1.1-.1-.3-.1-.5-.1.2-.1-.2-.3.2,0,.5.2.6.4.2C571.31,1.3,571.21,1.5,571.21,1.6Z"/><path class="f" d="M586.51,6.6l-.1.1A.1.1,0,0,0,586.51,6.6Z"/><path class="f" d="M587.31,7.6h0C587.21,7.6,587.21,7.7,587.31,7.6Z"/><path class="f" d="M580.61,4.8l.1.2C580.81,4.8,580.71,4.8,580.61,4.8Z"/><path class="f" d="M572.91.3a.35.35,0,0,0-.1.2.1.1,0,0,0,.1-.1C572.81.3,572.81.3,572.91.3Z"/><path class="f" d="M577.91,4.7h0c-.1.1-.1.2-.2.3Z"/><path class="f" d="M575.81,4.4s.2-.5.3-.8c-.1.2-.1.3-.2.4S575.81,4.2,575.81,4.4Z"/><path class="f" d="M636.61,23.5h0c-.1.1-.1.2-.2.3Z"/><path class="f" d="M588.91,8.8h0C588.81,8.9,588.91,8.9,588.91,8.8Z"/><path class="f" d="M605.71,13.5c0-.6.5-.5.4-1.2C606.11,12.6,605.61,13.1,605.71,13.5Z"/><path class="f" d="M595.11,9.4c0,.1,0,.1.1.1V9.4S595.11,9.5,595.11,9.4Z"/><path class="f" d="M596.81,9.9V9.8h-.1Z"/><path class="f" d="M630.61,17.9c0,.2-.1.3-.1.5C630.61,18,630.91,18,630.61,17.9Z"/><path class="f" d="M572.81.6a.35.35,0,0,1,.1-.2h-.1Z"/><path class="f" d="M596.51,5l.3.2C596.71,5,596.61,5,596.51,5Z"/><path class="f" d="M618.61,13.1Z"/><path class="f" d="M597.51,5.3v.4a.1.1,0,0,1,.1-.1Z"/><path class="f" d="M632.71,17.9c-.2-.1-.4.6-.7,1-.4.1.1-.6.2-1-.3.1-.7.7-.8.6a.37.37,0,0,1,.1-.3c-.4.5-.6-.2-1.1.4v-.2a10.37,10.37,0,0,1-.4,1c-.1,0-.4.4-.2-.1.1,0,.1-.1.2-.3l-.2.1c.2-.7.3-.2.5-.6-.3.1-.8.5-.9.3.2-.7.5,0,.5-.7l.2.4c.2-1.1.1.1.4-1-.3-.3-.5.2-.8-.2a7.93,7.93,0,0,0-.4.9c-.8.4.3-1.8-.4-1.1-.3.4-.7,1.2-.7.6l.4-.7c-.3-.2-.6,1-.8.3.2-.3.4-.1.4-.2,0-.7-.3.3-.5.3l.2-.7c-.4-.1-1,.2-1.5.2.1-.2.3-.4.2-.6-.7.1-1.1-.5-1.4-1.1l-.4.5s0-.3.1-.4c-.1-.3-.2.4-.3.5s0-.4.1-.5c-.5.3-1.4.6-1.5-.1l.1-.1c-.2-.3-.8,1-.8.4l.1-.1c-.5-.5-1.4-.3-1.5-1.3-.4.8-.5-.6-1,.5-.1-.7.1-.9-.3-1.4-.1-.1-.5.6-.7.7l.2-.6-.5.5.2-.8-.2.1v.5c-.3.2-.4-.6-.3-1l-.8.3a.78.78,0,0,1,.4-.4c-.5.5.2-.7-.3-.2,0,.2-.2.3-.2.5,0-.4-.3-.5-.6-.5l.2-.4c-.4-.3-1-.1-1.4-.3.1.3-.2,1-.4,1l.2-.7c-.2.4.1.3-.3.7-.1-.1.1-.8.3-.9l-.3.1c.1-.2.1-.3.2-.5-.2.4-.1-.8-.5-.1l.1-.2c-.5-.2-.8,0-1.2-.2-.2.5-.3.4-.6.8-.2-.3-.4-.8-.7-.9-.3.2-.2.4-.5.7.2-.5-.2-.6.1-.9a1.73,1.73,0,0,0-1.2.1.9.9,0,0,1-.1.5c-.1,0-.1-.3,0-.5h0c-.8.5-.8-1.9-1.7-1.1h0l-.7.4c-.2-.2.3-.3.2-.7-.8.7-.8-.4-1.4,0,.2-1.6-1.2-.3-1.4-1.4l-.1.3c-.2.3-.1-.2-.1-.4-.1.3,0,.4-.1.5-1.1.1-1.9-1.2-2.8-1.8-.3-.2-.8,1.8-1,.8l.3-.6c-1,.5-1.5-.5-2.5-.1a1.44,1.44,0,0,0,.2-.3c0-.5-.6-.2-.7.2-.1-.1.1-.4.1-.6s-.6.5-.5,0c0-.1.1-.1.1-.2-.2.2-.5-.2-.5.4-.2-.3-.6.1-.7-.3-.3.6-.4-.4-.7.4.3-.9-.3-.9-.6-.5.1-.3-.1-.3.1-.7-.2,0-.4.1-.5.5-.1-1.2-1,.7-.8-.8a5.34,5.34,0,0,1-2,.5c.3-.9.6.1.9-.9-.6.2-1.1.9-1.6.6-.1-.2.2-.4.3-.5-.6.2-1-.4-1.6,0a.22.22,0,0,1,.2-.2c-.1,0-.2-.2-.3.2l.1-.1c0,.6-.7,1.1-.8,1.5.5-1.1-.4-.4.3-1.8a1.07,1.07,0,0,0-.3.5c-.1-.1,0-.3.1-.6-.4.1-.4.6-.7.5.1-.2.1-.3.2-.5-.3.3-.5.7-.7.5a1,1,0,0,1,.1-.3c-.4-.1-1,.8-1.4.3.4-.8-.1-.3.1-1.1l-.3.2v.4c-.2-.1-.6.4-.7.1l.2-.3h-.4l.2.3c-.3.3-.2,1-.5.7.1-.1-.2-.1-.2-.5h0c-.2.2-.3.4-.5.2a2.93,2.93,0,0,1,.3-1c-.3.6-.6,0-.9.7a1.42,1.42,0,0,0,.2-.6l-.2.5a.63.63,0,0,1,0-.6c-.3-.2-.1,1-.4.5a.31.31,0,0,1,.1-.2c-.3-.3-.8.1-1.1-.2.1-.8.3-.1.4-.8-.5,0-1.2.7-1.6.4l.1.1c-.3,1.1-.2-.6-.6-.2.1-.1.2-.6.2-.5-.3-.2-.7.1-1.3.3l.1-.3c-.1-.3-.5-.3-.6-.4-.1.3-.2.2-.3.6-.3-1.7-1.4.6-1.6-.9.1,0,.2-.2.2-.2l-.3.5c-.1.5,0,.3,0,.7s-.3.4-.4.4a.93.93,0,0,0,.1-1c0,.1-.1.3-.1.4-.1-.9-.3.9-.5.3l.1-.2c-.2.1-.3.4-.5.3.1-.6.2-.2.3-.7-.2,0-.6.9-.7.4.1-.1.2-.1.3-.2,0-.7-.1-.5-.2-.7h0l-.3-.4v.2c-.6,1.4-.5.1-1.1,1,.5-.8.2-.5.3-1.1,0-.2-.1-.4-.1-.6-.3.5-.2-.4-.5.2,0-.2-.2-.1,0-.5-.2.1,0,.4-.1.6-.5.6-.5-1-1.2-.1-.5.3-.7,1-1.1,1.2-.1-.3.2-.7.2-.7-.1-.3-.3-.3-.5-.1a1.08,1.08,0,0,0,.1-.6c-.2,0-.2.7-.4.4.1-.2.2-.6.3-.8-.2.1-.5.5-.7.6,0-.4.2-.5.3-.7a1.27,1.27,0,0,0-.8.7l.1.2c-.1,0,.1-.5.1-.6.3-.4.2.2.2.4l-.2.1c-.1,1.2.5-.1.8,0l-.3.8.4-.6a1.88,1.88,0,0,1-.2.8c.1.5.2-.3.3.2v.1l.2-.2c-.1.2-.1.6-.2.5.2.6.6-.5.6.1h0c.5-.2.2-.6.7-1.3l-.1,1.6.2-.6a.44.44,0,0,1,.1.3c.3-.4,0-.3.2-.7.1.6.7-.1.5.9.2-.5-.1-.4.2-.7-.2,1.1.3-.1.4.4-.2.5-.3.2-.2.7.3-.9.3.3.6.1.2-.7.4-.2.8-.4-.1.2.4.5.6.8V4c.2-.7.5-.5.7-.6a3.39,3.39,0,0,1-.3.8h.2a1.38,1.38,0,0,1,.3-.4l-.2.5c.3,0,.6-.5.9-.1.1-.5.1-1.5.5-1.8a4.65,4.65,0,0,1-.3.9s.2-.2.2-.1l-.2.4c.1.2.2-.4.3-.3-.1.4,0,.3-.1.6,0,0-.1-.2-.1,0a1.17,1.17,0,0,1,.2.7,1.07,1.07,0,0,1,.2-.6c.3,0,0,.5.1.7.1-.3.2.1.4-.5.1,0,0,.3,0,.5.2-.2.6.1.6-.6h0c.6-.5.8.5,1.3.4v.2c.3-.2.6,0,.9-.4.1,0,.1.4,0,.6.2-.1.3-.3.5.1-.3.3,0,.3-.3.2.2.2.2.6.6.1-.2.5,0,.7.2.6l-.1.1a.6.6,0,0,1,.4.1l-.2.7c.3.9,1.3-1.2,1.3.3.3-.4-.2-.4.1-.9.2.1.2,1.2.3,1.2.2.5.5-.9.8-.6,0-.2.1-.9.5-1.1.2.1,0,1.1-.2,1.2s-.1-.1,0-.2c-.1.1-.2.1-.2.4l.1-.2c.1.3.4.3.2.7.2-.2.2-.4.1-.5.2.4.5.1.7.4,0-.1,0-.4.1-.4.4.4.3-.4.6-.4.1.4-.3.9.1.6a.83.83,0,0,1-.3.8c.4-.4.4.4.6.6l-.2.2a.19.19,0,0,1,.3,0V8.4c.1.1.1.1.1.3.2-.3.1-.8.4-1.2,0,.3.4-.2.3.5-.3-.3-.1.6-.5.7.1-.1.1,0,.2.1s0,.1-.1.2c.2.7.4-.7.7-.6-.1.3-.1.7,0,.6-.1,0,.1-.6.3-.8.2.3.3-.1.4-.1l-.1-.2c.1-.3.2-.3.4-.3-.1.3-.2.2-.2.3.3-.6.2.8.6.4,0,.3-.2.7-.1.9.4-.4.2.6.6.3.1-.5,0-.4.3-.8l-.6.2.5-.6c-.1,0-.4.2-.4.1.3-.3.2-.2.2-.6,0,.8.5-.3.6.2l-.5,1c.2.6.8-.4,1.1,0l-.1-.2c.2-.5.3,0,.5-.1a2.81,2.81,0,0,0-.1.8c.1-.3.3.1.6-.7v.6c.3.3.7-1,1-.8-.2.4-.2.7-.5,1,.1,0,.2.1.3-.1,0,.3.5-.4.5,0,.1-.2.2-.6.4-.5a.35.35,0,0,1-.1.2c.1-.2.3-.2.3-.7,0,1.3,1,.2,1,1.4a2.77,2.77,0,0,1,.9-.1c-.1.1-.1.2-.1.1.2.5.5-1.1.8-.6,0,.7-.3.3-.3.6-.3,1.3.5,0,.5.8l-.1.1c0,.5.6-.4.9-.2a.31.31,0,0,1-.1.2,1.93,1.93,0,0,1,1.2-.8c-.2.5-.2.2-.3.8.2,0,.2-.8.5-.9a4.65,4.65,0,0,1,0,1.2h-.2c-.1.7.3.1.4.2l-.1.3c.4,0,.7-.8,1-.6v-.2c.5-.7,0,.5.4,0l-.2.8a8.65,8.65,0,0,1,1-.7,4.71,4.71,0,0,1-1,1,.51.51,0,0,0,.7-.3c-.1.1-.2.2-.2.1.4-.6.7-.8,1-.7-.5,1.5.6.6.4,1.9.7-.4.9.6,1.5.7.2-1.2.2,0,.6-1.2.2,0,.2,0,.2.1l.2.9c0,.4-.2.2-.3.5.3.2-.1.6,0,.9.1-.4.3-.6.4-.4v-.6c.6-.5,0,1.1.6.6l-.3.3c.3-.2.8.3,1.3-.6a1.07,1.07,0,0,1-.2.6c.5.3,1.5-.6,1.7.1l-.1.3c.1-.1.4-.5.4-.2a1,1,0,0,1-.1.3c.1-.1.4-.4.5-.2l-.2.3c.4.6,1-.5,1.5-.6a1.6,1.6,0,0,0,.1,1.5l-.1.1c.5.3,1.2-.4,1.9-.5,0,1.1,1,.8,1.3,1.5,0-.2.3-.7.4-.7.1.2.6-.5.3.3h0c-.2.8.1.7.3.8l.4-1c-.1,1.7,1.6,0,1.3,1.4.2-.2.4-.1.6-.4l-.2.5a1,1,0,0,0,.9.4l-.2.4c.2.1.9-1.5,1.2-1.4l-.3.8c.4.1.6,1,1.3.5a.76.76,0,0,0-.2.4c.2.1.5.9.9-.3-.3.7.4.2.8,0l-.3.5c.5-.6.6-.8.9-.9,0,.1-.1.5-.1.3.1.4.4-.4.5-.1l-.2.3c.2.1.3-.1.5-.4s.4.3.2.8c.2-.3.4-.6.5-.4a1.24,1.24,0,0,1-.2.3c.2.5.8-.4.8.2a.77.77,0,0,0-.1.3,1.41,1.41,0,0,1-.5-.3c-.2.5,0,.7-.5,1.3.3-.3,1-1,1.1-.6v.2h0c0,.1.1,0,.2,0a.35.35,0,0,0,.1.2c-.1.4.2.3.3.4.2-.5.3-.4.4-.9,0,0,0,.1-.1,0h-.1a.37.37,0,0,1-.3-.1c.2-.2.4-.4.4-.1a9.22,9.22,0,0,0,.5-.8c-.2.8,0,1.4-.2,1.8.5-.2.9.2,1.6-.8.2-.1,0,.3,0,.5s-.2,0-.3.2c.3-.2.6.2,1-.5.1.4-.4.6,0,.6l-.1.2c.2,1.4,1.9-1.3,2,.5v-.3c.6,1,2,.2,2.4,1.6.1.3.4-.1.7-.4l-.2.6.5-.5c.6-.3,0,1.7.8,1l.1-.4c.1.1.6,0,.4.4,0-.1.2-.4.2-.1l-.1.3.6-.3c.2.4-.6,1.2-.2,1.4.2,0,.9-.6.9-.9-.1,0-.1-.3.1-.6l.2-.1c.4-.9,1-1.7.9-2.5l-.5.4.1-.5.2.1c.1-.5-.2-.1-.4.1a1.09,1.09,0,0,0,.1-.5l-.6.7c.1-.4.4-.6.3-.9-.3.3-.2.8-.6,1,.1-.5.2-.8-.1-.5.1-.2.2-.4.3-.4-.3.2-.4,0-.7.4.1-.6-.5-.1-.1-.9a1.16,1.16,0,0,1-.7.5c.7-.9-.4-.3.1-1.3-.6.8-.8.1-1.3.5,0-.1.1-.2.2-.1-.1-.1-.1-.4-.1-.7a6.94,6.94,0,0,1-1,1.2c.1-.8.5-.8.8-1.5-.3.6-.6.4-.8,1,0-.5,0-.3.2-.9-.4.9-.2.1-.6.6,0-.6.3-.9,0-.7A.74.74,0,0,1,632.71,17.9Zm-6.5-.9Zm-.5-.2c.1,0,.1.1.2.1-.1.2-.2.4-.2.3S625.71,17,625.71,16.8Zm-.5,4.2c-.1,0-.1-.1-.1-.2h.2v-.1A.37.37,0,0,0,625.21,21Z"/><path class="f" d="M625.61,20.3h0c.1-.1.1-.1.1-.2a.31.31,0,0,0-.1.2Z"/><polygon class="f" points="619.31 13 619.21 13.2 619.31 13.1 619.31 13"/><path class="f" d="M577,1.7l-.2-.3C576.91,1.5,576.91,1.6,577,1.7Z"/><path class="f" d="M576.11,1.2a.35.35,0,0,1-.1.2h0Z"/><path class="f" d="M591.31,4.2Z"/><path class="f" d="M586.51,4.3c.1-.1.1-.2.2-.2C586.61,4,586.61,4,586.51,4.3Z"/><path class="f" d="M586.91,4.2c0-.1-.1-.1-.2-.1C586.81,4.2,586.81,4.2,586.91,4.2Z"/><path class="f" d="M572,.1Z"/><path class="f" d="M571.71.3l.1-.1C571.81.1,571.81.1,571.71.3Z"/><path class="f" d="M573.21.6l.1-.2A.35.35,0,0,0,573.21.6Z"/><path class="f" d="M573.61.6c-.1-.1-.1-.5-.3-.4V.4C573.41.1,573.51.9,573.61.6Z"/><path class="f" d="M574.71,3.5l-.3-.2c0,.2,0,.5-.1.6C574.51,4.5,574.31,3.3,574.71,3.5Z"/><path class="f" d="M575.61,4c-.2.1-.1.3-.1.4C575.61,4.3,575.71,4.2,575.61,4Z"/><path class="f" d="M582.71,5.7l-.1.5C582.71,6.1,582.61,6,582.71,5.7Z"/><polygon class="f" points="584.71 3.3 584.61 3 584.51 3.4 584.71 3.3"/><polygon class="f" points="584.61 7.2 584.51 7.3 584.71 7.1 584.61 7.2"/><path class="f" d="M596.31,10.3l.1-.6S596.11,10.4,596.31,10.3Z"/><path class="f" d="M601.61,11.2c0,.3,0,.6.2.3C601.71,11.4,601.61,11.1,601.61,11.2Z"/><polygon class="f" points="616.11 17.4 615.91 17.6 616.21 17.5 616.11 17.4"/><path class="f" d="M566,49.3c0,.2.2.5.3.4l-.2-.7Z"/><path class="f" d="M567.11,50.3a3.36,3.36,0,0,0-.4-1.5,6,6,0,0,0,.2,1.2c-.1.1-.2-.1-.3-.4,0,.2-.2-.1-.1.3.3.5.5.4.5-.1C567,50,567.11,50.1,567.11,50.3Z"/><path class="f" d="M576.71,48.3l.2.2C576.91,48.3,576.81,48.3,576.71,48.3Z"/><path class="f" d="M567.81,48.2v.2a.1.1,0,0,1,.1-.1C567.81,48.3,567.81,48.3,567.81,48.2Z"/><path class="f" d="M572.41,50.3c.1,0-.1-.6-.2-.8,0,.2.1.4,0,.4A.52.52,0,0,1,572.41,50.3Z"/><path class="f" d="M575.81,49.3a.35.35,0,0,0,.1.2A.31.31,0,0,1,575.81,49.3Z"/><path class="f" d="M602.81,45.3c-.3-.5.2-.7-.1-1.2C602.81,44.3,602.51,45,602.81,45.3Z"/><path class="f" d="M590,47.1a.35.35,0,0,0-.1-.2A.31.31,0,0,0,590,47.1Z"/><path class="f" d="M591.51,46s.1.1.1,0Z"/><path class="f" d="M593.31,45.8v-.1c-.1,0-.1,0,0,.1Z"/><path class="f" d="M626.71,37.9a.9.9,0,0,1,.1.5C626.71,38,627,37.9,626.71,37.9Z"/><path class="f" d="M567.91,48.6c0-.1-.1-.2,0-.3h0Z"/><path class="f" d="M592,41.3c.1.2.2.3.2.4v-.2Z"/><path class="f" d="M628.41,36.8c-.3,0,0,.8,0,1.2-.3.3-.2-.5-.4-.9-.2.2-.2.9-.4.9,0-.1-.1-.2,0-.3-.1.6-.6.1-.8.9,0-.1,0-.1-.1-.2a8.66,8.66,0,0,0,.2,1c-.1,0-.2.5-.3,0,.1,0,.1-.2.1-.4l-.1.2c-.2-.7.1-.3.1-.8-.2.3-.4.9-.6.7-.1-.7.4-.3.1-.9l.3.2c-.4-1.1.2.1-.2-1.1-.4-.2-.4.4-.8.3,0,.4.1.6.1,1-.4.8-.6-1.7-.9-.7,0,.5,0,1.4-.3.9V38c-.4,0-.1,1.2-.5.7,0-.3.3-.3.2-.4-.3-.6-.1.5-.3.5l-.1-.7c-.4.2-.7.7-1.2.9a1.27,1.27,0,0,0-.1-.6c-.5.4-1.2,0-1.7-.3l-.1.6a2.27,2.27,0,0,1-.1-.4c-.2-.2,0,.4,0,.6s-.2-.3-.1-.5c-.3.6-.9,1.2-1.4.6l.1-.2c-.3-.2-.2,1.3-.5.7v-.1c-.7-.2-1.3.4-1.9-.4,0,.9-.7-.3-.6.9-.4-.6-.3-.8-.9-1.2-.1,0-.1.8-.3.9l-.1-.6-.2.7-.2-.8-.1.2c.1,0,.2.3.2.5-.2.3-.7-.4-.7-.7l-.5.6a2,2,0,0,1,.1-.5c-.3.7-.1-.7-.4,0,.1.1,0,.4,0,.5a.45.45,0,0,0-.7-.2v-.4c-.5-.1-.9.3-1.4.3.2.2.2,1,.1,1l-.1-.7c-.1.4.2.2,0,.8-.2-.1-.2-.8-.1-1l-.2.3V39c-.1.4-.5-.6-.5.1v-.2c-.5,0-.7.3-1.1.4,0,.6-.1.5-.2,1-.3-.2-.7-.6-1-.5-.2.3,0,.5-.1.9-.1-.5-.4-.4-.3-.8a2.19,2.19,0,0,0-1,.6c.1.2.2.3.1.5s-.2-.2-.3-.5v-.1c-.5.9-1.6-1.4-1.9-.3V40l-.4.6c-.2-.1.1-.4-.1-.7-.5.9-.9,0-1.3.6-.5-1.5-1.2.2-1.8-.7l.1.4c-.1.4-.2-.2-.3-.3,0,.3.2.3.1.5-1,.5-2.2-.3-3.3-.5-.4-.1,0,1.9-.6,1.1l.1-.7c-.7.9-1.6.2-2.3,1,0-.2,0-.4.1-.4-.2-.5-.6.1-.5.5-.1,0-.1-.4-.2-.6s-.3.7-.5.2v-.2c-.1.3-.5,0-.3.6-.3-.2-.5.3-.8,0-.1.7-.5-.2-.4.7-.1-.9-.6-.7-.7-.2,0-.3-.2-.3-.2-.7-.2,0-.4.2-.3.7-.6-1.1-.6,1-1.1-.4a4.84,4.84,0,0,1-1.6,1.3c-.1-.9.6-.2.4-1.2-.5.5-.6,1.3-1.2,1.2-.2-.1,0-.4,0-.6-.5.5-1,.1-1.4.7a.37.37,0,0,1,.1-.3c-.1,0-.2-.1-.1.3l.1-.1c.3.6-.1,1.3-.1,1.7-.1-1.2-.5-.2-.5-1.8a1.15,1.15,0,0,0,0,.6c-.1-.1-.2-.2-.1-.6-.3.3-.1.7-.4.8V43c-.1.4-.1.8-.4.7,0-.1-.1-.3,0-.3-.4.1-.5,1.2-1.1.9,0-.9-.2-.3-.4-1l-.2.3.2.3c-.2,0-.3.6-.5.4l.1-.3-.4.2.3.2c-.1.4.2,1-.1.8,0-.1-.2,0-.4-.4h0c-.1.3-.1.5-.3.4a3.55,3.55,0,0,1-.2-1c0,.7-.5.3-.5,1a3.54,3.54,0,0,0-.1-.6v.5a.59.59,0,0,1-.2-.5c-.3,0,.3.9-.1.6V45c-.4-.1-.6.5-1,.3-.3-.7.2-.3,0-.9-.5.2-.8,1.1-1.3,1.1l.1.1c.2,1.1-.5-.4-.6.1a2,2,0,0,0-.1-.5c-.4-.1-.6.4-1,.9v-.3c-.3-.2-.5,0-.8-.1,0,.3-.1.3.1.7-1.1-1.4-1,1.1-1.9,0,.1,0,.1-.3,0-.3l-.4.4a3.33,3.33,0,0,0,.3.6c0,.3,0,.5-.2.6.1-.4-.2-.7-.4-1a.6.6,0,0,1,.1.4c-.5-.7.2.9-.3.5l-.1-.2c-.1.2-.1.5-.3.5-.2-.5.1-.3-.1-.7-.2.1-.1,1.1-.4.6,0-.2.1-.2.2-.4-.4-.6-.4-.4-.5-.5h0l-.4-.2.1.1c.2,1.5-.4.4-.4,1.4,0-.9-.1-.5-.3-1.1a.85.85,0,0,1-.3-.5c0,.5-.4-.3-.4.5-.1-.2-.2,0-.3-.5-.1.2.2.3.2.6-.1.7-1-.5-1.1.5-.2.5-.1,1.2-.3,1.6a1.43,1.43,0,0,1-.2-.7c-.3-.2-.4-.1-.5.2,0-.2-.1-.3-.2-.5-.1.1.2.7-.1.5,0-.2-.1-.6-.1-.8-.1.2-.1.6-.2.9-.2-.3-.1-.5-.1-.8a1,1,0,0,0-.2,1l.2.1c-.1.1-.2-.4-.2-.6,0-.5.3.1.4.3l-.1.2c.5,1.1.4-.4.7-.4l.2.8v-.8a2.61,2.61,0,0,1,.3.8c.3.3,0-.3.4,0v.1l.1-.3c0,.2.2.6.1.5.5.4.3-.8.6-.2v.1c.3-.4-.2-.6-.1-1.4l.7,1.4-.2-.6c.1,0,.2,0,.2.3,0-.5-.1-.3-.2-.7.4.5.5-.4.9.5-.1-.5-.3-.3-.2-.7.4,1,.2-.3.6.2.1.6-.2.3.2.7-.2-.9.4.1.5-.1-.2-.7.3-.4.5-.7.1.2.6.2,1,.4v.1c-.2-.7.1-.7.3-.9a3.08,3.08,0,0,1,.1.9l.2-.1a.75.75,0,0,1,.1-.5l.1.6c.2-.1.3-.8.7-.5-.1-.5-.7-1.4-.4-1.8a3.71,3.71,0,0,1,.2.9s0-.3.1-.2V48c.2.2,0-.4.1-.4.1.4.2.3.2.6,0,0-.1-.1-.1,0a.79.79,0,0,1,.5.5,1.49,1.49,0,0,1-.1-.6c.2-.1.2.5.4.6,0-.3.2,0,.1-.6.1,0,.2.3.2.4.1-.3.6-.2.3-.8h0c.3-.7.9.1,1.3-.3l.1.2c.2-.3.5-.3.6-.8.1,0,.3.3.3.6.1-.2.1-.4.5-.2-.1.4.1.3-.1.3.3.1.4.4.5-.2,0,.5.3.6.4.4l-.5.3c.1-.1.2-.1.4-.1l.1.7c.7.7.6-1.6,1.3-.3,0-.5-.3-.3-.3-.9.3,0,.7,1,.8.9.4.3.1-1.1.5-.9-.1-.2-.3-.9-.1-1.1.2,0,.5.9.4,1.2-.1,0-.1,0-.1-.1-.1.1-.1.2,0,.5v-.2c.2.2.5.1.5.5.1-.3,0-.4-.2-.5.4.3.5-.1.8.1-.1-.1-.2-.4-.1-.4.5.2.1-.5.4-.7.2.3.1.9.4.5a.78.78,0,0,1,.1.8c.2-.5.6.2.7.3l-.1.2.2-.2-.2-.5c.1.1.2.1.2.3a4.89,4.89,0,0,1-.1-1.3c.2.2.3-.3.5.3-.4-.2.2.6-.1.8,0-.1.1-.1.2,0v.2c.4.5,0-.8.4-.8,0,.4.2.7.3.6-.1,0-.2-.6-.1-.9.3.2.2-.3.3-.2l-.2-.1c0-.4.1-.3.2-.5.1.3-.1.2,0,.3.1-.7.5.6.7.1.2.2.1.7.3.8.2-.5.4.4.6,0-.2-.5-.2-.4,0-.9l-.4.4.2-.8c-.1,0-.3.4-.4.3.1-.4.1-.3-.1-.7.3.7.3-.5.6,0l.2,1.2c.4.5.5-.7,1-.5l-.2-.2c0-.5.3-.1.4-.3a6.89,6.89,0,0,0,.3.8c-.1-.3.3,0,.2-.8l.3.5c.4.2.2-1.2.6-1.1,0,.5.2.7,0,1.1.1,0,.2,0,.2-.2.1.2.2-.6.4-.2,0-.2,0-.6.1-.6v.2c0-.2.2-.3,0-.7.5,1.2,1-.2,1.5.8a2,2,0,0,1,.8-.4v.2c.4.3,0-1.2.5-.8.3.6-.1.4,0,.6.2,1.3.4-.2.8.5v.1c.2.4.4-.6.7-.5v.2a1.61,1.61,0,0,1,.8-1.2c0,.5-.1.3,0,.8.1-.1-.1-.9.1-1a4.33,4.33,0,0,1,.4,1.1l-.2.1c.2.7.3-.1.5,0v.3c.4-.2.3-1,.7-1l-.1-.2c.1-.8.2.4.4-.2l.2.8c.1-.2.4-.9.7-1a10.87,10.87,0,0,1-.5,1.4.52.52,0,0,0,.5-.5c0,.1-.1.3-.2.2.1-.7.3-1,.6-1,.1,1.6.8.3,1.2,1.5.5-.6,1.1.1,1.6,0-.3-1.2.2-.1,0-1.3.1-.1.2-.1.2,0l.5.7c.1.4-.1.3-.1.6.3.1.2.5.4.8-.1-.4,0-.7.2-.5l-.3-.6c.4-.7.5,1,.8.3l-.1.4c.2-.3.8-.1.9-1.1.1.1.1.5.1.6.5.1,1.1-1.2,1.6-.6v.3c.1-.1.1-.6.3-.3v.3c0-.1.2-.6.4-.4l-.1.4c.6.4.7-.9,1.1-1.2.1.9.5,1.2.7,1.3v.1c.6.1,1-.9,1.5-1.3.4,1,1.2.3,1.8.8a1.1,1.1,0,0,1,0-.8c.1.2.3-.7.4.2h0c.2.8.4.6.6.6l-.1-1.1c.7,1.5,1.4-.7,1.8.7.1-.3.3-.3.4-.6l.1.6c.4.1.6.2,1,0l-.1.4c.3,0,.2-1.7.4-1.8l.2.9c.4-.1,1,.7,1.3-.2,0,.1,0,.4-.1.4.2,0,.9.5.7-.7.1.8.5,0,.7-.3v.6c.1-.8.1-1,.4-1.2.1.1.1.5,0,.3.3.3.1-.6.4-.3l-.1.4c.2,0,.2-.2.3-.6.1-.2.5.1.5.6,0-.3.1-.8.2-.6v.4c.4.4.5-.7.8-.2a.44.44,0,0,0,.1.3h-.5a2.76,2.76,0,0,1,.2,1.4c.2-.4.4-1.3.7-1.1,0,.1,0,.1.1.2v.1c.1,0,.1,0,.1-.1.1.1.1.1.2.1.1.4.3.2.4.2-.1-.6.1-.5-.1-1a.1.1,0,0,1-.1.1v0c-.1,0-.2.1-.3.1.1-.3.1-.6.3-.3a2.79,2.79,0,0,1,.1-1,15.62,15.62,0,0,1,.7,1.7c.3-.4.9-.3,1-1.4.1-.2.2.3.2.5s-.1.1-.1.3c.2-.3.6-.2.6-1,.3.3-.1.7.3.5v.2c.9,1.1.9-2.1,2-.6-.1-.1-.1-.1-.1-.3,1,.6,1.8-.9,2.9.1.3.2.3-.3.4-.7l.1.6.2-.8c.3-.6.9,1.4,1.2.4l-.1-.4c.2.1.5-.3.6.2,0-.1,0-.4.1-.2l.1.3.3-.6c.4.2.2,1.3.7,1.3a1.8,1.8,0,0,0,.3-1.2c-.1,0-.2-.2-.3-.5l.1-.2a5,5,0,0,0-.7-2.6l-.2.6-.2-.4-.1-.5c-.2-.4-.2,0-.3.3-.1-.2-.1-.4-.2-.5l-.1,1c-.1-.4,0-.8-.2-.9-.1.4.3.8.1,1.1-.2-.4-.2-.8-.3-.4a.45.45,0,0,1,0-.5c-.1.3-.3.2-.3.7-.2-.5-.4.2-.6-.7,0,.2-.1.7-.3.8.1-1.1-.5,0-.6-1.2,0,1-.6.5-.8,1.1,0-.1,0-.2.1-.2a1,1,0,0,1-.4-.5c.1.8-.2,1-.2,1.5-.3-.7,0-1-.2-1.7.1.7-.3.7-.1,1.2-.2-.5-.2-.2-.3-.9.1,1-.1.2-.2.8-.3-.5-.2-.9-.4-.6C628.21,37.2,628.41,36.8,628.41,36.8Zm-5.9,2.6h0c.1,0,.1,0,.1-.1Zm-.5,0h.2v.4C622.21,39.7,622.11,39.6,622,39.4Zm1.6,3.9c-.1.1-.1,0-.1-.1a.1.1,0,0,0,.1-.1v.2Z"/><polygon class="f" points="614.71 39.1 614.71 39.2 614.81 39.1 614.71 39.1"/><path class="f" d="M573.31,47.1a.1.1,0,0,0-.1-.1A.1.1,0,0,1,573.31,47.1Z"/><path class="f" d="M572.11,47.3l-.2-.1C571.91,47.3,572,47.3,572.11,47.3Z"/><path class="f" d="M571,47.3c0,.1,0,.2.1.2h0Z"/><path class="f" d="M585.91,43h0C586,42.8,586,42.9,585.91,43Z"/><path class="f" d="M581.71,45.2a.37.37,0,0,1,.1-.3C581.71,44.9,581.61,44.9,581.71,45.2Z"/><path class="f" d="M582,44.9c-.1-.1-.2-.1-.2,0A.14.14,0,0,0,582,44.9Z"/><path class="f" d="M567,48.5h0c-.1,0-.1.1,0,0Z"/><path class="f" d="M566.91,48.8l.1-.2C566.91,48.7,566.81,48.7,566.91,48.8Z"/><path class="f" d="M568.31,48.3l-.1-.2A.31.31,0,0,0,568.31,48.3Z"/><path class="f" d="M568.61,48.1c-.1,0-.4-.3-.5-.2v.2C568.21,47.8,568.71,48.5,568.61,48.1Z"/><path class="f" d="M571,50a.76.76,0,0,1-.4-.1c.1.2.3.5.2.6C571.41,51.1,570.61,50.1,571,50Z"/><path class="f" d="M572,50.1c-.1.2.1.3.1.4C572.21,50.3,572.21,50.2,572,50.1Z"/><path class="f" d="M578.91,48.1l.1.5C579.11,48.5,579,48.4,578.91,48.1Z"/><polygon class="f" points="579.61 45.1 579.41 44.8 579.51 45.3 579.61 45.1"/><polygon class="f" points="581.31 48.6 581.21 48.7 581.41 48.5 581.31 48.6"/><path class="f" d="M593,46.3l-.1-.6C592.81,45.8,592.91,46.5,593,46.3Z"/><path class="f" d="M598.11,45c.1.3.3.5.3.2C598.31,45.1,598.11,44.9,598.11,45Z"/><polygon class="f" points="613.81 44.4 613.71 44.6 613.91 44.4 613.81 44.4"/><path class="f" d="M631,58.4c0-.2-.2-.6-.2-.5l.2.7Z"/><path class="f" d="M630,57.4a3.36,3.36,0,0,0,.4,1.5,6,6,0,0,0-.2-1.2c.1-.1.2.2.3.4,0-.2.2.1.1-.3-.3-.5-.4-.4-.4,0C630,57.7,630,57.6,630,57.4Z"/><path class="f" d="M621.21,59.5l-.2-.2C621,59.5,621.11,59.4,621.21,59.5Z"/><path class="f" d="M629.41,59.4v-.1C629.31,59.4,629.41,59.4,629.41,59.4Z"/><path class="f" d="M625,57.4s.1.5.2.8c-.1-.2-.1-.4,0-.4C625.11,57.6,625.11,57.5,625,57.4Z"/><path class="f" d="M622,58.4a.35.35,0,0,0-.1-.2C621.91,58.3,621.91,58.4,622,58.4Z"/><path class="f" d="M575.41,87.3h0c0-.1-.1-.2-.2-.3Z"/><path class="f" d="M598.21,68c.4.4.1.7.6,1.1C598.61,68.9,598.51,68.2,598.21,68Z"/><path class="f" d="M609.11,62.6a.35.35,0,0,0,.1.2C609.21,62.7,609.21,62.7,609.11,62.6Z"/><path class="f" d="M608,64c-.1,0-.1-.1-.1,0Z"/><path class="f" d="M606.51,64.6c0,.1.1.1,0,0,.1.1.1.1.1,0Z"/><path class="f" d="M582.81,85.2c-.1-.1-.3-.2-.4-.4C582.71,85.2,582.61,85.5,582.81,85.2Z"/><path class="f" d="M629.31,59.1c0,.1.1.2,0,.3h0Z"/><path class="f" d="M608.91,68.6q-.15-.3-.3-.3v.1Z"/><path class="f" d="M581.91,87.1c.2-.1-.4-.7-.6-1.1.1-.4.5.4.8.6,0-.3-.3-.9-.2-1a.77.77,0,0,1,.2.3c-.2-.6.4-.4.1-1.1a.1.1,0,0,1,.1.1c-.3-.3-.5-.6-.7-.8.1-.1-.1-.5.2-.1-.1,0,.1.2.1.3v-.2c.5.5,0,.3.4.7,0-.3-.1-1,.1-.9.5.5-.2.4.4.8h-.4c.9.7-.2,0,.7.9.4-.1.1-.5.5-.6-.2-.4-.4-.4-.6-.8-.1-.9,1.4,1.1,1.1.2-.2-.4-.8-1.1-.3-.9l.4.7c.3-.2-.6-1,0-.8.2.3,0,.4.1.4.6.3-.2-.5,0-.6l.5.5c.2-.3.2-1,.4-1.3a1,1,0,0,0,.4.5c.2-.6.9-.6,1.5-.6l-.3-.6.3.3c.3.1-.2-.3-.3-.5.1-.1.3.2.4.4-.1-.6,0-1.5.7-1.2l.1.2c.4,0-.6-1.2,0-.9v.1c.6-.2.8-1,1.7-.6-.5-.7.7,0,0-1,.6.3.7.5,1.3.6.1,0-.3-.7-.3-.9l.4.5-.2-.7.5.5v-.2c-.1,0-.3-.2-.4-.3,0-.4.7,0,.9.3l.1-.8c.1.2.1.3.2.5-.2-.7.4.5.3-.1-.1-.1-.2-.3-.3-.4a.43.43,0,0,0,.7-.2l.2.4c.4-.1.6-.6.9-.9-.2-.1-.7-.7-.6-.9l.4.5c-.2-.4-.3-.1-.4-.7.2,0,.5.6.6.8v-.3a1.33,1.33,0,0,0,.3.5c-.2-.4.7.4.4-.3l.1.2c.4-.2.4-.5.7-.8-.3-.5-.1-.5-.3-.9.3,0,.8.2,1.1,0,0-.4-.2-.5-.3-.8.3.4.5.2.6.6.3-.3.3-.4.5-1-.2-.2-.3-.2-.3-.4s.3.1.4.3v.1c.1-1,1.9.7,1.7-.5v.1l.1-.7c.2,0,.1.4.4.6,0-1,.7-.3.8-1,1,1.2.9-.6,1.8,0l-.2-.3c-.1-.4.2.1.3.2-.1-.2-.3-.2-.3-.4.6-.8,1.9-.4,2.9-.5.3-.1-.7-1.8.1-1.2l.2.7c.3-1,1.3-.6,1.6-1.5,0,.2.1.3.1.4.3.4.5-.2.3-.6.1,0,.2.3.3.5.3.2.1-.7.3-.3v.2c0-.3.4-.1.1-.6.3.1.3-.4.7-.2-.1-.6.5.1.2-.7.4.9.7.5.7,0,.1.3.2.2.4.6.2-.1.2-.3,0-.7.8.9.3-1.1,1,.1a4.88,4.88,0,0,1,1-1.6c.4.9-.5.3-.1,1.2.3-.5.2-1.4.7-1.4.2.1.1.4.1.6.3-.5.9-.3,1.1-.9v.3c.1-.1.2.1.1-.3v.1c-.4-.5-.2-1.3-.3-1.6.3,1.2.5.1.9,1.6a1.76,1.76,0,0,0-.1-.6c.1,0,.2.2.2.5.2-.3-.1-.7.2-.8a.9.9,0,0,1,.1.5c0-.4,0-.9.2-.8a1,1,0,0,0,.1.3c.3-.2.2-1.2.8-1,.2.9.2.2.6.9l.1-.3-.2-.3c.2-.1.2-.7.4-.5v.4l.3-.3-.3-.2c0-.4-.4-.9,0-.8,0,.1.2-.1.5.3h0c0-.3,0-.5.2-.4s.3.8.4,1c-.1-.6.4-.3.2-1,0,.2.2.5.2.6l-.1-.5a1.07,1.07,0,0,1,.3.5c.3,0-.4-.9,0-.6V63c.4.1.5-.5.9-.4.4.7-.2.3.1.9.4-.3.5-1.2,1-1.2l-.1-.1c-.3-1.1.5.4.5-.2a2,2,0,0,0,.1.5c.3.1.5-.5.8-.9v.3c.3.2.5,0,.7,0,0-.3.1-.3-.1-.6,1.1,1.3.7-1.2,1.7-.1-.1,0-.1.3,0,.3l.3-.4a3.11,3.11,0,0,0-.4-.6c0-.3,0-.5.1-.6-.1.4.3.7.4.9a.6.6,0,0,1-.1-.4c.5.7-.3-.9.2-.5l.1.2c.1-.2.1-.5.2-.5.2.5,0,.3.1.7.2-.1,0-1.1.3-.6,0,.2-.1.2-.1.4.4.6.3.4.5.4h0l.4.2-.1-.1c-.3-1.4.3-.4.3-1.4,0,.9.1.5.3,1.1a.85.85,0,0,1,.3.5c0-.5.4.3.3-.5.1.2.1,0,.3.5.1-.2-.2-.3-.2-.6,0-.7.9.6,1-.5.2-.5,0-1.2.2-1.6a1.43,1.43,0,0,1,.2.7c.3.2.4.1.5-.1,0,.2.1.3.2.5.1-.1-.2-.7.1-.5,0,.2.1.6.1.8.1-.2.1-.6.2-.9.2.3.1.5.1.8a1.36,1.36,0,0,0,.2-1l-.2-.1c.1,0,.2.4.2.6,0,.5-.3-.1-.4-.3l.1-.2c-.5-1.1-.4.3-.6.3l-.2-.8v.8c-.1-.2-.3-.6-.2-.8-.3-.3,0,.3-.3-.1v-.1l-.1.3c0-.2-.2-.6-.1-.5-.4-.4-.2.8-.6.2v-.1c-.3.4.2.6.1,1.4l-.7-1.4.2.6s-.1,0-.2-.3c0,.5.1.3.2.7-.4-.5-.4.4-.8-.5.1.5.3.3.2.7-.4-1-.2.3-.5-.1-.1-.5.1-.3-.2-.7.2.9-.4-.1-.5.1.2.7-.2.4-.4.7-.1-.2-.6-.2-.9-.4v-.1c.2.7-.1.7-.2.9a4.5,4.5,0,0,1-.2-.8l-.2.1V59l-.2-.6c-.2.1-.2.8-.6.5.2.5.7,1.3.6,1.8a4.71,4.71,0,0,1-.3-.9s0,.3-.1.2v-.5c-.2-.2.1.4,0,.4-.1-.4-.2-.2-.3-.6,0,0,.1.1.1,0a.79.79,0,0,1-.5-.5c.1.2.2.5.1.6s-.2-.4-.4-.6c0,.3-.2.1,0,.6-.1,0-.2-.2-.3-.4,0,.3-.5.3-.1.8h0c-.2.7-.9,0-1.2.3l-.1-.2c-.1.3-.4.3-.4.8-.1,0-.3-.3-.3-.5-.1.2,0,.4-.4.2,0-.4-.2-.3.1-.3-.3-.1-.4-.4-.5.2-.1-.5-.4-.6-.4-.4l.3.3a.37.37,0,0,1-.3.1l-.2-.7c-.7-.6-.3,1.6-1.1.5.1.5.4.2.5.8-.2,0-.8-.9-.9-.8-.4-.3.1,1-.3.9.1.2.4.8.3,1.1-.2,0-.6-.9-.6-1.1a.1.1,0,0,1,.1.1.52.52,0,0,0-.1-.5l.1.2c-.2-.2-.5-.1-.5-.5-.1.3.1.4.2.5-.4-.2-.4.2-.8,0a1.42,1.42,0,0,1,.2.4c-.5-.1,0,.5-.2.7-.3-.3-.3-.9-.4-.5a.91.91,0,0,1-.3-.8c-.1.5-.6-.1-.7-.1l.1-.2a.22.22,0,0,1-.2.2l.3.4c-.1-.1-.2,0-.2-.2,0,.3.4.7.4,1.2-.2-.2-.2.4-.5-.2.4.1-.3-.6-.1-.8,0,.1-.1.1-.2.1v-.2c-.5-.4.1.7-.2.9-.1-.4-.3-.6-.4-.5.1,0,.3.5.3.9-.3-.2-.1.3-.3.3l.2.1c.1.4,0,.4-.1.5-.1-.3.1-.2,0-.3.1.7-.6-.5-.7,0a3,3,0,0,1-.4-.8c-.1.5-.5-.4-.6.1.3.4.2.3.2.8l.3-.5v.8c.1,0,.1-.4.3-.4,0,.4,0,.3.2.7-.5-.6-.2.5-.6.2l-.5-1.1c-.5-.4-.3.8-.8.7l.2.1c.1.5-.2.2-.3.4-.2-.4-.3-.5-.4-.7.1.3-.3.1,0,.9l-.4-.4c-.4-.1.1,1.2-.2,1.2a5.39,5.39,0,0,1-.3-1c-.1,0-.2,0-.1.3-.2-.2-.1.6-.3.3,0,.2.2.6.1.6a.35.35,0,0,0-.1-.2c.1.2-.1.3.2.7-.8-1-.8.5-1.5-.4-.2.2-.4.5-.6.6,0-.1-.1-.2,0-.2-.4-.2.3,1.1-.2.9-.4-.5,0-.4-.2-.6-.6-1.2-.3.3-.8-.3v-.1c-.4-.3-.2.6-.5.7a.31.31,0,0,0-.1-.2,1.83,1.83,0,0,1-.3,1.4c-.2-.5,0-.3-.3-.8-.1.1.4.8.3,1a2.33,2.33,0,0,1-.7-.9l.2-.1c-.4-.6-.3.2-.4.1l-.1-.3c-.3.3.1,1-.3,1.1l.1.2c.2.8-.4-.3-.3.3l-.4-.7a6,6,0,0,1-.2,1.2,3.27,3.27,0,0,1,0-1.4.68.68,0,0,0-.3.7c0-.1,0-.3.1-.2.1.7.1,1-.1,1.1-.7-1.4-.8,0-1.6-1-.1.8-1,.2-1.4.6.8,1-.1.1.5,1.2-.1.1-.1.1-.2.1l-.7-.5c-.3-.3,0-.3-.2-.5-.3.1-.4-.4-.7-.6.3.4.2.6,0,.5l.5.4c0,.8-.8-.8-.9,0l-.1-.4c-.1.3-.7.4-.3,1.4a1.33,1.33,0,0,1-.3-.5c-.5.1-.4,1.5-1.1,1.2l-.1-.3c0,.1.2.6-.1.4-.1-.1-.1-.3-.2-.3s.1.6-.1.5l-.1-.4c-.6-.1-.2,1.1-.4,1.5-.5-.8-1-.8-1.2-.8l-.1-.1c-.6.2-.4,1.2-.6,1.8-.8-.6-1.2.3-1.9.1a1.27,1.27,0,0,1,.4.7c-.2-.1.1.7-.4,0h0c-.6-.6-.6-.3-.8-.2l.6.9c-1.4-1-.7,1.3-1.8.3.1.3-.1.4,0,.7l-.4-.5c-.4.1-.6.1-.8.5l-.2-.4c-.2.1.8,1.5.7,1.7l-.6-.6c-.3.3-1.1-.1-1,.8a.76.76,0,0,1-.2-.4c-.2.1-1,0-.1.9-.5-.6-.4.2-.3.6l-.3-.5c.3.7.5.8.4,1.2-.1,0-.3-.3-.2-.3-.4-.1.2.5-.2.5l-.2-.3c-.2.1-.1.2.1.7,0,.3-.4.1-.8-.2.2.3.4.7.2.6a1.44,1.44,0,0,1-.2-.3c-.5-.1,0,.9-.5.6-.1-.1-.2-.2-.3-.2.2-.2.4-.3.4-.2-.3-.4-.6-.3-.9-1,.1.4.4,1.3.1,1.2l-.1-.1v-.1c-.1,0-.1.1-.1.2h-.2c-.3-.3-.4,0-.5,0,.4.4.2.5.6.7v-.2h0c0-.1.1-.1.2-.2.1.3.2.5-.1.4.2.3.4.7.5.8-.6-.5-1.2-.7-1.5-1-.1.5-.5.7,0,1.7,0,.2-.3-.2-.4-.3v-.3c0,.3-.4.5.1,1.1-.4-.1-.3-.6-.5-.3l-.1-.2c-1.3-.5.4,2.2-1.2,1.4.1,0,.1.1.2.2-1.1,0-1,1.6-2.3,1.2-.3,0-.1.4,0,.8l-.4-.5.2.7c0,.6-1.4-.9-1.2.1l.3.3c-.2,0-.3.5-.5.1,0,.1.2.4,0,.2L576,86v.7c-.4,0-.6-1.1-1-1a1.68,1.68,0,0,0,.3,1.2c.1,0,.2.1.4.4v.2c.5.8.9,1.8,1.5,2.1l-.1-.6.3.4-.2.1c.3.3.2-.1.2-.3.1.2.3.3.4.4l-.3-.9c.2.3.3.7.6.8-.1-.4-.6-.7-.5-1,.3.3.5.6.4.2a.55.55,0,0,1,.2.5c0-.3.2-.3,0-.8.4.4.3-.4.8.4-.1-.2-.2-.7-.1-.8.4,1,.4-.2,1,.8-.4-.9.3-.7.2-1.3,0,.1.1.2,0,.2.2,0,.4.2.6.3a2.64,2.64,0,0,1-.5-1.5c.6.5.5.8,1,1.4-.4-.5-.1-.7-.5-1.1a3.19,3.19,0,0,1,.7.6c-.6-.8,0-.2-.3-.8.5.3.6.7.6.3S581.91,87.1,581.91,87.1Zm3.4-5.1h0c0,.1,0,.1-.1.1C585.31,82.1,585.31,82.1,585.31,82Zm.4-.3c-.1,0-.1.1-.2.1s-.3-.3-.2-.3S585.51,81.6,585.71,81.7Zm-3.4-2.5c0-.1.1,0,.2,0a.1.1,0,0,1-.1.1v.1A.35.35,0,0,1,582.31,79.2Z"/><path class="f" d="M582.71,79.9h0a.1.1,0,0,0,.1.1l-.1-.1Z"/><path class="f" d="M621.21,59.5h0C621.31,59.6,621.31,59.5,621.21,59.5Z"/><path class="f" d="M591.41,78.5l-.1-.2Z"/><path class="f" d="M624.41,60.5a.1.1,0,0,0,.1.1Z"/><path class="f" d="M625.51,60.2l.2.1C625.61,60.3,625.61,60.3,625.51,60.2Z"/><path class="f" d="M626.51,60.2c0-.1,0-.2-.1-.2h0Z"/><path class="f" d="M617.11,63v.3S617.21,63.3,617.11,63Z"/><path class="f" d="M616.91,63.3c.1.1.2,0,.2-.1C617,63.3,616.91,63.2,616.91,63.3Z"/><path class="f" d="M628.91,59.3l.1.2A.31.31,0,0,0,628.91,59.3Z"/><path class="f" d="M628.61,59.5c.1,0,.3.4.4.2v-.2C629,59.9,628.61,59.2,628.61,59.5Z"/><path class="f" d="M626.41,57.5l.3.1c-.1-.2-.3-.5-.2-.6C625.91,56.5,626.81,57.5,626.41,57.5Z"/><path class="f" d="M625.41,57.5c.1-.2-.1-.3-.1-.4C625.21,57.3,625.21,57.4,625.41,57.5Z"/><path class="f" d="M619.11,59.8l-.2-.5C618.91,59.4,619,59.5,619.11,59.8Z"/><polygon class="f" points="618.91 62.8 619.21 63.1 619.01 62.6 618.91 62.8"/><polygon class="f" points="616.91 59.5 616.91 59.5 616.81 59.7 616.91 59.5"/><path class="f" d="M606.51,64.1l.3.6C606.91,64.5,606.61,63.8,606.51,64.1Z"/><path class="f" d="M602.41,66.8c-.2-.3-.4-.4-.3-.1C602.21,66.7,602.41,66.9,602.41,66.8Z"/><polygon class="f" points="589.31 73.5 589.31 73.2 589.21 73.5 589.31 73.5"/><path class="f" d="M651.81,45.3c.2,0,.5-.2.3-.5l-.7.1Z"/><path class="f" d="M652,43c-.5-.1-1.2-.2-1.6.3.7,0,.5.2,1.4.2a.35.35,0,0,1-.2.6c.2,0,.1.5.5.4.3-.6.1-1-.6-1.3A.65.65,0,0,1,652,43Z"/><path class="f" d="M656.91,36.4l-.2-.2A.22.22,0,0,1,656.91,36.4Z"/><path class="f" d="M670.81,25.1a.31.31,0,0,0-.1.2C670.81,25.2,670.91,25.1,670.81,25.1Z"/><path class="f" d="M656.91,36.4c.2.1.4.3.6.4C657.61,36.5,657.21,36.5,656.91,36.4Z"/><path class="f" d="M648.71,40.1c.1.1.2.1.3.2l-.2-.2Z"/><path class="f" d="M651.91,33.3h0a.76.76,0,0,0,.1.4C651.91,33.6,651.91,33.5,651.91,33.3Z"/><path class="f" d="M649.81,32.5s-.2-.3-.5-.7-.6-.9-.8-1.2c.4.6.6.9.7,1.1A3.73,3.73,0,0,1,649.81,32.5Z"/><path class="f" d="M650.31,37.9l.1.1Z"/><path class="f" d="M642.51,56h0c0-.2-.1-.3-.2-.3Z"/><path class="f" d="M672.71,26.6h0C672.61,26.5,672.61,26.6,672.71,26.6Z"/><path class="f" d="M673.81,50.8c.6.4-.8.8.1,1.2C673.91,51.8,674.61,51,673.81,50.8Z"/><path class="f" d="M648.71,39.9c0-.1-.1-.1-.1-.2A.35.35,0,0,0,648.71,39.9Z"/><path class="f" d="M670.11,38.1c.1,0,.2-.1.3-.2C670.31,37.9,670.21,37.9,670.11,38.1Z"/><path class="f" d="M673.31,28.8l-.1.2C673.21,28.9,673.31,28.9,673.31,28.8Z"/><path class="f" d="M673.81,43.8c.2.1.2.2.5.2a.1.1,0,0,0-.1-.1A.76.76,0,0,1,673.81,43.8Z"/><path class="f" d="M679.11,45.1c0-.1,0-.1-.1-.1h-.2Z"/><path class="f" d="M645.21,50.8a1.42,1.42,0,0,1,.6.2C645.41,50.8,645.81,50.1,645.21,50.8Z"/><path class="f" d="M649,40h-.3a.1.1,0,0,0,.1.1A.35.35,0,0,0,649,40Z"/><path class="f" d="M675.71,39.5h0c.1.1.3.1.4.2-.1-.1-.2-.1-.4-.2Z"/><path class="f" d="M659.51,64.6l-.1-.3A.37.37,0,0,0,659.51,64.6Z"/><path class="f" d="M678.61,40.2a1,1,0,0,0,.4.5l.1-.1Z"/><path class="f" d="M648.21,46c-.5.6.3.8.6,1.2-.4.9-.7,0-1.2,0-.2.6,0,1.4-.3,1.7-.1-.1-.2,0-.3-.2.1.9-1.2,1.4-1,2.5-.1,0-.2,0-.2-.1a3.49,3.49,0,0,1,.9.6c-.1.1-.1.3-.2.5s-.1.2-.4.1a.37.37,0,0,0,.1-.3.35.35,0,0,0-.1-.2V52c0,.1,0,.2-.1.2-.4-.1-.4-.2-.2-.4s.2-.3,0-.5a3.29,3.29,0,0,1-.3.6c-.1.2-.2.5-.3.7a3,3,0,0,1-.7,1.1c-.9,0,1-1.5-.4-.9l1.1-.9c-.8.1-.7,0-.5-.2s.3-.4-.5-.3a6.14,6.14,0,0,0-1.4,1.7,5.3,5.3,0,0,1-1.3,1.6c.1.2.3.1.5.1a1.27,1.27,0,0,1,.6.1,2,2,0,0,1-.8,1,6.11,6.11,0,0,1-1.4.7,7.62,7.62,0,0,0-1.3.7c-.3.3-.6.5-.5.8a3.33,3.33,0,0,0,1,0c.2.1.3.2-.7.9l-1.4.3c-.9,1,0,.6.3.7.3-.1.5,0,.2.4-.6.2-1-.1-1.1,0-.5.5-.1.4.3.3s.9-.3,1-.2l-1.1.6c.1,0,.2.1.3.1h.7c.5,0,1,.1,1.5.1h2.6c-.3.2-.8.3-.6.6h4.9a6.48,6.48,0,0,0,1.9-.2,9.43,9.43,0,0,0,1-1c.2-.1.4.1.2.4,1-.1,0-.4.5-.8.5-.2.8.1.4.4.2-.1.4-.3.7-.5a.52.52,0,0,1,.4-.2l.2-.2c.3-.2.6-.5.9-.7a3.14,3.14,0,0,1,2-.5l-.1.2c.4,0,.5-.4.7-.7s.3-.6.7-.4l-.1.1c.2,0,.4-.1.7-.1s.4-.1.6-.1.3-.1.4-.1h.3c.2,0,.4,0,.5.2a.62.62,0,0,1-.1.7c.8-.4-.2.7,1.1.7-.2.6-.3.8-.4,1.1a3.47,3.47,0,0,0-.2,1.3c0,.4.9.4,1.1.9l-.6.1.8.5-.7.5.1.2c0,.1.1.1.1.3v-.2a.1.1,0,0,1,.1-.1c.1-.1.2-.2.3-.2a.37.37,0,0,1,.1.3c0,.2.1.3.1.5v1a5,5,0,0,1-.3,1.4c.2.5.4.9.6,1.3l.6,1.1c-.2.2-.4-.2-.6-.4.5.4.3.7.2.9a.56.56,0,0,0,.2.8c0-.3.3-.4.4-.5a5,5,0,0,0,.9,3.1l-.3.5a13.39,13.39,0,0,0,.6,1.2,6.73,6.73,0,0,0,.7,1.1c.2.4.5.7.7,1.1s.5.8.7,1.3c-.3-1-.1-2.3.1-1.9l.1,1.5c.2-.5-.3-1,.1-1.3.3.8.2,2,0,2l.5.4c0,.5-.1.5-.1.9,0-.1.1-.1.1,0a.1.1,0,0,0,.1.1l.1-.1a.31.31,0,0,1,.2-.1c.2-.1.4-.2.5-1.2v.4a43.21,43.21,0,0,0,1.8-4.1,6.25,6.25,0,0,1-.1-1.2c0-.4.1-.7.1-1.4.3-.5.6-.9.9-1.5a9.12,9.12,0,0,0,.9-2.2c.1-.7,0-.9-.1-1a1.07,1.07,0,0,1-.3-.5c.4.4.9-1.4,1-.3.1-.5.3-1,.4-1.4,0-.2.1-.4.1-.6a.37.37,0,0,1,.1-.3,8.16,8.16,0,0,0,.1-1.8c-.3.1-.4.3-.6.1,0-.3.4-.6.6-.4v.1c-.2-2,2.7-3.5,2.1-5.2v.1l-.1-.8v-.4c0-.1-.1-.1-.1-.2s.2,0,.3.1a.52.52,0,0,0,.4.2.48.48,0,0,1-.1-.6.6.6,0,0,1,.4-.1h.2l.1-.1c.1,0,.2-.1.3-.2.6.7,1.6.5,2.6.2a4.7,4.7,0,0,1,2.8-.4l-.2-.3c.3-.4.5.1.8.1-.1-.3-.5-.2-.3-.5a15.55,15.55,0,0,1,2.3-.8l1.2-.3.3-.1c.2,0,.3-.1.5-.2l1-.3c.7-.2,1.4-.5,2-.7s1.4-.5,2.1-.8c1.4-.6,2.7-1.3,4-1.9,1-.5.4-.7-.1-.9s-.7-.4,1.1-.9c.3.1.5.2.8.3.1-.1.2-.3.4-.4l.4-.4a51.87,51.87,0,0,1-5-2,24.48,24.48,0,0,0-5-1.7c.3,0,.5-.2.9-.1a3.83,3.83,0,0,0-1.7-.8c-.7-.1-1.3-.1-1.4.1-.5-.2,0-.4-.3-.7-.4-.5-1.4.2-1.5-.3,0-.1.2-.1.3-.1-.4.1-1.4-.5-1.3.2-.8-.5-1.7-.2-2.2-.7-.6.5-1.4-.7-1.7.2.1-.4-.2-.7-.6-.8a1.7,1.7,0,0,0-.7-.1h-.3l-.1.1c.1-.3,0-.3.2-.7-.1,0-.3.1-.6.5a1.58,1.58,0,0,0,.1-.4h-.3c-.3,0-.4-.2.4-.4l-.3-.3V37.7a19.48,19.48,0,0,1,.2-2.5c.9.3-.4,1.8.6,1.9,0-1.6-.6-2.6,0-4.1.2-.3.3.3.5.5,0-1.6.8-2.8.7-4.3.1,0,.1.2.2.3,0-.3.3-.6-.1-.6v.3c-.7.3-1-1.4-1.3-1.5.3.2.4.2.6.1s.2-.2.3-.4a1,1,0,0,1,.4-.5c.2-.1.4,0,.7.3,0-.3-.1-.7-.4-.6.2-.4.4-.5.6-.1a1.54,1.54,0,0,0-.2-1.2,1.44,1.44,0,0,1-.2-.9c.2-.1.3.1.5.2a4.35,4.35,0,0,1-.6-.7,3,3,0,0,1-.4-1h0c.1,0,.1-.1.2-.1a.31.31,0,0,1,.2.1c0-.1-.1-.1-.1-.2a2.72,2.72,0,0,0-2.1-.9,16.35,16.35,0,0,1-2.2-.2c.4-.5.2-.5,0-.6s-.6,0-.6-.4a3.7,3.7,0,0,0-1.1.5c.2.1.3.2.5.3-1,.2-1.5,1.1-2.2,1.2a2.09,2.09,0,0,1,.4-.6.76.76,0,0,1-.4.2c-.1.1-.2.1-.3.2s-.4.3-.6.5c.3-.1.5-.1.8-.2-.2.4-.1.6,0,.7s.1.2-.3.4c.1-.2-.5.4-1.1.3h0a1.74,1.74,0,0,1-.6,1.1c-.3-.1-.6-.7-.7-.7.2.7-.9,1.3-.7,2.1a.7.7,0,0,0-.4-.5l.2.5c-.3.1-.4.1-.6-.1-.7.6.9.4-.1,1,0-.1-.1-.1,0-.3-.9.7-1.1,1.8-2,2.4-.8-.3.4-.8-.3-1-.8,1.2-1.3,2.8-2.4,3.7l.2-.1c.7.9-1.1.4-1.2,1.2.1-.2-.3-.6-.2-.5l-.1.1-.1.1a.35.35,0,0,0-.1.2c-.1.1-.2.3-.3.4a1.37,1.37,0,0,1-1.1.8c0-.1.1-.2.1-.3-.3-.3-.8-.5-1-.8-.2.2-.5-.1-.6.4a4,4,0,0,0-1-1.5,3.69,3.69,0,0,0-1.4-.7,6.72,6.72,0,0,1-1.2-.6,4.34,4.34,0,0,1-1.2-1.4c.2.1.4.1.3-.1l-1.3-.7c.3.7.3.5.6,1.2-.1.2-.3.3-.6,0,.2,0,.1-.3,0-.6a5.3,5.3,0,0,1-.6-1c.1.2.1.4.2.6-1.1-1.7.4,1.2-.8-.2l-.1-.3c-.3-.1-.3.2-.7-.2-.6-1,.1-.1-.2-.8-.3-.2-.3,0-.4.2s-.2.1-.6-.5c.1-.1.4.1.4.1a10.33,10.33,0,0,0-1.5-1.7l.1.1c-.6-.7-.5-.1-.6.1h.2a8,8,0,0,1,.9,2.5,3.37,3.37,0,0,0,.6,1.9,4.6,4.6,0,0,0-.8-1.3c-.1,0-.1.1-.5-.3-.2.1-.3.3-.5,0a1.24,1.24,0,0,1,.2.9c-.1.2-.1.5.4,1.2-.2-.2.1.6-.5,0,.3.9.4.1.7.4a6.89,6.89,0,0,1,.4,1V33a4.48,4.48,0,0,0,.1,1.1,2.92,2.92,0,0,0,.8,1.4,7,7,0,0,0,1.3,1.5,4.81,4.81,0,0,1,1.1.9c-.2.5-.8,0-.8,0a1.82,1.82,0,0,0,.6,1.4c-.2,0-.3.1-.4.4.2.4.8-.1.8.6a2.7,2.7,0,0,1-.9,0c.4.4,1,.7,1.4,1.1-.2.3-.6,0-.9-.1.4.5,1,1.2,1.6,1.1V42c.1.2-.4.3-.5.2-.6-.3-.2-.8,0-.9l.3.3c.9-.9-.9-1.3-1.1-2l.9-.1-1-.4c.1-.2.5-.5.8-.3.2-.7-.5-.3-.2-.9,0-.1.1-.1.1,0l-.4-.4c.2,0,.5-.3.5,0v-.3c0-.1,0-.1-.1-.2l-.3-.3c-.2-.2-.4-.4-.1-.5l.1.1a1.07,1.07,0,0,0-.8-.6c-.2,0-.5,0-1.1-.6a3.34,3.34,0,0,1,1.7.1,5.94,5.94,0,0,1-.8-.4c0-.1,0-.3.3-.1-.3-.3-.4-.4-.5-.4s-.1,0-.4-.3c.3-.1.1-.5,0-.9s-.1-.6.6,0c-.4-.4-.5-.4-.6-.4s-.2,0-.5-.6c.8.6.7.4.5,0s-.6-1-.2-.8c.9,1.1.5,1,1.2,1.4-.7-.9-.7-1.1-.5-1s.6.4.4,0a4.31,4.31,0,0,1-.8-1.5v-.5h.2c.4.6,1.6,1.8,2.2,2.7l.1.3c-.7-1.5,0-.8.2-.8a4.32,4.32,0,0,1,.4,1.4l.3.2c-.1-.4-.1-.5.1-.5l.2.9c.2.1.2,0,.4-.1s.4.1.7.5a12.54,12.54,0,0,0-.2-1.5c-.1-.6-.1-.8.4-.7a.75.75,0,0,1-.1.5c0,.2,0,.4-.1.4.1,0,.2-.1.3.1-.1.1-.2.3-.3.4.3.5.1-.4.4-.2,0,.5.1.5.1.9-.1,0-.2-.3-.3-.2a1.75,1.75,0,0,1,.4,1.2c0-.3.1-.6.3-.5.4.3,0,.6.1,1,.2-.2.3.2.6-.3.1.1,0,.3-.1.5.3.1.8.4,1.3.6s.8.2.6-.3l-.1-.1h.1c.4,0,.7.1,1.1.1a2,2,0,0,0,1.1,0,3.22,3.22,0,0,0,2-1.2l.1.1c.4-.7,1.1-1.3,1.1-2a.48.48,0,0,1,.7.1c.3-.5.2-.7,1-1.1-.1.7.4.1-.2.6.6-.4,1-.3,1.1-1.3.2.6.9,0,1-.4l-.6.1a5.72,5.72,0,0,1,.7-.8l.4.6c1.7-.6.7-3.1,2.5-3-.1-.6-.8.4-1-.2.5-.5,1.7-.3,1.8-.4a.58.58,0,0,0,.3-.8c0-.3-.1-.7.3-.9a.77.77,0,0,1-.3-1.2c.6-.3,1.2.5,1,.8-.1.1-.2.1-.2,0-.1.2-.2.4.1.5l-.1-.2c.2,0,.4-.1.6-.1s.2.1.3.3c.1-.3-.1-.4-.3-.4a.78.78,0,0,0,.5,0,.45.45,0,0,1,.5,0c0-.1-.1-.4,0-.5.3.1.4,0,.5-.2a.79.79,0,0,1,.6-.5c.1.5-.7,1,0,.7a.55.55,0,0,1-.3.5l-.4.4c.2-.2.3-.1.3,0a.76.76,0,0,1-.2.4c-.1.1-.2.2-.2.3a.35.35,0,0,0-.2.1c.1-.1.1,0,.1,0a2.09,2.09,0,0,0,.6-.4.68.68,0,0,1-.4.3,4.88,4.88,0,0,1,.7-.3c.3-.1.5-.3.8-.2-.2.1-.1.2-.1.4s-.1.2-.4.3c.2-.3,0-.2-.2-.1a1.34,1.34,0,0,1-.5.1c.1,0,.1.1,0,.1h-.2c-.7.2.8,0,.6.5a.49.49,0,0,0-.7.3c.1-.4.6,0,.8.4-.5.6,0,.8-.1,1.1l.2-.4c.3.2.2.5.2,1-.3,0-.1-.5-.2-.3.5.7-1,1-.7,1.8-.3.3-.7-.1-.9.1.3.9-.7.8-.6,1.7.5-.1.4-.2.8.5V31.9l.5,1.1c.1-.4-.1-1,.1-1.2.3.5.2.5.6.4-.9.4.1,1.3-.5,1.8l-1.2-.3c-.8.9.2,1.9-.5,3.2l.3-.4c.4.3-.1.8-.1,1.3-.2-.1-.3,0-.5,0s-.1.1-.2.1a.22.22,0,0,0-.2.2c.2,0,0,.4,0,.8s0,.8.4.9a3.13,3.13,0,0,0-.5,1,1.44,1.44,0,0,0,1,1.4,9.38,9.38,0,0,1,1.5.6,1.07,1.07,0,0,0-.5.3c-.1.1-.3.2-.8,0,.4.4.8.7,1,.4,0,.2.5.2.9.3s.8,0,1,.3a1.38,1.38,0,0,1,.4-.3c.1,0,.1-.1.2-.1h.2v.2c0-.2.7-.1.4-.7.7,1.5,2.9.6,3.5,1.9a13.66,13.66,0,0,1,2.3.4c-.1.1-.1.2-.2.1.4.3.6.1.9-.1a.62.62,0,0,1,.9-.1c.1.7-.5.2-.4.5-.2.6-.1.6.2.6s.7-.1.5.3h-.1c-.1.2.1.1.5.1a1.62,1.62,0,0,1,1,0,1,1,0,0,1-.3.1,9.06,9.06,0,0,1,3.7.2,11.52,11.52,0,0,0-2,.1,6.25,6.25,0,0,0,1.2-.1,8.55,8.55,0,0,1,1.6,0c-.1,0-.2.1-.4.1h-.3c-.2,0-.4.1-.6.1a6.15,6.15,0,0,1-1.4.1l.1-.1h-.9c-.1,0,0,0,0,.1s.3.1.1.2h-.7c-.1.2,1.4.4.6.8l.5.1c.4.3.1.3-.2.3s-.6-.1-.4.2a5.64,5.64,0,0,1-1.2-.4,1.15,1.15,0,0,1,0,.6,3,3,0,0,1-.5.7c0-.6.2-1.1,0-1.4a.6.6,0,0,0-.4.7c0-.1,0-.3.2-.2a1.1,1.1,0,0,1,0,.8l-.3.3c-.1,0-.1.1-.2.1s-.2.1-.3.1c-.2-.8-.8-.7-1.4-.5s-1.3.4-1.8-.1c-1.2,1-2.9.5-4.5.9.8,1.1-.5.1-.2,1.4-.4.1-.5.2-.6.1l-.3-.1c-.1,0-.2-.1-.4-.1s-.7-.1-1-.2-.2-.2,0-.3.4-.2.4-.3c-.8.1-1,.1-1.2,0a1,1,0,0,0-.9-.2c.4.2,0,.6-.5,1-.1.1-.3.2-.4.3.2-.1.4-.1.5-.2.3-.1.5-.1.8-.2-.2.2-.3.4-.5.5a2.8,2.8,0,0,1-1.2.8,1.21,1.21,0,0,0-.5.5,2.13,2.13,0,0,0-.3,1.2,2.2,2.2,0,0,1-.1-.8,16.25,16.25,0,0,0-.4,1.9,2,2,0,0,0,.3,1.7c-.2.1-.6.1-.6-.2-.6,1.5,0,3.7-1,4.6l-.3-.2c0,.3.4.7,0,.9-.1-.1-.3-.2-.3-.1a3.54,3.54,0,0,1,.1.6v.3h0a.1.1,0,0,1-.1.1c-.1-.1-.2-.2-.3-.2s-.1.3.1.7a4.15,4.15,0,0,1,.3,1.6,4.15,4.15,0,0,0-.7-1.1c-.1-.2-.2-.4-.3-.4l-.1-.2c-.1,0,0,.4,0,1.2a27.15,27.15,0,0,1-.1,2.8,2.49,2.49,0,0,0-.1-.8,2.49,2.49,0,0,0-.1-.8,2.81,2.81,0,0,1-.1-.8,2.39,2.39,0,0,1-.1-1.3,6.4,6.4,0,0,1-.5,1.5c0-.3-.1,0-.2,0s-.1,0,.2-.7v.1a4.77,4.77,0,0,0,.4-1.2v-.2c-.3.4-.6.9-.9,1.3a3.59,3.59,0,0,0,.4-1.1.52.52,0,0,0-.2-.4l-.1-.1v-.1a.1.1,0,0,0-.1-.1c-.1-.2-.1-.4-.2-.6a1.13,1.13,0,0,1,.3-1.1,12.49,12.49,0,0,1-.8-1.2l.6-.1a6.8,6.8,0,0,0-.2-1.5,1.85,1.85,0,0,0-.2-.7,1.69,1.69,0,0,0-.2-.5,6.89,6.89,0,0,1-.3-.8l.6.3a1.48,1.48,0,0,0-1.3-1c-.5-.1-1-.1-1.3-.5a3.55,3.55,0,0,0,.4-.9,3.81,3.81,0,0,0-1.3-.9c-.2-.1-.5-.2-.7-.3s-.3-.1-.4-.1H659a9.7,9.7,0,0,0-1.7.1,2,2,0,0,0-1.2.6c0-.1,0-.4.2-.5a10,10,0,0,0-1.6.2c-.5.2-.9.4-.6,1-.3-.8-1.4.4-2,1l-.1-.6c-.3.9-.3,1.1-1,1.6-.2,0-.3-.4,0-.3-.4,0-.5.2-.5.3s-.1.3-.4.3c0-.1.1-.3.1-.4-.3.1-.3.3-.5.8a.35.35,0,0,1-.5.1.56.56,0,0,1-.1-.6c-.1.2-.2.5-.4.6s-.3.3-.4.3a1.08,1.08,0,0,1,.4-.5c-.2-.2-.5.1-.8.4s-.8.5-.6.1.4-.4.4-.5c.4,0,.7-.1.6,0,.3-.4.3-.6.5-.8a7.91,7.91,0,0,0,.8-1.1,5.7,5.7,0,0,1-1.1,1.1c-.4.4-.9.6-.8.4s.1-.2.3-.3l.1-.1c0-.1-.1,0-.3.1.1-.1.2-.2.1-.2.9-.7.3-.4.3-.4a26.54,26.54,0,0,0-2.3,1.4c.1-.1.2-.1.4-.1s.1,0,.2-.1a.1.1,0,0,0-.1.1h.5c-.7.4-1.5.8-1,.3-.9.5-2,1.1-2.5,1.3a7,7,0,0,0,1-.8,3.11,3.11,0,0,1,.6-.4c.2-.1.4-.3.6-.4a21.86,21.86,0,0,1,2-1.1h-.2c-.1-.1-.1-.3-1.4-.2-.1-.1.7-.3,1-.4.1,0,0,.1.2.1-.1-.1,0-.2,0-.4s0-.3-.5-.4a1,1,0,0,1,.7-.1c.1,0,.2.1.3-.2.1,0,.1.1.2.1.5-.1.6-.2.7-.4v-.8l.1-.4c.3-1,.6-2,1.9-2.4-.2.1-.3.1-.4,0,1.5-1.1,2.4-2.8,3.5-4.2l-1.6-1.5a8.07,8.07,0,0,1-2.4,1.7c-.7.4-.4.8-.5,1.4l-.6-.3-.1,1.1c-.4,1.2-2.5.3-2.8,2.1l.4.2c-.4.3-1,1.4-1.2,1,0,.1.2.4-.1.4l-.2-.2-.5,1.3c-.8.6-.8-1-1.9,0-.3.5-.3,1.8,0,1.8s.5-.3.8-.1l-.2.5c.7.7,1.1,1.7,2.4,1.2l.1-1,.5.1-.5.5c.6,0,.5-.4.5-.8a.66.66,0,0,0,.6.1l-.1-1.2c.3.2.3.8.8.5-.1-.6-.9-.3-.6-1,.6,0,.8.3.8-.3a.37.37,0,0,1,.2.5c.1-.5.7-.9.4-1.4.7.1.9-1.1,1.5-.4a2.09,2.09,0,0,1,.2-1.3c.3,1.3,1-1,1.8,0-.3-1.1,1-1.6,1.3-2.6,0,.1.1.3,0,.3.4-.3.7-.2,1.1-.3-.5-.6-.1-1.3-.1-2h0l-2.1-1.9c-.5,0-.6-.3-.7-.6l3.4,3.2a.87.87,0,0,0,.4.7.76.76,0,0,1-.2-.5l-3.9-3.6c0,.4-.2.9.2,1-.7.1-.4.2-1.1-.1.7.7-.2.5.1,1.2-.8.2-.8-.5-1.1.3C648,46.7,648.21,46,648.21,46Zm-5.8,15.3Zm1.7,0h-.7a.89.89,0,0,1,.5-.4C643.71,61,644,61.1,644.11,61.3Zm3.5-5.2c.2-.1,0,.1-.2.2s-.1,0-.3.1a.35.35,0,0,1-.2.1A5.74,5.74,0,0,0,647.61,56.1Z"/><path class="f" d="M645.71,57.2a.1.1,0,0,0-.1.1c-.1.1-.2.1-.2.2.1-.1.3-.2.3-.3Z"/><polygon class="f" points="658.91 62.8 659.01 62.8 658.91 62.7 658.91 62.8"/><path class="f" d="M649.81,28.6c0-.1-.1-.2-.2-.3A1.24,1.24,0,0,1,649.81,28.6Z"/><path class="f" d="M646.11,25.7l-.4-.4h0v.1a.1.1,0,0,0,.1-.1h0l.1.1A.77.77,0,0,0,646.11,25.7Z"/><path class="f" d="M645.71,28.3a1.38,1.38,0,0,0,.3.4h0Z"/><path class="f" d="M677.11,29.6v.1C677.21,30,677.21,29.8,677.11,29.6Z"/><path class="f" d="M668.21,24.3a.76.76,0,0,1,.2-.5C668.21,23.9,668,24,668.21,24.3Z"/><path class="f" d="M668.91,23.4a.7.7,0,0,0-.5.4A1,1,0,0,0,668.91,23.4Z"/><path class="f" d="M649.81,42.5v.1h.1Z"/><path class="f" d="M649.91,42.6l.1.1C650,42.6,650,42.5,649.91,42.6Z"/><path class="f" d="M650.41,42.9l-.3-.2C650.11,42.8,650.21,42.9,650.41,42.9Z"/><path class="f" d="M647.81,37.7v.7a.73.73,0,0,0,.2.6h.2C647.81,38.9,648.31,38,647.81,37.7Z"/><path class="f" d="M649.31,33.8a.9.9,0,0,1-.1.5,1,1,0,0,1,.8.5c.4-.1.2-.1-.1-.3S649.31,34.2,649.31,33.8Z"/><path class="f" d="M649.41,32.4c.2.5.5.6.7.9C649.81,32.7,649.71,32.5,649.41,32.4Z"/><path class="f" d="M663.21,33.2l.4.4C663.81,33.3,663.41,33.5,663.21,33.2Z"/><polygon class="f" points="663.91 28.3 663.41 28.4 663.61 28.9 663.91 28.3"/><polygon class="f" points="668.31 29 668.31 29.1 668.61 28.5 668.31 29"/><path class="f" d="M678.11,45.3l.1-.7C677.81,44.7,677.61,45.4,678.11,45.3Z"/><path class="f" d="M684.81,48.3c-.6-.1-1.1-.1-.7.1C684.21,48.4,684.81,48.4,684.81,48.3Z"/><path class="f" d="M664.41,63.8c.1,0,.1-.1.2-.2,0,.1-.1.1-.2.2Z"/><path class="f" d="M678.81,45.4c-.2.1-.2.6.3.6l.5-.6Z"/><path class="f" d="M682,47.2c.7-.3,1.4-.8,1-1.5-.6.6-.7.3-1.5,1.1-.5,0-.9-.3-.7-.6-.2.2-.8-.3-1.1.1a2.07,2.07,0,0,0,2.4.4C682.21,46.9,682,47.1,682,47.2Z"/><path class="f" d="M671.21,55.1a.37.37,0,0,0,.1.3A.37.37,0,0,0,671.21,55.1Z"/><path class="f" d="M667.21,58.9c0,.2,0,.3.1.4C667.31,59.1,667.31,58.9,667.21,58.9Z"/><path class="f" d="M669,53.9c0,.1-.1.2-.1.3C669,54.1,669.11,54,669,53.9Z"/><path class="f" d="M671.21,55.1a1.7,1.7,0,0,1-.1-.7C670.81,54.4,671.11,54.7,671.21,55.1Z"/><path class="f" d="M675.21,47.5l.4.1c.1-.1.2-.1.3-.2C675.61,47.4,675.41,47.5,675.21,47.5Z"/><path class="f" d="M673.71,49c.2.2.6-.3.8-.4a.85.85,0,0,1-.7,0C673.71,48.7,673.71,48.8,673.71,49Z"/><path class="f" d="M671.31,53c-.1,0-.2,0-.2.1C671.11,53,671.21,53,671.31,53Z"/><path class="f" d="M656.81,37.1Z"/><path class="f" d="M650.11,30.9l.1.1c.1,0,.2-.1.3-.1Z"/><path class="f" d="M657.81,51c-1.1.4.7-1.7-.8-1C657.31,50.1,656.71,51.6,657.81,51Z"/><path class="f" d="M683.61,48c-.1,0-.3-.1-.4-.1C683.31,47.9,683.41,48,683.61,48Z"/><path class="f" d="M657,50h0l-.2.1A.31.31,0,0,1,657,50Z"/><path class="f" d="M665.31,51.2c-.1.1-.2.2-.2.3S665.21,51.4,665.31,51.2Z"/><path class="f" d="M665.11,56.1l-.2.4C665,56.4,665,56.2,665.11,56.1Z"/><path class="f" d="M660.81,54.9a.37.37,0,0,1,.1-.3v-.4a.1.1,0,0,1-.1.1A.63.63,0,0,1,660.81,54.9Z"/><path class="f" d="M655.71,48.7h.2a1.38,1.38,0,0,1,.4-.3Z"/><path class="f" d="M657.21,48.5a1.54,1.54,0,0,1,.4-.6C657.21,48.2,656.81,46.6,657.21,48.5Z"/><path class="f" d="M683.91,47.8c-.1.1-.2.2-.3.2a.37.37,0,0,1,.3.1Z"/><path class="f" d="M656.21,54.6h0v-.1h0v-.2a.1.1,0,0,1-.1.1v.1C656.21,54.5,656.21,54.5,656.21,54.6Z"/><path class="f" d="M673.81,35.9v.4C673.91,36.1,673.91,36,673.81,35.9Z"/><path class="f" d="M656.11,53.8a1.76,1.76,0,0,0,.1-.6c0,.1-.1.1-.1.2Z"/><path class="f" d="M655.81,38.8c.2.9.8.3,1.3.5.2.7.1.9-.2.9s-.5,0-.7.3c.3.9.9,1.6.9,2.4-.1.1-.2.2-.3,0a5.13,5.13,0,0,1,.3,2.3,4.56,4.56,0,0,0,.6,2.6c-.1.1-.1.2-.2.2a1.43,1.43,0,0,1,1-.4c.1.7.7,1.1.3,1.5-.1-.4-.3-.4-.5-.6l.4.7c-.2.4-.4.2-.5-.1s-.2-.7-.5-.7a10.37,10.37,0,0,1,.4,1l.6.9,2.4,3.9.2-4a3.36,3.36,0,0,1,.4-1.9c.7,0-.4,2.3.5,1.2l-.4.9-2.5,5.1-1-4.9-.1-.7c-.6,1.8-.3-1.1-1,.5a1.09,1.09,0,0,1,.1.5l2.4,8.5,3.1-8.7c.5-1.6.2-2,.9-3.7-.2-.5-.6,0-.8-.6.1-2.9,2.3-1.6,2-3.9-.3-.7-1.1-1.1-.2-2.4l.6.7c.6-1.8-.8-1.4.3-3.2.2.4-.2,1.5,0,1.3,1-1.1-.2-1,.1-2h.7a14.35,14.35,0,0,0,.4-2.2l-4.4-.1a23.43,23.43,0,0,1,1.3,4c-.2-.1-.5-.4-.6.1.7,2.5.4,5.5.1,8.2l-1.5,14,7-13.1a2.19,2.19,0,0,1,.3-.5l-.2-1.2c.1-.2.4-.4.4-.1.6-1-.3-.2-.4-.8.2-.6.6-.7.6-.2.2-2,.6-5.6,1.7-7.5l.1.4c.6-1.5-.8-2,.1-3.4v.3a27.13,27.13,0,0,0,.9-4.1l-3.6-.4a16.82,16.82,0,0,1-.7,5.7c.9.5-.5,3.4.7,3.6-.5,1.4-.7,1.5-1,2.5l-6,22.4,10.9-21.7a5.71,5.71,0,0,0,.6-1.5c.2-.7-.5-1.3-.5-2.2l.6.1-.4-1.4.9-.5v-.9c-.1.3-.4.7-.6.6-.1-1.4.9-3.2,1.2-3.2-.1-1.1-.1-2.2-.2-3.3.3.1.3.6.4,1.1-.5-1.8.7-.3.2-1.9-.2.2-.4-.1-.5-.2a6.09,6.09,0,0,0,.4-3.2l-5.2-.3v.7l-.4-.3c-.3,2.2-.3,4.8-.8,7.3.3-.9,1.1-.5,1,.2l-.4.1c.3.5.4-.7.7.3-.2.9-.9.5-1-.1v1.2c-.2,0-.3-.3-.5-.4.3.5-1,1.8-.5,2.6h-.2c-.5,2.5-.6,3.7-1,5.7.6.2.2.9.5,1.7a34.94,34.94,0,0,0-2,4.7c-.1,1.3.4.5.5,1.2-.2,0-.5.3-.7.6l4.1.5c.1-.4.1-.7.4-.2a15.89,15.89,0,0,0-.4-2.6,7.89,7.89,0,0,0-.3-1.3c-.1-.2-.1-.5-.2-.8,0-.1,0-.1-.1-.2v-.3c0-.3-.1-.5-.1-.8-.2.5-.2,1.1-.4.8a2.44,2.44,0,0,1,0-1.2q.15-.6.3-.6l.1.2a17.56,17.56,0,0,1-.4-4.8c0-2.1,0-4.3.1-6.3a21.19,21.19,0,0,0-4.6,4.8l.2-.3c-1.1,1.4-2.1,2.7-3,3.8-.7.6-.6.4-.4,0s.5-.9-.2-.4c-.2.3-.4.5-.6.8a1.38,1.38,0,0,0-.3.4l-.1.2a.1.1,0,0,1-.1.1,4.35,4.35,0,0,1-.6.7l-1.2,1.2a8.53,8.53,0,0,0-2.2,2.4,4.52,4.52,0,0,0-2.3,1.3l4.8,1a2.33,2.33,0,0,1-.2-1.1,7.39,7.39,0,0,1,.3-1.9l-5.3-1.6a4.83,4.83,0,0,1-.9,1.4h.4c.1.7-.5.6-.7,1,.3,0,.6-.5.6-.1a77.65,77.65,0,0,1-5.1,11.5l5.8,1.7c.4-1.2.8-2.5,1.3-3.7a1.78,1.78,0,0,0-.3-1.7c-.3-.4-.4-.9.4-1.9l.4.9a15,15,0,0,1,.9-3.5l3.3-8.4-7.2,5.2a16.73,16.73,0,0,0-3.4,3.1,12.94,12.94,0,0,0-2.3,3.9l-2.9,8.3,6.4-5.2c.2-.2.4-.3.6-.5-.1.3,0,.4-.4.6,1,0,2.7-1.6,2.5-2,.6-.3.3.2.7.2.9-.2,1.5-1.7,2.1-1.5.1,0-.1.3-.2.4a13.5,13.5,0,0,1,1.1-.9c.5-.4.4-.3.2-.6.2,0,.3-.1.5-.3s.4-.3.4-.2a1.07,1.07,0,0,1,.3-.5c.1-.1.2.1.2.2s0,.4.4-.1c-.9,1.2-.7,1.2-.3,1.5h-.2a.1.1,0,0,0-.1.1c-.1.2-.2.4-.4.2a3.38,3.38,0,0,0,.4,1.8l5.5,4-.8-2.7a.22.22,0,0,0-.2-.2c2-1.1,1.4-3.9,3.2-4,.2-.5.4-1,.6-1.4l-4.7-1c.8,2.6,1.5,5,2.1,7.4-.9.1-.6-3.1-1.6-2.8.8,2.6,1.9,4.1,2.1,6.8v.1l3.6.4c.2-.2.2-.1.2.1l.5,5.7-4.5-6.1a3.11,3.11,0,0,0-.4-.6,6.37,6.37,0,0,1,.2.7l2.2,8.3,2.2-7.8c.7-2.5,1.8-4.6,2-7,.1,0,.1.3.1.6.1-.5.4-1.1,0-1.1v.5c-.8.6-.7-2.2-1.1-2.4,1,1.1.9-2.3,2.1-.7,0-.3-.1-.8-.4-.8.2-.5.4-.6.6,0,.1-1.8-.4-1.3-.1-2.8.2,0,.2.4.4.6a4.68,4.68,0,0,1-.2-2.7l-2.9-.6c0,.1-.1.2-.1.4-.1-.1-.3,0-.2-.4-.6,2.2-.1,4-1.1,6.3-.7-.9-.5.8-1.3.7,0,.5-.1.9-.1,1.4l.5-.5c-.3,1.2.1,2.3-.3,3.3-.1-.3-.1-.6-.2-.9-.1.8-.1,1.5-.2,2.3.2-.4.3-.8.5-1.2.2,1.3,1,0,.6,1.5a5.36,5.36,0,0,1-.6,1.8h0a4.88,4.88,0,0,1,.3,1.4l1,.1a2.54,2.54,0,0,1,.2-.7c.3-.2.8.3,1,.2-.6-.7.2-2.7-.4-3.5.1.3.5.3.6.3l-.4-.6c.3-.5.3-.6.7-.4.4-1.6-1.1.4-.3-1.5,0,.2.1.1.1.4.5-1.9.3-3.7.9-5.4.9-.4-.1,1.6.7,1.1.3-2.3.1-4.8.6-7l-2,.1a1.7,1.7,0,0,1,.1.7v-.4c.6,0,.5.5.4,1.1s-.4,1.2-.1,1.8c-.1-.3-.6-.4-.5-.3a13.9,13.9,0,0,0,.3,2.7,12.72,12.72,0,0,0,1.3,3.5.76.76,0,0,0-.4-.2,6.4,6.4,0,0,0,.7,1.9,6.3,6.3,0,0,0,1.5,1.7l1.3,1.1.9-1.7c0-.1.1-.1.1-.2-.1-.4.1-1-.4-.8a4.12,4.12,0,0,0,1.1-1.9,4.25,4.25,0,0,0,.2-1.1v-1c-.1-.4-.2-.9-.3-1.4a9.32,9.32,0,0,1-.2-1.4v-.2h.2l.2.1a3,3,0,0,1,.7.5c-.2-.1-.3.2-.1.2.4,0,.8.1,1.3.1a1.07,1.07,0,0,0-.3-.5l-.5-.5c.1-.3.7-.3,1.3-.1-.5,0-.5.2-.3.5a4.35,4.35,0,0,0,.6.7c0-.2.1-.3.1-.4.1.1.2.2.2.3a.31.31,0,0,0,.2.1c.1,0,.2-.1.3-.2s.5-.5,1.2.1l-.2.2a6.15,6.15,0,0,1,1.3.1l.1-.4c-.3-.1-.5-.1-.7-.3,0-.6.8.1,1-.3-.9-.4-2.3.1-2.8-.8.4.1,1,.3,1.4.4-.6-1-.8-.9-1.3-1.4h.1c-.4-.4-.9-.7-1.3-1.1l.3.4a2.18,2.18,0,0,1-2.1-.4,4.13,4.13,0,0,0-2.1-1c1.9.3.5-.2,1-.7-.2-.4-.6-1-.3-1-.8-.1-.7-.9-1.6-1.2l-1.1,3c.1,0,.2-.1.4-.2.1.2.8,0,.7.5,1-.1-.2-.4-.2-.6a5,5,0,0,1,2.7.1,5.71,5.71,0,0,0,3.2.2c2-.1,2.5-.6,4.4-.5.3.2.1.4-.1.5a1.34,1.34,0,0,1-.5.1,6.07,6.07,0,0,0,2.6.8c-.2.1-.1.3.1.6.7.2.7-.5,1.6.1a2.34,2.34,0,0,1-1,.5c.6.1,1.3.1,2,.2l.3-2a1.85,1.85,0,0,1-.7.2c-.2-.3.4-.5.7-.8l-.4,2.9h0l.4-3c-1,.3-2.4.4-2.8,1a6.37,6.37,0,0,0,.7.2c-.4,0-.2-.5.1-.6.9-.5,1.3.1,1.3.3l-.6.2c.3.5.9.5,1.5.3v.3a20.24,20.24,0,0,1-2.6-.4l.8-.6a7.72,7.72,0,0,1-1.5.2c-.2-.3-.3-.8.4-.7-.8-.7-.9,0-1.6-.6-.1-.1,0-.1.1-.1h-1c.2-.1,0-.6.5-.4-1.6-.9-2.9,0-3.4-.7h.2c-1.2-.1-1.3.1-1.3.3s0,.5-.9.7c-.3-.6-.7-1.1-1-1.7l-.3.6c-.2,0-.7-.1-.6-.4-.9.4.1.3-.4.7a4.88,4.88,0,0,0-2.1-.3c-.7,0-1.3,0-1.4-.5-.4.5,1.1.4-.1.7l-.9.3.9-.1h0c-.5,1,1.2.9,1.7,1.9-.6.2-1.2-.7-.7.4.6-.2.9.2,1.3.7s.7,1,1.2,1.2c.5-.6,1.8.9,3.3,1.4a7.8,7.8,0,0,0,2.4,1.7l.8-2.1a8.1,8.1,0,0,1-1.3-.6l.1-.1c-.2.3-.7.3-1.2.3a5.76,5.76,0,0,1-1-.2,3.55,3.55,0,0,0-1-.2c0-.5.2-.6,1-.6l-1.4-.4c-.3.2-.7.2-1.4,0a1.27,1.27,0,0,1,.1-.6,10.46,10.46,0,0,0-1.7-.4c-.3,0-.5-.1-.8-.1h-.4c0,.1-.1.1-.1.2a11.53,11.53,0,0,1,.3,2.6c.3.3.7.1,1.1.4a2.15,2.15,0,0,1,.9,1.5c-.1-.1-.3-.1-.5-.3a.84.84,0,0,1-.4-.7c.1.2.3.8.2,1l-.6-1.2c-.1.9.5.8.4,1.5-.4-.2-.3.5-.6.3,0-.2.2-.6,0-1a6.75,6.75,0,0,1-.2,1.4c0,.1-.1.2-.1.3s-.1.1-.1.2-.2.2-.3.2a.47.47,0,0,1,.5.6c-.2,1.2-.6.3-.9.9.2.4-.3,1,.3,1.2-.1.3-.4.3-.6.4a1.76,1.76,0,0,1-.1.6l2.2-.6a2.76,2.76,0,0,1-.9-.7c-.2-.2-.4-.3-.5.1v.1l-.1-.1h0a4.07,4.07,0,0,1-1.2-2.9c-.1-1.1.1-2.2-.1-3.3h.2a14.16,14.16,0,0,0-.4-2,3.59,3.59,0,0,0-.7-1.8l-1.2-1.6.1,1.7V46c-.1.4-.6.8-.8.6a5.6,5.6,0,0,1-.5,2.6c-.1-1.1-.4.3,0-1.1-.4,1.3-.8,1.5-.5,3-.4-.6-.8.9-.8,1.5l.5-.8a10.62,10.62,0,0,1-.4,1.9l-.6-.5c-1.3,2.5.6,5.1-1.1,6.9.4.8.6-1.4,1-.7-.3,1.2-1.5,2.4-1.5,2.8a2.54,2.54,0,0,0-.2.7l4.7.4c-.1-.9-1-1.1-.6-2.5-.3.2-1,.3-1-1,.3-1.2,1.2-1.3,1.3-.5,0,.3-.1.4-.2.4,0,.4.1.9.4.5l-.2-.2c.3-.6.6-2.2.9-1.7-.1-.9-.3-.5-.6.2.6-1.4.5-2.4,1.1-3.9-.2.2-.5.4-.5.1.9-2.2-.2-1.1.1-2.7.6-.8.8.6.9-1.1.5-.9.7,0,.8.4a6.29,6.29,0,0,1,1.1-2.9l-5.4-1.2a1.69,1.69,0,0,0-.2.5l-.1-.6,5.9,1.3v0l-5.9-1.3a3.08,3.08,0,0,1-.1,1l.6-.3c-.2.4-.2.8-.4.8.2.5.9-.2,1.1.8-.4.5-.1,1.9-.8,1.9.6-1.8-.7.1-.5-1.5a5.16,5.16,0,0,1-.2,1.1c-.1.1-.1-.1-.1-.2-.9,1.6.6,1,.1,2.8-.3-.3-.8.3-.8.6.2-.7.7-.2.8.5-.6,1.1-.1,1.3-.3,1.9l.3-.7c.3.3.1.9-.1,1.7-.3,0,0-.8-.2-.5.4,1.1-1.3,1.8-1.3,3.2-.4.5-.7-.2-1,.3a1.68,1.68,0,0,1-.6,1.4l4.9.5a2.42,2.42,0,0,0-.2-1.6c-.4.5-.3.6-.9-.4l.7,2.1-4-.4.1-.4v.4l3.7.4-.8-1.2a4.23,4.23,0,0,0,.4,1.2l-3-.3c.1-.3.1-.6.2-.8.1.9,0,.7.5.6a.78.78,0,0,0-.4.4l2.2.2c0-.9-.9-1.7-.6-2.8l1.2-.2c.2-1.9-1.2-3.1-1.3-5.6l-.1.8c-.5-.2-.3-1.5-.6-2.2.4,0,.5-.5.7-.9-.1,0-.2-.4-.3-.8l-1.6-5.3-2.2,4.5c-.2.4-.4.9-.1,1.2l-1,.6c-1.2,1.5-.2,2.5-1.3,4-.1-.7-.8-.2-.4-1.4-.3.5-.7,1-.5,1.1l-.1.1,3.4,1c0-.5-.6-1.6-.3-2.2-.2-.4-.6-.4-.6-1.4a.31.31,0,0,1,.2-.1c-.1,0-.2-.3-.3-.5s-.2-.3-.5.2a4.88,4.88,0,0,0,.4-2.4,3,3,0,0,0-.2-1,3.55,3.55,0,0,0-.4-.9,2.19,2.19,0,0,0-.5-.3h-.5l-.9.3a5,5,0,0,1-1.6.3c-.8.6-1.7,1.2-2.6,1.8-.6.4-1.2.8-1.7,1.2,0-.1-.1-.2.1-.3-1.7.6-.3,1.6-2.2,2.2-1.2,0,.7-.8,0-.7-.9-1-1.8,1.2-3.2,1.4l2.6,2.3.1-.1v.1l-2.7-2.5.1-.1H646l2.9,2.6a3.67,3.67,0,0,0,.6-1.4,4,4,0,0,1,.9-1.7.1.1,0,0,0,.1.1,5.71,5.71,0,0,1,2-3.1l-1.1-.9-.3.9c-.3-.7,0-.8-.6-.7-.2.7.9.1.5,1.5-.4.3-1,1.2-1.6,1.1l.4-1.3c-.9.4-.6,1.7-.9,2.3l-.3-.2c-.6,2,.2,2.3-.4,4.4l.3-.2c.5,1.4-.7.9-.4,2.2l-.8.2-5.7,1.2,8.5-.3h.1c.1-.8.3-2.9.6-4.2a11.57,11.57,0,0,1-.1,3.7c.3-.7.9-2.5.7-3,0,.3,0,.8-.2,1a6.6,6.6,0,0,1,.5-3.8c1.4.8,1.9-3.6,3.4-4.2a16,16,0,0,1,1-3.1l-4-1.2c-.2.7-.4,1.5-.6,2.5a6.78,6.78,0,0,0,.3,3.4l1.4,3.6,2.7-2.8a2.18,2.18,0,0,0,.4-.5c-1.7-.1.6-.7-.4-1.4.5-.6.7-.8.8-.8l2.1-1.1c.6-.1-.3.7,0,.9,1.2-1.1.9-.1,1.9-.6-.5-.2-.1-.9.7-1.4l-1.3.5a2.79,2.79,0,0,1,1.6-1.4c.1,0,.3-.1.4-.1h.1c.1,0,.1,0,.1-.3a.9.9,0,0,0,.1.5c0-.1.1-.2.2-.5s.3-.7.8-2a5.64,5.64,0,0,1-.4,1.2.1.1,0,0,0,.1-.1c0,.1.1.1.2.1s.2.1.3.2a.85.85,0,0,1,.2.6V47a.6.6,0,0,1-.1.4l-.3-.2c.1.5.7.9.4,1.5-.1,0-.3-.2-.3.1a3.81,3.81,0,0,1,.5,2.1l-.4-.6a4.71,4.71,0,0,0,.2,2.1l2.9,12.3,2.1-11.7c.3-1.6,0-3,.3-4.6.9.3,1.8-1.8,2.2-2.8l.1.1c1-3.2.6-5.6.8-8.6.7-.8,1-2.4,1.4-4.1a34,34,0,0,1,1-5c-.2.4-.7-.2-.7-.7a3.35,3.35,0,0,0,0-1l-3.9-.2c.1.5.2.9-.3.8v-.2c-.8.5-.7,1.9-.8,2.9l1.1.2c-.9,1.4-.9,3.2-1,4.9s-.2,3.2-1,3.9c.1.7,0,1.5.1,2.3l-.6-.2a6.89,6.89,0,0,1-.3.8l5.3.7a31.82,31.82,0,0,0,.1-4.5l.4.5c.1-1.4-1.7-1.8-1.7-3l.9-.4c0-1.5.4-3,.4-4.5l-5.2-.5a7.48,7.48,0,0,0-.1,2.6c-.1-.1-.4-.2-.3-.6-.2,1.1-1.5,3.9-.2,3.8-.8-.2-.6,2.3-.7,3.6l-.5-.3a4.3,4.3,0,0,1,.4,2.8c-.2.3-.5.2-.3-.2-.6,1,.2,1-.5,2.3l-.2-.6a2.09,2.09,0,0,0,0,1.9,2.08,2.08,0,0,1-.5,1.2l2.1.3c.1-.6.3-1.1.6-1.2a1.68,1.68,0,0,1-.7-1.5c.2-.1.3.2.4.3.3-2.1-.8-3-.4-4.5a.32.32,0,0,0,.3-.3,9.29,9.29,0,0,1,.1,2.9c.5,0,.5-1.4,1.3-.4-.5-1.1-1.5-2.8-1.4-4.2,0-.1.1-.1.2-.2l.1.1a1.88,1.88,0,0,0-.2-.8V35.7c.4-.2-.1-1.6-.2-2.3h0l-5-.1c.5.1.2.9.9.3l3.2.1h0l-3.2-.1h0l-.2-3.8,3.4,3.9a3.22,3.22,0,0,1,.2.6c0,.1.1.2.1.3H666c.1.4.2,1,.4,1.7a2.21,2.21,0,0,1-.6-1.8,4.05,4.05,0,0,0-.9-.5l-1.8-.8.2.8c0,.1.1.2.1.3-1,.6-1.9,2.2-2.5,2.2-.3,2-1.1,4.6-.4,6.1,0,.6-.5.5-.7.7,0-.3.1-.7,0-.9-.1,1.2-.8,3.3-.2,3.7-.7,1.3-.4-1-.9,1l-.1-.3a6,6,0,0,0-1,2.7l3.7-.2a10.47,10.47,0,0,1-1.4-2.8,6.27,6.27,0,0,1,.3-4c-.1.3-.1.5-.3.5a12.1,12.1,0,0,0,0-3.8,8.76,8.76,0,0,0-1.6-3.9l-1.7-2.2-.5,2.6a25.94,25.94,0,0,1-1.8,6.9l2.8.6c.1-.2.1-.4.2-.6a3.17,3.17,0,0,0,0-1.7c-.2-.4-.4-.6-.7-1.1a2.65,2.65,0,0,0,.6-.5,8.06,8.06,0,0,0-1.2-1.4c-.7-.9-.8-2-1.4-3.1l-.7-1.4-1.4,1.9a4,4,0,0,0-1,3l.5-.2c-.1.3-.3.8-.4,1.2h1.7c-.3-.8-.5-1.5-.2-1.5-.1-.1-.5-.2-.4-.6l.3-.1a22.63,22.63,0,0,0-1.3-2c-.4-1.8,1.3-.2.4-2.7-.5-.9-2-2.2-2-1.8s.2,1-.1,1.2l-.5-.7c-1,.2-2.1.1-1.9,2.2l1.1,1.1-.3.6-.5-1.1c-.1.8.4,1.1.8,1.4a.91.91,0,0,0-.3.7l1.3,1c-.3.3-.9-.4-.8.6.6.5.6-.9,1.2.1-.2.8-.6.7,0,1.4-.2.2-.4.1-.6-.2a4.49,4.49,0,0,1,.6,1.2l3.1,6.8,1.2-6.7a1.1,1.1,0,0,0-.1-1c.7-.5.7-2.4,1.5-2.1-.1-.1-.1-.4-.1-.8l-3.7.9a2.62,2.62,0,0,1,.9.5c-.7,0-.4.3-.2.8s.4,1.1-.2,1.1c.5.1.7.5.8,1a8.08,8.08,0,0,1,.1,1.6l4.6,1v-1c.1.1.2.3.1.4A5.65,5.65,0,0,1,659,41c-.8-.3-.6-1.7-1-2.6,1-.9.8.9,1.6.7-.7-.1-.2-2.1-.8-1.8.7-.7.4-.7,1.1-1-.1,0-.1,0-.2-.1l-4.7.9c.3-.2.4,0,.5.1s.1.4.5.5a1,1,0,0,1-.4.7c-.1.1-.1.2.1.6C656.31,39.5,655.81,38.8,655.81,38.8Zm8.2-.4h0a1.76,1.76,0,0,1-.1-.6A1.76,1.76,0,0,0,664,38.4Zm.2,2.7a5.74,5.74,0,0,0-.1-1.2c.2-.1.4,0,.4.2C664.41,40.1,664.41,40.7,664.21,41.1Zm3.3-6.4c.2.4.1.6,0,.7a3.09,3.09,0,0,0-.2-.8h-.1C667.31,34.6,667.41,34.7,667.51,34.7Z"/><path class="f" d="M666.51,34.1c0-.1-.1-.1-.1-.2,0,.1-.1.2-.1.3s.1.1.2.1S666.61,34.1,666.51,34.1Z"/><polygon class="f" points="673.61 39.1 673.41 39.1 673.51 39.3 673.61 39.1"/><path class="f" d="M676.71,50.8c0,.1,0,.1.1.2C676.81,50.9,676.81,50.9,676.71,50.8Z"/><path class="f" d="M677.61,48a4.35,4.35,0,0,0-.7-.6A3.19,3.19,0,0,0,677.61,48Z"/><path class="f" d="M673.71,45.1a.35.35,0,0,0-.2.1h0Z"/><path class="f" d="M664.71,61.5a2.35,2.35,0,0,1-.2-.8C664.41,61.2,664.41,61.5,664.71,61.5Z"/><path class="f" d="M664.61,59.6a1.45,1.45,0,0,0-.1,1.1A2,2,0,0,0,664.61,59.6Z"/><path class="f" d="M684.61,45.6h-.2v.1Z"/><path class="f" d="M684.31,45.7l-.3.1A.44.44,0,0,0,684.31,45.7Z"/><path class="f" d="M683.51,45.9l.5-.1C683.91,45.7,683.71,45.7,683.51,45.9Z"/><path class="f" d="M681.91,47.3l-.1.2A.31.31,0,0,1,681.91,47.3Z"/><path class="f" d="M680,46.9c.4.1,1,.7,1.7.8l.1-.1C681.41,47.7,680.51,46.6,680,46.9Z"/><path class="f" d="M671.91,43.3c.6.1,1.2.1,1.7.2-.3-.2-.7-.6.1-.6C671.61,42.2,674.21,43.5,671.91,43.3Z"/><path class="f" d="M672.41,47.8c-.8-.5-.2.3-.3.3C672.71,48.3,672.91,48.3,672.41,47.8Z"/><path class="f" d="M667,46.6l-.5-.2C666.41,47.1,666.71,46.4,667,46.6Z"/><polygon class="f" points="668.31 54.2 668.81 53.6 668.41 53.2 668.31 54.2"/><path class="f" d="M657.91,47.1v.7a.74.74,0,0,0,.5-.6C658.51,47.1,658.31,46.9,657.91,47.1Z"/><path class="f" d="M648.11,57.4a1.36,1.36,0,0,0-.6,1.5A11.41,11.41,0,0,0,648.11,57.4Z"/><polygon class="f" points="669.41 31.1 669.21 30.6 669.31 31.6 669.41 31.1"/></svg>