<svg xmlns="http://www.w3.org/2000/svg" viewBox="0 0 415.68 67.64"><defs><style>.a{fill:#084f95;}.b{fill:#0b8a44;}.c{fill:#f69322;}</style></defs><path class="a" d="M78.4,0c1.38,0,3,.78,4.83,2.33a9.63,9.63,0,0,0,3.83,1.5,1.33,1.33,0,0,1,.67-.16h.67a.14.14,0,0,1,.16.12v0l.34-.16h.5q3.12,0,5.16,4.83l.67,2.83a6.38,6.38,0,0,0-.33,1.5l.16.34L94.9,14a13,13,0,0,0,3.66,9.38c.56,2.33.83,3.61.83,3.83a21.38,21.38,0,0,1-.66,2.5.31.31,0,0,1,.33.34,18.53,18.53,0,0,0-1,3,1.24,1.24,0,0,1,.17.5c-.31,0-1.08,1.5-2.33,4.5-1.23,1.11-1.84,3.88-1.84,8.33H93.9a1.23,1.23,0,0,1,.16.5,13.81,13.81,0,0,1-2.66,6.5,21.93,21.93,0,0,1-8.5,5.33l-3.17,2.34a6.07,6.07,0,0,1-2.67,1.5v-.17a16.36,16.36,0,0,1-4.66.83q-4.71,0-8.67-5.16-1.21-4.8-6.5-10.34a10.07,10.07,0,0,1-2.67-7h.17l-.17-.33v-.17c0-.11.06-.16.17-.16l-.17-.34v-.16a22.93,22.93,0,0,1,2.17-9.17,11.77,11.77,0,0,0,.33-2.83v-.34c0-.11.06-.16.17-.16-.56-2.42-.83-3.7-.83-3.84h.16a3.11,3.11,0,0,1-.33-1.5,12.46,12.46,0,0,1,5-10q2.09-1.17,5.17-5.84c0-1.25,1.66-2.58,5-4a10.85,10.85,0,0,0,4-1.5ZM74.06,20.66A8,8,0,0,0,74.73,24a16.05,16.05,0,0,1-2.33,6.66c-1.09,1.39-1.75,2.23-2,2.5a9,9,0,0,0-1.34,3.5,18.62,18.62,0,0,0,2,3.67c.45.42,1,1.92,1.67,4.5a.15.15,0,0,1-.13.17h0a4.37,4.37,0,0,0,1.5,3.33q1.26,0,2.5-5.33a21.65,21.65,0,0,1,5.5-5.17c1.53-1.89,2.37-3.33,2.5-4.33v-.84a12,12,0,0,0-2-3.16,15.25,15.25,0,0,0-.16-2.34,12.69,12.69,0,0,1,1.66-5,2,2,0,0,1,.17-1c-.47-2.33-1.2-3.5-2.17-3.5l-3.33-1.83h-.17Q74.06,18.76,74.06,20.66Z"/><path class="b" d="M220.14,1.64l.33.17a1.42,1.42,0,0,1,.67-.17h.17c.11,0,.16.06.16.17a.15.15,0,0,0,.17-.13v0q2.58,0,9.5,3.33c.92,0,1.42.06,1.5.17a8.88,8.88,0,0,1,2-.67h1.83a8,8,0,0,1,4,1.84,8.31,8.31,0,0,1,1.5,3l-.16.33.16.83a7.8,7.8,0,0,1-2.83,4.84q0,1.08-6.17,2l-5.13-1.5h-.17a.31.31,0,0,0-.33.29v0l.83,2.83v.34a4.2,4.2,0,0,1-1.5,3.5c-.33.77-.56,1.16-.67,1.16.11.56.22,1.61.34,3.17a12.06,12.06,0,0,0-.34,1.67q.92,4.57,2.34,6.33a.15.15,0,0,1-.13.17h0A22.74,22.74,0,0,1,229,38q0,6.91-2.66,10.84c-.2,1.44-.37,2.16-.5,2.16s0,.17.16.17a14,14,0,0,1-.33,1.83l.83,7q-1.25,7.66-7.66,7.67a7.63,7.63,0,0,1-6-3,15.51,15.51,0,0,1-.67-4c.22-.25.44-1.81.67-4.67l-1.17-5.16q0-2.39,2-7.5L215,38.64c0-.11,0-.17-.16-.17l.33-1.5a1.24,1.24,0,0,1-.17-.5h.17q0-1.2-4-9c-.11-.66-.22-1-.33-1a34.84,34.84,0,0,1,1-5.83,14.31,14.31,0,0,0,.16-2.17q-.87-1.83-6.5-1.83c-4.22-1.17-6.33-2.33-6.33-3.5-.31-.11-.81-.83-1.5-2.17q0-4.53,4.67-6.33a23.84,23.84,0,0,1,3.16-.33v.16l.34-.16a8.36,8.36,0,0,1,2.33.33.15.15,0,0,0,.17-.13v0a31,31,0,0,0,5,.34q1.2,0,3.83-2.34A8,8,0,0,1,220.14,1.64Z"/><path class="b" d="M17.31,4.27,27.69,18.75l.44.32V4.27H45V58.89H34.46L19.39,36.77V58.89H0V4.27Z"/><path class="b" d="M392.71,4.56a35.23,35.23,0,0,1,9.75,1.82,4.11,4.11,0,0,0,1.16.22A11,11,0,0,0,405.78,6,3.43,3.43,0,0,1,407,5.73c1.61,0,3.32,1.28,5.11,3.83a12.73,12.73,0,0,1,2.72,7.31,5,5,0,0,1-1.21,3.42,3.8,3.8,0,0,1-2.94,1.39,4.39,4.39,0,0,1-2.35-.58,42.07,42.07,0,0,1-4-3.43q-4.33-4-8.52-4.05a5,5,0,0,0-3.23,1,3.11,3.11,0,0,0-1.21,2.56c0,2.1,1.84,3.67,5.52,4.73a80.88,80.88,0,0,1,9.57,3.22q9.21,4.47,9.21,13.18a15.2,15.2,0,0,1-6.28,12.56q-6.43,5-16.8,5a45.69,45.69,0,0,1-9.75-1.11,23.12,23.12,0,0,1-7.4-2.58c-1.15-.77-2.2-2.45-3.12-5a22.24,22.24,0,0,1-1.39-7.57,4.2,4.2,0,0,1,.72-2.67,2.79,2.79,0,0,1,2.28-1.16,3.57,3.57,0,0,1,2.63,1.41,51.7,51.7,0,0,1,3.58,5.09,9.77,9.77,0,0,0,4.24,3.36,14.31,14.31,0,0,0,6,1.34,8.25,8.25,0,0,0,4.33-1,2.93,2.93,0,0,0,1.67-2.54,3.12,3.12,0,0,0-1.3-2.49,13.26,13.26,0,0,0-4.23-2A58.47,58.47,0,0,1,383,36a23.81,23.81,0,0,1-5.06-3.42q-5.7-5.05-5.7-11.48a13.86,13.86,0,0,1,1.48-6.19,15.41,15.41,0,0,1,4.19-5.22A22.24,22.24,0,0,1,392.71,4.56Z"/><path class="a" d="M343.28,4.93a15.55,15.55,0,0,1,3,2.9,16.12,16.12,0,0,1,4.22.11,10.68,10.68,0,0,1,5.86,2.93,11,11,0,0,1,2.94,5.87,15.3,15.3,0,0,1,.07,4.22,15.14,15.14,0,0,1,2.93,3,10.4,10.4,0,0,1,0,12.39,15.14,15.14,0,0,1-2.93,3,14.49,14.49,0,0,1-.11,4.21,10.76,10.76,0,0,1-2.9,5.87h0a10.73,10.73,0,0,1-5.83,2.93,16.12,16.12,0,0,1-4.22.11,15,15,0,0,1-3,2.9,10.46,10.46,0,0,1-12.43,0,15.25,15.25,0,0,1-3.05-2.9,16,16,0,0,1-4.21-.11,10.28,10.28,0,0,1-8.77-8.8,14.49,14.49,0,0,1-.11-4.21,15.14,15.14,0,0,1-2.93-3,10.4,10.4,0,0,1,0-12.39,15.14,15.14,0,0,1,2.93-3,14.56,14.56,0,0,1,.11-4.22,10.83,10.83,0,0,1,2.9-5.87h0a10.66,10.66,0,0,1,5.83-2.93,16,16,0,0,1,4.21-.11,15.13,15.13,0,0,1,3.08-2.9,10.45,10.45,0,0,1,6.2-2A10.64,10.64,0,0,1,343.28,4.93Zm-6.2,5.58a3.12,3.12,0,0,0-1.83.66,9.77,9.77,0,0,0-2.5,2.82l-1.43,2.39-2.67-.63a9.84,9.84,0,0,0-3.78-.25,3.09,3.09,0,0,0-1.72.8,3.22,3.22,0,0,0-.81,1.76,9.27,9.27,0,0,0,.22,3.78l.62,2.64-2.34,1.43A8.63,8.63,0,0,0,318,28.4,2.77,2.77,0,0,0,318,32a8.78,8.78,0,0,0,2.82,2.5L323.15,36l-.62,2.64a9.27,9.27,0,0,0-.22,3.78,3.22,3.22,0,0,0,.81,1.76,3.1,3.1,0,0,0,1.72.81,9.83,9.83,0,0,0,3.78-.26l2.67-.62,1.43,2.34a10.09,10.09,0,0,0,2.5,2.83,2.83,2.83,0,0,0,3.63,0,10.06,10.06,0,0,0,2.49-2.83l1.43-2.34,2.68.62a9.79,9.79,0,0,0,3.77.26,3.13,3.13,0,0,0,1.73-.81,3.31,3.31,0,0,0,.8-1.76,9.27,9.27,0,0,0-.22-3.78L350.91,36l2.31-1.46A8.78,8.78,0,0,0,356,32a2.77,2.77,0,0,0,0-3.59,8.63,8.63,0,0,0-2.82-2.49l-2.31-1.47.62-2.64a9.27,9.27,0,0,0,.22-3.78,3.31,3.31,0,0,0-.8-1.76,3.12,3.12,0,0,0-1.73-.8,9.79,9.79,0,0,0-3.77.25l-2.61.67L341.41,14a9.76,9.76,0,0,0-2.57-2.86A3.05,3.05,0,0,0,337.08,10.51Z"/><path class="c" d="M257.59,14.15v43h-8V6h28a17.88,17.88,0,0,1,13.05,5.39,18.35,18.35,0,0,1,1.5,24.31,123.34,123.34,0,0,1,9.1,19.91l.55,1.47h-8.66a125.91,125.91,0,0,0-6.71-15.18,16.13,16.13,0,0,1-1.43.88,26,26,0,0,1-7.88,3,17.57,17.57,0,0,1-8.73-.22,11.6,11.6,0,0,1-6.74-5.43A12.43,12.43,0,0,1,260,33.35a10.92,10.92,0,0,1,2.6-6.53,13.71,13.71,0,0,1,4.84-3.59,14.09,14.09,0,0,1,5.91-1.14A19.48,19.48,0,0,1,287,28.8q2.68-6.3-2.09-11.62a9.93,9.93,0,0,0-7.29-3Zm24.34,21.08q-3.84-4.69-8.8-5a5.2,5.2,0,0,0-2.49.44,5.06,5.06,0,0,0-1.94,1.46,3,3,0,0,0-.66,1.69,4.42,4.42,0,0,0,.62,2.38,3.63,3.63,0,0,0,2.2,1.69,9.2,9.2,0,0,0,4.66,0A18.76,18.76,0,0,0,281,35.8C281.32,35.62,281.64,35.38,281.93,35.23Z"/><path class="c" d="M121.38,14.47a6.41,6.41,0,0,0-2.94,3.34,3.79,3.79,0,0,0,1.87,4.62,39.21,39.21,0,0,0,9.17,4.14,30.66,30.66,0,0,1,13.09,7.33A13.32,13.32,0,0,1,143,52.73c-.26.28-.54.54-.82.79a20.78,20.78,0,0,1-12.76,4.66,25.25,25.25,0,0,1-6.2-.41,20.81,20.81,0,0,1-9.39-4.18,15.35,15.35,0,0,1-5.22-8.23,8.92,8.92,0,0,1,9.57-11.77A14.38,14.38,0,0,1,126,36.18a8.48,8.48,0,0,1,3.89,6.34,10.59,10.59,0,0,1-1,4.73l-7.81-2.68a2.69,2.69,0,0,0,.41-1.32,2.26,2.26,0,0,0-.33-1.46,3.07,3.07,0,0,0-2.18-1.1,1.92,1.92,0,0,0-2,.93c-.43.7-.22,1.85.64,3.47A9.35,9.35,0,0,0,123,49.3a13.45,13.45,0,0,0,3,.68,16.71,16.71,0,0,0,3,.13,17,17,0,0,0,3.88-.66,9.27,9.27,0,0,0,3.52-1.83,5.34,5.34,0,0,0,1.8-3.12,5.88,5.88,0,0,0-1.72-5.06,31,31,0,0,0-11.44-6,45.46,45.46,0,0,1-9.57-4.37,12.57,12.57,0,0,1-5-6.08,11.17,11.17,0,0,1-.08-7.67q4-9.19,14.56-10.23a26.77,26.77,0,0,1,16.11,3.29,13,13,0,0,1,5.64,7.43A9.8,9.8,0,0,1,145,24.7q-4.44,3.66-10.74,2.12t-7.48-7.33a9.66,9.66,0,0,1,.91-4.88l7.89,2.31a3.77,3.77,0,0,0-.37,1.62,1.36,1.36,0,0,0,.62,1.13,2,2,0,0,0,1.32.37,1.63,1.63,0,0,0,1.18-.55,1.56,1.56,0,0,0,.36-1.28,3.68,3.68,0,0,0-.51-1.36,9.19,9.19,0,0,0-5.65-3.24,22.1,22.1,0,0,0-6.78-.54A10.7,10.7,0,0,0,121.38,14.47Z"/><path class="a" d="M201.69,32.08c0,15.19-11,27.47-24.39,27.47S153,47.27,153,32.08,163.89,4.62,177.3,4.62,201.69,16.89,201.69,32.08Zm-39.5,0c0,9.78,6.55,17.77,15.11,17.77s15.1-8,15.1-17.77-6.56-17.77-15.1-17.77S162.19,22.31,162.19,32.08Z"/></svg>