<svg xmlns="http://www.w3.org/2000/svg" viewBox="0 0 388.94 126.29"><defs><style>.a{fill:#fff;}</style></defs><path class="a" d="M371.7,65.81H372c1.69,0,2.84.52,3.44,1.57Q377,68.52,377,72.24v.62a.14.14,0,0,1-.16.16.15.15,0,0,0,.16.16,17,17,0,0,0-.47,3,41,41,0,0,0,1.1,5.49,16.85,16.85,0,0,1-2,7.67,2.16,2.16,0,0,1-.16,1.1.15.15,0,0,0,.16.16L375.46,92c0,1.51.73,3.5,2.2,6a8.84,8.84,0,0,0,.47,2.19,1.16,1.16,0,0,0-.16.47,1.07,1.07,0,0,0,.16.47,26.86,26.86,0,0,1-2.51,7.84,3.38,3.38,0,0,0,2.19,3.44l1.73.47h1.56a2.61,2.61,0,0,0,1.26-.31,1.11,1.11,0,0,0,.47.16l.31-.16q3.45,1,4.54,3.13a8.94,8.94,0,0,1,1.26,3.77q0,2.07-2.67,4.38a19.89,19.89,0,0,1-3.13.94,25.62,25.62,0,0,1-6.58-1.25H375l-2.35.78a14,14,0,0,1-4.38.63c-1.94,0-3.87-1-5.8-3.13a7.82,7.82,0,0,1-1.57-4.23q0-1.26,1.88-7.21v-1.1a95,95,0,0,0-1.72-10.34V97.3a43,43,0,0,1,1.72-7.36,5.74,5.74,0,0,0,.47-2.82,8.18,8.18,0,0,0-.15-1.25,1.27,1.27,0,0,0,.15-.47,86,86,0,0,1-1.09-10q.59-4,2.19-5.8,2.9-3.13,4.7-3.13C369,66.13,369.93,65.92,371.7,65.81Z"/><path class="a" d="M124.47,64.4h.63a1.23,1.23,0,0,1,.63.16,1.11,1.11,0,0,1,.47-.16l.15.32a1.28,1.28,0,0,0,.47-.16,12.11,12.11,0,0,1,6,2,21.07,21.07,0,0,0,3.76,2.66q0,.7,6.42,1.88a17.39,17.39,0,0,1,3,2.35c.6.29,1.12,1.38,1.56,3.29a6.73,6.73,0,0,1-.78,3.76q0,.9-2.35,4.23a2.6,2.6,0,0,0-.31,1.25v.32c.21,1.77.31,2.76.31,3a.14.14,0,0,1-.16.16,1.16,1.16,0,0,1,.16.47q0,2.39-3.6,6.11a33.22,33.22,0,0,0-5.33,3.29c-.73.78-1.1,1.25-1.1,1.41a17.63,17.63,0,0,0,3.61,2.51c0,.18.52.76,1.56,1.72a34.06,34.06,0,0,1,1.26,6.42q0,1.11,3.76,2.82a5.07,5.07,0,0,1,2.82,4.39c-.6,2.46-1.33,4-2.2,4.7a8.65,8.65,0,0,1-4.38,2.82L140,126H138.1q-5.47-1.38-5.48-5,0-2.82-4.39-4.38a4.75,4.75,0,0,1-2.35-4.08c-.13,0-.23-.36-.31-1.1h.16a5.22,5.22,0,0,0-1.26-3h-.31a8.63,8.63,0,0,1-1.72,3.6l.15.63c-.21.94-.31,1.46-.31,1.56a17.51,17.51,0,0,1,2,5.8q0,4.16-6,6.11h-.15a1.17,1.17,0,0,1-.47-.15l-1.73.31a8.89,8.89,0,0,0-2.66-.63c-2.72-1.36-4.07-3.71-4.07-7q.15-1.36.15-1.56c0-.11-.05-.16-.15-.16l.15-.78V115l-1.25-4.39.16-.31a2.56,2.56,0,0,1-.32-1.1c0-1.1.84-3.81,2.51-8.15a8.7,8.7,0,0,0,.16-1.56q-2.82-8-2.82-9.56a13.92,13.92,0,0,1,2-6.27,14.6,14.6,0,0,0,.94-4.38,17.65,17.65,0,0,1-1.41-6.11q0-2.79,3.45-5.49l2-.15v.15a10,10,0,0,0,4.85-2.35A17.86,17.86,0,0,1,124.47,64.4Zm2,14.1h-2.66a6.2,6.2,0,0,1-.32,1.41l.16.32-.16.31q2.2,3.45,2.2,4.54v1.1q0,1.14-2.67,5.48v1.1a1.16,1.16,0,0,1,.32.63h.15a18.51,18.51,0,0,0,2.67-3.14,30.45,30.45,0,0,1,5.17-2c1.15-.76,1.72-1.23,1.72-1.41v-1.1c0-.52-.78-1.62-2.35-3.29a2.37,2.37,0,0,1-.31-.94.14.14,0,0,1,.15-.16l-.15-.78.47-2.19c0-.29-.37-.6-1.1-.94h-.16Z"/><path class="a" d="M56.17,72.48H73.62q5.3,0,7.73-.22a24.39,24.39,0,0,0,4.73-.9,4.65,4.65,0,0,1,1.12-.2,3.82,3.82,0,0,1,3.12,1.9,12.34,12.34,0,0,1,2.24,7.47A5.8,5.8,0,0,1,91.63,84a3,3,0,0,1-2.56,1.27,2.89,2.89,0,0,1-1.75-.46,8.47,8.47,0,0,1-1.68-2,7.25,7.25,0,0,0-3.78-3A26.26,26.26,0,0,0,74.34,79c-2.61,0-4.19.46-4.76,1.39a4.5,4.5,0,0,0-.52,2Q69,83.62,69,88.78c0,1.35.23,2.2.68,2.53s1.64.49,3.57.49a3,3,0,0,0,2.07-.6,3.3,3.3,0,0,0,.81-2.12,15.32,15.32,0,0,1,.49-2.7,2.79,2.79,0,0,1,.94-1.27,2.45,2.45,0,0,1,1.66-.61,2.9,2.9,0,0,1,2.38,1.32,9.62,9.62,0,0,1,1.2,3.48,26.77,26.77,0,0,1,.49,5.21,20.2,20.2,0,0,1-1.66,8.8,3,3,0,0,1-2.78,1.86,1.87,1.87,0,0,1-1.6-.59,6,6,0,0,1-.68-2.46q-.51-3.84-4.48-3.84a2.2,2.2,0,0,0-2.09,1,7.91,7.91,0,0,0-.56,3.58c0,1.06.08,2.44.22,4.12a21.49,21.49,0,0,0,.46,3.35,2.11,2.11,0,0,0,1.68,1.41,19.75,19.75,0,0,0,4.7.39q5.1,0,7.68-1.31a9.71,9.71,0,0,0,4.21-4.73,8.69,8.69,0,0,1,1.71-2.65,2.89,2.89,0,0,1,2-.68A2.84,2.84,0,0,1,94.42,104a5,5,0,0,1,.93,3.1,16.36,16.36,0,0,1-1,5.1,26.26,26.26,0,0,1-2.58,5.43,6.88,6.88,0,0,1-1.29,1.54,2.06,2.06,0,0,1-1.29.39,13,13,0,0,1-1.87-.2,39.25,39.25,0,0,0-5.81-.51H52.68a4.21,4.21,0,0,1-2.68-.76,2.6,2.6,0,0,1-1-2.16,2.09,2.09,0,0,1,.4-1.43,7,7,0,0,1,1.87-1.12,3.65,3.65,0,0,0,1.51-1.08,4.84,4.84,0,0,0,.76-1.9,67.37,67.37,0,0,0,1.12-13.82q0-13.1-1.62-16.53a2.46,2.46,0,0,0-.75-1,7.2,7.2,0,0,0-1.7-.65,2.45,2.45,0,0,1-1.93-2.58,3.09,3.09,0,0,1,.64-1.93,3,3,0,0,1,1.7-1.12A26.8,26.8,0,0,1,56.17,72.48Z"/><path class="a" d="M264.65,73.81l16.91,14.8q2.37,2.07,3.42,2.07c1.18,0,1.77-1.26,1.77-3.77a22,22,0,0,0-.51-5.84,3.87,3.87,0,0,0-2.14-2.34,5,5,0,0,1-1.86-1.38,3,3,0,0,1-.55-1.88q0-2.85,3.91-3.67a31.34,31.34,0,0,1,5.56-.34,27.37,27.37,0,0,1,7.1.62q3.12.94,3.12,3.59,0,2.2-2.55,3.33a5.37,5.37,0,0,0-1.39.78,2.75,2.75,0,0,0-.64,1q-.92,2.24-.95,8.49v11.06q0,2.55,0,7a34.48,34.48,0,0,1-.71,8.62q-.92,3.3-3.33,3.3a3.59,3.59,0,0,1-1.81-.44,18.85,18.85,0,0,1-2.53-2l-20.13-18c-1.41-1.26-2.57-1.9-3.5-1.9q-2.07,0-2.07,5.74a26,26,0,0,0,.53,6.45,4,4,0,0,0,2.15,2.54c1.52.75,2.28,1.73,2.28,2.92q0,4.73-10.15,4.72a17,17,0,0,1-7.12-1.2c-1.68-.81-2.53-1.94-2.53-3.41a2.69,2.69,0,0,1,.48-1.74,9.32,9.32,0,0,1,2.14-1.56,4.32,4.32,0,0,0,1.93-3.36,102.07,102.07,0,0,0,.58-12.59q0-8.76-1-12.77a5.73,5.73,0,0,0-.95-2.17,5.6,5.6,0,0,0-1.9-1.36,6.35,6.35,0,0,1-2.12-1.46,2.58,2.58,0,0,1-.59-1.73c0-2.17,1.86-3.54,5.6-4.1a54.2,54.2,0,0,1,6.65-.28,13.41,13.41,0,0,1,4,.43A9.36,9.36,0,0,1,264.65,73.81Z"/><path class="a" d="M339.61,114.08a6.88,6.88,0,0,0-2.58-.35,10.91,10.91,0,0,0-3.59,1.21,16.69,16.69,0,0,1-6.34,1.86,13.21,13.21,0,0,1-3.62-.31,14.49,14.49,0,0,1-4.17-1.62,12.71,12.71,0,0,1-1.2-.76l-1.9,5.24h-8l17.58-48h8.79l17.58,48h-8l-1.06-3A8.54,8.54,0,0,0,339.61,114.08Zm-18.06-6.24a6.07,6.07,0,0,0,1.17.9,9.57,9.57,0,0,0,2.28.93,6.62,6.62,0,0,0,1.79.1,11.4,11.4,0,0,0,3.79-1.24,15.76,15.76,0,0,1,6.28-1.79,13.48,13.48,0,0,1,2.68.14l-9.41-25.65-9.34,25.58A6.39,6.39,0,0,0,321.55,107.84Z"/><path class="a" d="M25.07,71.34A16.85,16.85,0,0,1,37.35,76.4a17.37,17.37,0,0,1,0,24.51A16.77,16.77,0,0,1,25.07,106H7.22a34.6,34.6,0,0,0,1.17,13.34H1.12a42,42,0,0,1-.86-14.27,45.46,45.46,0,0,1,2.41-9.75A47.7,47.7,0,0,0,5,86.09a40.59,40.59,0,0,0,0-7.65v-7.1H25.07ZM12.08,79a44.53,44.53,0,0,1-.14,7.85,48.74,48.74,0,0,1-2.38,9.66c-.2.64-.41,1.27-.62,1.89H25.07a9.41,9.41,0,0,0,6.86-2.82,10.09,10.09,0,0,0,2.86-6.88,9.94,9.94,0,0,0-2.86-6.84A9.33,9.33,0,0,0,25.07,79Z"/><path class="a" d="M168.59,79.26a6,6,0,0,0-2.75,3.14,3.53,3.53,0,0,0,1.75,4.34,36.84,36.84,0,0,0,8.62,3.89,28.81,28.81,0,0,1,12.31,6.9,12.5,12.5,0,0,1-.38,18.44,19.57,19.57,0,0,1-12,4.38,24,24,0,0,1-5.82-.38,19.61,19.61,0,0,1-8.83-3.93,14.47,14.47,0,0,1-4.91-7.74,8.38,8.38,0,0,1,9-11.06A13.52,13.52,0,0,1,173,99.67a8,8,0,0,1,3.66,6,10.16,10.16,0,0,1-1,4.45l-7.34-2.52a2.56,2.56,0,0,0,.38-1.24,2.18,2.18,0,0,0-.31-1.38,2.88,2.88,0,0,0-2-1,1.85,1.85,0,0,0-1.87.87c-.4.66-.2,1.74.61,3.26a8.85,8.85,0,0,0,5,4,12.74,12.74,0,0,0,2.79.63,15.78,15.78,0,0,0,2.86.12,15.09,15.09,0,0,0,3.65-.62,8.63,8.63,0,0,0,3.31-1.72,5,5,0,0,0,1.69-2.93,5.51,5.51,0,0,0-1.62-4.76A29.14,29.14,0,0,0,172,97.08a43.07,43.07,0,0,1-9-4.1,11.82,11.82,0,0,1-4.65-5.72,10.46,10.46,0,0,1-.07-7.21q3.79-8.64,13.68-9.61a25.16,25.16,0,0,1,15.13,3.13,12.27,12.27,0,0,1,5.31,7,9.22,9.22,0,0,1-1.62,8.36q-4.17,3.45-10.1,2t-7-6.89a9.07,9.07,0,0,1,.86-4.59l7.41,2.17a3.51,3.51,0,0,0-.34,1.52,1.31,1.31,0,0,0,.58,1.07,2,2,0,0,0,1.25.34,1.48,1.48,0,0,0,1.44-1.72,3.47,3.47,0,0,0-.48-1.27,8.67,8.67,0,0,0-5.31-3.06,21.08,21.08,0,0,0-6.37-.5A10,10,0,0,0,168.59,79.26Z"/><path class="a" d="M242.07,95.35c0,14.27-10.32,25.81-22.93,25.81s-22.86-11.54-22.86-25.81,10.25-25.82,22.86-25.82S242.07,81.07,242.07,95.35Zm-37.13,0c0,9.18,6.15,16.7,14.2,16.7s14.2-7.52,14.2-16.7-6.15-16.71-14.2-16.71S204.94,86.16,204.94,95.35Z"/><path class="a" d="M202.08,0c.83.08,1.25.18,1.25.31a1.27,1.27,0,0,1,.47-.15,13.86,13.86,0,0,1,8,5q0,3.33,2,4.7.9,0,1.41,2.82c-.65,2.72-1.44,4.07-2.35,4.07,0,.66-1.52,1-4.55,1.1a16.9,16.9,0,0,1-7.2-2.82,11.34,11.34,0,0,0-2.67-2.19h-.31q-4,0-4.7,4.85c0,2,.63,3.29,1.88,3.76q5,.79,6.27,2,4.23,3.57,4.23,5.49a22.08,22.08,0,0,0,7.36,4.23c1.15,1.35,1.93,2.35,2.35,3a16.87,16.87,0,0,1,.79,3.61v.47q0,3.33-2.51,8.14c-1.25,1.23-1.88,2.27-1.88,3.14-1.25,4.07-2.25,6.11-3,6.11a4.67,4.67,0,0,1-3.6,1.72c0,.13-.52.29-1.57.47a18.47,18.47,0,0,1-5.64-1.1c-.21,0-.31.06-.31.16l-.79-.16-4.7.94q-6.42-1-6.42-1.88-3.6-2.31-3.6-5.64A9.12,9.12,0,0,0,180,48.88a8.77,8.77,0,0,1-1.57-3.13c.31-2.51.68-3.76,1.1-3.76a6.11,6.11,0,0,1,5.64-3.45q5.28,0,7.83,6.11a3.52,3.52,0,0,0,1.41.47,8.18,8.18,0,0,1,1.25-.15c2,.21,3.35.57,3.92,1.09h.94c.47,0,.94-1,1.41-3.13V42.3Q200.63,39,198.63,39c0-.13-.63-.39-1.88-.78a.14.14,0,0,0-.16-.16,1.11,1.11,0,0,1-.47.16,18.48,18.48,0,0,1-4.7-2,11.38,11.38,0,0,1-3.76-4.7,5.63,5.63,0,0,0-3-2.82c-2.82-1.46-4.55-3.18-5.17-5.17l-.16-1.1a17.13,17.13,0,0,0,.63-3.29q3.28-4.18,3.29-6.26l-.16-1.41.16-.32a5,5,0,0,1-.47-1.88,6.06,6.06,0,0,1,2.5-3.91c0-.89,1-1.88,3-3l2.19-.47h2.35c.6,0,1.44.05,2.51.16l1.57-.47v.15A10.55,10.55,0,0,1,202.08,0Z"/><path class="a" d="M34,8.39l16.9,14.8c1.59,1.38,2.73,2.07,3.43,2.07,1.18,0,1.77-1.26,1.77-3.77a22,22,0,0,0-.51-5.84,3.87,3.87,0,0,0-2.14-2.34,5,5,0,0,1-1.87-1.38,3.06,3.06,0,0,1-.54-1.88q0-2.85,3.9-3.67A31.48,31.48,0,0,1,60.52,6a27.87,27.87,0,0,1,7.09.61q3.14,1,3.13,3.6,0,2.21-2.55,3.33a5.19,5.19,0,0,0-1.39.78,2.89,2.89,0,0,0-.65,1c-.61,1.49-.92,4.32-1,8.49V34.93q0,2.55,0,7a34.37,34.37,0,0,1-.72,8.62c-.61,2.2-1.71,3.3-3.32,3.3a3.63,3.63,0,0,1-1.82-.44,19.52,19.52,0,0,1-2.53-2l-20.13-18c-1.4-1.26-2.57-1.9-3.49-1.9q-2.07,0-2.07,5.74a26.19,26.19,0,0,0,.52,6.45,4,4,0,0,0,2.16,2.54c1.51.75,2.27,1.72,2.27,2.92q0,4.73-10.15,4.72a17,17,0,0,1-7.11-1.2c-1.69-.81-2.53-1.94-2.53-3.41a2.69,2.69,0,0,1,.48-1.74,9.19,9.19,0,0,1,2.13-1.56,4.32,4.32,0,0,0,1.94-3.36,104.23,104.23,0,0,0,.58-12.59q0-8.76-1-12.77A5.89,5.89,0,0,0,19.48,15a5.71,5.71,0,0,0-1.9-1.36,6.25,6.25,0,0,1-2.12-1.46,2.58,2.58,0,0,1-.6-1.73q0-3.25,5.6-4.1A52.5,52.5,0,0,1,27.12,6a13.33,13.33,0,0,1,3.95.43A9.38,9.38,0,0,1,34,8.39Z"/><path class="a" d="M136.78,34.73a6.82,6.82,0,0,0,0,9.59,6.58,6.58,0,0,0,4.79,2h27.54V53.9H141.57a13.92,13.92,0,0,1-10.17-4.21,14.4,14.4,0,0,1,0-20.33,14.17,14.17,0,0,1,1.42-1.24,13.46,13.46,0,0,1,.65-18.24A12.73,12.73,0,0,1,142.85,6h26.26v7.69H142.85a5.44,5.44,0,0,0-4,1.65,5.76,5.76,0,0,0-.11,8,26.27,26.27,0,0,1,3.93-3.14,16.19,16.19,0,0,1,10-2.75,12.81,12.81,0,0,1,5.28,1.51A12.31,12.31,0,0,1,162,22.57a9.87,9.87,0,0,1,1.79,6.1,11.25,11.25,0,0,1-2,6.06,10.59,10.59,0,0,1-6.58,4.35,15.89,15.89,0,0,1-7.86-.49,24.69,24.69,0,0,1-6.86-3.34,18.83,18.83,0,0,1-2.13-1.72A7.68,7.68,0,0,0,136.78,34.73Zm12.68-3.44a8,8,0,0,0,4.07.34,3.13,3.13,0,0,0,2-1.27,3.66,3.66,0,0,0,.69-1.93,2.41,2.41,0,0,0-.38-1.45,5.07,5.07,0,0,0-1.56-1.42,5,5,0,0,0-2.1-.58,8.71,8.71,0,0,0-5.37,1.58,15.79,15.79,0,0,0-2.56,2l.59.45A16.14,16.14,0,0,0,149.46,31.29Z"/><path class="a" d="M247.29.92l.29.15a1.11,1.11,0,0,1,.58-.15h.15a.13.13,0,0,1,.15.15c.09,0,.14-.05.14-.15q2.28,0,8.35,2.93,1.21,0,1.32.15A7.46,7.46,0,0,1,260,3.41h1.61A7,7,0,0,1,265.16,5a7.58,7.58,0,0,1,1.32,2.64l-.15.29.15.73a6.86,6.86,0,0,1-2.5,4.25c0,.64-1.8,1.22-5.42,1.76L254,13.37h-.14c-.2,0-.3.12-.3.3l.74,2.49v.29A3.63,3.63,0,0,1,253,19.52c-.29.69-.49,1-.59,1a26.44,26.44,0,0,1,.3,2.78,11,11,0,0,0-.3,1.47c.54,2.68,1.22,4.54,2.05,5.56,0,.1-.05.15-.14.15a19.59,19.59,0,0,1,.73,2.34c0,4.06-.78,7.23-2.34,9.53-.18,1.27-.32,1.9-.44,1.9s0,.15.14.15a11.31,11.31,0,0,1-.29,1.61l.73,6.15q-1.09,6.74-6.74,6.74a6.73,6.73,0,0,1-5.27-2.64,13.62,13.62,0,0,1-.59-3.51c.2-.22.39-1.59.59-4.1l-1-4.55a21,21,0,0,1,1.76-6.59l1.17-4.1c0-.1,0-.15-.14-.15l.29-1.31a1.17,1.17,0,0,1-.15-.44h.15q0-1.07-3.51-7.91c-.1-.59-.2-.88-.3-.88a31.38,31.38,0,0,1,.88-5.13,12.16,12.16,0,0,0,.15-1.9q-.77-1.62-5.72-1.62c-3.71-1-5.56-2-5.56-3.07-.27-.1-.71-.73-1.32-1.91q0-4,4.1-5.56a20.15,20.15,0,0,1,2.78-.3v.15l.3-.15a7.27,7.27,0,0,1,2.05.3.13.13,0,0,0,.15-.15,27.26,27.26,0,0,0,4.39.29c.71,0,1.83-.68,3.37-2.05A6.91,6.91,0,0,1,247.29.92Z"/><path class="a" d="M355.51,7.72a13.6,13.6,0,0,1,2.68,2.55,14.16,14.16,0,0,1,3.7.09,9.45,9.45,0,0,1,5.16,2.58,9.76,9.76,0,0,1,2.58,5.16,13.38,13.38,0,0,1,.06,3.7,13.28,13.28,0,0,1,2.58,2.68,9.1,9.1,0,0,1,0,10.89,13.28,13.28,0,0,1-2.58,2.68,12.62,12.62,0,0,1-.09,3.7,9.58,9.58,0,0,1-2.55,5.16h0a9.46,9.46,0,0,1-5.13,2.58,14.16,14.16,0,0,1-3.7.09,13.6,13.6,0,0,1-2.68,2.55,9.18,9.18,0,0,1-10.92,0,13.6,13.6,0,0,1-2.68-2.55,14.16,14.16,0,0,1-3.7-.09,9,9,0,0,1-7.7-7.74,12.27,12.27,0,0,1-.1-3.7,13.28,13.28,0,0,1-2.58-2.68,9.14,9.14,0,0,1,0-10.89,13.28,13.28,0,0,1,2.58-2.68,12.27,12.27,0,0,1,.1-3.7,9.49,9.49,0,0,1,2.54-5.16h0a9.46,9.46,0,0,1,5.13-2.58,14.16,14.16,0,0,1,3.7-.09,13.19,13.19,0,0,1,2.71-2.55,9.14,9.14,0,0,1,10.89,0Zm-5.44,4.9a2.7,2.7,0,0,0-1.61.58,8.6,8.6,0,0,0-2.19,2.48L345,17.74l-2.35-.54a8.49,8.49,0,0,0-3.32-.23,2.71,2.71,0,0,0-1.52.71,2.94,2.94,0,0,0-.71,1.55,8.09,8.09,0,0,0,.2,3.32l.54,2.32-2,1.28a7.75,7.75,0,0,0-2.48,2.2,2.43,2.43,0,0,0,0,3.15,7.75,7.75,0,0,0,2.48,2.2l2,1.28-.54,2.32a8.09,8.09,0,0,0-.2,3.32,2.94,2.94,0,0,0,.71,1.55,2.71,2.71,0,0,0,1.52.71,8.49,8.49,0,0,0,3.32-.23l2.35-.54,1.26,2.06a8.6,8.6,0,0,0,2.19,2.48,2.48,2.48,0,0,0,3.19,0,8.91,8.91,0,0,0,2.19-2.48l1.26-2.06,2.35.54a8.48,8.48,0,0,0,3.32.23,2.67,2.67,0,0,0,1.51-.71,2.87,2.87,0,0,0,.71-1.55,8.25,8.25,0,0,0-.19-3.32L362.25,35l2-1.28a7.64,7.64,0,0,0,2.48-2.2,2.43,2.43,0,0,0,0-3.15,7.64,7.64,0,0,0-2.48-2.2l-2-1.28.55-2.32a8.25,8.25,0,0,0,.19-3.32,2.87,2.87,0,0,0-.71-1.55,2.67,2.67,0,0,0-1.51-.71,8.48,8.48,0,0,0-3.32.23l-2.35.54-1.26-2.06a8.91,8.91,0,0,0-2.19-2.48A2.71,2.71,0,0,0,350.07,12.62Z"/><path class="a" d="M280.2,14.6V52.37h-7V7.48h24.62a15.71,15.71,0,0,1,11.48,4.74,16.12,16.12,0,0,1,1.32,21.36,109.67,109.67,0,0,1,8,17.5l.48,1.29h-7.6A112.82,112.82,0,0,0,305.56,39a13.7,13.7,0,0,1-1.26.77,22.64,22.64,0,0,1-6.92,2.65,15.37,15.37,0,0,1-7.67-.2,10.21,10.21,0,0,1-5.93-4.77,11,11,0,0,1-1.49-6,9.61,9.61,0,0,1,2.29-5.74,11.9,11.9,0,0,1,4.26-3.16,12.39,12.39,0,0,1,5.18-1,17.11,17.11,0,0,1,12,5.9q2.35-5.53-1.83-10.21a8.74,8.74,0,0,0-6.42-2.68Zm21.4,18.53q-3.39-4.13-7.74-4.41a4.64,4.64,0,0,0-3.9,1.67,2.74,2.74,0,0,0-.58,1.48,4,4,0,0,0,.55,2.1,3.18,3.18,0,0,0,1.94,1.48,7.83,7.83,0,0,0,4.09,0,16,16,0,0,0,4.8-1.83C301.06,33.48,301.34,33.3,301.6,33.13Z"/><path class="a" d="M117.94,4.26c0,.15-.07.23-.15.23-2.35,0-2.81,4.4-2.88,5.54V43.37c-.08,6.83-8,12.37-17.77,12.37S79.37,50.2,79.29,43.37V10c-.07-1.14-.53-5.54-2.88-5.54-.08,0-.16-.08-.16-.23a.16.16,0,0,1,.16-.15H91.67a.15.15,0,0,1,.15.15c0,.15-.07.23-.15.23-2.43,0-2.81,4.4-2.89,5.54v30.3c.08,3.19,2.66,6.3,8.51,6.3s8-3.42,8.12-6.45V10c-.07-1.14-.45-5.54-2.88-5.54-.08,0-.08-.08-.08-.23s0-.15.08-.15h15.26A.15.15,0,0,1,117.94,4.26Z"/></svg>