<svg id="Layer_1" data-name="Layer 1" xmlns="http://www.w3.org/2000/svg" viewBox="0 0 460 200"><defs><style>.cls-1{fill:#084f95;}.cls-2{fill:#0b8a44;}.cls-3{fill:#f69322;}</style></defs><path class="cls-1" d="M93.1,111.51a5.27,5.27,0,0,1,5,2.95,13.34,13.34,0,0,1,.47,3.42c0,.63-.11.94-.31.94l.15.31a18.54,18.54,0,0,1-.93,3.57l1.86,6.38v.15q0,2-2.17,7.16a11.75,11.75,0,0,0-.31,2.33V140a25.25,25.25,0,0,1,1.71,7.31,25.28,25.28,0,0,1-2.18,8.24l.15.31a14.23,14.23,0,0,0-.62,2.8c.26,0,.47.73.62,2.18q.2,0,.78,1.71a8.08,8.08,0,0,0-.15,1.24,1.22,1.22,0,0,0,.15.47,8.4,8.4,0,0,1-1.55,3.42q-1.44,3-6.69,3c-2.93,0-4.84-1.71-5.75-5.13l-.16-1.4a6.21,6.21,0,0,1,.31-1.55,8.3,8.3,0,0,1-.93-2.64c-.23,0-.54-1.25-.93-3.74q0-.34,1.86-6.06a25.55,25.55,0,0,0,.31-3.11v-1.87l-1.71-6.68v-.16h.16a1.25,1.25,0,0,1-.16-.46,1.28,1.28,0,0,1,.16-.47,1.16,1.16,0,0,0-.16-.47,40.83,40.83,0,0,1,1.71-7,5.54,5.54,0,0,1,.47-1.87,1.22,1.22,0,0,1-.15-.47h.15a1.18,1.18,0,0,1-.15-.46l.15-.31-.15-.31.15-.78a41.87,41.87,0,0,1-.62-5.44,10.83,10.83,0,0,1,1.86-5.29c2.42-2.28,4.9-3.42,7.47-3.42Z"/><path class="cls-2" d="M351.75,141l6.37,13.65a9.41,9.41,0,0,0,1.52,2.47,3.35,3.35,0,0,0,1.85.8q2.43.36,2.43,2.46c0,1.64-1,2.81-3,3.53s-5.21,1.08-9.7,1.08a71.64,71.64,0,0,1-11.29-.64,5.18,5.18,0,0,1-2.68-1.23,3,3,0,0,1-1-2.24,2.22,2.22,0,0,1,.52-1.57,4.81,4.81,0,0,1,1.94-1c1.06-.36,1.58-1,1.58-1.82,0-1.51-.91-2.39-2.72-2.66a64.15,64.15,0,0,0-8.26-.41c-3,0-4.77.18-5.36.54a2.76,2.76,0,0,0-.94,1.21,4,4,0,0,0-.4,1.69,1.21,1.21,0,0,0,.28,1,9.11,9.11,0,0,0,1.87.72,2.45,2.45,0,0,1,2.06,2.43q0,4-9.6,4a31.64,31.64,0,0,1-8-.74,3,3,0,0,1-2.36-3.1,2.3,2.3,0,0,1,.52-1.62,4.6,4.6,0,0,1,1.87-1,7.28,7.28,0,0,0,3.32-2.18,32.55,32.55,0,0,0,3.22-6l4.75-10.41a82.91,82.91,0,0,0,3.52-8.57,19.87,19.87,0,0,0,.93-5.58,17.81,17.81,0,0,1,.35-4,5,5,0,0,1,1.43-2.21,8,8,0,0,1,5.93-2.36,9.87,9.87,0,0,1,6.5,2.66Q343.54,123.44,351.75,141Zm-23.44,4.25h6.6c1.21,0,1.82-.27,1.82-.81q0-1.11-2.53-5.46a18.18,18.18,0,0,0-1.75-2.66,1.72,1.72,0,0,0-1.28-.67c-.81,0-1.48.75-2,2.25-.09.21-.42,1-1,2.4a18.93,18.93,0,0,0-1.41,4.11C326.76,145,327.27,145.23,328.31,145.23Z"/><path class="cls-2" d="M49.22,117.13a32.67,32.67,0,0,1,9.1,1.72,4.17,4.17,0,0,0,1.08.2,10.26,10.26,0,0,0,2-.6,3.12,3.12,0,0,1,1.14-.21q2.26,0,4.77,3.58a11.88,11.88,0,0,1,2.51,6.8,4.62,4.62,0,0,1-1.13,3.18A3.49,3.49,0,0,1,66,133.1a4,4,0,0,1-2.19-.54,37.7,37.7,0,0,1-3.71-3.2q-4-3.77-8-3.77a4.62,4.62,0,0,0-3,.91A2.89,2.89,0,0,0,48,128.89q0,2.93,5.15,4.41a75.07,75.07,0,0,1,8.93,3q8.59,4.19,8.59,12.3a14.17,14.17,0,0,1-5.86,11.72q-6,4.65-15.67,4.65a43,43,0,0,1-9.09-1,21.38,21.38,0,0,1-6.91-2.41c-1.08-.71-2-2.28-2.91-4.69a20.78,20.78,0,0,1-1.3-7.06,4,4,0,0,1,.67-2.5,2.61,2.61,0,0,1,2.13-1.07,3.31,3.31,0,0,1,2.45,1.31,46.81,46.81,0,0,1,3.34,4.75,9.12,9.12,0,0,0,4,3.13,13.32,13.32,0,0,0,5.61,1.25,7.77,7.77,0,0,0,4-.93,2.72,2.72,0,0,0,1.55-2.37A2.92,2.92,0,0,0,51.45,151a12.46,12.46,0,0,0-3.94-1.82,53,53,0,0,1-7.35-2.77,22.65,22.65,0,0,1-4.72-3.19q-5.31-4.71-5.32-10.71a13,13,0,0,1,1.38-5.78,14.52,14.52,0,0,1,3.91-4.87A20.8,20.8,0,0,1,49.22,117.13Z"/><path class="cls-2" d="M169.59,118.23h17.76a21.92,21.92,0,0,0,5.22-.78,7,7,0,0,1,1.78-.27q2.73,0,5.31,4a15.24,15.24,0,0,1,2.58,8.32,5,5,0,0,1-1.79,4.28,5.25,5.25,0,0,1-3.23,1,5,5,0,0,1-3.1-1,10.46,10.46,0,0,1-2.6-3.28,12.72,12.72,0,0,0-1.75-2.73,2.1,2.1,0,0,0-1.55-.64,1.86,1.86,0,0,0-1.78,1,8,8,0,0,0-.54,3.44v18.87a10.85,10.85,0,0,0,.6,4.21,4.17,4.17,0,0,0,2.29,2,7.64,7.64,0,0,1,2.48,1.46,2.66,2.66,0,0,1,.66,1.91c0,1.61-1.1,2.82-3.29,3.6s-5.55,1.18-10.09,1.18q-8.36,0-12.4-1.38c-2.26-.76-3.4-2-3.4-3.71a2.42,2.42,0,0,1,1.22-2.15,22.37,22.37,0,0,1,2.39-.81,2.66,2.66,0,0,0,1.77-1.42,14.46,14.46,0,0,0,.79-4q.27-2.62.5-8.5t.24-10.19a13.94,13.94,0,0,0-.47-4.31c-.32-.86-.83-1.29-1.55-1.29-.88,0-1.73.63-2.56,1.89a19.8,19.8,0,0,1-3.71,4.55A5.5,5.5,0,0,1,158,134.9a3.77,3.77,0,0,1-3-1.36,5.12,5.12,0,0,1-1.18-3.49,13.19,13.19,0,0,1,.94-4.6,18.76,18.76,0,0,1,2.53-4.63q2.56-3.43,5-3.44a6.71,6.71,0,0,1,1.55.21c1.22.24,2.21.41,3,.5A23.49,23.49,0,0,0,169.59,118.23Z"/><path class="cls-3" d="M257.72,117.23q9,8.61,17.51,17.68,8.52-9.06,17.55-17.68h6.91v47.65H292V129.27q-5.64,5.53-11.12,11.49a52.21,52.21,0,0,1,4.42,7.53q3.56,8.9-1.27,13.17a13.08,13.08,0,0,1-17.55,0q-4.82-4.28-1.26-13.17a53,53,0,0,1,4.41-7.53q-5.47-6-11.12-11.49v35.61h-7.63V117.23Zm15.22,39.23a3.43,3.43,0,0,0,2.31.86,3.47,3.47,0,0,0,2.31-.86q1.47-1.23-.24-5.33a37.74,37.74,0,0,0-2.09-3.8,41.35,41.35,0,0,0-2.05,3.8Q271.47,155.23,272.94,156.46Z"/><path class="cls-3" d="M122.5,125.09a6,6,0,0,0-2.73,3.11,3.5,3.5,0,0,0,1.74,4.31,36.7,36.7,0,0,0,8.55,3.87,28.58,28.58,0,0,1,12.22,6.84,12.41,12.41,0,0,1-.38,18.3,19.34,19.34,0,0,1-11.9,4.34,23.3,23.3,0,0,1-5.79-.37,19.49,19.49,0,0,1-8.75-3.9,14.4,14.4,0,0,1-4.88-7.68,8.32,8.32,0,0,1,8.93-11,13.42,13.42,0,0,1,7.34,2.41,8,8,0,0,1,3.62,5.92,10,10,0,0,1-.95,4.41l-7.29-2.5a2.48,2.48,0,0,0,.38-1.23,2.17,2.17,0,0,0-.31-1.37,2.89,2.89,0,0,0-2-1,1.8,1.8,0,0,0-1.84.87c-.4.65-.2,1.73.59,3.23a8.78,8.78,0,0,0,5,3.94,13.54,13.54,0,0,0,2.78.63,17.47,17.47,0,0,0,2.83.12,15.52,15.52,0,0,0,3.63-.62,8.49,8.49,0,0,0,3.28-1.71,4.92,4.92,0,0,0,1.68-2.91,5.46,5.46,0,0,0-1.61-4.72,28.86,28.86,0,0,0-10.67-5.61A42.64,42.64,0,0,1,117,138.7a11.73,11.73,0,0,1-4.62-5.68,10.4,10.4,0,0,1-.06-7.15q3.75-8.58,13.58-9.54a25,25,0,0,1,15,3.11,12.17,12.17,0,0,1,5.27,6.93,9.13,9.13,0,0,1-1.61,8.3q-4.14,3.42-10,2t-7-6.84a9,9,0,0,1,.86-4.55l7.35,2.15a3.44,3.44,0,0,0-.34,1.51A1.29,1.29,0,0,0,136,130a2,2,0,0,0,1.23.34,1.47,1.47,0,0,0,1.1-.51,1.5,1.5,0,0,0,.34-1.2,3.49,3.49,0,0,0-.48-1.26,8.56,8.56,0,0,0-5.27-3,20.49,20.49,0,0,0-6.33-.5A10,10,0,0,0,122.5,125.09Z"/><path class="cls-1" d="M241.55,127.26a.15.15,0,0,1-.15.15c-.15,0-.22-.07-.22-.15,0-2.26-4.6-2.71-5.73-2.71H218.87v11.9h10.85c1.13-.07,5.73-.45,5.73-2.78,0-.08.07-.16.22-.16a.17.17,0,0,1,.16.16v14.69c0,.08-.08.08-.16.08s-.22,0-.22-.08c0-2.33-4.6-2.71-5.73-2.79H218.87v12h16.58c1.13-.08,5.73-.46,5.73-2.79,0-.08.07-.15.22-.15a.15.15,0,0,1,.15.15v11.91h-35c-.07,0-.07-.08-.07-.23s0-.15.07-.15c2.34,0,2.79-4.45,2.87-5.5V121.31c-.08-1.13-.53-5.51-2.87-5.51-.07,0-.07-.07-.07-.22s0-.15.07-.15h35Z"/><path class="cls-1" d="M64.25,43.93h1.09q4.81.57,4.82,4.19a9,9,0,0,1-.47,3.11l.16.63a4.35,4.35,0,0,1-.16.62A11.29,11.29,0,0,0,71.4,57l.47,1.71a12.79,12.79,0,0,1-1.24,5.91,34.85,34.85,0,0,0-1.09,5.13,19.62,19.62,0,0,0,1.86,6.68l.47,2v1.87q0,2.53-3,7.77a19.4,19.4,0,0,0-.31,3.58l.15,1.09h-.15a3.54,3.54,0,0,1,.31,1.4q-.47,6.45-5.91,8.08h-.94l-.62-.15a1.26,1.26,0,0,1-.62.15c-3-.9-5-2.15-5.91-3.73a3.4,3.4,0,0,1-1.09-1.4v-.31a.14.14,0,0,1,.16-.15l-.47-1.25a18,18,0,0,0,.16-2.17,6.49,6.49,0,0,0-3.58-6.07,8.94,8.94,0,0,0-1.86-1.71q-1.56-1-2.49-5.29l.15-.77a8.8,8.8,0,0,0-2.33-6.07L43,73a60.55,60.55,0,0,1,1.4,7.15l-1.09,3.27c-.36,0-.78,1.19-1.24,3.58a60.15,60.15,0,0,1,1.08,7.62l-.31.15.16.78V96q-2,5.61-4.82,6.69a7,7,0,0,1-3.27.62c-2.69-.62-4-1.24-4-1.86-1.35-1.48-2-2.62-2-3.42A8.78,8.78,0,0,1,29,97.1l-.16-.77A30.23,30.23,0,0,0,31,86.53a47.55,47.55,0,0,0-1.71-6.84,1.62,1.62,0,0,0-.16-.78q0-2.49,2.8-10.73a20.25,20.25,0,0,0,.47-3.11,69,69,0,0,1-2.18-8.71c-.1,0-.21-.15-.31-.46q.54-5.49,1.71-6.22a6.67,6.67,0,0,1,2.95-3.89,7.51,7.51,0,0,1,4.36-1.55h.77c1.56,0,3.53,1.6,5.91,4.82a4.8,4.8,0,0,0,3.73,5,9.12,9.12,0,0,1,3.89,5.13.14.14,0,0,0-.15.16l.31.15c0,.21,0,.32-.16.32.11,1.39.16,2.43.16,3.11v2l-.16.93a1.51,1.51,0,0,1,.16.78v.15a1.15,1.15,0,0,1-.16.62c0,.5.83,1.38,2.49,2.65a1.11,1.11,0,0,0-.16-.47q0-2.37,3.42-8.08a6.71,6.71,0,0,1,.32-1.71c0-.45-.37-2.57-1.09-6.38a11.27,11.27,0,0,1,3.11-7.77C62.85,44.5,63.84,43.93,64.25,43.93Z"/><path class="cls-2" d="M255.32,44.66l.31.15a1.26,1.26,0,0,1,.62-.15h.16a.14.14,0,0,1,.16.15.13.13,0,0,0,.15-.15q2.41,0,8.86,3.11c.86,0,1.33,0,1.4.15a8.05,8.05,0,0,1,1.87-.62h1.71A7.37,7.37,0,0,1,274.29,49a7.88,7.88,0,0,1,1.4,2.8l-.15.31.15.78a7.3,7.3,0,0,1-2.64,4.51c0,.67-1.92,1.3-5.76,1.87l-4.82-1.4h-.15c-.21,0-.31.13-.31.31l.78,2.64v.31a3.91,3.91,0,0,1-1.4,3.27c-.32.72-.52,1.09-.63,1.09a25.62,25.62,0,0,1,.31,3,13.72,13.72,0,0,0-.31,1.55c.57,2.86,1.3,4.82,2.18,5.91,0,.11-.05.16-.15.16a19.29,19.29,0,0,1,.77,2.49q0,6.45-2.49,10.1c-.18,1.35-.33,2-.46,2s.05.16.15.16a11.51,11.51,0,0,1-.31,1.71l.78,6.53q-1.17,7.15-7.15,7.15a7.13,7.13,0,0,1-5.6-2.8,14.73,14.73,0,0,1-.62-3.73c.21-.23.41-1.68.62-4.35l-1.09-4.82a22,22,0,0,1,1.87-7l1.24-4.35a.14.14,0,0,0-.15-.16l.31-1.4a1.08,1.08,0,0,1-.16-.46h.16q0-1.12-3.73-8.4c-.11-.62-.21-.93-.32-.93a33,33,0,0,1,.94-5.44,13.87,13.87,0,0,0,.15-2q-.81-1.71-6.06-1.71-5.91-1.62-5.91-3.26c-.29-.1-.75-.78-1.4-2q0-4.24,4.35-5.91a21.47,21.47,0,0,1,3-.31v.15l.31-.15a7.81,7.81,0,0,1,2.18.31c.1,0,.15-.05.15-.16a29.34,29.34,0,0,0,4.67.31c.75,0,1.94-.72,3.57-2.17A7.26,7.26,0,0,1,255.32,44.66Z"/><path class="cls-2" d="M129.23,67.36v8.22c0,5-.37,8.48-1.11,10.54q-2.4,6.54-10.51,9.47a32,32,0,0,1-11.12,1.82q-10.81,0-17.32-5.16a13.16,13.16,0,0,1-4.37-5.86,29.43,29.43,0,0,1-1.22-9.63q0-2.46.17-8.09c.07-2.65.1-4.4.1-5.25a12.13,12.13,0,0,0-.42-3.88,4.53,4.53,0,0,0-1.84-2c-1.48-1-2.22-2-2.22-3.23A3.07,3.07,0,0,1,80.5,52a6.26,6.26,0,0,1,3-1.38,45.54,45.54,0,0,1,8.76-.74,42.34,42.34,0,0,1,9.23.84c2.4.54,3.61,1.76,3.61,3.67a2.74,2.74,0,0,1-1,2.26,16,16,0,0,1-2,1,2.59,2.59,0,0,0-1.47,1.71,15.83,15.83,0,0,0-.38,4.11q0,2.94-.27,12.67Q99.73,81.94,103,85A9.83,9.83,0,0,0,110,87.47a11.74,11.74,0,0,0,4.89-1,7.76,7.76,0,0,0,3.33-2.71,8,8,0,0,0,1.25-2.94,23.07,23.07,0,0,0,.33-4.41V69a89.86,89.86,0,0,0-.48-10,3.43,3.43,0,0,0-2.18-2.31,8.37,8.37,0,0,1-2.39-1.41,2.16,2.16,0,0,1-.64-1.59c0-1.34.8-2.33,2.41-2.94a23.26,23.26,0,0,1,7.73-.93,22.66,22.66,0,0,1,7.57.91c1.56.61,2.34,1.57,2.34,2.9a2.15,2.15,0,0,1-.41,1.44,9.15,9.15,0,0,1-2.12,1.45,3.72,3.72,0,0,0-2,2.18A78.26,78.26,0,0,0,129.23,67.36Z"/><path class="cls-3" d="M152.43,78.4a6.77,6.77,0,0,0,0,9.51,6.56,6.56,0,0,0,4.76,2h27.33v7.56H157.19a13.83,13.83,0,0,1-10.09-4.18,14.27,14.27,0,0,1,0-20.18,15.19,15.19,0,0,1,1.4-1.23,13.36,13.36,0,0,1,.65-18.1,12.64,12.64,0,0,1,9.31-3.9h26.06v7.63H158.46a5.4,5.4,0,0,0-4,1.64,5.71,5.71,0,0,0-.11,7.94,26.86,26.86,0,0,1,3.9-3.11,16.13,16.13,0,0,1,9.89-2.74,12.73,12.73,0,0,1,5.23,1.5,12.13,12.13,0,0,1,4,3.63,9.77,9.77,0,0,1,1.78,6.06,11.32,11.32,0,0,1-2,6,10.57,10.57,0,0,1-6.53,4.31,15.75,15.75,0,0,1-7.8-.48,24.48,24.48,0,0,1-6.81-3.32,20.84,20.84,0,0,1-2.12-1.71A7.85,7.85,0,0,0,152.43,78.4ZM165,75a8,8,0,0,0,4,.34A3.08,3.08,0,0,0,171,74.05a3.47,3.47,0,0,0,.68-1.91,2.32,2.32,0,0,0-.37-1.44,4.92,4.92,0,0,0-1.54-1.4,4.84,4.84,0,0,0-2.09-.58,8.55,8.55,0,0,0-5.34,1.57,15.89,15.89,0,0,0-2.53,2c.19.13.38.28.59.44A15.89,15.89,0,0,0,165,75Z"/><path class="cls-1" d="M364.32,48.51a13.79,13.79,0,0,1,2.84,2.7,15.12,15.12,0,0,1,3.94.1,10,10,0,0,1,5.47,2.74,10.26,10.26,0,0,1,2.74,5.47,14.33,14.33,0,0,1,.06,3.94,13.78,13.78,0,0,1,2.74,2.83,9.68,9.68,0,0,1,0,11.57,14.07,14.07,0,0,1-2.74,2.84,13.14,13.14,0,0,1-.1,3.93,10,10,0,0,1-2.7,5.47h0a9.88,9.88,0,0,1-5.43,2.74,14.7,14.7,0,0,1-3.94.1,14.12,14.12,0,0,1-2.84,2.71,9.75,9.75,0,0,1-11.59,0,14.12,14.12,0,0,1-2.84-2.71,14.68,14.68,0,0,1-3.94-.1,9.6,9.6,0,0,1-8.17-8.21,13.13,13.13,0,0,1-.11-3.93,14.29,14.29,0,0,1-2.73-2.84,9.68,9.68,0,0,1,0-11.57,14,14,0,0,1,2.73-2.83,13.19,13.19,0,0,1,.11-3.94,10,10,0,0,1,2.7-5.47h0A10,10,0,0,1,346,51.31a15.11,15.11,0,0,1,3.94-.1,13.42,13.42,0,0,1,2.87-2.7,9.66,9.66,0,0,1,11.56,0Zm-5.78,5.2a2.91,2.91,0,0,0-1.71.61A9.19,9.19,0,0,0,354.5,57l-1.33,2.19-2.5-.59a9.13,9.13,0,0,0-3.52-.24,2.93,2.93,0,0,0-1.61.76,3,3,0,0,0-.75,1.64,8.89,8.89,0,0,0,.2,3.52l.59,2.47-2.16,1.36a8.24,8.24,0,0,0-2.63,2.33,2.57,2.57,0,0,0,0,3.35,8.13,8.13,0,0,0,2.63,2.33l2.16,1.37L345,79.91a8.89,8.89,0,0,0-.2,3.52,3,3,0,0,0,.75,1.64,2.93,2.93,0,0,0,1.61.76,9.13,9.13,0,0,0,3.52-.24l2.5-.58,1.33,2.19a9.27,9.27,0,0,0,2.33,2.63,2.92,2.92,0,0,0,1.71.62,2.89,2.89,0,0,0,1.68-.62,9.25,9.25,0,0,0,2.32-2.63L363.88,85l2.49.58a9.18,9.18,0,0,0,3.53.24,2.93,2.93,0,0,0,1.61-.76,3.13,3.13,0,0,0,.75-1.64,8.73,8.73,0,0,0-.21-3.52l-.58-2.46,2.16-1.37a8.13,8.13,0,0,0,2.63-2.33,2.57,2.57,0,0,0,0-3.35,8.24,8.24,0,0,0-2.63-2.33l-2.16-1.36.58-2.47a8.73,8.73,0,0,0,.21-3.52,3.13,3.13,0,0,0-.75-1.64,2.93,2.93,0,0,0-1.61-.76,9.18,9.18,0,0,0-3.53.24l-2.49.59L362.54,57a9.17,9.17,0,0,0-2.32-2.64A2.87,2.87,0,0,0,358.54,53.71Z"/><path class="cls-3" d="M292.23,59.18V99.27h-7.46V51.62h26.14a16.65,16.65,0,0,1,12.17,5,17.1,17.1,0,0,1,1.41,22.68A116.42,116.42,0,0,1,333,97.9l.51,1.37h-8.07a119.38,119.38,0,0,0-6.26-14.16,15.35,15.35,0,0,1-1.33.82,24.26,24.26,0,0,1-7.36,2.81,16.42,16.42,0,0,1-8.14-.21A10.81,10.81,0,0,1,296,83.47a11.71,11.71,0,0,1-1.58-6.36A10.24,10.24,0,0,1,296.88,71a12.6,12.6,0,0,1,4.52-3.36,13.28,13.28,0,0,1,5.5-1.06,18.15,18.15,0,0,1,12.76,6.26q2.5-5.88-2-10.84a9.28,9.28,0,0,0-6.8-2.84Zm22.71,19.67q-3.58-4.38-8.21-4.69a5.2,5.2,0,0,0-2.32.41,5,5,0,0,0-1.82,1.37,2.81,2.81,0,0,0-.61,1.58,4.24,4.24,0,0,0,.58,2.22,3.37,3.37,0,0,0,2.05,1.57,8.49,8.49,0,0,0,4.35,0,17.33,17.33,0,0,0,5.09-1.95C314.37,79.22,314.67,79,314.94,78.85Z"/><path class="cls-1" d="M192.93,64.93c0-8.29,10-15.07,22.45-15.07A42.85,42.85,0,0,1,226,51.44a3.78,3.78,0,0,0,.91.08c.67,0,1.13-.15,1.13-.68,0-.08.07-.15.22-.15a.15.15,0,0,1,.15.15V64.41s-5.57-5.43-13-5.43c-6.4,0-11.6,2.64-11.6,6,0,6.94,25.25,6.41,25.25,21,0,8.29-10.1,15.07-22.54,15.07a42.84,42.84,0,0,1-10.62-1.58,4,4,0,0,0-.91-.07c-.6,0-1.13.15-1.13.67,0,.08-.07.08-.15.08s-.23,0-.23-.08V86.79s5.58,5.12,13,5.12c6.41,0,11.61-2.71,11.61-6C218.1,77.52,192.93,80.46,192.93,64.93Z"/></svg>