<svg id="Layer_1" data-name="Layer 1" xmlns="http://www.w3.org/2000/svg" viewBox="0 0 460 200"><defs><style>.cls-1{fill:#084f95;}.cls-2{fill:#0b8a44;}.cls-3{fill:#f69322;}</style></defs><path class="cls-1" d="M353.43,108.43h1.88c2,0,4.1,1.67,6.39,5a1.3,1.3,0,0,0,.31.79,11.35,11.35,0,0,0,4.37,9.36,6.62,6.62,0,0,1,1.72,3.74h.15c1.38-3.35,2.79-5.23,4.22-5.62a38.93,38.93,0,0,1,5.46-2.49l1.56-1.72a18.27,18.27,0,0,1,1.71-3.59c0-.57.68-1.56,2-3a5.93,5.93,0,0,1,2.65-1.25H387c2.55,0,4.37,1.93,5.46,5.77a39.44,39.44,0,0,0,.94,5.62c-.08.73-.18,1.09-.31,1.09l.15.31-.93,6.24.31.16-.16.78v.16a37.1,37.1,0,0,0,1.88,5.92v2.81c0,1.82-.78,4.79-2.34,8.89l.15.32a4.66,4.66,0,0,0-.47,1.56l.16.31-.16.31,1.1,8.42c0,2.58-.42,4.24-1.25,5,0,1.32-1.77,2.73-5.31,4.21h-2.34c-3.22-1.27-4.83-2.58-4.83-3.9-.24,0-.5-.68-.78-2q0-3.78,1.09-5.46a1.28,1.28,0,0,1-.16-.47,4.82,4.82,0,0,0,.63-2v-1.4a18.59,18.59,0,0,0-1.72-5.62,8.47,8.47,0,0,0-.15-1.4.14.14,0,0,1,.15-.16l-.15-.78q0-1.32,2.49-7a1.08,1.08,0,0,1,.16-.46q-.31-3-.78-3c0,.26-.57.89-1.72,1.87-1.35,1.12-2,1.9-2,2.34a2.65,2.65,0,0,1-.62.94l.16.78c-.52,2.08-.78,3.17-.78,3.28s-.45.72-.94,2.18c-.26,0-.88.52-1.87,1.56a26.48,26.48,0,0,1-3.12.47q-1.92,0-4.68-2.5a10.33,10.33,0,0,0-2.5-1.09,6.53,6.53,0,0,1-2.81-5.3c-.65-2.71-1.27-4.06-1.87-4.06s-1.06,1.35-1.4,4.06l.15.31v.78a27.2,27.2,0,0,0,1.72,6.55l-.16,1.4a17.6,17.6,0,0,1,.16,2c-.18,0-.44.83-.78,2.5-.26,0-.68,1.19-1.25,3.59-.28,0-.49.93-.62,2.8a18.93,18.93,0,0,1,.78,3.12l-.16.32a1.17,1.17,0,0,1,.16.62c-1.28,3-2.58,4.52-3.9,4.52,0,.37-1.15.58-3.43.63q-3.82-.9-5.15-3a9.45,9.45,0,0,1-1.25-4.83c0-1.09.67-3.43,2-7a5.36,5.36,0,0,0,.31-2v-1.09a1.21,1.21,0,0,0-.16-.63,1.51,1.51,0,0,0,.16-.78,33.75,33.75,0,0,0-1.09-4.36h.15a17.41,17.41,0,0,1-.93-4.06l.15-.31-.15-.31c0-.73.93-3.7,2.81-8.9a8.86,8.86,0,0,1,.46-2.18.14.14,0,0,0-.15-.16q.15-.81.15-.93a50.85,50.85,0,0,1-1.56-8.27,12.1,12.1,0,0,1,2.5-6.55c2.05-2.19,3.72-3.28,5-3.28A6.5,6.5,0,0,1,353.43,108.43Z"/><path class="cls-2" d="M88.05,107.18h.63a1.27,1.27,0,0,1,.62.16,1.34,1.34,0,0,1,.47-.16l.16.32a1.31,1.31,0,0,0,.46-.16,12,12,0,0,1,5.93,2,20.81,20.81,0,0,0,3.75,2.65q0,.7,6.39,1.87a18.18,18.18,0,0,1,3,2.34c.59.29,1.11,1.38,1.56,3.28a6.65,6.65,0,0,1-.78,3.74q0,.9-2.34,4.22a2.57,2.57,0,0,0-.32,1.24V129c.21,1.76.32,2.75.32,3a.15.15,0,0,1-.16.16,1.25,1.25,0,0,1,.16.46q0,2.38-3.59,6.09A33.51,33.51,0,0,0,99,142c-.72.78-1.09,1.25-1.09,1.41a17.36,17.36,0,0,0,3.59,2.49c0,.19.52.76,1.56,1.72a34.48,34.48,0,0,1,1.25,6.4c0,.72,1.25,1.66,3.74,2.8a5.05,5.05,0,0,1,2.81,4.37q-.9,3.68-2.18,4.68a8.71,8.71,0,0,1-4.37,2.81l-.78-.16h-1.87c-3.65-.91-5.46-2.57-5.46-5q0-2.81-4.37-4.37a4.7,4.7,0,0,1-2.34-4c-.13,0-.24-.37-.31-1.09h.15a5.29,5.29,0,0,0-1.25-3h-.31A8.59,8.59,0,0,1,86,154.61l.16.62c-.21.94-.31,1.46-.31,1.56a17.61,17.61,0,0,1,2,5.78q0,4.13-5.93,6.08h-.16a1.16,1.16,0,0,1-.47-.16l-1.71.32a8.6,8.6,0,0,0-2.65-.63q-4.07-2-4.06-7c.1-.91.16-1.43.16-1.56a.14.14,0,0,0-.16-.15l.16-.78v-1.1l-1.25-4.36.15-.32a2.6,2.6,0,0,1-.31-1.09q0-1.63,2.5-8.11a8.74,8.74,0,0,0,.15-1.56q-2.8-8-2.8-9.52a13.91,13.91,0,0,1,2-6.24,14.5,14.5,0,0,0,.94-4.36,17.46,17.46,0,0,1-1.4-6.09c0-1.84,1.14-3.67,3.43-5.46l2-.16v.16a10,10,0,0,0,4.83-2.34A18.19,18.19,0,0,1,88.05,107.18Zm2,14H87.43a7,7,0,0,1-.31,1.4l.15.31-.15.31q2.17,3.44,2.18,4.53v1.09q0,1.13-2.65,5.46v1.09a1.12,1.12,0,0,1,.31.63h.16a18.83,18.83,0,0,0,2.65-3.12,29.67,29.67,0,0,1,5.15-2c1.14-.76,1.71-1.22,1.71-1.41V128.4q0-.78-2.34-3.27a2.37,2.37,0,0,1-.31-.94.14.14,0,0,1,.16-.16l-.16-.78.47-2.18c0-.29-.37-.6-1.09-.94H93.2Z"/><path class="cls-3" d="M321.45,137.93l6.39,13.69a9.51,9.51,0,0,0,1.52,2.48,3.35,3.35,0,0,0,1.86.8c1.62.24,2.43,1.07,2.43,2.46q0,2.47-3,3.55c-2,.72-5.23,1.08-9.74,1.08a72.08,72.08,0,0,1-11.32-.64,5.18,5.18,0,0,1-2.69-1.23,3,3,0,0,1-1-2.25,2.19,2.19,0,0,1,.53-1.57,4.81,4.81,0,0,1,1.94-1q1.59-.54,1.59-1.83c0-1.51-.91-2.4-2.74-2.67a64.74,64.74,0,0,0-8.28-.4q-4.5,0-5.37.54a2.71,2.71,0,0,0-1,1.21,4,4,0,0,0-.4,1.69c0,.5.09.82.28,1a9,9,0,0,0,1.88.72,2.45,2.45,0,0,1,2.06,2.44q0,4-9.63,4a31.91,31.91,0,0,1-8-.74,3,3,0,0,1-2.36-3.11,2.35,2.35,0,0,1,.52-1.63,4.58,4.58,0,0,1,1.88-1,7.37,7.37,0,0,0,3.33-2.18,33.32,33.32,0,0,0,3.22-6l4.77-10.45a82,82,0,0,0,3.53-8.6,19.24,19.24,0,0,0,.93-5.59,17.21,17.21,0,0,1,.36-4,5,5,0,0,1,1.43-2.22,8,8,0,0,1,6-2.36,9.93,9.93,0,0,1,6.53,2.67Q313.2,120.32,321.45,137.93Zm-23.53,4.26h6.63c1.22,0,1.82-.27,1.82-.81,0-.75-.84-2.57-2.53-5.48a17.7,17.7,0,0,0-1.76-2.67,1.73,1.73,0,0,0-1.28-.68c-.81,0-1.49.76-2,2.27-.09.2-.42,1-1,2.4a18.82,18.82,0,0,0-1.42,4.12C296.37,141.91,296.89,142.19,297.92,142.19Z"/><path class="cls-3" d="M24.47,145V127.23a12.34,12.34,0,0,0-.47-4.38,3.92,3.92,0,0,0-2.57-1.5q-3-.88-3-3A2.61,2.61,0,0,1,19.67,116a7,7,0,0,1,3.72-.81c.54,0,1.88,0,4,.1h2q5.61,0,6.57-.08t6.88-.59a33.73,33.73,0,0,1,3.59-.2,21,21,0,0,1,9.87,2.26,13.08,13.08,0,0,1,7.53,12.44,13.34,13.34,0,0,1-5.27,11,18.93,18.93,0,0,1-12,3.89c-1.2,0-2.66-.08-4.4-.24-.92-.07-1.5-.1-1.72-.1-.65,0-1,.37-1,1.12v.2l.24,5.54a4.79,4.79,0,0,0,.59,2.42,5.69,5.69,0,0,0,2.14,1.64c1.47.79,2.2,1.64,2.2,2.57q0,2.13-3.24,3.28a29,29,0,0,1-9.2,1.15q-12.51,0-12.5-4.3a2.1,2.1,0,0,1,.54-1.55,11.71,11.71,0,0,1,2.53-1.56,2.46,2.46,0,0,0,1.42-1.79A71.86,71.86,0,0,0,24.47,145Zm15.25-22.07v11.49q0,1.32.57,1.59a5.76,5.76,0,0,0,2.47.47,5.66,5.66,0,0,0,3.75-1.25c1.46-1.19,2.2-3.2,2.2-6s-.86-5-2.57-6.35a6.25,6.25,0,0,0-3.92-1.25C40.55,121.62,39.72,122.06,39.72,122.94Z"/><path class="cls-2" d="M429.15,156.65a6.61,6.61,0,0,0-2.57-.34,10.54,10.54,0,0,0-3.57,1.2,16.77,16.77,0,0,1-6.31,1.85,13.07,13.07,0,0,1-3.61-.31,14.52,14.52,0,0,1-4.15-1.61,12.71,12.71,0,0,1-1.2-.76l-1.89,5.22h-8l17.51-47.81h8.75l17.5,47.81h-8l-1.07-3A8.49,8.49,0,0,0,429.15,156.65Zm-18-6.21a5.47,5.47,0,0,0,1.17.89,9.32,9.32,0,0,0,2.26.93,7,7,0,0,0,1.79.1,11.37,11.37,0,0,0,3.77-1.24,15.78,15.78,0,0,1,6.25-1.78,13.48,13.48,0,0,1,2.68.14l-9.37-25.54-9.31,25.47A6.39,6.39,0,0,0,411.17,150.44Z"/><path class="cls-3" d="M146,114.35a14.16,14.16,0,0,1,2.85,2.71,15.18,15.18,0,0,1,3.95.1,10,10,0,0,1,5.49,2.75A10.32,10.32,0,0,1,161,125.4a14,14,0,0,1,.07,3.95,13.92,13.92,0,0,1,2.75,2.85,9.72,9.72,0,0,1,0,11.6,13.63,13.63,0,0,1-2.75,2.84,13.26,13.26,0,0,1-.1,4,10.08,10.08,0,0,1-2.71,5.49h0a9.91,9.91,0,0,1-5.45,2.75,15.18,15.18,0,0,1-3.95.1,14.16,14.16,0,0,1-2.85,2.71,9.73,9.73,0,0,1-11.63,0,14.16,14.16,0,0,1-2.85-2.71,15.18,15.18,0,0,1-3.95-.1,9.63,9.63,0,0,1-8.2-8.24,13.26,13.26,0,0,1-.1-4,13.63,13.63,0,0,1-2.75-2.84,9.72,9.72,0,0,1,0-11.6,13.92,13.92,0,0,1,2.75-2.85,13.27,13.27,0,0,1,.1-3.95,10.08,10.08,0,0,1,2.71-5.49h0a10,10,0,0,1,5.46-2.75,15.18,15.18,0,0,1,3.95-.1,13.78,13.78,0,0,1,2.88-2.71,9.72,9.72,0,0,1,11.6,0Zm-5.8,5.22a2.91,2.91,0,0,0-1.71.61,9.24,9.24,0,0,0-2.34,2.65L134.8,125l-2.5-.58a9.23,9.23,0,0,0-3.54-.24,2.86,2.86,0,0,0-1.61.75,3.13,3.13,0,0,0-.76,1.65,8.83,8.83,0,0,0,.21,3.54l.58,2.47L125,134a8.18,8.18,0,0,0-2.64,2.33,2.6,2.6,0,0,0,0,3.37A8.18,8.18,0,0,0,125,142l2.16,1.37-.58,2.48a8.78,8.78,0,0,0-.21,3.53,3.09,3.09,0,0,0,.76,1.65,2.86,2.86,0,0,0,1.61.75,9.23,9.23,0,0,0,3.54-.24l2.5-.58,1.34,2.2a9.33,9.33,0,0,0,2.34,2.64,2.92,2.92,0,0,0,1.71.62,2.89,2.89,0,0,0,1.68-.62,9.48,9.48,0,0,0,2.34-2.64l1.34-2.2,2.5.58a9.23,9.23,0,0,0,3.54.24,2.86,2.86,0,0,0,1.61-.75,3,3,0,0,0,.75-1.65,8.58,8.58,0,0,0-.2-3.53l-.59-2.48,2.17-1.37a8.18,8.18,0,0,0,2.64-2.33,2.6,2.6,0,0,0,0-3.37,8.18,8.18,0,0,0-2.64-2.33l-2.17-1.37.59-2.47a8.63,8.63,0,0,0,.2-3.54,3,3,0,0,0-.75-1.65,2.86,2.86,0,0,0-1.61-.75,9.23,9.23,0,0,0-3.54.24l-2.5.58-1.34-2.19a9.39,9.39,0,0,0-2.34-2.65A2.87,2.87,0,0,0,140.19,119.57Z"/><path class="cls-2" d="M229.93,121.68V161.9h-7.48V114.09h26.22a16.7,16.7,0,0,1,12.22,5,17.17,17.17,0,0,1,1.41,22.75,116.87,116.87,0,0,1,8.51,18.64l.51,1.37h-8.1a119.3,119.3,0,0,0-6.28-14.21c-.43.3-.88.57-1.34.83a24.28,24.28,0,0,1-7.38,2.81,16.27,16.27,0,0,1-8.16-.21,10.83,10.83,0,0,1-6.32-5.08,11.76,11.76,0,0,1-1.58-6.38,10.27,10.27,0,0,1,2.44-6.11,12.63,12.63,0,0,1,4.53-3.36,13.19,13.19,0,0,1,5.52-1.07,18.24,18.24,0,0,1,12.81,6.28q2.51-5.9-2-10.88a9.35,9.35,0,0,0-6.83-2.84Zm22.79,19.73q-3.6-4.4-8.24-4.7a5,5,0,0,0-2.33.41,4.87,4.87,0,0,0-1.82,1.37,2.85,2.85,0,0,0-.62,1.58,4.17,4.17,0,0,0,.59,2.23,3.38,3.38,0,0,0,2,1.58,8.53,8.53,0,0,0,4.36,0,17.25,17.25,0,0,0,5.12-2C252.15,141.78,252.45,141.59,252.72,141.41Z"/><path class="cls-1" d="M171,138c0-15.28,11.12-25.71,24.88-25.71a25.13,25.13,0,0,1,8.54,1.51l-.15-.08a10.42,10.42,0,0,0,2.87.61c.61,0,1.06-.15,1.06-.68,0-.08.08-.15.23-.15a.15.15,0,0,1,.15.15v2.8l-.07-.08v11.72a15.51,15.51,0,0,0-12.63-6.73c-8.09,0-14.67,7.26-14.67,16.64,0,9.83,6,16.56,14.67,16.56a15.56,15.56,0,0,0,3.25-.31v-5.74c-.08-1.06-.45-5.52-2.87-5.52-.08,0-.08-.08-.08-.23s0-.15.08-.15h15.19a.16.16,0,0,1,.16.15c0,.15-.08.23-.16.23-2.42,0-2.79,4.46-2.87,5.52v9.3c.08,1.06.45,5.52,2.87,5.52a.16.16,0,0,1,.16.15c0,.15-.08.22-.16.22H195.92C182.16,163.7,171,153.27,171,138Z"/><path class="cls-1" d="M271.22,39.6l.31.15a1.26,1.26,0,0,1,.62-.15h.16a.14.14,0,0,1,.16.15.13.13,0,0,0,.15-.15q2.43,0,8.9,3.12a3.1,3.1,0,0,1,1.4.15,8.05,8.05,0,0,1,1.87-.62h1.72A7.44,7.44,0,0,1,290.25,44a8,8,0,0,1,1.41,2.81l-.16.31.16.78A7.31,7.31,0,0,1,289,52.39c0,.67-1.92,1.3-5.77,1.87l-4.83-1.4h-.16c-.21,0-.31.13-.31.31l.78,2.65v.31a3.89,3.89,0,0,1-1.41,3.28c-.31.73-.52,1.09-.62,1.09a28.84,28.84,0,0,1,.31,3,11.89,11.89,0,0,0-.31,1.56q.85,4.29,2.18,5.93c0,.11-.05.16-.15.16a21.64,21.64,0,0,1,.78,2.49q0,6.48-2.5,10.14c-.18,1.36-.34,2-.47,2a.14.14,0,0,0,.16.16,11.47,11.47,0,0,1-.31,1.72l.78,6.55q-1.17,7.17-7.18,7.17a7.17,7.17,0,0,1-5.62-2.8,15.06,15.06,0,0,1-.62-3.75c.21-.23.42-1.69.62-4.37l-1.09-4.83c0-1.49.63-3.83,1.87-7l1.25-4.37a.14.14,0,0,0-.15-.16l.31-1.4a1.16,1.16,0,0,1-.16-.47h.16q0-1.12-3.75-8.42c-.1-.63-.2-.94-.31-.94a32.2,32.2,0,0,1,.94-5.46,13.87,13.87,0,0,0,.15-2q-.81-1.71-6.08-1.71-5.93-1.65-5.93-3.28c-.28-.1-.75-.78-1.4-2,0-2.83,1.45-4.81,4.37-5.93a23.2,23.2,0,0,1,3-.31v.16l.31-.16a8.27,8.27,0,0,1,2.19.31.13.13,0,0,0,.15-.15,29.56,29.56,0,0,0,4.68.31c.76,0,1.95-.73,3.59-2.18A7.31,7.31,0,0,1,271.22,39.6Z"/><path class="cls-2" d="M144.42,40.92v.16l.32-.16c1.66,0,3.59,1.09,5.77,3.28a13,13,0,0,1,1.4,4v.16a1.26,1.26,0,0,0-.15.62l.15.94-.46,3.74a19.41,19.41,0,0,1,1.09,6.87c-.21.62-.37.93-.47.93l.16.32c-1.67,4.91-2.5,7.67-2.5,8.26,0,.21,0,.32-.16.32.73,3.4,1.1,5.33,1.1,5.77V77l-.16.93a5.23,5.23,0,0,1,.31,1.41,33.74,33.74,0,0,0-2,5.15,13.88,13.88,0,0,0-1.56,4c.11,1.51.16,2.34.16,2.5q0,2.81-2.81,6.71a11.37,11.37,0,0,1-3.74,1.4h-2.5a6,6,0,0,1-2.34-.62h-1.87a14.49,14.49,0,0,1-5.15,1.56l-1.09-.16-.31.16q-3.56,0-6.09-4.06a7.46,7.46,0,0,0-2.34-4.52,10.84,10.84,0,0,1-2.34-7.18,79.12,79.12,0,0,0,1.09-8.58A60.73,60.73,0,0,0,116,69.47a22,22,0,0,0-.15-2.81,27.6,27.6,0,0,1,2.34-7,17.26,17.26,0,0,0,.31-1.87q0-.85-1.41-7.64L117,48.72q0-3.51,5.61-7H124c.1,0,.15,0,.15.16l.32-.16h1.09c.1,0,.15,0,.15.16a.14.14,0,0,0,.16-.16l.62.16a4,4,0,0,0,.63-.16c1.38.29,2.16.65,2.34,1.09.65,0,1.32,1.15,2,3.44a39.64,39.64,0,0,1-1.1,4.52c0,.42.84,1.51,2.5,3.28a2.79,2.79,0,0,1,.62,1.56l-.15.78.15,1.09A71,71,0,0,1,131,65.41a9.09,9.09,0,0,0-.47,2v.78q0,1.68,2.18,4.84a17.44,17.44,0,0,1,.63,5.77q-1.87,6.63-1.87,6.87c0,.57.46,1.3,1.4,2.18,1.07,0,1.74-1.61,2-4.84,1.17-1.45,2-2.44,2.49-3a11.42,11.42,0,0,0,.47-2.5l-1.25-8a5,5,0,0,0-.15-1.25q0-4.17,2.81-10.61a9,9,0,0,0,.31-1.87,23.62,23.62,0,0,0-1.25-5.31,2.14,2.14,0,0,0-.16-1.09q.44-6.9,4.53-8.27A4.93,4.93,0,0,1,144.42,40.92Z"/><path class="cls-2" d="M227.48,46.49a32.91,32.91,0,0,1,9.13,1.72,4.17,4.17,0,0,0,1.08.2,9.89,9.89,0,0,0,2-.61,3.35,3.35,0,0,1,1.15-.2c1.51,0,3.1,1.2,4.78,3.58A12,12,0,0,1,248.17,58a4.74,4.74,0,0,1-1.13,3.2,3.56,3.56,0,0,1-2.76,1.3,4,4,0,0,1-2.19-.54,36.81,36.81,0,0,1-3.72-3.21q-4.06-3.8-8-3.79a4.7,4.7,0,0,0-3,.91,3,3,0,0,0-1.13,2.4c0,2,1.73,3.44,5.17,4.43a76.9,76.9,0,0,1,9,3Q249,69.91,249,78.06a14.23,14.23,0,0,1-5.88,11.76q-6,4.67-15.72,4.66a43.29,43.29,0,0,1-9.12-1A21.68,21.68,0,0,1,211.33,91q-1.62-1.1-2.93-4.72a21.09,21.09,0,0,1-1.3-7.08,3.94,3.94,0,0,1,.68-2.5,2.59,2.59,0,0,1,2.13-1.08A3.36,3.36,0,0,1,212.37,77a49.38,49.38,0,0,1,3.35,4.77,9.16,9.16,0,0,0,4,3.14,13.26,13.26,0,0,0,5.63,1.25,7.85,7.85,0,0,0,4.06-.92,2.75,2.75,0,0,0,1.55-2.39,2.89,2.89,0,0,0-1.22-2.33,12.51,12.51,0,0,0-4-1.83,53.27,53.27,0,0,1-7.37-2.78,22.13,22.13,0,0,1-4.73-3.2q-5.34-4.73-5.34-10.75a13,13,0,0,1,1.38-5.79,14.56,14.56,0,0,1,3.93-4.89A20.79,20.79,0,0,1,227.48,46.49Z"/><path class="cls-3" d="M168.16,75.27a6.78,6.78,0,0,0,0,9.54,6.52,6.52,0,0,0,4.77,2h27.42v7.58H172.93a13.88,13.88,0,0,1-10.13-4.18,14.35,14.35,0,0,1,0-20.25,15.24,15.24,0,0,1,1.41-1.24,13.37,13.37,0,0,1,.65-18.15,12.69,12.69,0,0,1,9.34-3.92h26.15v7.66H174.2a5.4,5.4,0,0,0-4,1.65,5.71,5.71,0,0,0-.11,8A26.77,26.77,0,0,1,174,60.75,16.17,16.17,0,0,1,183.94,58a12.77,12.77,0,0,1,5.26,1.51,12.18,12.18,0,0,1,4.05,3.64A9.79,9.79,0,0,1,195,69.23a11.26,11.26,0,0,1-2,6,10.53,10.53,0,0,1-6.55,4.33,15.88,15.88,0,0,1-7.83-.48,24.77,24.77,0,0,1-6.83-3.33,19.65,19.65,0,0,1-2.12-1.72A7.63,7.63,0,0,0,168.16,75.27Zm12.63-3.43a7.8,7.8,0,0,0,4.05.34,3.08,3.08,0,0,0,1.95-1.27,3.41,3.41,0,0,0,.69-1.92,2.33,2.33,0,0,0-.38-1.44,5,5,0,0,0-1.54-1.41,5.14,5.14,0,0,0-2.1-.58,8.59,8.59,0,0,0-5.35,1.58,15.51,15.51,0,0,0-2.54,2l.58.45A15.81,15.81,0,0,0,180.79,71.84Z"/><path class="cls-3" d="M302.83,54.16V94.39h-7.49V46.58h26.22a16.69,16.69,0,0,1,12.22,5.05,17.17,17.17,0,0,1,1.41,22.75A115.13,115.13,0,0,1,343.7,93l.52,1.37h-8.1a120.93,120.93,0,0,0-6.28-14.21,15.51,15.51,0,0,1-1.34.82,24.23,24.23,0,0,1-7.38,2.82,16.31,16.31,0,0,1-8.17-.21,10.85,10.85,0,0,1-6.31-5.08,11.59,11.59,0,0,1-1.58-6.38A10.19,10.19,0,0,1,307.49,66,12.63,12.63,0,0,1,312,62.68a13.27,13.27,0,0,1,5.53-1.07,18.22,18.22,0,0,1,12.8,6.28q2.5-5.89-2-10.88a9.29,9.29,0,0,0-6.83-2.85ZM325.61,73.9q-3.6-4.4-8.23-4.7a5,5,0,0,0-2.34.41A4.84,4.84,0,0,0,313.22,71a2.83,2.83,0,0,0-.61,1.58,4.16,4.16,0,0,0,.58,2.23,3.4,3.4,0,0,0,2.06,1.58,8.43,8.43,0,0,0,4.36,0,17.17,17.17,0,0,0,5.11-2C325,74.27,325.34,74.08,325.61,73.9Z"/><path class="cls-1" d="M82.11,44.93c0,.15-.07.22-.15.22-1.43,0-1.81.68-1.81,1.44a4.43,4.43,0,0,0,.68,2.19L97.54,76.84V50.52c-.08-1.21-.53-5.37-2.87-5.37-.08,0-.08-.07-.08-.22s0-.15.08-.15h15.19a.15.15,0,0,1,.15.15c0,.15-.07.22-.15.22-2.34,0-2.79,4.39-2.87,5.52V90.3c.08,1,.53,5.51,2.87,5.51A.16.16,0,0,1,110,96c0,.15-.07.22-.15.22H94.67c-.08,0-.08-.07-.08-.22s0-.16.08-.16c1.43,0,1.81-.68,1.81-1.43a5.93,5.93,0,0,0-.6-2.12L78.41,63.07V90.3c.07,1,.53,5.51,2.87,5.51a.16.16,0,0,1,.15.16c0,.15-.07.22-.15.22H66.08c-.07,0-.07-.07-.07-.22s0-.16.07-.16c2.42,0,2.8-4.46,2.88-5.51V50.67c-.08-1.13-.46-5.52-2.88-5.52-.07,0-.07-.07-.07-.22s0-.15.07-.15H82A.15.15,0,0,1,82.11,44.93Z"/><path class="cls-2" d="M394,70.48c0,14.22-10.28,25.71-22.83,25.71S348.4,84.7,348.4,70.48s10.21-25.7,22.76-25.7S394,56.27,394,70.48Zm-37,0c0,9.15,6.12,16.64,14.14,16.64s14.14-7.49,14.14-16.64-6.13-16.63-14.14-16.63S357,61.34,357,70.48Z"/></svg>