<svg xmlns="http://www.w3.org/2000/svg" viewBox="0 0 388.94 122.47"><defs><style>.a{fill:#fff;}</style></defs><path class="a" d="M371.7,62H372c1.69,0,2.84.52,3.44,1.56Q377,64.7,377,68.42v.63c0,.1,0,.15-.16.15a.14.14,0,0,0,.16.16,17.18,17.18,0,0,0-.47,3,41.28,41.28,0,0,0,1.1,5.48,16.89,16.89,0,0,1-2,7.68,2.18,2.18,0,0,1-.16,1.1.14.14,0,0,0,.16.15l-.16,1.41c0,1.52.73,3.5,2.2,6a9.06,9.06,0,0,0,.47,2.19.77.77,0,0,0,0,.94,26.69,26.69,0,0,1-2.51,7.83,3.39,3.39,0,0,0,2.19,3.45l1.73.47h1.56a2.61,2.61,0,0,0,1.26-.31,1.22,1.22,0,0,0,.47.15l.31-.15q3.45,1,4.54,3.13a8.89,8.89,0,0,1,1.26,3.76c0,1.38-.89,2.85-2.67,4.39a22.3,22.3,0,0,1-3.13.94,25.29,25.29,0,0,1-6.58-1.26H375l-2.35.79a14.34,14.34,0,0,1-4.38.62q-2.91,0-5.8-3.13a7.76,7.76,0,0,1-1.57-4.23q0-1.26,1.88-7.21V105.4a94.56,94.56,0,0,0-1.72-10.34V93.49a42.82,42.82,0,0,1,1.72-7.36,5.76,5.76,0,0,0,.47-2.83,8.32,8.32,0,0,0-.15-1.25,1.22,1.22,0,0,0,.15-.47,86,86,0,0,1-1.09-10c.39-2.68,1.12-4.62,2.19-5.79q2.9-3.14,4.7-3.14C369,62.31,369.93,62.1,371.7,62Z"/><path class="a" d="M124.47,60.59h.63a1.33,1.33,0,0,1,.63.15,1.22,1.22,0,0,1,.47-.15l.15.31a1.11,1.11,0,0,0,.47-.16,12.11,12.11,0,0,1,6,2,20.58,20.58,0,0,0,3.76,2.66q0,.7,6.42,1.88a18.49,18.49,0,0,1,3,2.35c.6.29,1.12,1.39,1.56,3.29a6.73,6.73,0,0,1-.78,3.76q0,.91-2.35,4.23a2.64,2.64,0,0,0-.31,1.26v.31c.21,1.78.31,2.77.31,3a.14.14,0,0,1-.16.16,1.07,1.07,0,0,1,.16.47c0,1.59-1.2,3.62-3.6,6.11a32.5,32.5,0,0,0-5.33,3.29c-.73.78-1.1,1.25-1.1,1.41a17.69,17.69,0,0,0,3.61,2.5c0,.19.52.76,1.56,1.73a33.75,33.75,0,0,1,1.26,6.42q0,1.09,3.76,2.82a5.06,5.06,0,0,1,2.82,4.39q-.9,3.67-2.2,4.7a8.78,8.78,0,0,1-4.38,2.82l-.79-.16H138.1q-5.47-1.36-5.48-5c0-1.88-1.46-3.35-4.39-4.39a4.73,4.73,0,0,1-2.35-4.07c-.13,0-.23-.37-.31-1.1h.16a5.29,5.29,0,0,0-1.26-3h-.31a8.62,8.62,0,0,1-1.72,3.61l.15.62c-.21.94-.31,1.47-.31,1.57a17.51,17.51,0,0,1,2,5.8q0,4.14-6,6.11h-.15a1.23,1.23,0,0,1-.47-.16l-1.73.31a8.61,8.61,0,0,0-2.66-.62c-2.72-1.36-4.07-3.71-4.07-7,.1-.92.15-1.44.15-1.57a.14.14,0,0,0-.15-.16l.15-.78v-1.1l-1.25-4.38.16-.32a2.49,2.49,0,0,1-.32-1.09q0-1.65,2.51-8.15a8.8,8.8,0,0,0,.16-1.57q-2.82-8-2.82-9.55a13.85,13.85,0,0,1,2-6.27,14.79,14.79,0,0,0,.94-4.39,17.6,17.6,0,0,1-1.41-6.11q0-2.77,3.45-5.48l2-.16v.16a10.23,10.23,0,0,0,4.85-2.35A17.86,17.86,0,0,1,124.47,60.59Zm2,14.1h-2.66a6.5,6.5,0,0,1-.32,1.41l.16.31-.16.31q2.2,3.45,2.2,4.55v1.09q0,1.14-2.67,5.49V89a1.17,1.17,0,0,1,.32.62h.15a18.13,18.13,0,0,0,2.67-3.13,29.57,29.57,0,0,1,5.17-2c1.15-.76,1.72-1.23,1.72-1.41v-1.1c0-.52-.78-1.61-2.35-3.29a2.33,2.33,0,0,1-.31-.94.13.13,0,0,1,.15-.15l-.15-.79.47-2.19c0-.29-.37-.6-1.1-.94h-.16Z"/><path class="a" d="M56.17,68.67H73.62c3.53,0,6.11-.08,7.73-.22a25.16,25.16,0,0,0,4.73-.9,4.29,4.29,0,0,1,1.12-.21,3.85,3.85,0,0,1,3.12,1.9,12.34,12.34,0,0,1,2.24,7.47,5.8,5.8,0,0,1-.93,3.48,3,3,0,0,1-2.56,1.28A3,3,0,0,1,87.32,81,8.58,8.58,0,0,1,85.64,79a7.3,7.3,0,0,0-3.78-3,26.63,26.63,0,0,0-7.52-.76c-2.61,0-4.19.47-4.76,1.39a4.54,4.54,0,0,0-.52,2Q69,79.79,69,85c0,1.36.23,2.2.68,2.53s1.64.49,3.57.49a3,3,0,0,0,2.07-.59,3.32,3.32,0,0,0,.81-2.12,15.13,15.13,0,0,1,.49-2.7,2.74,2.74,0,0,1,.94-1.27,2.46,2.46,0,0,1,1.66-.62A2.92,2.92,0,0,1,81.57,82a9.47,9.47,0,0,1,1.2,3.48,26.7,26.7,0,0,1,.49,5.21,20.15,20.15,0,0,1-1.66,8.79,3,3,0,0,1-2.78,1.87,1.88,1.88,0,0,1-1.6-.6,5.87,5.87,0,0,1-.68-2.46q-.51-3.83-4.48-3.83a2.22,2.22,0,0,0-2.09,1A8,8,0,0,0,69.41,99c0,1.06.08,2.43.22,4.12a21.3,21.3,0,0,0,.46,3.34,2.11,2.11,0,0,0,1.68,1.41,19.75,19.75,0,0,0,4.7.39q5.1,0,7.68-1.3a9.69,9.69,0,0,0,4.21-4.74,9,9,0,0,1,1.71-2.65,3,3,0,0,1,4.35.56,5,5,0,0,1,.93,3.11,16.31,16.31,0,0,1-1,5.09,25.78,25.78,0,0,1-2.58,5.43,7,7,0,0,1-1.29,1.55,2.06,2.06,0,0,1-1.29.39,11.92,11.92,0,0,1-1.87-.21,39.25,39.25,0,0,0-5.81-.51H52.68a4.15,4.15,0,0,1-2.68-.76,2.6,2.6,0,0,1-1-2.16,2.06,2.06,0,0,1,.4-1.42,6.77,6.77,0,0,1,1.87-1.12,3.76,3.76,0,0,0,1.51-1.09,4.78,4.78,0,0,0,.76-1.9,67.26,67.26,0,0,0,1.12-13.81q0-13.11-1.62-16.54a2.46,2.46,0,0,0-.75-1,7.32,7.32,0,0,0-1.7-.64A2.47,2.47,0,0,1,48.71,72a3.12,3.12,0,0,1,.64-1.94A3.05,3.05,0,0,1,51.05,69,28,28,0,0,1,56.17,68.67Z"/><path class="a" d="M264.65,70l16.91,14.8q2.37,2.07,3.42,2.07c1.18,0,1.77-1.25,1.77-3.77a21.91,21.91,0,0,0-.51-5.83,3.89,3.89,0,0,0-2.14-2.35,5,5,0,0,1-1.86-1.37,3,3,0,0,1-.55-1.89q0-2.85,3.91-3.66a30.39,30.39,0,0,1,5.56-.34,27.5,27.5,0,0,1,7.1.61q3.12.94,3.12,3.6,0,2.2-2.55,3.33a5.37,5.37,0,0,0-1.39.78,2.62,2.62,0,0,0-.64,1q-.92,2.25-.95,8.49V96.54q0,2.53,0,7a34.53,34.53,0,0,1-.71,8.62q-.92,3.28-3.33,3.29A3.59,3.59,0,0,1,290,115a17.31,17.31,0,0,1-2.53-2l-20.13-18c-1.41-1.27-2.57-1.9-3.5-1.9q-2.07,0-2.07,5.73a25.93,25.93,0,0,0,.53,6.45,4,4,0,0,0,2.15,2.55c1.52.75,2.28,1.72,2.28,2.92q0,4.73-10.15,4.72a16.84,16.84,0,0,1-7.12-1.21c-1.68-.8-2.53-1.94-2.53-3.41a2.65,2.65,0,0,1,.48-1.73,9,9,0,0,1,2.14-1.56,4.35,4.35,0,0,0,1.93-3.36,102.25,102.25,0,0,0,.58-12.6q0-8.76-1-12.76a5.66,5.66,0,0,0-.95-2.17,5.47,5.47,0,0,0-1.9-1.36,6.66,6.66,0,0,1-2.12-1.46,2.59,2.59,0,0,1-.59-1.73c0-2.17,1.86-3.54,5.6-4.11a54.8,54.8,0,0,1,6.65-.27,13.48,13.48,0,0,1,4,.42A9.74,9.74,0,0,1,264.65,70Z"/><path class="a" d="M339.61,110.26a6.85,6.85,0,0,0-2.58-.34,10.68,10.68,0,0,0-3.59,1.21A17.06,17.06,0,0,1,327.1,113a13.61,13.61,0,0,1-3.62-.31,15.1,15.1,0,0,1-4.17-1.62c-.41-.23-.81-.49-1.2-.76l-1.9,5.24h-8l17.58-48h8.79l17.58,48h-8l-1.06-3A8.75,8.75,0,0,0,339.61,110.26ZM321.55,104a6,6,0,0,0,1.17.89,9.57,9.57,0,0,0,2.28.93,6.62,6.62,0,0,0,1.79.11,11.43,11.43,0,0,0,3.79-1.25,16.09,16.09,0,0,1,6.28-1.79,14.28,14.28,0,0,1,2.68.14l-9.41-25.64L320.79,103A6.49,6.49,0,0,0,321.55,104Z"/><path class="a" d="M25.07,67.52a16.82,16.82,0,0,1,12.28,5.07,17.37,17.37,0,0,1,0,24.51,16.77,16.77,0,0,1-12.28,5.1H7.22a34.62,34.62,0,0,0,1.17,13.34H1.12a42,42,0,0,1-.86-14.27,45.7,45.7,0,0,1,2.41-9.76A47.79,47.79,0,0,0,5,82.28a40.69,40.69,0,0,0,0-7.66v-7.1H25.07Zm-13,7.62A44.63,44.63,0,0,1,11.94,83a48.81,48.81,0,0,1-2.38,9.65c-.2.64-.41,1.28-.62,1.9H25.07a9.42,9.42,0,0,0,6.86-2.83,10.07,10.07,0,0,0,2.86-6.88A9.94,9.94,0,0,0,31.93,78a9.33,9.33,0,0,0-6.86-2.86Z"/><path class="a" d="M168.59,75.45a6,6,0,0,0-2.75,3.13,3.53,3.53,0,0,0,1.75,4.34,36.88,36.88,0,0,0,8.62,3.9,28.78,28.78,0,0,1,12.31,6.89,12.5,12.5,0,0,1-.38,18.44,19.57,19.57,0,0,1-12,4.38,23.07,23.07,0,0,1-5.82-.38,19.61,19.61,0,0,1-8.83-3.93,14.47,14.47,0,0,1-4.91-7.74,9.68,9.68,0,0,1,1.95-8.63,9.72,9.72,0,0,1,7.05-2.43A13.52,13.52,0,0,1,173,95.85a8.06,8.06,0,0,1,3.66,6,10.13,10.13,0,0,1-1,4.45l-7.34-2.52a2.53,2.53,0,0,0,.38-1.24,2.18,2.18,0,0,0-.31-1.38,2.92,2.92,0,0,0-2-1,1.84,1.84,0,0,0-1.87.88c-.4.65-.2,1.74.61,3.26a8.8,8.8,0,0,0,5,4,12.72,12.72,0,0,0,2.79.64,17.83,17.83,0,0,0,2.86.12,15.59,15.59,0,0,0,3.65-.62,8.65,8.65,0,0,0,3.31-1.73,5,5,0,0,0,1.69-2.92,5.5,5.5,0,0,0-1.62-4.76A29.14,29.14,0,0,0,172,93.27a42.58,42.58,0,0,1-9-4.11,11.73,11.73,0,0,1-4.65-5.72,10.43,10.43,0,0,1-.07-7.2q3.79-8.65,13.68-9.62a25.17,25.17,0,0,1,15.13,3.14,12.2,12.2,0,0,1,5.31,7,9.23,9.23,0,0,1-1.62,8.36q-4.17,3.44-10.1,2t-7-6.9a9,9,0,0,1,.86-4.58l7.41,2.17a3.48,3.48,0,0,0-.34,1.52,1.29,1.29,0,0,0,.58,1.06,2,2,0,0,0,1.25.35,1.48,1.48,0,0,0,1.1-.52,1.46,1.46,0,0,0,.34-1.2,3.51,3.51,0,0,0-.48-1.28,8.66,8.66,0,0,0-5.31-3,20.76,20.76,0,0,0-6.37-.5A9.81,9.81,0,0,0,168.59,75.45Z"/><path class="a" d="M242.07,91.53c0,14.28-10.32,25.82-22.93,25.82s-22.86-11.54-22.86-25.82,10.25-25.82,22.86-25.82S242.07,77.25,242.07,91.53Zm-37.13,0c0,9.19,6.15,16.71,14.2,16.71s14.2-7.52,14.2-16.71-6.15-16.71-14.2-16.71S204.94,82.34,204.94,91.53Z"/><path class="a" d="M105.21,0a7,7,0,0,1,4.25,2.05,8.55,8.55,0,0,0,3.37,1.32,1.11,1.11,0,0,1,.58-.15H114a.13.13,0,0,1,.15.15l.29-.15h.44q2.75,0,4.54,4.25L120,10a5.38,5.38,0,0,0-.3,1.32l.15.29-.15.73a11.47,11.47,0,0,0,3.22,8.21c.49,2,.74,3.17.74,3.37a19.83,19.83,0,0,1-.59,2.19c.2,0,.29.13.29.3A15.53,15.53,0,0,0,122.5,29a1.3,1.3,0,0,1,.14.44q-.4,0-2,4Q119,34.87,119,40.72h-.15a1.12,1.12,0,0,1,.15.44,12.23,12.23,0,0,1-2.34,5.72,19.32,19.32,0,0,1-7.47,4.68l-2.79,2A5.11,5.11,0,0,1,104,54.93v-.14a14.87,14.87,0,0,1-4.1.73q-4.14,0-7.62-4.54-1.06-4.21-5.71-9.09a8.84,8.84,0,0,1-2.35-6.15h.15l-.15-.29V35.3c0-.09,0-.14.15-.14l-.15-.3v-.14a20.1,20.1,0,0,1,1.91-8.06,10.49,10.49,0,0,0,.29-2.49v-.29a.13.13,0,0,1,.15-.15c-.49-2.12-.74-3.25-.74-3.37H86A2.68,2.68,0,0,1,85.73,19a11,11,0,0,1,4.39-8.79c1.22-.68,2.74-2.39,4.54-5.12q0-1.65,4.4-3.52A9.27,9.27,0,0,0,102.57.29ZM101.4,18.16a7.13,7.13,0,0,0,.59,2.93,14.15,14.15,0,0,1-2,5.86c-1,1.22-1.54,2-1.76,2.2A7.77,7.77,0,0,0,97,32.23a16.14,16.14,0,0,0,1.75,3.22c.39.37.88,1.68,1.47,3.95a.13.13,0,0,1-.15.15,3.83,3.83,0,0,0,1.32,2.93c.73,0,1.47-1.56,2.2-4.69a19.13,19.13,0,0,1,4.83-4.54,9.23,9.23,0,0,0,2.2-3.81v-.73a10.84,10.84,0,0,0-1.76-2.78,14.05,14.05,0,0,0-.14-2.05,11.11,11.11,0,0,1,1.46-4.4,1.74,1.74,0,0,1,.15-.88c-.42-2.05-1-3.07-1.91-3.07l-2.93-1.61h-.14C102.72,15.62,101.4,17,101.4,18.16Z"/><path class="a" d="M229.79,1.44l.3.15a1.11,1.11,0,0,1,.58-.15h.15a.13.13,0,0,1,.15.15c.09,0,.14-.05.14-.15q2.28,0,8.35,2.93,1.22,0,1.32.15a7.46,7.46,0,0,1,1.76-.59h1.61a7,7,0,0,1,3.51,1.61A7.25,7.25,0,0,1,249,8.18l-.14.29.14.74a6.84,6.84,0,0,1-2.49,4.25c0,.63-1.8,1.22-5.42,1.75l-4.54-1.32h-.14q-.3,0-.3.3l.73,2.49V17a3.66,3.66,0,0,1-1.31,3.08c-.3.68-.49,1-.59,1a24.59,24.59,0,0,1,.29,2.79,12,12,0,0,0-.29,1.46A13.59,13.59,0,0,0,237,30.89c0,.09-.05.14-.15.14a17.86,17.86,0,0,1,.74,2.35q0,6.07-2.35,9.52c-.17,1.27-.31,1.9-.44,1.9a.13.13,0,0,0,.15.15,11,11,0,0,1-.29,1.61l.73,6.15q-1.1,6.75-6.74,6.74a6.71,6.71,0,0,1-5.27-2.64,13.62,13.62,0,0,1-.59-3.51c.2-.22.39-1.59.59-4.1l-1-4.54a21,21,0,0,1,1.76-6.6l1.17-4.1a.13.13,0,0,0-.14-.14l.29-1.32a1.12,1.12,0,0,1-.15-.44h.15q0-1.07-3.52-7.91c-.09-.59-.19-.88-.29-.88a30.42,30.42,0,0,1,.88-5.13,12.16,12.16,0,0,0,.15-1.9c-.52-1.08-2.42-1.61-5.72-1.61-3.71-1-5.56-2.05-5.56-3.08-.27-.1-.71-.73-1.32-1.9q0-4,4.1-5.57a19.74,19.74,0,0,1,2.78-.29v.14l.3-.14a7.3,7.3,0,0,1,2.05.29c.09,0,.14,0,.14-.15a27.27,27.27,0,0,0,4.4.3c.71,0,1.83-.69,3.37-2.05A6.93,6.93,0,0,1,229.79,1.44Z"/><path class="a" d="M51.52,3.76l9.13,12.72.38.29v-13H75.81v48H66.6L53.35,32.32V51.76h-17v-48Z"/><path class="a" d="M338,4.34a13.25,13.25,0,0,1,2.68,2.54,14.59,14.59,0,0,1,3.7.1,9.35,9.35,0,0,1,5.16,2.58,9.72,9.72,0,0,1,2.58,5.16,13.38,13.38,0,0,1,.06,3.7,13.28,13.28,0,0,1,2.58,2.68,9.14,9.14,0,0,1,0,10.89,13,13,0,0,1-2.58,2.67,12.69,12.69,0,0,1-.09,3.71,9.58,9.58,0,0,1-2.55,5.16h0a9.38,9.38,0,0,1-5.13,2.57,13.73,13.73,0,0,1-3.7.1A13.6,13.6,0,0,1,338,48.75a9.18,9.18,0,0,1-10.92,0,13.6,13.6,0,0,1-2.68-2.55,13.73,13.73,0,0,1-3.7-.1,9.4,9.4,0,0,1-5.16-2.57A9.58,9.58,0,0,1,313,38.37a12.69,12.69,0,0,1-.09-3.71A13,13,0,0,1,310.34,32a9.1,9.1,0,0,1,0-10.89,13.28,13.28,0,0,1,2.58-2.68,12.62,12.62,0,0,1,.09-3.7,9.54,9.54,0,0,1,2.55-5.16h0A9.33,9.33,0,0,1,320.72,7a14.59,14.59,0,0,1,3.7-.1,12.87,12.87,0,0,1,2.71-2.54,9.1,9.1,0,0,1,10.89,0Zm-5.44,4.9a2.75,2.75,0,0,0-1.62.58,8.77,8.77,0,0,0-2.19,2.48l-1.25,2.06-2.36-.55a8.64,8.64,0,0,0-3.32-.22,2.64,2.64,0,0,0-1.51.71,2.83,2.83,0,0,0-.71,1.54,8.24,8.24,0,0,0,.19,3.32l.55,2.32-2,1.29A7.74,7.74,0,0,0,315.85,25a2.44,2.44,0,0,0,0,3.16,7.51,7.51,0,0,0,2.48,2.19l2,1.29-.55,2.32a8.25,8.25,0,0,0-.19,3.32,2.87,2.87,0,0,0,.71,1.55,2.77,2.77,0,0,0,1.51.71,8.67,8.67,0,0,0,3.32-.23l2.36-.55,1.25,2.07A8.91,8.91,0,0,0,331,43.27a2.82,2.82,0,0,0,1.62.58,2.73,2.73,0,0,0,1.57-.58,8.77,8.77,0,0,0,2.2-2.48l1.25-2.07,2.36.55a8.67,8.67,0,0,0,3.32.23,2.77,2.77,0,0,0,1.51-.71,2.94,2.94,0,0,0,.71-1.55,8.25,8.25,0,0,0-.19-3.32l-.55-2.32,2-1.29a7.61,7.61,0,0,0,2.48-2.19,2.44,2.44,0,0,0,0-3.16,7.85,7.85,0,0,0-2.48-2.19l-2-1.29.55-2.32a8.24,8.24,0,0,0,.19-3.32,2.91,2.91,0,0,0-.71-1.54,2.64,2.64,0,0,0-1.51-.71,8.64,8.64,0,0,0-3.32.22l-2.36.55-1.25-2.06a8.63,8.63,0,0,0-2.2-2.48A2.66,2.66,0,0,0,332.58,9.24Z"/><path class="a" d="M262.71,12.44V50.2h-7V5.31H280.3a15.71,15.71,0,0,1,11.48,4.74,16.13,16.13,0,0,1,1.32,21.37,108.88,108.88,0,0,1,8,17.5l.48,1.28H294a112.82,112.82,0,0,0-5.9-13.34q-.61.42-1.26.78a22.83,22.83,0,0,1-6.93,2.64,15.49,15.49,0,0,1-7.67-.19,10.27,10.27,0,0,1-5.93-4.77,11.11,11.11,0,0,1-1.48-6,9.58,9.58,0,0,1,2.29-5.73,11.84,11.84,0,0,1,4.25-3.16,12.47,12.47,0,0,1,5.19-1,17,17,0,0,1,12,5.9q2.35-5.55-1.83-10.22a8.77,8.77,0,0,0-6.42-2.67ZM284.11,31q-3.39-4.12-7.74-4.42a4.79,4.79,0,0,0-2.19.39,4.46,4.46,0,0,0-1.71,1.29,2.64,2.64,0,0,0-.58,1.48,3.93,3.93,0,0,0,.55,2.09,3.2,3.2,0,0,0,1.93,1.49,8.08,8.08,0,0,0,4.1,0,16.42,16.42,0,0,0,4.8-1.84Q283.72,31.23,284.11,31Z"/><path class="a" d="M143,12.72a5.59,5.59,0,0,0-2.58,2.93,3.31,3.31,0,0,0,1.64,4.06,34.32,34.32,0,0,0,8.06,3.64,27,27,0,0,1,11.51,6.45A11.71,11.71,0,0,1,161.26,47a18.19,18.19,0,0,1-11.21,4.09,22,22,0,0,1-5.45-.35,18.4,18.4,0,0,1-8.25-3.67,13.55,13.55,0,0,1-4.59-7.24,9,9,0,0,1,1.82-8.07,9,9,0,0,1,6.59-2.27,12.61,12.61,0,0,1,6.91,2.27,7.51,7.51,0,0,1,3.42,5.57,9.37,9.37,0,0,1-.91,4.16l-6.86-2.35a2.52,2.52,0,0,0,.36-1.16,2,2,0,0,0-.29-1.29,2.76,2.76,0,0,0-1.92-1,1.72,1.72,0,0,0-1.74.82c-.38.62-.19,1.63.56,3.05a8.32,8.32,0,0,0,4.67,3.71,12.85,12.85,0,0,0,2.61.59,14.65,14.65,0,0,0,2.68.11,14.24,14.24,0,0,0,3.42-.58,8.13,8.13,0,0,0,3.09-1.61,4.67,4.67,0,0,0,1.58-2.74,5.12,5.12,0,0,0-1.52-4.44,27.29,27.29,0,0,0-10-5.29,40.42,40.42,0,0,1-8.41-3.83,11.07,11.07,0,0,1-4.35-5.35,9.82,9.82,0,0,1-.07-6.74q3.56-8.09,12.8-9A23.56,23.56,0,0,1,160.29,7.4a11.47,11.47,0,0,1,5,6.53,8.61,8.61,0,0,1-1.52,7.81q-3.9,3.23-9.44,1.87t-6.57-6.44a8.5,8.5,0,0,1,.8-4.29l6.93,2a3.35,3.35,0,0,0-.32,1.42,1.21,1.21,0,0,0,.55,1,1.87,1.87,0,0,0,1.16.32,1.38,1.38,0,0,0,1-.48A1.4,1.4,0,0,0,158.2,16a3.4,3.4,0,0,0-.45-1.19,8.14,8.14,0,0,0-5-2.86,19.63,19.63,0,0,0-6-.46A9.11,9.11,0,0,0,143,12.72Z"/><path class="a" d="M213.58,28.2c0,13.35-9.65,24.14-21.44,24.14S170.77,41.55,170.77,28.2s9.58-24.14,21.37-24.14S213.58,14.85,213.58,28.2Zm-34.72,0c0,8.59,5.75,15.62,13.28,15.62s13.28-7,13.28-15.62-5.76-15.62-13.28-15.62S178.86,19.61,178.86,28.2Z"/></svg>