<svg xmlns="http://www.w3.org/2000/svg" viewBox="0 0 631.62 591.21"><defs><style>.a{fill:#038b41;}.b{fill:#f59328;}.c{fill:#004c97;}</style></defs><path class="a" d="M42.34,132.7c-2.39.65-7.7-11.55-42.34,3.85,36.74,15,47.24,23.79,65.08,47.58,7-20.64,18.2-37.78,44.44-17.14-12.25-34.29-5.25-35,14-36.74-17.14-10.85-30.79-19.94-13.29-27.64-22,1.75-32.19-2.1-36-11.2-10.5,12.6-19.6-3.5-19.6-3.5S52.13,97,43.39,81.26c10.84,2.8,8.74-5.59,11.54-13.64,5.6,16.44,5.6,18.89,13.65,4.2-3.15,16.44-2.1,15,3.85,9.79C65.78,96,117.57,75,117.57,75s-35,11.19-20.3-32.54c-22.74,24.49-36.39,10.49-41.64-7-7.69,36.39-35.69,23.44-44.08,15C31.84,87.56,13.3,89.66.35,85.81c35.34,18.55,14.7,26.6,11.2,26.6,31.49,4.19,37.09,14,37.09,14s11.54-13.64,19.94.7c2.1-9.1,12.25,9.8,12.25,9.8s-9.8-11.55-14,8.75C63,136.2,46.19,131.65,42.34,132.7Z"/><path class="b" d="M140.34,62.36,127.85,164l22.44,5.69a.94.94,0,0,0,1.15-.78l4.19-30.54a.93.93,0,0,1,1.81-.15l9.79,31.2a.92.92,0,0,0,.7.63l23.48,4.83a.93.93,0,0,0,1.08-1.18l-16.92-56.17a.92.92,0,0,1,.12-.79l32.14-47.37a.93.93,0,0,0-.64-1.44l-24.54-3.23a.89.89,0,0,0-.88.39l-18,26a.93.93,0,0,1-1.68-.67l3.79-24.47a.93.93,0,0,0-.79-1.06l-23.68-3.25A.93.93,0,0,0,140.34,62.36Z"/><path class="c" d="M252.15,70.76c3.43,1.57,5.77,4,6.32,7,.57,3.2-1,6.48-3.9,9.24,3.73,1.55,6.31,4.09,6.88,7.29.52,2.88-.64,5.8-3,8.38,3.13,1.56,5.24,3.89,5.76,6.77s-.79,6.14-3.45,8.8c3.43,1.56,5.77,4,6.32,7,.58,3.2-.94,6.48-3.9,9.23,3.73,1.55,6.31,4.09,6.88,7.29,1.21,6.66-6.68,13.66-17.62,15.64s-20.77-1.83-22-8.48c-.58-3.2.94-6.48,3.89-9.24-3.73-1.54-6.3-4.08-6.88-7.28-.55-3,.79-6.15,3.45-8.8-3.43-1.57-5.77-4-6.32-7-.51-2.88.65-5.8,3-8.37-3.14-1.57-5.25-3.9-5.77-6.78-.58-3.2.94-6.48,3.89-9.24-3.73-1.55-6.3-4.09-6.88-7.29-.55-3,.79-6.14,3.45-8.8-3.42-1.56-5.77-4-6.31-7-.58-3.21.94-6.49,3.89-9.24-3.73-1.55-6.31-4.1-6.88-7.3-1.21-6.65,6.68-13.65,17.62-15.63s20.77,1.82,22,8.48c.58,3.19-.94,6.48-3.89,9.24,3.73,1.54,6.3,4.08,6.88,7.29C256.15,65,254.81,68.11,252.15,70.76Z"/><path class="b" d="M297.52,69.25c.2,6.22-.4,13-.75,19.76s-.44,13.52.69,19.36c.71,3.5,1.47,7,2.37,10.22.44,1.63.92,3.2,1.46,4.65a26.93,26.93,0,0,0,1.7,3.88,12.06,12.06,0,0,0,1.7,2.5,2.58,2.58,0,0,0,.95.73,2,2,0,0,0,.9.1A10.34,10.34,0,0,0,309,130c.3.86-.11,2.37.8,2.61a8,8,0,0,1,4,.92,4.71,4.71,0,0,1,1.65,2.16c.4.87-3.18,1.4-1.76,1.78-1.63.65-3.78,1.41-5.14,1.8s-2,.74-.15,1c.64.38,2.17.12,3.66-.28a20.64,20.64,0,0,1,2.15-.55,2.85,2.85,0,0,1,1.67,0c.86.36.86,1.11.83,1.87s-.09,1.52.83,1.86a48.82,48.82,0,0,0,4.93-2.57c1.67.08.16,3.06,1.38,2.35,4.2-1.4,8.47-5.07,12.54-8.55.3.34.83.48,1.09.79s.26.75-.68,1.81A79.84,79.84,0,0,1,321.15,148a37.86,37.86,0,0,1-10.89,3.67c-1.08.14-2.19.26-3.34.31a24.33,24.33,0,0,1-3.59-.16,22.8,22.8,0,0,1-7.34-2.09,25,25,0,0,1-6.14-4.25,30,30,0,0,1-2.32-2.51l-1-1.29-.89-1.3a42.52,42.52,0,0,1-4.82-10.16A88.38,88.38,0,0,1,277,111.29a212.71,212.71,0,0,1-.11-35.5c.41-5.77,1-11.49,1.66-17.14s1.5-11.29,2.29-16.64c.94-4.62,2.42-1.07,3.32,2.9-.3-1.31,1.05-1.15.74-2.44,1.36.15,3.32,2.89,3.17,8l.45-3.79c.6-1.2,1.35.17,2.25.27-.15,1.26-.3,2.52.16,2.58l1.8.21.6-5c-.15,1.27-.3,2.53.15,2.58l1.8.22c.15,2.58-1.2,6.24-1,8.8l1.35.16c.73-2.46.72-6.27,1-8.8.3,1.32.75,1.37,1.65,1.47,0,3.83-1.79,7.43-.84,11.32l.41-3.74C299.86,59.46,297.4,65.48,297.52,69.25Z"/><polygon class="a" points="474.55 135.46 474.55 153.65 351.91 153.65 351.91 58.83 370.11 58.83 370.11 135.46 474.55 135.46"/><polygon class="c" points="50.32 274.27 53.8 288.54 146.94 265.83 151.26 283.51 58.12 306.22 70.84 358.4 53.16 362.71 28.33 260.9 166 227.32 170.32 245.01 50.32 274.27"/><path class="c" d="M445.56,37.59c2.55,5.84,11.73,7.47,20.49,3.64s13.8-11.67,11.25-17.52c-1.41-3.23-4.86-5.16-9.13-5.61a8.21,8.21,0,0,0-.65-3.53c-1.52-3.46-5.38-5.43-10.09-5.67a7.8,7.8,0,0,0-.61-2.46c-2.22-5.08-9.45-7-17.06-4.87-4.13-2.18-10.4-2.16-16.49.5a23.29,23.29,0,0,0-8.88,6.64c-.63.22-1.26.46-1.9.73-8.76,3.83-13.8,11.68-11.24,17.52.08.19.19.36.28.54-3.57,3.8-5.06,8.36-3.42,12.1a9.51,9.51,0,0,0,6.47,5.11,8.77,8.77,0,0,0,.16,6.25c1.41,3.23,4.85,5.16,9.12,5.61a8.15,8.15,0,0,0,.65,3.55c1.41,3.22,4.85,5.16,9.12,5.6a8.12,8.12,0,0,0,.65,3.55c1.42,3.24,4.87,5.18,9.15,5.61a8.3,8.3,0,0,0,.65,3.65,9,9,0,0,0,4.86,4.53,10.49,10.49,0,0,0-1,4.87,12.51,12.51,0,0,0-7.31-2.87,8.1,8.1,0,0,0-.65-3.37c-1.41-3.22-4.83-5.15-9.07-5.6a8.1,8.1,0,0,0-.65-3.61c-2.56-5.84-11.73-7.47-20.5-3.64S386,80.51,388.53,86.35c1.4,3.22,4.82,5.15,9.07,5.61a8.08,8.08,0,0,0,.65,3.6c1.43,3.29,5,5.24,9.33,5.64a8.11,8.11,0,0,0,.66,3.37C410.19,109,416,111,422.56,110c3.73,3.86,11.45,4.56,18.9,1.3A24.86,24.86,0,0,0,447,108a24.9,24.9,0,0,0,6.48-1.86c7.88-3.45,12.73-10.13,11.77-15.69,4.75-4.06,6.95-9.4,5.08-13.68a8.89,8.89,0,0,0-4.85-4.53,9.3,9.3,0,0,0,.35-7.6c-1.42-3.23-4.87-5.17-9.15-5.61A8.09,8.09,0,0,0,456,55.4c-1.41-3.23-4.85-5.17-9.11-5.61a8.13,8.13,0,0,0-.66-3.55c-1.41-3.23-4.85-5.16-9.12-5.61a8,8,0,0,0-.65-3.54A9.5,9.5,0,0,0,430,32a8.77,8.77,0,0,0-.16-6.25c-.08-.18-.19-.35-.29-.53l.34-.36A15.15,15.15,0,0,0,435.16,26a7.88,7.88,0,0,0,.62,2.46c1.41,3.23,4.85,5.16,9.12,5.61A8.07,8.07,0,0,0,445.56,37.59Z"/><path class="b" d="M257.27,219.53c-.26.07-.16.32.55.38l.55-.33Z"/><path class="b" d="M261.84,221c.84-.06,1.84-.23,1.38-.69a20,20,0,0,0-2,.36c-.7-.06-1.19-.32-1.05-.45-.27.07-1.07-.25-1.49,0a6.56,6.56,0,0,0,3.24.57C262.17,220.85,261.91,220.91,261.84,221Z"/><path class="b" d="M314.57,258.3c0-.15-.05-.29-.08-.43C314.5,258,314.54,258.13,314.57,258.3Z"/><path class="b" d="M311.53,299.89c.08-.31.07-.45,0-.47C311.52,299.71,311.47,300,311.53,299.89Z"/><path class="b" d="M308.93,306.6l.17-.39A1,1,0,0,0,308.93,306.6Z"/><path class="b" d="M314.57,258.3l.15,1.11C314.87,259.45,314.67,258.83,314.57,258.3Z"/><path class="b" d="M271.34,221.88a3.52,3.52,0,0,0-.63,0l.58.09Z"/><path class="b" d="M305.31,242.55c-.07-.08-.14-.17-.22-.25a1.68,1.68,0,0,0-.32-.09C305,242.32,305.14,242.43,305.31,242.55Z"/><path class="b" d="M294.56,233.46c.26.19.54,0,.73-.09a1.48,1.48,0,0,1-.72-.2C294.53,233.23,294.53,233.31,294.56,233.46Z"/><path class="b" d="M274.12,224l-.4-.06Z"/><path class="b" d="M311,250.81a.28.28,0,0,0,0,.18A.22.22,0,0,0,311,250.81Z"/><path class="b" d="M258.53,228.7s0,0,0,.06S258.64,228.71,258.53,228.7Z"/><path class="b" d="M275.14,230.85h-.23a.47.47,0,0,0-.06.19Z"/><path class="b" d="M303.27,318.36l0-.05C303.43,318,303.35,318.16,303.27,318.36Z"/><path class="b" d="M198.86,357.41c1.13.81-2.16-.54-.43.61C198.3,357.85,200.36,358.17,198.86,357.41Z"/><path class="b" d="M271.69,222l.58.14A3.83,3.83,0,0,0,271.69,222Z"/><path class="b" d="M198.43,358h0l.18.12Z"/><path class="b" d="M283.84,340.64a1.1,1.1,0,0,0,.33-.05S284.06,340.57,283.84,340.64Z"/><path class="b" d="M299.86,325.25l-.34.44A3.3,3.3,0,0,0,299.86,325.25Z"/><path class="b" d="M274.05,347.05a2.9,2.9,0,0,0-.74.36l.13,0A1.37,1.37,0,0,1,274.05,347.05Z"/><path class="b" d="M263.05,352.41l.23,0,.35-.17Z"/><path class="b" d="M220.8,229.68a1.83,1.83,0,0,1,.65.15C221.2,229.64,223,229.1,220.8,229.68Z"/><path class="b" d="M271.3,222.07a.52.52,0,0,1,.39,0l-.4-.08C271.24,222,271.22,222,271.3,222.07Z"/><path class="b" d="M274.88,349.68l-1.77.86C273.61,350.32,274.26,350,274.88,349.68Z"/><path class="b" d="M160.79,291l.05-.46A1.29,1.29,0,0,0,160.79,291Z"/><path class="b" d="M267.87,353.18a5.58,5.58,0,0,0-1.11.26.94.94,0,0,0-.17.18Z"/><path class="b" d="M221.45,229.83Z"/><path class="b" d="M234.54,227.75c-1.9,0-.89.43-1.29.69-2.26.15-1.05-.32-1.83-.54-1.43.15-2.5.63-3.56.7-.08-.06-.29-.07-.06-.19-1.46.45-4.5.58-6.1,1.48a.52.52,0,0,1-.25-.06c.34.15.43.37.41.54-.82.21-1.44.67-1.82.48a1.46,1.46,0,0,0,.72-.41l-.82.36c-.89-.19,1.12-.48,1.05-.77-1.67.57-3.46,1.55-4.74,1.9-.42-.32,2.89-1.16,1.08-.93.67-.18,1.35-.34,2-.49-1.71-.16,1.22-.32-.38-.57-2.66.73-2.85,1.16-5.41,2.05-.48.45.31.24-.16.69-3.34,1.88-3.19.24-5.51,1.94a4,4,0,0,1-2.46,1.81l.39-.73c-2.33,1.19-1,1.25-3.56,2.31.34-.4,1.72-1.13,1.35-1-1.73.53-1,.85-2.15,1.51l-.46-.22c-2.37,1.46-4.82,3.33-7.28,5.16.06-.19.43-.6-.24-.29-3.07,2.4-6.67,4.95-9.61,7.34l-.8,1.25c-.24.23-.56.32-.34,0-1.16.91.1.21-.31.8-.59.59-.93.63-.64.17-1.65,2-4.57,5.79-6.52,7.71l.24-.49c-1.43,1.59-.9,2.33-2.3,3.73l.16-.35c-2.83,3.65-5.08,8.21-7.05,11.16a6.61,6.61,0,0,1-.91,2.41c-.48,1-.85,2-.58,2.24l-1.22,2.09a17.59,17.59,0,0,0-1.32,2.94c-.32.94,0,1.54-.25,2.74l-.37-.06,0,1.71c-.22.24-.42.5-.63.76l-.15,1.15c.12-.45.37-.92.46-.83a13,13,0,0,1-1.27,4.27c-.11,1.43-.17,2.86-.19,4.28-.15-.11-.14-.83-.16-1.4.15,2.31-.45.38-.26,2.5.11-.28.21.17.29.22a9.58,9.58,0,0,0-.3,2.3,20.66,20.66,0,0,0,.05,2.85l-.27-.33c0,.8,0,1.62.07,2.45s.19,1.68.28,2.54c.15,1.73.55,3.46.85,5.22-.1-1.28.39-1.07.62-.06l-.32.49c.36.61,0-1.1.49.2.23,1.3-.26,1-.54.24.12.53.34,1,.51,1.55-.09.12-.25-.24-.42-.3.4.58.32,2.82,1,3.64l-.09.12c.58,1.69,1,2.91,1.47,4.05l1.56,3.46c.34-.09.69,1,1.37,1.62l1.34,3.07a36.46,36.46,0,0,0,1.81,3.22c1.09,1.43.51.29,1.12.85-.18.28,1.33,2.34.38,1.39.93,1.23,1.47,2,2.19,2.85s1.53,1.68,2.88,3.08c-.18-.4-.44-.81-.2-.69.46.52,1,1.25.79,1.29l-.15-.11a22.47,22.47,0,0,1,2.44,2.44l2.5,2.64a21.52,21.52,0,0,0,2.54,2.38,11.07,11.07,0,0,0,2.48,1.66l-.18-.08,3.19,1.7c1.35,1-1-.35,0,.49a37.63,37.63,0,0,1,4.4,2.26,27.78,27.78,0,0,0,4,1.78,7,7,0,0,0,2.18,1.23,22.76,22.76,0,0,0,3.12,1.06c1.13.28,2.28.55,3.34.85a28.33,28.33,0,0,1,2.87.8l-.15-.25c.89-.05,1,.32,1.63.49-.06-.18-.89-.37-.34-.38a91.5,91.5,0,0,0,22.53.8c2.74-.27,1.37-1.32,4.84-1.38l-.89.56c5.33-1.42,11-2.44,16-4.55-.27.2-.24.31-.74.47,1.18-.06,4-1.4,3.9-1.62.79-.25.25.14.78.08,1.13-.23,2.52-1.4,3.19-1.34.11,0-.26.2-.45.3.64-.39,3.22-1.26,2.43-1.31,1.9-.67,3.47-1.64,5-2.17.78-.79,3.19-1.3,3.25-1.94.11.56,3.34-1.18,4.34-2-.29.34,1.06-.36.73.07,1.28-.68,2.39-1.42,2-1.54,2.68-.72,4.39-3.14,6.11-3.24,1.75-1.3,3.4-2.59,5-3.91s3-2.73,4.39-4.06c.27.49-3.18,2.92-2.72,3.22,1.36-1.3,2.33-2.42,3.33-3.49s1.92-2.2,3.19-3.52c.67-.68-.16.58-.33.87,2.3-2.92,4.7-5.46,6.24-8.41a1.87,1.87,0,0,1-.26.67c.34-.55.9-1.22.65-1.29l-.29.56c-.88.65.79-2.54.64-2.75.07,1.32,1.78-2.7,1.69-.74.17-.39.34-.91.14-.91.36-.52.55-.65.39,0,1.05-2.08.36-1.51,1.35-3.36.1.06,0,.46,0,.72a16,16,0,0,1,1.37-3.67c0,.13.2,0,0,.46,1.24-2.78,1.49-5,2.83-8,.18,1.1.53-1,1-1l.45-1.74-.44.62c.52-1.49.54-2.92,1.08-4.16l-.15,1.17c.25-.95.52-1.89.72-2.85-.19.52-.38,1-.6,1.55.21-1.58-.59,0,.06-2a20.41,20.41,0,0,1,.85-2.22h0a9.89,9.89,0,0,1,.41-2.69c.21-.26.45.34.58.17a7.54,7.54,0,0,1,.23-2.23,8.22,8.22,0,0,0,.16-2.4c0,.33.27.39.34.3l-.19-.69c.22-.69.29-.79.46-.64.42-2.13-.66.59,0-1.92a2.54,2.54,0,0,1,0,.54c.25-1.27.39-2.51.51-3.73s.19-2.42.4-3.59c.54-.65-.12,2.08.35,1.32.33-3.43.15-7.14.28-10.47l-.06.62c-.64-.46.35-2.48-.07-4.17.08.41.39.53.31.42a28,28,0,0,0-1.5-8.05l.27.38a30.33,30.33,0,0,0-1.33-4.88c-.32-.35-.6-1.13-.64-.57a11.75,11.75,0,0,0-1.05-3.16,21.72,21.72,0,0,0-1.67-2.72,47,47,0,0,1-3.43-5.07c.3.38.81.82.58.52-.71-.89-1.53-1.7-2.29-2.53,0,.39.16.45.45,1.13a9.53,9.53,0,0,1-1.69-1.45c1.17,1,.32-.31,0-.91,0,.14-.21,0-.23.15-.88-1.63-.61.18-2.09-1.74l.2,0a24.46,24.46,0,0,1-2.16-1.63c-.09-.52.81.52,1,.36-1-.92-2.46-1.26-3.23-2.27.53.26,1.16.8,1.68,1.09a6.41,6.41,0,0,0-1.77-1.82l.08.07c-.6-.51-1.18-1-1.8-1.51l.43.42c-1.89-.26-3-1.83-5.28-2.47,2.21.64.47-.08.8-.32-.46-.38-1.19-.92-.92-.89-1.1-.26-1.51-1.08-3.09-1.37,0-.14-1.06-.51-.71-.68-1.33-.52.22.33.05.42-2.14-.57-4.53-2.57-7.71-3.07-2.65-.64-3.25-.41-5.7-.89-.76-.41.78-.24.78-.24a13.08,13.08,0,0,0-3.55-.95c.28,0,0-.18-.31-.41-1-.22-.77.26-2-.21a3.64,3.64,0,0,1,1.11-.24c-1.21-.18-2.44-.21-3.69-.36-.29-.27.81-.15,1.27-.19-1.41-.22-3.64-.53-4.13-.29l.87.28c-.51-.08-.21-.32.18-.31,1.24,0,1.69.44,1.74.57l-.9-.09c.77.85,3.54.61,5.29,1.07l-.84.33,1.89,0c.35.23.54.57-.34.42,1.18.56,1.15.1,2.14.67.11.07.05.08-.07.07l1.26.19c-.27,0,.1.4-.62.12,2.07.89,3.58.68,4.27,1.31l-.19,0c3,.84.41-.27,2.77.11.39.47.78.93,1.15,1.42l.43-.24c.29.13.87.39.71.49,1.21.2-.13-.23.61-.19,1.3.89,4,1.6,4,2.3.63,0-1.24-.84.34-.3.13.8,1.77.75,2.86,1.72-.54.08-1.61-.73-.53.22,1-.09,2.32,1.47,3.36,2,.29-.34,2.27,1.26,3.94,2.37-.18,0,2.79,2.52,4,3.94l-.09,0c.57-.09,1.88,1.32,2.88,2.29-.23.14-.48,0-1.08-.43l.89.94a3.94,3.94,0,0,1,1.22,1l-.47,0a21.87,21.87,0,0,1,3.57,4.44c.33-.05-.28-2,1.22-.09-.09.17-.29.4-.68-.09a3.94,3.94,0,0,1,.66.93l-.74-.66c.43.94.48.33.89,1-.22.11.17.61-.06.6a5.49,5.49,0,0,0-.53-.87,6.36,6.36,0,0,1,.87,2.24c.09-.13.29-.15.64.42.81,1.54,0,.66.33,1.62.33.31.64,1.37,1,1.26a1.17,1.17,0,0,1,0,.84c.54.74,1.39,3.91,1.46,2.84l-.05-.23.06.14h0c1.22,2.74,1.2,6,1.53,8.9h-.12c.26,1.74.21,3.89.43,5.15,0,.52-.26,1.22-.39,1a11.68,11.68,0,0,1-.17,3.42c-.12-1.36-.22.45-.06-1.39a14.17,14.17,0,0,0-.3,4c-.23-.66-.52,1.27-.53,2.1l.36-1.19c-.06.93-.18,1.74-.31,2.56l-.35-.49c-.9,3.45-.07,6.49-1.38,9,.11,1,.54-1.87.72-1a25.73,25.73,0,0,1-1.38,3.66c-.69,2.14.14,2.18-.6,4.42.22-.25.67-.44.36,1.31-.47,1.59-1.15,1.78-1,.76.1-.38.18-.55.23-.52.08-.53.19-1.22-.12-.63l.09.24c-.33.76-1,2.91-1.06,2.33-.22,1.23.08.58.41-.28a23.34,23.34,0,0,0-.86,2.56c-.26.78-.52,1.58-.93,2.57.18-.29.45-.54.33-.21-1.19,2.93-.2,1.4-.91,3.44-.65,1.06-.33-.6-.94,1.48-.63,1.17-.46.11-.38-.41a17.58,17.58,0,0,1-2.13,4.26l.31-1a9.16,9.16,0,0,1-.62,1.5l.52-.4c-.31.52-.55,1-.65.91-.12.64.65-.21.32,1-.51.65-1,2.29-1.47,2.33,1.3-2.18-.46.07.47-1.86a8,8,0,0,1-.7,1.35c-.08.06,0-.11,0-.27-1.49,1.93-.17,1.17-1.44,3.35,0-.39-.62.3-.82.65.54-.85.58-.21.2.66a12.23,12.23,0,0,0-1.35,2.23l.6-.77a5.67,5.67,0,0,1-1.07,2c-.19,0,.52-.89.22-.6-.46,1.22-2,2.05-2.89,3.55-.63.52-.36-.2-.9.27-1.07,1.64-1.53,1.45-2.8,3,.62-.21.64-.34-.17.89A33.31,33.31,0,0,0,295,331a19,19,0,0,1-1.14,1.89c.74-.71,1.3-1.73,1.75-2.15-.5.94-.48.82,0,.6-1.21.8-1.71,2.22-3.05,3.18l-.47-.55a23.34,23.34,0,0,0-2.49,2.37,15.6,15.6,0,0,1-3,2.65l.88-.52c-.16.49-1.51,1.23-2.28,1.91-.06-.25-.63.05-1.08.17.16.13-1.9,1.28-1.89,1.83l-1.36.49c-2.24,1.21-2.14,2.1-4.34,3.24.52-.59-.54-.19.81-1.17-.72.41-1.39.72-1.32.88-.49.1-1.85,1.38-2.63,1.53-.26.25-.23.53-1.07.93-.11,0-.05-.1-.05-.1s-1.22.8-.38.67c-2.59.5-6.35,3.21-8.66,3.49-1.61.8-3.57,1.73-5.09,2.33.07-.11,0-.11.26-.2-2.18.6-1,1.2-3.53,1.83-1.36.07,1.21-.66.39-.52-.61-.65-2.86,1.18-4.65,1.25l.38-.17c-1.34.11-2.95,1.31-5,1.8,0,0,.08-.1,0-.12a16.91,16.91,0,0,1-2.72,1.19c-1.08.37-2.25.68-3.25,1,.56-.44.88-.36.43-.59-.9.25.37.44-1.42.94-.62,0-2,0-2.2-.26l1.7-.32c-1-.27-2.21.41-3.13.49l.09-.21c-1.3.28-1.95.51-2.63.7a13.5,13.5,0,0,1-2.82.57l.31.11c-1.51.67-1.33-.15-2.87.33l-.5-.45c-.51.08-1.41.3-2.41.43s-2.12.24-3.05.29c1.06-.39,3.22-.5,4.54-.85a27.32,27.32,0,0,0-4,.37,4.62,4.62,0,0,1,1.33-.1,13.42,13.42,0,0,1-5,.47c.2-.47-1.12-.57-2.67-.73a13.57,13.57,0,0,1-4-.89A43.4,43.4,0,0,1,201,358.15c1.14,1.18-1.15-.4-1.18.39a4,4,0,0,1-1.34-.52l-2.5-1.63c-.54-.48.91.23.9,0-1.9-.93-.68-.63-1.84-1.42.13.38-.81,0-1.82-.68l1.32,1.12a6.2,6.2,0,0,1-2.35-1.44,6.47,6.47,0,0,0-.84-.68,9.43,9.43,0,0,0-1.46-.87l.91.32c-.67-.36-1.84-1.13-3-1.86a13.71,13.71,0,0,0-3.11-1.79c-.16-.23-.31-.61.25-.24l-4.5-3.66c-.71-.65-1.41-1.29-2-1.92-.31-.31-.61-.62-.87-.92s-.47-.63-.67-.94l.32.1c-.48-.49-1-.7-1.43-1.47.09,0,.32.09.12-.15a8.16,8.16,0,0,1-1.84-2l.62.51a27.86,27.86,0,0,0-2.71-3.54,36.31,36.31,0,0,1-2.5-3.21c.47-.26-.67-2.83-1.23-4.1h.09c-1.61-3.79-3.17-6.3-4.34-10-.22-2.42-1.39-8-1.24-11.83-.08.59-.42-.08-.49-.76.06-.9-.4-2.5.1-2.35l0,.32c.5-.67.4-2.51.55-3.95l-.63-.29a40.53,40.53,0,0,0,1.16-6.56c.19-1.11.35-2.19.58-3.09a6.86,6.86,0,0,1,.85-2.07c.08-.92.44-2,.54-2.92l.32.16c.89-2.37,1.35-3.55,2.52-6.45l0,.68c.76-1.58,0-2.45.71-3.93l.69-.21c1.4-2.76,3.33-5.23,4.67-8,0,.09.11.25-.14.68.77-1.24,3.54-4.35,2.67-4.35.2.12.7-.5,1.26-1.33s1.25-1.84,1.71-2.54l.09.42a9.06,9.06,0,0,1,1.82-3c.36-.3.48-.1,0,.28,1.23-1,.62-1.11,2.09-2.32-.12.21-.24.43-.35.65a5.11,5.11,0,0,0,1.47-1.89,6.38,6.38,0,0,1,2.7-1.93,3.31,3.31,0,0,1,1.34-1.59c.17,0,0,.28-.16.42a22.62,22.62,0,0,0,2.48-2.09,7.78,7.78,0,0,1,2.09-1.58.37.37,0,0,0,.38,0c-1.75,1.24-3.08,2.33-3,2.2.2.24,1.58-.77.77.41a19,19,0,0,1,4-3.7.57.57,0,0,1,.25,0l-.12.13a4.78,4.78,0,0,0,.84-.65c.48-.25.77-.42,1.21-.69.31.11,1.73-1,2.47-1.4-.24-.25.75-.79-.3-.48.13,0-.12.11-.6.43l-.29.23,0-.05-1.79,1.17a5,5,0,0,1,1.9-1.38,9.36,9.36,0,0,1,.74-1.1c1.26-.22,3.35-1.14,3.78-1,2.18-1.48,5.4-3,6.64-4.27a1.55,1.55,0,0,1,1.16-.21,8.62,8.62,0,0,0-1,.62c1.29-.78,4-1.86,4.19-2.4,1.83-.51-.83.77,1.55-.24l-.28.25a43.42,43.42,0,0,0,6.33-2.24,14.62,14.62,0,0,1,7-1.1,1.59,1.59,0,0,1-.67-.11c3.21-.05,6.53-.07,9.88,0a82.26,82.26,0,0,1,9.88.48,7.6,7.6,0,0,0,3.15-.29l.38.38,1.92-.38c2.71-.24,4.65,1,8.09.54l-.43-.26c1.22.08,3.89-.05,3.68.23a1.15,1.15,0,0,1,.88-.1l0,.19,3-.25c2.34.2-.38.76,3,.89,1.27,0,3.63-.47,3.15-.61s-1.3-.16-1.33-.35l1.16-.07c.22-.56,1.13-1.12-1.71-1.6l-2,.3-.63-.29,1.67,0a3.93,3.93,0,0,0-2.23.07,1.5,1.5,0,0,0-.82-.32l-2,.49c-.23-.23.88-.42-.42-.58-.92.23.86.52-.66.65-.94-.29-.66-.49-1.78-.3-.15-.15.09-.24.53-.29-1,.15-2.62,0-3.14.3-1-.35-3.36,0-3.24-.55a11.75,11.75,0,0,1-2.67.38c1.68-.6-3.41-.13-3-.81-1.24.55-4.45.14-6.64.4a1.16,1.16,0,0,1,.55-.09,15.3,15.3,0,0,1-2.36-.4c-.17.48-2.09.53-3.13.8-1.49-.5.93-.54.47-1,.06.39-2.63.31-2.12.65-1.15-.31-1-.16-1.58-.58-.21.6-1.07.08-2,.42-1.68-.32-.42-.57-2.28-.4C232.89,228,234.54,227.75,234.54,227.75Zm-40.76,15.82h0l.74-.53Zm-3,2.19,1.29-.95c.18,0,.14.21-.17.42C192,245.05,191.29,245.49,190.8,245.76Zm7.69-2.47c-.45.35-.65.4-.76.38l.82-.58,0-.07A.53.53,0,0,1,198.49,243.29Z"/><path class="b" d="M199.11,242.35l.19-.14-.33.11-.11.21Z"/><path class="b" d="M314.47,257.79l0,.08a1.16,1.16,0,0,1,0-.17C314.48,257.75,314.47,257.76,314.47,257.79Z"/><polygon class="b" points="161.57 286.86 161.66 286.88 161.67 286.54 161.57 286.86"/><path class="b" d="M305.14,240.07a.51.51,0,0,0-.12-.25A.79.79,0,0,0,305.14,240.07Z"/><path class="b" d="M298.58,234.19l-.93-.84C298,233.73,298.34,234,298.58,234.19Z"/><path class="b" d="M293,230.32a.35.35,0,0,0-.19.06h0Z"/><path class="b" d="M302,326.16a1.86,1.86,0,0,0-.13.23C301.6,326.94,301.81,326.58,302,326.16Z"/><path class="b" d="M313.74,296.54c0,.34-.05.68-.1,1C313.81,297,313.92,296.6,313.74,296.54Z"/><path class="b" d="M275.08,349.58h0l-.2.11Z"/><path class="b" d="M313.27,299a6.11,6.11,0,0,0,.37-1.44A11.69,11.69,0,0,0,313.27,299Z"/><path class="b" d="M265.46,220.6l-.32-.08s0,0-.05,0Z"/><path class="b" d="M265.09,220.57l-.36,0A.69.69,0,0,0,265.09,220.57Z"/><path class="b" d="M264,220.49l.76,0A1.84,1.84,0,0,0,264,220.49Z"/><path class="b" d="M274.14,222.73l.13-.09A.16.16,0,0,0,274.14,222.73Z"/><path class="b" d="M276.76,223.44a14.85,14.85,0,0,0-2.38-.88l-.11.08C274.73,222.57,276.12,223.45,276.76,223.44Z"/><path class="b" d="M286.77,228.8c-.66-.34-1.34-.66-2-1,.31.28.71.65-.23.27C287,229.57,284.11,227.57,286.77,228.8Z"/><path class="b" d="M292.82,232.17c-1.07-.55-.08.17-.18.21C293.35,232.67,293.52,232.74,292.82,232.17Z"/><path class="b" d="M315.79,273.24l-.31-.14C315.48,274,315.6,273.12,315.79,273.24Z"/><polygon class="b" points="316.52 283 316.82 282.12 316.59 281.65 316.52 283"/><polygon class="b" points="313.47 288.31 313.5 287.9 313.34 289.44 313.47 288.31"/><path class="b" d="M264.91,351.24l.41.23C265.86,351.14,265.8,350.69,264.91,351.24Z"/><path class="b" d="M230.32,361.81a4.08,4.08,0,0,0-2,.06A13.33,13.33,0,0,0,230.32,361.81Z"/><polygon class="b" points="162.8 296.98 162.85 297.7 162.9 296.35 162.8 296.98"/><path class="b" d="M227.44,283.3c.1,0,.34,0,.29,0h-.4Z"/><path class="b" d="M228.18,283.07a4,4,0,0,0-.91,0c.39,0,.23,0,.69.07,0,0-.13.06-.28.06.11,0-.09,0,.17.07s.32-.11.06-.16Z"/><path class="b" d="M228.75,279.91l0,0Z"/><path class="b" d="M229,278l.09,0A.1.1,0,0,0,229,278Z"/><path class="b" d="M229.39,277.62l0,0S229.43,277.62,229.39,277.62Z"/><path class="b" d="M228.75,279.91l.13-.06C228.75,279.85,228.78,279.88,228.75,279.91Z"/><path class="b" d="M227.2,282.66l.1,0,0,0Z"/><path class="b" d="M229.1,280.76v0h.16Z"/><path class="b" d="M229.17,281.42a4.34,4.34,0,0,0-.48,0l.24,0Z"/><path class="b" d="M228.59,282.48l0,0Z"/><path class="b" d="M229.16,280.29h0Z"/><path class="b" d="M226.75,261.77h0Z"/><polygon class="b" points="228.48 261.07 228.5 261.08 228.69 261.09 228.48 261.07"/><path class="b" d="M229.83,277h0S229.86,277,229.83,277Z"/><path class="b" d="M229.58,271.43c-.31.06-.39-.11-.73,0A2.5,2.5,0,0,0,229.58,271.43Z"/><path class="b" d="M227.24,282.64s0,0,0,0A0,0,0,0,0,227.24,282.64Z"/><path class="b" d="M228.85,271.42h0Z"/><path class="b" d="M229.62,275.61h0Z"/><path class="b" d="M229.13,276.66l.05,0Z"/><path class="b" d="M229.13,275.07s.07,0,0,0h0S229.19,275.05,229.13,275.07Z"/><path class="b" d="M229.13,274.5l-.07,0h0Z"/><path class="b" d="M226.86,263.51l.31,0C226.92,263.49,226.84,263.4,226.86,263.51Z"/><path class="b" d="M227.39,282.65h-.15l0,0Z"/><path class="b" d="M226.42,275.05l.05-.09A.14.14,0,0,0,226.42,275.05Z"/><path class="b" d="M226.81,267.58l0,0S226.77,267.58,226.81,267.58Z"/><path class="b" d="M226.42,274.69a.8.8,0,0,0,.24-.05h-.09Z"/><path class="b" d="M227.17,263.49Z"/><path class="b" d="M226.37,262.87c0,.09.45.05.7.08s-.33,0-.56.07c.12.06.53.12.51.17h-.19c.35.08,0,.2.46.29h-.12a6,6,0,0,1,.62,0s.29.07,0,.08c0,0-.11,0-.2,0l.13,0c-.43,0-.15-.06-.46-.07.13.09.48.19.36.24-.42,0-.14-.14-.51-.07l.16-.09c-.65.05.05,0-.65,0-.13.12.21.14.08.26.23,0,.34,0,.57,0,.41.18-1,.11-.5.25.28,0,.81.07.52.15l-.46,0c0,.12.67.08.35.2s-.15-.1-.21-.08c-.37.07.27.06.26.12h-.41c.06.12.36.27.43.41a1.21,1.21,0,0,0-.38,0c.2.18-.06.37-.31.54l.35.07s-.16,0-.23,0,.23,0,.37,0-.21.05-.32,0c.31.12.65.35.27.46l-.11,0c-.15.09.73.12.4.2h-.07c-.16.2.17.44-.38.59.52,0-.23.2.49.23-.36.11-.49.07-.73.24,0,0,.44.07.52.13h-.38l.4.09-.46,0,.1.05a.64.64,0,0,1,.28,0c.17.08-.27.19-.46.19l.31.2a.88.88,0,0,1-.29-.07c.38.11-.4,0-.05.11.08,0,.22,0,.3,0-.23,0-.23.15-.14.23l-.26,0c-.07.15.12.31.11.47a1.16,1.16,0,0,1,.62,0h-.4c.25,0,.15,0,.45,0,0,.06-.45,0-.58,0l.14.08c-.12,0-.19,0-.34,0,.25,0-.4.12,0,.17h-.12c0,.16.13.24.15.37a2.37,2.37,0,0,1,.54.1c-.11.09-.38.2-.35.31s.29,0,.49.07c-.31,0-.28.12-.51.05.05.14.07.18.32.36a1,1,0,0,1,.29,0s-.13.08-.28.07h0c.47.2-.91.44-.26.61h0l.34.16c-.05.08-.23,0-.43,0,.53.18-.07.28.27.43-.92.1.06.39-.53.54h.22c.21,0-.12.05-.17.08a1.19,1.19,0,0,1,.31,0c.26.33-.32.68-.52,1-.06.12,1.13.07.61.23l-.41-.05c.49.25,0,.51.4.76-.1,0-.22,0-.22,0-.29,0,0,.19.23.19,0,0-.22,0-.34,0s.37.13.08.16a.22.22,0,0,1-.12,0c.15,0,0,.15.31.12-.17.09.15.18-.05.25.37.05-.19.16.35.17-.55,0-.45.16-.19.22-.16,0-.17.05-.4,0,0,.07.11.13.39.12-.66.12.54.24-.31.31a2.58,2.58,0,0,1,.63.55c-.55,0-.06-.19-.64-.18.23.17.71.26.57.43s-.24,0-.33,0c.23.17,0,.32.25.47l-.15,0s-.08.07.17.07l-.07,0a4.37,4.37,0,0,1,1,.11c-.72,0-.18.15-1.09.08a.87.87,0,0,0,.33,0,.56.56,0,0,1-.33,0c.13.1.4.06.4.16s-.17,0-.32,0c.24,0,.48.09.38.17s-.17,0-.17,0,.63.23.4.38c-.52,0-.17.05-.63.07l.14.08.22,0c0,.07.33.13.18.2l-.19-.06.09.14.17-.08c.24.07.58,0,.45.08s0,.07-.27.11h0c.14,0,.3.07.18.13h-.6c.38,0,.11.17.52.21a2.69,2.69,0,0,0-.39,0l.31,0a.74.74,0,0,1-.33,0c-.06.1.57,0,.33.09a.7.7,0,0,1-.12,0c-.13.12.2.23,0,.34-.45,0-.11-.09-.5-.05.09.15.56.32.45.47l.05,0c.65,0-.32.12,0,.19a1,1,0,0,0-.29,0c-.1.1.17.21.37.36l-.17,0c-.14.07-.08.17-.15.24a1.08,1.08,0,0,0,.38,0c-.95.22.51.39-.27.58,0,0-.15-.05-.15,0l.15.15a1.6,1.6,0,0,0,.39-.06c.17,0,.3.06.3.1a1.25,1.25,0,0,0-.61,0h.27c-.5.09.57,0,.24.12h-.15c.07,0,.27.08.23.12-.33,0-.15,0-.42,0,0,.07.62.12.29.18-.09,0-.09-.07-.18-.09-.38.07-.29.07-.35.12h0l-.17.1.1,0c.86.06.16.15.72.25-.53-.1-.3,0-.67,0a1.28,1.28,0,0,1-.33.06c.3,0-.23.09.21.15-.12,0,0,.05-.31.05.09.06.21,0,.36,0,.4.09-.49.24.07.38.23.11.63.13.84.24a1.21,1.21,0,0,1-.44,0c-.17.06-.14.11,0,.17a1.29,1.29,0,0,0-.33,0c0,.05.44,0,.26.09l-.48,0c.11.06.34.11.45.16a2,2,0,0,1-.46,0,.84.84,0,0,0,.53.17l.11,0a.94.94,0,0,1-.34,0c-.26-.05.11-.08.23-.09l.08,0c.7-.06-.12-.16-.08-.24l.51,0-.42-.08a1.34,1.34,0,0,1,.49,0c.25-.06-.18-.05.1-.1h.09l-.16-.06c.11,0,.36,0,.29,0,.29-.11-.39-.16,0-.2h0c-.18-.14-.37,0-.81-.1l.92-.09h-.38s0,0,.19,0c-.26-.05-.16,0-.4,0,.34-.07-.17-.19.43-.22-.29,0-.22.08-.42,0,.64,0-.11-.08.18-.15s.16.07.45,0c-.55,0,.12-.13,0-.18-.45,0-.19-.11-.34-.2.15,0,.24-.18.4-.27h.07c-.45,0-.36-.1-.46-.16a1.91,1.91,0,0,1,.5,0v-.06a.53.53,0,0,1-.28-.07h.34c0-.08-.4-.16-.18-.26a3.85,3.85,0,0,1-1.08,0,2.2,2.2,0,0,1,.53,0s-.14,0-.07,0l.29,0c.12-.05-.24,0-.22-.06.25,0,.18,0,.37,0,0,0-.1,0,0,.05a.71.71,0,0,1,.37-.12.88.88,0,0,1-.36,0c0-.08.29,0,.42-.08-.17,0,0-.07-.36-.06,0,0,.17,0,.27-.05-.16,0,0-.19-.43-.14h0c-.36-.13.2-.29,0-.42h.12c-.14-.07-.08-.17-.34-.23a.84.84,0,0,1,.36,0c-.09-.06-.23-.07,0-.16.21.06.19,0,.16.06.1-.08.29-.1,0-.18.31,0,.39-.07.3-.1l-.22.06c0-.05,0-.08,0-.12h.41c.49-.17-.84-.29,0-.42-.28,0-.2.09-.53.06,0-.08.64-.16.64-.19.22-.1-.6-.09-.44-.2a1.51,1.51,0,0,1-.67-.05,1.41,1.41,0,0,1,.72-.05s0,0-.08,0a.4.4,0,0,0,.27,0h-.14c.14,0,.13-.14.37-.12a.38.38,0,0,0-.32,0c.21-.1,0-.15.15-.25a.84.84,0,0,1-.25,0c.18-.15-.28-.07-.34-.16.22-.06.53,0,.34-.09a1,1,0,0,1,.5,0c-.28-.09.19-.17.24-.22l.12,0c-.07,0-.07-.05-.07-.07l-.29,0a.21.21,0,0,1,.17-.06,4.91,4.91,0,0,1-.74,0c.14,0-.16-.11.22-.12-.13.11.39,0,.45.08s0,0,0-.07a.16.16,0,0,1,.1,0c.34-.12-.43-.05-.43-.17.22,0,.41,0,.37,0s-.36,0-.53,0c.17-.08-.13-.08-.11-.12l-.08,0c-.21,0-.19-.05-.25-.1.17,0,.11,0,.19,0-.38-.06.39-.14.13-.22.15,0,.41,0,.51,0-.28-.09.3-.1.06-.19a.94.94,0,0,1-.5,0l.21.15-.43-.1c0,.05.18.1.14.13a.82.82,0,0,0-.41,0c.44-.06-.26-.12,0-.2h.72c.32-.12-.37-.2-.19-.35l-.13.05c-.28,0,0-.09-.15-.14a1.56,1.56,0,0,0,.48-.05c-.18,0,0-.1-.47-.11l.32-.07c.13-.12-.69-.13-.61-.25.26,0,.44,0,.62.06,0,0,0-.07-.12-.07.15,0-.32-.11-.09-.14-.11,0-.36,0-.34-.07h.12a1.48,1.48,0,0,0-.43,0c.75-.11-.06-.32.59-.42a.87.87,0,0,1-.18-.26c.08,0,.12,0,.1,0,.22-.1-.69-.06-.44-.18s.21.06.35,0c.8,0-.1-.14.36-.22l.05,0c.27-.06-.3-.15-.25-.25h.12a1.1,1.1,0,0,1-.65-.3,1.55,1.55,0,0,0,.48,0s-.5,0-.59-.08a4.37,4.37,0,0,1,.65-.09l0,.08c.44,0,0-.11.06-.15h.19c-.06-.13-.54-.13-.5-.26h-.15c-.47-.07.27-.06-.08-.13l.48,0a2.61,2.61,0,0,1-.56-.26,3.55,3.55,0,0,1,.76.22c0-.05,0-.16-.28-.19.05,0,.17,0,.09.06-.38-.06-.56-.14-.55-.23.93,0,.23-.25,1-.31-.34-.17.15-.33.1-.52-.73.06,0-.06-.77-.06-.05,0,0-.06,0-.06l.45-.14c.22,0,.16.05.33.05s.32,0,.52-.11c-.27,0-.38,0-.28-.09l-.35.08c-.39-.15.63-.12.24-.26l.23,0c-.13-.07,0-.26-.59-.34a1,1,0,0,1,.35,0c.09-.17-.64-.39-.27-.52l.19,0c-.06,0-.35-.06-.16-.1h.19c-.06,0-.32-.09-.21-.13l.2,0c.24-.17-.49-.26-.62-.41a1.16,1.16,0,0,0,.8-.18h.08c.07-.19-.44-.34-.65-.52.59-.1.25-.38.58-.55a1.16,1.16,0,0,1-.47,0c.11,0-.37-.13.12-.11h0c.49,0,.36-.11.37-.18l-.64,0c.94-.16-.34-.47.5-.55-.16-.05-.15-.1-.31-.15h.34c.09-.11.14-.17.06-.32l.25,0c0-.09-1-.13-1-.21h.52c0-.14.45-.28,0-.43a.77.77,0,0,1,.25,0c0-.06.35-.25-.35-.24.46,0,0-.15-.16-.23l.34,0c-.43-.08-.55-.08-.67-.18.05,0,.27,0,.19,0,.18-.07-.32-.07-.14-.15l.22,0c0-.08-.09-.07-.35-.12s.09-.14.4-.14c-.19,0-.44-.07-.35-.11a.83.83,0,0,1,.23,0c.23-.12-.39-.2-.06-.28h.21c0,.1,0,.18-.06.17a3.09,3.09,0,0,1,.8,0c-.23-.07-.74-.19-.59-.27h.14s0,0-.05-.05a.21.21,0,0,0,.1-.06c.26,0,.14-.09.15-.13a2.76,2.76,0,0,0-.57,0s0,0,.06,0,0,0,0,0h0a.25.25,0,0,1,0,.1c-.17,0-.32-.08-.13-.12l-.55-.07c.48,0,.74-.14,1-.14-.19-.13-.12-.29-.76-.39-.09,0,.18,0,.28,0s.06,0,.15.06c-.16-.08-.06-.21-.51-.24.21-.08.41.06.34-.06l.14,0c.73-.22-1.14-.42-.2-.65l-.16,0c.41-.28-.37-.62.29-.9.13-.08-.16-.1-.37-.15h.37l-.43-.1c-.3-.14.92-.19.33-.36h-.25c0-.06-.14-.18.15-.17-.05,0-.26,0-.13,0h.19l-.32-.15c.14-.1.76.05.81-.11a1.89,1.89,0,0,0-.69-.16.6.6,0,0,1-.32.05l-.09-.06a5.71,5.71,0,0,0-1.56,0l.35.11-.28,0v-.08c-.26,0,0,.07.12.11l-.3,0,.54.11a2.67,2.67,0,0,0-.57,0c.25.05.5,0,.66.06-.26,0-.47,0-.25.07a.74.74,0,0,1-.3,0c.17.06.07.13.37.16-.32,0,.08.16-.46.14a1.37,1.37,0,0,1,.44.13c-.64-.09,0,.16-.73.12.58.07.25.21.57.32-.05,0-.14,0-.11,0s-.23.07-.34.1a4,4,0,0,1,.88.17,6.57,6.57,0,0,1-1,0c.38,0,.38.13.7.12a2.9,2.9,0,0,1-.54.06c.6,0,.1,0,.47.1-.3.07-.56,0-.38.1A.91.91,0,0,1,226.37,262.87Zm1,2h0l0,0Zm0,.17a.11.11,0,0,0,0-.08c.12,0,.24,0,.23,0A.62.62,0,0,0,227.35,265.08Zm2.4-.3s0,0-.1,0,0,0,0-.05h.14Z"/><path class="b" d="M229.3,264.72h-.11l.11,0Z"/><path class="b" d="M228.7,279.93h0Z"/><polygon class="b" points="226.65 267.39 226.73 267.39 226.66 267.38 226.65 267.39"/><path class="b" d="M227.53,280.88h0Z"/><path class="b" d="M227.46,281.28l-.12.06A.42.42,0,0,0,227.46,281.28Z"/><path class="b" d="M227.3,281.59h0Z"/><path class="b" d="M226.83,276.69h0C226.75,276.65,226.78,276.67,226.83,276.69Z"/><path class="b" d="M227.65,278.14l-.17,0S227.45,278.15,227.65,278.14Z"/><polygon class="b" points="226.41 275.06 226.42 275.06 226.42 275.05 226.41 275.06"/><path class="b" d="M227.49,278c-.07,0-.05.05,0,.07S227.54,278.05,227.49,278Z"/><path class="b" d="M227.17,282.93v0h.05Z"/><path class="b" d="M227.21,283h0Z"/><path class="b" d="M227.34,283l-.09,0S227.24,283,227.34,283Z"/><path class="b" d="M227.32,282.52h0Z"/><path class="b" d="M227.28,282.4s-.26.08-.18.12h.1C227,282.5,227.49,282.42,227.28,282.4Z"/><path class="b" d="M228.81,281.85l-.1.1c.14,0,.31,0,.35,0C229.45,281.81,228.76,282,228.81,281.85Z"/><path class="b" d="M229,281.52c.06.06.19,0,.27,0A.36.36,0,0,0,229,281.52Z"/><path class="b" d="M229,279.21h.31S229.15,279.21,229,279.21Z"/><polygon class="b" points="227.34 278.78 227.15 278.82 227.43 278.84 227.34 278.78"/><polygon class="b" points="229.56 278.49 229.61 278.51 229.5 278.44 229.56 278.49"/><path class="b" d="M229.43,274.61h-.38C229.12,274.65,229.55,274.65,229.43,274.61Z"/><path class="b" d="M229,272.92c.2,0,.32-.06.13-.09C229.14,272.87,229,272.9,229,272.92Z"/><polygon class="b" points="229.73 267.89 229.85 267.93 229.75 267.87 229.73 267.89"/><path class="b" d="M260.92,289.57c.11,0,.35,0,.3,0l-.4,0Z"/><path class="b" d="M261.67,289.36a3.8,3.8,0,0,0-.91-.06c.39,0,.23.05.69.09.05,0-.13.05-.28.05.11,0-.09.05.17.07s.32-.1.07-.15Z"/><path class="b" d="M262.31,286.27l-.05,0Z"/><path class="b" d="M262.53,284.35s.05,0,.08,0A.11.11,0,0,0,262.53,284.35Z"/><path class="b" d="M263,284s0,0,0,0S263,284,263,284Z"/><path class="b" d="M262.31,286.27l.12,0C262.3,286.21,262.34,286.24,262.31,286.27Z"/><path class="b" d="M260.7,288.93l.1,0,0,0Z"/><path class="b" d="M262.63,287.11v0h.17Z"/><path class="b" d="M262.7,287.76a4.34,4.34,0,0,0-.48,0c.14,0,.21,0,.23,0Z"/><path class="b" d="M262.09,288.79l.05,0Z"/><path class="b" d="M262.71,286.65h0Z"/><path class="b" d="M260.13,268.53h0Z"/><path class="b" d="M261.83,267.78h0Z"/><path class="b" d="M263.41,283.43Z"/><path class="b" d="M263.16,277.94c-.31.06-.39-.11-.74,0A3,3,0,0,0,263.16,277.94Z"/><path class="b" d="M260.74,288.92v0A0,0,0,0,0,260.74,288.92Z"/><path class="b" d="M262.42,277.93Z"/><path class="b" d="M263.21,282.05h0Z"/><path class="b" d="M262.72,283.08l0,0S262.72,283.07,262.72,283.08Z"/><path class="b" d="M262.72,281.52s.08,0,0,0h0C262.76,281.49,262.78,281.5,262.72,281.52Z"/><path class="b" d="M262.72,281h-.07l0,0Z"/><path class="b" d="M260.29,270.22a3,3,0,0,1,.31,0C260.36,270.2,260.27,270.12,260.29,270.22Z"/><path class="b" d="M260.89,288.93h-.15l0,0Z"/><path class="b" d="M260,281.49l.05-.08A.1.1,0,0,0,260,281.49Z"/><path class="b" d="M260.34,274.2l0,0S260.3,274.19,260.34,274.2Z"/><path class="b" d="M260,281.14a.8.8,0,0,0,.24-.05h-.09Z"/><path class="b" d="M260.6,270.19Z"/><path class="b" d="M259.79,269.61c0,.08.44,0,.7.06s-.33,0-.57.08c.12.06.54.11.52.15a.57.57,0,0,1-.19,0c.36.06,0,.19.47.27h.5s.29.07,0,.08c0,0-.11,0-.2,0l.13,0c-.43,0-.15-.06-.46-.06.14.08.49.17.37.23-.42,0-.14-.14-.51-.06l.16-.09c-.66.07,0-.06-.66,0-.12.12.21.13.09.25.23,0,.34,0,.57,0,.42.17-1,.13-.49.26.28,0,.81,0,.53.13l-.47,0c0,.12.67.07.36.19s-.16-.09-.21-.07c-.38.07.26.05.26.11h-.41c.06.13.36.27.44.4a1.21,1.21,0,0,0-.38,0c.2.18-.05.37-.3.54l.36.06a.41.41,0,0,1-.23,0c-.14.07.22,0,.37,0s-.21,0-.32,0c.31.12.66.33.27.45l-.1,0c-.15.09.73.1.4.19h-.07c-.15.2.18.42-.37.58.52,0-.23.2.49.22a2.33,2.33,0,0,0-.72.24c0,.05.45.07.52.12h-.37l.39.08-.45,0,.1.05a.78.78,0,0,1,.28,0c.17.08-.27.19-.46.19l.32.19a.79.79,0,0,1-.3-.06c.38.1-.4,0-.05.11a2.81,2.81,0,0,1,.3,0c-.22.05-.22.15-.13.23l-.26,0c-.06.14.13.3.12.45a1.28,1.28,0,0,1,.62,0h-.4c.24,0,.15,0,.45,0a1.13,1.13,0,0,1-.58,0l.13.07c-.11,0-.18,0-.33,0,.25,0-.4.12,0,.16h-.12c0,.15.14.22.16.35.34,0,.26.05.54.09-.11.09-.38.2-.35.31s.29,0,.5.06c-.32,0-.29.12-.51.06.05.14.06.17.31.34a1.62,1.62,0,0,1,.3,0c.05,0-.14.07-.29.06h0c.47.2-.91.45-.26.6h0l.34.16c-.05.07-.24,0-.43,0,.52.17-.08.27.27.41-.92.11.07.39-.52.54h.22c.21,0-.13,0-.18.07.17,0,.2,0,.31,0,.27.32-.31.66-.51,1-.06.12,1.13.07.61.22l-.41,0c.49.24,0,.5.4.74-.1,0-.22,0-.22,0-.29.05,0,.19.23.19,0,0-.22,0-.34,0s.38.13.08.15a.18.18,0,0,1-.11,0c.14,0,0,.15.3.12-.16.09.15.17-.05.24.38.05-.18.16.35.17-.55,0-.44.16-.18.22-.17,0-.18,0-.41,0,0,.07.11.13.4.12-.67.12.53.24-.32.3a2.39,2.39,0,0,1,.63.55c-.55,0-.06-.19-.64-.19.23.17.7.26.57.42s-.24,0-.33,0c.23.16-.05.31.25.46l-.15,0s-.08.06.17.06l-.07,0a4.94,4.94,0,0,1,1,.12c-.72-.05-.18.15-1.09.07a1.08,1.08,0,0,0,.34,0,.66.66,0,0,1-.34,0c.14.1.4.06.4.16s-.17,0-.31,0c.23,0,.47.09.37.17s-.17,0-.17,0c0,.14.63.23.4.38-.52,0-.17.05-.63.06l.14.08.22,0c0,.07.32.13.18.19l-.19-.05.08.13.18-.08c.23.07.57,0,.45.09s0,.07-.28.11h0c.15,0,.3.07.19.12s-.51,0-.61,0c.39,0,.11.16.52.2h-.39l.31,0a.77.77,0,0,1-.34,0c0,.1.58,0,.33.09l-.11,0c-.13.12.19.23,0,.33-.46,0-.11-.09-.5-.05.08.15.55.32.44.47l0,0c.65,0-.32.11,0,.18l-.29,0c-.1.11.16.21.36.37l-.16,0c-.15.06-.09.16-.16.22a1,1,0,0,0,.38,0c-.95.2.51.38-.28.56,0,0-.15-.06-.15,0l.15.15a1.77,1.77,0,0,0,.39-.05c.17,0,.3.06.3.1a1.24,1.24,0,0,0-.61,0h.27c-.5.08.57,0,.23.12h-.15c.08,0,.27.08.23.12-.33,0-.15,0-.42-.05,0,.07.62.13.29.18-.09,0-.09-.06-.18-.09-.38.06-.29.07-.35.11h0l-.17.1.1,0c.85.07.16.15.72.26-.53-.11-.31,0-.68,0a.91.91,0,0,1-.32.06c.3,0-.24.08.2.15-.12,0,0,.05-.31,0,.09.06.21,0,.36,0,.4.1-.5.23.06.37.23.12.63.14.83.25a1.05,1.05,0,0,1-.43,0c-.18.06-.15.11,0,.17a1.22,1.22,0,0,0-.32,0s.43,0,.25.09l-.48-.05c.11.06.34.11.44.17a1.82,1.82,0,0,1-.45-.06.78.78,0,0,0,.52.19l.12,0a1,1,0,0,1-.34,0c-.26,0,.11-.08.23-.08l.08,0c.7,0-.12-.16-.08-.24l.51,0-.42-.08a1.31,1.31,0,0,1,.49,0c.26-.06-.18-.05.1-.1.05,0,.07,0,.09,0l-.15-.06c.11,0,.36,0,.29,0,.29-.1-.39-.17,0-.21h0c-.17-.14-.37,0-.81-.12l.92-.07H262s0-.05.19,0c-.26-.05-.16,0-.41,0,.34-.07-.16-.2.44-.21-.28,0-.22.07-.42,0,.64,0-.11-.09.19-.15s.15.08.45,0c-.56,0,.12-.13,0-.18-.44,0-.18-.12-.33-.21.15,0,.24-.17.4-.26h.08c-.45,0-.37-.11-.46-.17a1.48,1.48,0,0,1,.5.05v-.06a.6.6,0,0,1-.27-.07h.34c0-.08-.4-.16-.17-.26a3.78,3.78,0,0,1-1.08,0,3.87,3.87,0,0,1,.53,0s-.15,0-.07-.05l.28.05c.13-.05-.24,0-.21-.07.24,0,.17,0,.36,0,0,0-.1,0,0,.05a.8.8,0,0,1,.37-.11,1.07,1.07,0,0,1-.36,0c0-.08.29,0,.42-.07-.17,0,0-.07-.36-.08,0,0,.17,0,.27,0-.16,0-.05-.19-.43-.15h0c-.36-.14.2-.28.05-.42h.12c-.14-.08-.08-.17-.34-.23a.84.84,0,0,1,.36,0c-.09-.06-.22-.06,0-.15.21.06.18,0,.15.06.1-.08.3-.1,0-.18.31,0,.39-.06.29-.1l-.22.06c0-.05,0-.08,0-.12l.41,0c.49-.16-.84-.29,0-.41-.28,0-.2.08-.53,0a4.42,4.42,0,0,1,.64-.17c.23-.1-.59-.1-.44-.2a1.7,1.7,0,0,1-.67-.06,1.47,1.47,0,0,1,.73,0s0,0-.09,0a.44.44,0,0,0,.28,0h-.15c.15,0,.13-.14.37-.11a.33.33,0,0,0-.31,0c.21-.09,0-.15.15-.24-.08,0-.25,0-.25,0,.18-.14-.28-.06-.34-.16.22-.06.53,0,.34-.08a1,1,0,0,1,.5,0c-.27-.09.19-.17.24-.22l.12.05c-.07,0-.07-.05-.07-.07l-.29,0a.21.21,0,0,1,.17-.05c-.19,0-.48,0-.74,0,.15,0-.16-.12.23-.13-.13.12.38,0,.45.09s-.05,0,0-.07a.15.15,0,0,1,.1,0c.35-.11-.43-.05-.42-.17.21,0,.41,0,.36,0a1.21,1.21,0,0,1-.53,0c.17-.08-.12-.08-.1-.12l-.08,0c-.22,0-.19-.05-.26-.1.17,0,.12,0,.19,0-.38-.06.4-.13.14-.21.15,0,.41,0,.51,0-.28-.09.3-.1.06-.19a.94.94,0,0,1-.5,0l.2.15-.42-.1c0,.05.18.1.13.13a.77.77,0,0,0-.4,0c.43-.07-.26-.13,0-.2h.72c.32-.11-.37-.2-.19-.34l-.13,0c-.28,0,0-.08-.15-.13a2.61,2.61,0,0,0,.48-.05c-.18,0,0-.1-.47-.11l.32-.07c.13-.11-.69-.13-.61-.24a2.87,2.87,0,0,1,.63.05s0-.07-.13-.07c.16,0-.32-.1-.09-.13-.11,0-.36,0-.34-.07h.12a1.44,1.44,0,0,0-.43,0c.75-.11-.06-.32.59-.42a.58.58,0,0,1-.17-.25c.07,0,.12,0,.09,0,.22-.1-.69-.06-.44-.18s.21.07.36,0c.79,0-.11-.14.35-.22l.05,0c.27-.06-.3-.15-.25-.24h.12a1.22,1.22,0,0,1-.65-.29,1.55,1.55,0,0,0,.48,0s-.5,0-.59-.07a3.34,3.34,0,0,1,.65-.09l0,.08c.44,0,0-.11.06-.15h.19c-.06-.12-.54-.13-.5-.26l-.15,0c-.47-.07.27-.06-.09-.13l.49,0a2.56,2.56,0,0,1-.56-.24,3.41,3.41,0,0,1,.75.2s0-.16-.27-.18c.05,0,.16,0,.09.06-.38-.06-.57-.13-.56-.22.94,0,.24-.25,1-.31-.35-.17.14-.33.09-.52-.73.07,0-.06-.77-.05-.05,0,0-.06,0-.06l.45-.14c.22,0,.16,0,.33,0s.32,0,.52-.1c-.27,0-.39,0-.28-.09l-.35.07c-.4-.13.63-.11.23-.25l.24,0c-.14-.07,0-.26-.6-.33a.8.8,0,0,1,.35,0c.09-.17-.64-.38-.27-.51h.18c-.05,0-.34-.05-.16-.09s.19,0,.2,0-.32-.08-.22-.12l.21,0c.24-.17-.5-.26-.63-.4.54,0,.72-.12.8-.19h.08c.06-.19-.45-.32-.66-.5.59-.11.25-.37.57-.55a1,1,0,0,1-.47,0c.11,0-.37-.11.12-.1h0c.48,0,.36-.12.37-.18h-.65c.94-.18-.34-.46.5-.56-.16,0-.16-.09-.32-.13h.35c.08-.12.13-.17,0-.32l.25,0c0-.08-1-.1-1-.18l.52,0c0-.14.45-.29,0-.43a1.19,1.19,0,0,1,.24,0c0-.06.35-.25-.36-.23.47,0,.05-.15-.16-.22h.35c-.44-.07-.56-.07-.68-.16,0,0,.27,0,.19,0,.17-.07-.33-.05-.15-.14l.22,0c0-.07-.09-.07-.34-.11s.08-.14.39-.15c-.19,0-.44-.05-.35-.09a.62.62,0,0,1,.23,0c.23-.12-.4-.18-.07-.27h.21c0,.09,0,.17-.05.17a3.36,3.36,0,0,1,.8,0c-.24-.06-.75-.17-.6-.25h.14s0,0-.05-.05.09,0,.09-.06c.26,0,.14-.09.16-.13a2.24,2.24,0,0,0-.58,0,0,0,0,0,1,.06,0l0,0h0l0,.09c-.18,0-.32-.06-.13-.1l-.56-.06c.48-.05.74-.16,1-.17-.2-.12-.13-.28-.78-.36-.08,0,.19,0,.29-.05a.44.44,0,0,0,.15.05c-.17-.06-.07-.2-.52-.21.21-.09.42,0,.34-.07h.14c.72-.23-1.15-.38-.22-.63l-.16,0c.41-.3-.39-.61.26-.9.13-.08-.16-.09-.38-.14l.37,0-.42-.08c-.31-.12.9-.21.31-.37l-.24,0s-.15-.17.13-.16c0,0-.25,0-.12,0h.19l-.33-.14c.14-.11.76,0,.8-.14a1.84,1.84,0,0,0-.69-.14.53.53,0,0,1-.31.06l-.1,0a5.38,5.38,0,0,0-1.55.08l.34.09-.27,0,0-.08c-.26,0,0,.07.13.1a1.46,1.46,0,0,0-.31,0l.55.09a2,2,0,0,0-.57,0,6.54,6.54,0,0,1,.67,0c-.26.05-.47,0-.25.09a1,1,0,0,1-.3,0c.17.05.07.12.37.14-.32.05.09.15-.45.15a1.18,1.18,0,0,1,.44.12c-.64-.08,0,.15-.73.13.58.06.26.2.58.3,0,0-.14,0-.11,0a1.08,1.08,0,0,1-.33.1,4.36,4.36,0,0,1,.88.14,6.63,6.63,0,0,1-1,0c.39,0,.38.12.71.1a2.85,2.85,0,0,1-.54.07c.6,0,.1.05.47.09-.29.08-.56,0-.38.1A.85.85,0,0,1,259.79,269.61Zm1,2h0l0,0S260.81,271.55,260.82,271.57Zm0,.17a.17.17,0,0,0,0-.07.67.67,0,0,1,.24,0A.65.65,0,0,0,260.83,271.74Zm2.38-.35c.05,0,0,0-.09,0l0-.05h.13Z"/><path class="b" d="M262.76,271.34h0l-.07,0h.1Z"/><path class="b" d="M262.25,286.29h0Z"/><polygon class="b" points="260.17 274.01 260.26 274.01 260.18 274 260.17 274.01"/><path class="b" d="M261.07,287.2h0Z"/><path class="b" d="M261,287.59l-.12.06A.42.42,0,0,0,261,287.59Z"/><path class="b" d="M260.82,287.89h0Z"/><path class="b" d="M260.42,283.1s0,0,0,0S260.36,283.08,260.42,283.1Z"/><path class="b" d="M261.22,284.53l-.16,0S261,284.52,261.22,284.53Z"/><polygon class="b" points="260 281.5 260.01 281.5 260.01 281.49 260 281.5"/><path class="b" d="M261.07,284.41c-.07,0-.06,0,0,.07S261.12,284.43,261.07,284.41Z"/><path class="b" d="M260.67,289.2l0,0h.06Z"/><path class="b" d="M260.71,289.22h0Z"/><path class="b" d="M260.83,289.27l-.08,0S260.74,289.26,260.83,289.27Z"/><path class="b" d="M260.83,288.8h0Z"/><path class="b" d="M260.79,288.68s-.27.07-.19.11h.1C260.52,288.78,261,288.71,260.79,288.68Z"/><path class="b" d="M262.33,288.18l-.1.1c.13,0,.31,0,.34,0C263,288.15,262.28,288.31,262.33,288.18Z"/><path class="b" d="M262.52,287.86c.06.05.2,0,.27,0A.36.36,0,0,0,262.52,287.86Z"/><path class="b" d="M262.52,285.58h.32S262.72,285.59,262.52,285.58Z"/><polygon class="b" points="260.91 285.14 260.71 285.19 261 285.21 260.91 285.14"/><polygon class="b" points="263.14 284.89 263.18 284.91 263.07 284.84 263.14 284.89"/><path class="b" d="M263,281.06h-.38C262.71,281.1,263.14,281.11,263,281.06Z"/><path class="b" d="M262.63,279.41c.19,0,.32-.07.13-.09C262.73,279.35,262.58,279.39,262.63,279.41Z"/><polygon class="b" points="263.26 274.45 263.39 274.49 263.28 274.42 263.26 274.45"/><path class="b" d="M299.67,281.92c0-.12-.2-.28-.31-.13l.15.4Z"/><path class="b" d="M298.24,282.12a.85.85,0,0,0,.32.91c-.08-.43.07-.34-.05-.85a.24.24,0,0,1,.4,0c0-.12.28-.11.19-.37-.38-.09-.62.09-.7.49C298.29,282.31,298.27,282.19,298.24,282.12Z"/><path class="b" d="M283.75,292.55l.12,0A.27.27,0,0,0,283.75,292.55Z"/><path class="b" d="M274.63,298.78a.12.12,0,0,0,.06-.14C274.64,298.71,274.6,298.76,274.63,298.78Z"/><path class="b" d="M272.83,299.48l.11,0C272.88,299.43,272.83,299.44,272.83,299.48Z"/><path class="b" d="M283.75,292.55l-.31.07C283.5,292.74,283.62,292.61,283.75,292.55Z"/><path class="b" d="M296.94,284.43a.37.37,0,0,0,.05-.18.47.47,0,0,1-.09.12Z"/><path class="b" d="M287.46,289.38l.07-.06a1.36,1.36,0,0,0,0-.17Z"/><path class="b" d="M290.38,287.06c-.08,0,.11.33.18.47a.34.34,0,0,1,0-.3A.74.74,0,0,0,290.38,287.06Z"/><path class="b" d="M295.41,283.87l0-.1Z"/><path class="b" d="M285.28,290.92l-.1-.08A.2.2,0,0,0,285.28,290.92Z"/><path class="b" d="M203.67,288.62h.06S203.67,288.59,203.67,288.62Z"/><polygon class="b" points="205.05 284.14 205.07 284.2 205.26 284.2 205.05 284.14"/><path class="b" d="M269.73,301h0C269.8,301,269.76,301,269.73,301Z"/><path class="b" d="M242.34,315.3c.4.25-.49.48.08.73C242.36,315.91,242.8,315.43,242.34,315.3Z"/><path class="b" d="M296.83,284.46l-.12.09A.25.25,0,0,0,296.83,284.46Z"/><path class="b" d="M242.42,316h0l.06,0Z"/><path class="b" d="M263.21,305.55a.38.38,0,0,0,.15.09A.32.32,0,0,0,263.21,305.55Z"/><path class="b" d="M268.43,302.74l-.15.05A.37.37,0,0,0,268.43,302.74Z"/><path class="b" d="M260.87,307.6c-.08,0-.13,0-.2.09l.05,0C260.73,307.65,260.77,307.6,260.87,307.6Z"/><path class="b" d="M258.15,309.26l.09,0,.08-.06Z"/><path class="b" d="M205.43,298.45a1.1,1.1,0,0,1,.26-.23C205.47,298.33,205.26,297.88,205.43,298.45Z"/><path class="b" d="M296.81,284.28c0,.08.05.13,0,.18l.07-.09A.16.16,0,0,0,296.81,284.28Z"/><path class="b" d="M262.19,310l-.46.23A2.19,2.19,0,0,0,262.19,310Z"/><path class="b" d="M220.84,315.87h-.13A.1.1,0,0,0,220.84,315.87Z"/><path class="b" d="M260.46,311a.9.9,0,0,0-.38-.05.4.4,0,0,0,0,.11Z"/><path class="b" d="M205.7,298.22h0Z"/><path class="b" d="M204.17,295c.08.49.47.15.75.2.23.56-.28.34-.47.58.19.35.66.54.7.81-.07,0-.08.1-.19.06.44.3.26,1.14.83,1.47a.25.25,0,0,1-.09.09,1.45,1.45,0,0,1,.58-.22c.06.21.38.32.12.48,0-.14-.15-.12-.25-.16l.18.2c-.36.31-.22-.27-.53-.19.25.4.72.82.7,1.18-.38.19-.34-.74-.58-.19v-.57c-.52.58,0-.33-.61.22.06.74.4.73.51,1.45.27.09.31-.15.58-.07.72.83-.76,1.11,0,1.63.33.09.85,0,.78.57h-.5c.22.67.75.12.76.91-.23,0-.36-.44-.37-.32-.16.59.38.2.53.53l-.35.24a23,23,0,0,0,1.49,1.95c-.13,0-.31,0-.32.19a9.82,9.82,0,0,1,.89,1.4c.26.51.46,1.05.71,1.53l.53.08c.05.07,0,.24-.14.2.15.4.19-.13.42-.07s0,.37-.14.33a14.26,14.26,0,0,1,1.22.74,2.85,2.85,0,0,1,.91,1.05h-.18c.36.49,1-.14,1.17.45h-.11c.86.95,2.21,1.37,2.78,2.3.4-.36,1,.78,1.39.15.49.62.25.66,1.09,1.27.24.13.54-.27.87-.23l-.12.35.55-.22.07.51h.33c-.11-.06-.2-.24-.14-.33.5,0,1,.6,1,.79h1.17c-.06.14-.26.14-.43.2.69-.21,0,.41.63.21,0-.1.1-.2.13-.27a1.83,1.83,0,0,0,1.28.45l-.15.23a25,25,0,0,0,2.64.44A.33.33,0,0,1,227,317l0,.42c.22-.21-.24-.2.16-.43.33.11.15.49-.07.58l.43-.06c0,.12-.1.16-.15.31.21-.22.63.52,1,.14v.12c.91.16,1.34.09,2.09.18.07-.34.35-.22.61-.47a6.64,6.64,0,0,0,1.78.57c.48-.12.16-.28.39-.46,0,.32.67.35.31.54a7.07,7.07,0,0,0,2.06-.17c-.1-.14-.22-.2-.15-.3s.41.15.38.3l-.05,0c1.13-.42,2.65,1,3.57.24l-.05,0,.93-.41c.44,0-.24.26.1.43,1-.61,1.64-.1,2.44-.59.82.83,2.28-.51,3.27-.17l-.1-.2c.16-.26.3.06.48.05-.07-.15-.29-.11-.19-.27,1.79-.76,3.91-.93,5.81-1.56.69-.25-.08-1.19.95-1.1l-.06.48c1.11-1.05,2.68-1.29,3.72-2.34,0,.12,0,.23-.1.3.41.12,1-.53.86-.74.2-.08.15.17.33.21.34,0,.46-.7.74-.53.05,0,0,.13-.06.18.1-.22.8-.43.47-.63.54-.12.78-.64,1.24-.68,0-.46.87-.31.66-.81.26.49,1-.1,1.16-.5,0,.2.33,0,.34.26.32-.2.56-.47.35-.68.94.19.89-1.19,1.67-.69a27.78,27.78,0,0,1,2.31-2.22c.27.48-.9.64-.55,1.11.68-.71.88-1.4,1.75-1.81.24-.07,0,.28,0,.4.67-.71,1.57-1,2.11-1.68,0,.05,0,.14-.07.23.13-.11.37-.15.21-.35l-.09.15c-.42-.16.13-1,.05-1.18.16.76.79-.31.92.69a.34.34,0,0,0,0-.4c.16-.05.26,0,.23.26.42-.45.09-.55.54-.85.07.1,0,.2,0,.35a1.07,1.07,0,0,1,.63-.86c0,.07.11.12,0,.2.63-.48.75-1.28,1.59-1.57.09.58.34,0,.64.33l.3-.37-.28-.08c.34-.23.45-.7.82-.78l-.14.33.57-.51-.45.11c.2-.43-.36-.45.15-.66-.06.11.34-.22.66-.12h0c.08-.23.17-.47.48-.55.14.07.23.45.33.5-.06-.43.72-.63.69-1.11a.49.49,0,0,0,.17.35l0-.35c.21,0,.26,0,.34.17.5-.28-.48-.37.21-.55,0,.05,0,.07,0,.17.63-.27.95-.9,1.54-1.14.41.27-.38.41,0,.6.68-.59,1.18-1.52,1.94-1.94l-.16.06c-.28-.6.71-.12.88-.63-.06.11.1.38.08.3.54-.26.89-.83,1.49-1.53v.2a8.06,8.06,0,0,0,1.14-.64c0-.2.18-.3-.07-.42,1.5.07,1.47-1.73,2.76-1.71-.09.07-.14.29-.06.23l.6-.65c-.22-.18-.19-.07-.47-.13a.76.76,0,0,1,.28-.59c-.2.39.27.36.5.39-.07-.06-.08-.17-.15-.23.67.12-.28-.5.42-.61l.06.14c.14-.2.2-.49.42-.61.28.2-.1.28.05.5.27-.23.17-.92.63-.85-.07.16-.24.29-.3.46a.77.77,0,0,0,.73-.12h0l.58-.23H291c-.18-1,.61-.68.74-1.48-.13.77.11.3.31.62.18,0,.43-.07.45.06,0-.41.51-.11.56-.7.09.09.24-.18.38.1.23-.3-.2-.11-.27-.25.2-.67,1.35-.43,1.65-1.37.4-.62.25-1,.63-1.58.29,0,.14.45.14.45a1,1,0,0,0,.74-.59c0,.12.13.15.29.19.19-.19-.13-.45.25-.53a1.49,1.49,0,0,1,.09.54c.18-.29.29-.65.47-.94.2.1.05.37,0,.54.23-.3.62-.74.5-1.07l-.25.06c.09-.1.23.17.19.28-.08.4-.42.2-.51.12l.13-.21c-.63-.39-.66.68-1.05.94l-.16-.52-.11.63c-.17,0-.4-.22-.27-.42-.42,0-.12.32-.52.28-.05,0-.05,0,0-.07l-.16.32c0-.12-.27-.24-.07-.31-.64.13-.5.89-.91.72l0-.05c-.53.64.17.34,0,1.06l-.89-.47.16.35c-.07,0-.22.12-.29,0-.08.4.15.1.15.4-.53,0-.78.82-1.21.41.06.31.43-.07.22.35-.5-.43-.33.39-.8.39-.12-.33.27-.41-.21-.41.17.57-.64.34-.82.62.26.36-.42.56-.75,1-.06-.14-.93.4-1.41.57l0-.07c.2.41-.25.65-.48.95a.51.51,0,0,1-.08-.57l-.27.21a.56.56,0,0,1-.17.47l-.13-.32c-.35.29-.5.87-1.1,1,.16.27.89.42.52,1-.12-.12-.31-.34-.22-.5,0,0-.07.23-.2.24l0-.38c-.29.06,0,.28-.16.38-.14-.19-.23,0-.32-.21s.21,0,.22-.16a.93.93,0,0,1-.72.08c.09.1.19.26.07.39-.36.29-.3-.13-.59-.08,0,.2-.33.24-.12.53-.11.08-.23,0-.33-.09-.09.27-.86.69-.42.85l.07,0,0,0h0c-.41.75-1.42.79-2,1.36l-.07-.1c-.29.39-.77.67-.89,1.07-.11.08-.39,0-.42-.14-.24.28-.19.41-.72.55.17-.38-.21-.08.21-.34-.44.18-.63.08-.84.64,0-.35-.5-.12-.63.08H279a2.17,2.17,0,0,1-.55.38l-.14-.4c-1.05.14-.89,1.66-1.95,1.39,0,.37.53-.13.54.27-.38.2-1.08,0-1.19.06-.61.15-.11.8-.71,1a.45.45,0,0,1,.13.73c-.38.2-.78-.2-.62-.45.08-.07.14-.06.17,0,.08-.12.2-.28,0-.31l0,.15c-.26,0-.73.35-.75.07-.19.3,0,.28.26.2-.58.14-.71.49-1.26.69.12,0,.28.11.21.16-.79.32-.15.43-.58.8-.39,0-.2-.5-.57,0-.37.07-.27-.27-.23-.45-.27.52-.9.39-1.17.51l.16-.25a1.11,1.11,0,0,1-.32.3l.29.15c-.16.05-.27.12-.34,0,0,.25.37.33.25.73-.26,0-.45.49-.73.21.63-.26-.28-.28.16-.64a.57.57,0,0,1-.34.21s0-.08,0-.12c-.72.07,0,.53-.56.89-.05-.23-.35-.26-.42-.16.23-.14.31.23.2.51-.45.09-.32.36-.52.46l.26-.07c.05.23-.15.32-.36.54-.11-.13.16-.24,0-.25-.06.5-.84.08-1.08.55-.26,0-.24-.33-.45-.31-.28.52-.63.06-1,.55.29.16.28.08.11.53l.64-.66-.25.67c.23-.15.37-.47.54-.51-.1.34-.12.27.12.4-.54-.16-.47.61-1,.6l-.38-.62c-.71.08-.75.93-1.55,1.23l.29,0c.07.3-.4.31-.57.55-.11-.22-.3-.2-.47-.26.1.14-.53.31-.33.75l-.48-.07c-.64.25-.28,1-.87,1.27,0-.33-.32-.31-.05-.7-.18.11-.37.17-.28.32-.19-.06-.34.59-.63.5,0,.14.09.37-.12.48a.19.19,0,0,1-.07-.1c.07.1-.23.33.09.45-1-.29-1.55,1-2.38.75a12.42,12.42,0,0,1-1.16.89c0-.07-.06-.1,0-.12-.62.1,0,.78-.67.89-.49-.17.2-.36-.06-.38-.47-.65-.64.49-1.26.29l.07-.09c-.42-.08-.58.67-1.1.87a.17.17,0,0,0-.06-.11,3,3,0,0,1-1.17,1.32c0-.35.15-.26-.08-.5-.2.15.29.43-.11.72-.21-.09-.59-.07-.77-.35l.39-.22c-.39-.29-.51.27-.76.3l-.05-.19c-.6.33-.41.79-1.11,1.05l.12.1c-.19.6-.41-.12-.65.37l-.3-.4a6.84,6.84,0,0,1-1.12,1,4.13,4.13,0,0,1,.83-1.13c-.24.09-.82.35-.86.63.08-.09.16-.24.29-.21a1.51,1.51,0,0,1-1,1c-.21-.91-1.38.21-2-.4-.79.59-1.79.32-2.8.58.5.64-.3.08-.11.8-.24.09-.33.09-.36.05l-.82-.33c-.2-.18.21-.2.16-.36-.53,0-.26-.28-.64-.43.11.26-.13.4-.45.34l.47.29c-.71.49-.71-.55-1.42-.09l.22-.26c-.37.18-1.41.08-1.78.69-.07-.08-.17-.28,0-.34-.92-.07-2.1.63-2.82.22l.08-.18c-.18,0-.32.32-.53.13,0-.08.08-.18,0-.2s-.49.29-.72.17l.22-.19c-.89-.31-1.46.37-2.25.4.06-.53-.64-.8-1-.93l0-.08a11.87,11.87,0,0,0-2.92.2c-.52-.68-2.05-.63-3-1.17.13.12-.11.4-.3.41-.2-.16-.72.22-.56-.25l.08,0c-.06-.51-.55-.5-.9-.61l-.23.61c-.68-1.14-2.56-.41-2.77-1.4-.27.07-.53,0-.81,0l.14-.32a7.13,7.13,0,0,0-1.54-.76l.25-.15c-.36-.21-.94.64-1.32.46l.14-.52c-.68-.37-1-1.16-1.91-1.23,0,0,.16-.16.27-.1-.27-.24-.82-1.13-1.19-.51.15-.18,0-.31-.23-.41a4.79,4.79,0,0,0-.76-.3l.29-.2c-.55.06-.65.14-1.09-.14,0-.11.13-.25.17-.08-.14-.4-.44,0-.61-.5h.27c-.23-.33-.3-.23-.64-.24a.65.65,0,0,1-.21-.89c-.18.07-.51,0-.57-.22a.21.21,0,0,1,.24-.05c-.18-.69-.92-.61-.86-1.2a.29.29,0,0,0,.13-.17c.25.48.51.82.46.81.26-.18.07-.56.62-.52-.4-.13-1.13-.38-1.21-.82l.07-.11,0,0a.31.31,0,0,0-.17-.2,1,1,0,0,0-.09-.35c.2-.16-.1-.49-.18-.7-.3.17-.37-.11-.51.26,0-.05,0,0,.13.14a.16.16,0,0,0,.07.07h0a5.28,5.28,0,0,0,.27.46c-.24-.06-.47-.15-.39-.46-.25,0-.51,0-.63,0,.3-.49.29-1.12.53-1.31-.45-.52-.69-1.39-1.46-1.56-.14-.16.11-.27.18-.37.1.08.12.21.24.23-.28-.3-.41-1.05-.87-1,0-.53.48.13.2-.48l.16.05c.33-1.43-1.7-1.77-1.1-3.42,0,.11,0,.16-.12.2,0-1.7-1-3.34-.56-5.07.07-.48-.22-.5-.47-.76l.35-.14-.48-.45c-.37-.67.79-1.29.13-2.11l-.24.13c0-.32-.23-1,.06-1-.05,0-.26-.09-.14-.22l.19,0-.39-.76c.1-.62.77,0,.75-.84-.09-.32-.62-.9-.74-.77a.38.38,0,0,1-.29.37l-.12-.3c-.57,0-1.17-.22-1.52.55l.38.5-.26.18,0-.43c-.24.26,0,.41.17.57a.45.45,0,0,0-.29.24l.57.47c-.21.08-.45-.2-.55.16.27.22.48-.27.68.11-.24.27-.46.22-.22.49a.24.24,0,0,1-.31-.11c.2.24.13.68.44.79-.3.29.16.87-.38.89a1.34,1.34,0,0,1,.51.66c-.68-.37,0,.9-.65.86.62.26.4,1.15.78,1.68-.05,0-.15-.08-.12-.13,0,.33-.17.44-.25.67.48,0,.66.46,1,.69-.4.46-.6-.16-1,0,.38-.08.49.63.79.45-.24.34-.1.28-.47.5.6,0,.15.27.56.45-.21.49-.53.21-.27.66C204.45,295.4,204.17,295,204.17,295Zm4.72,10.79h0l-.14-.21Zm.51.86-.22-.38c.09-.09.21-.12.26,0C209.34,306.24,209.39,306.48,209.4,306.66Zm1.08-2.91c.11.1.07.17,0,.22l-.15-.2h0Z"/><path class="b" d="M210,303.72s0,0-.05,0a.23.23,0,0,0,0,.11H210Z"/><path class="b" d="M283.89,292.52h0a.1.1,0,0,1,.07,0Z"/><polygon class="b" points="219.73 315.67 219.76 315.58 219.65 315.63 219.73 315.67"/><path class="b" d="M288.8,290.32a.18.18,0,0,0,.11,0Z"/><path class="b" d="M290.66,289l.32-.1A1.53,1.53,0,0,0,290.66,289Z"/><path class="b" d="M292.14,288.06a.53.53,0,0,0-.06-.13h0Z"/><path class="b" d="M269.8,304.6s0,0-.05,0S269.73,304.71,269.8,304.6Z"/><path class="b" d="M276.19,299.29a1.48,1.48,0,0,1-.12.29C276.2,299.51,276.3,299.46,276.19,299.29Z"/><polygon class="b" points="262.25 309.95 262.24 309.94 262.19 309.97 262.25 309.95"/><path class="b" d="M275.75,299.79a.47.47,0,0,0,.32-.21A.64.64,0,0,0,275.75,299.79Z"/><path class="b" d="M298.17,283.48l.07-.05a.08.08,0,0,1,0-.05Z"/><path class="b" d="M298.22,283.38l0-.09S298.2,283.35,298.22,283.38Z"/><path class="b" d="M298.36,283.1l-.1.19C298.32,283.25,298.39,283.21,298.36,283.1Z"/><path class="b" d="M296.27,284.8l.05.12A.28.28,0,0,0,296.27,284.8Z"/><path class="b" d="M295.74,285.27c.15-.08.5,0,.63-.26l-.05-.09C296.35,285.13,295.73,285,295.74,285.27Z"/><path class="b" d="M292.49,285.88l.52-.29c-.16,0-.38-.09-.19-.28C292,285.45,293.13,285.45,292.49,285.88Z"/><path class="b" d="M290.94,286.84c.21-.24-.12-.15-.16-.21C290.7,286.84,290.68,286.9,290.94,286.84Z"/><path class="b" d="M280.42,294.71l-.16-.27C280.09,294.62,280.33,294.54,280.42,294.71Z"/><polygon class="b" points="279.31 297.49 279.62 297.51 279.54 297.21 279.31 297.49"/><polygon class="b" points="276.81 296.52 276.87 296.43 276.61 296.75 276.81 296.52"/><path class="b" d="M258.48,308.71l.26.3C258.85,308.86,258.65,308.47,258.48,308.71Z"/><path class="b" d="M250.35,313.42c-.17-.13-.46-.15-.54.09C250,313.45,250.27,313.51,250.35,313.42Z"/><polygon class="b" points="223.09 313.51 223.31 313.43 222.94 313.44 223.09 313.51"/><path class="a" d="M345.73,351.6c-.88-2.52-21.14-62,.12-94.13,8-12.09,20.42-18.8,36.9-19.92,24.31-1.66,36.2,8.19,41.89,16.73,11,16.58,7.06,39.63,2.86,50.22,7.22,12.77,10.75,28.82,9.85,46.38l-18-.92A72.27,72.27,0,0,0,415,320c-10.83,7.74-25.53,10.33-36.83,7.39-12.88-3.36-20.52-13.37-19.93-26.14.45-9.75,5.3-17.71,13.32-21.84,10.3-5.31,24.38-3.64,36.75,4.34a56.34,56.34,0,0,1,5,3.66c1-7.51.64-16.7-3.68-23.19-4.44-6.67-13.09-9.61-25.69-8.75-10.74.73-18.3,4.62-23.11,11.9-13.61,20.57-3.26,63.49,1.87,78.29ZM385,294.37a11.35,11.35,0,0,0-5.16,1.08c-1.44.74-3.38,2.24-3.58,6.67-.14,3,.52,6.34,6.48,7.89,6.83,1.78,16.52-.27,22.79-5.3a37.19,37.19,0,0,0-6.95-5.79C393.53,295.67,388.74,294.37,385,294.37Z"/><path class="a" d="M78.77,527.07V423.89a3.59,3.59,0,0,0-3.58-3.58H49.5a3.59,3.59,0,0,0-3.59,3.58v136a3.58,3.58,0,0,0,3.59,3.58h84.57a3.58,3.58,0,0,0,3.58-3.58V534.23a3.58,3.58,0,0,0-3.58-3.58H82.35A3.58,3.58,0,0,1,78.77,527.07Z"/><path class="c" d="M321.74,442.49l-4.27-24.21a7.08,7.08,0,0,0-8.21-5.74l-58.34,10.29,0-.31-35.76,6.31a7.08,7.08,0,0,0-5.74,8.21l24.19,137.13a7.08,7.08,0,0,0,8.2,5.74l28.79-5.08a7.07,7.07,0,0,0,5.74-8.2l-7-39.46a7.08,7.08,0,0,1,5.74-8.21l19-3.35a7.08,7.08,0,0,0,5.74-8.21l-4.27-24.2a7.08,7.08,0,0,0-8.2-5.74l-19,3.35a7.08,7.08,0,0,1-8.2-5.74L258.88,468a7.08,7.08,0,0,1,5.74-8.2L316,450.69A7.08,7.08,0,0,0,321.74,442.49Z"/><path class="b" d="M391.73,548.34a69.43,69.43,0,0,1-28.69-6.1c-16.16-7.28-26.66-20.37-27.41-34.15a62.09,62.09,0,0,1,8.76-34.43A67.26,67.26,0,0,1,340.22,433c3.73-17.4,15.16-28.17,34-32,14-2.86,32.33-2.2,61.39,2.21L432,426.94c-53.38-8.11-65.46-2.07-68.28,11.11a42.33,42.33,0,0,0-.48,14.68c10-7.51,24.44-14.56,44.78-17.31,24-3.24,35.37,7.11,40.05,13.57,7,9.69,7.84,23,2.16,34.7-7.44,15.35-23.82,25-43.83,25.82-21.46.88-36-5.91-45.45-13.73a34.93,34.93,0,0,0-1.32,11c.2,3.74,4.45,9.58,13.31,13.58,6.68,3,30.73,11.06,59.62-11.8l14.89,18.81C430,541.18,410.47,548.33,391.73,548.34Zm-18-73.29c7.47,7.51,18.11,11,31.64,10.48,11-.45,19.7-5.06,23.22-12.31,1.81-3.75,1.81-7.64,0-10.15-2.57-3.55-9.07-5-17.39-3.87C393.69,461.57,381.72,467.69,373.75,475.05Z"/><rect class="b" x="153.65" y="452" width="18.19" height="139.08" rx="3.01" transform="translate(12.38 -3.7) rotate(1.36)"/><path class="b" d="M163.1,391.61l3.53-30.14a.19.19,0,0,1,.37,0l3,28.75a.19.19,0,0,0,.34.08l16.25-23.9a.19.19,0,0,1,.33.17L175.94,397a.19.19,0,0,0,.23.24l29.51-8.7a.18.18,0,0,1,.15.33L179.2,405.78a.18.18,0,0,0,0,.28l15.53,16.67a.18.18,0,0,1-.22.29L171.6,411.87a.18.18,0,0,0-.26.22l6.92,24.25a.18.18,0,0,1-.34.13l-12.16-24.13a.19.19,0,0,0-.31,0l-20.37,25.13a.18.18,0,0,1-.31-.19l13.56-32.67a.19.19,0,0,0-.18-.26l-50.91,2.88a.19.19,0,0,1-.06-.37l48.28-13.66a.18.18,0,0,0,.13-.23l-7.87-24a.19.19,0,0,1,.34-.16l14.69,22.89A.19.19,0,0,0,163.1,391.61Z"/><path class="a" d="M604.85,253.08a1.52,1.52,0,0,1-.87,0,1.49,1.49,0,0,1-1.05-1.84,1.54,1.54,0,0,1,.24-.5c.53-1.35,2.46-8.9,3.88-14.46,3.55-13.86,3.56-13.86,4.36-14.33a1.56,1.56,0,0,1,1.16-.15,1.51,1.51,0,0,1,1,1.85,1.85,1.85,0,0,1-.21.45c-.45,1.2-2.11,7.68-3.45,12.92-3.94,15.4-4,15.44-4.81,15.91A1.3,1.3,0,0,1,604.85,253.08Zm-.92-2.85a1.41,1.41,0,0,1,.84,0,1.59,1.59,0,0,0-.84,0Zm8-25.49Zm-.08,0,.08,0Zm0,0h0Zm0,0Zm0,0Zm0,0h0Zm0,0Z"/><path class="a" d="M564.44,253.85a1.52,1.52,0,0,1-.87,0c-1.48-.4-1.58-.43.21-13.36-1.57,5.92-1.69,6-2.24,6.31a1.56,1.56,0,0,1-1.16.15c-1.41-.39-1.47-.41-.58-12.64-.51,1.76-.67,1.85-1.06,2.08a1.54,1.54,0,0,1-1.15.15c-1.43-.4-1.43-.4-.52-12.21.09-1.18.19-2.5.29-3.78l-.06-.09.08-.28h0l-.08.28-1.42-.48c.07-.21.56-2,1-3.44,1-3.76,1-3.76,1.58-4.08a1.48,1.48,0,0,1,1.13-.13c1.25.34,1.41.38.82,8.33.41-1.34.57-1.43.93-1.64a1.49,1.49,0,0,1,1.15-.15c1.42.39,1.46.4.57,12.73,3.1-11.87,3.14-11.89,3.85-12.3a1.52,1.52,0,0,1,1.16-.15c1.53.42,1.37,1.7.72,7.07-.19,1.5-.41,3.22-.66,5,1.39-5.3,1.57-5.4,2.15-5.74a1.54,1.54,0,0,1,1.17-.15,1.5,1.5,0,0,1,1,1.84,1.53,1.53,0,0,1-.23.48c-.45,1.19-2,7.25-3.23,12.15-3.4,13.36-3.45,13.39-4.24,13.85A1.3,1.3,0,0,1,564.44,253.85Zm6.2-25.55Zm0,0Zm0,0Zm0,0Zm0,0Zm0,0Zm0,0Zm0,0Zm0,0Zm0,0Zm0,0Zm0,0Zm0,0Z"/><path class="a" d="M579,302.66a1.7,1.7,0,0,1-.92,0c-1.56-.43-1.29-2.06-.87-4.52.28-1.68.76-4.08,1.45-7.33.46-2.13,1-4.49,1.55-7-2.34,8.58-2.87,9.38-3.57,9.79a1.66,1.66,0,0,1-1.2.16c-1.61-.44-1.73-1.25.08-11.38.43-2.44,1-5.2,1.51-8.12-1.73,6.52-2,6.68-2.6,7a1.58,1.58,0,0,1-1.18.16c-1.57-.43-1.5-1.56-.34-8.4.2-1.17.43-2.45.67-3.82-1.46,5.55-1.68,5.68-2.26,6a1.57,1.57,0,0,1-1.18.16c-1.48-.41-1.68-.47.63-13.19-2.55,9.85-2.76,10-3.43,10.36a1.59,1.59,0,0,1-1.17.16c-1.67-.46-1.67-.46,1.3-19-4,15.69-4.15,15.79-5,16.26a1.54,1.54,0,0,1-1.17.15c-1.27-.35-1.31-.36-1.31-8.87l-.33,1.25c-3.41,13.16-3.41,13.16-4.18,13.6a1.56,1.56,0,0,1-1.16.15c-1.28-.35-1.45-.4-.88-8.09-.46,1.6-.63,1.7-1,1.93a1.51,1.51,0,0,1-1.16.15c-1.07-.3-1.18-.33-1.6-6.1-.68,2.57-.8,2.64-1.29,2.92a1.47,1.47,0,0,1-1.16.15c-.74-.2-.75-.2-2.82-4.4l-.35,1.29c-1.4,5.3-1.4,5.3-2,5.64a1.45,1.45,0,0,1-1.13.14c-.44-.12-.44-.12-2.77-2.32l-.45-.42-.21.77-.64,2.35c-.35,1.3-.69,2.52-2.13,2.14a1.52,1.52,0,0,1-1.07-1.84l0-.09c.08-.26.5-1.82.92-3.34l.59-2.18c.32-1.17.65-2.38,2.06-2,.5.13.5.13,3,2.47l.32.3.62-2.35c1.48-5.57,1.48-5.57,2.08-5.91a1.49,1.49,0,0,1,1.15-.15c.73.2.73.2,2.65,4.09.06.11.11.23.17.36l.38-1.45c1.44-5.6,1.44-5.6,2.08-6a1.47,1.47,0,0,1,1.16-.15c1.08.29,1.16.31,1.58,6.17,1.88-7.33,1.92-7.36,2.61-7.76a1.52,1.52,0,0,1,1.16-.15c1.3.36,1.45.4.86,8.39,2.74-10.55,2.76-10.56,3.45-11a1.49,1.49,0,0,1,1.15-.15c1.3.36,1.37.37,1.38,9.28.76-2.95,1.59-6.24,2.35-9.23,4.77-18.85,4.9-18.92,5.75-19.42a1.62,1.62,0,0,1,1.18-.16c1.58.44,1.84.51-.7,16.64,3.77-14.74,4-14.85,4.74-15.3a1.59,1.59,0,0,1,1.17-.16c1.58.44,1.52,1.42.26,8.92-.06.38-.13.77-.19,1.17,1.18-4.23,1.48-4.4,2-4.71a1.6,1.6,0,0,1,1.19-.16c1.63.45,1.47,1.7.35,8.28-.2,1.14-.42,2.4-.66,3.74,2.82-11,3.1-11.12,3.8-11.53a1.56,1.56,0,0,1,1.19-.16c1.62.44,1.5,1.45.1,9.16-.81,4.47-2,10.38-3.22,16.64-.26,1.32-.53,2.69-.81,4.09.82-3.19,1.62-6.38,2.37-9.32,7.21-28.49,7.41-28.61,8.36-29.16a1.56,1.56,0,0,1,1.18-.15c1.48.4,2.07.57-1,15.06,3.67-14.16,4.47-16.06,5.36-16.59a1.65,1.65,0,0,1,1.21-.16c1.64.45,1.55,1.66.23,9-.11.62-.23,1.26-.35,1.94,3.9-15.37,4.43-16.32,5.31-16.84a1.65,1.65,0,0,1,1.21-.16c1.61.44,1.6,1.3-.06,10.23-.28,1.55-.61,3.26-1,5.07,3.39-13.17,3.9-14,4.71-14.51a1.67,1.67,0,0,1,1.2-.16c1.61.44,1.71,1.15-.22,10.92-1.08,5.43-2.65,12.69-4.17,19.72-.47,2.18-1,4.47-1.46,6.76a1.34,1.34,0,0,1,.35.05c1.24.34,1.28.35,1.36,8.61,1.72-6.78,1.79-6.82,2.47-7.21a1.56,1.56,0,0,1,1.16-.16c1.35.37,1.41.39,1,10.63,2.36-8.95,2.4-9,3-9.34a1.5,1.5,0,0,1,1.15-.14c1.3.35,1.41.38.81,8.79.55-1.93.7-2,1.11-2.25a1.45,1.45,0,0,1,1.15-.15c1.05.29,1.2.33,1.58,5.6,1.07-4,1.14-4.09,1.68-4.4a1.54,1.54,0,0,1,1.15-.15c1.14.31,1.22.33,1.67,7.23.82-3,.91-3,1.38-3.3a1.49,1.49,0,0,1,1.13-.15c1,.27,1,.29,2,5.48.3-.78.76-1.34,1.77-1.1a1.5,1.5,0,0,1,1.12,1.8c0,.05,0,.09,0,.13-.07.25-.48,1.74-.86,3.15l-.52,1.91c-.27,1-.62,2.27-2.06,1.9-1-.27-1-.28-2-5.49-.31,1.14-.6,2.23-.83,3.08-.53,2-.82,3-2.29,2.65-1.15-.32-1.2-.33-1.65-7.26-1.07,4.07-1.15,4.12-1.7,4.43a1.54,1.54,0,0,1-1.15.15c-1.07-.3-1.13-.31-1.52-5.81-1.9,7.26-1.94,7.28-2.58,7.65a1.47,1.47,0,0,1-1.16.15c-1.28-.35-1.45-.4-.89-8.46-1.78,6.69-1.86,6.74-2.43,7.07a1.54,1.54,0,0,1-1.15.15c-1.34-.37-1.4-.39-1-10.51-1.26,4.9-1.35,4.95-2,5.3a1.52,1.52,0,0,1-1.16.16c-1.25-.35-1.34-.37-1.42-8.65l-.06.24c-2.42,9.47-2.42,9.47-3.15,9.89a1.52,1.52,0,0,1-1.16.16c-1.63-.45-1.61-1.42.17-10.39l.71-3.48c-2.19,8.33-2.5,8.51-3.15,8.89a1.64,1.64,0,0,1-1.19.16c-1.58-.44-1.58-1.16,0-9.7.46-2.48,1-5.42,1.66-8.55-4,15.89-4.42,16.67-5.28,17.17a1.64,1.64,0,0,1-1.19.16c-1.61-.45-1.52-1.62-.24-8.72.41-2.33,1-5.11,1.53-8.06-.55,2.18-1.09,4.34-1.62,6.43-8.49,33.93-9.65,37.55-10.91,38.29A2.71,2.71,0,0,1,579,302.66Z"/><path class="a" d="M527.58,267.26a229.61,229.61,0,0,0-25.82,9.68c-12.27,5.41-26,11.86-34.48,22.7-1,1.26.87,2.95,1.86,1.67,8.59-11,23-17.54,35.49-22.9a229.06,229.06,0,0,1,23.71-8.76,1.25,1.25,0,0,0-.76-2.39Z"/><path class="a" d="M533.1,291.33c-11,6.56-20.64,16.62-30.05,25.18-12.95,11.77-25.76,23.77-37.91,36.36-3.37,3.48-7.65,7.19-9.93,11.56a1.25,1.25,0,0,0,2.22,1.15c2.78-5.31,8.4-9.89,12.54-14.08,7.53-7.64,15.28-15.06,23.1-22.39,8-7.52,16.16-15,24.47-22.18,5.35-4.66,10.79-9.85,16.92-13.5,1.39-.82,0-2.92-1.36-2.1Z"/><path class="a" d="M558.16,308.51c-12.88,12.68-22.48,29.57-28.55,46.56-.54,1.51,1.91,2,2.44.54,5.87-16.43,15.43-33.08,28-45.43,1.15-1.12-.71-2.8-1.85-1.67Z"/></svg>